#define icon_width 12
#define icon_height 12
static char icon_bits[] = {
  0xF0, 0x00,
  0xF0, 0x00,
  0xF0, 0x00,
  0xF0, 0x00,
  0xFF, 0x0F,
  0xFF, 0x0F,
  0xFF, 0x0F,
  0xFF, 0x0F,
  0xF0, 0x00,
  0xF0, 0x00,
  0xF0, 0x00,
  0xF0, 0x00 };
