STARTFONT 2.1
FONT -Adobe-Courier-Medium-R-Normal--10-100-75-75-M-60-ISO8859-1
SIZE 10 75 75
FONTBOUNDINGBOX 8 11 -1 -2
COMMENT $XConsortium: courR10.bdf,v 1.11 95/01/26 18:01:05 gildea Exp $
COMMENT 
COMMENT +
COMMENT  Copyright 1984-1989, 1994 Adobe Systems Incorporated.
COMMENT  Copyright 1988, 1994 Digital Equipment Corporation.
COMMENT
COMMENT  Adobe is a trademark of Adobe Systems Incorporated which may be
COMMENT  registered in certain jurisdictions.
COMMENT  Permission to use these trademarks is hereby granted only in
COMMENT  association with the images described in this file.
COMMENT
COMMENT  Permission to use, copy, modify, distribute and sell this software
COMMENT  and its documentation for any purpose and without fee is hereby
COMMENT  granted, provided that the above copyright notices appear in all
COMMENT  copies and that both those copyright notices and this permission
COMMENT  notice appear in supporting documentation, and that the names of
COMMENT  Adobe Systems and Digital Equipment Corporation not be used in
COMMENT  advertising or publicity pertaining to distribution of the software
COMMENT  without specific, written prior permission.  Adobe Systems and
COMMENT  Digital Equipment Corporation make no representations about the
COMMENT  suitability of this software for any purpose.  It is provided "as
COMMENT  is" without express or implied warranty.
COMMENT -
STARTPROPERTIES 28
FOUNDRY "Adobe"
FAMILY_NAME "Courier"
WEIGHT_NAME "Medium"
SLANT "R"
SETWIDTH_NAME "Normal"
ADD_STYLE_NAME ""
PIXEL_SIZE 10
POINT_SIZE 100
RESOLUTION_X 75
RESOLUTION_Y 75
SPACING "M"
AVERAGE_WIDTH 60
CHARSET_REGISTRY "ISO8859"
CHARSET_ENCODING "1"
CAP_HEIGHT 6
X_HEIGHT 5
FONT_ASCENT 8
FONT_DESCENT 2
FACE_NAME "Courier"
COPYRIGHT "Copyright (c) 1984, 1987 Adobe Systems Incorporated. All Rights Reserved. Copyright (c) 1988, 1991 Digital Equipment Corporation. All Rights Reserved."
NOTICE "No mark"
_DEC_DEVICE_FONTNAMES "PS=Courier"
_DEC_PRODUCTINFO "DECwindows Fonts V2.2, 07-Nov-1991"
DEFAULT_CHAR 32
RELATIVE_SETWIDTH 50
RELATIVE_WEIGHT 50
CHARSET_COLLECTIONS "ASCII ISO8859-1 ADOBE-STANDARD"
FULL_NAME "Courier"
ENDPROPERTIES
CHARS 229
STARTCHAR space
ENCODING 32
SWIDTH 600 0
DWIDTH 6 0
BBX 1 1 0 0
BITMAP
00
ENDCHAR
STARTCHAR exclam
ENCODING 33
SWIDTH 600 0
DWIDTH 6 0
BBX 1 7 2 0
BITMAP
80
80
80
80
80
00
80
ENDCHAR
STARTCHAR quotedbl
ENCODING 34
SWIDTH 600 0
DWIDTH 6 0
BBX 3 3 1 4
BITMAP
A0
A0
A0
ENDCHAR
STARTCHAR numbersign
ENCODING 35
SWIDTH 600 0
DWIDTH 6 0
BBX 6 7 0 0
BITMAP
28
28
7C
28
FC
50
50
ENDCHAR
STARTCHAR dollar
ENCODING 36
SWIDTH 600 0
DWIDTH 6 0
BBX 4 8 1 -1
BITMAP
20
70
80
60
10
90
60
20
ENDCHAR
STARTCHAR percent
ENCODING 37
SWIDTH 600 0
DWIDTH 6 0
BBX 6 6 0 0
BITMAP
60
A8
D0
2C
54
18
ENDCHAR
STARTCHAR ampersand
ENCODING 38
SWIDTH 600 0
DWIDTH 6 0
BBX 6 6 0 0
BITMAP
30
40
60
94
88
74
ENDCHAR
STARTCHAR quoteright
ENCODING 39
SWIDTH 600 0
DWIDTH 6 0
BBX 2 3 2 4
BITMAP
40
40
80
ENDCHAR
STARTCHAR parenleft
ENCODING 40
SWIDTH 600 0
DWIDTH 6 0
BBX 3 9 2 -2
BITMAP
20
40
40
80
80
80
40
40
20
ENDCHAR
STARTCHAR parenright
ENCODING 41
SWIDTH 600 0
DWIDTH 6 0
BBX 3 9 1 -2
BITMAP
80
40
40
20
20
20
40
40
80
ENDCHAR
STARTCHAR asterisk
ENCODING 42
SWIDTH 600 0
DWIDTH 6 0
BBX 5 4 0 3
BITMAP
20
D8
20
50
ENDCHAR
STARTCHAR plus
ENCODING 43
SWIDTH 600 0
DWIDTH 6 0
BBX 5 5 0 1
BITMAP
20
20
F8
20
20
ENDCHAR
STARTCHAR comma
ENCODING 44
SWIDTH 600 0
DWIDTH 6 0
BBX 2 3 1 -2
BITMAP
40
40
80
ENDCHAR
STARTCHAR minus
ENCODING 45
SWIDTH 600 0
DWIDTH 6 0
BBX 4 1 1 3
BITMAP
F0
ENDCHAR
STARTCHAR period
ENCODING 46
SWIDTH 600 0
DWIDTH 6 0
BBX 1 1 2 0
BITMAP
80
ENDCHAR
STARTCHAR slash
ENCODING 47
SWIDTH 600 0
DWIDTH 6 0
BBX 5 8 0 -1
BITMAP
08
10
10
20
20
40
40
80
ENDCHAR
STARTCHAR zero
ENCODING 48
SWIDTH 600 0
DWIDTH 6 0
BBX 4 7 1 0
BITMAP
60
90
90
90
90
90
60
ENDCHAR
STARTCHAR one
ENCODING 49
SWIDTH 600 0
DWIDTH 6 0
BBX 4 7 1 0
BITMAP
20
E0
20
20
20
20
F0
ENDCHAR
STARTCHAR two
ENCODING 50
SWIDTH 600 0
DWIDTH 6 0
BBX 4 7 1 0
BITMAP
60
90
10
20
40
80
F0
ENDCHAR
STARTCHAR three
ENCODING 51
SWIDTH 600 0
DWIDTH 6 0
BBX 4 7 1 0
BITMAP
60
90
10
60
10
90
60
ENDCHAR
STARTCHAR four
ENCODING 52
SWIDTH 600 0
DWIDTH 6 0
BBX 5 7 0 0
BITMAP
10
30
50
90
F8
10
10
ENDCHAR
STARTCHAR five
ENCODING 53
SWIDTH 600 0
DWIDTH 6 0
BBX 4 7 1 0
BITMAP
F0
80
80
E0
10
10
E0
ENDCHAR
STARTCHAR six
ENCODING 54
SWIDTH 600 0
DWIDTH 6 0
BBX 4 7 1 0
BITMAP
70
80
80
E0
90
90
60
ENDCHAR
STARTCHAR seven
ENCODING 55
SWIDTH 600 0
DWIDTH 6 0
BBX 4 7 1 0
BITMAP
F0
90
10
20
20
40
40
ENDCHAR
STARTCHAR eight
ENCODING 56
SWIDTH 600 0
DWIDTH 6 0
BBX 4 7 1 0
BITMAP
60
90
90
60
90
90
60
ENDCHAR
STARTCHAR nine
ENCODING 57
SWIDTH 600 0
DWIDTH 6 0
BBX 4 7 1 0
BITMAP
60
90
90
70
10
10
E0
ENDCHAR
STARTCHAR colon
ENCODING 58
SWIDTH 600 0
DWIDTH 6 0
BBX 1 4 2 0
BITMAP
80
00
00
80
ENDCHAR
STARTCHAR semicolon
ENCODING 59
SWIDTH 600 0
DWIDTH 6 0
BBX 2 6 1 -2
BITMAP
40
00
00
40
40
80
ENDCHAR
STARTCHAR less
ENCODING 60
SWIDTH 600 0
DWIDTH 6 0
BBX 3 5 1 1
BITMAP
20
40
80
40
20
ENDCHAR
STARTCHAR equal
ENCODING 61
SWIDTH 600 0
DWIDTH 6 0
BBX 4 3 1 2
BITMAP
F0
00
F0
ENDCHAR
STARTCHAR greater
ENCODING 62
SWIDTH 600 0
DWIDTH 6 0
BBX 3 5 2 1
BITMAP
80
40
20
40
80
ENDCHAR
STARTCHAR question
ENCODING 63
SWIDTH 600 0
DWIDTH 6 0
BBX 4 6 1 0
BITMAP
60
90
20
40
00
40
ENDCHAR
STARTCHAR at
ENCODING 64
SWIDTH 600 0
DWIDTH 6 0
BBX 6 8 0 -1
BITMAP
30
48
98
A8
A8
9C
80
78
ENDCHAR
STARTCHAR A
ENCODING 65
SWIDTH 600 0
DWIDTH 6 0
BBX 6 6 0 0
BITMAP
70
28
48
78
48
CC
ENDCHAR
STARTCHAR B
ENCODING 66
SWIDTH 600 0
DWIDTH 6 0
BBX 5 6 0 0
BITMAP
F0
48
70
48
48
F0
ENDCHAR
STARTCHAR C
ENCODING 67
SWIDTH 600 0
DWIDTH 6 0
BBX 4 6 1 0
BITMAP
60
90
80
80
90
60
ENDCHAR
STARTCHAR D
ENCODING 68
SWIDTH 600 0
DWIDTH 6 0
BBX 5 6 0 0
BITMAP
F0
48
48
48
48
F0
ENDCHAR
STARTCHAR E
ENCODING 69
SWIDTH 600 0
DWIDTH 6 0
BBX 5 6 0 0
BITMAP
F8
48
70
40
48
F8
ENDCHAR
STARTCHAR F
ENCODING 70
SWIDTH 600 0
DWIDTH 6 0
BBX 5 6 0 0
BITMAP
F8
48
70
50
40
E0
ENDCHAR
STARTCHAR G
ENCODING 71
SWIDTH 600 0
DWIDTH 6 0
BBX 4 6 1 0
BITMAP
60
90
80
B0
90
60
ENDCHAR
STARTCHAR H
ENCODING 72
SWIDTH 600 0
DWIDTH 6 0
BBX 6 6 0 0
BITMAP
CC
48
78
48
48
CC
ENDCHAR
STARTCHAR I
ENCODING 73
SWIDTH 600 0
DWIDTH 6 0
BBX 5 6 0 0
BITMAP
F8
20
20
20
20
F8
ENDCHAR
STARTCHAR J
ENCODING 74
SWIDTH 600 0
DWIDTH 6 0
BBX 5 6 0 0
BITMAP
78
10
10
90
90
60
ENDCHAR
STARTCHAR K
ENCODING 75
SWIDTH 600 0
DWIDTH 6 0
BBX 6 6 0 0
BITMAP
D8
50
60
50
48
E4
ENDCHAR
STARTCHAR L
ENCODING 76
SWIDTH 600 0
DWIDTH 6 0
BBX 5 6 0 0
BITMAP
E0
40
40
40
48
F8
ENDCHAR
STARTCHAR M
ENCODING 77
SWIDTH 600 0
DWIDTH 6 0
BBX 5 6 0 0
BITMAP
88
D8
A8
A8
88
D8
ENDCHAR
STARTCHAR N
ENCODING 78
SWIDTH 600 0
DWIDTH 6 0
BBX 5 6 0 0
BITMAP
D8
48
68
58
48
C8
ENDCHAR
STARTCHAR O
ENCODING 79
SWIDTH 600 0
DWIDTH 6 0
BBX 4 6 1 0
BITMAP
60
90
90
90
90
60
ENDCHAR
STARTCHAR P
ENCODING 80
SWIDTH 600 0
DWIDTH 6 0
BBX 5 6 0 0
BITMAP
F0
48
48
70
40
E0
ENDCHAR
STARTCHAR Q
ENCODING 81
SWIDTH 600 0
DWIDTH 6 0
BBX 4 7 1 -1
BITMAP
60
90
90
90
90
60
10
ENDCHAR
STARTCHAR R
ENCODING 82
SWIDTH 600 0
DWIDTH 6 0
BBX 6 6 0 0
BITMAP
F0
48
48
70
48
E4
ENDCHAR
STARTCHAR S
ENCODING 83
SWIDTH 600 0
DWIDTH 6 0
BBX 4 6 1 0
BITMAP
70
80
60
10
90
E0
ENDCHAR
STARTCHAR T
ENCODING 84
SWIDTH 600 0
DWIDTH 6 0
BBX 5 6 0 0
BITMAP
F8
A8
20
20
20
70
ENDCHAR
STARTCHAR U
ENCODING 85
SWIDTH 600 0
DWIDTH 6 0
BBX 6 6 0 0
BITMAP
CC
48
48
48
48
30
ENDCHAR
STARTCHAR V
ENCODING 86
SWIDTH 600 0
DWIDTH 6 0
BBX 5 6 0 0
BITMAP
D8
88
50
50
50
20
ENDCHAR
STARTCHAR W
ENCODING 87
SWIDTH 600 0
DWIDTH 6 0
BBX 7 6 -1 0
BITMAP
EE
44
54
54
28
28
ENDCHAR
STARTCHAR X
ENCODING 88
SWIDTH 600 0
DWIDTH 6 0
BBX 5 6 0 0
BITMAP
D8
50
20
20
50
D8
ENDCHAR
STARTCHAR Y
ENCODING 89
SWIDTH 600 0
DWIDTH 6 0
BBX 5 6 0 0
BITMAP
D8
88
50
20
20
70
ENDCHAR
STARTCHAR Z
ENCODING 90
SWIDTH 600 0
DWIDTH 6 0
BBX 4 6 1 0
BITMAP
F0
90
20
40
90
F0
ENDCHAR
STARTCHAR bracketleft
ENCODING 91
SWIDTH 600 0
DWIDTH 6 0
BBX 2 9 2 -2
BITMAP
C0
80
80
80
80
80
80
80
C0
ENDCHAR
STARTCHAR backslash
ENCODING 92
SWIDTH 600 0
DWIDTH 6 0
BBX 5 8 1 -1
BITMAP
80
40
40
20
20
10
10
08
ENDCHAR
STARTCHAR bracketright
ENCODING 93
SWIDTH 600 0
DWIDTH 6 0
BBX 2 9 2 -2
BITMAP
C0
40
40
40
40
40
40
40
C0
ENDCHAR
STARTCHAR asciicircum
ENCODING 94
SWIDTH 600 0
DWIDTH 6 0
BBX 5 3 0 4
BITMAP
20
50
88
ENDCHAR
STARTCHAR underscore
ENCODING 95
SWIDTH 600 0
DWIDTH 6 0
BBX 6 1 0 -2
BITMAP
FC
ENDCHAR
STARTCHAR quoteleft
ENCODING 96
SWIDTH 600 0
DWIDTH 6 0
BBX 2 3 2 4
BITMAP
80
80
40
ENDCHAR
STARTCHAR a
ENCODING 97
SWIDTH 600 0
DWIDTH 6 0
BBX 5 5 1 0
BITMAP
60
10
70
90
68
ENDCHAR
STARTCHAR b
ENCODING 98
SWIDTH 600 0
DWIDTH 6 0
BBX 5 7 0 0
BITMAP
C0
40
70
48
48
48
F0
ENDCHAR
STARTCHAR c
ENCODING 99
SWIDTH 600 0
DWIDTH 6 0
BBX 4 5 1 0
BITMAP
60
90
80
90
60
ENDCHAR
STARTCHAR d
ENCODING 100
SWIDTH 600 0
DWIDTH 6 0
BBX 5 7 1 0
BITMAP
30
10
70
90
90
90
68
ENDCHAR
STARTCHAR e
ENCODING 101
SWIDTH 600 0
DWIDTH 6 0
BBX 4 5 1 0
BITMAP
60
90
E0
80
70
ENDCHAR
STARTCHAR f
ENCODING 102
SWIDTH 600 0
DWIDTH 6 0
BBX 4 7 1 0
BITMAP
30
40
F0
40
40
40
F0
ENDCHAR
STARTCHAR g
ENCODING 103
SWIDTH 600 0
DWIDTH 6 0
BBX 5 7 1 -2
BITMAP
68
90
90
90
70
10
E0
ENDCHAR
STARTCHAR h
ENCODING 104
SWIDTH 600 0
DWIDTH 6 0
BBX 6 7 0 0
BITMAP
C0
40
70
48
48
48
EC
ENDCHAR
STARTCHAR i
ENCODING 105
SWIDTH 600 0
DWIDTH 6 0
BBX 5 7 1 0
BITMAP
20
00
60
20
20
20
F8
ENDCHAR
STARTCHAR j
ENCODING 106
SWIDTH 600 0
DWIDTH 6 0
BBX 3 9 1 -2
BITMAP
20
00
E0
20
20
20
20
20
C0
ENDCHAR
STARTCHAR k
ENCODING 107
SWIDTH 600 0
DWIDTH 6 0
BBX 5 7 0 0
BITMAP
C0
40
58
50
60
50
D8
ENDCHAR
STARTCHAR l
ENCODING 108
SWIDTH 600 0
DWIDTH 6 0
BBX 5 7 1 0
BITMAP
60
20
20
20
20
20
F8
ENDCHAR
STARTCHAR m
ENCODING 109
SWIDTH 600 0
DWIDTH 6 0
BBX 6 5 0 0
BITMAP
D0
A8
A8
A8
AC
ENDCHAR
STARTCHAR n
ENCODING 110
SWIDTH 600 0
DWIDTH 6 0
BBX 6 5 0 0
BITMAP
B0
48
48
48
EC
ENDCHAR
STARTCHAR o
ENCODING 111
SWIDTH 600 0
DWIDTH 6 0
BBX 4 5 1 0
BITMAP
60
90
90
90
60
ENDCHAR
STARTCHAR p
ENCODING 112
SWIDTH 600 0
DWIDTH 6 0
BBX 5 7 0 -2
BITMAP
B0
48
48
48
70
40
E0
ENDCHAR
STARTCHAR q
ENCODING 113
SWIDTH 600 0
DWIDTH 6 0
BBX 5 7 1 -2
BITMAP
68
90
90
90
70
10
38
ENDCHAR
STARTCHAR r
ENCODING 114
SWIDTH 600 0
DWIDTH 6 0
BBX 5 5 1 0
BITMAP
B8
40
40
40
F0
ENDCHAR
STARTCHAR s
ENCODING 115
SWIDTH 600 0
DWIDTH 6 0
BBX 4 5 1 0
BITMAP
70
80
60
10
E0
ENDCHAR
STARTCHAR t
ENCODING 116
SWIDTH 600 0
DWIDTH 6 0
BBX 5 7 1 0
BITMAP
40
40
F0
40
40
48
30
ENDCHAR
STARTCHAR u
ENCODING 117
SWIDTH 600 0
DWIDTH 6 0
BBX 6 5 0 0
BITMAP
D8
48
48
48
34
ENDCHAR
STARTCHAR v
ENCODING 118
SWIDTH 600 0
DWIDTH 6 0
BBX 6 5 0 0
BITMAP
CC
44
28
28
10
ENDCHAR
STARTCHAR w
ENCODING 119
SWIDTH 600 0
DWIDTH 6 0
BBX 6 5 0 0
BITMAP
AC
A8
A8
50
50
ENDCHAR
STARTCHAR x
ENCODING 120
SWIDTH 600 0
DWIDTH 6 0
BBX 5 5 0 0
BITMAP
D8
50
20
50
D8
ENDCHAR
STARTCHAR y
ENCODING 121
SWIDTH 600 0
DWIDTH 6 0
BBX 5 7 0 -2
BITMAP
D8
48
48
48
30
20
C0
ENDCHAR
STARTCHAR z
ENCODING 122
SWIDTH 600 0
DWIDTH 6 0
BBX 4 5 1 0
BITMAP
F0
20
40
90
F0
ENDCHAR
STARTCHAR braceleft
ENCODING 123
SWIDTH 600 0
DWIDTH 6 0
BBX 3 9 2 -2
BITMAP
20
40
40
40
80
40
40
40
20
ENDCHAR
STARTCHAR bar
ENCODING 124
SWIDTH 600 0
DWIDTH 6 0
BBX 1 9 2 -2
BITMAP
80
80
80
80
80
80
80
80
80
ENDCHAR
STARTCHAR braceright
ENCODING 125
SWIDTH 600 0
DWIDTH 6 0
BBX 3 9 1 -2
BITMAP
80
40
40
40
20
40
40
40
80
ENDCHAR
STARTCHAR asciitilde
ENCODING 126
SWIDTH 600 0
DWIDTH 6 0
BBX 4 2 1 3
BITMAP
50
A0
ENDCHAR
STARTCHAR space
ENCODING 160
SWIDTH 600 0
DWIDTH 6 0
BBX 1 1 0 0
BITMAP
00
ENDCHAR
STARTCHAR exclamdown
ENCODING 161
SWIDTH 600 0
DWIDTH 6 0
BBX 1 7 3 -2
BITMAP
80
00
80
80
80
80
80
ENDCHAR
STARTCHAR cent
ENCODING 162
SWIDTH 600 0
DWIDTH 6 0
BBX 4 8 1 -1
BITMAP
20
20
70
80
80
70
20
20
ENDCHAR
STARTCHAR sterling
ENCODING 163
SWIDTH 600 0
DWIDTH 6 0
BBX 6 7 0 0
BITMAP
38
40
F8
20
20
44
FC
ENDCHAR
STARTCHAR currency
ENCODING 164
SWIDTH 600 0
DWIDTH 6 0
BBX 5 5 0 1
BITMAP
88
70
50
70
88
ENDCHAR
STARTCHAR yen
ENCODING 165
SWIDTH 600 0
DWIDTH 6 0
BBX 5 7 0 0
BITMAP
88
50
F8
20
F8
20
70
ENDCHAR
STARTCHAR brokenbar
ENCODING 166
SWIDTH 600 0
DWIDTH 6 0
BBX 1 9 2 -2
BITMAP
80
80
80
00
00
80
80
80
80
ENDCHAR
STARTCHAR section
ENCODING 167
SWIDTH 600 0
DWIDTH 6 0
BBX 4 7 1 -1
BITMAP
70
80
60
90
60
10
E0
ENDCHAR
STARTCHAR dieresis
ENCODING 168
SWIDTH 600 0
DWIDTH 6 0
BBX 3 1 1 6
BITMAP
A0
ENDCHAR
STARTCHAR copyright
ENCODING 169
SWIDTH 600 0
DWIDTH 6 0
BBX 6 7 0 0
BITMAP
30
48
B4
A4
B4
48
30
ENDCHAR
STARTCHAR ordfeminine
ENCODING 170
SWIDTH 600 0
DWIDTH 6 0
BBX 4 5 1 1
BITMAP
E0
10
D0
00
F0
ENDCHAR
STARTCHAR guillemotleft
ENCODING 171
SWIDTH 600 0
DWIDTH 6 0
BBX 5 3 0 1
BITMAP
48
90
48
ENDCHAR
STARTCHAR logicalnot
ENCODING 172
SWIDTH 600 0
DWIDTH 6 0
BBX 5 3 0 2
BITMAP
F8
08
08
ENDCHAR
STARTCHAR hyphen
ENCODING 173
SWIDTH 600 0
DWIDTH 6 0
BBX 4 1 1 3
BITMAP
F0
ENDCHAR
STARTCHAR registered
ENCODING 174
SWIDTH 600 0
DWIDTH 6 0
BBX 6 7 0 0
BITMAP
30
48
BC
B4
AC
48
30
ENDCHAR
STARTCHAR macron
ENCODING 175
SWIDTH 600 0
DWIDTH 6 0
BBX 4 1 1 6
BITMAP
F0
ENDCHAR
STARTCHAR degree
ENCODING 176
SWIDTH 600 0
DWIDTH 6 0
BBX 4 3 1 4
BITMAP
60
90
60
ENDCHAR
STARTCHAR plusminus
ENCODING 177
SWIDTH 600 0
DWIDTH 6 0
BBX 5 5 0 1
BITMAP
20
F8
20
00
F8
ENDCHAR
STARTCHAR twosuperior
ENCODING 178
SWIDTH 600 0
DWIDTH 6 0
BBX 3 4 1 3
BITMAP
60
A0
40
E0
ENDCHAR
STARTCHAR threesuperior
ENCODING 179
SWIDTH 600 0
DWIDTH 6 0
BBX 3 4 1 3
BITMAP
E0
40
20
C0
ENDCHAR
STARTCHAR acute
ENCODING 180
SWIDTH 600 0
DWIDTH 6 0
BBX 2 2 2 6
BITMAP
40
80
ENDCHAR
STARTCHAR mu
ENCODING 181
SWIDTH 600 0
DWIDTH 6 0
BBX 6 7 0 -2
BITMAP
D8
48
48
48
74
40
40
ENDCHAR
STARTCHAR paragraph
ENCODING 182
SWIDTH 600 0
DWIDTH 6 0
BBX 6 7 0 -1
BITMAP
7C
A8
A8
68
28
28
6C
ENDCHAR
STARTCHAR periodcentered
ENCODING 183
SWIDTH 600 0
DWIDTH 6 0
BBX 1 1 2 3
BITMAP
80
ENDCHAR
STARTCHAR cedilla
ENCODING 184
SWIDTH 600 0
DWIDTH 6 0
BBX 3 3 1 -2
BITMAP
40
20
C0
ENDCHAR
STARTCHAR onesuperior
ENCODING 185
SWIDTH 600 0
DWIDTH 6 0
BBX 3 4 1 3
BITMAP
C0
40
40
E0
ENDCHAR
STARTCHAR ordmasculine
ENCODING 186
SWIDTH 600 0
DWIDTH 6 0
BBX 4 5 1 1
BITMAP
60
90
60
00
F0
ENDCHAR
STARTCHAR guillemotright
ENCODING 187
SWIDTH 600 0
DWIDTH 6 0
BBX 5 3 1 1
BITMAP
90
48
90
ENDCHAR
STARTCHAR onequarter
ENCODING 188
SWIDTH 600 0
DWIDTH 6 0
BBX 7 9 0 -1
BITMAP
C0
42
44
E8
10
24
4C
9E
04
ENDCHAR
STARTCHAR onehalf
ENCODING 189
SWIDTH 600 0
DWIDTH 6 0
BBX 7 9 0 -1
BITMAP
C0
42
44
E8
10
2C
54
88
1C
ENDCHAR
STARTCHAR threequarters
ENCODING 190
SWIDTH 600 0
DWIDTH 6 0
BBX 7 9 0 -1
BITMAP
E0
42
24
C8
10
24
4C
9E
04
ENDCHAR
STARTCHAR questiondown
ENCODING 191
SWIDTH 600 0
DWIDTH 6 0
BBX 4 6 1 -2
BITMAP
20
00
20
40
90
60
ENDCHAR
STARTCHAR Agrave
ENCODING 192
SWIDTH 600 0
DWIDTH 6 0
BBX 6 9 0 0
BITMAP
20
10
00
70
28
48
78
48
CC
ENDCHAR
STARTCHAR Aacute
ENCODING 193
SWIDTH 600 0
DWIDTH 6 0
BBX 6 9 0 0
BITMAP
08
10
00
70
28
48
78
48
CC
ENDCHAR
STARTCHAR Acircumflex
ENCODING 194
SWIDTH 600 0
DWIDTH 6 0
BBX 6 9 0 0
BITMAP
10
28
00
70
28
48
78
48
CC
ENDCHAR
STARTCHAR Atilde
ENCODING 195
SWIDTH 600 0
DWIDTH 6 0
BBX 6 9 0 0
BITMAP
28
50
00
70
28
48
78
48
CC
ENDCHAR
STARTCHAR Adieresis
ENCODING 196
SWIDTH 600 0
DWIDTH 6 0
BBX 6 8 0 0
BITMAP
28
00
70
28
48
78
48
CC
ENDCHAR
STARTCHAR Aring
ENCODING 197
SWIDTH 600 0
DWIDTH 6 0
BBX 6 9 0 0
BITMAP
10
28
10
70
28
48
78
48
CC
ENDCHAR
STARTCHAR AE
ENCODING 198
SWIDTH 600 0
DWIDTH 6 0
BBX 6 6 0 0
BITMAP
7C
30
5C
70
90
9C
ENDCHAR
STARTCHAR Ccedilla
ENCODING 199
SWIDTH 600 0
DWIDTH 6 0
BBX 4 8 1 -2
BITMAP
60
90
80
80
90
60
20
C0
ENDCHAR
STARTCHAR Egrave
ENCODING 200
SWIDTH 600 0
DWIDTH 6 0
BBX 5 9 0 0
BITMAP
20
10
00
F8
48
70
40
48
F8
ENDCHAR
STARTCHAR Eacute
ENCODING 201
SWIDTH 600 0
DWIDTH 6 0
BBX 5 9 0 0
BITMAP
10
20
00
F8
48
70
40
48
F8
ENDCHAR
STARTCHAR Ecircumflex
ENCODING 202
SWIDTH 600 0
DWIDTH 6 0
BBX 5 9 0 0
BITMAP
20
50
00
F8
48
70
40
48
F8
ENDCHAR
STARTCHAR Edieresis
ENCODING 203
SWIDTH 600 0
DWIDTH 6 0
BBX 5 8 0 0
BITMAP
50
00
F8
48
70
40
48
F8
ENDCHAR
STARTCHAR Igrave
ENCODING 204
SWIDTH 600 0
DWIDTH 6 0
BBX 5 9 0 0
BITMAP
40
20
00
F8
20
20
20
20
F8
ENDCHAR
STARTCHAR Iacute
ENCODING 205
SWIDTH 600 0
DWIDTH 6 0
BBX 5 9 0 0
BITMAP
10
20
00
F8
20
20
20
20
F8
ENDCHAR
STARTCHAR Icircumflex
ENCODING 206
SWIDTH 600 0
DWIDTH 6 0
BBX 5 9 0 0
BITMAP
20
50
00
F8
20
20
20
20
F8
ENDCHAR
STARTCHAR Idieresis
ENCODING 207
SWIDTH 600 0
DWIDTH 6 0
BBX 5 8 0 0
BITMAP
50
00
F8
20
20
20
20
F8
ENDCHAR
STARTCHAR Eth
ENCODING 208
SWIDTH 600 0
DWIDTH 6 0
BBX 5 6 0 0
BITMAP
F0
48
E8
48
48
F0
ENDCHAR
STARTCHAR Ntilde
ENCODING 209
SWIDTH 600 0
DWIDTH 6 0
BBX 5 9 0 0
BITMAP
28
50
00
D8
48
68
58
48
C8
ENDCHAR
STARTCHAR Ograve
ENCODING 210
SWIDTH 600 0
DWIDTH 6 0
BBX 4 9 1 0
BITMAP
40
20
00
60
90
90
90
90
60
ENDCHAR
STARTCHAR Oacute
ENCODING 211
SWIDTH 600 0
DWIDTH 6 0
BBX 4 9 1 0
BITMAP
10
20
00
60
90
90
90
90
60
ENDCHAR
STARTCHAR Ocircumflex
ENCODING 212
SWIDTH 600 0
DWIDTH 6 0
BBX 4 9 1 0
BITMAP
60
90
00
60
90
90
90
90
60
ENDCHAR
STARTCHAR Otilde
ENCODING 213
SWIDTH 600 0
DWIDTH 6 0
BBX 4 9 1 0
BITMAP
50
A0
00
60
90
90
90
90
60
ENDCHAR
STARTCHAR Odieresis
ENCODING 214
SWIDTH 600 0
DWIDTH 6 0
BBX 4 8 1 0
BITMAP
90
00
60
90
90
90
90
60
ENDCHAR
STARTCHAR multiply
ENCODING 215
SWIDTH 600 0
DWIDTH 6 0
BBX 5 5 0 1
BITMAP
88
50
20
50
88
ENDCHAR
STARTCHAR Oslash
ENCODING 216
SWIDTH 600 0
DWIDTH 6 0
BBX 6 6 0 0
BITMAP
34
48
58
68
48
B0
ENDCHAR
STARTCHAR Ugrave
ENCODING 217
SWIDTH 600 0
DWIDTH 6 0
BBX 6 9 0 0
BITMAP
20
10
00
CC
48
48
48
48
30
ENDCHAR
STARTCHAR Uacute
ENCODING 218
SWIDTH 600 0
DWIDTH 6 0
BBX 6 9 0 0
BITMAP
10
20
00
CC
48
48
48
48
30
ENDCHAR
STARTCHAR Ucircumflex
ENCODING 219
SWIDTH 600 0
DWIDTH 6 0
BBX 6 9 0 0
BITMAP
30
48
00
CC
48
48
48
48
30
ENDCHAR
STARTCHAR Udieresis
ENCODING 220
SWIDTH 600 0
DWIDTH 6 0
BBX 6 8 0 0
BITMAP
48
00
CC
48
48
48
48
30
ENDCHAR
STARTCHAR Yacute
ENCODING 221
SWIDTH 600 0
DWIDTH 6 0
BBX 5 9 0 0
BITMAP
10
20
00
D8
88
50
20
20
70
ENDCHAR
STARTCHAR Thorn
ENCODING 222
SWIDTH 600 0
DWIDTH 6 0
BBX 5 6 0 0
BITMAP
C0
70
48
70
40
E0
ENDCHAR
STARTCHAR germandbls
ENCODING 223
SWIDTH 600 0
DWIDTH 6 0
BBX 6 7 0 0
BITMAP
30
48
48
58
44
44
D8
ENDCHAR
STARTCHAR agrave
ENCODING 224
SWIDTH 600 0
DWIDTH 6 0
BBX 5 8 0 0
BITMAP
40
20
00
60
10
70
90
68
ENDCHAR
STARTCHAR aacute
ENCODING 225
SWIDTH 600 0
DWIDTH 6 0
BBX 5 8 0 0
BITMAP
10
20
00
60
10
70
90
68
ENDCHAR
STARTCHAR acircumflex
ENCODING 226
SWIDTH 600 0
DWIDTH 6 0
BBX 5 8 0 0
BITMAP
20
50
00
60
10
70
90
68
ENDCHAR
STARTCHAR atilde
ENCODING 227
SWIDTH 600 0
DWIDTH 6 0
BBX 5 8 0 0
BITMAP
50
A0
00
60
10
70
90
68
ENDCHAR
STARTCHAR adieresis
ENCODING 228
SWIDTH 600 0
DWIDTH 6 0
BBX 5 7 0 0
BITMAP
50
00
60
10
70
90
68
ENDCHAR
STARTCHAR aring
ENCODING 229
SWIDTH 600 0
DWIDTH 6 0
BBX 5 9 0 0
BITMAP
20
50
20
00
60
10
70
90
68
ENDCHAR
STARTCHAR ae
ENCODING 230
SWIDTH 600 0
DWIDTH 6 0
BBX 6 5 0 0
BITMAP
6C
94
7C
90
EC
ENDCHAR
STARTCHAR ccedilla
ENCODING 231
SWIDTH 600 0
DWIDTH 6 0
BBX 4 7 1 -2
BITMAP
60
90
80
90
60
20
C0
ENDCHAR
STARTCHAR egrave
ENCODING 232
SWIDTH 600 0
DWIDTH 6 0
BBX 4 8 1 0
BITMAP
40
20
00
60
90
F0
80
70
ENDCHAR
STARTCHAR eacute
ENCODING 233
SWIDTH 600 0
DWIDTH 6 0
BBX 4 8 1 0
BITMAP
20
40
00
60
90
F0
80
70
ENDCHAR
STARTCHAR ecircumflex
ENCODING 234
SWIDTH 600 0
DWIDTH 6 0
BBX 4 8 1 0
BITMAP
60
90
00
60
90
F0
80
70
ENDCHAR
STARTCHAR edieresis
ENCODING 235
SWIDTH 600 0
DWIDTH 6 0
BBX 4 7 1 0
BITMAP
90
00
60
90
F0
80
70
ENDCHAR
STARTCHAR igrave
ENCODING 236
SWIDTH 600 0
DWIDTH 6 0
BBX 5 8 0 0
BITMAP
40
20
00
60
20
20
20
F8
ENDCHAR
STARTCHAR iacute
ENCODING 237
SWIDTH 600 0
DWIDTH 6 0
BBX 5 8 0 0
BITMAP
10
20
00
60
20
20
20
F8
ENDCHAR
STARTCHAR icircumflex
ENCODING 238
SWIDTH 600 0
DWIDTH 6 0
BBX 5 8 0 0
BITMAP
20
50
00
60
20
20
20
F8
ENDCHAR
STARTCHAR idieresis
ENCODING 239
SWIDTH 600 0
DWIDTH 6 0
BBX 5 7 0 0
BITMAP
50
00
60
20
20
20
F8
ENDCHAR
STARTCHAR eth
ENCODING 240
SWIDTH 600 0
DWIDTH 6 0
BBX 4 8 1 0
BITMAP
D0
60
A0
70
90
90
90
60
ENDCHAR
STARTCHAR ntilde
ENCODING 241
SWIDTH 600 0
DWIDTH 6 0
BBX 6 8 0 0
BITMAP
28
50
00
B0
48
48
48
EC
ENDCHAR
STARTCHAR ograve
ENCODING 242
SWIDTH 600 0
DWIDTH 6 0
BBX 4 8 1 0
BITMAP
40
20
00
60
90
90
90
60
ENDCHAR
STARTCHAR oacute
ENCODING 243
SWIDTH 600 0
DWIDTH 6 0
BBX 4 8 1 0
BITMAP
20
40
00
60
90
90
90
60
ENDCHAR
STARTCHAR ocircumflex
ENCODING 244
SWIDTH 600 0
DWIDTH 6 0
BBX 4 8 1 0
BITMAP
60
90
00
60
90
90
90
60
ENDCHAR
STARTCHAR otilde
ENCODING 245
SWIDTH 600 0
DWIDTH 6 0
BBX 4 8 1 0
BITMAP
50
A0
00
60
90
90
90
60
ENDCHAR
STARTCHAR odieresis
ENCODING 246
SWIDTH 600 0
DWIDTH 6 0
BBX 4 7 1 0
BITMAP
90
00
60
90
90
90
60
ENDCHAR
STARTCHAR divide
ENCODING 247
SWIDTH 600 0
DWIDTH 6 0
BBX 5 5 0 1
BITMAP
20
00
F8
00
20
ENDCHAR
STARTCHAR oslash
ENCODING 248
SWIDTH 600 0
DWIDTH 6 0
BBX 6 5 0 0
BITMAP
34
48
48
48
B0
ENDCHAR
STARTCHAR ugrave
ENCODING 249
SWIDTH 600 0
DWIDTH 6 0
BBX 6 8 0 0
BITMAP
20
10
00
D8
48
48
48
34
ENDCHAR
STARTCHAR uacute
ENCODING 250
SWIDTH 600 0
DWIDTH 6 0
BBX 6 8 0 0
BITMAP
10
20
00
D8
48
48
48
34
ENDCHAR
STARTCHAR ucircumflex
ENCODING 251
SWIDTH 600 0
DWIDTH 6 0
BBX 6 8 0 0
BITMAP
30
48
00
D8
48
48
48
34
ENDCHAR
STARTCHAR udieresis
ENCODING 252
SWIDTH 600 0
DWIDTH 6 0
BBX 6 7 0 0
BITMAP
48
00
D8
48
48
48
34
ENDCHAR
STARTCHAR yacute
ENCODING 253
SWIDTH 600 0
DWIDTH 6 0
BBX 5 10 0 -2
BITMAP
10
20
00
D8
48
48
48
30
20
C0
ENDCHAR
STARTCHAR thorn
ENCODING 254
SWIDTH 600 0
DWIDTH 6 0
BBX 5 9 0 -2
BITMAP
C0
40
70
48
48
48
70
40
E0
ENDCHAR
STARTCHAR ydieresis
ENCODING 255
SWIDTH 600 0
DWIDTH 6 0
BBX 5 9 0 -2
BITMAP
48
00
D8
48
48
48
30
20
C0
ENDCHAR
STARTCHAR Lslash
ENCODING -1
SWIDTH 600 0
DWIDTH 6 0
BBX 5 6 0 0
BITMAP
E0
40
60
C0
48
F8
ENDCHAR
STARTCHAR OE
ENCODING -1
SWIDTH 600 0
DWIDTH 6 0
BBX 6 6 0 0
BITMAP
7C
90
9C
90
94
7C
ENDCHAR
STARTCHAR Scaron
ENCODING -1
SWIDTH 600 0
DWIDTH 6 0
BBX 4 9 1 0
BITMAP
50
20
00
70
80
60
10
90
E0
ENDCHAR
STARTCHAR Ydieresis
ENCODING -1
SWIDTH 600 0
DWIDTH 6 0
BBX 5 8 0 0
BITMAP
50
00
D8
88
50
20
20
70
ENDCHAR
STARTCHAR Zcaron
ENCODING -1
SWIDTH 600 0
DWIDTH 6 0
BBX 4 9 1 0
BITMAP
50
20
00
F0
90
20
40
90
F0
ENDCHAR
STARTCHAR breve
ENCODING -1
SWIDTH 600 0
DWIDTH 6 0
BBX 4 2 1 6
BITMAP
90
60
ENDCHAR
STARTCHAR bullet
ENCODING -1
SWIDTH 600 0
DWIDTH 6 0
BBX 2 2 2 2
BITMAP
C0
C0
ENDCHAR
STARTCHAR caron
ENCODING -1
SWIDTH 600 0
DWIDTH 6 0
BBX 3 2 1 6
BITMAP
A0
40
ENDCHAR
STARTCHAR circumflex
ENCODING -1
SWIDTH 600 0
DWIDTH 6 0
BBX 3 2 1 6
BITMAP
40
A0
ENDCHAR
STARTCHAR dagger
ENCODING -1
SWIDTH 600 0
DWIDTH 6 0
BBX 3 7 1 0
BITMAP
40
E0
40
40
40
40
40
ENDCHAR
STARTCHAR daggerdbl
ENCODING -1
SWIDTH 600 0
DWIDTH 6 0
BBX 3 7 1 0
BITMAP
40
E0
40
40
40
E0
40
ENDCHAR
STARTCHAR dotaccent
ENCODING -1
SWIDTH 600 0
DWIDTH 6 0
BBX 1 1 2 6
BITMAP
80
ENDCHAR
STARTCHAR dotlessi
ENCODING -1
SWIDTH 600 0
DWIDTH 6 0
BBX 5 5 1 0
BITMAP
60
20
20
20
F8
ENDCHAR
STARTCHAR ellipsis
ENCODING -1
SWIDTH 600 0
DWIDTH 6 0
BBX 5 1 1 0
BITMAP
A8
ENDCHAR
STARTCHAR emdash
ENCODING -1
SWIDTH 600 0
DWIDTH 6 0
BBX 6 1 0 3
BITMAP
FC
ENDCHAR
STARTCHAR endash
ENCODING -1
SWIDTH 600 0
DWIDTH 6 0
BBX 4 1 1 3
BITMAP
F0
ENDCHAR
STARTCHAR fi
ENCODING -1
SWIDTH 600 0
DWIDTH 6 0
BBX 6 7 0 0
BITMAP
28
40
F8
48
48
48
FC
ENDCHAR
STARTCHAR fl
ENCODING -1
SWIDTH 600 0
DWIDTH 6 0
BBX 6 7 0 0
BITMAP
38
48
E8
48
48
48
FC
ENDCHAR
STARTCHAR florin
ENCODING -1
SWIDTH 600 0
DWIDTH 6 0
BBX 5 8 0 -1
BITMAP
18
20
70
20
20
20
20
C0
ENDCHAR
STARTCHAR fraction
ENCODING -1
SWIDTH 600 0
DWIDTH 6 0
BBX 5 4 0 1
BITMAP
18
30
60
C0
ENDCHAR
STARTCHAR grave
ENCODING -1
SWIDTH 600 0
DWIDTH 6 0
BBX 2 2 1 6
BITMAP
80
40
ENDCHAR
STARTCHAR guilsinglleft
ENCODING -1
SWIDTH 600 0
DWIDTH 6 0
BBX 2 3 1 1
BITMAP
40
80
40
ENDCHAR
STARTCHAR guilsinglright
ENCODING -1
SWIDTH 600 0
DWIDTH 6 0
BBX 2 3 2 1
BITMAP
80
40
80
ENDCHAR
STARTCHAR hungarumlaut
ENCODING -1
SWIDTH 600 0
DWIDTH 6 0
BBX 5 2 0 6
BITMAP
48
90
ENDCHAR
STARTCHAR lslash
ENCODING -1
SWIDTH 600 0
DWIDTH 6 0
BBX 5 7 1 0
BITMAP
60
20
30
60
20
20
F8
ENDCHAR
STARTCHAR oe
ENCODING -1
SWIDTH 600 0
DWIDTH 6 0
BBX 6 5 0 0
BITMAP
6C
94
9C
90
6C
ENDCHAR
STARTCHAR ogonek
ENCODING -1
SWIDTH 600 0
DWIDTH 6 0
BBX 3 3 1 -2
BITMAP
40
80
60
ENDCHAR
STARTCHAR perthousand
ENCODING -1
SWIDTH 600 0
DWIDTH 6 0
BBX 6 8 0 0
BITMAP
60
A0
CC
30
C0
6C
B4
D8
ENDCHAR
STARTCHAR quotedblbase
ENCODING -1
SWIDTH 600 0
DWIDTH 6 0
BBX 4 3 1 -2
BITMAP
50
50
A0
ENDCHAR
STARTCHAR quotedblleft
ENCODING -1
SWIDTH 600 0
DWIDTH 6 0
BBX 4 3 1 4
BITMAP
A0
A0
50
ENDCHAR
STARTCHAR quotedblright
ENCODING -1
SWIDTH 600 0
DWIDTH 6 0
BBX 4 3 1 4
BITMAP
50
50
A0
ENDCHAR
STARTCHAR quotesinglbase
ENCODING -1
SWIDTH 600 0
DWIDTH 6 0
BBX 2 3 1 -2
BITMAP
40
40
80
ENDCHAR
STARTCHAR quotesingle
ENCODING -1
SWIDTH 600 0
DWIDTH 6 0
BBX 1 3 2 4
BITMAP
80
80
80
ENDCHAR
STARTCHAR ring
ENCODING -1
SWIDTH 600 0
DWIDTH 6 0
BBX 3 3 1 5
BITMAP
40
A0
40
ENDCHAR
STARTCHAR scaron
ENCODING -1
SWIDTH 600 0
DWIDTH 6 0
BBX 4 8 1 0
BITMAP
50
20
00
70
80
60
10
E0
ENDCHAR
STARTCHAR tilde
ENCODING -1
SWIDTH 600 0
DWIDTH 6 0
BBX 4 2 1 6
BITMAP
50
A0
ENDCHAR
STARTCHAR trademark
ENCODING -1
SWIDTH 600 0
DWIDTH 6 0
BBX 6 4 0 2
BITMAP
F4
5C
5C
54
ENDCHAR
STARTCHAR zcaron
ENCODING -1
SWIDTH 600 0
DWIDTH 6 0
BBX 4 8 1 0
BITMAP
A0
40
00
F0
20
40
90
F0
ENDCHAR
ENDFONT
