STARTFONT 2.1
FONT -Adobe-Times-Bold-R-Normal--24-240-75-75-P-132-ISO8859-1
SIZE 24 75 75
FONTBOUNDINGBOX 27 28 -1 -6
COMMENT $XConsortium: timB24.bdf,v 1.17 95/01/26 18:06:05 gildea Exp $
COMMENT 
COMMENT +
COMMENT  Copyright 1984-1989, 1994 Adobe Systems Incorporated.
COMMENT  Copyright 1988, 1994 Digital Equipment Corporation.
COMMENT
COMMENT  Adobe is a trademark of Adobe Systems Incorporated which may be
COMMENT  registered in certain jurisdictions.
COMMENT  Permission to use these trademarks is hereby granted only in
COMMENT  association with the images described in this file.
COMMENT
COMMENT  Permission to use, copy, modify, distribute and sell this software
COMMENT  and its documentation for any purpose and without fee is hereby
COMMENT  granted, provided that the above copyright notices appear in all
COMMENT  copies and that both those copyright notices and this permission
COMMENT  notice appear in supporting documentation, and that the names of
COMMENT  Adobe Systems and Digital Equipment Corporation not be used in
COMMENT  advertising or publicity pertaining to distribution of the software
COMMENT  without specific, written prior permission.  Adobe Systems and
COMMENT  Digital Equipment Corporation make no representations about the
COMMENT  suitability of this software for any purpose.  It is provided "as
COMMENT  is" without express or implied warranty.
COMMENT -
STARTPROPERTIES 28
FOUNDRY "Adobe"
FAMILY_NAME "Times"
WEIGHT_NAME "Bold"
SLANT "R"
SETWIDTH_NAME "Normal"
ADD_STYLE_NAME ""
PIXEL_SIZE 24
POINT_SIZE 240
RESOLUTION_X 75
RESOLUTION_Y 75
SPACING "P"
AVERAGE_WIDTH 132
CHARSET_REGISTRY "ISO8859"
CHARSET_ENCODING "1"
CAP_HEIGHT 17
X_HEIGHT 12
FONT_ASCENT 20
FONT_DESCENT 6
FACE_NAME "Times Bold"
COPYRIGHT "Copyright (c) 1984, 1987 Adobe Systems Incorporated. All Rights Reserved. Copyright (c) 1988, 1991 Digital Equipment Corporation. All Rights Reserved."
NOTICE "Times is a trademark of Linotype-Hell AG and/or its subsidiaries."
_DEC_DEVICE_FONTNAMES "PS=Times-Bold"
_DEC_PRODUCTINFO "DECwindows Fonts V2.2, 07-Nov-1991"
DEFAULT_CHAR 32
RELATIVE_SETWIDTH 50
RELATIVE_WEIGHT 70
CHARSET_COLLECTIONS "ASCII ISO8859-1 ADOBE-STANDARD"
FULL_NAME "Times Bold"
ENDPROPERTIES
CHARS 229
STARTCHAR space
ENCODING 32
SWIDTH 250 0
DWIDTH 6 0
BBX 1 1 0 0
BITMAP
00
ENDCHAR
STARTCHAR exclam
ENCODING 33
SWIDTH 333 0
DWIDTH 8 0
BBX 4 17 2 0
BITMAP
60
F0
F0
F0
F0
F0
60
60
60
60
60
00
00
60
F0
F0
60
ENDCHAR
STARTCHAR quotedbl
ENCODING 34
SWIDTH 555 0
DWIDTH 12 0
BBX 8 8 2 9
BITMAP
E7
E7
E7
E7
E7
E7
42
42
ENDCHAR
STARTCHAR numbersign
ENCODING 35
SWIDTH 500 0
DWIDTH 13 0
BBX 12 17 0 0
BITMAP
0CC0
0CC0
0CC0
0CC0
7FF0
7FF0
1980
1980
1980
1980
FFE0
FFE0
3300
3300
3300
3300
3300
ENDCHAR
STARTCHAR dollar
ENCODING 36
SWIDTH 500 0
DWIDTH 12 0
BBX 10 20 1 -2
BITMAP
0800
0800
3F00
6B80
C980
E980
F880
FC00
7E00
3F00
1F80
0FC0
0BC0
89C0
C9C0
C9C0
EB80
3E00
0800
0800
ENDCHAR
STARTCHAR percent
ENCODING 37
SWIDTH 1000 0
DWIDTH 19 0
BBX 17 17 1 0
BITMAP
1E0C00
3BFC00
711800
E13000
E23000
E26000
F46000
78C000
00C000
018F00
019D80
033880
037080
067100
067100
0C7A00
0C3C00
ENDCHAR
STARTCHAR ampersand
ENCODING 38
SWIDTH 833 0
DWIDTH 21 0
BBX 17 17 2 0
BITMAP
03E000
077000
0E3000
0E3000
0E7000
0FE000
0F8F80
1F8700
33C200
71E600
E1FC00
E0F800
E07800
F07C00
F9FF80
7F9F00
3F0E00
ENDCHAR
STARTCHAR quoteright
ENCODING 39
SWIDTH 333 0
DWIDTH 8 0
BBX 4 9 2 8
BITMAP
60
F0
F0
70
30
60
60
C0
80
ENDCHAR
STARTCHAR parenleft
ENCODING 40
SWIDTH 333 0
DWIDTH 8 0
BBX 5 21 1 -4
BITMAP
08
18
30
30
70
60
60
E0
E0
E0
E0
E0
E0
E0
60
60
70
30
30
18
08
ENDCHAR
STARTCHAR parenright
ENCODING 41
SWIDTH 333 0
DWIDTH 8 0
BBX 5 21 2 -4
BITMAP
80
C0
60
60
30
30
30
38
38
38
38
38
38
38
30
30
30
60
60
C0
80
ENDCHAR
STARTCHAR asterisk
ENCODING 42
SWIDTH 500 0
DWIDTH 13 0
BBX 10 11 1 6
BITMAP
0C00
0C00
4C80
EDC0
7F80
1E00
7F80
EDC0
4C80
0C00
0C00
ENDCHAR
STARTCHAR plus
ENCODING 43
SWIDTH 570 0
DWIDTH 14 0
BBX 12 12 1 0
BITMAP
0600
0600
0600
0600
0600
FFF0
FFF0
0600
0600
0600
0600
0600
ENDCHAR
STARTCHAR comma
ENCODING 44
SWIDTH 250 0
DWIDTH 6 0
BBX 4 9 1 -5
BITMAP
60
F0
F0
70
30
60
60
C0
80
ENDCHAR
STARTCHAR minus
ENCODING 45
SWIDTH 570 0
DWIDTH 15 0
BBX 11 2 2 5
BITMAP
FFE0
FFE0
ENDCHAR
STARTCHAR period
ENCODING 46
SWIDTH 250 0
DWIDTH 6 0
BBX 4 4 1 0
BITMAP
60
F0
F0
60
ENDCHAR
STARTCHAR slash
ENCODING 47
SWIDTH 278 0
DWIDTH 7 0
BBX 7 17 0 0
BITMAP
06
06
04
0C
0C
08
18
18
10
30
30
20
60
60
40
C0
C0
ENDCHAR
STARTCHAR zero
ENCODING 48
SWIDTH 500 0
DWIDTH 12 0
BBX 11 17 0 0
BITMAP
0E00
3B80
3180
71C0
71C0
F1E0
F1E0
F1E0
F1E0
F1E0
F1E0
71C0
71C0
71C0
3180
3B80
0E00
ENDCHAR
STARTCHAR one
ENCODING 49
SWIDTH 500 0
DWIDTH 12 0
BBX 9 17 2 0
BITMAP
0C00
3C00
FC00
1C00
1C00
1C00
1C00
1C00
1C00
1C00
1C00
1C00
1C00
1C00
1C00
3E00
FF80
ENDCHAR
STARTCHAR two
ENCODING 50
SWIDTH 500 0
DWIDTH 12 0
BBX 10 17 1 0
BITMAP
1E00
3F00
7F80
C780
8380
0380
0380
0300
0700
0600
0C00
0C00
1840
3040
7FC0
FFC0
FF80
ENDCHAR
STARTCHAR three
ENCODING 51
SWIDTH 500 0
DWIDTH 12 0
BBX 11 17 0 0
BITMAP
0F00
3F80
63C0
C1C0
01C0
0180
0380
1F00
1FC0
03E0
01E0
00E0
00E0
60E0
F1C0
FB80
7E00
ENDCHAR
STARTCHAR four
ENCODING 52
SWIDTH 500 0
DWIDTH 12 0
BBX 11 17 0 0
BITMAP
0180
0380
0780
0780
0F80
1B80
3380
3380
6380
C380
C380
FFE0
FFE0
0380
0380
0380
0380
ENDCHAR
STARTCHAR five
ENCODING 53
SWIDTH 500 0
DWIDTH 12 0
BBX 11 17 0 0
BITMAP
1FE0
1FC0
3FC0
3000
2000
6000
7F00
7F80
7FC0
07C0
01C0
00C0
00C0
60C0
F180
FB80
7E00
ENDCHAR
STARTCHAR six
ENCODING 54
SWIDTH 500 0
DWIDTH 12 0
BBX 10 17 1 0
BITMAP
01C0
0780
1E00
3C00
3800
7800
7000
7700
FB80
F1C0
F1C0
F1C0
F1C0
71C0
71C0
3B80
1E00
ENDCHAR
STARTCHAR seven
ENCODING 55
SWIDTH 500 0
DWIDTH 12 0
BBX 11 17 0 0
BITMAP
7FE0
7FE0
7FC0
C0C0
8180
0180
0380
0300
0300
0700
0600
0600
0E00
0E00
0C00
1C00
1C00
ENDCHAR
STARTCHAR eight
ENCODING 56
SWIDTH 500 0
DWIDTH 12 0
BBX 11 17 1 0
BITMAP
1F00
3B80
71C0
71C0
71C0
7980
7F00
3F00
1F80
77C0
63E0
E1E0
E0E0
E0E0
E0C0
71C0
1F00
ENDCHAR
STARTCHAR nine
ENCODING 57
SWIDTH 500 0
DWIDTH 12 0
BBX 11 17 0 0
BITMAP
0E00
3B80
71C0
71C0
F0E0
F0E0
F0E0
F0E0
70E0
39E0
1FE0
01C0
03C0
0380
0700
1E00
7800
ENDCHAR
STARTCHAR colon
ENCODING 58
SWIDTH 333 0
DWIDTH 8 0
BBX 4 12 2 0
BITMAP
60
F0
F0
60
00
00
00
00
60
F0
F0
60
ENDCHAR
STARTCHAR semicolon
ENCODING 59
SWIDTH 333 0
DWIDTH 8 0
BBX 4 17 2 -5
BITMAP
60
F0
F0
60
00
00
00
00
60
F0
F0
70
30
60
60
C0
80
ENDCHAR
STARTCHAR less
ENCODING 60
SWIDTH 570 0
DWIDTH 14 0
BBX 11 12 1 0
BITMAP
0060
01E0
07C0
1F00
3C00
E000
E000
3C00
1F00
07C0
01E0
0060
ENDCHAR
STARTCHAR equal
ENCODING 61
SWIDTH 570 0
DWIDTH 14 0
BBX 11 6 1 3
BITMAP
FFE0
FFE0
0000
0000
FFE0
FFE0
ENDCHAR
STARTCHAR greater
ENCODING 62
SWIDTH 570 0
DWIDTH 14 0
BBX 11 12 1 0
BITMAP
C000
F000
7C00
1F00
0780
00E0
00E0
0780
1F00
7C00
F000
C000
ENDCHAR
STARTCHAR question
ENCODING 63
SWIDTH 500 0
DWIDTH 12 0
BBX 9 17 1 0
BITMAP
3E00
6700
E380
E380
4380
0780
0F00
0E00
1C00
1800
1800
0000
0000
1800
3C00
3C00
1800
ENDCHAR
STARTCHAR at
ENCODING 64
SWIDTH 930 0
DWIDTH 23 0
BBX 20 21 1 -4
BITMAP
007C00
03F780
0F80C0
1E0060
3C0020
383B30
70FF10
71E710
F1C710
E3C610
E38E10
E38E30
E38E20
F39E60
F1FEC0
70F380
780000
380000
1E0000
078300
01FC00
ENDCHAR
STARTCHAR A
ENCODING 65
SWIDTH 722 0
DWIDTH 18 0
BBX 17 17 0 0
BITMAP
018000
01C000
03C000
03E000
02E000
06E000
067000
047000
0C7000
083800
083800
1FF800
103C00
301C00
301E00
701E00
F87F80
ENDCHAR
STARTCHAR B
ENCODING 66
SWIDTH 667 0
DWIDTH 16 0
BBX 13 17 1 0
BITMAP
FF80
38E0
3870
3870
3870
3870
3860
38C0
3FE0
3870
3838
3838
3838
3838
3838
3870
FFC0
ENDCHAR
STARTCHAR C
ENCODING 67
SWIDTH 722 0
DWIDTH 18 0
BBX 14 17 2 0
BITMAP
07E4
1E7C
3C1C
780C
7004
F004
E000
E000
E000
E000
E000
F000
F000
7804
781C
3E78
0FE0
ENDCHAR
STARTCHAR D
ENCODING 68
SWIDTH 722 0
DWIDTH 18 0
BBX 16 17 0 0
BITMAP
FFE0
1C7C
1C1E
1C0E
1C0F
1C07
1C07
1C07
1C07
1C07
1C07
1C07
1C0F
1C0E
1C1E
1C78
FFE0
ENDCHAR
STARTCHAR E
ENCODING 69
SWIDTH 667 0
DWIDTH 17 0
BBX 15 17 1 0
BITMAP
FFFC
1E1C
1C0C
1C04
1C24
1C20
1C60
1CE0
1FE0
1CE0
1C60
1C20
1C22
1C06
1C0C
1E1C
FFFC
ENDCHAR
STARTCHAR F
ENCODING 70
SWIDTH 611 0
DWIDTH 15 0
BBX 14 17 0 0
BITMAP
FFFC
381C
380C
3804
3824
3820
3860
38E0
3FE0
38E0
3860
3820
3820
3800
3800
3800
FF00
ENDCHAR
STARTCHAR G
ENCODING 71
SWIDTH 778 0
DWIDTH 19 0
BBX 17 17 1 0
BITMAP
07FA00
1F1E00
3C0E00
780600
700200
F00200
E00000
E00000
E07F80
E00E00
E00E00
F00E00
700E00
780E00
3C0E00
1F3E00
07FC00
ENDCHAR
STARTCHAR H
ENCODING 72
SWIDTH 778 0
DWIDTH 19 0
BBX 18 17 0 0
BITMAP
FF3FC0
380700
380700
380700
380700
380700
380700
3FFF00
3FFF00
380700
380700
380700
380700
380700
380700
380700
FF3FC0
ENDCHAR
STARTCHAR I
ENCODING 73
SWIDTH 389 0
DWIDTH 10 0
BBX 7 17 2 0
BITMAP
FE
38
38
38
38
38
38
38
38
38
38
38
38
38
38
38
FE
ENDCHAR
STARTCHAR J
ENCODING 74
SWIDTH 500 0
DWIDTH 12 0
BBX 12 19 0 -2
BITMAP
1FF0
0380
0380
0380
0380
0380
0380
0380
0380
0380
0380
0380
0380
0380
4380
E380
E300
E700
7C00
ENDCHAR
STARTCHAR K
ENCODING 75
SWIDTH 778 0
DWIDTH 19 0
BBX 17 17 1 0
BITMAP
FE7F00
383800
383000
386000
38C000
398000
3B0000
3F0000
3F8000
3BC000
39E000
38F000
387800
383C00
381E00
380F00
FE1F80
ENDCHAR
STARTCHAR L
ENCODING 76
SWIDTH 667 0
DWIDTH 16 0
BBX 14 17 1 0
BITMAP
FE00
3800
3800
3800
3800
3800
3800
3800
3800
3800
3800
3800
3804
380C
3818
3838
FFF8
ENDCHAR
STARTCHAR M
ENCODING 77
SWIDTH 944 0
DWIDTH 24 0
BBX 21 17 2 0
BITMAP
F800F8
3C01E0
3C01E0
3E03E0
2E02E0
2F06E0
2704E0
270CE0
278CE0
2388E0
2398E0
21F0E0
21F0E0
20E0E0
20E0E0
2040E0
F803F8
ENDCHAR
STARTCHAR N
ENCODING 78
SWIDTH 722 0
DWIDTH 18 0
BBX 17 17 0 0
BITMAP
F00F80
780700
3C0200
3E0200
3F0200
2F8200
27C200
23E200
21F200
20FA00
207A00
203E00
201E00
200E00
200600
700600
F80200
ENDCHAR
STARTCHAR O
ENCODING 79
SWIDTH 778 0
DWIDTH 19 0
BBX 16 17 1 0
BITMAP
07E0
1E78
381C
781E
700E
F00F
E007
E007
E007
E007
E007
F00F
700E
781E
381C
1E78
07E0
ENDCHAR
STARTCHAR P
ENCODING 80
SWIDTH 611 0
DWIDTH 15 0
BBX 13 17 1 0
BITMAP
FFC0
38F0
3878
3838
3838
3838
3878
38F0
3FC0
3800
3800
3800
3800
3800
3800
3800
FE00
ENDCHAR
STARTCHAR Q
ENCODING 81
SWIDTH 778 0
DWIDTH 19 0
BBX 17 22 2 -5
BITMAP
07E000
1E7800
381C00
781E00
700E00
F00F00
E00700
E00700
E00700
E00700
E00700
F00F00
700E00
781E00
381C00
1E7800
07E000
03C000
01E000
01F000
00FC00
003F80
ENDCHAR
STARTCHAR R
ENCODING 82
SWIDTH 722 0
DWIDTH 18 0
BBX 16 17 1 0
BITMAP
FFF0
1C38
1C1C
1C1C
1C1C
1C1C
1C38
1C70
1FC0
1DE0
1CF0
1C70
1C78
1C3C
1C1C
1C1E
FF0F
ENDCHAR
STARTCHAR S
ENCODING 83
SWIDTH 556 0
DWIDTH 14 0
BBX 11 17 2 0
BITMAP
3F40
71C0
E0C0
E040
E040
F000
FC00
7F00
1FC0
0FC0
03E0
81E0
80E0
C0E0
E0C0
F1C0
BF80
ENDCHAR
STARTCHAR T
ENCODING 84
SWIDTH 667 0
DWIDTH 16 0
BBX 15 17 0 0
BITMAP
FFFE
E38E
C386
8382
8382
0380
0380
0380
0380
0380
0380
0380
0380
0380
0380
0380
1FF0
ENDCHAR
STARTCHAR U
ENCODING 85
SWIDTH 722 0
DWIDTH 18 0
BBX 17 17 1 0
BITMAP
FF0F80
380200
380200
380200
380200
380200
380200
380200
380200
380200
380200
380200
380200
380600
1C0400
1E0C00
0FF800
ENDCHAR
STARTCHAR V
ENCODING 86
SWIDTH 722 0
DWIDTH 18 0
BBX 17 17 1 0
BITMAP
FF1F80
3C0600
3C0400
1C0400
1E0C00
0E0800
0E0800
0F1800
071000
071000
03B000
03A000
03E000
01C000
01C000
008000
008000
ENDCHAR
STARTCHAR W
ENCODING 87
SWIDTH 1000 0
DWIDTH 25 0
BBX 25 17 1 0
BITMAP
FF7F9F80
3C1E0600
3C0E0400
1C0E0C00
1E1E0800
1E1F1800
0E171800
0E371000
0F271000
0763B000
0743A000
07C3E000
03C1E000
0381C000
0381C000
01008000
01008000
ENDCHAR
STARTCHAR X
ENCODING 88
SWIDTH 722 0
DWIDTH 18 0
BBX 16 17 1 0
BITMAP
FF3F
3C0C
1C08
1E18
0E30
0720
07E0
03C0
03C0
03E0
03F0
0670
0C78
0C3C
183C
381E
FCFF
ENDCHAR
STARTCHAR Y
ENCODING 89
SWIDTH 722 0
DWIDTH 18 0
BBX 17 17 1 0
BITMAP
FF3F80
3C0F00
3C0C00
1E0C00
0E1800
0F1800
073000
03A000
03E000
01C000
01C000
01C000
01C000
01C000
01C000
01C000
07F000
ENDCHAR
STARTCHAR Z
ENCODING 90
SWIDTH 667 0
DWIDTH 17 0
BBX 14 17 2 0
BITMAP
FFF8
E078
C0F0
C0F0
81E0
03C0
03C0
0780
0F80
0F00
1E00
3E04
3C04
780C
781C
F038
FFF8
ENDCHAR
STARTCHAR bracketleft
ENCODING 91
SWIDTH 333 0
DWIDTH 8 0
BBX 5 21 2 -4
BITMAP
F8
E0
C0
C0
C0
C0
C0
C0
C0
C0
C0
C0
C0
C0
C0
C0
C0
C0
C0
E0
F8
ENDCHAR
STARTCHAR backslash
ENCODING 92
SWIDTH 278 0
DWIDTH 7 0
BBX 7 17 0 0
BITMAP
C0
C0
40
60
60
20
30
30
10
18
18
08
0C
0C
04
06
06
ENDCHAR
STARTCHAR bracketright
ENCODING 93
SWIDTH 333 0
DWIDTH 8 0
BBX 5 21 0 -4
BITMAP
F8
38
18
18
18
18
18
18
18
18
18
18
18
18
18
18
18
18
18
38
F8
ENDCHAR
STARTCHAR asciicircum
ENCODING 94
SWIDTH 581 0
DWIDTH 15 0
BBX 8 10 3 7
BITMAP
18
18
3C
24
66
66
66
C3
C3
81
ENDCHAR
STARTCHAR underscore
ENCODING 95
SWIDTH 500 0
DWIDTH 13 0
BBX 13 2 0 -5
BITMAP
FFF8
FFF8
ENDCHAR
STARTCHAR quoteleft
ENCODING 96
SWIDTH 333 0
DWIDTH 8 0
BBX 4 9 2 8
BITMAP
10
30
60
60
C0
E0
F0
F0
60
ENDCHAR
STARTCHAR a
ENCODING 97
SWIDTH 500 0
DWIDTH 12 0
BBX 10 12 1 0
BITMAP
3E00
6700
E380
E380
4380
0F80
7380
E380
E380
E780
FFC0
7180
ENDCHAR
STARTCHAR b
ENCODING 98
SWIDTH 556 0
DWIDTH 13 0
BBX 12 17 0 0
BITMAP
F800
3800
3800
3800
3800
3B80
3FE0
3CE0
3870
3870
3870
3870
3870
3870
38E0
3DE0
3780
ENDCHAR
STARTCHAR c
ENCODING 99
SWIDTH 444 0
DWIDTH 11 0
BBX 9 12 1 0
BITMAP
1F00
7380
7380
E380
E100
E000
E000
E000
F000
7880
7F00
1E00
ENDCHAR
STARTCHAR d
ENCODING 100
SWIDTH 556 0
DWIDTH 14 0
BBX 12 17 1 0
BITMAP
03E0
00E0
00E0
00E0
00E0
1EE0
7FE0
71E0
E0E0
E0E0
E0E0
E0E0
E0E0
F0E0
71E0
7EE0
1C70
ENDCHAR
STARTCHAR e
ENCODING 101
SWIDTH 444 0
DWIDTH 11 0
BBX 10 12 1 0
BITMAP
1F00
7380
6380
E1C0
E1C0
FFC0
E000
E000
F000
7880
7F00
1E00
ENDCHAR
STARTCHAR f
ENCODING 102
SWIDTH 333 0
DWIDTH 8 0
BBX 8 17 1 0
BITMAP
1E
33
73
70
70
FC
70
70
70
70
70
70
70
70
70
70
F8
ENDCHAR
STARTCHAR g
ENCODING 103
SWIDTH 500 0
DWIDTH 12 0
BBX 10 17 1 -5
BITMAP
3E00
77C0
E380
E380
E380
E380
7300
3E00
7000
E000
FF80
FFC0
7FC0
E0C0
C0C0
C180
7F00
ENDCHAR
STARTCHAR h
ENCODING 104
SWIDTH 556 0
DWIDTH 14 0
BBX 13 17 0 0
BITMAP
F800
3800
3800
3800
3800
39E0
3FF0
3C70
3870
3870
3870
3870
3870
3870
3870
3870
7CF8
ENDCHAR
STARTCHAR i
ENCODING 105
SWIDTH 278 0
DWIDTH 7 0
BBX 5 17 1 0
BITMAP
70
70
70
00
00
F0
70
70
70
70
70
70
70
70
70
70
F8
ENDCHAR
STARTCHAR j
ENCODING 106
SWIDTH 333 0
DWIDTH 8 0
BBX 7 22 -1 -5
BITMAP
0E
0E
0E
00
00
1E
0E
0E
0E
0E
0E
0E
0E
0E
0E
0E
0E
0E
CE
CE
CC
78
ENDCHAR
STARTCHAR k
ENCODING 107
SWIDTH 556 0
DWIDTH 15 0
BBX 13 17 1 0
BITMAP
F000
7000
7000
7000
7000
73F0
70C0
7180
7300
7600
7E00
7F00
7780
73C0
71E0
70F0
F9F8
ENDCHAR
STARTCHAR l
ENCODING 108
SWIDTH 278 0
DWIDTH 7 0
BBX 6 17 0 0
BITMAP
F8
38
38
38
38
38
38
38
38
38
38
38
38
38
38
38
7C
ENDCHAR
STARTCHAR m
ENCODING 109
SWIDTH 833 0
DWIDTH 21 0
BBX 19 12 1 0
BITMAP
F3C780
77DFC0
78F1C0
70E1C0
70E1C0
70E1C0
70E1C0
70E1C0
70E1C0
70E1C0
70E1C0
F9F3E0
ENDCHAR
STARTCHAR n
ENCODING 110
SWIDTH 556 0
DWIDTH 14 0
BBX 12 12 1 0
BITMAP
F3C0
77E0
78E0
70E0
70E0
70E0
70E0
70E0
70E0
70E0
70E0
F9F0
ENDCHAR
STARTCHAR o
ENCODING 111
SWIDTH 500 0
DWIDTH 13 0
BBX 11 12 1 0
BITMAP
1F00
7BC0
71C0
E0E0
E0E0
E0E0
E0E0
E0E0
E0E0
71C0
7BC0
1F00
ENDCHAR
STARTCHAR p
ENCODING 112
SWIDTH 556 0
DWIDTH 14 0
BBX 12 17 1 -5
BITMAP
F380
77E0
7CE0
7870
7070
7070
7070
7070
7070
78E0
77E0
7380
7000
7000
7000
7000
FC00
ENDCHAR
STARTCHAR q
ENCODING 113
SWIDTH 556 0
DWIDTH 14 0
BBX 12 18 1 -5
BITMAP
0020
0E60
3FE0
71E0
E0E0
E0E0
E0E0
E0E0
E0E0
E0E0
71E0
7EE0
1CE0
00E0
00E0
00E0
00E0
01F0
ENDCHAR
STARTCHAR r
ENCODING 114
SWIDTH 444 0
DWIDTH 11 0
BBX 10 12 1 0
BITMAP
F780
79C0
73C0
7180
7000
7000
7000
7000
7000
7000
7000
FC00
ENDCHAR
STARTCHAR s
ENCODING 115
SWIDTH 389 0
DWIDTH 10 0
BBX 8 12 1 0
BITMAP
3E
66
E2
E2
F8
7C
3E
1F
87
87
C6
FC
ENDCHAR
STARTCHAR t
ENCODING 116
SWIDTH 333 0
DWIDTH 8 0
BBX 8 16 0 0
BITMAP
08
18
38
78
FF
38
38
38
38
38
38
38
38
39
3E
1C
ENDCHAR
STARTCHAR u
ENCODING 117
SWIDTH 556 0
DWIDTH 14 0
BBX 12 12 1 0
BITMAP
F1E0
70E0
70E0
70E0
70E0
70E0
70E0
70E0
70E0
71E0
7EF0
3CE0
ENDCHAR
STARTCHAR v
ENCODING 118
SWIDTH 500 0
DWIDTH 12 0
BBX 12 12 0 0
BITMAP
FCF0
7860
7840
38C0
3C80
1D80
1D00
1F00
0F00
0E00
0600
0600
ENDCHAR
STARTCHAR w
ENCODING 119
SWIDTH 722 0
DWIDTH 18 0
BBX 17 12 0 0
BITMAP
FDF780
78E300
38E300
38E200
38E600
1CF600
1D7400
1F3C00
0F3C00
0E3800
061800
061800
ENDCHAR
STARTCHAR x
ENCODING 120
SWIDTH 500 0
DWIDTH 12 0
BBX 12 12 0 0
BITMAP
FCF0
7860
3CC0
1D80
1F00
0F00
0F00
1F80
1BC0
31C0
61E0
F3F0
ENDCHAR
STARTCHAR y
ENCODING 121
SWIDTH 500 0
DWIDTH 12 0
BBX 12 17 0 -5
BITMAP
FDF0
7860
3840
38C0
3C80
1C80
1D80
1F00
0F00
0F00
0600
0600
0600
6400
EC00
F800
7000
ENDCHAR
STARTCHAR z
ENCODING 122
SWIDTH 444 0
DWIDTH 11 0
BBX 9 12 1 0
BITMAP
FF80
C700
8F00
8E00
1E00
1C00
3C00
3800
7880
7180
F180
FF80
ENDCHAR
STARTCHAR braceleft
ENCODING 123
SWIDTH 394 0
DWIDTH 10 0
BBX 7 21 1 -4
BITMAP
0E
18
30
30
30
30
30
30
30
60
C0
60
30
30
30
30
30
30
30
18
0E
ENDCHAR
STARTCHAR bar
ENCODING 124
SWIDTH 220 0
DWIDTH 6 0
BBX 2 22 2 -5
BITMAP
C0
C0
C0
C0
C0
C0
C0
C0
C0
C0
C0
C0
C0
C0
C0
C0
C0
C0
C0
C0
C0
C0
ENDCHAR
STARTCHAR braceright
ENCODING 125
SWIDTH 394 0
DWIDTH 10 0
BBX 7 21 1 -4
BITMAP
E0
30
18
18
18
18
18
18
18
0C
06
0C
18
18
18
18
18
18
18
30
E0
ENDCHAR
STARTCHAR asciitilde
ENCODING 126
SWIDTH 520 0
DWIDTH 13 0
BBX 12 6 0 6
BITMAP
1800
7E10
FF10
8FF0
87E0
0180
ENDCHAR
STARTCHAR space
ENCODING 160
SWIDTH 250 0
DWIDTH 6 0
BBX 1 1 0 0
BITMAP
00
ENDCHAR
STARTCHAR exclamdown
ENCODING 161
SWIDTH 333 0
DWIDTH 8 0
BBX 4 17 2 -5
BITMAP
60
F0
F0
60
00
00
60
60
60
60
60
F0
F0
F0
F0
F0
60
ENDCHAR
STARTCHAR cent
ENCODING 162
SWIDTH 500 0
DWIDTH 13 0
BBX 10 18 1 -3
BITMAP
0040
00C0
0080
0F80
3DC0
79C0
7340
E200
E200
E600
E400
7400
7C40
3FC0
1F00
1800
1000
3000
ENDCHAR
STARTCHAR sterling
ENCODING 163
SWIDTH 500 0
DWIDTH 13 0
BBX 12 17 0 0
BITMAP
0FC0
1CE0
38E0
38E0
3840
1C00
1C00
FF80
FF80
0E00
0E00
0E10
0C10
7C30
CFF0
FFF0
73C0
ENDCHAR
STARTCHAR currency
ENCODING 164
SWIDTH 500 0
DWIDTH 13 0
BBX 11 12 0 3
BITMAP
C060
EEE0
7FC0
3B80
71C0
60C0
60C0
71C0
3B80
7FC0
EEE0
C060
ENDCHAR
STARTCHAR yen
ENCODING 165
SWIDTH 500 0
DWIDTH 13 0
BBX 14 17 0 0
BITMAP
FE7C
3830
3C20
1C60
1E40
0EC0
0F80
0780
0700
1FC0
0700
1FC0
0700
0700
0700
0700
1FC0
ENDCHAR
STARTCHAR brokenbar
ENCODING 166
SWIDTH 220 0
DWIDTH 6 0
BBX 2 22 2 -5
BITMAP
C0
C0
C0
C0
C0
C0
C0
C0
00
00
00
00
00
C0
C0
C0
C0
C0
C0
C0
C0
C0
ENDCHAR
STARTCHAR section
ENCODING 167
SWIDTH 500 0
DWIDTH 11 0
BBX 8 20 2 -3
BITMAP
3C
6E
CE
E6
F0
78
7C
5E
8F
C7
E3
F3
7E
38
1C
0E
C6
E6
EC
78
ENDCHAR
STARTCHAR dieresis
ENCODING 168
SWIDTH 333 0
DWIDTH 8 0
BBX 6 2 1 14
BITMAP
CC
CC
ENDCHAR
STARTCHAR copyright
ENCODING 169
SWIDTH 747 0
DWIDTH 19 0
BBX 17 17 1 0
BITMAP
03E000
0FF800
3C1E00
300600
61F300
633300
C61180
C60180
C60180
C60180
C60180
633300
61E300
300600
3C1E00
0FF800
03E000
ENDCHAR
STARTCHAR ordfeminine
ENCODING 170
SWIDTH 300 0
DWIDTH 8 0
BBX 7 10 0 7
BITMAP
78
DC
0C
7C
CC
CC
7E
00
FE
FE
ENDCHAR
STARTCHAR guillemotleft
ENCODING 171
SWIDTH 500 0
DWIDTH 13 0
BBX 11 10 1 1
BITMAP
0C60
18C0
3180
7380
E700
E700
7380
3180
18C0
0C60
ENDCHAR
STARTCHAR logicalnot
ENCODING 172
SWIDTH 570 0
DWIDTH 15 0
BBX 11 7 2 2
BITMAP
FFE0
FFE0
0060
0060
0060
0060
0060
ENDCHAR
STARTCHAR hyphen
ENCODING 173
SWIDTH 333 0
DWIDTH 8 0
BBX 6 3 1 5
BITMAP
FC
FC
FC
ENDCHAR
STARTCHAR registered
ENCODING 174
SWIDTH 747 0
DWIDTH 19 0
BBX 17 17 1 0
BITMAP
03E000
0FF800
3C1E00
300600
67E300
633300
C33180
C33180
C3E180
C36180
C33180
633300
67BB00
300600
3C1E00
0FF800
03E000
ENDCHAR
STARTCHAR macron
ENCODING 175
SWIDTH 333 0
DWIDTH 8 0
BBX 6 2 1 14
BITMAP
FC
FC
ENDCHAR
STARTCHAR degree
ENCODING 176
SWIDTH 400 0
DWIDTH 9 0
BBX 8 7 0 10
BITMAP
3C
66
C3
C3
C3
66
3C
ENDCHAR
STARTCHAR plusminus
ENCODING 177
SWIDTH 570 0
DWIDTH 14 0
BBX 12 13 1 0
BITMAP
0600
0600
0600
0600
FFF0
FFF0
0600
0600
0600
0600
0000
FFF0
FFF0
ENDCHAR
STARTCHAR twosuperior
ENCODING 178
SWIDTH 300 0
DWIDTH 7 0
BBX 6 10 0 7
BITMAP
38
7C
8C
0C
18
10
20
40
FC
FC
ENDCHAR
STARTCHAR threesuperior
ENCODING 179
SWIDTH 300 0
DWIDTH 7 0
BBX 6 10 0 7
BITMAP
38
7C
8C
0C
38
1C
0C
8C
F8
70
ENDCHAR
STARTCHAR acute
ENCODING 180
SWIDTH 333 0
DWIDTH 8 0
BBX 5 4 2 13
BITMAP
38
70
60
C0
ENDCHAR
STARTCHAR mu
ENCODING 181
SWIDTH 556 0
DWIDTH 14 0
BBX 12 17 1 -5
BITMAP
F1E0
70E0
70E0
70E0
70E0
70E0
70E0
70E0
70E0
71E0
7EF0
6CE0
6000
6000
E000
F000
6000
ENDCHAR
STARTCHAR paragraph
ENCODING 182
SWIDTH 540 0
DWIDTH 14 0
BBX 12 21 1 -4
BITMAP
1FF0
7FF0
7E60
FE60
FE60
FE60
FE60
FE60
FE60
7E60
7E60
1E60
0660
0660
0660
0660
0660
0660
0660
0660
0660
ENDCHAR
STARTCHAR periodcentered
ENCODING 183
SWIDTH 250 0
DWIDTH 6 0
BBX 3 3 1 7
BITMAP
E0
E0
E0
ENDCHAR
STARTCHAR cedilla
ENCODING 184
SWIDTH 333 0
DWIDTH 8 0
BBX 6 6 1 -6
BITMAP
10
30
38
0C
8C
78
ENDCHAR
STARTCHAR onesuperior
ENCODING 185
SWIDTH 300 0
DWIDTH 7 0
BBX 6 10 0 7
BITMAP
30
F0
30
30
30
30
30
30
30
FC
ENDCHAR
STARTCHAR ordmasculine
ENCODING 186
SWIDTH 330 0
DWIDTH 8 0
BBX 7 10 0 7
BITMAP
38
6C
C6
C6
C6
6C
38
00
FE
FE
ENDCHAR
STARTCHAR guillemotright
ENCODING 187
SWIDTH 500 0
DWIDTH 13 0
BBX 11 10 1 1
BITMAP
C600
6300
3180
39C0
1CE0
1CE0
39C0
3380
6300
C600
ENDCHAR
STARTCHAR onequarter
ENCODING 188
SWIDTH 750 0
DWIDTH 18 0
BBX 17 17 0 0
BITMAP
300400
F00C00
301800
301800
303000
302000
306000
304200
30C600
FC8E00
018E00
011600
033600
062600
067F80
0C0600
080600
ENDCHAR
STARTCHAR onehalf
ENCODING 189
SWIDTH 750 0
DWIDTH 18 0
BBX 17 17 0 0
BITMAP
300400
F00C00
301800
301800
303000
302000
306000
304700
30CF80
FC9180
018180
010300
030200
060400
060800
0C1F80
081F80
ENDCHAR
STARTCHAR threequarters
ENCODING 190
SWIDTH 750 0
DWIDTH 18 0
BBX 16 17 1 0
BITMAP
3808
7C18
8C30
0C30
3860
1C40
0CC0
8C84
F98C
711C
031C
022C
066C
0C4C
0CFF
180C
100C
ENDCHAR
STARTCHAR questiondown
ENCODING 191
SWIDTH 500 0
DWIDTH 12 0
BBX 9 17 1 -5
BITMAP
0C00
1E00
1E00
0C00
0000
0000
0C00
0C00
1C00
3800
7800
F000
E100
E380
E380
7300
3E00
ENDCHAR
STARTCHAR Agrave
ENCODING 192
SWIDTH 722 0
DWIDTH 18 0
BBX 17 22 0 0
BITMAP
070000
038000
018000
00C000
000000
018000
01C000
03C000
03E000
02E000
06E000
067000
047000
0C7000
083800
083800
1FF800
103C00
301C00
301E00
701E00
F87F80
ENDCHAR
STARTCHAR Aacute
ENCODING 193
SWIDTH 722 0
DWIDTH 18 0
BBX 17 22 0 0
BITMAP
003800
007000
006000
00C000
000000
018000
01C000
03C000
03E000
02E000
06E000
067000
047000
0C7000
083800
083800
1FF800
103C00
301C00
301E00
701E00
F87F80
ENDCHAR
STARTCHAR Acircumflex
ENCODING 194
SWIDTH 722 0
DWIDTH 18 0
BBX 17 21 0 0
BITMAP
018000
03C000
066000
0C3000
018000
01C000
03C000
03E000
02E000
06E000
067000
047000
0C7000
083800
083800
1FF800
103C00
301C00
301E00
701E00
F87F80
ENDCHAR
STARTCHAR Atilde
ENCODING 195
SWIDTH 722 0
DWIDTH 18 0
BBX 17 21 0 0
BITMAP
031000
07E000
08C000
000000
018000
01C000
03C000
03E000
02E000
06E000
067000
047000
0C7000
083800
083800
1FF800
103C00
301C00
301E00
701E00
F87F80
ENDCHAR
STARTCHAR Adieresis
ENCODING 196
SWIDTH 722 0
DWIDTH 18 0
BBX 17 20 0 0
BITMAP
063000
063000
000000
018000
01C000
03C000
03E000
02E000
06E000
067000
047000
0C7000
083800
083800
1FF800
103C00
301C00
301E00
701E00
F87F80
ENDCHAR
STARTCHAR Aring
ENCODING 197
SWIDTH 722 0
DWIDTH 18 0
BBX 17 22 0 0
BITMAP
01C000
022000
022000
01C000
000000
018000
01C000
03C000
03E000
02E000
06E000
067000
047000
0C7000
083800
083800
1FF800
103C00
301C00
301E00
701E00
F87F80
ENDCHAR
STARTCHAR AE
ENCODING 198
SWIDTH 1000 0
DWIDTH 25 0
BBX 23 17 0 0
BITMAP
01FFFC
007C1C
00DC0C
009C04
019C24
011C20
031C60
021CE0
061FE0
07FCE0
0C1C60
081C20
181C22
101C06
301C0E
701C1E
F8FFFE
ENDCHAR
STARTCHAR Ccedilla
ENCODING 199
SWIDTH 722 0
DWIDTH 18 0
BBX 14 23 2 -6
BITMAP
07E4
1E7C
3C1C
780C
7004
F004
E000
E000
E000
E000
E000
F000
F000
7804
781C
3E78
0FE0
0100
0300
0380
00C0
08C0
0780
ENDCHAR
STARTCHAR Egrave
ENCODING 200
SWIDTH 667 0
DWIDTH 17 0
BBX 15 22 1 0
BITMAP
0700
0380
0180
00C0
0000
FFFC
1E1C
1C0C
1C04
1C24
1C20
1C60
1CE0
1FE0
1CE0
1C60
1C20
1C22
1C06
1C0C
1E1C
FFFC
ENDCHAR
STARTCHAR Eacute
ENCODING 201
SWIDTH 667 0
DWIDTH 17 0
BBX 15 22 1 0
BITMAP
0070
00E0
00C0
0180
0000
FFFC
1E1C
1C0C
1C04
1C24
1C20
1C60
1CE0
1FE0
1CE0
1C60
1C20
1C22
1C06
1C0C
1E1C
FFFC
ENDCHAR
STARTCHAR Ecircumflex
ENCODING 202
SWIDTH 667 0
DWIDTH 17 0
BBX 15 22 1 0
BITMAP
0180
03C0
0660
0C30
0000
FFFC
1E1C
1C0C
1C04
1C24
1C20
1C60
1CE0
1FE0
1CE0
1C60
1C20
1C22
1C06
1C0C
1E1C
FFFC
ENDCHAR
STARTCHAR Edieresis
ENCODING 203
SWIDTH 667 0
DWIDTH 17 0
BBX 15 21 1 0
BITMAP
0630
0630
0000
0000
FFFC
1E1C
1C0C
1C04
1C24
1C20
1C60
1CE0
1FE0
1CE0
1C60
1C20
1C22
1C06
1C0C
1E1C
FFFC
ENDCHAR
STARTCHAR Igrave
ENCODING 204
SWIDTH 389 0
DWIDTH 10 0
BBX 7 22 1 0
BITMAP
E0
70
30
18
00
FE
38
38
38
38
38
38
38
38
38
38
38
38
38
38
38
FE
ENDCHAR
STARTCHAR Iacute
ENCODING 205
SWIDTH 389 0
DWIDTH 10 0
BBX 7 22 1 0
BITMAP
0E
1C
18
30
00
FE
38
38
38
38
38
38
38
38
38
38
38
38
38
38
38
FE
ENDCHAR
STARTCHAR Icircumflex
ENCODING 206
SWIDTH 389 0
DWIDTH 10 0
BBX 8 22 0 0
BITMAP
18
3C
66
C3
00
7F
1C
1C
1C
1C
1C
1C
1C
1C
1C
1C
1C
1C
1C
1C
1C
7F
ENDCHAR
STARTCHAR Idieresis
ENCODING 207
SWIDTH 389 0
DWIDTH 10 0
BBX 7 21 1 0
BITMAP
C6
C6
00
00
FE
38
38
38
38
38
38
38
38
38
38
38
38
38
38
38
FE
ENDCHAR
STARTCHAR Eth
ENCODING 208
SWIDTH 722 0
DWIDTH 18 0
BBX 16 17 1 0
BITMAP
FFF0
3C38
381C
380E
380E
3807
3807
FF87
FF87
3807
3807
380E
380E
381C
381C
3C78
FFE0
ENDCHAR
STARTCHAR Ntilde
ENCODING 209
SWIDTH 722 0
DWIDTH 18 0
BBX 17 22 0 0
BITMAP
018800
03F000
046000
000000
000000
F00F80
780200
3C0200
3E0200
3F0200
2F8200
27C200
23E200
21F200
20FA00
207A00
203E00
201E00
200E00
200600
200600
F80200
ENDCHAR
STARTCHAR Ograve
ENCODING 210
SWIDTH 778 0
DWIDTH 19 0
BBX 16 22 1 0
BITMAP
0700
0380
0180
00C0
0000
07E0
1E78
381C
781E
700E
F00F
E007
E007
E007
E007
E007
F00F
700E
781E
381C
1E78
07E0
ENDCHAR
STARTCHAR Oacute
ENCODING 211
SWIDTH 778 0
DWIDTH 19 0
BBX 16 22 1 0
BITMAP
001C
0038
0030
0060
0000
07E0
1E78
381C
781E
700E
F00F
E007
E007
E007
E007
E007
F00F
700E
781E
381C
1E78
07E0
ENDCHAR
STARTCHAR Ocircumflex
ENCODING 212
SWIDTH 778 0
DWIDTH 19 0
BBX 16 22 1 0
BITMAP
00C0
01E0
0330
0618
0000
07E0
1E78
381C
781E
700E
F00F
E007
E007
E007
E007
E007
F00F
700E
781E
381C
1E78
07E0
ENDCHAR
STARTCHAR Otilde
ENCODING 213
SWIDTH 778 0
DWIDTH 19 0
BBX 16 21 1 0
BITMAP
0188
03F0
0460
0000
07E0
1E78
381C
781E
700E
F00F
E007
E007
E007
E007
E007
F00F
700E
781E
381C
1E78
07E0
ENDCHAR
STARTCHAR Odieresis
ENCODING 214
SWIDTH 778 0
DWIDTH 19 0
BBX 16 21 1 0
BITMAP
0C30
0C30
0000
0000
07E0
1E78
381C
781E
700E
F00F
E007
E007
E007
E007
E007
F00F
700E
781E
381C
1E78
07E0
ENDCHAR
STARTCHAR multiply
ENCODING 215
SWIDTH 570 0
DWIDTH 14 0
BBX 12 12 1 0
BITMAP
C030
E070
70E0
39C0
1F80
0F00
0F00
1F80
39C0
70E0
E070
C030
ENDCHAR
STARTCHAR Oslash
ENCODING 216
SWIDTH 778 0
DWIDTH 19 0
BBX 16 19 1 -1
BITMAP
0004
07EC
1E78
381C
701E
7036
E067
E0C7
E0C7
E187
E307
E307
E607
6C0E
780E
381C
3E78
37E0
6000
ENDCHAR
STARTCHAR Ugrave
ENCODING 217
SWIDTH 722 0
DWIDTH 18 0
BBX 17 22 1 0
BITMAP
070000
038000
018000
00C000
000000
FF0F80
380200
380200
380200
380200
380200
380200
380200
380200
380200
380200
380200
380200
380600
1C0400
1E0C00
0FF800
ENDCHAR
STARTCHAR Uacute
ENCODING 218
SWIDTH 722 0
DWIDTH 18 0
BBX 17 22 1 0
BITMAP
001C00
003800
003000
006000
000000
FF0F80
380200
380200
380200
380200
380200
380200
380200
380200
380200
380200
380200
380200
380600
1C0400
1E0C00
0FF800
ENDCHAR
STARTCHAR Ucircumflex
ENCODING 219
SWIDTH 722 0
DWIDTH 18 0
BBX 17 22 1 0
BITMAP
00C000
01E000
033000
061800
000000
FF0F80
380200
380200
380200
380200
380200
380200
380200
380200
380200
380200
380200
380200
380600
1C0400
1E0C00
0FF800
ENDCHAR
STARTCHAR Udieresis
ENCODING 220
SWIDTH 722 0
DWIDTH 18 0
BBX 17 21 1 0
BITMAP
031800
031800
000000
000000
FF0F80
380200
380200
380200
380200
380200
380200
380200
380200
380200
380200
380200
380200
380600
1C0400
1E0C00
0FF800
ENDCHAR
STARTCHAR Yacute
ENCODING 221
SWIDTH 722 0
DWIDTH 18 0
BBX 17 22 1 0
BITMAP
003800
007000
006000
00C000
000000
FF3F80
3C0F00
3C0C00
1E0C00
0E1800
0F1800
073000
03A000
03E000
01C000
01C000
01C000
01C000
01C000
01C000
01C000
07F000
ENDCHAR
STARTCHAR Thorn
ENCODING 222
SWIDTH 611 0
DWIDTH 15 0
BBX 13 17 1 0
BITMAP
FF00
3800
3800
3800
3FE0
3870
3838
3838
3838
3838
3838
3870
3FE0
3800
3800
3800
FF00
ENDCHAR
STARTCHAR germandbls
ENCODING 223
SWIDTH 556 0
DWIDTH 14 0
BBX 11 17 1 0
BITMAP
1F00
3980
71C0
71C0
71C0
71C0
7380
7700
7380
71C0
70E0
70E0
70E0
70E0
70E0
76C0
F780
ENDCHAR
STARTCHAR agrave
ENCODING 224
SWIDTH 500 0
DWIDTH 12 0
BBX 10 17 1 0
BITMAP
3800
1C00
0C00
0600
0000
3E00
7700
E380
E380
4380
0F80
7380
E380
E380
E780
FFC0
7180
ENDCHAR
STARTCHAR aacute
ENCODING 225
SWIDTH 500 0
DWIDTH 12 0
BBX 10 17 1 0
BITMAP
0700
0E00
0C00
1800
0000
3E00
7700
E380
E380
4380
0F80
7380
E380
E380
E780
FFC0
7180
ENDCHAR
STARTCHAR acircumflex
ENCODING 226
SWIDTH 500 0
DWIDTH 12 0
BBX 10 17 1 0
BITMAP
0C00
1E00
3300
6180
0000
3E00
7700
E380
E380
4380
0F80
7380
E380
E380
E780
FFC0
7180
ENDCHAR
STARTCHAR atilde
ENCODING 227
SWIDTH 500 0
DWIDTH 12 0
BBX 10 17 1 0
BITMAP
1880
3F00
4600
0000
0000
3E00
7700
E380
E380
4380
0F80
7380
E380
E380
E780
FFC0
7180
ENDCHAR
STARTCHAR adieresis
ENCODING 228
SWIDTH 500 0
DWIDTH 12 0
BBX 10 16 1 0
BITMAP
3300
3300
0000
0000
3E00
7700
E380
E380
4380
0F80
7380
E380
E380
E780
FFC0
7180
ENDCHAR
STARTCHAR aring
ENCODING 229
SWIDTH 500 0
DWIDTH 12 0
BBX 10 17 1 0
BITMAP
1C00
2200
2200
1C00
0000
3E00
7700
E380
E380
4380
0F80
7380
E380
E380
E780
FFC0
7180
ENDCHAR
STARTCHAR ae
ENCODING 230
SWIDTH 722 0
DWIDTH 17 0
BBX 15 12 1 0
BITMAP
3E78
77CC
E3CE
638E
038E
1FFE
7380
E380
E3C0
E7E2
FEFC
7C78
ENDCHAR
STARTCHAR ccedilla
ENCODING 231
SWIDTH 444 0
DWIDTH 11 0
BBX 9 18 1 -6
BITMAP
1E00
7300
7380
E380
E100
E000
E000
E000
F000
7880
7F00
1E00
0800
1800
1C00
0600
4600
3C00
ENDCHAR
STARTCHAR egrave
ENCODING 232
SWIDTH 444 0
DWIDTH 11 0
BBX 9 17 1 0
BITMAP
3800
1C00
0C00
0600
0000
1E00
7300
7380
E380
E380
FF80
E000
E000
F000
7880
7F00
1E00
ENDCHAR
STARTCHAR eacute
ENCODING 233
SWIDTH 444 0
DWIDTH 11 0
BBX 9 17 1 0
BITMAP
0700
0E00
0C00
1800
0000
1E00
7300
7380
E380
E380
FF80
E000
E000
F000
7880
7F00
1E00
ENDCHAR
STARTCHAR ecircumflex
ENCODING 234
SWIDTH 444 0
DWIDTH 11 0
BBX 9 17 1 0
BITMAP
0C00
1E00
3300
6180
0000
1E00
7300
7380
E380
E380
FF80
E000
E000
F000
7880
7F00
1E00
ENDCHAR
STARTCHAR edieresis
ENCODING 235
SWIDTH 444 0
DWIDTH 11 0
BBX 9 16 1 0
BITMAP
3300
3300
0000
0000
1E00
7300
7380
E380
E380
FF80
E000
E000
F000
7880
7F00
1E00
ENDCHAR
STARTCHAR igrave
ENCODING 236
SWIDTH 278 0
DWIDTH 7 0
BBX 6 17 0 0
BITMAP
E0
70
30
18
00
78
38
38
38
38
38
38
38
38
38
38
7C
ENDCHAR
STARTCHAR iacute
ENCODING 237
SWIDTH 278 0
DWIDTH 7 0
BBX 5 17 1 0
BITMAP
38
70
60
C0
00
F0
70
70
70
70
70
70
70
70
70
70
F8
ENDCHAR
STARTCHAR icircumflex
ENCODING 238
SWIDTH 278 0
DWIDTH 7 0
BBX 8 17 0 0
BITMAP
18
3C
66
C3
00
78
38
38
38
38
38
38
38
38
38
38
7C
ENDCHAR
STARTCHAR idieresis
ENCODING 239
SWIDTH 278 0
DWIDTH 7 0
BBX 6 16 0 0
BITMAP
CC
CC
00
00
78
38
38
38
38
38
38
38
38
38
38
7C
ENDCHAR
STARTCHAR eth
ENCODING 240
SWIDTH 500 0
DWIDTH 13 0
BBX 11 18 1 0
BITMAP
6000
3B80
0E00
3C00
6E00
0700
1F80
7BC0
71C0
E0E0
E0E0
E0E0
E0E0
E0E0
E0E0
71C0
7BC0
1F00
ENDCHAR
STARTCHAR ntilde
ENCODING 241
SWIDTH 556 0
DWIDTH 14 0
BBX 12 17 1 0
BITMAP
0C40
1F80
2300
0000
0000
F3C0
77E0
78E0
70E0
70E0
70E0
70E0
70E0
70E0
70E0
70E0
F9F0
ENDCHAR
STARTCHAR ograve
ENCODING 242
SWIDTH 500 0
DWIDTH 13 0
BBX 11 17 1 0
BITMAP
1C00
0E00
0600
0300
0000
1F00
7BC0
71C0
E0E0
E0E0
E0E0
E0E0
E0E0
E0E0
71C0
7BC0
1F00
ENDCHAR
STARTCHAR oacute
ENCODING 243
SWIDTH 500 0
DWIDTH 13 0
BBX 11 17 1 0
BITMAP
0380
0700
0600
0C00
0000
1F00
7BC0
71C0
E0E0
E0E0
E0E0
E0E0
E0E0
E0E0
71C0
7BC0
1F00
ENDCHAR
STARTCHAR ocircumflex
ENCODING 244
SWIDTH 500 0
DWIDTH 13 0
BBX 11 17 1 0
BITMAP
0C00
1E00
3300
6180
0000
1F00
7BC0
71C0
E0E0
E0E0
E0E0
E0E0
E0E0
E0E0
71C0
7BC0
1F00
ENDCHAR
STARTCHAR otilde
ENCODING 245
SWIDTH 500 0
DWIDTH 13 0
BBX 11 17 1 0
BITMAP
1880
3F00
4600
0000
0000
1F00
7BC0
71C0
E0E0
E0E0
E0E0
E0E0
E0E0
E0E0
71C0
7BC0
1F00
ENDCHAR
STARTCHAR odieresis
ENCODING 246
SWIDTH 500 0
DWIDTH 13 0
BBX 11 16 1 0
BITMAP
3300
3300
0000
0000
1F00
7BC0
71C0
E0E0
E0E0
E0E0
E0E0
E0E0
E0E0
71C0
7BC0
1F00
ENDCHAR
STARTCHAR divide
ENCODING 247
SWIDTH 570 0
DWIDTH 14 0
BBX 12 12 1 0
BITMAP
0600
0F00
0600
0000
0000
FFF0
FFF0
0000
0000
0600
0F00
0600
ENDCHAR
STARTCHAR oslash
ENCODING 248
SWIDTH 500 0
DWIDTH 13 0
BBX 11 16 1 -2
BITMAP
0040
0040
1E80
79C0
71C0
E2E0
E2E0
E4E0
E4E0
E8E0
E8E0
71C0
7BC0
3F00
4000
4000
ENDCHAR
STARTCHAR ugrave
ENCODING 249
SWIDTH 556 0
DWIDTH 14 0
BBX 12 17 1 0
BITMAP
1C00
0E00
0600
0300
0000
F1E0
70E0
70E0
70E0
70E0
70E0
70E0
70E0
70E0
71E0
7EF0
3CE0
ENDCHAR
STARTCHAR uacute
ENCODING 250
SWIDTH 556 0
DWIDTH 14 0
BBX 12 17 1 0
BITMAP
0380
0700
0600
0C00
0000
F1E0
70E0
70E0
70E0
70E0
70E0
70E0
70E0
70E0
71E0
7EF0
3CE0
ENDCHAR
STARTCHAR ucircumflex
ENCODING 251
SWIDTH 556 0
DWIDTH 14 0
BBX 12 17 1 0
BITMAP
0600
0F00
1980
30C0
0000
F1E0
70E0
70E0
70E0
70E0
70E0
70E0
70E0
70E0
71E0
7EF0
3CE0
ENDCHAR
STARTCHAR udieresis
ENCODING 252
SWIDTH 556 0
DWIDTH 14 0
BBX 12 16 1 0
BITMAP
1980
1980
0000
0000
F1E0
70E0
70E0
70E0
70E0
70E0
70E0
70E0
70E0
71E0
7EF0
3CE0
ENDCHAR
STARTCHAR yacute
ENCODING 253
SWIDTH 500 0
DWIDTH 12 0
BBX 12 22 0 -5
BITMAP
01C0
0380
0300
0600
0000
FDF0
7860
3840
38C0
3C80
1C80
1D80
1F00
0F00
0F00
0600
0600
0600
6400
EC00
F800
7000
ENDCHAR
STARTCHAR thorn
ENCODING 254
SWIDTH 556 0
DWIDTH 14 0
BBX 12 22 1 -5
BITMAP
F000
7000
7000
7000
7000
7380
77E0
7CE0
7870
7070
7070
7070
7070
7070
78E0
77E0
7380
7000
7000
7000
7000
FC00
ENDCHAR
STARTCHAR ydieresis
ENCODING 255
SWIDTH 500 0
DWIDTH 12 0
BBX 12 21 0 -5
BITMAP
1980
1980
0000
0000
FDF0
7860
3840
38C0
3C80
1C80
1D80
1F00
0F00
0F00
0600
0600
0600
6400
EC00
F800
7000
ENDCHAR
STARTCHAR Lslash
ENCODING -1
SWIDTH 667 0
DWIDTH 16 0
BBX 15 17 1 0
BITMAP
FF00
3C00
3C00
3C00
3C80
3D80
3F00
3E00
7C00
FC00
BC00
3C00
3C02
3C06
3C0C
3C1C
FFFC
ENDCHAR
STARTCHAR OE
ENCODING -1
SWIDTH 1000 0
DWIDTH 25 0
BBX 23 17 0 0
BITMAP
07FFFC
1E3C1C
383C0C
383C04
783C24
703C20
F03C60
F03CE0
F03FE0
F03CE0
F03C60
F03C20
703C22
783C06
383C0C
1C3C1C
07FFFC
ENDCHAR
STARTCHAR Scaron
ENCODING -1
SWIDTH 556 0
DWIDTH 14 0
BBX 11 22 2 0
BITMAP
6180
3300
1E00
0C00
0000
3F40
71C0
E0C0
E040
E040
F000
FC00
7F00
1FC0
0FC0
03E0
81E0
80E0
C0E0
E0C0
F1C0
BF80
ENDCHAR
STARTCHAR Ydieresis
ENCODING -1
SWIDTH 722 0
DWIDTH 18 0
BBX 17 21 1 0
BITMAP
033000
033000
000000
000000
FF3F80
3C0F00
3C0C00
1E0C00
0E1800
0F1800
073000
03A000
03E000
01C000
01C000
01C000
01C000
01C000
01C000
01C000
07F000
ENDCHAR
STARTCHAR Zcaron
ENCODING -1
SWIDTH 667 0
DWIDTH 17 0
BBX 14 22 2 0
BITMAP
1860
0CC0
0780
0300
0000
FFF8
E078
C0F0
C0F0
81E0
03C0
03C0
0780
0F80
0F00
1E00
3E04
3C04
780C
781C
F038
FFF8
ENDCHAR
STARTCHAR breve
ENCODING -1
SWIDTH 333 0
DWIDTH 8 0
BBX 6 4 1 14
BITMAP
84
84
FC
78
ENDCHAR
STARTCHAR bullet
ENCODING -1
SWIDTH 350 0
DWIDTH 9 0
BBX 6 6 1 5
BITMAP
78
FC
FC
FC
FC
78
ENDCHAR
STARTCHAR caron
ENCODING -1
SWIDTH 333 0
DWIDTH 8 0
BBX 8 4 1 14
BITMAP
C3
66
3C
18
ENDCHAR
STARTCHAR circumflex
ENCODING -1
SWIDTH 333 0
DWIDTH 8 0
BBX 8 4 1 14
BITMAP
18
3C
66
C3
ENDCHAR
STARTCHAR dagger
ENCODING -1
SWIDTH 500 0
DWIDTH 13 0
BBX 11 20 1 -3
BITMAP
0400
0E00
0E00
0400
64C0
FFE0
64C0
0400
0E00
0E00
0E00
0400
0400
0400
0400
0400
0400
0400
0400
0400
ENDCHAR
STARTCHAR daggerdbl
ENCODING -1
SWIDTH 500 0
DWIDTH 13 0
BBX 11 20 1 -3
BITMAP
0400
0E00
0E00
0400
64C0
FFE0
64C0
0400
0E00
0E00
0E00
0E00
0400
64C0
FFE0
64C0
0400
0E00
0E00
0400
ENDCHAR
STARTCHAR dotaccent
ENCODING -1
SWIDTH 333 0
DWIDTH 8 0
BBX 2 2 3 14
BITMAP
C0
C0
ENDCHAR
STARTCHAR dotlessi
ENCODING -1
SWIDTH 278 0
DWIDTH 7 0
BBX 5 12 1 0
BITMAP
F0
70
70
70
70
70
70
70
70
70
70
F8
ENDCHAR
STARTCHAR ellipsis
ENCODING -1
SWIDTH 1000 0
DWIDTH 25 0
BBX 20 4 2 0
BITMAP
606060
F0F0F0
F0F0F0
606060
ENDCHAR
STARTCHAR emdash
ENCODING -1
SWIDTH 1000 0
DWIDTH 24 0
BBX 24 2 0 5
BITMAP
FFFFFF
FFFFFF
ENDCHAR
STARTCHAR endash
ENCODING -1
SWIDTH 500 0
DWIDTH 13 0
BBX 13 2 0 5
BITMAP
FFF8
FFF8
ENDCHAR
STARTCHAR fi
ENCODING -1
SWIDTH 556 0
DWIDTH 14 0
BBX 11 17 1 0
BITMAP
0F00
39C0
71C0
7000
7000
FFC0
71C0
71C0
71C0
71C0
71C0
71C0
71C0
71C0
71C0
71C0
FBE0
ENDCHAR
STARTCHAR fl
ENCODING -1
SWIDTH 556 0
DWIDTH 14 0
BBX 11 17 1 0
BITMAP
1F40
39C0
71C0
71C0
71C0
FFC0
71C0
71C0
71C0
71C0
71C0
71C0
71C0
71C0
71C0
71C0
FBE0
ENDCHAR
STARTCHAR florin
ENCODING -1
SWIDTH 500 0
DWIDTH 13 0
BBX 12 22 0 -4
BITMAP
01E0
03B0
0330
0700
0700
0700
0700
3FE0
3FE0
0700
0700
0700
0700
0E00
0E00
0E00
0E00
0E00
0E00
CC00
DC00
7800
ENDCHAR
STARTCHAR fraction
ENCODING -1
SWIDTH 167 0
DWIDTH 8 0
BBX 10 17 -1 0
BITMAP
0040
00C0
0180
0180
0300
0200
0600
0400
0C00
0800
1800
1000
3000
6000
6000
C000
8000
ENDCHAR
STARTCHAR grave
ENCODING -1
SWIDTH 333 0
DWIDTH 8 0
BBX 5 4 1 13
BITMAP
E0
70
30
18
ENDCHAR
STARTCHAR guilsinglleft
ENCODING -1
SWIDTH 333 0
DWIDTH 8 0
BBX 6 10 1 1
BITMAP
0C
18
30
70
E0
E0
70
30
18
0C
ENDCHAR
STARTCHAR guilsinglright
ENCODING -1
SWIDTH 333 0
DWIDTH 8 0
BBX 6 10 1 1
BITMAP
C0
60
30
38
1C
1C
38
30
60
C0
ENDCHAR
STARTCHAR hungarumlaut
ENCODING -1
SWIDTH 333 0
DWIDTH 8 0
BBX 7 5 1 13
BITMAP
66
66
CC
CC
88
ENDCHAR
STARTCHAR lslash
ENCODING -1
SWIDTH 278 0
DWIDTH 7 0
BBX 7 17 0 0
BITMAP
78
38
38
38
3A
3E
3C
38
78
F8
B8
38
38
38
38
38
7C
ENDCHAR
STARTCHAR oe
ENCODING -1
SWIDTH 722 0
DWIDTH 17 0
BBX 15 12 1 0
BITMAP
1E78
73CC
73CE
E18E
E18E
E1FE
E180
E180
E1C0
73E2
73FC
1E78
ENDCHAR
STARTCHAR ogonek
ENCODING -1
SWIDTH 333 0
DWIDTH 8 0
BBX 5 5 2 -5
BITMAP
60
C0
C0
C8
70
ENDCHAR
STARTCHAR perthousand
ENCODING -1
SWIDTH 1000 0
DWIDTH 25 0
BBX 23 17 1 0
BITMAP
1E3800
77F000
623000
E26000
C46000
C4C000
E8C000
718000
018000
031C1C
037676
066262
06E2E2
0CC4C4
0CC4C4
18E8E8
187070
ENDCHAR
STARTCHAR quotedblbase
ENCODING -1
SWIDTH 500 0
DWIDTH 13 0
BBX 9 9 2 -5
BITMAP
6300
F780
F780
7380
3180
6300
6300
C600
8400
ENDCHAR
STARTCHAR quotedblleft
ENCODING -1
SWIDTH 500 0
DWIDTH 13 0
BBX 9 9 2 8
BITMAP
1080
3180
6300
6300
C600
E700
F780
F780
6300
ENDCHAR
STARTCHAR quotedblright
ENCODING -1
SWIDTH 500 0
DWIDTH 13 0
BBX 9 9 1 8
BITMAP
6300
F780
F780
7380
3180
6300
6300
C600
8400
ENDCHAR
STARTCHAR quotesinglbase
ENCODING -1
SWIDTH 333 0
DWIDTH 8 0
BBX 4 9 2 -5
BITMAP
60
F0
F0
70
30
60
60
C0
80
ENDCHAR
STARTCHAR quotesingle
ENCODING -1
SWIDTH 278 0
DWIDTH 7 0
BBX 3 8 2 9
BITMAP
E0
E0
E0
E0
E0
E0
40
40
ENDCHAR
STARTCHAR ring
ENCODING -1
SWIDTH 333 0
DWIDTH 8 0
BBX 5 4 1 13
BITMAP
70
88
88
70
ENDCHAR
STARTCHAR scaron
ENCODING -1
SWIDTH 389 0
DWIDTH 10 0
BBX 8 17 1 0
BITMAP
C3
66
3C
18
00
3E
66
E2
E2
F8
7C
3E
1F
87
87
C6
FC
ENDCHAR
STARTCHAR tilde
ENCODING -1
SWIDTH 333 0
DWIDTH 8 0
BBX 8 3 0 14
BITMAP
31
7E
8C
ENDCHAR
STARTCHAR trademark
ENCODING -1
SWIDTH 1000 0
DWIDTH 25 0
BBX 23 10 1 7
BITMAP
FFDC0E
CCCE1C
8C4E1C
0C0F3C
0C0B2C
0C0BEC
0C09CC
0C09CC
0C088C
1E1C9E
ENDCHAR
STARTCHAR zcaron
ENCODING -1
SWIDTH 444 0
DWIDTH 11 0
BBX 9 17 1 0
BITMAP
C300
6600
3C00
1800
0000
FF80
C700
8F00
8E00
1E00
1C00
3C00
3800
7880
7180
F180
FF80
ENDCHAR
ENDFONT
