STARTFONT 2.1
FONT -Adobe-Times-Medium-I-Normal--8-80-75-75-P-42-ISO8859-1
SIZE 8 75 75
FONTBOUNDINGBOX 10 10 -1 -2
COMMENT $XConsortium: timI08.bdf,v 1.14 95/01/26 18:06:40 gildea Exp $
COMMENT 
COMMENT +
COMMENT  Copyright 1984-1989, 1994 Adobe Systems Incorporated.
COMMENT  Copyright 1988, 1994 Digital Equipment Corporation.
COMMENT
COMMENT  Adobe is a trademark of Adobe Systems Incorporated which may be
COMMENT  registered in certain jurisdictions.
COMMENT  Permission to use these trademarks is hereby granted only in
COMMENT  association with the images described in this file.
COMMENT
COMMENT  Permission to use, copy, modify, distribute and sell this software
COMMENT  and its documentation for any purpose and without fee is hereby
COMMENT  granted, provided that the above copyright notices appear in all
COMMENT  copies and that both those copyright notices and this permission
COMMENT  notice appear in supporting documentation, and that the names of
COMMENT  Adobe Systems and Digital Equipment Corporation not be used in
COMMENT  advertising or publicity pertaining to distribution of the software
COMMENT  without specific, written prior permission.  Adobe Systems and
COMMENT  Digital Equipment Corporation make no representations about the
COMMENT  suitability of this software for any purpose.  It is provided "as
COMMENT  is" without express or implied warranty.
COMMENT -
STARTPROPERTIES 28
FOUNDRY "Adobe"
FAMILY_NAME "Times"
WEIGHT_NAME "Medium"
SLANT "I"
SETWIDTH_NAME "Normal"
ADD_STYLE_NAME ""
PIXEL_SIZE 8
POINT_SIZE 80
RESOLUTION_X 75
RESOLUTION_Y 75
SPACING "P"
AVERAGE_WIDTH 42
CHARSET_REGISTRY "ISO8859"
CHARSET_ENCODING "1"
CAP_HEIGHT 5
X_HEIGHT 4
FONT_ASCENT 7
FONT_DESCENT 2
FACE_NAME "Times Italic"
COPYRIGHT "Copyright (c) 1984, 1987 Adobe Systems Incorporated. All Rights Reserved. Copyright (c) 1988, 1991 Digital Equipment Corporation. All Rights Reserved."
NOTICE "Times is a trademark of Linotype-Hell AG and/or its subsidiaries."
_DEC_DEVICE_FONTNAMES "PS=Times-Italic"
_DEC_PRODUCTINFO "DECwindows Fonts V2.2, 07-Nov-1991"
DEFAULT_CHAR 32
RELATIVE_SETWIDTH 50
RELATIVE_WEIGHT 50
CHARSET_COLLECTIONS "ASCII ISO8859-1 ADOBE-STANDARD"
FULL_NAME "Times Italic"
ENDPROPERTIES
CHARS 229
STARTCHAR space
ENCODING 32
SWIDTH 250 0
DWIDTH 2 0
BBX 1 1 0 0
BITMAP
00
ENDCHAR
STARTCHAR exclam
ENCODING 33
SWIDTH 333 0
DWIDTH 2 0
BBX 2 5 0 0
BITMAP
40
40
80
00
80
ENDCHAR
STARTCHAR quotedbl
ENCODING 34
SWIDTH 420 0
DWIDTH 3 0
BBX 3 2 0 3
BITMAP
A0
A0
ENDCHAR
STARTCHAR numbersign
ENCODING 35
SWIDTH 500 0
DWIDTH 4 0
BBX 5 5 -1 0
BITMAP
28
F8
50
F8
A0
ENDCHAR
STARTCHAR dollar
ENCODING 36
SWIDTH 500 0
DWIDTH 4 0
BBX 4 6 0 -1
BITMAP
20
70
C0
30
E0
40
ENDCHAR
STARTCHAR percent
ENCODING 37
SWIDTH 833 0
DWIDTH 7 0
BBX 5 5 1 0
BITMAP
C8
D0
20
58
98
ENDCHAR
STARTCHAR ampersand
ENCODING 38
SWIDTH 778 0
DWIDTH 6 0
BBX 5 5 0 0
BITMAP
60
40
B8
90
68
ENDCHAR
STARTCHAR quoteright
ENCODING 39
SWIDTH 333 0
DWIDTH 2 0
BBX 2 4 0 3
BITMAP
40
40
80
80
ENDCHAR
STARTCHAR parenleft
ENCODING 40
SWIDTH 333 0
DWIDTH 2 0
BBX 3 7 -1 -1
BITMAP
20
40
80
80
80
80
40
ENDCHAR
STARTCHAR parenright
ENCODING 41
SWIDTH 333 0
DWIDTH 3 0
BBX 3 7 -1 -1
BITMAP
40
20
20
20
20
40
80
ENDCHAR
STARTCHAR asterisk
ENCODING 42
SWIDTH 500 0
DWIDTH 4 0
BBX 3 3 0 2
BITMAP
A0
40
A0
ENDCHAR
STARTCHAR plus
ENCODING 43
SWIDTH 675 0
DWIDTH 6 0
BBX 4 3 1 1
BITMAP
20
F0
40
ENDCHAR
STARTCHAR comma
ENCODING 44
SWIDTH 250 0
DWIDTH 2 0
BBX 2 3 -1 -2
BITMAP
40
40
80
ENDCHAR
STARTCHAR minus
ENCODING 45
SWIDTH 675 0
DWIDTH 6 0
BBX 4 1 1 2
BITMAP
F0
ENDCHAR
STARTCHAR period
ENCODING 46
SWIDTH 250 0
DWIDTH 2 0
BBX 1 1 0 0
BITMAP
80
ENDCHAR
STARTCHAR slash
ENCODING 47
SWIDTH 278 0
DWIDTH 3 0
BBX 3 7 0 -1
BITMAP
20
20
40
40
40
80
80
ENDCHAR
STARTCHAR zero
ENCODING 48
SWIDTH 500 0
DWIDTH 4 0
BBX 4 5 0 0
BITMAP
20
50
90
A0
40
ENDCHAR
STARTCHAR one
ENCODING 49
SWIDTH 500 0
DWIDTH 4 0
BBX 3 5 0 0
BITMAP
20
E0
40
40
C0
ENDCHAR
STARTCHAR two
ENCODING 50
SWIDTH 500 0
DWIDTH 4 0
BBX 4 5 0 0
BITMAP
60
10
60
80
E0
ENDCHAR
STARTCHAR three
ENCODING 51
SWIDTH 500 0
DWIDTH 4 0
BBX 4 5 0 0
BITMAP
70
10
20
90
60
ENDCHAR
STARTCHAR four
ENCODING 52
SWIDTH 500 0
DWIDTH 4 0
BBX 4 5 0 0
BITMAP
20
60
A0
F0
40
ENDCHAR
STARTCHAR five
ENCODING 53
SWIDTH 500 0
DWIDTH 4 0
BBX 5 5 0 0
BITMAP
38
40
20
90
60
ENDCHAR
STARTCHAR six
ENCODING 54
SWIDTH 500 0
DWIDTH 4 0
BBX 4 5 0 0
BITMAP
30
40
A0
A0
40
ENDCHAR
STARTCHAR seven
ENCODING 55
SWIDTH 500 0
DWIDTH 4 0
BBX 3 5 1 0
BITMAP
E0
20
40
80
80
ENDCHAR
STARTCHAR eight
ENCODING 56
SWIDTH 500 0
DWIDTH 4 0
BBX 4 5 0 0
BITMAP
20
50
60
A0
40
ENDCHAR
STARTCHAR nine
ENCODING 57
SWIDTH 500 0
DWIDTH 4 0
BBX 3 5 1 0
BITMAP
40
A0
A0
40
80
ENDCHAR
STARTCHAR colon
ENCODING 58
SWIDTH 333 0
DWIDTH 2 0
BBX 2 3 0 0
BITMAP
40
00
80
ENDCHAR
STARTCHAR semicolon
ENCODING 59
SWIDTH 333 0
DWIDTH 2 0
BBX 3 5 -1 -2
BITMAP
20
00
40
40
80
ENDCHAR
STARTCHAR less
ENCODING 60
SWIDTH 675 0
DWIDTH 4 0
BBX 3 5 0 0
BITMAP
20
40
80
40
20
ENDCHAR
STARTCHAR equal
ENCODING 61
SWIDTH 675 0
DWIDTH 6 0
BBX 4 3 0 0
BITMAP
F0
00
F0
ENDCHAR
STARTCHAR greater
ENCODING 62
SWIDTH 675 0
DWIDTH 4 0
BBX 3 5 0 0
BITMAP
80
40
20
40
80
ENDCHAR
STARTCHAR question
ENCODING 63
SWIDTH 500 0
DWIDTH 4 0
BBX 3 5 0 0
BITMAP
60
20
40
00
80
ENDCHAR
STARTCHAR at
ENCODING 64
SWIDTH 920 0
DWIDTH 8 0
BBX 7 7 0 -1
BITMAP
3C
42
42
8E
8C
80
78
ENDCHAR
STARTCHAR A
ENCODING 65
SWIDTH 611 0
DWIDTH 6 0
BBX 5 5 0 0
BITMAP
18
28
78
48
C8
ENDCHAR
STARTCHAR B
ENCODING 66
SWIDTH 611 0
DWIDTH 5 0
BBX 5 5 0 0
BITMAP
70
48
B0
90
E0
ENDCHAR
STARTCHAR C
ENCODING 67
SWIDTH 667 0
DWIDTH 6 0
BBX 5 5 0 0
BITMAP
30
48
80
80
70
ENDCHAR
STARTCHAR D
ENCODING 68
SWIDTH 722 0
DWIDTH 6 0
BBX 5 5 0 0
BITMAP
70
28
48
50
E0
ENDCHAR
STARTCHAR E
ENCODING 69
SWIDTH 611 0
DWIDTH 5 0
BBX 5 5 -1 0
BITMAP
78
20
30
40
F0
ENDCHAR
STARTCHAR F
ENCODING 70
SWIDTH 611 0
DWIDTH 5 0
BBX 4 5 0 0
BITMAP
F0
40
60
80
80
ENDCHAR
STARTCHAR G
ENCODING 71
SWIDTH 722 0
DWIDTH 6 0
BBX 5 5 0 0
BITMAP
38
40
98
88
70
ENDCHAR
STARTCHAR H
ENCODING 72
SWIDTH 722 0
DWIDTH 6 0
BBX 5 5 0 0
BITMAP
C8
48
70
90
98
ENDCHAR
STARTCHAR I
ENCODING 73
SWIDTH 333 0
DWIDTH 2 0
BBX 2 5 0 0
BITMAP
C0
40
80
80
80
ENDCHAR
STARTCHAR J
ENCODING 74
SWIDTH 444 0
DWIDTH 3 0
BBX 3 5 0 0
BITMAP
60
20
40
40
80
ENDCHAR
STARTCHAR K
ENCODING 75
SWIDTH 667 0
DWIDTH 6 0
BBX 6 5 -1 0
BITMAP
64
28
70
50
C8
ENDCHAR
STARTCHAR L
ENCODING 76
SWIDTH 556 0
DWIDTH 5 0
BBX 4 5 0 0
BITMAP
60
20
40
40
F0
ENDCHAR
STARTCHAR M
ENCODING 77
SWIDTH 833 0
DWIDTH 8 0
BBX 7 5 0 0
BITMAP
62
26
5A
54
C6
ENDCHAR
STARTCHAR N
ENCODING 78
SWIDTH 667 0
DWIDTH 6 0
BBX 6 5 -1 0
BITMAP
6C
24
54
48
C8
ENDCHAR
STARTCHAR O
ENCODING 79
SWIDTH 722 0
DWIDTH 6 0
BBX 5 5 0 0
BITMAP
30
48
88
90
60
ENDCHAR
STARTCHAR P
ENCODING 80
SWIDTH 611 0
DWIDTH 5 0
BBX 5 5 -1 0
BITMAP
70
28
70
40
C0
ENDCHAR
STARTCHAR Q
ENCODING 81
SWIDTH 722 0
DWIDTH 6 0
BBX 5 6 0 -1
BITMAP
30
48
88
90
60
30
ENDCHAR
STARTCHAR R
ENCODING 82
SWIDTH 611 0
DWIDTH 5 0
BBX 5 5 -1 0
BITMAP
70
28
70
50
C8
ENDCHAR
STARTCHAR S
ENCODING 83
SWIDTH 500 0
DWIDTH 4 0
BBX 4 5 -1 0
BITMAP
30
40
20
20
C0
ENDCHAR
STARTCHAR T
ENCODING 84
SWIDTH 556 0
DWIDTH 5 0
BBX 5 5 0 0
BITMAP
F8
20
20
40
C0
ENDCHAR
STARTCHAR U
ENCODING 85
SWIDTH 722 0
DWIDTH 6 0
BBX 5 5 0 0
BITMAP
C8
48
90
90
60
ENDCHAR
STARTCHAR V
ENCODING 86
SWIDTH 611 0
DWIDTH 5 0
BBX 5 5 0 0
BITMAP
D8
50
60
40
40
ENDCHAR
STARTCHAR W
ENCODING 87
SWIDTH 833 0
DWIDTH 7 0
BBX 7 5 0 0
BITMAP
D6
54
58
70
50
ENDCHAR
STARTCHAR X
ENCODING 88
SWIDTH 611 0
DWIDTH 5 0
BBX 6 5 -1 0
BITMAP
6C
30
30
50
D8
ENDCHAR
STARTCHAR Y
ENCODING 89
SWIDTH 556 0
DWIDTH 5 0
BBX 5 5 0 0
BITMAP
C8
50
60
40
C0
ENDCHAR
STARTCHAR Z
ENCODING 90
SWIDTH 556 0
DWIDTH 5 0
BBX 4 5 0 0
BITMAP
70
10
20
40
E0
ENDCHAR
STARTCHAR bracketleft
ENCODING 91
SWIDTH 389 0
DWIDTH 3 0
BBX 3 7 0 -1
BITMAP
60
40
40
40
80
80
C0
ENDCHAR
STARTCHAR backslash
ENCODING 92
SWIDTH 278 0
DWIDTH 4 0
BBX 3 7 0 -1
BITMAP
80
80
40
40
40
20
20
ENDCHAR
STARTCHAR bracketright
ENCODING 93
SWIDTH 389 0
DWIDTH 3 0
BBX 3 7 -1 -1
BITMAP
60
20
20
40
40
40
C0
ENDCHAR
STARTCHAR asciicircum
ENCODING 94
SWIDTH 422 0
DWIDTH 4 0
BBX 4 2 0 2
BITMAP
60
90
ENDCHAR
STARTCHAR underscore
ENCODING 95
SWIDTH 500 0
DWIDTH 4 0
BBX 4 1 -1 -2
BITMAP
F0
ENDCHAR
STARTCHAR quoteleft
ENCODING 96
SWIDTH 333 0
DWIDTH 2 0
BBX 2 3 1 4
BITMAP
40
80
80
ENDCHAR
STARTCHAR a
ENCODING 97
SWIDTH 500 0
DWIDTH 4 0
BBX 3 4 0 0
BITMAP
40
20
E0
C0
ENDCHAR
STARTCHAR b
ENCODING 98
SWIDTH 500 0
DWIDTH 4 0
BBX 3 6 0 0
BITMAP
40
40
60
A0
A0
C0
ENDCHAR
STARTCHAR c
ENCODING 99
SWIDTH 444 0
DWIDTH 4 0
BBX 3 4 0 0
BITMAP
60
80
80
C0
ENDCHAR
STARTCHAR d
ENCODING 100
SWIDTH 500 0
DWIDTH 4 0
BBX 4 6 0 0
BITMAP
10
10
60
A0
A0
C0
ENDCHAR
STARTCHAR e
ENCODING 101
SWIDTH 444 0
DWIDTH 4 0
BBX 3 4 0 0
BITMAP
60
E0
80
C0
ENDCHAR
STARTCHAR f
ENCODING 102
SWIDTH 278 0
DWIDTH 2 0
BBX 4 7 -1 -1
BITMAP
30
40
E0
40
80
80
80
ENDCHAR
STARTCHAR g
ENCODING 103
SWIDTH 500 0
DWIDTH 3 0
BBX 4 6 -1 -2
BITMAP
30
50
60
A0
A0
40
ENDCHAR
STARTCHAR h
ENCODING 104
SWIDTH 500 0
DWIDTH 4 0
BBX 4 6 0 0
BITMAP
20
40
60
50
A0
A0
ENDCHAR
STARTCHAR i
ENCODING 105
SWIDTH 278 0
DWIDTH 2 0
BBX 2 6 0 0
BITMAP
40
00
40
40
80
80
ENDCHAR
STARTCHAR j
ENCODING 106
SWIDTH 278 0
DWIDTH 2 0
BBX 2 8 0 -2
BITMAP
40
00
40
40
40
80
80
80
ENDCHAR
STARTCHAR k
ENCODING 107
SWIDTH 444 0
DWIDTH 4 0
BBX 4 6 0 0
BITMAP
40
40
50
60
A0
90
ENDCHAR
STARTCHAR l
ENCODING 108
SWIDTH 278 0
DWIDTH 2 0
BBX 2 6 0 0
BITMAP
40
40
40
80
80
80
ENDCHAR
STARTCHAR m
ENCODING 109
SWIDTH 722 0
DWIDTH 6 0
BBX 6 4 0 0
BITMAP
78
54
A8
A8
ENDCHAR
STARTCHAR n
ENCODING 110
SWIDTH 500 0
DWIDTH 4 0
BBX 4 4 0 0
BITMAP
E0
50
A0
A0
ENDCHAR
STARTCHAR o
ENCODING 111
SWIDTH 500 0
DWIDTH 4 0
BBX 3 4 0 0
BITMAP
60
A0
A0
C0
ENDCHAR
STARTCHAR p
ENCODING 112
SWIDTH 500 0
DWIDTH 4 0
BBX 4 6 -1 -2
BITMAP
70
50
50
60
80
80
ENDCHAR
STARTCHAR q
ENCODING 113
SWIDTH 500 0
DWIDTH 4 0
BBX 3 6 0 -2
BITMAP
60
A0
A0
E0
40
40
ENDCHAR
STARTCHAR r
ENCODING 114
SWIDTH 389 0
DWIDTH 4 0
BBX 4 4 0 0
BITMAP
B0
40
80
80
ENDCHAR
STARTCHAR s
ENCODING 115
SWIDTH 389 0
DWIDTH 3 0
BBX 3 4 0 0
BITMAP
60
C0
20
C0
ENDCHAR
STARTCHAR t
ENCODING 116
SWIDTH 278 0
DWIDTH 2 0
BBX 3 5 0 0
BITMAP
40
E0
40
80
C0
ENDCHAR
STARTCHAR u
ENCODING 117
SWIDTH 500 0
DWIDTH 4 0
BBX 4 4 0 0
BITMAP
50
50
A0
50
ENDCHAR
STARTCHAR v
ENCODING 118
SWIDTH 444 0
DWIDTH 4 0
BBX 4 4 0 0
BITMAP
D0
50
60
40
ENDCHAR
STARTCHAR w
ENCODING 119
SWIDTH 667 0
DWIDTH 6 0
BBX 6 4 0 0
BITMAP
C4
48
68
50
ENDCHAR
STARTCHAR x
ENCODING 120
SWIDTH 444 0
DWIDTH 3 0
BBX 4 4 -1 0
BITMAP
B0
40
40
A0
ENDCHAR
STARTCHAR y
ENCODING 121
SWIDTH 444 0
DWIDTH 4 0
BBX 4 6 0 -2
BITMAP
90
A0
C0
40
80
80
ENDCHAR
STARTCHAR z
ENCODING 122
SWIDTH 389 0
DWIDTH 3 0
BBX 3 4 0 0
BITMAP
E0
40
80
E0
ENDCHAR
STARTCHAR braceleft
ENCODING 123
SWIDTH 400 0
DWIDTH 3 0
BBX 4 7 -1 -1
BITMAP
30
20
20
C0
40
40
60
ENDCHAR
STARTCHAR bar
ENCODING 124
SWIDTH 275 0
DWIDTH 2 0
BBX 2 7 0 -1
BITMAP
40
40
40
80
80
80
80
ENDCHAR
STARTCHAR braceright
ENCODING 125
SWIDTH 400 0
DWIDTH 3 0
BBX 4 7 -1 -1
BITMAP
60
20
20
30
40
40
C0
ENDCHAR
STARTCHAR asciitilde
ENCODING 126
SWIDTH 541 0
DWIDTH 5 0
BBX 5 2 0 2
BITMAP
48
B0
ENDCHAR
STARTCHAR space
ENCODING 160
SWIDTH 250 0
DWIDTH 2 0
BBX 1 1 0 0
BITMAP
00
ENDCHAR
STARTCHAR exclamdown
ENCODING 161
SWIDTH 389 0
DWIDTH 3 0
BBX 3 6 -1 -1
BITMAP
20
00
40
40
80
80
ENDCHAR
STARTCHAR cent
ENCODING 162
SWIDTH 500 0
DWIDTH 4 0
BBX 3 6 0 -1
BITMAP
20
60
80
A0
40
40
ENDCHAR
STARTCHAR sterling
ENCODING 163
SWIDTH 500 0
DWIDTH 4 0
BBX 4 5 -1 0
BITMAP
30
40
E0
40
F0
ENDCHAR
STARTCHAR currency
ENCODING 164
SWIDTH 500 0
DWIDTH 4 0
BBX 4 5 -1 0
BITMAP
90
60
60
60
90
ENDCHAR
STARTCHAR yen
ENCODING 165
SWIDTH 500 0
DWIDTH 5 0
BBX 5 5 0 0
BITMAP
48
50
F8
40
40
ENDCHAR
STARTCHAR brokenbar
ENCODING 166
SWIDTH 275 0
DWIDTH 2 0
BBX 2 7 0 -1
BITMAP
40
40
40
00
80
80
80
ENDCHAR
STARTCHAR section
ENCODING 167
SWIDTH 500 0
DWIDTH 4 0
BBX 5 7 -1 -1
BITMAP
30
48
60
50
30
90
60
ENDCHAR
STARTCHAR dieresis
ENCODING 168
SWIDTH 333 0
DWIDTH 2 0
BBX 3 1 0 5
BITMAP
A0
ENDCHAR
STARTCHAR copyright
ENCODING 169
SWIDTH 760 0
DWIDTH 7 0
BBX 6 7 0 -1
BITMAP
78
84
94
A4
94
84
78
ENDCHAR
STARTCHAR ordfeminine
ENCODING 170
SWIDTH 276 0
DWIDTH 3 0
BBX 3 5 0 1
BITMAP
40
20
C0
00
C0
ENDCHAR
STARTCHAR guillemotleft
ENCODING 171
SWIDTH 500 0
DWIDTH 4 0
BBX 4 3 0 1
BITMAP
50
A0
50
ENDCHAR
STARTCHAR logicalnot
ENCODING 172
SWIDTH 675 0
DWIDTH 6 0
BBX 4 3 1 1
BITMAP
F0
10
10
ENDCHAR
STARTCHAR hyphen
ENCODING 173
SWIDTH 333 0
DWIDTH 3 0
BBX 2 1 0 2
BITMAP
C0
ENDCHAR
STARTCHAR registered
ENCODING 174
SWIDTH 760 0
DWIDTH 7 0
BBX 7 7 0 -1
BITMAP
7C
B2
AA
B2
AA
82
7C
ENDCHAR
STARTCHAR macron
ENCODING 175
SWIDTH 333 0
DWIDTH 2 0
BBX 2 1 0 5
BITMAP
C0
ENDCHAR
STARTCHAR degree
ENCODING 176
SWIDTH 400 0
DWIDTH 3 0
BBX 3 3 0 2
BITMAP
40
A0
40
ENDCHAR
STARTCHAR plusminus
ENCODING 177
SWIDTH 675 0
DWIDTH 6 0
BBX 4 5 1 0
BITMAP
20
F0
40
00
F0
ENDCHAR
STARTCHAR twosuperior
ENCODING 178
SWIDTH 300 0
DWIDTH 2 0
BBX 3 4 0 2
BITMAP
C0
20
40
E0
ENDCHAR
STARTCHAR threesuperior
ENCODING 179
SWIDTH 300 0
DWIDTH 2 0
BBX 3 4 0 2
BITMAP
60
60
20
C0
ENDCHAR
STARTCHAR acute
ENCODING 180
SWIDTH 333 0
DWIDTH 2 0
BBX 2 2 0 5
BITMAP
40
80
ENDCHAR
STARTCHAR mu
ENCODING 181
SWIDTH 500 0
DWIDTH 4 0
BBX 5 6 -1 -2
BITMAP
50
50
50
68
80
80
ENDCHAR
STARTCHAR paragraph
ENCODING 182
SWIDTH 523 0
DWIDTH 5 0
BBX 5 7 0 -1
BITMAP
78
E8
E8
28
50
50
50
ENDCHAR
STARTCHAR periodcentered
ENCODING 183
SWIDTH 250 0
DWIDTH 2 0
BBX 1 1 0 2
BITMAP
80
ENDCHAR
STARTCHAR cedilla
ENCODING 184
SWIDTH 333 0
DWIDTH 2 0
BBX 2 2 -1 -2
BITMAP
40
80
ENDCHAR
STARTCHAR onesuperior
ENCODING 185
SWIDTH 300 0
DWIDTH 2 0
BBX 2 4 0 2
BITMAP
40
C0
80
80
ENDCHAR
STARTCHAR ordmasculine
ENCODING 186
SWIDTH 310 0
DWIDTH 2 0
BBX 3 5 1 1
BITMAP
60
A0
40
00
C0
ENDCHAR
STARTCHAR guillemotright
ENCODING 187
SWIDTH 500 0
DWIDTH 4 0
BBX 4 3 0 1
BITMAP
A0
50
A0
ENDCHAR
STARTCHAR onequarter
ENCODING 188
SWIDTH 750 0
DWIDTH 6 0
BBX 6 7 0 -1
BITMAP
44
C8
90
A4
4C
9C
08
ENDCHAR
STARTCHAR onehalf
ENCODING 189
SWIDTH 750 0
DWIDTH 6 0
BBX 6 7 0 -1
BITMAP
44
C8
90
AC
44
88
1C
ENDCHAR
STARTCHAR threequarters
ENCODING 190
SWIDTH 750 0
DWIDTH 6 0
BBX 6 7 0 -1
BITMAP
60
64
28
D4
2C
5C
08
ENDCHAR
STARTCHAR questiondown
ENCODING 191
SWIDTH 500 0
DWIDTH 4 0
BBX 3 6 -1 -1
BITMAP
20
00
40
40
80
60
ENDCHAR
STARTCHAR Agrave
ENCODING 192
SWIDTH 611 0
DWIDTH 6 0
BBX 5 8 0 0
BITMAP
10
08
00
18
28
78
48
C8
ENDCHAR
STARTCHAR Aacute
ENCODING 193
SWIDTH 611 0
DWIDTH 6 0
BBX 5 8 0 0
BITMAP
08
10
00
18
28
78
48
C8
ENDCHAR
STARTCHAR Acircumflex
ENCODING 194
SWIDTH 611 0
DWIDTH 6 0
BBX 6 8 0 0
BITMAP
0C
14
00
18
28
78
48
C8
ENDCHAR
STARTCHAR Atilde
ENCODING 195
SWIDTH 611 0
DWIDTH 6 0
BBX 7 8 0 0
BITMAP
1A
2C
00
18
28
78
48
C8
ENDCHAR
STARTCHAR Adieresis
ENCODING 196
SWIDTH 611 0
DWIDTH 6 0
BBX 6 7 0 0
BITMAP
14
00
18
28
78
48
C8
ENDCHAR
STARTCHAR Aring
ENCODING 197
SWIDTH 611 0
DWIDTH 6 0
BBX 6 8 0 0
BITMAP
08
14
08
18
28
78
48
C8
ENDCHAR
STARTCHAR AE
ENCODING 198
SWIDTH 889 0
DWIDTH 6 0
BBX 6 5 -1 0
BITMAP
3C
50
F8
A0
B8
ENDCHAR
STARTCHAR Ccedilla
ENCODING 199
SWIDTH 667 0
DWIDTH 6 0
BBX 5 7 0 -2
BITMAP
30
48
80
80
70
40
80
ENDCHAR
STARTCHAR Egrave
ENCODING 200
SWIDTH 611 0
DWIDTH 5 0
BBX 5 8 -1 0
BITMAP
20
10
00
78
20
30
40
F0
ENDCHAR
STARTCHAR Eacute
ENCODING 201
SWIDTH 611 0
DWIDTH 5 0
BBX 5 8 -1 0
BITMAP
10
20
00
78
20
30
40
F0
ENDCHAR
STARTCHAR Ecircumflex
ENCODING 202
SWIDTH 611 0
DWIDTH 5 0
BBX 5 8 -1 0
BITMAP
18
28
00
78
20
30
40
F0
ENDCHAR
STARTCHAR Edieresis
ENCODING 203
SWIDTH 611 0
DWIDTH 5 0
BBX 5 8 -1 0
BITMAP
28
00
00
78
20
30
40
F0
ENDCHAR
STARTCHAR Igrave
ENCODING 204
SWIDTH 333 0
DWIDTH 2 0
BBX 2 8 0 0
BITMAP
80
40
00
C0
40
80
80
80
ENDCHAR
STARTCHAR Iacute
ENCODING 205
SWIDTH 333 0
DWIDTH 2 0
BBX 2 8 0 0
BITMAP
40
80
00
C0
40
80
80
80
ENDCHAR
STARTCHAR Icircumflex
ENCODING 206
SWIDTH 333 0
DWIDTH 2 0
BBX 3 8 0 0
BITMAP
60
A0
00
C0
40
80
80
80
ENDCHAR
STARTCHAR Idieresis
ENCODING 207
SWIDTH 333 0
DWIDTH 2 0
BBX 3 7 0 0
BITMAP
A0
00
C0
40
80
80
80
ENDCHAR
STARTCHAR Eth
ENCODING 208
SWIDTH 722 0
DWIDTH 6 0
BBX 5 5 0 0
BITMAP
70
28
E8
50
E0
ENDCHAR
STARTCHAR Ntilde
ENCODING 209
SWIDTH 667 0
DWIDTH 6 0
BBX 7 8 -1 0
BITMAP
1A
2C
00
6C
24
54
48
C8
ENDCHAR
STARTCHAR Ograve
ENCODING 210
SWIDTH 722 0
DWIDTH 6 0
BBX 5 8 0 0
BITMAP
20
10
00
30
48
88
90
60
ENDCHAR
STARTCHAR Oacute
ENCODING 211
SWIDTH 722 0
DWIDTH 6 0
BBX 5 8 0 0
BITMAP
08
10
00
30
48
88
90
60
ENDCHAR
STARTCHAR Ocircumflex
ENCODING 212
SWIDTH 722 0
DWIDTH 6 0
BBX 5 8 0 0
BITMAP
18
28
00
30
48
88
90
60
ENDCHAR
STARTCHAR Otilde
ENCODING 213
SWIDTH 722 0
DWIDTH 6 0
BBX 6 8 0 0
BITMAP
34
58
00
30
48
88
90
60
ENDCHAR
STARTCHAR Odieresis
ENCODING 214
SWIDTH 722 0
DWIDTH 6 0
BBX 6 7 0 0
BITMAP
24
00
30
48
88
90
60
ENDCHAR
STARTCHAR multiply
ENCODING 215
SWIDTH 675 0
DWIDTH 6 0
BBX 5 5 0 0
BITMAP
88
50
20
50
88
ENDCHAR
STARTCHAR Oslash
ENCODING 216
SWIDTH 722 0
DWIDTH 6 0
BBX 6 7 0 -1
BITMAP
04
38
48
88
90
60
80
ENDCHAR
STARTCHAR Ugrave
ENCODING 217
SWIDTH 722 0
DWIDTH 6 0
BBX 5 8 0 0
BITMAP
20
10
00
C8
48
90
90
60
ENDCHAR
STARTCHAR Uacute
ENCODING 218
SWIDTH 722 0
DWIDTH 6 0
BBX 5 8 0 0
BITMAP
08
10
00
C8
48
90
90
60
ENDCHAR
STARTCHAR Ucircumflex
ENCODING 219
SWIDTH 722 0
DWIDTH 6 0
BBX 5 8 0 0
BITMAP
18
28
00
C8
48
90
90
60
ENDCHAR
STARTCHAR Udieresis
ENCODING 220
SWIDTH 722 0
DWIDTH 6 0
BBX 5 7 0 0
BITMAP
28
00
C8
48
90
90
60
ENDCHAR
STARTCHAR Yacute
ENCODING 221
SWIDTH 556 0
DWIDTH 5 0
BBX 5 8 0 0
BITMAP
08
10
00
68
50
60
40
C0
ENDCHAR
STARTCHAR Thorn
ENCODING 222
SWIDTH 611 0
DWIDTH 5 0
BBX 5 5 -1 0
BITMAP
60
38
28
70
C0
ENDCHAR
STARTCHAR germandbls
ENCODING 223
SWIDTH 500 0
DWIDTH 5 0
BBX 4 7 0 -2
BITMAP
60
50
60
90
B0
80
80
ENDCHAR
STARTCHAR agrave
ENCODING 224
SWIDTH 500 0
DWIDTH 4 0
BBX 3 7 0 0
BITMAP
40
20
00
40
20
E0
C0
ENDCHAR
STARTCHAR aacute
ENCODING 225
SWIDTH 500 0
DWIDTH 4 0
BBX 3 7 0 0
BITMAP
20
40
00
40
20
E0
C0
ENDCHAR
STARTCHAR acircumflex
ENCODING 226
SWIDTH 500 0
DWIDTH 4 0
BBX 3 7 0 0
BITMAP
60
A0
00
40
20
E0
C0
ENDCHAR
STARTCHAR atilde
ENCODING 227
SWIDTH 500 0
DWIDTH 4 0
BBX 4 7 0 0
BITMAP
50
A0
00
40
20
E0
C0
ENDCHAR
STARTCHAR adieresis
ENCODING 228
SWIDTH 500 0
DWIDTH 4 0
BBX 3 6 0 0
BITMAP
A0
00
40
20
E0
C0
ENDCHAR
STARTCHAR aring
ENCODING 229
SWIDTH 500 0
DWIDTH 4 0
BBX 3 7 0 0
BITMAP
40
A0
40
40
20
E0
C0
ENDCHAR
STARTCHAR ae
ENCODING 230
SWIDTH 667 0
DWIDTH 6 0
BBX 6 4 0 0
BITMAP
48
3C
F0
C8
ENDCHAR
STARTCHAR ccedilla
ENCODING 231
SWIDTH 444 0
DWIDTH 4 0
BBX 3 6 0 -2
BITMAP
60
80
80
C0
40
80
ENDCHAR
STARTCHAR egrave
ENCODING 232
SWIDTH 444 0
DWIDTH 4 0
BBX 3 7 0 0
BITMAP
40
20
00
60
E0
80
C0
ENDCHAR
STARTCHAR eacute
ENCODING 233
SWIDTH 444 0
DWIDTH 4 0
BBX 4 7 0 0
BITMAP
10
20
00
60
E0
80
C0
ENDCHAR
STARTCHAR ecircumflex
ENCODING 234
SWIDTH 444 0
DWIDTH 4 0
BBX 4 7 0 0
BITMAP
30
50
00
60
E0
80
C0
ENDCHAR
STARTCHAR edieresis
ENCODING 235
SWIDTH 444 0
DWIDTH 4 0
BBX 3 6 0 0
BITMAP
A0
00
60
E0
80
C0
ENDCHAR
STARTCHAR igrave
ENCODING 236
SWIDTH 278 0
DWIDTH 2 0
BBX 2 7 0 0
BITMAP
80
40
00
40
40
80
80
ENDCHAR
STARTCHAR iacute
ENCODING 237
SWIDTH 278 0
DWIDTH 2 0
BBX 3 7 0 0
BITMAP
20
40
00
40
40
80
80
ENDCHAR
STARTCHAR icircumflex
ENCODING 238
SWIDTH 278 0
DWIDTH 2 0
BBX 3 7 0 0
BITMAP
60
A0
00
40
40
80
80
ENDCHAR
STARTCHAR idieresis
ENCODING 239
SWIDTH 278 0
DWIDTH 2 0
BBX 3 6 0 0
BITMAP
A0
00
40
40
80
80
ENDCHAR
STARTCHAR eth
ENCODING 240
SWIDTH 500 0
DWIDTH 4 0
BBX 5 7 0 0
BITMAP
28
30
50
10
60
A0
C0
ENDCHAR
STARTCHAR ntilde
ENCODING 241
SWIDTH 500 0
DWIDTH 4 0
BBX 4 7 0 0
BITMAP
50
A0
00
E0
50
A0
A0
ENDCHAR
STARTCHAR ograve
ENCODING 242
SWIDTH 500 0
DWIDTH 4 0
BBX 3 7 0 0
BITMAP
40
20
00
60
A0
A0
C0
ENDCHAR
STARTCHAR oacute
ENCODING 243
SWIDTH 500 0
DWIDTH 4 0
BBX 4 7 0 0
BITMAP
10
20
00
60
A0
A0
C0
ENDCHAR
STARTCHAR ocircumflex
ENCODING 244
SWIDTH 500 0
DWIDTH 4 0
BBX 4 7 0 0
BITMAP
30
50
00
60
A0
A0
C0
ENDCHAR
STARTCHAR otilde
ENCODING 245
SWIDTH 500 0
DWIDTH 4 0
BBX 4 7 0 0
BITMAP
50
A0
00
60
A0
A0
C0
ENDCHAR
STARTCHAR odieresis
ENCODING 246
SWIDTH 500 0
DWIDTH 4 0
BBX 3 6 0 0
BITMAP
A0
00
60
A0
A0
C0
ENDCHAR
STARTCHAR divide
ENCODING 247
SWIDTH 675 0
DWIDTH 6 0
BBX 4 5 1 0
BITMAP
20
00
F0
00
40
ENDCHAR
STARTCHAR oslash
ENCODING 248
SWIDTH 500 0
DWIDTH 4 0
BBX 4 6 0 -1
BITMAP
10
60
A0
A0
C0
80
ENDCHAR
STARTCHAR ugrave
ENCODING 249
SWIDTH 500 0
DWIDTH 4 0
BBX 4 7 0 0
BITMAP
40
20
00
50
50
A0
50
ENDCHAR
STARTCHAR uacute
ENCODING 250
SWIDTH 500 0
DWIDTH 4 0
BBX 5 7 0 0
BITMAP
08
10
00
50
50
A0
50
ENDCHAR
STARTCHAR ucircumflex
ENCODING 251
SWIDTH 500 0
DWIDTH 4 0
BBX 4 7 0 0
BITMAP
30
50
00
50
50
A0
50
ENDCHAR
STARTCHAR udieresis
ENCODING 252
SWIDTH 500 0
DWIDTH 4 0
BBX 5 6 0 0
BITMAP
28
00
50
50
A0
50
ENDCHAR
STARTCHAR yacute
ENCODING 253
SWIDTH 444 0
DWIDTH 4 0
BBX 4 9 0 -2
BITMAP
10
20
00
90
A0
C0
40
80
80
ENDCHAR
STARTCHAR thorn
ENCODING 254
SWIDTH 500 0
DWIDTH 4 0
BBX 4 7 -1 -2
BITMAP
40
60
50
50
E0
80
80
ENDCHAR
STARTCHAR ydieresis
ENCODING 255
SWIDTH 444 0
DWIDTH 4 0
BBX 4 8 0 -2
BITMAP
50
00
90
A0
C0
40
80
80
ENDCHAR
STARTCHAR Lslash
ENCODING -1
SWIDTH 556 0
DWIDTH 6 0
BBX 5 5 -1 0
BITMAP
70
20
F0
40
F8
ENDCHAR
STARTCHAR OE
ENCODING -1
SWIDTH 944 0
DWIDTH 10 0
BBX 9 5 0 0
BITMAP
3F80
4400
8F00
8800
7F00
ENDCHAR
STARTCHAR Scaron
ENCODING -1
SWIDTH 500 0
DWIDTH 5 0
BBX 5 8 0 0
BITMAP
28
10
00
30
40
30
10
E0
ENDCHAR
STARTCHAR Ydieresis
ENCODING -1
SWIDTH 556 0
DWIDTH 6 0
BBX 5 7 0 0
BITMAP
28
00
C8
50
60
40
E0
ENDCHAR
STARTCHAR Zcaron
ENCODING -1
SWIDTH 556 0
DWIDTH 6 0
BBX 5 8 0 0
BITMAP
28
10
00
78
10
20
40
F0
ENDCHAR
STARTCHAR breve
ENCODING -1
SWIDTH 333 0
DWIDTH 3 0
BBX 3 2 1 5
BITMAP
A0
E0
ENDCHAR
STARTCHAR bullet
ENCODING -1
SWIDTH 350 0
DWIDTH 5 0
BBX 3 3 1 1
BITMAP
60
E0
C0
ENDCHAR
STARTCHAR caron
ENCODING -1
SWIDTH 333 0
DWIDTH 3 0
BBX 3 2 1 5
BITMAP
A0
40
ENDCHAR
STARTCHAR circumflex
ENCODING -1
SWIDTH 333 0
DWIDTH 3 0
BBX 3 2 1 5
BITMAP
40
A0
ENDCHAR
STARTCHAR dagger
ENCODING -1
SWIDTH 500 0
DWIDTH 5 0
BBX 3 6 1 -1
BITMAP
40
E0
40
80
80
80
ENDCHAR
STARTCHAR daggerdbl
ENCODING -1
SWIDTH 500 0
DWIDTH 5 0
BBX 4 6 0 -1
BITMAP
20
70
20
40
E0
40
ENDCHAR
STARTCHAR dotaccent
ENCODING -1
SWIDTH 333 0
DWIDTH 3 0
BBX 1 1 1 5
BITMAP
80
ENDCHAR
STARTCHAR dotlessi
ENCODING -1
SWIDTH 278 0
DWIDTH 3 0
BBX 2 4 0 0
BITMAP
40
40
80
80
ENDCHAR
STARTCHAR ellipsis
ENCODING -1
SWIDTH 889 0
DWIDTH 9 0
BBX 7 1 1 0
BITMAP
92
ENDCHAR
STARTCHAR emdash
ENCODING -1
SWIDTH 889 0
DWIDTH 9 0
BBX 9 1 0 2
BITMAP
FF80
ENDCHAR
STARTCHAR endash
ENCODING -1
SWIDTH 500 0
DWIDTH 5 0
BBX 5 1 0 2
BITMAP
F8
ENDCHAR
STARTCHAR fi
ENCODING -1
SWIDTH 500 0
DWIDTH 5 0
BBX 4 7 0 -1
BITMAP
30
40
F0
50
A0
B0
80
ENDCHAR
STARTCHAR fl
ENCODING -1
SWIDTH 500 0
DWIDTH 5 0
BBX 5 7 0 -1
BITMAP
38
48
F0
50
A0
B0
80
ENDCHAR
STARTCHAR florin
ENCODING -1
SWIDTH 500 0
DWIDTH 5 0
BBX 5 7 -1 -2
BITMAP
18
10
78
20
20
A0
C0
ENDCHAR
STARTCHAR fraction
ENCODING -1
SWIDTH 167 0
DWIDTH 3 0
BBX 3 5 0 0
BITMAP
20
20
40
80
80
ENDCHAR
STARTCHAR grave
ENCODING -1
SWIDTH 333 0
DWIDTH 3 0
BBX 2 2 1 5
BITMAP
80
40
ENDCHAR
STARTCHAR guilsinglleft
ENCODING -1
SWIDTH 333 0
DWIDTH 3 0
BBX 2 3 0 1
BITMAP
40
80
40
ENDCHAR
STARTCHAR guilsinglright
ENCODING -1
SWIDTH 333 0
DWIDTH 4 0
BBX 2 3 1 1
BITMAP
80
40
80
ENDCHAR
STARTCHAR hungarumlaut
ENCODING -1
SWIDTH 333 0
DWIDTH 3 0
BBX 5 2 0 5
BITMAP
48
90
ENDCHAR
STARTCHAR lslash
ENCODING -1
SWIDTH 278 0
DWIDTH 3 0
BBX 4 6 -1 0
BITMAP
20
20
30
C0
40
40
ENDCHAR
STARTCHAR oe
ENCODING -1
SWIDTH 667 0
DWIDTH 7 0
BBX 6 4 0 0
BITMAP
7C
BC
B0
D8
ENDCHAR
STARTCHAR ogonek
ENCODING -1
SWIDTH 333 0
DWIDTH 3 0
BBX 2 2 0 -2
BITMAP
80
C0
ENDCHAR
STARTCHAR perthousand
ENCODING -1
SWIDTH 1000 0
DWIDTH 10 0
BBX 9 5 0 0
BITMAP
F800
D000
2000
4D80
4D80
ENDCHAR
STARTCHAR quotedblbase
ENCODING -1
SWIDTH 556 0
DWIDTH 6 0
BBX 4 3 0 -2
BITMAP
50
50
A0
ENDCHAR
STARTCHAR quotedblleft
ENCODING -1
SWIDTH 556 0
DWIDTH 6 0
BBX 4 3 2 2
BITMAP
50
A0
A0
ENDCHAR
STARTCHAR quotedblright
ENCODING -1
SWIDTH 556 0
DWIDTH 6 0
BBX 4 3 0 2
BITMAP
50
50
A0
ENDCHAR
STARTCHAR quotesinglbase
ENCODING -1
SWIDTH 333 0
DWIDTH 3 0
BBX 2 3 -1 -2
BITMAP
40
40
80
ENDCHAR
STARTCHAR quotesingle
ENCODING -1
SWIDTH 214 0
DWIDTH 3 0
BBX 1 3 1 2
BITMAP
80
80
80
ENDCHAR
STARTCHAR ring
ENCODING -1
SWIDTH 333 0
DWIDTH 3 0
BBX 3 3 2 4
BITMAP
40
A0
40
ENDCHAR
STARTCHAR scaron
ENCODING -1
SWIDTH 389 0
DWIDTH 4 0
BBX 3 7 0 0
BITMAP
A0
40
00
60
C0
20
C0
ENDCHAR
STARTCHAR tilde
ENCODING -1
SWIDTH 333 0
DWIDTH 4 0
BBX 4 2 1 5
BITMAP
50
A0
ENDCHAR
STARTCHAR trademark
ENCODING -1
SWIDTH 980 0
DWIDTH 11 0
BBX 9 3 0 2
BITMAP
ED80
4A80
4A80
ENDCHAR
STARTCHAR zcaron
ENCODING -1
SWIDTH 389 0
DWIDTH 4 0
BBX 4 7 0 0
BITMAP
50
20
00
70
20
40
E0
ENDCHAR
ENDFONT
