STARTFONT 2.1
FONT -Adobe-Times-Bold-R-Normal--17-120-100-100-P-88-ISO8859-1
SIZE 12 100 100
FONTBOUNDINGBOX 19 20 -2 -4
COMMENT $XConsortium: timB12.bdf,v 1.7 95/01/26 17:58:07 gildea Exp $
COMMENT 
COMMENT +
COMMENT  Copyright 1984-1989, 1994 Adobe Systems Incorporated.
COMMENT  Copyright 1988, 1994 Digital Equipment Corporation.
COMMENT
COMMENT  Adobe is a trademark of Adobe Systems Incorporated which may be
COMMENT  registered in certain jurisdictions.
COMMENT  Permission to use these trademarks is hereby granted only in
COMMENT  association with the images described in this file.
COMMENT
COMMENT  Permission to use, copy, modify, distribute and sell this software
COMMENT  and its documentation for any purpose and without fee is hereby
COMMENT  granted, provided that the above copyright notices appear in all
COMMENT  copies and that both those copyright notices and this permission
COMMENT  notice appear in supporting documentation, and that the names of
COMMENT  Adobe Systems and Digital Equipment Corporation not be used in
COMMENT  advertising or publicity pertaining to distribution of the software
COMMENT  without specific, written prior permission.  Adobe Systems and
COMMENT  Digital Equipment Corporation make no representations about the
COMMENT  suitability of this software for any purpose.  It is provided "as
COMMENT  is" without express or implied warranty.
COMMENT -
STARTPROPERTIES 28
FOUNDRY "Adobe"
FAMILY_NAME "Times"
WEIGHT_NAME "Bold"
SLANT "R"
SETWIDTH_NAME "Normal"
ADD_STYLE_NAME ""
PIXEL_SIZE 17
POINT_SIZE 120
RESOLUTION_X 100
RESOLUTION_Y 100
SPACING "P"
AVERAGE_WIDTH 88
CHARSET_REGISTRY "ISO8859"
CHARSET_ENCODING "1"
CAP_HEIGHT 11
X_HEIGHT 8
FONT_ASCENT 14
FONT_DESCENT 4
FACE_NAME "Times Bold"
COPYRIGHT "Copyright (c) 1984, 1987 Adobe Systems Incorporated. All Rights Reserved. Copyright (c) 1988, 1991 Digital Equipment Corporation. All Rights Reserved."
NOTICE "Times is a trademark of Linotype-Hell AG and/or its subsidiaries."
_DEC_DEVICE_FONTNAMES "PS=Times-Bold"
_DEC_PRODUCTINFO "DECwindows Fonts V2.2, 07-Nov-1991"
DEFAULT_CHAR 32
RELATIVE_SETWIDTH 50
RELATIVE_WEIGHT 70
CHARSET_COLLECTIONS "ASCII ISO8859-1 ADOBE-STANDARD"
FULL_NAME "Times Bold"
ENDPROPERTIES
CHARS 229
STARTCHAR space
ENCODING 32
SWIDTH 250 0
DWIDTH 5 0
BBX 1 1 0 0
BITMAP
00
ENDCHAR
STARTCHAR exclam
ENCODING 33
SWIDTH 333 0
DWIDTH 6 0
BBX 2 11 2 0
BITMAP
C0
C0
C0
C0
C0
80
80
00
00
C0
C0
ENDCHAR
STARTCHAR quotedbl
ENCODING 34
SWIDTH 555 0
DWIDTH 9 0
BBX 5 5 1 6
BITMAP
D8
D8
D8
90
90
ENDCHAR
STARTCHAR numbersign
ENCODING 35
SWIDTH 500 0
DWIDTH 8 0
BBX 8 11 0 0
BITMAP
12
12
12
7F
24
24
24
FE
48
48
48
ENDCHAR
STARTCHAR dollar
ENCODING 36
SWIDTH 500 0
DWIDTH 8 0
BBX 7 13 0 -1
BITMAP
10
7A
96
D2
F0
78
3C
1E
16
92
D2
BC
10
ENDCHAR
STARTCHAR percent
ENCODING 37
SWIDTH 1000 0
DWIDTH 16 0
BBX 12 12 2 0
BITMAP
3080
6F00
C900
C900
CA00
D260
64D0
0990
0990
1190
11A0
20C0
ENDCHAR
STARTCHAR ampersand
ENCODING 38
SWIDTH 833 0
DWIDTH 14 0
BBX 10 11 2 0
BITMAP
1C00
2600
2600
3400
39C0
7880
9C80
8D00
C640
E7C0
7B80
ENDCHAR
STARTCHAR quoteright
ENCODING 39
SWIDTH 333 0
DWIDTH 6 0
BBX 2 5 2 6
BITMAP
C0
C0
40
40
80
ENDCHAR
STARTCHAR parenleft
ENCODING 40
SWIDTH 333 0
DWIDTH 6 0
BBX 4 14 1 -3
BITMAP
10
20
60
40
C0
C0
C0
C0
C0
C0
40
60
20
10
ENDCHAR
STARTCHAR parenright
ENCODING 41
SWIDTH 333 0
DWIDTH 6 0
BBX 4 14 0 -3
BITMAP
80
40
60
20
30
30
30
30
30
30
20
60
40
80
ENDCHAR
STARTCHAR asterisk
ENCODING 42
SWIDTH 500 0
DWIDTH 8 0
BBX 5 7 1 4
BITMAP
20
A8
F8
70
F8
A8
20
ENDCHAR
STARTCHAR plus
ENCODING 43
SWIDTH 570 0
DWIDTH 9 0
BBX 7 8 1 0
BITMAP
10
10
10
FE
FE
10
10
10
ENDCHAR
STARTCHAR comma
ENCODING 44
SWIDTH 250 0
DWIDTH 4 0
BBX 2 5 1 -3
BITMAP
C0
C0
40
40
80
ENDCHAR
STARTCHAR minus
ENCODING 45
SWIDTH 570 0
DWIDTH 9 0
BBX 7 2 1 3
BITMAP
FE
FE
ENDCHAR
STARTCHAR period
ENCODING 46
SWIDTH 250 0
DWIDTH 4 0
BBX 2 2 1 0
BITMAP
C0
C0
ENDCHAR
STARTCHAR slash
ENCODING 47
SWIDTH 278 0
DWIDTH 5 0
BBX 4 11 0 0
BITMAP
10
30
20
20
60
40
40
40
C0
80
80
ENDCHAR
STARTCHAR zero
ENCODING 48
SWIDTH 500 0
DWIDTH 8 0
BBX 6 11 1 0
BITMAP
30
48
CC
CC
CC
CC
CC
CC
CC
48
30
ENDCHAR
STARTCHAR one
ENCODING 49
SWIDTH 500 0
DWIDTH 8 0
BBX 6 11 1 0
BITMAP
10
F0
30
30
30
30
30
30
30
30
FC
ENDCHAR
STARTCHAR two
ENCODING 50
SWIDTH 500 0
DWIDTH 8 0
BBX 7 11 0 0
BITMAP
38
7C
9C
0C
0C
08
18
10
22
7C
FC
ENDCHAR
STARTCHAR three
ENCODING 51
SWIDTH 500 0
DWIDTH 8 0
BBX 7 11 0 0
BITMAP
38
7C
8C
08
10
3C
0E
06
C6
CC
78
ENDCHAR
STARTCHAR four
ENCODING 52
SWIDTH 500 0
DWIDTH 8 0
BBX 7 11 0 0
BITMAP
04
0C
1C
2C
2C
4C
8C
FE
FE
0C
0C
ENDCHAR
STARTCHAR five
ENCODING 53
SWIDTH 500 0
DWIDTH 8 0
BBX 8 11 0 0
BITMAP
1F
3E
20
38
7C
0E
06
06
C6
CC
70
ENDCHAR
STARTCHAR six
ENCODING 54
SWIDTH 500 0
DWIDTH 8 0
BBX 6 11 1 0
BITMAP
0C
30
60
60
F0
CC
CC
CC
CC
48
30
ENDCHAR
STARTCHAR seven
ENCODING 55
SWIDTH 500 0
DWIDTH 8 0
BBX 7 11 0 0
BITMAP
7E
7E
84
04
0C
08
08
18
10
30
20
ENDCHAR
STARTCHAR eight
ENCODING 56
SWIDTH 500 0
DWIDTH 8 0
BBX 7 11 0 0
BITMAP
38
44
C6
E4
78
3C
4E
C6
C6
44
38
ENDCHAR
STARTCHAR nine
ENCODING 57
SWIDTH 500 0
DWIDTH 8 0
BBX 6 11 1 0
BITMAP
30
48
CC
CC
CC
CC
7C
18
18
30
C0
ENDCHAR
STARTCHAR colon
ENCODING 58
SWIDTH 333 0
DWIDTH 5 0
BBX 2 7 1 0
BITMAP
C0
C0
00
00
00
C0
C0
ENDCHAR
STARTCHAR semicolon
ENCODING 59
SWIDTH 333 0
DWIDTH 5 0
BBX 2 10 1 -3
BITMAP
C0
C0
00
00
00
C0
C0
40
40
80
ENDCHAR
STARTCHAR less
ENCODING 60
SWIDTH 570 0
DWIDTH 9 0
BBX 8 8 0 0
BITMAP
03
0E
38
C0
C0
38
0E
03
ENDCHAR
STARTCHAR equal
ENCODING 61
SWIDTH 570 0
DWIDTH 9 0
BBX 7 5 1 2
BITMAP
FE
FE
00
FE
FE
ENDCHAR
STARTCHAR greater
ENCODING 62
SWIDTH 570 0
DWIDTH 9 0
BBX 8 8 0 0
BITMAP
C0
70
1C
03
03
1C
70
C0
ENDCHAR
STARTCHAR question
ENCODING 63
SWIDTH 500 0
DWIDTH 8 0
BBX 6 11 1 0
BITMAP
38
CC
CC
0C
0C
08
10
20
00
60
60
ENDCHAR
STARTCHAR at
ENCODING 64
SWIDTH 930 0
DWIDTH 16 0
BBX 13 13 1 -2
BITMAP
0780
1C60
3010
6750
CCC8
D8C8
D888
D990
D9B0
4EE0
2000
1860
0780
ENDCHAR
STARTCHAR A
ENCODING 65
SWIDTH 722 0
DWIDTH 12 0
BBX 11 11 0 0
BITMAP
0400
0E00
0E00
1B00
1300
3300
2180
7F80
40C0
C0C0
E1E0
ENDCHAR
STARTCHAR B
ENCODING 66
SWIDTH 667 0
DWIDTH 10 0
BBX 9 11 1 0
BITMAP
FC00
6600
6300
6300
6600
7E00
6300
6180
6180
6300
FE00
ENDCHAR
STARTCHAR C
ENCODING 67
SWIDTH 722 0
DWIDTH 11 0
BBX 9 11 1 0
BITMAP
1E80
6380
4180
C080
C000
C000
C000
C000
6080
7300
3E00
ENDCHAR
STARTCHAR D
ENCODING 68
SWIDTH 722 0
DWIDTH 11 0
BBX 9 11 1 0
BITMAP
FC00
6600
6300
6180
6180
6180
6180
6180
6300
6600
FC00
ENDCHAR
STARTCHAR E
ENCODING 69
SWIDTH 667 0
DWIDTH 10 0
BBX 8 11 1 0
BITMAP
FF
63
61
60
62
7E
62
60
61
63
FF
ENDCHAR
STARTCHAR F
ENCODING 70
SWIDTH 611 0
DWIDTH 10 0
BBX 8 11 1 0
BITMAP
FF
63
61
60
62
7E
62
60
60
60
F8
ENDCHAR
STARTCHAR G
ENCODING 71
SWIDTH 778 0
DWIDTH 12 0
BBX 10 11 1 0
BITMAP
1E80
6380
4180
C080
C000
C000
C7C0
C180
C180
6180
3F00
ENDCHAR
STARTCHAR H
ENCODING 72
SWIDTH 778 0
DWIDTH 12 0
BBX 10 11 1 0
BITMAP
F3C0
6180
6180
6180
6180
7F80
6180
6180
6180
6180
F3C0
ENDCHAR
STARTCHAR I
ENCODING 73
SWIDTH 389 0
DWIDTH 6 0
BBX 4 11 1 0
BITMAP
F0
60
60
60
60
60
60
60
60
60
F0
ENDCHAR
STARTCHAR J
ENCODING 74
SWIDTH 500 0
DWIDTH 8 0
BBX 6 13 1 -2
BITMAP
3C
18
18
18
18
18
18
18
18
18
D8
D0
60
ENDCHAR
STARTCHAR K
ENCODING 75
SWIDTH 778 0
DWIDTH 13 0
BBX 11 11 1 0
BITMAP
FBC0
6100
6200
6400
6800
7800
6C00
6600
6300
6180
FBE0
ENDCHAR
STARTCHAR L
ENCODING 76
SWIDTH 667 0
DWIDTH 11 0
BBX 9 11 1 0
BITMAP
F000
6000
6000
6000
6000
6000
6000
6080
6080
6180
FF80
ENDCHAR
STARTCHAR M
ENCODING 77
SWIDTH 944 0
DWIDTH 15 0
BBX 14 11 0 0
BITMAP
E01C
7018
7038
7838
5858
4C58
4C98
4698
4718
4318
E23C
ENDCHAR
STARTCHAR N
ENCODING 78
SWIDTH 722 0
DWIDTH 12 0
BBX 10 11 1 0
BITMAP
F1C0
7080
5880
5880
4C80
4680
4780
4380
4180
4180
E080
ENDCHAR
STARTCHAR O
ENCODING 79
SWIDTH 778 0
DWIDTH 12 0
BBX 10 11 1 0
BITMAP
1E00
6180
4080
C0C0
C0C0
C0C0
C0C0
C0C0
4080
6180
1E00
ENDCHAR
STARTCHAR P
ENCODING 80
SWIDTH 611 0
DWIDTH 10 0
BBX 8 11 1 0
BITMAP
FE
67
63
63
66
7C
60
60
60
60
F0
ENDCHAR
STARTCHAR Q
ENCODING 81
SWIDTH 778 0
DWIDTH 12 0
BBX 10 14 1 -3
BITMAP
1E00
6180
4080
C0C0
C0C0
C0C0
C0C0
C0C0
4080
6180
3F00
0E00
0600
0180
ENDCHAR
STARTCHAR R
ENCODING 82
SWIDTH 722 0
DWIDTH 12 0
BBX 10 11 1 0
BITMAP
FE00
6700
6300
6300
6600
7C00
6C00
6600
6300
6180
F3C0
ENDCHAR
STARTCHAR S
ENCODING 83
SWIDTH 556 0
DWIDTH 9 0
BBX 8 11 0 0
BITMAP
3D
43
C1
E0
78
3C
0E
07
83
C2
BC
ENDCHAR
STARTCHAR T
ENCODING 84
SWIDTH 667 0
DWIDTH 11 0
BBX 10 11 1 0
BITMAP
FFC0
CCC0
8C40
0C00
0C00
0C00
0C00
0C00
0C00
0C00
1E00
ENDCHAR
STARTCHAR U
ENCODING 85
SWIDTH 722 0
DWIDTH 12 0
BBX 10 11 1 0
BITMAP
F1C0
6080
6080
6080
6080
6080
6080
6080
6080
2100
1E00
ENDCHAR
STARTCHAR V
ENCODING 86
SWIDTH 722 0
DWIDTH 12 0
BBX 11 11 0 0
BITMAP
F8E0
3040
3040
1880
1880
0D00
0D00
0700
0600
0200
0200
ENDCHAR
STARTCHAR W
ENCODING 87
SWIDTH 1000 0
DWIDTH 17 0
BBX 17 11 0 0
BITMAP
FBEF80
70C300
30C200
38E200
19E600
1D6400
0D7C00
0F3800
063800
061000
021000
ENDCHAR
STARTCHAR X
ENCODING 88
SWIDTH 722 0
DWIDTH 12 0
BBX 10 11 1 0
BITMAP
FBC0
7100
3A00
3A00
1C00
0E00
1E00
1700
2300
4380
E7C0
ENDCHAR
STARTCHAR Y
ENCODING 89
SWIDTH 722 0
DWIDTH 12 0
BBX 11 11 0 0
BITMAP
F8E0
7040
3880
1880
1D00
0F00
0600
0600
0600
0600
0F00
ENDCHAR
STARTCHAR Z
ENCODING 90
SWIDTH 667 0
DWIDTH 11 0
BBX 10 11 0 0
BITMAP
FFC0
C1C0
8380
0700
0E00
0E00
1C00
3800
7040
F0C0
FFC0
ENDCHAR
STARTCHAR bracketleft
ENCODING 91
SWIDTH 333 0
DWIDTH 6 0
BBX 3 14 1 -3
BITMAP
E0
C0
C0
C0
C0
C0
C0
C0
C0
C0
C0
C0
C0
E0
ENDCHAR
STARTCHAR backslash
ENCODING 92
SWIDTH 278 0
DWIDTH 5 0
BBX 4 11 0 0
BITMAP
80
C0
40
40
60
20
20
20
30
10
10
ENDCHAR
STARTCHAR bracketright
ENCODING 93
SWIDTH 333 0
DWIDTH 6 0
BBX 3 14 1 -3
BITMAP
E0
60
60
60
60
60
60
60
60
60
60
60
60
E0
ENDCHAR
STARTCHAR asciicircum
ENCODING 94
SWIDTH 581 0
DWIDTH 9 0
BBX 7 7 1 4
BITMAP
10
38
28
6C
44
C6
82
ENDCHAR
STARTCHAR underscore
ENCODING 95
SWIDTH 500 0
DWIDTH 8 0
BBX 8 1 0 -4
BITMAP
FF
ENDCHAR
STARTCHAR quoteleft
ENCODING 96
SWIDTH 333 0
DWIDTH 6 0
BBX 2 5 1 6
BITMAP
40
80
80
C0
C0
ENDCHAR
STARTCHAR a
ENCODING 97
SWIDTH 500 0
DWIDTH 8 0
BBX 8 8 0 0
BITMAP
38
CC
CC
1C
6C
CC
CD
76
ENDCHAR
STARTCHAR b
ENCODING 98
SWIDTH 556 0
DWIDTH 9 0
BBX 8 11 0 0
BITMAP
E0
60
60
6C
76
63
63
63
63
76
EC
ENDCHAR
STARTCHAR c
ENCODING 99
SWIDTH 444 0
DWIDTH 7 0
BBX 6 8 0 0
BITMAP
38
6C
CC
C0
C0
C0
64
38
ENDCHAR
STARTCHAR d
ENCODING 100
SWIDTH 556 0
DWIDTH 9 0
BBX 8 11 0 0
BITMAP
0E
06
06
36
6E
C6
C6
C6
C6
4E
37
ENDCHAR
STARTCHAR e
ENCODING 101
SWIDTH 444 0
DWIDTH 7 0
BBX 6 8 0 0
BITMAP
38
6C
CC
FC
C0
C0
64
38
ENDCHAR
STARTCHAR f
ENCODING 102
SWIDTH 333 0
DWIDTH 6 0
BBX 6 11 0 0
BITMAP
18
6C
60
F0
60
60
60
60
60
60
F0
ENDCHAR
STARTCHAR g
ENCODING 103
SWIDTH 500 0
DWIDTH 8 0
BBX 7 12 0 -4
BITMAP
32
4E
CC
CC
C8
70
40
FC
7E
82
84
78
ENDCHAR
STARTCHAR h
ENCODING 104
SWIDTH 556 0
DWIDTH 9 0
BBX 8 11 0 0
BITMAP
E0
60
60
6C
76
66
66
66
66
66
EF
ENDCHAR
STARTCHAR i
ENCODING 105
SWIDTH 278 0
DWIDTH 5 0
BBX 4 11 0 0
BITMAP
60
60
00
E0
60
60
60
60
60
60
F0
ENDCHAR
STARTCHAR j
ENCODING 106
SWIDTH 333 0
DWIDTH 5 0
BBX 5 15 -2 -4
BITMAP
18
18
00
38
18
18
18
18
18
18
18
18
D8
D0
60
ENDCHAR
STARTCHAR k
ENCODING 107
SWIDTH 556 0
DWIDTH 9 0
BBX 9 11 0 0
BITMAP
E000
6000
6000
6F00
6400
6800
7800
7C00
6E00
6700
F780
ENDCHAR
STARTCHAR l
ENCODING 108
SWIDTH 278 0
DWIDTH 5 0
BBX 4 11 0 0
BITMAP
E0
60
60
60
60
60
60
60
60
60
F0
ENDCHAR
STARTCHAR m
ENCODING 109
SWIDTH 833 0
DWIDTH 13 0
BBX 12 8 0 0
BITMAP
EDC0
7760
6660
6660
6660
6660
6660
F6F0
ENDCHAR
STARTCHAR n
ENCODING 110
SWIDTH 556 0
DWIDTH 9 0
BBX 8 8 0 0
BITMAP
EC
7E
66
66
66
66
66
F7
ENDCHAR
STARTCHAR o
ENCODING 111
SWIDTH 500 0
DWIDTH 8 0
BBX 7 8 0 0
BITMAP
38
6C
C6
C6
C6
C6
6C
38
ENDCHAR
STARTCHAR p
ENCODING 112
SWIDTH 556 0
DWIDTH 9 0
BBX 8 12 0 -4
BITMAP
EC
76
63
63
63
63
76
6C
60
60
60
F0
ENDCHAR
STARTCHAR q
ENCODING 113
SWIDTH 556 0
DWIDTH 9 0
BBX 8 12 0 -4
BITMAP
32
6E
C6
C6
C6
C6
6E
36
06
06
06
0F
ENDCHAR
STARTCHAR r
ENCODING 114
SWIDTH 444 0
DWIDTH 7 0
BBX 6 8 0 0
BITMAP
EC
7C
60
60
60
60
60
F0
ENDCHAR
STARTCHAR s
ENCODING 115
SWIDTH 389 0
DWIDTH 6 0
BBX 5 8 0 0
BITMAP
78
C8
E0
70
38
98
D8
B0
ENDCHAR
STARTCHAR t
ENCODING 116
SWIDTH 333 0
DWIDTH 6 0
BBX 5 11 0 0
BITMAP
20
20
60
F0
60
60
60
60
60
68
30
ENDCHAR
STARTCHAR u
ENCODING 117
SWIDTH 556 0
DWIDTH 9 0
BBX 8 8 0 0
BITMAP
EE
66
66
66
66
66
6F
36
ENDCHAR
STARTCHAR v
ENCODING 118
SWIDTH 500 0
DWIDTH 8 0
BBX 8 8 0 0
BITMAP
F7
62
62
64
34
38
18
10
ENDCHAR
STARTCHAR w
ENCODING 119
SWIDTH 722 0
DWIDTH 12 0
BBX 12 8 0 0
BITMAP
EF70
6620
6620
7740
3740
3980
1980
1100
ENDCHAR
STARTCHAR x
ENCODING 120
SWIDTH 500 0
DWIDTH 8 0
BBX 7 8 0 0
BITMAP
F6
74
38
38
18
3C
4C
EE
ENDCHAR
STARTCHAR y
ENCODING 121
SWIDTH 500 0
DWIDTH 8 0
BBX 8 12 0 -4
BITMAP
F7
62
62
34
34
1C
18
18
10
10
E0
C0
ENDCHAR
STARTCHAR z
ENCODING 122
SWIDTH 444 0
DWIDTH 7 0
BBX 7 8 0 0
BITMAP
FE
8C
98
18
30
72
62
FE
ENDCHAR
STARTCHAR braceleft
ENCODING 123
SWIDTH 394 0
DWIDTH 7 0
BBX 4 14 1 -3
BITMAP
30
60
60
60
60
40
80
40
60
60
60
60
60
30
ENDCHAR
STARTCHAR bar
ENCODING 124
SWIDTH 220 0
DWIDTH 4 0
BBX 1 14 1 -3
BITMAP
80
80
80
80
80
80
80
80
80
80
80
80
80
80
ENDCHAR
STARTCHAR braceright
ENCODING 125
SWIDTH 394 0
DWIDTH 7 0
BBX 4 14 1 -3
BITMAP
C0
60
60
60
60
20
10
20
60
60
60
60
60
C0
ENDCHAR
STARTCHAR asciitilde
ENCODING 126
SWIDTH 520 0
DWIDTH 9 0
BBX 9 4 0 4
BITMAP
3000
7880
9F00
0E00
ENDCHAR
STARTCHAR space
ENCODING 160
SWIDTH 250 0
DWIDTH 5 0
BBX 1 1 0 0
BITMAP
00
ENDCHAR
STARTCHAR exclamdown
ENCODING 161
SWIDTH 333 0
DWIDTH 6 0
BBX 2 12 2 -4
BITMAP
C0
C0
00
00
40
40
40
C0
C0
C0
C0
C0
ENDCHAR
STARTCHAR cent
ENCODING 162
SWIDTH 500 0
DWIDTH 8 0
BBX 6 12 1 -2
BITMAP
04
04
38
4C
CC
D0
D0
E0
64
38
40
40
ENDCHAR
STARTCHAR sterling
ENCODING 163
SWIDTH 500 0
DWIDTH 8 0
BBX 8 11 0 0
BITMAP
1C
26
26
30
30
7C
30
10
71
9E
6E
ENDCHAR
STARTCHAR currency
ENCODING 164
SWIDTH 500 0
DWIDTH 8 0
BBX 6 7 1 1
BITMAP
B4
78
CC
84
CC
78
B4
ENDCHAR
STARTCHAR yen
ENCODING 165
SWIDTH 500 0
DWIDTH 8 0
BBX 8 11 0 0
BITMAP
E3
62
32
34
1C
7E
18
7E
18
18
7E
ENDCHAR
STARTCHAR brokenbar
ENCODING 166
SWIDTH 220 0
DWIDTH 4 0
BBX 1 15 1 -3
BITMAP
80
80
80
80
80
80
00
00
00
80
80
80
80
80
80
ENDCHAR
STARTCHAR section
ENCODING 167
SWIDTH 500 0
DWIDTH 8 0
BBX 6 15 1 -4
BITMAP
38
4C
4C
60
30
78
9C
CC
E4
78
38
18
C8
C8
70
ENDCHAR
STARTCHAR dieresis
ENCODING 168
SWIDTH 333 0
DWIDTH 6 0
BBX 5 2 0 9
BITMAP
D8
D8
ENDCHAR
STARTCHAR copyright
ENCODING 169
SWIDTH 747 0
DWIDTH 12 0
BBX 12 11 -1 0
BITMAP
0F00
30C0
4720
48A0
9810
9810
9810
48A0
4720
30C0
0F00
ENDCHAR
STARTCHAR ordfeminine
ENCODING 170
SWIDTH 300 0
DWIDTH 5 0
BBX 5 7 0 4
BITMAP
60
90
70
B0
D8
00
F8
ENDCHAR
STARTCHAR guillemotleft
ENCODING 171
SWIDTH 500 0
DWIDTH 8 0
BBX 7 7 0 0
BITMAP
12
36
6C
D8
6C
36
12
ENDCHAR
STARTCHAR logicalnot
ENCODING 172
SWIDTH 570 0
DWIDTH 9 0
BBX 7 6 1 1
BITMAP
FE
FE
02
02
02
02
ENDCHAR
STARTCHAR hyphen
ENCODING 173
SWIDTH 333 0
DWIDTH 5 0
BBX 4 2 0 3
BITMAP
F0
F0
ENDCHAR
STARTCHAR registered
ENCODING 174
SWIDTH 747 0
DWIDTH 12 0
BBX 12 11 0 0
BITMAP
0F00
30C0
4E20
4920
8910
8E10
8A10
4920
5D20
30C0
0F00
ENDCHAR
STARTCHAR macron
ENCODING 175
SWIDTH 333 0
DWIDTH 6 0
BBX 5 1 0 9
BITMAP
F8
ENDCHAR
STARTCHAR degree
ENCODING 176
SWIDTH 400 0
DWIDTH 7 0
BBX 4 5 1 6
BITMAP
60
90
90
90
60
ENDCHAR
STARTCHAR plusminus
ENCODING 177
SWIDTH 570 0
DWIDTH 9 0
BBX 7 9 1 0
BITMAP
10
10
FE
FE
10
10
00
FE
FE
ENDCHAR
STARTCHAR twosuperior
ENCODING 178
SWIDTH 300 0
DWIDTH 5 0
BBX 4 7 0 4
BITMAP
60
F0
B0
20
40
F0
F0
ENDCHAR
STARTCHAR threesuperior
ENCODING 179
SWIDTH 300 0
DWIDTH 5 0
BBX 4 7 0 4
BITMAP
60
B0
30
60
30
B0
60
ENDCHAR
STARTCHAR acute
ENCODING 180
SWIDTH 333 0
DWIDTH 6 0
BBX 3 3 1 9
BITMAP
60
40
80
ENDCHAR
STARTCHAR mu
ENCODING 181
SWIDTH 556 0
DWIDTH 9 0
BBX 8 11 0 -3
BITMAP
EE
66
66
66
66
66
6F
76
40
60
60
ENDCHAR
STARTCHAR paragraph
ENCODING 182
SWIDTH 540 0
DWIDTH 9 0
BBX 7 15 1 -4
BITMAP
3E
74
F4
F4
F4
F4
74
34
14
14
14
14
14
14
14
ENDCHAR
STARTCHAR periodcentered
ENCODING 183
SWIDTH 250 0
DWIDTH 4 0
BBX 2 2 1 4
BITMAP
C0
C0
ENDCHAR
STARTCHAR cedilla
ENCODING 184
SWIDTH 333 0
DWIDTH 6 0
BBX 5 4 0 -4
BITMAP
20
30
88
70
ENDCHAR
STARTCHAR onesuperior
ENCODING 185
SWIDTH 300 0
DWIDTH 5 0
BBX 4 7 1 4
BITMAP
60
E0
60
60
60
60
F0
ENDCHAR
STARTCHAR ordmasculine
ENCODING 186
SWIDTH 330 0
DWIDTH 6 0
BBX 4 7 1 4
BITMAP
60
90
90
90
60
00
F0
ENDCHAR
STARTCHAR guillemotright
ENCODING 187
SWIDTH 500 0
DWIDTH 8 0
BBX 7 7 0 0
BITMAP
90
D8
6C
36
6C
D8
90
ENDCHAR
STARTCHAR onequarter
ENCODING 188
SWIDTH 750 0
DWIDTH 12 0
BBX 11 11 0 0
BITMAP
6080
E100
6100
6200
6440
64C0
F9C0
0AC0
13E0
20C0
20C0
ENDCHAR
STARTCHAR onehalf
ENCODING 189
SWIDTH 750 0
DWIDTH 12 0
BBX 10 11 0 0
BITMAP
6100
E100
6200
6200
6400
6B80
FEC0
1080
1100
23C0
27C0
ENDCHAR
STARTCHAR threequarters
ENCODING 190
SWIDTH 750 0
DWIDTH 12 0
BBX 11 11 0 0
BITMAP
6080
B100
3100
6200
3440
B4C0
69C0
0AC0
13E0
20C0
20C0
ENDCHAR
STARTCHAR questiondown
ENCODING 191
SWIDTH 500 0
DWIDTH 8 0
BBX 6 11 1 -3
BITMAP
18
18
00
10
20
40
C0
C0
CC
CC
70
ENDCHAR
STARTCHAR Agrave
ENCODING 192
SWIDTH 722 0
DWIDTH 12 0
BBX 11 15 0 0
BITMAP
3000
1800
0400
0000
0400
0E00
0E00
1B00
1300
3300
2180
7F80
40C0
C0C0
E1E0
ENDCHAR
STARTCHAR Aacute
ENCODING 193
SWIDTH 722 0
DWIDTH 12 0
BBX 11 15 0 0
BITMAP
0180
0300
0400
0000
0400
0E00
0E00
1B00
1300
3300
2180
7F80
40C0
C0C0
E1E0
ENDCHAR
STARTCHAR Acircumflex
ENCODING 194
SWIDTH 722 0
DWIDTH 12 0
BBX 11 15 0 0
BITMAP
0400
0E00
1100
0000
0400
0E00
0E00
1B00
1300
3300
2180
7F80
40C0
C0C0
E1E0
ENDCHAR
STARTCHAR Atilde
ENCODING 195
SWIDTH 722 0
DWIDTH 12 0
BBX 11 14 0 0
BITMAP
1D00
2E00
0000
0400
0E00
0E00
1B00
1300
3300
2180
7F80
40C0
C0C0
E1E0
ENDCHAR
STARTCHAR Adieresis
ENCODING 196
SWIDTH 722 0
DWIDTH 12 0
BBX 11 14 0 0
BITMAP
1B00
1B00
0000
0400
0E00
0E00
1B00
1300
3300
2180
7F80
40C0
C0C0
E1E0
ENDCHAR
STARTCHAR Aring
ENCODING 197
SWIDTH 722 0
DWIDTH 12 0
BBX 11 16 0 0
BITMAP
0600
0900
0900
0600
0000
0400
0E00
0E00
1B00
1300
3300
2180
7F80
40C0
C0C0
E1E0
ENDCHAR
STARTCHAR AE
ENCODING 198
SWIDTH 1000 0
DWIDTH 16 0
BBX 14 11 1 0
BITMAP
0FF8
0718
0B08
0B00
1320
1FE0
2320
2300
4304
430C
E7FC
ENDCHAR
STARTCHAR Ccedilla
ENCODING 199
SWIDTH 722 0
DWIDTH 11 0
BBX 9 15 1 -4
BITMAP
1E80
6380
4180
C080
C000
C000
C000
C000
6080
7300
3E00
0800
0C00
2200
1C00
ENDCHAR
STARTCHAR Egrave
ENCODING 200
SWIDTH 667 0
DWIDTH 10 0
BBX 8 15 1 0
BITMAP
60
30
08
00
FF
63
61
60
62
7E
62
60
61
63
FF
ENDCHAR
STARTCHAR Eacute
ENCODING 201
SWIDTH 667 0
DWIDTH 10 0
BBX 8 15 1 0
BITMAP
06
0C
10
00
FF
63
61
60
62
7E
62
60
61
63
FF
ENDCHAR
STARTCHAR Ecircumflex
ENCODING 202
SWIDTH 667 0
DWIDTH 10 0
BBX 8 15 1 0
BITMAP
08
1C
22
00
FF
63
61
60
62
7E
62
60
61
63
FF
ENDCHAR
STARTCHAR Edieresis
ENCODING 203
SWIDTH 667 0
DWIDTH 10 0
BBX 8 14 1 0
BITMAP
66
66
00
FF
63
61
60
62
7E
62
60
61
63
FF
ENDCHAR
STARTCHAR Igrave
ENCODING 204
SWIDTH 389 0
DWIDTH 6 0
BBX 5 15 0 0
BITMAP
C0
60
10
00
78
30
30
30
30
30
30
30
30
30
78
ENDCHAR
STARTCHAR Iacute
ENCODING 205
SWIDTH 389 0
DWIDTH 6 0
BBX 4 15 1 0
BITMAP
30
60
80
00
F0
60
60
60
60
60
60
60
60
60
F0
ENDCHAR
STARTCHAR Icircumflex
ENCODING 206
SWIDTH 389 0
DWIDTH 6 0
BBX 5 15 0 0
BITMAP
20
70
88
00
78
30
30
30
30
30
30
30
30
30
78
ENDCHAR
STARTCHAR Idieresis
ENCODING 207
SWIDTH 389 0
DWIDTH 6 0
BBX 6 14 0 0
BITMAP
CC
CC
00
78
30
30
30
30
30
30
30
30
30
78
ENDCHAR
STARTCHAR Eth
ENCODING 208
SWIDTH 722 0
DWIDTH 11 0
BBX 9 11 1 0
BITMAP
FC00
6600
6300
6180
6180
F980
6180
6180
6300
6600
FC00
ENDCHAR
STARTCHAR Ntilde
ENCODING 209
SWIDTH 722 0
DWIDTH 12 0
BBX 10 14 1 0
BITMAP
1D00
2E00
0000
F1C0
7080
5880
5880
4C80
4680
4780
4380
4180
4180
E080
ENDCHAR
STARTCHAR Ograve
ENCODING 210
SWIDTH 778 0
DWIDTH 12 0
BBX 10 15 1 0
BITMAP
3000
1800
0400
0000
1E00
6180
4080
C0C0
C0C0
C0C0
C0C0
C0C0
4080
6180
1E00
ENDCHAR
STARTCHAR Oacute
ENCODING 211
SWIDTH 778 0
DWIDTH 12 0
BBX 10 15 1 0
BITMAP
0300
0600
0800
0000
1E00
6180
4080
C0C0
C0C0
C0C0
C0C0
C0C0
4080
6180
1E00
ENDCHAR
STARTCHAR Ocircumflex
ENCODING 212
SWIDTH 778 0
DWIDTH 12 0
BBX 10 15 1 0
BITMAP
0400
0E00
1100
0000
1E00
6180
4080
C0C0
C0C0
C0C0
C0C0
C0C0
4080
6180
1E00
ENDCHAR
STARTCHAR Otilde
ENCODING 213
SWIDTH 778 0
DWIDTH 12 0
BBX 10 14 1 0
BITMAP
1D00
2E00
0000
1E00
6180
4080
C0C0
C0C0
C0C0
C0C0
C0C0
4080
6180
1E00
ENDCHAR
STARTCHAR Odieresis
ENCODING 214
SWIDTH 778 0
DWIDTH 12 0
BBX 10 14 1 0
BITMAP
3300
3300
0000
1E00
6180
4080
C0C0
C0C0
C0C0
C0C0
C0C0
4080
6180
1E00
ENDCHAR
STARTCHAR multiply
ENCODING 215
SWIDTH 570 0
DWIDTH 9 0
BBX 7 8 1 0
BITMAP
82
C6
6C
38
38
6C
C6
82
ENDCHAR
STARTCHAR Oslash
ENCODING 216
SWIDTH 778 0
DWIDTH 13 0
BBX 10 13 1 -1
BITMAP
0040
1E80
6180
4180
C2C0
C2C0
C4C0
C8C0
C8C0
5080
6180
3E00
4000
ENDCHAR
STARTCHAR Ugrave
ENCODING 217
SWIDTH 722 0
DWIDTH 12 0
BBX 10 15 1 0
BITMAP
3000
1800
0400
0000
F1C0
6080
6080
6080
6080
6080
6080
6080
6080
2100
1E00
ENDCHAR
STARTCHAR Uacute
ENCODING 218
SWIDTH 722 0
DWIDTH 12 0
BBX 10 15 1 0
BITMAP
0300
0600
0800
0000
F1C0
6080
6080
6080
6080
6080
6080
6080
6080
2100
1E00
ENDCHAR
STARTCHAR Ucircumflex
ENCODING 219
SWIDTH 722 0
DWIDTH 12 0
BBX 10 15 1 0
BITMAP
0400
0E00
1100
0000
F1C0
6080
6080
6080
6080
6080
6080
6080
6080
2100
1E00
ENDCHAR
STARTCHAR Udieresis
ENCODING 220
SWIDTH 722 0
DWIDTH 12 0
BBX 10 14 1 0
BITMAP
3300
3300
0000
F1C0
6080
6080
6080
6080
6080
6080
6080
6080
2100
1E00
ENDCHAR
STARTCHAR Yacute
ENCODING 221
SWIDTH 722 0
DWIDTH 12 0
BBX 11 15 0 0
BITMAP
0180
0300
0400
0000
F8E0
7040
3880
1880
1D00
0F00
0600
0600
0600
0600
0F00
ENDCHAR
STARTCHAR Thorn
ENCODING 222
SWIDTH 611 0
DWIDTH 10 0
BBX 8 11 1 0
BITMAP
F0
60
7E
67
63
63
67
7E
60
60
F0
ENDCHAR
STARTCHAR germandbls
ENCODING 223
SWIDTH 556 0
DWIDTH 9 0
BBX 8 11 0 0
BITMAP
18
26
66
66
6C
62
63
63
63
62
EC
ENDCHAR
STARTCHAR agrave
ENCODING 224
SWIDTH 500 0
DWIDTH 8 0
BBX 8 12 0 0
BITMAP
30
10
08
00
38
CC
CC
1C
6C
CC
CD
76
ENDCHAR
STARTCHAR aacute
ENCODING 225
SWIDTH 500 0
DWIDTH 8 0
BBX 8 12 0 0
BITMAP
18
10
20
00
38
CC
CC
1C
6C
CC
CD
76
ENDCHAR
STARTCHAR acircumflex
ENCODING 226
SWIDTH 500 0
DWIDTH 8 0
BBX 8 12 0 0
BITMAP
10
38
44
00
38
CC
CC
1C
6C
CC
CD
76
ENDCHAR
STARTCHAR atilde
ENCODING 227
SWIDTH 500 0
DWIDTH 8 0
BBX 8 11 0 0
BITMAP
34
58
00
38
CC
CC
1C
6C
CC
CD
76
ENDCHAR
STARTCHAR adieresis
ENCODING 228
SWIDTH 500 0
DWIDTH 8 0
BBX 8 11 0 0
BITMAP
6C
6C
00
38
CC
CC
1C
6C
CC
CD
76
ENDCHAR
STARTCHAR aring
ENCODING 229
SWIDTH 500 0
DWIDTH 8 0
BBX 8 13 0 0
BITMAP
10
28
28
10
00
38
CC
CC
1C
6C
CC
CD
76
ENDCHAR
STARTCHAR ae
ENCODING 230
SWIDTH 722 0
DWIDTH 12 0
BBX 10 8 1 0
BITMAP
3380
CEC0
CCC0
1FC0
6C00
CC00
D640
6380
ENDCHAR
STARTCHAR ccedilla
ENCODING 231
SWIDTH 444 0
DWIDTH 7 0
BBX 6 12 0 -4
BITMAP
38
6C
CC
C0
C0
C0
64
38
20
30
88
70
ENDCHAR
STARTCHAR egrave
ENCODING 232
SWIDTH 444 0
DWIDTH 7 0
BBX 6 12 0 0
BITMAP
30
10
08
00
38
6C
CC
FC
C0
C0
64
38
ENDCHAR
STARTCHAR eacute
ENCODING 233
SWIDTH 444 0
DWIDTH 7 0
BBX 6 12 0 0
BITMAP
18
10
20
00
38
6C
CC
FC
C0
C0
64
38
ENDCHAR
STARTCHAR ecircumflex
ENCODING 234
SWIDTH 444 0
DWIDTH 7 0
BBX 6 12 0 0
BITMAP
10
38
44
00
38
6C
CC
FC
C0
C0
64
38
ENDCHAR
STARTCHAR edieresis
ENCODING 235
SWIDTH 444 0
DWIDTH 7 0
BBX 6 11 0 0
BITMAP
6C
6C
00
38
6C
CC
FC
C0
C0
64
38
ENDCHAR
STARTCHAR igrave
ENCODING 236
SWIDTH 278 0
DWIDTH 5 0
BBX 4 12 0 0
BITMAP
C0
40
20
00
E0
60
60
60
60
60
60
F0
ENDCHAR
STARTCHAR iacute
ENCODING 237
SWIDTH 278 0
DWIDTH 5 0
BBX 4 12 0 0
BITMAP
30
20
40
00
E0
60
60
60
60
60
60
F0
ENDCHAR
STARTCHAR icircumflex
ENCODING 238
SWIDTH 278 0
DWIDTH 5 0
BBX 5 12 -1 0
BITMAP
20
70
88
00
70
30
30
30
30
30
30
78
ENDCHAR
STARTCHAR idieresis
ENCODING 239
SWIDTH 278 0
DWIDTH 5 0
BBX 5 11 -1 0
BITMAP
D8
D8
00
70
30
30
30
30
30
30
78
ENDCHAR
STARTCHAR eth
ENCODING 240
SWIDTH 500 0
DWIDTH 8 0
BBX 7 11 0 0
BITMAP
6C
30
D8
3C
6C
C6
C6
C6
C6
6C
38
ENDCHAR
STARTCHAR ntilde
ENCODING 241
SWIDTH 556 0
DWIDTH 9 0
BBX 8 11 0 0
BITMAP
34
58
00
EC
7E
66
66
66
66
66
F7
ENDCHAR
STARTCHAR ograve
ENCODING 242
SWIDTH 500 0
DWIDTH 8 0
BBX 7 12 0 0
BITMAP
30
10
08
00
38
6C
C6
C6
C6
C6
6C
38
ENDCHAR
STARTCHAR oacute
ENCODING 243
SWIDTH 500 0
DWIDTH 8 0
BBX 7 12 0 0
BITMAP
18
10
20
00
38
6C
C6
C6
C6
C6
6C
38
ENDCHAR
STARTCHAR ocircumflex
ENCODING 244
SWIDTH 500 0
DWIDTH 8 0
BBX 7 12 0 0
BITMAP
10
38
44
00
38
6C
C6
C6
C6
C6
6C
38
ENDCHAR
STARTCHAR otilde
ENCODING 245
SWIDTH 500 0
DWIDTH 8 0
BBX 7 11 0 0
BITMAP
34
58
00
38
6C
C6
C6
C6
C6
6C
38
ENDCHAR
STARTCHAR odieresis
ENCODING 246
SWIDTH 500 0
DWIDTH 8 0
BBX 7 11 0 0
BITMAP
6C
6C
00
38
6C
C6
C6
C6
C6
6C
38
ENDCHAR
STARTCHAR divide
ENCODING 247
SWIDTH 570 0
DWIDTH 9 0
BBX 8 8 0 0
BITMAP
18
18
00
FF
FF
00
18
18
ENDCHAR
STARTCHAR oslash
ENCODING 248
SWIDTH 500 0
DWIDTH 8 0
BBX 7 10 0 -1
BITMAP
02
3C
6C
CE
D6
D6
E6
6C
78
80
ENDCHAR
STARTCHAR ugrave
ENCODING 249
SWIDTH 556 0
DWIDTH 9 0
BBX 8 12 0 0
BITMAP
30
10
08
00
EE
66
66
66
66
66
6F
36
ENDCHAR
STARTCHAR uacute
ENCODING 250
SWIDTH 556 0
DWIDTH 9 0
BBX 8 12 0 0
BITMAP
0C
08
10
00
EE
66
66
66
66
66
6F
36
ENDCHAR
STARTCHAR ucircumflex
ENCODING 251
SWIDTH 556 0
DWIDTH 9 0
BBX 8 12 0 0
BITMAP
10
38
44
00
EE
66
66
66
66
66
6F
36
ENDCHAR
STARTCHAR udieresis
ENCODING 252
SWIDTH 556 0
DWIDTH 9 0
BBX 8 11 0 0
BITMAP
6C
6C
00
EE
66
66
66
66
66
6F
36
ENDCHAR
STARTCHAR yacute
ENCODING 253
SWIDTH 500 0
DWIDTH 8 0
BBX 8 16 0 -4
BITMAP
0C
08
10
00
F7
62
62
34
34
1C
18
18
10
10
E0
C0
ENDCHAR
STARTCHAR thorn
ENCODING 254
SWIDTH 556 0
DWIDTH 9 0
BBX 8 15 0 -4
BITMAP
E0
60
60
6C
76
63
63
63
63
72
6C
60
60
60
F0
ENDCHAR
STARTCHAR ydieresis
ENCODING 255
SWIDTH 500 0
DWIDTH 8 0
BBX 8 15 0 -4
BITMAP
6C
6C
00
F7
62
62
34
34
1C
18
18
10
10
E0
C0
ENDCHAR
STARTCHAR Lslash
ENCODING -1
SWIDTH 667 0
DWIDTH 11 0
BBX 10 11 0 0
BITMAP
F800
7000
7400
7800
7000
7000
F000
7000
7040
70C0
FF80
ENDCHAR
STARTCHAR OE
ENCODING -1
SWIDTH 1000 0
DWIDTH 16 0
BBX 15 11 0 0
BITMAP
0FFE
31C6
61C2
E1C8
E1D8
E1F8
E1D8
E1C8
61C2
31C6
0FFE
ENDCHAR
STARTCHAR Scaron
ENCODING -1
SWIDTH 556 0
DWIDTH 9 0
BBX 8 13 0 0
BITMAP
22
1C
08
00
3D
43
C1
F0
7E
0F
83
C2
BC
ENDCHAR
STARTCHAR Ydieresis
ENCODING -1
SWIDTH 722 0
DWIDTH 12 0
BBX 11 12 0 0
BITMAP
1B00
1B00
0000
F8E0
7040
3880
1F00
0E00
0E00
0E00
0E00
1F00
ENDCHAR
STARTCHAR Zcaron
ENCODING -1
SWIDTH 667 0
DWIDTH 11 0
BBX 10 13 0 0
BITMAP
2200
1C00
0800
0000
FFC0
C780
8700
0E00
1E00
3C00
3840
78C0
FFC0
ENDCHAR
STARTCHAR breve
ENCODING -1
SWIDTH 333 0
DWIDTH 6 0
BBX 5 2 0 9
BITMAP
88
70
ENDCHAR
STARTCHAR bullet
ENCODING -1
SWIDTH 350 0
DWIDTH 6 0
BBX 4 4 1 3
BITMAP
60
F0
F0
60
ENDCHAR
STARTCHAR caron
ENCODING -1
SWIDTH 333 0
DWIDTH 6 0
BBX 5 3 0 9
BITMAP
88
70
20
ENDCHAR
STARTCHAR circumflex
ENCODING -1
SWIDTH 333 0
DWIDTH 6 0
BBX 5 3 0 9
BITMAP
20
70
88
ENDCHAR
STARTCHAR dagger
ENCODING -1
SWIDTH 500 0
DWIDTH 8 0
BBX 7 15 0 -4
BITMAP
38
38
D6
FE
D6
10
38
38
10
10
10
10
10
10
10
ENDCHAR
STARTCHAR daggerdbl
ENCODING -1
SWIDTH 500 0
DWIDTH 8 0
BBX 7 15 0 -4
BITMAP
38
38
D6
FE
D6
38
38
10
D6
FE
D6
10
10
38
38
ENDCHAR
STARTCHAR dotaccent
ENCODING -1
SWIDTH 333 0
DWIDTH 6 0
BBX 2 2 2 9
BITMAP
C0
C0
ENDCHAR
STARTCHAR dotlessi
ENCODING -1
SWIDTH 278 0
DWIDTH 5 0
BBX 4 8 0 0
BITMAP
E0
60
60
60
60
60
60
F0
ENDCHAR
STARTCHAR ellipsis
ENCODING -1
SWIDTH 1000 0
DWIDTH 15 0
BBX 12 2 1 0
BITMAP
C630
C630
ENDCHAR
STARTCHAR emdash
ENCODING -1
SWIDTH 1000 0
DWIDTH 16 0
BBX 16 2 0 3
BITMAP
FFFF
FFFF
ENDCHAR
STARTCHAR endash
ENCODING -1
SWIDTH 500 0
DWIDTH 8 0
BBX 8 2 0 3
BITMAP
FF
FF
ENDCHAR
STARTCHAR fi
ENCODING -1
SWIDTH 556 0
DWIDTH 9 0
BBX 8 11 0 0
BITMAP
18
26
60
FE
66
66
66
66
66
66
EF
ENDCHAR
STARTCHAR fl
ENCODING -1
SWIDTH 556 0
DWIDTH 9 0
BBX 8 11 0 0
BITMAP
1E
26
66
FE
66
66
66
66
66
66
F7
ENDCHAR
STARTCHAR florin
ENCODING -1
SWIDTH 500 0
DWIDTH 8 0
BBX 8 15 0 -3
BITMAP
06
0B
18
18
7E
18
18
18
30
30
30
30
30
A0
C0
ENDCHAR
STARTCHAR fraction
ENCODING -1
SWIDTH 167 0
DWIDTH 3 0
BBX 7 11 -2 1
BITMAP
02
04
04
08
10
10
20
20
40
80
80
ENDCHAR
STARTCHAR grave
ENCODING -1
SWIDTH 333 0
DWIDTH 6 0
BBX 3 3 2 9
BITMAP
C0
40
20
ENDCHAR
STARTCHAR guilsinglleft
ENCODING -1
SWIDTH 333 0
DWIDTH 6 0
BBX 4 7 1 0
BITMAP
10
30
60
C0
60
30
10
ENDCHAR
STARTCHAR guilsinglright
ENCODING -1
SWIDTH 333 0
DWIDTH 6 0
BBX 4 7 0 0
BITMAP
80
C0
60
30
60
C0
80
ENDCHAR
STARTCHAR hungarumlaut
ENCODING -1
SWIDTH 333 0
DWIDTH 6 0
BBX 6 3 0 9
BITMAP
6C
48
90
ENDCHAR
STARTCHAR lslash
ENCODING -1
SWIDTH 278 0
DWIDTH 5 0
BBX 6 11 -1 0
BITMAP
70
30
30
34
38
70
B0
30
30
30
78
ENDCHAR
STARTCHAR oe
ENCODING -1
SWIDTH 722 0
DWIDTH 12 0
BBX 11 8 0 0
BITMAP
39C0
6F60
C660
C7E0
C600
C600
6F20
39C0
ENDCHAR
STARTCHAR ogonek
ENCODING -1
SWIDTH 333 0
DWIDTH 6 0
BBX 3 4 1 -3
BITMAP
40
80
80
60
ENDCHAR
STARTCHAR perthousand
ENCODING -1
SWIDTH 1000 0
DWIDTH 17 0
BBX 17 12 0 0
BITMAP
008000
3F0000
490000
C90000
CA0000
D20000
64C300
092480
0B2C80
132C80
134D00
218600
ENDCHAR
STARTCHAR quotedblbase
ENCODING -1
SWIDTH 500 0
DWIDTH 8 0
BBX 6 5 1 -3
BITMAP
CC
CC
44
44
88
ENDCHAR
STARTCHAR quotedblleft
ENCODING -1
SWIDTH 500 0
DWIDTH 8 0
BBX 6 5 1 6
BITMAP
44
88
88
CC
CC
ENDCHAR
STARTCHAR quotedblright
ENCODING -1
SWIDTH 500 0
DWIDTH 8 0
BBX 6 5 1 6
BITMAP
CC
CC
44
44
88
ENDCHAR
STARTCHAR quotesinglbase
ENCODING -1
SWIDTH 333 0
DWIDTH 6 0
BBX 2 5 2 -3
BITMAP
C0
C0
40
40
80
ENDCHAR
STARTCHAR quotesingle
ENCODING -1
SWIDTH 278 0
DWIDTH 5 0
BBX 2 5 2 6
BITMAP
C0
C0
C0
80
80
ENDCHAR
STARTCHAR ring
ENCODING -1
SWIDTH 333 0
DWIDTH 6 0
BBX 3 4 1 9
BITMAP
40
A0
A0
40
ENDCHAR
STARTCHAR scaron
ENCODING -1
SWIDTH 389 0
DWIDTH 6 0
BBX 6 12 0 0
BITMAP
44
38
10
00
74
CC
E4
70
38
9C
CC
B8
ENDCHAR
STARTCHAR tilde
ENCODING -1
SWIDTH 333 0
DWIDTH 6 0
BBX 5 2 0 9
BITMAP
68
B0
ENDCHAR
STARTCHAR trademark
ENCODING -1
SWIDTH 1000 0
DWIDTH 17 0
BBX 16 7 0 4
BITMAP
FD8F
B58E
31D6
3176
3126
3126
7B8F
ENDCHAR
STARTCHAR zcaron
ENCODING -1
SWIDTH 444 0
DWIDTH 7 0
BBX 7 12 0 0
BITMAP
44
38
10
00
FE
8C
98
18
30
72
62
FE
ENDCHAR
ENDFONT
