STARTFONT 2.1
FONT -Adobe-Times-Medium-I-Normal--17-120-100-100-P-84-ISO8859-1
SIZE 12 100 100
FONTBOUNDINGBOX 20 19 -3 -4
COMMENT $XConsortium: timI12.bdf,v 1.7 95/01/26 17:59:01 gildea Exp $
COMMENT 
COMMENT +
COMMENT  Copyright 1984-1989, 1994 Adobe Systems Incorporated.
COMMENT  Copyright 1988, 1994 Digital Equipment Corporation.
COMMENT
COMMENT  Adobe is a trademark of Adobe Systems Incorporated which may be
COMMENT  registered in certain jurisdictions.
COMMENT  Permission to use these trademarks is hereby granted only in
COMMENT  association with the images described in this file.
COMMENT
COMMENT  Permission to use, copy, modify, distribute and sell this software
COMMENT  and its documentation for any purpose and without fee is hereby
COMMENT  granted, provided that the above copyright notices appear in all
COMMENT  copies and that both those copyright notices and this permission
COMMENT  notice appear in supporting documentation, and that the names of
COMMENT  Adobe Systems and Digital Equipment Corporation not be used in
COMMENT  advertising or publicity pertaining to distribution of the software
COMMENT  without specific, written prior permission.  Adobe Systems and
COMMENT  Digital Equipment Corporation make no representations about the
COMMENT  suitability of this software for any purpose.  It is provided "as
COMMENT  is" without express or implied warranty.
COMMENT -
STARTPROPERTIES 28
FOUNDRY "Adobe"
FAMILY_NAME "Times"
WEIGHT_NAME "Medium"
SLANT "I"
SETWIDTH_NAME "Normal"
ADD_STYLE_NAME ""
PIXEL_SIZE 17
POINT_SIZE 120
RESOLUTION_X 100
RESOLUTION_Y 100
SPACING "P"
AVERAGE_WIDTH 84
CHARSET_REGISTRY "ISO8859"
CHARSET_ENCODING "1"
CAP_HEIGHT 11
X_HEIGHT 8
FONT_ASCENT 13
FONT_DESCENT 4
FACE_NAME "Times Italic"
COPYRIGHT "Copyright (c) 1984, 1987 Adobe Systems Incorporated. All Rights Reserved. Copyright (c) 1988, 1991 Digital Equipment Corporation. All Rights Reserved."
NOTICE "Times is a trademark of Linotype-Hell AG and/or its subsidiaries."
_DEC_DEVICE_FONTNAMES "PS=Times-Italic"
_DEC_PRODUCTINFO "DECwindows Fonts V2.2, 07-Nov-1991"
DEFAULT_CHAR 32
RELATIVE_SETWIDTH 50
RELATIVE_WEIGHT 50
CHARSET_COLLECTIONS "ASCII ISO8859-1 ADOBE-STANDARD"
FULL_NAME "Times Italic"
ENDPROPERTIES
CHARS 229
STARTCHAR space
ENCODING 32
SWIDTH 250 0
DWIDTH 4 0
BBX 1 1 0 0
BITMAP
00
ENDCHAR
STARTCHAR exclam
ENCODING 33
SWIDTH 333 0
DWIDTH 6 0
BBX 4 11 0 0
BITMAP
10
10
30
20
20
60
40
40
00
80
80
ENDCHAR
STARTCHAR quotedbl
ENCODING 34
SWIDTH 420 0
DWIDTH 7 0
BBX 6 4 1 6
BITMAP
24
6C
48
90
ENDCHAR
STARTCHAR numbersign
ENCODING 35
SWIDTH 500 0
DWIDTH 8 0
BBX 8 11 0 0
BITMAP
12
12
12
7F
24
24
24
FE
48
48
48
ENDCHAR
STARTCHAR dollar
ENCODING 36
SWIDTH 500 0
DWIDTH 8 0
BBX 8 13 0 -1
BITMAP
04
1D
37
29
38
18
0C
0E
12
92
D4
B8
20
ENDCHAR
STARTCHAR percent
ENCODING 37
SWIDTH 833 0
DWIDTH 13 0
BBX 12 11 0 0
BITMAP
3080
4F00
8900
8A00
9200
6460
0490
0910
0910
1120
10C0
ENDCHAR
STARTCHAR ampersand
ENCODING 38
SWIDTH 778 0
DWIDTH 13 0
BBX 9 11 2 0
BITMAP
0C00
1200
1200
1400
1800
3380
5100
9A00
8C00
CE80
7300
ENDCHAR
STARTCHAR quoteright
ENCODING 39
SWIDTH 333 0
DWIDTH 6 0
BBX 3 4 1 6
BITMAP
20
20
40
80
ENDCHAR
STARTCHAR parenleft
ENCODING 40
SWIDTH 333 0
DWIDTH 6 0
BBX 5 14 1 -3
BITMAP
08
10
20
40
40
80
80
80
80
80
80
40
40
20
ENDCHAR
STARTCHAR parenright
ENCODING 41
SWIDTH 333 0
DWIDTH 6 0
BBX 5 14 0 -3
BITMAP
20
10
10
08
08
08
08
08
08
10
10
20
40
80
ENDCHAR
STARTCHAR asterisk
ENCODING 42
SWIDTH 500 0
DWIDTH 8 0
BBX 5 6 2 5
BITMAP
20
A8
70
70
A8
20
ENDCHAR
STARTCHAR plus
ENCODING 43
SWIDTH 675 0
DWIDTH 11 0
BBX 9 9 1 0
BITMAP
0800
0800
0800
0800
FF80
0800
0800
0800
0800
ENDCHAR
STARTCHAR comma
ENCODING 44
SWIDTH 250 0
DWIDTH 4 0
BBX 3 4 0 -2
BITMAP
20
20
40
80
ENDCHAR
STARTCHAR minus
ENCODING 45
SWIDTH 675 0
DWIDTH 11 0
BBX 7 1 2 4
BITMAP
FE
ENDCHAR
STARTCHAR period
ENCODING 46
SWIDTH 250 0
DWIDTH 4 0
BBX 1 2 1 0
BITMAP
80
80
ENDCHAR
STARTCHAR slash
ENCODING 47
SWIDTH 278 0
DWIDTH 5 0
BBX 5 11 0 0
BITMAP
08
10
10
10
20
20
20
40
40
40
80
ENDCHAR
STARTCHAR zero
ENCODING 48
SWIDTH 500 0
DWIDTH 8 0
BBX 7 11 0 0
BITMAP
1C
26
42
42
82
82
82
84
84
C8
70
ENDCHAR
STARTCHAR one
ENCODING 49
SWIDTH 500 0
DWIDTH 8 0
BBX 6 11 1 0
BITMAP
04
1C
08
08
18
10
10
30
20
20
F0
ENDCHAR
STARTCHAR two
ENCODING 50
SWIDTH 500 0
DWIDTH 8 0
BBX 8 11 -1 0
BITMAP
1E
23
01
01
02
04
08
10
20
42
FC
ENDCHAR
STARTCHAR three
ENCODING 51
SWIDTH 500 0
DWIDTH 8 0
BBX 7 11 0 0
BITMAP
1C
26
02
04
38
0C
04
04
04
88
70
ENDCHAR
STARTCHAR four
ENCODING 52
SWIDTH 500 0
DWIDTH 8 0
BBX 7 11 0 0
BITMAP
02
06
0A
16
24
44
88
FE
08
18
10
ENDCHAR
STARTCHAR five
ENCODING 53
SWIDTH 500 0
DWIDTH 8 0
BBX 7 11 0 0
BITMAP
1E
10
20
78
0C
04
04
04
04
88
70
ENDCHAR
STARTCHAR six
ENCODING 54
SWIDTH 500 0
DWIDTH 8 0
BBX 7 11 1 0
BITMAP
06
18
20
40
B8
C4
84
84
84
48
30
ENDCHAR
STARTCHAR seven
ENCODING 55
SWIDTH 500 0
DWIDTH 8 0
BBX 7 11 1 0
BITMAP
7E
82
04
08
08
10
20
20
40
80
80
ENDCHAR
STARTCHAR eight
ENCODING 56
SWIDTH 500 0
DWIDTH 8 0
BBX 7 11 0 0
BITMAP
1C
22
22
32
1C
38
4C
84
84
88
70
ENDCHAR
STARTCHAR nine
ENCODING 57
SWIDTH 500 0
DWIDTH 8 0
BBX 7 11 0 0
BITMAP
18
24
42
42
42
46
3A
04
08
30
C0
ENDCHAR
STARTCHAR colon
ENCODING 58
SWIDTH 333 0
DWIDTH 5 0
BBX 3 7 1 0
BITMAP
20
20
00
00
00
80
80
ENDCHAR
STARTCHAR semicolon
ENCODING 59
SWIDTH 333 0
DWIDTH 5 0
BBX 4 9 0 -2
BITMAP
10
10
00
00
00
20
20
40
80
ENDCHAR
STARTCHAR less
ENCODING 60
SWIDTH 675 0
DWIDTH 11 0
BBX 9 9 1 0
BITMAP
0180
0600
1800
6000
8000
6000
1800
0600
0180
ENDCHAR
STARTCHAR equal
ENCODING 61
SWIDTH 675 0
DWIDTH 11 0
BBX 8 4 1 2
BITMAP
FF
00
00
FF
ENDCHAR
STARTCHAR greater
ENCODING 62
SWIDTH 675 0
DWIDTH 11 0
BBX 9 9 2 0
BITMAP
C000
3000
0C00
0300
0080
0300
0C00
3000
C000
ENDCHAR
STARTCHAR question
ENCODING 63
SWIDTH 500 0
DWIDTH 8 0
BBX 5 11 2 0
BITMAP
70
88
88
08
10
20
40
40
00
80
80
ENDCHAR
STARTCHAR at
ENCODING 64
SWIDTH 920 0
DWIDTH 15 0
BBX 13 14 1 -3
BITMAP
0780
1860
2030
4350
44C8
8888
8888
9188
9190
92A0
4CC0
4000
3060
0F80
ENDCHAR
STARTCHAR A
ENCODING 65
SWIDTH 611 0
DWIDTH 10 0
BBX 10 11 -1 0
BITMAP
0080
0180
0280
0480
0880
0880
1F80
2080
2080
4080
E1C0
ENDCHAR
STARTCHAR B
ENCODING 66
SWIDTH 611 0
DWIDTH 10 0
BBX 9 11 0 0
BITMAP
1F00
0980
1880
1080
1100
3E00
2300
2100
6100
4200
FC00
ENDCHAR
STARTCHAR C
ENCODING 67
SWIDTH 667 0
DWIDTH 11 0
BBX 10 11 1 0
BITMAP
0740
18C0
2040
4000
4000
8000
8000
8000
C080
6100
3E00
ENDCHAR
STARTCHAR D
ENCODING 68
SWIDTH 722 0
DWIDTH 12 0
BBX 11 11 0 0
BITMAP
1F80
0840
1820
1020
1020
3020
2040
2040
6080
4300
FC00
ENDCHAR
STARTCHAR E
ENCODING 69
SWIDTH 611 0
DWIDTH 10 0
BBX 10 11 0 0
BITMAP
1FC0
0840
1800
1000
1100
3E00
2200
2000
6080
4180
FF00
ENDCHAR
STARTCHAR F
ENCODING 70
SWIDTH 611 0
DWIDTH 10 0
BBX 10 11 0 0
BITMAP
1FC0
0840
1800
1000
1100
3E00
2200
2000
6000
4000
E000
ENDCHAR
STARTCHAR G
ENCODING 71
SWIDTH 722 0
DWIDTH 12 0
BBX 11 11 0 0
BITMAP
0740
18C0
2040
4000
4000
81E0
80C0
8080
C080
6100
3E00
ENDCHAR
STARTCHAR H
ENCODING 72
SWIDTH 722 0
DWIDTH 12 0
BBX 12 11 0 0
BITMAP
1C70
0820
1860
1040
1040
3FC0
2080
2080
6180
4100
E380
ENDCHAR
STARTCHAR I
ENCODING 73
SWIDTH 333 0
DWIDTH 6 0
BBX 6 11 0 0
BITMAP
1C
08
18
10
10
30
20
20
60
40
E0
ENDCHAR
STARTCHAR J
ENCODING 74
SWIDTH 444 0
DWIDTH 7 0
BBX 7 11 0 0
BITMAP
0E
04
0C
08
08
18
10
10
B0
A0
40
ENDCHAR
STARTCHAR K
ENCODING 75
SWIDTH 667 0
DWIDTH 11 0
BBX 10 11 0 0
BITMAP
1DC0
0880
1900
1200
1400
3C00
2400
2600
6200
4300
E780
ENDCHAR
STARTCHAR L
ENCODING 76
SWIDTH 556 0
DWIDTH 9 0
BBX 9 11 0 0
BITMAP
1C00
0800
1800
1000
1000
3000
2000
2000
6080
4180
FF00
ENDCHAR
STARTCHAR M
ENCODING 77
SWIDTH 833 0
DWIDTH 14 0
BBX 15 11 0 0
BITMAP
1C0E
0C0C
1414
1428
1448
2498
2490
2510
4630
4620
E470
ENDCHAR
STARTCHAR N
ENCODING 78
SWIDTH 667 0
DWIDTH 11 0
BBX 13 11 -1 0
BITMAP
1838
0810
1C10
1420
1620
2220
2340
2140
41C0
4080
E080
ENDCHAR
STARTCHAR O
ENCODING 79
SWIDTH 722 0
DWIDTH 12 0
BBX 10 11 1 0
BITMAP
0E00
3180
4080
40C0
8040
8040
80C0
C080
4180
6300
1C00
ENDCHAR
STARTCHAR P
ENCODING 80
SWIDTH 611 0
DWIDTH 10 0
BBX 10 11 0 0
BITMAP
1F80
0840
1840
1040
1180
3E00
2000
2000
6000
4000
E000
ENDCHAR
STARTCHAR Q
ENCODING 81
SWIDTH 722 0
DWIDTH 12 0
BBX 10 14 1 -3
BITMAP
0600
1980
2080
40C0
4040
8040
8080
C080
4100
6600
1800
2000
7C80
8F00
ENDCHAR
STARTCHAR R
ENCODING 82
SWIDTH 611 0
DWIDTH 10 0
BBX 10 11 0 0
BITMAP
1F80
0840
1840
1040
1180
3E00
2400
2200
6300
4100
E180
ENDCHAR
STARTCHAR S
ENCODING 83
SWIDTH 500 0
DWIDTH 8 0
BBX 8 11 0 0
BITMAP
1D
33
21
30
18
0C
06
02
82
C4
B8
ENDCHAR
STARTCHAR T
ENCODING 84
SWIDTH 556 0
DWIDTH 9 0
BBX 9 11 1 0
BITMAP
FF80
8880
1800
1000
1000
3000
2000
2000
6000
4000
E000
ENDCHAR
STARTCHAR U
ENCODING 85
SWIDTH 722 0
DWIDTH 12 0
BBX 10 11 2 0
BITMAP
71C0
2080
6080
4100
4100
C100
8200
8200
8200
8400
7800
ENDCHAR
STARTCHAR V
ENCODING 86
SWIDTH 611 0
DWIDTH 10 0
BBX 10 11 1 0
BITMAP
F1C0
4080
4100
6100
6200
2400
2400
2800
3000
3000
2000
ENDCHAR
STARTCHAR W
ENCODING 87
SWIDTH 833 0
DWIDTH 14 0
BBX 15 11 0 0
BITMAP
E70E
4204
4208
6308
6710
2520
2920
3140
3180
2180
2100
ENDCHAR
STARTCHAR X
ENCODING 88
SWIDTH 611 0
DWIDTH 10 0
BBX 10 11 0 0
BITMAP
79C0
3080
1100
1A00
0A00
0C00
1400
1600
2200
4300
E780
ENDCHAR
STARTCHAR Y
ENCODING 89
SWIDTH 556 0
DWIDTH 9 0
BBX 9 11 1 0
BITMAP
E380
4100
6200
2400
2800
1000
1000
3000
2000
2000
7000
ENDCHAR
STARTCHAR Z
ENCODING 90
SWIDTH 556 0
DWIDTH 9 0
BBX 9 11 0 0
BITMAP
3F80
4300
0200
0400
0C00
0800
1800
1000
2000
6100
FE00
ENDCHAR
STARTCHAR bracketleft
ENCODING 91
SWIDTH 389 0
DWIDTH 6 0
BBX 6 14 0 -3
BITMAP
1C
10
10
30
20
20
60
40
40
40
C0
80
80
E0
ENDCHAR
STARTCHAR backslash
ENCODING 92
SWIDTH 278 0
DWIDTH 5 0
BBX 5 11 -1 0
BITMAP
80
40
40
40
20
20
20
10
10
10
08
ENDCHAR
STARTCHAR bracketright
ENCODING 93
SWIDTH 389 0
DWIDTH 6 0
BBX 6 14 0 -3
BITMAP
1C
04
04
0C
08
08
08
18
10
10
30
20
20
E0
ENDCHAR
STARTCHAR asciicircum
ENCODING 94
SWIDTH 422 0
DWIDTH 7 0
BBX 7 7 0 4
BITMAP
10
28
28
44
44
82
82
ENDCHAR
STARTCHAR underscore
ENCODING 95
SWIDTH 500 0
DWIDTH 8 0
BBX 8 1 0 -4
BITMAP
FF
ENDCHAR
STARTCHAR quoteleft
ENCODING 96
SWIDTH 333 0
DWIDTH 6 0
BBX 3 4 2 6
BITMAP
20
40
80
80
ENDCHAR
STARTCHAR a
ENCODING 97
SWIDTH 500 0
DWIDTH 8 0
BBX 7 8 0 0
BITMAP
1A
26
44
C4
8C
88
9A
64
ENDCHAR
STARTCHAR b
ENCODING 98
SWIDTH 500 0
DWIDTH 8 0
BBX 7 11 0 0
BITMAP
30
10
30
2C
32
62
42
46
C4
C8
B0
ENDCHAR
STARTCHAR c
ENCODING 99
SWIDTH 444 0
DWIDTH 7 0
BBX 6 8 0 0
BITMAP
18
64
40
C0
80
80
C8
70
ENDCHAR
STARTCHAR d
ENCODING 100
SWIDTH 500 0
DWIDTH 8 0
BBX 8 11 0 0
BITMAP
03
01
03
1A
26
44
C4
8C
8C
95
62
ENDCHAR
STARTCHAR e
ENCODING 101
SWIDTH 444 0
DWIDTH 7 0
BBX 6 8 1 0
BITMAP
18
64
44
98
E0
80
C8
70
ENDCHAR
STARTCHAR f
ENCODING 102
SWIDTH 278 0
DWIDTH 5 0
BBX 8 15 -2 -4
BITMAP
03
05
04
04
3E
08
08
18
10
10
30
20
20
A0
C0
ENDCHAR
STARTCHAR g
ENCODING 103
SWIDTH 500 0
DWIDTH 8 0
BBX 8 12 0 -4
BITMAP
1C
33
22
22
26
1C
20
38
CC
84
8C
78
ENDCHAR
STARTCHAR h
ENCODING 104
SWIDTH 500 0
DWIDTH 8 0
BBX 7 11 0 0
BITMAP
30
10
30
26
2A
72
66
44
CC
8A
8C
ENDCHAR
STARTCHAR i
ENCODING 105
SWIDTH 278 0
DWIDTH 5 0
BBX 4 11 1 0
BITMAP
10
10
00
20
60
20
60
40
C0
A0
C0
ENDCHAR
STARTCHAR j
ENCODING 106
SWIDTH 278 0
DWIDTH 5 0
BBX 7 15 -3 -4
BITMAP
02
02
00
06
02
06
04
04
0C
08
08
18
10
B0
60
ENDCHAR
STARTCHAR k
ENCODING 107
SWIDTH 444 0
DWIDTH 7 0
BBX 7 11 0 0
BITMAP
30
10
30
26
24
68
50
70
D8
8A
8C
ENDCHAR
STARTCHAR l
ENCODING 108
SWIDTH 278 0
DWIDTH 5 0
BBX 4 11 1 0
BITMAP
30
10
30
20
20
60
40
40
C0
A0
C0
ENDCHAR
STARTCHAR m
ENCODING 109
SWIDTH 722 0
DWIDTH 12 0
BBX 11 8 0 0
BITMAP
6660
2AA0
3320
6660
4440
CCC0
88A0
88C0
ENDCHAR
STARTCHAR n
ENCODING 110
SWIDTH 500 0
DWIDTH 8 0
BBX 7 8 0 0
BITMAP
66
2A
32
66
44
CC
8A
8C
ENDCHAR
STARTCHAR o
ENCODING 111
SWIDTH 500 0
DWIDTH 8 0
BBX 7 8 0 0
BITMAP
1C
66
42
C2
86
84
CC
70
ENDCHAR
STARTCHAR p
ENCODING 112
SWIDTH 500 0
DWIDTH 8 0
BBX 9 12 -2 -4
BITMAP
1B00
0C80
1880
1080
1180
3100
3200
2C00
6000
4000
4000
E000
ENDCHAR
STARTCHAR q
ENCODING 113
SWIDTH 500 0
DWIDTH 8 0
BBX 7 12 0 -4
BITMAP
1A
26
44
C4
8C
88
98
68
08
18
10
38
ENDCHAR
STARTCHAR r
ENCODING 114
SWIDTH 389 0
DWIDTH 6 0
BBX 6 8 0 0
BITMAP
64
2C
30
60
40
C0
80
80
ENDCHAR
STARTCHAR s
ENCODING 115
SWIDTH 389 0
DWIDTH 6 0
BBX 5 8 0 0
BITMAP
38
48
40
60
30
10
90
E0
ENDCHAR
STARTCHAR t
ENCODING 116
SWIDTH 278 0
DWIDTH 5 0
BBX 5 10 0 0
BITMAP
10
10
78
20
60
40
40
80
A0
C0
ENDCHAR
STARTCHAR u
ENCODING 117
SWIDTH 500 0
DWIDTH 8 0
BBX 7 8 0 0
BITMAP
62
22
66
44
CC
98
AA
CC
ENDCHAR
STARTCHAR v
ENCODING 118
SWIDTH 444 0
DWIDTH 7 0
BBX 7 8 0 0
BITMAP
C6
42
42
64
64
28
30
20
ENDCHAR
STARTCHAR w
ENCODING 119
SWIDTH 667 0
DWIDTH 11 0
BBX 11 8 0 0
BITMAP
4260
C220
4620
6640
6A40
2A80
3300
2200
ENDCHAR
STARTCHAR x
ENCODING 120
SWIDTH 444 0
DWIDTH 7 0
BBX 7 8 0 0
BITMAP
66
28
18
18
18
28
2A
C4
ENDCHAR
STARTCHAR y
ENCODING 121
SWIDTH 444 0
DWIDTH 7 0
BBX 7 12 -1 -4
BITMAP
66
22
22
32
14
14
18
18
10
20
A0
C0
ENDCHAR
STARTCHAR z
ENCODING 122
SWIDTH 389 0
DWIDTH 6 0
BBX 6 8 0 0
BITMAP
7C
84
08
10
30
20
44
F8
ENDCHAR
STARTCHAR braceleft
ENCODING 123
SWIDTH 400 0
DWIDTH 7 0
BBX 6 14 1 -3
BITMAP
0C
10
20
20
20
20
C0
40
40
40
80
80
80
40
ENDCHAR
STARTCHAR bar
ENCODING 124
SWIDTH 275 0
DWIDTH 5 0
BBX 5 14 0 -3
BITMAP
08
08
10
10
10
20
20
20
40
40
40
80
80
80
ENDCHAR
STARTCHAR braceright
ENCODING 125
SWIDTH 400 0
DWIDTH 7 0
BBX 6 14 -1 -3
BITMAP
08
04
04
04
08
08
08
0C
10
10
10
10
20
C0
ENDCHAR
STARTCHAR asciitilde
ENCODING 126
SWIDTH 541 0
DWIDTH 9 0
BBX 8 3 0 3
BITMAP
70
99
0E
ENDCHAR
STARTCHAR space
ENCODING 160
SWIDTH 250 0
DWIDTH 4 0
BBX 1 1 0 0
BITMAP
00
ENDCHAR
STARTCHAR exclamdown
ENCODING 161
SWIDTH 389 0
DWIDTH 6 0
BBX 4 11 1 -3
BITMAP
10
10
00
20
20
60
40
40
C0
80
80
ENDCHAR
STARTCHAR cent
ENCODING 162
SWIDTH 500 0
DWIDTH 8 0
BBX 6 10 0 -1
BITMAP
08
1C
6C
50
D0
A0
A0
E8
70
40
ENDCHAR
STARTCHAR sterling
ENCODING 163
SWIDTH 500 0
DWIDTH 8 0
BBX 8 11 -1 0
BITMAP
06
0D
08
18
10
3C
10
10
71
96
6C
ENDCHAR
STARTCHAR currency
ENCODING 164
SWIDTH 500 0
DWIDTH 8 0
BBX 6 7 1 2
BITMAP
B4
78
CC
84
CC
78
B4
ENDCHAR
STARTCHAR yen
ENCODING 165
SWIDTH 500 0
DWIDTH 8 0
BBX 9 11 1 0
BITMAP
E380
4100
6200
2400
2800
FC00
2000
F800
4000
4000
E000
ENDCHAR
STARTCHAR brokenbar
ENCODING 166
SWIDTH 275 0
DWIDTH 5 0
BBX 5 14 0 -3
BITMAP
08
10
10
10
20
20
00
00
40
40
40
80
80
80
ENDCHAR
STARTCHAR section
ENCODING 167
SWIDTH 500 0
DWIDTH 8 0
BBX 7 13 0 -1
BITMAP
1C
22
22
30
58
4C
44
64
38
08
88
88
70
ENDCHAR
STARTCHAR dieresis
ENCODING 168
SWIDTH 333 0
DWIDTH 6 0
BBX 3 2 1 9
BITMAP
A0
A0
ENDCHAR
STARTCHAR copyright
ENCODING 169
SWIDTH 760 0
DWIDTH 13 0
BBX 12 11 1 0
BITMAP
0F00
30C0
4620
4920
9010
9010
9010
4920
4620
30C0
0F00
ENDCHAR
STARTCHAR ordfeminine
ENCODING 170
SWIDTH 276 0
DWIDTH 5 0
BBX 5 6 0 5
BITMAP
70
90
B0
D8
00
F8
ENDCHAR
STARTCHAR guillemotleft
ENCODING 171
SWIDTH 500 0
DWIDTH 8 0
BBX 7 6 0 0
BITMAP
12
24
48
90
48
24
ENDCHAR
STARTCHAR logicalnot
ENCODING 172
SWIDTH 675 0
DWIDTH 11 0
BBX 8 5 1 1
BITMAP
FF
01
01
01
01
ENDCHAR
STARTCHAR hyphen
ENCODING 173
SWIDTH 333 0
DWIDTH 5 0
BBX 4 1 0 3
BITMAP
F0
ENDCHAR
STARTCHAR registered
ENCODING 174
SWIDTH 760 0
DWIDTH 13 0
BBX 12 11 1 0
BITMAP
0F00
30C0
4F20
48A0
8890
8F10
8910
48A0
48A0
30C0
0F00
ENDCHAR
STARTCHAR macron
ENCODING 175
SWIDTH 333 0
DWIDTH 6 0
BBX 4 1 1 9
BITMAP
F0
ENDCHAR
STARTCHAR degree
ENCODING 176
SWIDTH 400 0
DWIDTH 7 0
BBX 5 5 1 6
BITMAP
70
88
88
88
70
ENDCHAR
STARTCHAR plusminus
ENCODING 177
SWIDTH 675 0
DWIDTH 11 0
BBX 9 11 1 0
BITMAP
0800
0800
0800
0800
FF80
0800
0800
0800
0800
0000
FF80
ENDCHAR
STARTCHAR twosuperior
ENCODING 178
SWIDTH 300 0
DWIDTH 5 0
BBX 5 7 0 4
BITMAP
30
48
08
10
20
48
F0
ENDCHAR
STARTCHAR threesuperior
ENCODING 179
SWIDTH 300 0
DWIDTH 5 0
BBX 5 7 0 4
BITMAP
30
48
08
30
08
88
70
ENDCHAR
STARTCHAR acute
ENCODING 180
SWIDTH 333 0
DWIDTH 6 0
BBX 3 3 1 9
BITMAP
60
40
80
ENDCHAR
STARTCHAR mu
ENCODING 181
SWIDTH 500 0
DWIDTH 8 0
BBX 8 12 -1 -4
BITMAP
31
11
33
22
66
4C
55
66
C0
80
80
80
ENDCHAR
STARTCHAR paragraph
ENCODING 182
SWIDTH 523 0
DWIDTH 9 0
BBX 8 14 1 -3
BITMAP
0F
32
74
F4
F4
E4
68
28
28
48
50
50
90
A0
ENDCHAR
STARTCHAR periodcentered
ENCODING 183
SWIDTH 250 0
DWIDTH 4 0
BBX 1 2 2 3
BITMAP
80
80
ENDCHAR
STARTCHAR cedilla
ENCODING 184
SWIDTH 333 0
DWIDTH 6 0
BBX 4 4 1 -3
BITMAP
20
20
90
60
ENDCHAR
STARTCHAR onesuperior
ENCODING 185
SWIDTH 300 0
DWIDTH 5 0
BBX 3 7 1 4
BITMAP
20
60
20
20
40
40
E0
ENDCHAR
STARTCHAR ordmasculine
ENCODING 186
SWIDTH 310 0
DWIDTH 5 0
BBX 4 6 0 5
BITMAP
70
90
90
E0
00
F0
ENDCHAR
STARTCHAR guillemotright
ENCODING 187
SWIDTH 500 0
DWIDTH 8 0
BBX 7 6 0 0
BITMAP
48
24
12
24
48
90
ENDCHAR
STARTCHAR onequarter
ENCODING 188
SWIDTH 750 0
DWIDTH 13 0
BBX 11 11 1 0
BITMAP
2080
6100
2100
2200
4220
4460
E4E0
0940
0A40
13E0
1080
ENDCHAR
STARTCHAR onehalf
ENCODING 189
SWIDTH 750 0
DWIDTH 13 0
BBX 12 11 0 0
BITMAP
2080
6100
2100
2200
4260
4490
E410
0820
0840
1090
11E0
ENDCHAR
STARTCHAR threequarters
ENCODING 190
SWIDTH 750 0
DWIDTH 13 0
BBX 12 11 0 0
BITMAP
3040
4880
0880
3100
0910
8A30
7270
04A0
0520
09F0
0840
ENDCHAR
STARTCHAR questiondown
ENCODING 191
SWIDTH 500 0
DWIDTH 8 0
BBX 5 11 1 -3
BITMAP
08
08
00
10
10
20
40
80
88
88
70
ENDCHAR
STARTCHAR Agrave
ENCODING 192
SWIDTH 611 0
DWIDTH 10 0
BBX 10 15 -1 0
BITMAP
0300
0100
0080
0000
0080
0180
0280
0480
0880
0880
1F80
2080
2080
4080
E1C0
ENDCHAR
STARTCHAR Aacute
ENCODING 193
SWIDTH 611 0
DWIDTH 10 0
BBX 11 15 -1 0
BITMAP
0060
0040
0080
0000
0080
0180
0280
0480
0880
0880
1F80
2080
2080
4080
E1C0
ENDCHAR
STARTCHAR Acircumflex
ENCODING 194
SWIDTH 611 0
DWIDTH 10 0
BBX 11 15 -1 0
BITMAP
0080
01C0
0220
0000
0080
0180
0280
0480
0880
0880
1F80
2080
2080
4080
E1C0
ENDCHAR
STARTCHAR Atilde
ENCODING 195
SWIDTH 611 0
DWIDTH 10 0
BBX 12 14 -1 0
BITMAP
0190
0260
0000
0080
0180
0280
0480
0880
0880
1F80
2080
2080
4080
E1C0
ENDCHAR
STARTCHAR Adieresis
ENCODING 196
SWIDTH 611 0
DWIDTH 10 0
BBX 11 14 -1 0
BITMAP
0220
0220
0000
0080
0180
0280
0480
0880
0880
1F80
2080
2080
4080
E1C0
ENDCHAR
STARTCHAR Aring
ENCODING 197
SWIDTH 611 0
DWIDTH 10 0
BBX 11 15 -1 0
BITMAP
00C0
0120
0120
00C0
0080
0180
0280
0480
0880
0880
1F80
2080
2080
4080
E1C0
ENDCHAR
STARTCHAR AE
ENCODING 198
SWIDTH 889 0
DWIDTH 15 0
BBX 16 11 -1 0
BITMAP
01FF
00E1
0160
0240
0444
08F8
1F88
1080
2182
4106
E3FC
ENDCHAR
STARTCHAR Ccedilla
ENCODING 199
SWIDTH 667 0
DWIDTH 11 0
BBX 10 14 1 -3
BITMAP
0740
18C0
2040
4000
4000
8000
8000
8000
C080
6100
3E00
0800
2400
1800
ENDCHAR
STARTCHAR Egrave
ENCODING 200
SWIDTH 611 0
DWIDTH 10 0
BBX 10 15 0 0
BITMAP
0600
0200
0100
0000
1FC0
0840
1800
1000
1100
3E00
2200
2000
6080
4180
FF00
ENDCHAR
STARTCHAR Eacute
ENCODING 201
SWIDTH 611 0
DWIDTH 10 0
BBX 10 15 0 0
BITMAP
0180
0100
0200
0000
1FC0
0840
1800
1000
1100
3E00
2200
2000
6080
4180
FF00
ENDCHAR
STARTCHAR Ecircumflex
ENCODING 202
SWIDTH 611 0
DWIDTH 10 0
BBX 10 15 0 0
BITMAP
0100
0380
0440
0000
1FC0
0840
1800
1000
1100
3E00
2200
2000
6080
4180
FF00
ENDCHAR
STARTCHAR Edieresis
ENCODING 203
SWIDTH 611 0
DWIDTH 10 0
BBX 10 14 0 0
BITMAP
0480
0480
0000
1FC0
0840
1800
1000
1100
3E00
2200
2000
6080
4180
FF00
ENDCHAR
STARTCHAR Igrave
ENCODING 204
SWIDTH 333 0
DWIDTH 6 0
BBX 6 15 0 0
BITMAP
18
08
04
00
1C
08
18
10
10
30
20
20
60
40
E0
ENDCHAR
STARTCHAR Iacute
ENCODING 205
SWIDTH 333 0
DWIDTH 6 0
BBX 7 15 0 0
BITMAP
06
04
08
00
1C
08
18
10
10
30
20
20
60
40
E0
ENDCHAR
STARTCHAR Icircumflex
ENCODING 206
SWIDTH 333 0
DWIDTH 6 0
BBX 8 15 0 0
BITMAP
04
0E
11
00
1C
08
18
10
10
30
20
20
60
40
E0
ENDCHAR
STARTCHAR Idieresis
ENCODING 207
SWIDTH 333 0
DWIDTH 6 0
BBX 7 14 0 0
BITMAP
12
12
00
1C
08
18
10
10
30
20
20
60
40
E0
ENDCHAR
STARTCHAR Eth
ENCODING 208
SWIDTH 722 0
DWIDTH 12 0
BBX 11 11 0 0
BITMAP
1F80
0840
1820
1020
1020
7820
2040
2040
6080
4300
FC00
ENDCHAR
STARTCHAR Ntilde
ENCODING 209
SWIDTH 667 0
DWIDTH 11 0
BBX 13 14 -1 0
BITMAP
0320
04C0
0000
1838
0810
1C10
1420
1620
2220
2340
2140
41C0
4080
E080
ENDCHAR
STARTCHAR Ograve
ENCODING 210
SWIDTH 722 0
DWIDTH 12 0
BBX 10 15 1 0
BITMAP
0C00
0400
0200
0000
0E00
3180
4080
40C0
8040
8040
80C0
C080
4180
6300
1C00
ENDCHAR
STARTCHAR Oacute
ENCODING 211
SWIDTH 722 0
DWIDTH 12 0
BBX 10 15 1 0
BITMAP
0300
0200
0400
0000
0E00
3180
4080
40C0
8040
8040
80C0
C080
4180
6300
1C00
ENDCHAR
STARTCHAR Ocircumflex
ENCODING 212
SWIDTH 722 0
DWIDTH 12 0
BBX 10 15 1 0
BITMAP
0200
0700
0880
0000
0E00
3180
4080
40C0
8040
8040
80C0
C080
4180
6300
1C00
ENDCHAR
STARTCHAR Otilde
ENCODING 213
SWIDTH 722 0
DWIDTH 12 0
BBX 10 14 1 0
BITMAP
0C80
1300
0000
0E00
3180
4080
40C0
8040
8040
80C0
C080
4180
6300
1C00
ENDCHAR
STARTCHAR Odieresis
ENCODING 214
SWIDTH 722 0
DWIDTH 12 0
BBX 10 14 1 0
BITMAP
0900
0900
0000
0E00
3180
4080
40C0
8040
8040
80C0
C080
4180
6300
1C00
ENDCHAR
STARTCHAR multiply
ENCODING 215
SWIDTH 675 0
DWIDTH 11 0
BBX 9 9 1 0
BITMAP
8080
4100
2200
1400
0800
1400
2200
4100
8080
ENDCHAR
STARTCHAR Oslash
ENCODING 216
SWIDTH 722 0
DWIDTH 12 0
BBX 10 13 1 -1
BITMAP
0080
0700
1980
2280
44C0
4440
8840
8880
D080
5100
6600
3800
4000
ENDCHAR
STARTCHAR Ugrave
ENCODING 217
SWIDTH 722 0
DWIDTH 12 0
BBX 10 15 2 0
BITMAP
0C00
0400
0200
0000
71C0
2080
6080
4100
4100
C100
8200
8200
8200
8400
7800
ENDCHAR
STARTCHAR Uacute
ENCODING 218
SWIDTH 722 0
DWIDTH 12 0
BBX 10 15 2 0
BITMAP
0300
0200
0400
0000
71C0
2080
6080
4100
4100
C100
8200
8200
8200
8400
7800
ENDCHAR
STARTCHAR Ucircumflex
ENCODING 219
SWIDTH 722 0
DWIDTH 12 0
BBX 10 15 2 0
BITMAP
0200
0700
0880
0000
71C0
2080
6080
4100
4100
C100
8200
8200
8200
8400
7800
ENDCHAR
STARTCHAR Udieresis
ENCODING 220
SWIDTH 722 0
DWIDTH 12 0
BBX 10 14 2 0
BITMAP
1100
1100
0000
71C0
2080
6080
4100
4100
C100
8200
8200
8200
8400
7800
ENDCHAR
STARTCHAR Yacute
ENCODING 221
SWIDTH 556 0
DWIDTH 9 0
BBX 9 15 1 0
BITMAP
0300
0200
0400
0000
E380
4100
6200
2400
2800
1000
1000
3000
2000
2000
7000
ENDCHAR
STARTCHAR Thorn
ENCODING 222
SWIDTH 611 0
DWIDTH 10 0
BBX 10 11 0 0
BITMAP
1C00
0800
1F80
1040
1040
3040
2180
3E00
6000
4000
E000
ENDCHAR
STARTCHAR germandbls
ENCODING 223
SWIDTH 500 0
DWIDTH 8 0
BBX 10 15 -2 -4
BITMAP
0380
0640
0440
0CC0
0B00
0980
0880
1880
1080
1580
3300
2000
2000
A000
C000
ENDCHAR
STARTCHAR agrave
ENCODING 224
SWIDTH 500 0
DWIDTH 8 0
BBX 7 12 0 0
BITMAP
18
08
04
00
1A
24
44
C4
8C
88
9A
64
ENDCHAR
STARTCHAR aacute
ENCODING 225
SWIDTH 500 0
DWIDTH 8 0
BBX 7 12 0 0
BITMAP
06
04
08
00
1A
26
44
C4
8C
88
9A
64
ENDCHAR
STARTCHAR acircumflex
ENCODING 226
SWIDTH 500 0
DWIDTH 8 0
BBX 7 12 0 0
BITMAP
08
1C
22
00
1A
26
44
C4
8C
88
9A
64
ENDCHAR
STARTCHAR atilde
ENCODING 227
SWIDTH 500 0
DWIDTH 8 0
BBX 7 11 0 0
BITMAP
1A
2C
00
1A
26
44
C4
8C
88
9A
64
ENDCHAR
STARTCHAR adieresis
ENCODING 228
SWIDTH 500 0
DWIDTH 8 0
BBX 7 11 0 0
BITMAP
12
12
00
1A
26
44
C4
8C
88
9A
64
ENDCHAR
STARTCHAR aring
ENCODING 229
SWIDTH 500 0
DWIDTH 8 0
BBX 7 13 0 0
BITMAP
08
14
14
08
00
1A
26
44
C4
8C
88
9A
64
ENDCHAR
STARTCHAR ae
ENCODING 230
SWIDTH 667 0
DWIDTH 11 0
BBX 11 8 0 0
BITMAP
1AC0
6720
4620
C4C0
8F00
8C00
9440
6380
ENDCHAR
STARTCHAR ccedilla
ENCODING 231
SWIDTH 444 0
DWIDTH 7 0
BBX 6 11 1 -3
BITMAP
18
64
40
C0
80
80
C8
70
20
90
60
ENDCHAR
STARTCHAR egrave
ENCODING 232
SWIDTH 444 0
DWIDTH 7 0
BBX 6 12 1 0
BITMAP
30
10
08
00
18
64
44
98
E0
80
88
70
ENDCHAR
STARTCHAR eacute
ENCODING 233
SWIDTH 444 0
DWIDTH 7 0
BBX 6 12 1 0
BITMAP
0C
08
10
00
18
64
44
98
E0
80
88
70
ENDCHAR
STARTCHAR ecircumflex
ENCODING 234
SWIDTH 444 0
DWIDTH 7 0
BBX 7 12 1 0
BITMAP
08
1C
22
00
18
64
44
98
E0
80
88
70
ENDCHAR
STARTCHAR edieresis
ENCODING 235
SWIDTH 444 0
DWIDTH 7 0
BBX 6 11 1 0
BITMAP
24
24
00
18
64
44
98
E0
80
88
70
ENDCHAR
STARTCHAR igrave
ENCODING 236
SWIDTH 278 0
DWIDTH 5 0
BBX 4 12 1 0
BITMAP
60
20
10
00
20
60
20
60
40
C0
A0
C0
ENDCHAR
STARTCHAR iacute
ENCODING 237
SWIDTH 278 0
DWIDTH 5 0
BBX 5 12 1 0
BITMAP
18
10
20
00
20
60
20
60
40
C0
A0
C0
ENDCHAR
STARTCHAR icircumflex
ENCODING 238
SWIDTH 278 0
DWIDTH 5 0
BBX 5 12 1 0
BITMAP
20
70
88
00
20
60
20
60
40
C0
A0
C0
ENDCHAR
STARTCHAR idieresis
ENCODING 239
SWIDTH 278 0
DWIDTH 5 0
BBX 4 11 1 0
BITMAP
50
50
00
20
60
20
60
40
C0
A0
C0
ENDCHAR
STARTCHAR eth
ENCODING 240
SWIDTH 500 0
DWIDTH 8 0
BBX 7 12 0 0
BITMAP
32
0C
34
02
1A
66
42
C2
86
84
CC
70
ENDCHAR
STARTCHAR ntilde
ENCODING 241
SWIDTH 500 0
DWIDTH 8 0
BBX 7 11 0 0
BITMAP
1A
2C
00
66
2A
32
66
44
CC
8A
8C
ENDCHAR
STARTCHAR ograve
ENCODING 242
SWIDTH 500 0
DWIDTH 8 0
BBX 7 12 0 0
BITMAP
18
08
04
00
1C
66
42
C2
86
84
CC
70
ENDCHAR
STARTCHAR oacute
ENCODING 243
SWIDTH 500 0
DWIDTH 8 0
BBX 7 12 0 0
BITMAP
06
04
08
00
1C
66
42
C2
86
84
CC
70
ENDCHAR
STARTCHAR ocircumflex
ENCODING 244
SWIDTH 500 0
DWIDTH 8 0
BBX 7 12 0 0
BITMAP
08
1C
22
00
1C
66
42
C2
86
84
CC
70
ENDCHAR
STARTCHAR otilde
ENCODING 245
SWIDTH 500 0
DWIDTH 8 0
BBX 7 11 0 0
BITMAP
1A
2C
00
1C
66
42
C2
86
84
CC
70
ENDCHAR
STARTCHAR odieresis
ENCODING 246
SWIDTH 500 0
DWIDTH 8 0
BBX 7 11 0 0
BITMAP
12
12
00
1C
66
42
C2
86
84
CC
70
ENDCHAR
STARTCHAR divide
ENCODING 247
SWIDTH 675 0
DWIDTH 11 0
BBX 7 7 2 1
BITMAP
10
10
00
FE
00
10
10
ENDCHAR
STARTCHAR oslash
ENCODING 248
SWIDTH 500 0
DWIDTH 8 0
BBX 7 10 0 -1
BITMAP
02
1C
66
4A
D2
96
A4
CC
70
80
ENDCHAR
STARTCHAR ugrave
ENCODING 249
SWIDTH 500 0
DWIDTH 8 0
BBX 7 12 0 0
BITMAP
18
08
04
00
62
22
66
44
CC
98
AA
CC
ENDCHAR
STARTCHAR uacute
ENCODING 250
SWIDTH 500 0
DWIDTH 8 0
BBX 7 12 0 0
BITMAP
06
04
08
00
62
22
66
44
CC
98
AA
CC
ENDCHAR
STARTCHAR ucircumflex
ENCODING 251
SWIDTH 500 0
DWIDTH 8 0
BBX 7 12 0 0
BITMAP
08
1C
22
00
62
22
66
44
CC
98
AA
CC
ENDCHAR
STARTCHAR udieresis
ENCODING 252
SWIDTH 500 0
DWIDTH 8 0
BBX 7 11 0 0
BITMAP
12
12
00
62
22
66
44
CC
98
AA
CC
ENDCHAR
STARTCHAR yacute
ENCODING 253
SWIDTH 444 0
DWIDTH 7 0
BBX 7 16 0 -4
BITMAP
0C
08
10
00
66
22
22
32
14
14
18
18
10
20
A0
C0
ENDCHAR
STARTCHAR thorn
ENCODING 254
SWIDTH 500 0
DWIDTH 8 0
BBX 9 15 -2 -4
BITMAP
0C00
0400
0800
0B00
0C80
1880
1080
1180
1100
3200
2C00
2000
6000
4000
E000
ENDCHAR
STARTCHAR ydieresis
ENCODING 255
SWIDTH 444 0
DWIDTH 7 0
BBX 7 15 0 -4
BITMAP
12
12
00
66
22
22
32
14
14
18
18
10
20
A0
C0
ENDCHAR
STARTCHAR Lslash
ENCODING -1
SWIDTH 556 0
DWIDTH 9 0
BBX 9 11 0 0
BITMAP
1C00
0800
1800
1400
1800
7000
A000
2000
6080
4180
FF00
ENDCHAR
STARTCHAR OE
ENCODING -1
SWIDTH 944 0
DWIDTH 16 0
BBX 15 11 0 0
BITMAP
07FE
18C2
20C0
4080
4088
81F0
8110
C100
4304
620C
1FF8
ENDCHAR
STARTCHAR Scaron
ENCODING -1
SWIDTH 500 0
DWIDTH 8 0
BBX 8 13 0 0
BITMAP
11
0E
04
00
1D
33
21
1C
06
02
82
C4
B8
ENDCHAR
STARTCHAR Ydieresis
ENCODING -1
SWIDTH 556 0
DWIDTH 9 0
BBX 9 12 1 0
BITMAP
1400
1400
0000
E380
4100
2200
2400
1800
1000
2000
2000
7000
ENDCHAR
STARTCHAR Zcaron
ENCODING -1
SWIDTH 556 0
DWIDTH 9 0
BBX 9 13 0 0
BITMAP
1100
0E00
0400
0000
3F80
4300
0200
0400
0800
1000
2000
6100
FE00
ENDCHAR
STARTCHAR breve
ENCODING -1
SWIDTH 333 0
DWIDTH 6 0
BBX 5 2 0 9
BITMAP
88
70
ENDCHAR
STARTCHAR bullet
ENCODING -1
SWIDTH 350 0
DWIDTH 6 0
BBX 4 4 1 3
BITMAP
60
F0
F0
60
ENDCHAR
STARTCHAR caron
ENCODING -1
SWIDTH 333 0
DWIDTH 6 0
BBX 5 3 1 9
BITMAP
88
70
20
ENDCHAR
STARTCHAR circumflex
ENCODING -1
SWIDTH 333 0
DWIDTH 6 0
BBX 5 3 0 9
BITMAP
20
70
88
ENDCHAR
STARTCHAR dagger
ENCODING -1
SWIDTH 500 0
DWIDTH 8 0
BBX 6 13 1 -1
BITMAP
08
08
10
FC
20
20
20
60
40
40
40
80
80
ENDCHAR
STARTCHAR daggerdbl
ENCODING -1
SWIDTH 500 0
DWIDTH 8 0
BBX 8 13 0 -1
BITMAP
04
04
08
7F
08
08
18
10
10
FE
20
20
20
ENDCHAR
STARTCHAR dotaccent
ENCODING -1
SWIDTH 333 0
DWIDTH 6 0
BBX 1 2 2 9
BITMAP
80
80
ENDCHAR
STARTCHAR dotlessi
ENCODING -1
SWIDTH 278 0
DWIDTH 5 0
BBX 3 8 1 0
BITMAP
20
60
20
60
40
C0
A0
C0
ENDCHAR
STARTCHAR ellipsis
ENCODING -1
SWIDTH 889 0
DWIDTH 11 0
BBX 9 2 1 0
BITMAP
8880
8880
ENDCHAR
STARTCHAR emdash
ENCODING -1
SWIDTH 889 0
DWIDTH 14 0
BBX 14 1 0 3
BITMAP
FFFC
ENDCHAR
STARTCHAR endash
ENCODING -1
SWIDTH 500 0
DWIDTH 8 0
BBX 8 1 0 3
BITMAP
FF
ENDCHAR
STARTCHAR fi
ENCODING -1
SWIDTH 500 0
DWIDTH 8 0
BBX 9 15 -2 -4
BITMAP
0300
0500
0400
0400
3F80
0880
0980
1900
1300
1280
3300
2000
2000
A000
C000
ENDCHAR
STARTCHAR fl
ENCODING -1
SWIDTH 500 0
DWIDTH 8 0
BBX 10 15 -2 -4
BITMAP
03C0
0640
04C0
0480
3F80
0980
0900
1900
1300
1280
3300
2000
2000
A000
C000
ENDCHAR
STARTCHAR florin
ENCODING -1
SWIDTH 500 0
DWIDTH 8 0
BBX 8 15 -1 -4
BITMAP
03
05
04
04
3E
08
08
18
10
10
30
20
20
A0
C0
ENDCHAR
STARTCHAR fraction
ENCODING -1
SWIDTH 167 0
DWIDTH 3 0
BBX 6 11 -1 0
BITMAP
04
04
08
08
10
10
20
20
40
40
80
ENDCHAR
STARTCHAR grave
ENCODING -1
SWIDTH 333 0
DWIDTH 6 0
BBX 3 3 1 9
BITMAP
C0
40
20
ENDCHAR
STARTCHAR guilsinglleft
ENCODING -1
SWIDTH 333 0
DWIDTH 6 0
BBX 4 6 0 0
BITMAP
10
20
40
80
40
20
ENDCHAR
STARTCHAR guilsinglright
ENCODING -1
SWIDTH 333 0
DWIDTH 6 0
BBX 4 6 1 0
BITMAP
40
20
10
20
40
80
ENDCHAR
STARTCHAR hungarumlaut
ENCODING -1
SWIDTH 333 0
DWIDTH 6 0
BBX 6 3 0 9
BITMAP
6C
48
90
ENDCHAR
STARTCHAR lslash
ENCODING -1
SWIDTH 278 0
DWIDTH 5 0
BBX 4 11 1 0
BITMAP
30
10
30
20
20
70
C0
40
C0
A0
C0
ENDCHAR
STARTCHAR oe
ENCODING -1
SWIDTH 667 0
DWIDTH 11 0
BBX 11 8 0 0
BITMAP
1CC0
6720
4220
C2C0
8700
8400
CC40
7380
ENDCHAR
STARTCHAR ogonek
ENCODING -1
SWIDTH 333 0
DWIDTH 6 0
BBX 4 4 0 -3
BITMAP
40
80
90
E0
ENDCHAR
STARTCHAR perthousand
ENCODING -1
SWIDTH 1000 0
DWIDTH 17 0
BBX 17 11 0 0
BITMAP
308000
4F0000
890000
8A0000
920000
64C300
052480
0A2880
0A2880
124900
118600
ENDCHAR
STARTCHAR quotedblbase
ENCODING -1
SWIDTH 556 0
DWIDTH 9 0
BBX 6 4 0 -2
BITMAP
24
24
48
90
ENDCHAR
STARTCHAR quotedblleft
ENCODING -1
SWIDTH 556 0
DWIDTH 9 0
BBX 6 4 2 6
BITMAP
24
48
90
90
ENDCHAR
STARTCHAR quotedblright
ENCODING -1
SWIDTH 556 0
DWIDTH 9 0
BBX 6 4 0 6
BITMAP
24
24
48
90
ENDCHAR
STARTCHAR quotesinglbase
ENCODING -1
SWIDTH 333 0
DWIDTH 6 0
BBX 3 4 1 -2
BITMAP
20
20
40
80
ENDCHAR
STARTCHAR quotesingle
ENCODING -1
SWIDTH 214 0
DWIDTH 4 0
BBX 3 4 0 6
BITMAP
20
60
40
80
ENDCHAR
STARTCHAR ring
ENCODING -1
SWIDTH 333 0
DWIDTH 6 0
BBX 3 4 1 8
BITMAP
40
A0
A0
40
ENDCHAR
STARTCHAR scaron
ENCODING -1
SWIDTH 389 0
DWIDTH 6 0
BBX 6 12 0 0
BITMAP
44
38
10
00
38
48
40
60
30
10
90
E0
ENDCHAR
STARTCHAR tilde
ENCODING -1
SWIDTH 333 0
DWIDTH 6 0
BBX 5 2 0 9
BITMAP
68
B0
ENDCHAR
STARTCHAR trademark
ENCODING -1
SWIDTH 980 0
DWIDTH 16 0
BBX 16 7 0 4
BITMAP
FEC3
92C6
10A6
10AA
10AA
1092
39D7
ENDCHAR
STARTCHAR zcaron
ENCODING -1
SWIDTH 389 0
DWIDTH 6 0
BBX 6 12 0 0
BITMAP
44
38
10
00
7C
84
08
10
30
20
44
F8
ENDCHAR
ENDFONT
