STARTFONT 2.1
FONT -Adobe-Times-Medium-R-Normal--34-240-100-100-P-170-ISO8859-1
SIZE 24 100 100
FONTBOUNDINGBOX 37 37 -4 -7
COMMENT $XConsortium: timR24.bdf,v 1.7 95/01/26 17:59:41 gildea Exp $
COMMENT 
COMMENT +
COMMENT  Copyright 1984-1989, 1994 Adobe Systems Incorporated.
COMMENT  Copyright 1988, 1994 Digital Equipment Corporation.
COMMENT
COMMENT  Adobe is a trademark of Adobe Systems Incorporated which may be
COMMENT  registered in certain jurisdictions.
COMMENT  Permission to use these trademarks is hereby granted only in
COMMENT  association with the images described in this file.
COMMENT
COMMENT  Permission to use, copy, modify, distribute and sell this software
COMMENT  and its documentation for any purpose and without fee is hereby
COMMENT  granted, provided that the above copyright notices appear in all
COMMENT  copies and that both those copyright notices and this permission
COMMENT  notice appear in supporting documentation, and that the names of
COMMENT  Adobe Systems and Digital Equipment Corporation not be used in
COMMENT  advertising or publicity pertaining to distribution of the software
COMMENT  without specific, written prior permission.  Adobe Systems and
COMMENT  Digital Equipment Corporation make no representations about the
COMMENT  suitability of this software for any purpose.  It is provided "as
COMMENT  is" without express or implied warranty.
COMMENT -
STARTPROPERTIES 28
FOUNDRY "Adobe"
FAMILY_NAME "Times"
WEIGHT_NAME "Medium"
SLANT "R"
SETWIDTH_NAME "Normal"
ADD_STYLE_NAME ""
PIXEL_SIZE 34
POINT_SIZE 240
RESOLUTION_X 100
RESOLUTION_Y 100
SPACING "P"
AVERAGE_WIDTH 170
CHARSET_REGISTRY "ISO8859"
CHARSET_ENCODING "1"
CAP_HEIGHT 23
X_HEIGHT 15
FONT_ASCENT 27
FONT_DESCENT 7
FACE_NAME "Times Roman"
COPYRIGHT "Copyright (c) 1984, 1987 Adobe Systems Incorporated. All Rights Reserved. Copyright (c) 1988, 1991 Digital Equipment Corporation. All Rights Reserved."
NOTICE "Times is a trademark of Linotype-Hell AG and/or its subsidiaries."
_DEC_DEVICE_FONTNAMES "PS=Times-Roman"
_DEC_PRODUCTINFO "DECwindows Fonts V2.2, 07-Nov-1991"
DEFAULT_CHAR 32
RELATIVE_SETWIDTH 50
RELATIVE_WEIGHT 50
CHARSET_COLLECTIONS "ASCII ISO8859-1 ADOBE-STANDARD"
FULL_NAME "Times Roman"
ENDPROPERTIES
CHARS 229
STARTCHAR space
ENCODING 32
SWIDTH 250 0
DWIDTH 8 0
BBX 1 1 0 0
BITMAP
00
ENDCHAR
STARTCHAR exclam
ENCODING 33
SWIDTH 333 0
DWIDTH 11 0
BBX 4 23 3 0
BITMAP
60
F0
F0
F0
F0
F0
60
60
60
60
60
60
60
60
60
60
60
00
00
60
F0
F0
60
ENDCHAR
STARTCHAR quotedbl
ENCODING 34
SWIDTH 408 0
DWIDTH 14 0
BBX 9 7 2 16
BITMAP
E380
E380
E380
E380
4100
4100
4100
ENDCHAR
STARTCHAR numbersign
ENCODING 35
SWIDTH 500 0
DWIDTH 17 0
BBX 16 23 0 0
BITMAP
0618
0618
0618
0618
0618
0618
0618
0618
7FFF
7FFF
0C30
0C30
0C30
0C30
FFFE
FFFE
1860
1860
1860
1860
1860
1860
1860
ENDCHAR
STARTCHAR dollar
ENCODING 36
SWIDTH 500 0
DWIDTH 16 0
BBX 13 28 2 -3
BITMAP
0200
0200
0FC0
3A70
3238
6218
6208
6208
7200
7A00
3E00
3F00
1F80
07C0
03E0
02F0
0270
0238
0238
8218
8218
C238
E230
7260
1FC0
0200
0200
0200
ENDCHAR
STARTCHAR percent
ENCODING 37
SWIDTH 833 0
DWIDTH 27 0
BBX 23 23 2 0
BITMAP
0F0040
1D83C0
38FC80
704180
704300
E04200
E04600
E0C400
C08C00
C18800
C11878
6610EC
3C31C6
006382
004382
00C702
008702
018706
010604
03060C
020608
060330
0401E0
ENDCHAR
STARTCHAR ampersand
ENCODING 38
SWIDTH 778 0
DWIDTH 26 0
BBX 23 23 2 0
BITMAP
00F800
018C00
030E00
030600
070600
070600
070C00
078C00
039800
03F1FC
03C070
07C060
1DE040
38F0C0
707080
607980
E03F00
E01E00
E00F00
F01F82
7833FC
7FE1F8
1F80F0
ENDCHAR
STARTCHAR quoteright
ENCODING 39
SWIDTH 333 0
DWIDTH 11 0
BBX 4 7 3 16
BITMAP
60
F0
F0
70
10
20
40
ENDCHAR
STARTCHAR parenleft
ENCODING 40
SWIDTH 333 0
DWIDTH 11 0
BBX 8 28 2 -5
BITMAP
03
06
0C
18
38
30
70
70
60
E0
E0
E0
E0
E0
E0
E0
E0
E0
E0
60
70
70
30
38
18
0C
06
03
ENDCHAR
STARTCHAR parenright
ENCODING 41
SWIDTH 333 0
DWIDTH 11 0
BBX 8 28 1 -5
BITMAP
C0
60
30
18
1C
0C
0E
0E
06
07
07
07
07
07
07
07
07
07
07
06
0E
0E
0C
1C
18
30
60
C0
ENDCHAR
STARTCHAR asterisk
ENCODING 42
SWIDTH 500 0
DWIDTH 17 0
BBX 12 13 2 10
BITMAP
0600
0F00
0600
C630
F6F0
76E0
0F00
76E0
F6F0
C630
0600
0F00
0600
ENDCHAR
STARTCHAR plus
ENCODING 43
SWIDTH 564 0
DWIDTH 19 0
BBX 16 16 1 1
BITMAP
0180
0180
0180
0180
0180
0180
0180
FFFF
FFFF
0180
0180
0180
0180
0180
0180
0180
ENDCHAR
STARTCHAR comma
ENCODING 44
SWIDTH 250 0
DWIDTH 8 0
BBX 4 7 2 -3
BITMAP
60
F0
F0
70
10
20
40
ENDCHAR
STARTCHAR minus
ENCODING 45
SWIDTH 564 0
DWIDTH 18 0
BBX 16 2 1 8
BITMAP
FFFF
FFFF
ENDCHAR
STARTCHAR period
ENCODING 46
SWIDTH 250 0
DWIDTH 8 0
BBX 4 4 2 0
BITMAP
60
F0
F0
60
ENDCHAR
STARTCHAR slash
ENCODING 47
SWIDTH 278 0
DWIDTH 9 0
BBX 10 26 0 -3
BITMAP
00C0
00C0
0180
0180
0380
0300
0300
0300
0600
0600
0600
0E00
0C00
0C00
1C00
1800
1800
1800
3000
3000
3000
7000
6000
6000
C000
C000
ENDCHAR
STARTCHAR zero
ENCODING 48
SWIDTH 500 0
DWIDTH 16 0
BBX 14 23 1 0
BITMAP
0780
1CE0
3870
3030
7038
7038
6018
E01C
E01C
E01C
E01C
E01C
E01C
E01C
E01C
E01C
E018
7038
7038
3030
3870
1CE0
0780
ENDCHAR
STARTCHAR one
ENCODING 49
SWIDTH 500 0
DWIDTH 16 0
BBX 9 23 4 0
BITMAP
0C00
1C00
7C00
DC00
1C00
1C00
1C00
1C00
1C00
1C00
1C00
1C00
1C00
1C00
1C00
1C00
1C00
1C00
1C00
1C00
1C00
3E00
FF80
ENDCHAR
STARTCHAR two
ENCODING 50
SWIDTH 500 0
DWIDTH 16 0
BBX 15 23 0 0
BITMAP
07E0
0FF0
1CF8
303C
203C
601C
401C
001C
001C
0018
0038
0030
0060
0060
00C0
0180
0300
0600
0C02
1806
3FFC
7FF8
FFF8
ENDCHAR
STARTCHAR three
ENCODING 51
SWIDTH 500 0
DWIDTH 16 0
BBX 12 23 2 0
BITMAP
0F80
3FC0
61E0
C0E0
80E0
00E0
00C0
00C0
0180
0300
07C0
1FE0
01F0
0070
0070
0030
0030
0030
0070
0060
E0C0
F380
7F00
ENDCHAR
STARTCHAR four
ENCODING 52
SWIDTH 500 0
DWIDTH 16 0
BBX 14 23 1 0
BITMAP
0060
00E0
00E0
01E0
0160
0360
0660
0460
0C60
1860
1060
3060
6060
4060
FFFC
FFFC
FFFC
0060
0060
0060
0060
0060
0060
ENDCHAR
STARTCHAR five
ENCODING 53
SWIDTH 500 0
DWIDTH 16 0
BBX 13 23 1 0
BITMAP
0FF8
1FF0
1FE0
1000
3000
2000
7E00
7F80
7FC0
07E0
01E0
00F0
0070
0070
0030
0030
0030
0030
0060
0060
E0C0
F380
7E00
ENDCHAR
STARTCHAR six
ENCODING 54
SWIDTH 500 0
DWIDTH 16 0
BBX 14 23 1 0
BITMAP
0078
01C0
0380
0F00
1E00
1C00
3800
7800
7000
73C0
F7F0
F878
E038
E03C
E01C
E01C
E01C
E01C
701C
7018
3838
1C60
07C0
ENDCHAR
STARTCHAR seven
ENCODING 55
SWIDTH 500 0
DWIDTH 16 0
BBX 14 23 1 0
BITMAP
3FFC
7FFC
6018
C018
8038
0030
0030
0030
0060
0060
0060
00E0
00C0
00C0
01C0
0180
0180
0180
0300
0300
0300
0700
0600
ENDCHAR
STARTCHAR eight
ENCODING 56
SWIDTH 500 0
DWIDTH 16 0
BBX 13 23 2 0
BITMAP
1F80
38E0
7070
E030
E030
E030
E070
F060
7CC0
3F00
1F80
0FC0
1BE0
71F0
60F0
E078
C078
C038
C038
E038
6070
70E0
1FC0
ENDCHAR
STARTCHAR nine
ENCODING 57
SWIDTH 500 0
DWIDTH 16 0
BBX 14 23 1 0
BITMAP
0780
18E0
3070
7038
6038
E01C
E01C
E01C
E01C
E01C
F01C
701C
783C
3EFC
0FB8
0038
0070
0070
00E0
01C0
0380
0F00
7800
ENDCHAR
STARTCHAR colon
ENCODING 58
SWIDTH 278 0
DWIDTH 9 0
BBX 4 15 2 0
BITMAP
60
F0
F0
60
00
00
00
00
00
00
00
60
F0
F0
60
ENDCHAR
STARTCHAR semicolon
ENCODING 59
SWIDTH 278 0
DWIDTH 9 0
BBX 4 18 2 -3
BITMAP
60
F0
F0
60
00
00
00
00
00
00
00
60
F0
F0
70
10
20
40
ENDCHAR
STARTCHAR less
ENCODING 60
SWIDTH 564 0
DWIDTH 19 0
BBX 16 18 1 0
BITMAP
0001
0007
001F
007C
01F0
07C0
1F00
7C00
F000
F000
7C00
1F00
07C0
01F0
007C
001F
0007
0001
ENDCHAR
STARTCHAR equal
ENCODING 61
SWIDTH 564 0
DWIDTH 19 0
BBX 16 9 1 4
BITMAP
FFFF
FFFF
0000
0000
0000
0000
0000
FFFF
FFFF
ENDCHAR
STARTCHAR greater
ENCODING 62
SWIDTH 564 0
DWIDTH 19 0
BBX 16 18 2 0
BITMAP
8000
E000
F800
3E00
0F80
03E0
00F8
003E
000F
000F
003E
00F8
03E0
0F80
3E00
F800
E000
8000
ENDCHAR
STARTCHAR question
ENCODING 63
SWIDTH 444 0
DWIDTH 14 0
BBX 11 23 2 0
BITMAP
1F00
7380
C1C0
C1C0
E0E0
E0E0
60E0
01C0
01C0
0180
0380
0300
0600
0400
0C00
0800
0800
0000
0000
0C00
1E00
1E00
0C00
ENDCHAR
STARTCHAR at
ENCODING 64
SWIDTH 921 0
DWIDTH 31 0
BBX 27 28 2 -5
BITMAP
001FF000
00F83C00
01E00600
07800300
0E000180
1C0000C0
1C0000C0
38078C60
701F5C60
701C7C20
70383820
E0703820
E0703020
E0707020
E0E07060
E0E07040
E0E0E0C0
E0E0E080
70E1E180
70777300
703C3E00
38000000
18000000
1C000000
0E000000
07800600
01F03C00
007FF000
ENDCHAR
STARTCHAR A
ENCODING 65
SWIDTH 722 0
DWIDTH 24 0
BBX 22 23 1 0
BITMAP
003000
003000
007000
007800
007800
00FC00
00DC00
009C00
018E00
010E00
030F00
030700
020700
060780
060380
0FFFC0
0C03C0
1801C0
1801E0
3001E0
3000F0
7000F0
FC03FC
ENDCHAR
STARTCHAR B
ENCODING 66
SWIDTH 667 0
DWIDTH 22 0
BBX 20 23 1 0
BITMAP
FFFE00
3E0F80
1C03C0
1C01C0
1C01E0
1C00E0
1C00E0
1C01E0
1C01C0
1C03C0
1C0F80
1FFE00
1C0780
1C01E0
1C00E0
1C00F0
1C0070
1C0070
1C00F0
1C00E0
1C01E0
3E07C0
FFFF00
ENDCHAR
STARTCHAR C
ENCODING 67
SWIDTH 667 0
DWIDTH 22 0
BBX 20 23 1 0
BITMAP
01FF10
0783F0
0E00F0
1C0070
380030
380030
700010
700010
F00000
F00000
F00000
F00000
F00000
F00000
F00000
700000
700000
380000
380010
1C0030
0E0060
0783C0
01FF00
ENDCHAR
STARTCHAR D
ENCODING 68
SWIDTH 722 0
DWIDTH 24 0
BBX 22 23 1 0
BITMAP
FFFE00
3E0780
1C01C0
1C00E0
1C0070
1C0070
1C0038
1C0038
1C003C
1C003C
1C003C
1C003C
1C003C
1C003C
1C003C
1C0038
1C0038
1C0070
1C0070
1C00E0
1C01C0
3E0780
FFFE00
ENDCHAR
STARTCHAR E
ENCODING 69
SWIDTH 611 0
DWIDTH 20 0
BBX 19 23 1 0
BITMAP
FFFFC0
3E03C0
1C00C0
1C0040
1C0040
1C0000
1C0000
1C0000
1C0100
1C0100
1C0300
1FFF00
1C0300
1C0100
1C0100
1C0000
1C0000
1C0020
1C0020
1C0060
1C00C0
3E03C0
FFFFC0
ENDCHAR
STARTCHAR F
ENCODING 70
SWIDTH 556 0
DWIDTH 18 0
BBX 17 23 1 0
BITMAP
FFFF80
3E0780
1C0180
1C0080
1C0080
1C0000
1C0000
1C0000
1C0200
1C0200
1C0600
1FFE00
1C0600
1C0200
1C0200
1C0000
1C0000
1C0000
1C0000
1C0000
1C0000
3E0000
FF8000
ENDCHAR
STARTCHAR G
ENCODING 71
SWIDTH 722 0
DWIDTH 24 0
BBX 22 23 1 0
BITMAP
01FF30
0787F0
0E00F0
1C0070
380030
380030
700010
700000
F00000
F00000
F00000
F003FC
F000F8
F00070
F00070
700070
700070
380070
380070
1C0070
0E0070
0781E0
01FF80
ENDCHAR
STARTCHAR H
ENCODING 72
SWIDTH 722 0
DWIDTH 24 0
BBX 22 23 1 0
BITMAP
FF87FC
3E01F0
1C00E0
1C00E0
1C00E0
1C00E0
1C00E0
1C00E0
1C00E0
1C00E0
1C00E0
1FFFE0
1C00E0
1C00E0
1C00E0
1C00E0
1C00E0
1C00E0
1C00E0
1C00E0
1C00E0
3E01F0
FF87FC
ENDCHAR
STARTCHAR I
ENCODING 73
SWIDTH 333 0
DWIDTH 11 0
BBX 9 23 1 0
BITMAP
FF80
3E00
1C00
1C00
1C00
1C00
1C00
1C00
1C00
1C00
1C00
1C00
1C00
1C00
1C00
1C00
1C00
1C00
1C00
1C00
1C00
3E00
FF80
ENDCHAR
STARTCHAR J
ENCODING 74
SWIDTH 389 0
DWIDTH 13 0
BBX 12 23 1 0
BITMAP
1FF0
07C0
0380
0380
0380
0380
0380
0380
0380
0380
0380
0380
0380
0380
0380
0380
0380
0380
0380
C380
E300
E700
7C00
ENDCHAR
STARTCHAR K
ENCODING 75
SWIDTH 722 0
DWIDTH 24 0
BBX 23 23 1 0
BITMAP
FFC7F8
3E01E0
1C0180
1C0300
1C0600
1C0C00
1C1800
1C3000
1C6000
1CC000
1FC000
1FE000
1FF000
1E7800
1C3C00
1C1E00
1C0F00
1C0780
1C03C0
1C01E0
1C00F0
3E00F8
FFC7FE
ENDCHAR
STARTCHAR L
ENCODING 76
SWIDTH 611 0
DWIDTH 20 0
BBX 19 23 1 0
BITMAP
FF8000
3E0000
1C0000
1C0000
1C0000
1C0000
1C0000
1C0000
1C0000
1C0000
1C0000
1C0000
1C0000
1C0000
1C0000
1C0000
1C0000
1C0020
1C0020
1C0060
1C00C0
3E03C0
FFFFC0
ENDCHAR
STARTCHAR M
ENCODING 77
SWIDTH 889 0
DWIDTH 30 0
BBX 28 23 1 0
BITMAP
FC0007F0
3E0007C0
1E000F80
1F000F80
1F000B80
17001B80
17801B80
13803380
13C03380
13C02380
11E06380
11E06380
10E0C380
10F0C380
10708380
10798380
10790380
103D0380
103F0380
101E0380
101E0380
380C07C0
FE0C1FF0
ENDCHAR
STARTCHAR N
ENCODING 78
SWIDTH 722 0
DWIDTH 24 0
BBX 22 23 1 0
BITMAP
F801FC
3C0070
1E0020
1F0020
1F0020
178020
13C020
13C020
11E020
10F020
10F820
107820
103C20
101E20
101F20
100F20
1007A0
1003E0
1001E0
1001E0
1000E0
380060
FE0020
ENDCHAR
STARTCHAR O
ENCODING 79
SWIDTH 722 0
DWIDTH 24 0
BBX 22 23 1 0
BITMAP
01FE00
078780
0E01C0
1C00E0
380070
380070
700038
700038
F0003C
F0003C
F0003C
F0003C
F0003C
F0003C
F0003C
700038
700038
380070
380070
1C00E0
0E01C0
078780
01FE00
ENDCHAR
STARTCHAR P
ENCODING 80
SWIDTH 556 0
DWIDTH 18 0
BBX 17 23 1 0
BITMAP
FFF800
3C3E00
1C0F00
1C0700
1C0780
1C0380
1C0380
1C0380
1C0780
1C0700
1C0F00
1C3E00
1FF000
1C0000
1C0000
1C0000
1C0000
1C0000
1C0000
1C0000
1C0000
3E0000
FF8000
ENDCHAR
STARTCHAR Q
ENCODING 81
SWIDTH 722 0
DWIDTH 24 0
BBX 22 29 1 -6
BITMAP
01FE00
078780
0E01C0
1C00E0
380070
380070
700038
700038
F0003C
F0003C
F0003C
F0003C
F0003C
F0003C
F0003C
700038
700038
380070
380070
1C00E0
0E01C0
078780
01FE00
007C00
003E00
001F00
000F80
0003E0
00007C
ENDCHAR
STARTCHAR R
ENCODING 82
SWIDTH 667 0
DWIDTH 22 0
BBX 21 23 1 0
BITMAP
FFF800
3C3E00
1C0F00
1C0780
1C0780
1C0380
1C0380
1C0380
1C0780
1C0700
1C1E00
1FF800
1CF000
1C7800
1C3C00
1C3C00
1C1E00
1C0F00
1C0F80
1C0780
1C03C0
3E01E0
FF81F8
ENDCHAR
STARTCHAR S
ENCODING 83
SWIDTH 556 0
DWIDTH 18 0
BBX 15 23 1 0
BITMAP
07E4
1C3C
381C
700C
7004
7006
7800
7C00
3E00
1F80
0FE0
07F0
01F8
007C
003E
001E
800E
800E
C00E
E00C
701C
7C78
67F0
ENDCHAR
STARTCHAR T
ENCODING 84
SWIDTH 611 0
DWIDTH 20 0
BBX 19 23 1 0
BITMAP
FFFFE0
F0E1E0
C0E060
C0E060
80E020
80E020
00E000
00E000
00E000
00E000
00E000
00E000
00E000
00E000
00E000
00E000
00E000
00E000
00E000
00E000
00E000
01F000
07FC00
ENDCHAR
STARTCHAR U
ENCODING 85
SWIDTH 722 0
DWIDTH 24 0
BBX 22 23 1 0
BITMAP
FF81FC
3E0070
1C0020
1C0020
1C0020
1C0020
1C0020
1C0020
1C0020
1C0020
1C0020
1C0020
1C0020
1C0020
1C0020
1C0020
1C0020
1C0020
1E0060
0E0040
0F00C0
07C380
01FE00
ENDCHAR
STARTCHAR V
ENCODING 86
SWIDTH 722 0
DWIDTH 23 0
BBX 22 23 1 0
BITMAP
FF01FC
7C0070
3C0060
1E0040
1E00C0
0E00C0
0F0080
0F0180
070180
078100
038300
03C300
03C200
01C600
01E600
00E400
00EC00
007C00
007800
007800
003800
003000
001000
ENDCHAR
STARTCHAR W
ENCODING 87
SWIDTH 944 0
DWIDTH 32 0
BBX 31 23 1 0
BITMAP
FF3FE0FE
7C0F8078
3C070030
1C078030
1E078060
1E038060
0E03C060
0F03C0C0
0703E0C0
0787E0C0
0786E180
0384F180
03CCF180
03CC7300
01D87B00
01D83B00
01F83E00
00F03E00
00F01C00
00E01C00
00601C00
00600800
00400800
ENDCHAR
STARTCHAR X
ENCODING 88
SWIDTH 722 0
DWIDTH 24 0
BBX 22 23 1 0
BITMAP
FFC3FC
3F00F0
1F00E0
0F00C0
078180
078300
03C600
01E600
01EC00
00F800
007800
007800
007C00
00DE00
019E00
018F00
030F80
060780
0E03C0
0C03E0
1801E0
3801F0
FE07FC
ENDCHAR
STARTCHAR Y
ENCODING 89
SWIDTH 722 0
DWIDTH 24 0
BBX 22 23 1 0
BITMAP
FFC0FC
3F0038
1E0030
0F0060
0F80C0
078080
03C180
03C300
01E300
00F600
00FC00
007C00
003800
003800
003800
003800
003800
003800
003800
003800
003800
007C00
01FF00
ENDCHAR
STARTCHAR Z
ENCODING 90
SWIDTH 611 0
DWIDTH 20 0
BBX 19 23 1 0
BITMAP
3FFFE0
3803C0
600780
600780
400F00
401E00
001E00
003C00
007800
007800
00F000
01E000
01E000
03C000
03C000
078000
0F0000
0F0020
1E0020
3C0060
3C0060
7801C0
FFFFC0
ENDCHAR
STARTCHAR bracketleft
ENCODING 91
SWIDTH 333 0
DWIDTH 11 0
BBX 7 28 3 -5
BITMAP
FE
F0
E0
E0
E0
E0
E0
E0
E0
E0
E0
E0
E0
E0
E0
E0
E0
E0
E0
E0
E0
E0
E0
E0
E0
E0
F0
FE
ENDCHAR
STARTCHAR backslash
ENCODING 92
SWIDTH 278 0
DWIDTH 9 0
BBX 13 23 -2 0
BITMAP
C000
E000
6000
7000
3000
3800
1800
1C00
0C00
0E00
0600
0700
0300
0380
0180
01C0
00C0
00E0
0060
0070
0030
0038
0018
ENDCHAR
STARTCHAR bracketright
ENCODING 93
SWIDTH 333 0
DWIDTH 11 0
BBX 7 28 1 -5
BITMAP
FE
1E
0E
0E
0E
0E
0E
0E
0E
0E
0E
0E
0E
0E
0E
0E
0E
0E
0E
0E
0E
0E
0E
0E
0E
0E
1E
FE
ENDCHAR
STARTCHAR asciicircum
ENCODING 94
SWIDTH 469 0
DWIDTH 16 0
BBX 13 13 1 10
BITMAP
0700
0700
0F80
0D80
18C0
18C0
3060
3060
7070
6030
E038
C018
C018
ENDCHAR
STARTCHAR underscore
ENCODING 95
SWIDTH 500 0
DWIDTH 17 0
BBX 17 2 0 -5
BITMAP
FFFF80
FFFF80
ENDCHAR
STARTCHAR quoteleft
ENCODING 96
SWIDTH 333 0
DWIDTH 11 0
BBX 4 7 3 16
BITMAP
20
40
80
E0
F0
F0
60
ENDCHAR
STARTCHAR a
ENCODING 97
SWIDTH 444 0
DWIDTH 15 0
BBX 13 15 1 0
BITMAP
1F80
31C0
70E0
70E0
60E0
03E0
0EE0
18E0
30E0
60E0
E0E0
E1E0
F2E8
7EF8
3C70
ENDCHAR
STARTCHAR b
ENCODING 98
SWIDTH 500 0
DWIDTH 16 0
BBX 15 23 0 0
BITMAP
1800
F800
3800
3800
3800
3800
3800
3800
39F0
3BF8
3C7C
381C
381E
380E
380E
380E
380E
380E
380C
381C
3818
3C70
0FE0
ENDCHAR
STARTCHAR c
ENCODING 99
SWIDTH 444 0
DWIDTH 15 0
BBX 12 15 1 0
BITMAP
0F80
38C0
70E0
60E0
E060
C000
C000
C000
C000
E000
E010
7030
7C60
3FC0
1F00
ENDCHAR
STARTCHAR d
ENCODING 100
SWIDTH 500 0
DWIDTH 16 0
BBX 15 23 1 0
BITMAP
0018
00F8
0038
0038
0038
0038
0038
0038
0FB8
18F8
3078
7038
6038
E038
E038
E038
E038
E038
F038
7078
78F8
3FBE
0F30
ENDCHAR
STARTCHAR e
ENCODING 101
SWIDTH 444 0
DWIDTH 15 0
BBX 12 15 1 0
BITMAP
0F80
39C0
60E0
6070
C070
FFF0
C000
C000
C000
E000
E010
7030
7C60
3FC0
0F00
ENDCHAR
STARTCHAR f
ENCODING 102
SWIDTH 333 0
DWIDTH 11 0
BBX 12 23 0 0
BITMAP
03E0
0670
0C70
0C30
1C00
1C00
1C00
1C00
FFC0
1C00
1C00
1C00
1C00
1C00
1C00
1C00
1C00
1C00
1C00
1C00
1C00
3E00
FF80
ENDCHAR
STARTCHAR g
ENCODING 103
SWIDTH 500 0
DWIDTH 16 0
BBX 14 22 1 -7
BITMAP
0FC0
18FC
307C
7030
7030
7030
7030
3870
1CE0
0F80
1800
3000
7800
7FE0
3FF8
1FFC
600C
C00C
C01C
F038
7FE0
1F80
ENDCHAR
STARTCHAR h
ENCODING 104
SWIDTH 500 0
DWIDTH 16 0
BBX 16 23 0 0
BITMAP
1800
F800
3800
3800
3800
3800
3800
3800
39F0
3BF8
3E3C
3C1C
381C
381C
381C
381C
381C
381C
381C
381C
381C
381C
FE7F
ENDCHAR
STARTCHAR i
ENCODING 105
SWIDTH 278 0
DWIDTH 9 0
BBX 7 23 1 0
BITMAP
38
38
38
00
00
00
00
00
38
F8
38
38
38
38
38
38
38
38
38
38
38
38
FE
ENDCHAR
STARTCHAR j
ENCODING 106
SWIDTH 278 0
DWIDTH 9 0
BBX 8 30 -1 -7
BITMAP
07
07
07
00
00
00
00
00
03
1F
07
07
07
07
07
07
07
07
07
07
07
07
07
07
07
07
06
C6
EC
78
ENDCHAR
STARTCHAR k
ENCODING 107
SWIDTH 500 0
DWIDTH 16 0
BBX 16 23 0 0
BITMAP
1800
F800
3800
3800
3800
3800
3800
3800
38FE
3870
3860
38C0
3980
3F00
3E00
3F00
3B80
39C0
38E0
38F0
3878
383C
FE7F
ENDCHAR
STARTCHAR l
ENCODING 108
SWIDTH 278 0
DWIDTH 9 0
BBX 7 23 1 0
BITMAP
18
F8
38
38
38
38
38
38
38
38
38
38
38
38
38
38
38
38
38
38
38
38
FE
ENDCHAR
STARTCHAR m
ENCODING 109
SWIDTH 778 0
DWIDTH 26 0
BBX 25 15 0 0
BITMAP
18F07800
FBF9FC00
3E3F1E00
3C1E0E00
381C0E00
381C0E00
381C0E00
381C0E00
381C0E00
381C0E00
381C0E00
381C0E00
381C0E00
381C0E00
FE7F3F80
ENDCHAR
STARTCHAR n
ENCODING 110
SWIDTH 500 0
DWIDTH 16 0
BBX 16 15 0 0
BITMAP
18F0
FBF8
3C3C
381C
381C
381C
381C
381C
381C
381C
381C
381C
381C
381C
FE7F
ENDCHAR
STARTCHAR o
ENCODING 111
SWIDTH 500 0
DWIDTH 16 0
BBX 14 15 1 0
BITMAP
0780
18E0
3070
7038
6038
E01C
E01C
E01C
E01C
E01C
7018
7038
3830
1C60
0780
ENDCHAR
STARTCHAR p
ENCODING 112
SWIDTH 500 0
DWIDTH 17 0
BBX 15 22 0 -7
BITMAP
19E0
FBF8
3C7C
381C
381E
380E
380E
380E
380E
380E
380C
381C
3C18
3E70
3BC0
3800
3800
3800
3800
3800
3800
FF00
ENDCHAR
STARTCHAR q
ENCODING 113
SWIDTH 500 0
DWIDTH 17 0
BBX 15 22 1 -7
BITMAP
0FC8
1C78
3038
7038
6038
E038
E038
E038
E038
E038
F038
7078
78F8
3FB8
1F38
0038
0038
0038
0038
0038
0038
01FE
ENDCHAR
STARTCHAR r
ENCODING 114
SWIDTH 333 0
DWIDTH 11 0
BBX 10 15 1 0
BITMAP
1980
FBC0
3FC0
3C00
3800
3800
3800
3800
3800
3800
3800
3800
3800
3800
FE00
ENDCHAR
STARTCHAR s
ENCODING 115
SWIDTH 389 0
DWIDTH 13 0
BBX 10 15 1 0
BITMAP
3E80
6380
C180
C080
E080
F000
7C00
3F00
0F80
03C0
81C0
80C0
C0C0
E180
BF00
ENDCHAR
STARTCHAR t
ENCODING 116
SWIDTH 278 0
DWIDTH 9 0
BBX 9 19 0 0
BITMAP
0800
0800
1800
3800
FF00
3800
3800
3800
3800
3800
3800
3800
3800
3800
3800
3800
3880
3F00
1C00
ENDCHAR
STARTCHAR u
ENCODING 117
SWIDTH 500 0
DWIDTH 17 0
BBX 16 15 0 0
BITMAP
F87C
381C
381C
381C
381C
381C
381C
381C
381C
381C
381C
383C
3C5C
1FDF
0F8C
ENDCHAR
STARTCHAR v
ENCODING 118
SWIDTH 500 0
DWIDTH 17 0
BBX 15 15 1 0
BITMAP
FE3E
780C
3808
3C18
1C18
1C10
0E30
0E20
0760
0740
07C0
03C0
0380
0180
0100
ENDCHAR
STARTCHAR w
ENCODING 119
SWIDTH 722 0
DWIDTH 24 0
BBX 21 15 1 0
BITMAP
FDFC78
707030
707030
383020
383860
183840
1C7840
1C5CC0
0CCC80
0E8F80
0F8F00
070700
070700
030600
020200
ENDCHAR
STARTCHAR x
ENCODING 120
SWIDTH 500 0
DWIDTH 17 0
BBX 14 15 1 0
BITMAP
FCF8
3860
3CC0
1C80
1E80
0F00
0700
0780
0F80
0BC0
19E0
10E0
3070
6078
F0FC
ENDCHAR
STARTCHAR y
ENCODING 121
SWIDTH 500 0
DWIDTH 17 0
BBX 15 22 1 -7
BITMAP
FE1E
780C
380C
3C08
1C18
1E18
0E10
0E30
0720
0720
03E0
03C0
01C0
0180
0180
0100
0100
0300
0200
3E00
7C00
3800
ENDCHAR
STARTCHAR z
ENCODING 122
SWIDTH 444 0
DWIDTH 15 0
BBX 13 15 1 0
BITMAP
7FF0
60F0
40E0
41E0
03C0
0380
0780
0700
0E00
1E00
1C08
3808
7808
7018
FFF0
ENDCHAR
STARTCHAR braceleft
ENCODING 123
SWIDTH 480 0
DWIDTH 16 0
BBX 8 28 4 -5
BITMAP
0F
1C
38
38
38
38
38
38
38
38
38
38
38
30
E0
30
38
38
38
38
38
38
38
38
38
18
1C
0F
ENDCHAR
STARTCHAR bar
ENCODING 124
SWIDTH 200 0
DWIDTH 7 0
BBX 2 23 2 0
BITMAP
C0
C0
C0
C0
C0
C0
C0
C0
C0
C0
C0
C0
C0
C0
C0
C0
C0
C0
C0
C0
C0
C0
C0
ENDCHAR
STARTCHAR braceright
ENCODING 125
SWIDTH 480 0
DWIDTH 16 0
BBX 8 28 4 -5
BITMAP
F0
38
1C
1C
1C
1C
1C
1C
1C
1C
1C
1C
1C
0C
07
0C
1C
1C
1C
1C
1C
1C
1C
1C
1C
18
38
F0
ENDCHAR
STARTCHAR asciitilde
ENCODING 126
SWIDTH 541 0
DWIDTH 18 0
BBX 16 4 1 7
BITMAP
3E03
7F87
E1FE
C07C
ENDCHAR
STARTCHAR space
ENCODING 160
SWIDTH 250 0
DWIDTH 8 0
BBX 1 1 0 0
BITMAP
00
ENDCHAR
STARTCHAR exclamdown
ENCODING 161
SWIDTH 333 0
DWIDTH 11 0
BBX 4 22 3 -7
BITMAP
60
F0
F0
60
00
00
60
60
60
60
60
60
60
60
60
60
60
F0
F0
F0
F0
60
ENDCHAR
STARTCHAR cent
ENCODING 162
SWIDTH 500 0
DWIDTH 17 0
BBX 12 23 2 -4
BITMAP
0040
0040
0080
0080
0F80
38E0
7170
6170
E130
C300
C200
C200
E600
E400
7410
7C30
3FE0
1FC0
1F00
1000
3000
2000
2000
ENDCHAR
STARTCHAR sterling
ENCODING 163
SWIDTH 500 0
DWIDTH 17 0
BBX 15 23 1 0
BITMAP
01F0
0398
061C
061C
0E18
0E00
0E00
0E00
0E00
0E00
FFE0
FFE0
0F00
0700
0700
0700
0700
0600
0602
7E06
C7FC
CFF8
78F0
ENDCHAR
STARTCHAR currency
ENCODING 164
SWIDTH 500 0
DWIDTH 17 0
BBX 16 17 0 3
BITMAP
C7E3
FFFF
3E7C
781E
700E
E007
E007
C003
C003
C003
E007
E007
700E
781E
3E7C
FFFF
C7E3
ENDCHAR
STARTCHAR yen
ENCODING 165
SWIDTH 500 0
DWIDTH 17 0
BBX 17 23 0 0
BITMAP
FE1F80
780700
380600
3C0400
1C0C00
1E0800
0E1800
0F1000
073000
07A000
03E000
03C000
3FFE00
01C000
01C000
01C000
3FFE00
01C000
01C000
01C000
01C000
01C000
07F000
ENDCHAR
STARTCHAR brokenbar
ENCODING 166
SWIDTH 200 0
DWIDTH 7 0
BBX 2 23 2 0
BITMAP
C0
C0
C0
C0
C0
C0
C0
C0
C0
00
00
00
00
00
C0
C0
C0
C0
C0
C0
C0
C0
C0
ENDCHAR
STARTCHAR section
ENCODING 167
SWIDTH 500 0
DWIDTH 17 0
BBX 12 28 2 -5
BITMAP
1F80
31C0
61C0
61C0
7180
3800
3C00
1E00
0F00
3F80
63C0
C1E0
C0E0
C070
E030
7030
7830
3C60
1FC0
0F00
0780
03C0
01C0
18E0
3860
3860
38C0
1F80
ENDCHAR
STARTCHAR dieresis
ENCODING 168
SWIDTH 333 0
DWIDTH 11 0
BBX 9 3 1 18
BITMAP
E380
E380
E380
ENDCHAR
STARTCHAR copyright
ENCODING 169
SWIDTH 760 0
DWIDTH 25 0
BBX 22 23 1 0
BITMAP
00FC00
03FF00
0E01C0
180060
300030
600018
607F18
C1C70C
C3830C
C3010C
C7000C
C7000C
C7000C
C7000C
C7800C
438118
61E618
607C30
300030
180060
0E01C0
07FF00
01FC00
ENDCHAR
STARTCHAR ordfeminine
ENCODING 170
SWIDTH 276 0
DWIDTH 9 0
BBX 9 13 0 10
BITMAP
3C00
4E00
C600
C600
1E00
6600
C600
C600
EF80
7B00
0000
0000
FF00
ENDCHAR
STARTCHAR guillemotleft
ENCODING 171
SWIDTH 500 0
DWIDTH 17 0
BBX 13 13 1 1
BITMAP
0208
0618
0C30
1860
38E0
71C0
E380
71C0
38E0
1860
0C30
0618
0208
ENDCHAR
STARTCHAR logicalnot
ENCODING 172
SWIDTH 564 0
DWIDTH 18 0
BBX 16 9 1 4
BITMAP
FFFF
FFFF
0003
0003
0003
0003
0003
0003
0003
ENDCHAR
STARTCHAR hyphen
ENCODING 173
SWIDTH 333 0
DWIDTH 11 0
BBX 8 2 1 7
BITMAP
FF
FF
ENDCHAR
STARTCHAR registered
ENCODING 174
SWIDTH 760 0
DWIDTH 25 0
BBX 22 23 1 0
BITMAP
00FE00
03FF00
0E01C0
180060
300030
23FC18
60C718
C0C30C
C0C30C
C0C30C
C0C60C
C0F80C
C0DC0C
C0CC0C
C0CE0C
40C608
60C718
23E3D0
300030
180060
0E01C0
03FF00
00FC00
ENDCHAR
STARTCHAR macron
ENCODING 175
SWIDTH 333 0
DWIDTH 11 0
BBX 10 2 0 18
BITMAP
FFC0
FFC0
ENDCHAR
STARTCHAR degree
ENCODING 176
SWIDTH 400 0
DWIDTH 13 0
BBX 10 10 1 13
BITMAP
1E00
3F00
6180
C0C0
C0C0
C0C0
C0C0
6180
3F00
1E00
ENDCHAR
STARTCHAR plusminus
ENCODING 177
SWIDTH 564 0
DWIDTH 19 0
BBX 16 20 1 0
BITMAP
0180
0180
0180
0180
0180
0180
0180
FFFF
FFFF
0180
0180
0180
0180
0180
0180
0180
0180
0000
FFFF
FFFF
ENDCHAR
STARTCHAR twosuperior
ENCODING 178
SWIDTH 300 0
DWIDTH 10 0
BBX 9 14 0 9
BITMAP
3C00
4E00
8700
0300
0300
0700
0600
0C00
1800
1000
2000
4080
FF00
FE00
ENDCHAR
STARTCHAR threesuperior
ENCODING 179
SWIDTH 300 0
DWIDTH 10 0
BBX 9 14 0 9
BITMAP
3E00
4700
8300
0300
0300
0600
3C00
0700
0380
0180
0180
C180
E300
7E00
ENDCHAR
STARTCHAR acute
ENCODING 180
SWIDTH 333 0
DWIDTH 11 0
BBX 7 6 3 17
BITMAP
06
0E
1C
30
60
C0
ENDCHAR
STARTCHAR mu
ENCODING 181
SWIDTH 500 0
DWIDTH 17 0
BBX 16 22 0 -7
BITMAP
F87C
381C
381C
381C
381C
381C
381C
381C
381C
381C
381C
383C
3C7C
3FDF
2F98
2000
7000
7000
7000
7000
7000
2000
ENDCHAR
STARTCHAR paragraph
ENCODING 182
SWIDTH 453 0
DWIDTH 15 0
BBX 13 29 1 -6
BITMAP
07F8
1E20
3E20
7E20
7E20
FE20
FE20
FE20
FE20
7E20
7E20
3E20
1E20
0E20
0220
0220
0220
0220
0220
0220
0220
0220
0220
0220
0220
0220
0220
0220
0220
ENDCHAR
STARTCHAR periodcentered
ENCODING 183
SWIDTH 250 0
DWIDTH 8 0
BBX 4 4 2 7
BITMAP
60
F0
F0
60
ENDCHAR
STARTCHAR cedilla
ENCODING 184
SWIDTH 333 0
DWIDTH 11 0
BBX 6 7 2 -7
BITMAP
20
60
78
1C
0C
1C
F8
ENDCHAR
STARTCHAR onesuperior
ENCODING 185
SWIDTH 300 0
DWIDTH 10 0
BBX 6 14 2 9
BITMAP
30
F0
30
30
30
30
30
30
30
30
30
30
30
FC
ENDCHAR
STARTCHAR ordmasculine
ENCODING 186
SWIDTH 310 0
DWIDTH 10 0
BBX 9 13 0 10
BITMAP
3E00
6300
C380
C180
C180
C180
C180
E180
6300
3E00
0000
0000
FF80
ENDCHAR
STARTCHAR guillemotright
ENCODING 187
SWIDTH 500 0
DWIDTH 16 0
BBX 13 13 2 1
BITMAP
8200
C300
6180
30C0
38E0
1C70
0E38
1C70
38E0
30C0
6180
C300
8200
ENDCHAR
STARTCHAR onequarter
ENCODING 188
SWIDTH 750 0
DWIDTH 25 0
BBX 22 23 2 0
BITMAP
300060
F00060
3000C0
3001C0
300180
300300
300300
300600
300E00
300C10
301830
301870
303070
FC60F0
0061B0
00C130
01C230
018630
030C30
031FFC
060030
0C0030
0C0030
ENDCHAR
STARTCHAR onehalf
ENCODING 189
SWIDTH 750 0
DWIDTH 25 0
BBX 23 23 1 0
BITMAP
3000C0
F000C0
300180
300380
300300
300600
300600
300C00
301C00
3018F0
303138
30321C
30600C
FCE00C
00C01C
018018
038030
030060
060040
060080
0C0102
1803FC
1803F8
ENDCHAR
STARTCHAR threequarters
ENCODING 190
SWIDTH 750 0
DWIDTH 25 0
BBX 24 23 0 0
BITMAP
3E0018
470018
830030
030070
030060
0600C0
3C00C0
070180
038380
018304
01860C
C1861C
E30C1C
7E183C
00186C
00304C
00708C
00618C
00C30C
00C7FF
01800C
03000C
03000C
ENDCHAR
STARTCHAR questiondown
ENCODING 191
SWIDTH 444 0
DWIDTH 14 0
BBX 11 22 1 -7
BITMAP
0600
0F00
0F00
0600
0000
0200
0200
0600
0400
0C00
1800
3800
3000
7000
7000
E0C0
E0E0
E0E0
7060
7060
39C0
1F00
ENDCHAR
STARTCHAR Agrave
ENCODING 192
SWIDTH 722 0
DWIDTH 24 0
BBX 22 30 1 0
BITMAP
060000
070000
038000
00C000
006000
003000
000000
003000
003000
007000
007800
007800
00FC00
00DC00
009C00
018E00
010E00
030F00
030700
020700
060780
060380
0FFFC0
0C03C0
1801C0
1801E0
3001E0
3000F0
7000F0
FC03FC
ENDCHAR
STARTCHAR Aacute
ENCODING 193
SWIDTH 722 0
DWIDTH 24 0
BBX 22 30 1 0
BITMAP
000180
000380
000700
000C00
001800
003000
000000
003000
003000
007000
007800
007800
00FC00
00DC00
009C00
018E00
010E00
030F00
030700
020700
060780
060380
0FFFC0
0C03C0
1801C0
1801E0
3001E0
3000F0
7000F0
FC03FC
ENDCHAR
STARTCHAR Acircumflex
ENCODING 194
SWIDTH 722 0
DWIDTH 24 0
BBX 22 30 1 0
BITMAP
003000
007800
00FC00
01CE00
030300
020100
000000
003000
003000
007000
007800
007800
00FC00
00DC00
009C00
018E00
010E00
030F00
030700
020700
060780
060380
0FFFC0
0C03C0
1801C0
1801E0
3001E0
3000F0
7000F0
FC03FC
ENDCHAR
STARTCHAR Atilde
ENCODING 195
SWIDTH 722 0
DWIDTH 24 0
BBX 22 28 1 0
BITMAP
00E080
01F980
033F00
020E00
000000
003000
003000
007000
007800
007800
00FC00
00DC00
009C00
018E00
010E00
030F00
030700
020700
060780
060380
0FFFC0
0C03C0
1801C0
1801E0
3001E0
3000F0
7000F0
FC03FC
ENDCHAR
STARTCHAR Adieresis
ENCODING 196
SWIDTH 722 0
DWIDTH 24 0
BBX 22 28 1 0
BITMAP
01C700
01C700
01C700
000000
000000
003000
003000
007000
007800
007800
00FC00
00DC00
009C00
018E00
010E00
030F00
030700
020700
060780
060380
0FFFC0
0C03C0
1801C0
1801E0
3001E0
3000F0
7000F0
FC03FC
ENDCHAR
STARTCHAR Aring
ENCODING 197
SWIDTH 722 0
DWIDTH 24 0
BBX 22 30 1 0
BITMAP
007000
00F800
018C00
010400
018C00
00F800
007000
000000
003000
003000
007800
007800
00FC00
00DC00
009C00
018E00
010E00
030F00
030700
020700
060780
060380
0FFFC0
0C03C0
1801C0
1801E0
3001E0
3000F0
7000F0
FC03FC
ENDCHAR
STARTCHAR AE
ENCODING 198
SWIDTH 889 0
DWIDTH 30 0
BBX 28 23 1 0
BITMAP
00FFFFE0
001F81E0
001F0060
00370020
00370020
00670000
00670000
00470080
00C70080
00C70180
01870380
0187FF80
03070380
03070180
07FF0080
06070080
0C070000
0C070010
18070010
18070030
30070060
300F81E0
FE3FFFE0
ENDCHAR
STARTCHAR Ccedilla
ENCODING 199
SWIDTH 667 0
DWIDTH 22 0
BBX 20 30 1 -7
BITMAP
01FF10
0783F0
0E00F0
1C0070
380030
380030
700010
700010
F00000
F00000
F00000
F00000
F00000
F00000
F00000
700000
700000
380000
380010
1C0030
0E0060
0783C0
01FF00
004000
00C000
00F000
003800
001800
003800
01F000
ENDCHAR
STARTCHAR Egrave
ENCODING 200
SWIDTH 611 0
DWIDTH 20 0
BBX 19 30 1 0
BITMAP
030000
038000
01C000
006000
003000
001800
000000
FFFFC0
3E03C0
1C00C0
1C0040
1C0040
1C0000
1C0000
1C0000
1C0100
1C0100
1C0300
1FFF00
1C0300
1C0100
1C0100
1C0000
1C0000
1C0020
1C0020
1C0060
1C00C0
3E03C0
FFFFC0
ENDCHAR
STARTCHAR Eacute
ENCODING 201
SWIDTH 611 0
DWIDTH 20 0
BBX 19 30 1 0
BITMAP
000600
000E00
001C00
003000
006000
00C000
000000
FFFFC0
3E03C0
1C00C0
1C0040
1C0040
1C0000
1C0000
1C0000
1C0100
1C0100
1C0300
1FFF00
1C0300
1C0100
1C0100
1C0000
1C0000
1C0020
1C0020
1C0060
1C00C0
3E03C0
FFFFC0
ENDCHAR
STARTCHAR Ecircumflex
ENCODING 202
SWIDTH 611 0
DWIDTH 20 0
BBX 19 30 1 0
BITMAP
003000
007800
00FC00
01CE00
030300
020100
000000
FFFFC0
3E03C0
1C00C0
1C0040
1C0040
1C0000
1C0000
1C0000
1C0100
1C0100
1C0300
1FFF00
1C0300
1C0100
1C0100
1C0000
1C0000
1C0020
1C0020
1C0060
1C00C0
3E03C0
FFFFC0
ENDCHAR
STARTCHAR Edieresis
ENCODING 203
SWIDTH 611 0
DWIDTH 20 0
BBX 19 28 1 0
BITMAP
038E00
038E00
038E00
000000
000000
FFFFC0
3E03C0
1C00C0
1C0040
1C0040
1C0000
1C0000
1C0000
1C0100
1C0100
1C0300
1FFF00
1C0300
1C0100
1C0100
1C0000
1C0000
1C0020
1C0020
1C0060
1C00C0
3E03C0
FFFFC0
ENDCHAR
STARTCHAR Igrave
ENCODING 204
SWIDTH 333 0
DWIDTH 11 0
BBX 9 30 1 0
BITMAP
6000
7000
3800
0C00
0600
0300
0000
FF80
3E00
1C00
1C00
1C00
1C00
1C00
1C00
1C00
1C00
1C00
1C00
1C00
1C00
1C00
1C00
1C00
1C00
1C00
1C00
1C00
3E00
FF80
ENDCHAR
STARTCHAR Iacute
ENCODING 205
SWIDTH 333 0
DWIDTH 11 0
BBX 9 30 1 0
BITMAP
0180
0380
0700
0C00
1800
3000
0000
FF80
3E00
1C00
1C00
1C00
1C00
1C00
1C00
1C00
1C00
1C00
1C00
1C00
1C00
1C00
1C00
1C00
1C00
1C00
1C00
1C00
3E00
FF80
ENDCHAR
STARTCHAR Icircumflex
ENCODING 206
SWIDTH 333 0
DWIDTH 11 0
BBX 10 30 1 0
BITMAP
0C00
1E00
3F00
7380
C0C0
8040
0000
FF80
3E00
1C00
1C00
1C00
1C00
1C00
1C00
1C00
1C00
1C00
1C00
1C00
1C00
1C00
1C00
1C00
1C00
1C00
1C00
1C00
3E00
FF80
ENDCHAR
STARTCHAR Idieresis
ENCODING 207
SWIDTH 333 0
DWIDTH 11 0
BBX 9 28 1 0
BITMAP
E380
E380
E380
0000
0000
FF80
3E00
1C00
1C00
1C00
1C00
1C00
1C00
1C00
1C00
1C00
1C00
1C00
1C00
1C00
1C00
1C00
1C00
1C00
1C00
1C00
3E00
FF80
ENDCHAR
STARTCHAR Eth
ENCODING 208
SWIDTH 722 0
DWIDTH 24 0
BBX 22 23 1 0
BITMAP
FFFE00
3E0780
1C01C0
1C00E0
1C0070
1C0070
1C0038
1C0038
1C003C
1C003C
1C003C
FFC03C
FFC03C
1C003C
1C003C
1C0038
1C0038
1C0070
1C0070
1C00E0
1C01C0
3E0780
FFFE00
ENDCHAR
STARTCHAR Ntilde
ENCODING 209
SWIDTH 722 0
DWIDTH 24 0
BBX 22 29 1 0
BITMAP
00E080
01F980
033F00
020E00
000000
000000
F801FC
3C0070
1E0020
1F0020
1F0020
178020
13C020
13C020
11E020
10F020
10F820
107820
103C20
101E20
101F20
100F20
1007A0
1003E0
1001E0
1001E0
1000E0
380060
FE0020
ENDCHAR
STARTCHAR Ograve
ENCODING 210
SWIDTH 722 0
DWIDTH 24 0
BBX 22 30 1 0
BITMAP
030000
038000
01C000
006000
003000
001800
000000
01FE00
078780
0E01C0
1C00E0
380070
380070
700038
700038
F0003C
F0003C
F0003C
F0003C
F0003C
F0003C
F0003C
700038
700038
380070
380070
1C00E0
0E01C0
078780
01FE00
ENDCHAR
STARTCHAR Oacute
ENCODING 211
SWIDTH 722 0
DWIDTH 24 0
BBX 22 30 1 0
BITMAP
000180
000380
000700
000C00
001800
003000
000000
01FE00
078780
0E01C0
1C00E0
380070
380070
700038
700038
F0003C
F0003C
F0003C
F0003C
F0003C
F0003C
F0003C
700038
700038
380070
380070
1C00E0
0E01C0
078780
01FE00
ENDCHAR
STARTCHAR Ocircumflex
ENCODING 212
SWIDTH 722 0
DWIDTH 24 0
BBX 22 30 1 0
BITMAP
003000
007800
00FC00
01CE00
030300
020100
000000
01FE00
078780
0E01C0
1C00E0
380070
380070
700038
700038
F0003C
F0003C
F0003C
F0003C
F0003C
F0003C
F0003C
700038
700038
380070
380070
1C00E0
0E01C0
078780
01FE00
ENDCHAR
STARTCHAR Otilde
ENCODING 213
SWIDTH 722 0
DWIDTH 24 0
BBX 22 28 1 0
BITMAP
00E080
01F980
033F00
020E00
000000
01FE00
078780
0E01C0
1C00E0
380070
380070
700038
700038
F0003C
F0003C
F0003C
F0003C
F0003C
F0003C
F0003C
700038
700038
380070
380070
1C00E0
0E01C0
078780
01FE00
ENDCHAR
STARTCHAR Odieresis
ENCODING 214
SWIDTH 722 0
DWIDTH 24 0
BBX 22 28 1 0
BITMAP
01C700
01C700
01C700
000000
000000
01FE00
078780
0E01C0
1C00E0
380070
380070
700038
700038
F0003C
F0003C
F0003C
F0003C
F0003C
F0003C
F0003C
700038
700038
380070
380070
1C00E0
0E01C0
078780
01FE00
ENDCHAR
STARTCHAR multiply
ENCODING 215
SWIDTH 564 0
DWIDTH 19 0
BBX 16 16 1 0
BITMAP
4002
E007
700E
381C
1C38
0E70
07E0
03C0
03C0
07E0
0E70
1C38
381C
700E
E007
4002
ENDCHAR
STARTCHAR Oslash
ENCODING 216
SWIDTH 722 0
DWIDTH 24 0
BBX 22 27 1 -2
BITMAP
000010
000030
01FE60
0787C0
0E01C0
1C01E0
380370
380270
700638
700C38
F0083C
F0183C
F0303C
F0603C
F0403C
F0C03C
F0803C
718038
730038
3A0070
3E0070
1C00E0
1E01C0
378780
21FE00
600000
400000
ENDCHAR
STARTCHAR Ugrave
ENCODING 217
SWIDTH 722 0
DWIDTH 24 0
BBX 22 30 1 0
BITMAP
00C000
00E000
007000
001800
000C00
000600
000000
FF81FC
3E0070
1C0020
1C0020
1C0020
1C0020
1C0020
1C0020
1C0020
1C0020
1C0020
1C0020
1C0020
1C0020
1C0020
1C0020
1C0020
1C0060
1E0060
0E0040
0F00C0
07C380
01FE00
ENDCHAR
STARTCHAR Uacute
ENCODING 218
SWIDTH 722 0
DWIDTH 24 0
BBX 22 30 1 0
BITMAP
000180
000380
000700
000C00
001800
003000
000000
FF81FC
3E0070
1C0020
1C0020
1C0020
1C0020
1C0020
1C0020
1C0020
1C0020
1C0020
1C0020
1C0020
1C0020
1C0020
1C0020
1C0020
1C0060
1E0060
0E0040
0F00C0
07C380
01FE00
ENDCHAR
STARTCHAR Ucircumflex
ENCODING 219
SWIDTH 722 0
DWIDTH 24 0
BBX 22 30 1 0
BITMAP
001800
003C00
007E00
00E700
018180
010080
000000
FF81FC
3E0070
1C0020
1C0020
1C0020
1C0020
1C0020
1C0020
1C0020
1C0020
1C0020
1C0020
1C0020
1C0020
1C0020
1C0020
1C0020
1C0060
1E0060
0E0040
0F00C0
07C380
01FE00
ENDCHAR
STARTCHAR Udieresis
ENCODING 220
SWIDTH 722 0
DWIDTH 24 0
BBX 22 28 1 0
BITMAP
01C700
01C700
01C700
000000
000000
FF81FC
3E0070
1C0020
1C0020
1C0020
1C0020
1C0020
1C0020
1C0020
1C0020
1C0020
1C0020
1C0020
1C0020
1C0020
1C0020
1C0020
1C0060
1E0060
0E0040
0F00C0
07C380
01FE00
ENDCHAR
STARTCHAR Yacute
ENCODING 221
SWIDTH 722 0
DWIDTH 24 0
BBX 22 30 1 0
BITMAP
0000C0
0001C0
000380
000600
000C00
001800
000000
FFC0FC
3F0038
1E0030
0F0060
0F80C0
078080
03C180
03C300
01E300
00F600
00FC00
007C00
003800
003800
003800
003800
003800
003800
003800
003800
003800
007C00
01FF00
ENDCHAR
STARTCHAR Thorn
ENCODING 222
SWIDTH 556 0
DWIDTH 19 0
BBX 18 23 1 0
BITMAP
FF8000
3E0000
1C0000
1C0000
1C0000
1FFC00
1C1F00
1C0780
1C0380
1C03C0
1C01C0
1C01C0
1C01C0
1C03C0
1C0380
1C0780
1C1F00
1FFC00
1C0000
1C0000
1C0000
3E0000
FF8000
ENDCHAR
STARTCHAR germandbls
ENCODING 223
SWIDTH 500 0
DWIDTH 17 0
BBX 15 23 1 0
BITMAP
07C0
0C70
1838
1838
3838
3838
3838
3838
3830
3860
39C0
3878
381C
381E
380E
380E
380E
380E
380E
3B0C
3B9C
3B98
F9F0
ENDCHAR
STARTCHAR agrave
ENCODING 224
SWIDTH 444 0
DWIDTH 15 0
BBX 13 23 1 0
BITMAP
1800
1C00
0E00
0300
0180
00C0
0000
0000
1F80
31C0
70E0
70E0
60E0
03E0
0EE0
18E0
30E0
60E0
E0E0
E1E0
F2E8
7EF8
3C70
ENDCHAR
STARTCHAR aacute
ENCODING 225
SWIDTH 444 0
DWIDTH 15 0
BBX 13 23 1 0
BITMAP
00C0
01C0
0380
0600
0C00
1800
0000
0000
1F80
31C0
70E0
70E0
60E0
03E0
0EE0
18E0
30E0
60E0
E0E0
E1E0
F2E8
7EF8
3C70
ENDCHAR
STARTCHAR acircumflex
ENCODING 226
SWIDTH 444 0
DWIDTH 15 0
BBX 13 23 1 0
BITMAP
0600
0F00
1F80
39C0
6060
4020
0000
0000
1F80
31C0
70E0
70E0
60E0
03E0
0EE0
18E0
30E0
60E0
E0E0
E1E0
F2E8
7EF8
3C70
ENDCHAR
STARTCHAR atilde
ENCODING 227
SWIDTH 444 0
DWIDTH 15 0
BBX 13 21 1 0
BITMAP
1C10
3E30
63E0
41C0
0000
0000
1F80
31C0
70E0
70E0
60E0
03E0
0EE0
18E0
30E0
60E0
E0E0
E1E0
F2E8
7EF8
3C70
ENDCHAR
STARTCHAR adieresis
ENCODING 228
SWIDTH 444 0
DWIDTH 15 0
BBX 13 21 1 0
BITMAP
38E0
38E0
38E0
0000
0000
0000
1F80
31C0
70E0
70E0
60E0
03E0
0EE0
18E0
30E0
60E0
E0E0
E1E0
F2E8
7EF8
3C70
ENDCHAR
STARTCHAR aring
ENCODING 229
SWIDTH 444 0
DWIDTH 15 0
BBX 13 23 1 0
BITMAP
0700
0F80
18C0
1040
18C0
0F80
0700
0000
1F80
31C0
70E0
70E0
60E0
03E0
0EE0
18E0
30E0
60E0
E0E0
E1E0
F2E8
7EF8
3C70
ENDCHAR
STARTCHAR ae
ENCODING 230
SWIDTH 667 0
DWIDTH 22 0
BBX 19 15 1 0
BITMAP
1F9F00
31F9C0
70E0C0
70E0E0
60E0E0
03FFE0
0EE000
18E000
30E000
60E000
E0E020
E1F060
F378C0
7E3F80
3C1F00
ENDCHAR
STARTCHAR ccedilla
ENCODING 231
SWIDTH 444 0
DWIDTH 15 0
BBX 12 22 1 -7
BITMAP
0F80
38C0
70E0
60E0
E060
C000
C000
C000
C000
E000
E010
7030
7C60
3FC0
0F00
0400
0C00
0F00
0380
0180
0380
1F00
ENDCHAR
STARTCHAR egrave
ENCODING 232
SWIDTH 444 0
DWIDTH 15 0
BBX 12 23 1 0
BITMAP
3000
3800
1C00
0600
0300
0180
0000
0000
0F80
39C0
60E0
6070
C070
FFF0
C000
C000
C000
E000
E010
7030
7C60
3FC0
0F00
ENDCHAR
STARTCHAR eacute
ENCODING 233
SWIDTH 444 0
DWIDTH 15 0
BBX 12 23 1 0
BITMAP
0180
0380
0700
0C00
1800
3000
0000
0000
0F80
39C0
60E0
6070
C070
FFF0
C000
C000
C000
E000
E010
7030
7C60
3FC0
0F00
ENDCHAR
STARTCHAR ecircumflex
ENCODING 234
SWIDTH 444 0
DWIDTH 15 0
BBX 12 23 1 0
BITMAP
0600
0F00
1F80
39C0
6060
4020
0000
0000
0F80
39C0
60E0
6070
C070
FFF0
C000
C000
C000
E000
E010
7030
7C60
3FC0
0F00
ENDCHAR
STARTCHAR edieresis
ENCODING 235
SWIDTH 444 0
DWIDTH 15 0
BBX 12 21 1 0
BITMAP
38E0
38E0
38E0
0000
0000
0000
0F80
39C0
60E0
6070
C070
FFF0
C000
C000
C000
E000
E010
7030
7C60
3FC0
0F00
ENDCHAR
STARTCHAR igrave
ENCODING 236
SWIDTH 278 0
DWIDTH 9 0
BBX 7 23 1 0
BITMAP
C0
E0
70
18
0C
06
00
00
18
F8
38
38
38
38
38
38
38
38
38
38
38
38
FE
ENDCHAR
STARTCHAR iacute
ENCODING 237
SWIDTH 278 0
DWIDTH 9 0
BBX 7 23 1 0
BITMAP
06
0E
1C
30
60
C0
00
00
18
F8
38
38
38
38
38
38
38
38
38
38
38
38
FE
ENDCHAR
STARTCHAR icircumflex
ENCODING 238
SWIDTH 278 0
DWIDTH 9 0
BBX 10 23 0 0
BITMAP
0C00
1E00
3F00
7380
C0C0
8040
0000
0000
0C00
7C00
1C00
1C00
1C00
1C00
1C00
1C00
1C00
1C00
1C00
1C00
1C00
1C00
7F00
ENDCHAR
STARTCHAR idieresis
ENCODING 239
SWIDTH 278 0
DWIDTH 9 0
BBX 9 21 0 0
BITMAP
E380
E380
E380
0000
0000
0000
0C00
7C00
1C00
1C00
1C00
1C00
1C00
1C00
1C00
1C00
1C00
1C00
1C00
1C00
7F00
ENDCHAR
STARTCHAR eth
ENCODING 240
SWIDTH 500 0
DWIDTH 17 0
BBX 14 23 1 0
BITMAP
1000
3800
1C70
0FF0
0F00
7F80
31C0
00E0
07F0
18F0
3078
7038
603C
E01C
E01C
E01C
E01C
E01C
7018
7038
3830
1C60
0780
ENDCHAR
STARTCHAR ntilde
ENCODING 241
SWIDTH 500 0
DWIDTH 16 0
BBX 16 21 0 0
BITMAP
0E08
1F18
31F0
20E0
0000
0000
18F0
FBF8
3E3C
3C1C
381C
381C
381C
381C
381C
381C
381C
381C
381C
381C
FE7F
ENDCHAR
STARTCHAR ograve
ENCODING 242
SWIDTH 500 0
DWIDTH 16 0
BBX 14 23 1 0
BITMAP
1800
1C00
0E00
0300
0180
00C0
0000
0000
0780
18E0
3070
7038
6038
E01C
E01C
E01C
E01C
E01C
7018
7038
3830
1C60
0780
ENDCHAR
STARTCHAR oacute
ENCODING 243
SWIDTH 500 0
DWIDTH 16 0
BBX 14 23 1 0
BITMAP
00C0
01C0
0380
0600
0C00
1800
0000
0000
0780
18E0
3070
7038
6038
E01C
E01C
E01C
E01C
E01C
7018
7038
3830
1C60
0780
ENDCHAR
STARTCHAR ocircumflex
ENCODING 244
SWIDTH 500 0
DWIDTH 16 0
BBX 14 23 1 0
BITMAP
0300
0780
0FC0
1CE0
3030
2010
0000
0000
0780
18E0
3070
7038
6038
E01C
E01C
E01C
E01C
E01C
7018
7038
3830
1C60
0780
ENDCHAR
STARTCHAR otilde
ENCODING 245
SWIDTH 500 0
DWIDTH 16 0
BBX 14 21 1 0
BITMAP
1C10
3E30
63E0
41C0
0000
0000
0780
18E0
3070
7038
6038
E01C
E01C
E01C
E01C
E01C
7018
7038
3830
1C60
0780
ENDCHAR
STARTCHAR odieresis
ENCODING 246
SWIDTH 500 0
DWIDTH 16 0
BBX 14 21 1 0
BITMAP
38E0
38E0
38E0
0000
0000
0000
0780
18E0
3070
7038
6038
E01C
E01C
E01C
E01C
E01C
7018
7038
3830
1C60
0780
ENDCHAR
STARTCHAR divide
ENCODING 247
SWIDTH 564 0
DWIDTH 19 0
BBX 16 17 1 0
BITMAP
0180
03C0
03C0
0180
0000
0000
0000
FFFF
FFFF
0000
0000
0000
0000
0180
03C0
03C0
0180
ENDCHAR
STARTCHAR oslash
ENCODING 248
SWIDTH 500 0
DWIDTH 17 0
BBX 14 21 1 -3
BITMAP
0018
0010
0030
07A0
18E0
30F0
70B8
61B8
E11C
E11C
E31C
E21C
E61C
7418
7438
3C30
1C60
1F80
3000
2000
6000
ENDCHAR
STARTCHAR ugrave
ENCODING 249
SWIDTH 500 0
DWIDTH 17 0
BBX 16 23 0 0
BITMAP
0C00
0E00
0700
0180
00C0
0060
0000
0000
F87C
381C
381C
381C
381C
381C
381C
381C
381C
381C
381C
383C
3C7C
1FDF
0F98
ENDCHAR
STARTCHAR uacute
ENCODING 250
SWIDTH 500 0
DWIDTH 17 0
BBX 16 23 0 0
BITMAP
0060
00E0
01C0
0300
0600
0C00
0000
0000
F87C
381C
381C
381C
381C
381C
381C
381C
381C
381C
381C
383C
3C7C
1FDF
0F98
ENDCHAR
STARTCHAR ucircumflex
ENCODING 251
SWIDTH 500 0
DWIDTH 17 0
BBX 16 23 0 0
BITMAP
0180
03C0
07E0
0E70
1818
1008
0000
0000
F87C
381C
381C
381C
381C
381C
381C
381C
381C
381C
381C
383C
3C7C
1FDF
0F98
ENDCHAR
STARTCHAR udieresis
ENCODING 252
SWIDTH 500 0
DWIDTH 17 0
BBX 16 21 0 0
BITMAP
1C70
1C70
1C70
0000
0000
0000
F87C
381C
381C
381C
381C
381C
381C
381C
381C
381C
381C
383C
3C7C
1FDF
0F98
ENDCHAR
STARTCHAR yacute
ENCODING 253
SWIDTH 500 0
DWIDTH 17 0
BBX 15 30 0 -7
BITMAP
0018
0038
0070
00C0
0180
0300
0000
0000
FE1E
780C
380C
3C08
1C18
1E18
0E10
0E30
0720
0720
03E0
03C0
01C0
0180
0180
0180
0100
0300
0200
3E00
7C00
3800
ENDCHAR
STARTCHAR thorn
ENCODING 254
SWIDTH 500 0
DWIDTH 17 0
BBX 15 30 0 -7
BITMAP
1800
F800
3800
3800
3800
3800
3800
3800
39F0
3BF8
3E7C
3C1C
381E
380E
380E
380E
380E
380E
380C
381C
3C18
3E30
3BE0
3800
3800
3800
3800
3800
3800
FF00
ENDCHAR
STARTCHAR ydieresis
ENCODING 255
SWIDTH 500 0
DWIDTH 17 0
BBX 15 28 1 -7
BITMAP
1C70
1C70
1C70
0000
0000
0000
FE1E
780C
380C
3C08
1C18
1E18
0E10
0E30
0720
0720
03E0
03C0
01C0
0180
0180
0100
0100
0300
0200
3E00
7C00
3800
ENDCHAR
STARTCHAR Lslash
ENCODING -1
SWIDTH 611 0
DWIDTH 20 0
BBX 19 23 1 0
BITMAP
FF8000
3E0000
1C0000
1C0000
1C0000
1C0000
1C0000
1CC000
1D8000
1F0000
1E0000
1C0000
3C0000
7C0000
DC0000
9C0000
1C0000
1C0020
1C0020
1C0060
1C00C0
3E03C0
FFFFC0
ENDCHAR
STARTCHAR OE
ENCODING -1
SWIDTH 889 0
DWIDTH 30 0
BBX 28 23 1 0
BITMAP
01FFFFE0
078FE1E0
0E078060
1C038020
38038020
38038000
70038000
70038080
F0038080
F0038180
F0038380
F003FF80
F0038380
F0038180
F0038080
70038080
70038000
38038010
38038010
1C038030
0E078060
078FC1E0
01FFFFE0
ENDCHAR
STARTCHAR Scaron
ENCODING -1
SWIDTH 556 0
DWIDTH 18 0
BBX 15 27 1 0
BITMAP
2010
3030
1CE0
0FC0
0780
0300
0000
0000
07E4
1C3C
381C
700C
7004
7002
7802
3C00
3F00
0FE0
03F8
00FC
801E
800E
C00E
600C
701C
7C78
4FF0
ENDCHAR
STARTCHAR Ydieresis
ENCODING -1
SWIDTH 722 0
DWIDTH 24 0
BBX 22 25 1 0
BITMAP
038E00
038E00
038E00
000000
000000
000000
FFC0FC
3F0038
1E0060
0700C0
038180
01C300
00E600
007C00
003800
003800
003800
003800
003800
003800
003800
003800
003800
007C00
01FF00
ENDCHAR
STARTCHAR Zcaron
ENCODING -1
SWIDTH 611 0
DWIDTH 20 0
BBX 19 27 1 0
BITMAP
080400
0C0C00
073800
03F000
01E000
00C000
000000
000000
3FFFE0
3803C0
600780
600700
400E00
401E00
003C00
007800
00F000
00E000
01C000
03C000
078000
0F0020
1E0020
1C0060
3C0060
7801C0
FFFFC0
ENDCHAR
STARTCHAR breve
ENCODING -1
SWIDTH 333 0
DWIDTH 11 0
BBX 9 5 1 17
BITMAP
8080
C180
6300
7F00
3E00
ENDCHAR
STARTCHAR bullet
ENCODING -1
SWIDTH 350 0
DWIDTH 12 0
BBX 8 8 2 6
BITMAP
3C
7E
FF
FF
FF
FF
7E
3C
ENDCHAR
STARTCHAR caron
ENCODING -1
SWIDTH 333 0
DWIDTH 11 0
BBX 10 6 0 17
BITMAP
8040
C0C0
7380
3F00
1E00
0C00
ENDCHAR
STARTCHAR circumflex
ENCODING -1
SWIDTH 333 0
DWIDTH 11 0
BBX 10 6 0 17
BITMAP
0C00
1E00
3F00
7380
C0C0
8040
ENDCHAR
STARTCHAR dagger
ENCODING -1
SWIDTH 500 0
DWIDTH 16 0
BBX 13 28 2 -5
BITMAP
0700
0700
0700
0700
0200
0200
0200
F278
FFF8
F278
0200
0200
0200
0700
0700
0700
0700
0700
0700
0200
0200
0200
0200
0200
0200
0200
0200
0200
ENDCHAR
STARTCHAR daggerdbl
ENCODING -1
SWIDTH 500 0
DWIDTH 16 0
BBX 13 28 2 -5
BITMAP
0700
0700
0700
0700
0200
0200
0200
F278
FFF8
F278
0200
0200
0200
0700
0700
0700
0200
0200
0200
F278
FFF8
F278
0200
0200
0300
0700
0700
0700
ENDCHAR
STARTCHAR dotaccent
ENCODING -1
SWIDTH 333 0
DWIDTH 11 0
BBX 3 3 4 18
BITMAP
E0
E0
E0
ENDCHAR
STARTCHAR dotlessi
ENCODING -1
SWIDTH 278 0
DWIDTH 9 0
BBX 7 15 1 0
BITMAP
18
F8
38
38
38
38
38
38
38
38
38
38
38
38
FE
ENDCHAR
STARTCHAR ellipsis
ENCODING -1
SWIDTH 1000 0
DWIDTH 33 0
BBX 26 4 3 0
BITMAP
600C0180
F01E03C0
F01E03C0
600C0180
ENDCHAR
STARTCHAR emdash
ENCODING -1
SWIDTH 1000 0
DWIDTH 32 0
BBX 32 2 0 7
BITMAP
FFFFFFFF
FFFFFFFF
ENDCHAR
STARTCHAR endash
ENCODING -1
SWIDTH 500 0
DWIDTH 16 0
BBX 16 2 0 7
BITMAP
FFFF
FFFF
ENDCHAR
STARTCHAR fi
ENCODING -1
SWIDTH 556 0
DWIDTH 18 0
BBX 16 23 1 0
BITMAP
03F0
0638
0C18
1800
1800
3800
3800
3800
FFFC
381C
381C
381C
381C
381C
381C
381C
381C
381C
381C
381C
381C
381C
FE7F
ENDCHAR
STARTCHAR fl
ENCODING -1
SWIDTH 556 0
DWIDTH 18 0
BBX 16 23 1 0
BITMAP
07CC
0CFC
187C
181C
381C
381C
381C
381C
FFFC
381C
381C
381C
381C
381C
381C
381C
381C
381C
381C
381C
381C
381C
FE7F
ENDCHAR
STARTCHAR florin
ENCODING -1
SWIDTH 500 0
DWIDTH 17 0
BBX 16 29 0 -6
BITMAP
001E
0037
0067
0066
00E0
00E0
00C0
01C0
01C0
0FFC
01C0
01C0
01C0
0180
0180
0180
0380
0380
0380
0380
0380
0300
0300
0300
6200
E600
E400
6C00
3800
ENDCHAR
STARTCHAR fraction
ENCODING -1
SWIDTH 167 0
DWIDTH 6 0
BBX 14 23 -4 0
BITMAP
0004
000C
0018
0018
0030
0030
0060
00C0
00C0
0180
0180
0300
0600
0600
0C00
0C00
1800
3000
3000
6000
6000
C000
8000
ENDCHAR
STARTCHAR grave
ENCODING -1
SWIDTH 333 0
DWIDTH 11 0
BBX 7 6 1 17
BITMAP
C0
E0
70
18
0C
06
ENDCHAR
STARTCHAR guilsinglleft
ENCODING -1
SWIDTH 333 0
DWIDTH 11 0
BBX 7 13 1 1
BITMAP
02
06
0C
18
38
70
E0
70
38
18
0C
06
02
ENDCHAR
STARTCHAR guilsinglright
ENCODING -1
SWIDTH 333 0
DWIDTH 11 0
BBX 7 13 2 1
BITMAP
80
C0
60
30
38
1C
0E
1C
38
30
60
C0
80
ENDCHAR
STARTCHAR hungarumlaut
ENCODING -1
SWIDTH 333 0
DWIDTH 11 0
BBX 12 6 0 17
BITMAP
0630
0E70
1CE0
3180
6300
C600
ENDCHAR
STARTCHAR lslash
ENCODING -1
SWIDTH 278 0
DWIDTH 9 0
BBX 7 23 1 0
BITMAP
18
F8
38
38
38
38
38
3A
3E
3C
38
78
F8
B8
38
38
38
38
38
38
38
38
FE
ENDCHAR
STARTCHAR oe
ENCODING -1
SWIDTH 722 0
DWIDTH 24 0
BBX 21 15 1 0
BITMAP
0787C0
18ECE0
307870
707838
603838
E03FF8
E03800
E03800
E03800
E03800
703C08
703C18
386E30
1CEFE0
078380
ENDCHAR
STARTCHAR ogonek
ENCODING -1
SWIDTH 333 0
DWIDTH 11 0
BBX 6 5 2 -5
BITMAP
40
C0
84
F8
70
ENDCHAR
STARTCHAR perthousand
ENCODING -1
SWIDTH 1000 0
DWIDTH 33 0
BBX 34 23 -1 0
BITMAP
0F00400000
1D83C00000
38FE800000
7041000000
7043000000
E042000000
E046000000
E0CC000000
C088000000
C198000000
C110F00F00
6631D81D80
3C238C38C0
0067047040
0047047040
00CE04E040
018E04E040
010E0CE0C0
030C08C080
020C18C180
060C10C100
0406606600
0C03C03C00
ENDCHAR
STARTCHAR quotedblbase
ENCODING -1
SWIDTH 444 0
DWIDTH 15 0
BBX 11 7 2 -3
BITMAP
60C0
F1E0
F1E0
70E0
1020
2040
4080
ENDCHAR
STARTCHAR quotedblleft
ENCODING -1
SWIDTH 444 0
DWIDTH 15 0
BBX 11 7 1 16
BITMAP
2040
4080
8100
E1C0
F1E0
F1E0
60C0
ENDCHAR
STARTCHAR quotedblright
ENCODING -1
SWIDTH 444 0
DWIDTH 15 0
BBX 11 7 2 16
BITMAP
60C0
F1E0
F1E0
70E0
1020
2040
4080
ENDCHAR
STARTCHAR quotesinglbase
ENCODING -1
SWIDTH 333 0
DWIDTH 11 0
BBX 4 7 3 -3
BITMAP
60
F0
F0
70
10
20
40
ENDCHAR
STARTCHAR quotesingle
ENCODING -1
SWIDTH 180 0
DWIDTH 6 0
BBX 3 8 1 15
BITMAP
E0
E0
E0
E0
40
40
40
40
ENDCHAR
STARTCHAR ring
ENCODING -1
SWIDTH 333 0
DWIDTH 11 0
BBX 7 7 2 16
BITMAP
38
7C
C6
82
C6
7C
38
ENDCHAR
STARTCHAR scaron
ENCODING -1
SWIDTH 389 0
DWIDTH 13 0
BBX 10 23 1 0
BITMAP
8040
C0C0
7380
3F00
1E00
0C00
0000
0000
3E80
6380
C180
C080
E080
F000
7C00
3F00
0F80
03C0
81C0
80C0
C0C0
E180
BF00
ENDCHAR
STARTCHAR tilde
ENCODING -1
SWIDTH 333 0
DWIDTH 11 0
BBX 11 4 0 17
BITMAP
3820
7C60
C7C0
8380
ENDCHAR
STARTCHAR trademark
ENCODING -1
SWIDTH 980 0
DWIDTH 33 0
BBX 31 15 1 8
BITMAP
FFF3E03E
C630E038
8610F078
8610B078
0600B058
0600B8D8
06009898
06009898
06009D98
06008D18
06008F18
06008F18
06008618
06008618
1F83E67E
ENDCHAR
STARTCHAR zcaron
ENCODING -1
SWIDTH 444 0
DWIDTH 15 0
BBX 13 23 1 0
BITMAP
4020
6060
39C0
1F80
0F00
0600
0000
0000
7FF0
60F0
40E0
41E0
03C0
0380
0780
0700
0E00
1E00
1C08
3808
7808
7018
FFF0
ENDCHAR
ENDFONT
