STARTFONT 2.1
FONT -Adobe-Times-Medium-R-Normal--25-180-100-100-P-125-ISO8859-1
SIZE 18 100 100
FONTBOUNDINGBOX 27 29 -2 -6
COMMENT $XConsortium: timR18.bdf,v 1.7 95/01/26 17:59:36 gildea Exp $
COMMENT 
COMMENT +
COMMENT  Copyright 1984-1989, 1994 Adobe Systems Incorporated.
COMMENT  Copyright 1988, 1994 Digital Equipment Corporation.
COMMENT
COMMENT  Adobe is a trademark of Adobe Systems Incorporated which may be
COMMENT  registered in certain jurisdictions.
COMMENT  Permission to use these trademarks is hereby granted only in
COMMENT  association with the images described in this file.
COMMENT
COMMENT  Permission to use, copy, modify, distribute and sell this software
COMMENT  and its documentation for any purpose and without fee is hereby
COMMENT  granted, provided that the above copyright notices appear in all
COMMENT  copies and that both those copyright notices and this permission
COMMENT  notice appear in supporting documentation, and that the names of
COMMENT  Adobe Systems and Digital Equipment Corporation not be used in
COMMENT  advertising or publicity pertaining to distribution of the software
COMMENT  without specific, written prior permission.  Adobe Systems and
COMMENT  Digital Equipment Corporation make no representations about the
COMMENT  suitability of this software for any purpose.  It is provided "as
COMMENT  is" without express or implied warranty.
COMMENT -
STARTPROPERTIES 28
FOUNDRY "Adobe"
FAMILY_NAME "Times"
WEIGHT_NAME "Medium"
SLANT "R"
SETWIDTH_NAME "Normal"
ADD_STYLE_NAME ""
PIXEL_SIZE 25
POINT_SIZE 180
RESOLUTION_X 100
RESOLUTION_Y 100
SPACING "P"
AVERAGE_WIDTH 125
CHARSET_REGISTRY "ISO8859"
CHARSET_ENCODING "1"
CAP_HEIGHT 17
X_HEIGHT 12
FONT_ASCENT 20
FONT_DESCENT 6
FACE_NAME "Times Roman"
COPYRIGHT "Copyright (c) 1984, 1987 Adobe Systems Incorporated. All Rights Reserved. Copyright (c) 1988, 1991 Digital Equipment Corporation. All Rights Reserved."
NOTICE "Times is a trademark of Linotype-Hell AG and/or its subsidiaries."
_DEC_DEVICE_FONTNAMES "PS=Times-Roman"
_DEC_PRODUCTINFO "DECwindows Fonts V2.2, 07-Nov-1991"
DEFAULT_CHAR 32
RELATIVE_SETWIDTH 50
RELATIVE_WEIGHT 50
CHARSET_COLLECTIONS "ASCII ISO8859-1 ADOBE-STANDARD"
FULL_NAME "Times Roman"
ENDPROPERTIES
CHARS 229
STARTCHAR space
ENCODING 32
SWIDTH 250 0
DWIDTH 6 0
BBX 1 1 0 0
BITMAP
00
ENDCHAR
STARTCHAR exclam
ENCODING 33
SWIDTH 333 0
DWIDTH 8 0
BBX 3 17 3 0
BITMAP
40
E0
E0
E0
E0
E0
E0
E0
40
40
40
40
00
00
00
C0
C0
ENDCHAR
STARTCHAR quotedbl
ENCODING 34
SWIDTH 408 0
DWIDTH 10 0
BBX 6 5 1 12
BITMAP
CC
CC
CC
CC
88
ENDCHAR
STARTCHAR numbersign
ENCODING 35
SWIDTH 500 0
DWIDTH 13 0
BBX 11 17 1 0
BITMAP
0880
0880
0880
0880
0880
7FE0
7FE0
1100
1100
1100
FFC0
FFC0
2200
2200
2200
2200
2200
ENDCHAR
STARTCHAR dollar
ENCODING 36
SWIDTH 500 0
DWIDTH 12 0
BBX 11 21 0 -2
BITMAP
0400
0400
3F00
65C0
C4C0
C440
C440
E400
7C00
1E00
0780
05C0
04E0
0460
8460
8460
C4C0
E5C0
3F00
0400
0400
ENDCHAR
STARTCHAR percent
ENCODING 37
SWIDTH 833 0
DWIDTH 19 0
BBX 17 16 1 0
BITMAP
1E0C00
33FC00
611800
C11000
C13000
C26000
E44000
78C000
018F00
011980
033080
066080
046080
0C6100
187200
103C00
ENDCHAR
STARTCHAR ampersand
ENCODING 38
SWIDTH 778 0
DWIDTH 19 0
BBX 17 17 1 0
BITMAP
07C000
086000
182000
182000
186000
0CC000
0F9E00
070C00
0F0800
338800
619000
C0D000
C0E000
C06000
E0F080
7FBF00
3E0E00
ENDCHAR
STARTCHAR quoteright
ENCODING 39
SWIDTH 333 0
DWIDTH 8 0
BBX 3 5 3 12
BITMAP
C0
E0
20
60
C0
ENDCHAR
STARTCHAR parenleft
ENCODING 40
SWIDTH 333 0
DWIDTH 8 0
BBX 6 22 1 -5
BITMAP
04
08
10
30
20
60
60
C0
C0
C0
C0
C0
C0
C0
C0
60
60
20
30
10
08
04
ENDCHAR
STARTCHAR parenright
ENCODING 41
SWIDTH 333 0
DWIDTH 8 0
BBX 6 22 1 -5
BITMAP
80
40
20
30
10
18
18
0C
0C
0C
0C
0C
0C
0C
0C
18
18
10
30
20
40
80
ENDCHAR
STARTCHAR asterisk
ENCODING 42
SWIDTH 500 0
DWIDTH 12 0
BBX 9 9 2 8
BITMAP
1C00
1C00
C980
EB80
1C00
EB80
C980
1C00
1C00
ENDCHAR
STARTCHAR plus
ENCODING 43
SWIDTH 564 0
DWIDTH 12 0
BBX 12 12 0 0
BITMAP
0600
0600
0600
0600
0600
FFF0
FFF0
0600
0600
0600
0600
0600
ENDCHAR
STARTCHAR comma
ENCODING 44
SWIDTH 250 0
DWIDTH 7 0
BBX 3 5 2 -3
BITMAP
C0
E0
20
60
C0
ENDCHAR
STARTCHAR minus
ENCODING 45
SWIDTH 564 0
DWIDTH 15 0
BBX 11 2 2 5
BITMAP
FFE0
FFE0
ENDCHAR
STARTCHAR period
ENCODING 46
SWIDTH 250 0
DWIDTH 6 0
BBX 2 2 2 0
BITMAP
C0
C0
ENDCHAR
STARTCHAR slash
ENCODING 47
SWIDTH 278 0
DWIDTH 7 0
BBX 9 21 -2 -4
BITMAP
0180
0180
0100
0300
0300
0200
0600
0600
0400
0C00
0C00
0800
1800
1800
1000
3000
3000
6000
6000
4000
C000
ENDCHAR
STARTCHAR zero
ENCODING 48
SWIDTH 500 0
DWIDTH 12 0
BBX 10 17 1 0
BITMAP
1E00
3300
6180
6180
C0C0
C0C0
C0C0
C0C0
C0C0
C0C0
C0C0
C0C0
E1C0
6180
6180
3300
1E00
ENDCHAR
STARTCHAR one
ENCODING 49
SWIDTH 500 0
DWIDTH 12 0
BBX 8 17 2 0
BITMAP
08
18
78
18
18
18
18
18
18
18
18
18
18
18
18
18
FF
ENDCHAR
STARTCHAR two
ENCODING 50
SWIDTH 500 0
DWIDTH 12 0
BBX 10 17 1 0
BITMAP
1C00
7F00
4380
8180
8180
0180
0180
0300
0300
0600
0400
0C00
1800
3000
6040
FFC0
FF80
ENDCHAR
STARTCHAR three
ENCODING 51
SWIDTH 500 0
DWIDTH 12 0
BBX 9 17 1 0
BITMAP
1C00
7E00
4700
8300
8300
0600
0C00
1E00
0700
0380
0180
0180
0180
0100
C300
E600
7800
ENDCHAR
STARTCHAR four
ENCODING 52
SWIDTH 500 0
DWIDTH 12 0
BBX 10 17 1 0
BITMAP
0300
0700
0700
0B00
1B00
1300
3300
2300
6300
4300
C300
FFC0
FFC0
0300
0300
0300
0300
ENDCHAR
STARTCHAR five
ENCODING 53
SWIDTH 500 0
DWIDTH 12 0
BBX 10 17 1 0
BITMAP
1FC0
1F80
2000
2000
6000
7800
7E00
0F80
0380
01C0
00C0
00C0
00C0
00C0
C180
E380
7E00
ENDCHAR
STARTCHAR six
ENCODING 54
SWIDTH 500 0
DWIDTH 12 0
BBX 10 17 1 0
BITMAP
03C0
0E00
1800
3000
7000
6000
EE00
F380
C180
C0C0
C0C0
C0C0
C0C0
E0C0
6180
7B80
1E00
ENDCHAR
STARTCHAR seven
ENCODING 55
SWIDTH 500 0
DWIDTH 12 0
BBX 10 17 1 0
BITMAP
7FC0
FFC0
C0C0
8180
0180
0100
0300
0300
0200
0600
0600
0400
0C00
0C00
0C00
1800
1800
ENDCHAR
STARTCHAR eight
ENCODING 56
SWIDTH 500 0
DWIDTH 12 0
BBX 10 17 1 0
BITMAP
1E00
3300
6180
6180
6180
7300
3E00
1E00
3F00
6380
41C0
C0C0
C0C0
C0C0
E180
7380
1E00
ENDCHAR
STARTCHAR nine
ENCODING 57
SWIDTH 500 0
DWIDTH 12 0
BBX 10 17 1 0
BITMAP
1E00
7780
6180
C1C0
C0C0
C0C0
C0C0
C0C0
61C0
73C0
1D80
0180
0380
0300
0600
1C00
F000
ENDCHAR
STARTCHAR colon
ENCODING 58
SWIDTH 278 0
DWIDTH 6 0
BBX 2 11 2 0
BITMAP
C0
C0
00
00
00
00
00
00
00
C0
C0
ENDCHAR
STARTCHAR semicolon
ENCODING 59
SWIDTH 278 0
DWIDTH 7 0
BBX 3 14 2 -3
BITMAP
C0
C0
00
00
00
00
00
00
00
C0
E0
20
60
C0
ENDCHAR
STARTCHAR less
ENCODING 60
SWIDTH 564 0
DWIDTH 14 0
BBX 11 11 1 0
BITMAP
0060
01C0
0700
1C00
7000
C000
7000
1C00
0700
01C0
0060
ENDCHAR
STARTCHAR equal
ENCODING 61
SWIDTH 564 0
DWIDTH 13 0
BBX 9 5 2 3
BITMAP
FF80
FF80
0000
FF80
FF80
ENDCHAR
STARTCHAR greater
ENCODING 62
SWIDTH 564 0
DWIDTH 13 0
BBX 11 11 1 0
BITMAP
C000
7000
1C00
0700
01C0
0060
01C0
0700
1C00
7000
C000
ENDCHAR
STARTCHAR question
ENCODING 63
SWIDTH 444 0
DWIDTH 11 0
BBX 8 17 2 0
BITMAP
7C
C6
83
C3
C3
07
0E
0C
1C
18
18
10
10
00
00
30
30
ENDCHAR
STARTCHAR at
ENCODING 64
SWIDTH 921 0
DWIDTH 22 0
BBX 18 20 2 -3
BITMAP
03F800
0F0E00
1C0300
380180
700080
60ECC0
E1FC40
C38C40
C30C40
C60C40
C61840
C618C0
C61880
C63980
637B00
61DE00
300000
180000
0E0C00
03F000
ENDCHAR
STARTCHAR A
ENCODING 65
SWIDTH 722 0
DWIDTH 17 0
BBX 17 17 0 0
BITMAP
008000
01C000
01C000
016000
026000
023000
063000
043000
041800
0C1800
0FF800
080C00
180C00
100C00
100600
300600
FC1F80
ENDCHAR
STARTCHAR B
ENCODING 66
SWIDTH 667 0
DWIDTH 16 0
BBX 14 17 1 0
BITMAP
FFC0
3070
3030
3018
3018
3018
3030
3040
3FE0
3038
3018
300C
300C
300C
3018
3078
FFE0
ENDCHAR
STARTCHAR C
ENCODING 67
SWIDTH 667 0
DWIDTH 16 0
BBX 14 17 1 0
BITMAP
07E4
1C3C
380C
6004
6004
C000
C000
C000
C000
C000
C000
C000
6000
6004
3808
1E38
07E0
ENDCHAR
STARTCHAR D
ENCODING 68
SWIDTH 722 0
DWIDTH 17 0
BBX 15 17 1 0
BITMAP
FFC0
3070
3038
300C
300C
3006
3006
3006
3006
3006
3006
3006
300C
300C
3038
3070
FFC0
ENDCHAR
STARTCHAR E
ENCODING 69
SWIDTH 611 0
DWIDTH 15 0
BBX 13 17 1 0
BITMAP
FFF0
3030
3010
3010
3000
3000
3040
3040
3FC0
3040
3040
3000
3000
3008
3008
3018
FFF8
ENDCHAR
STARTCHAR F
ENCODING 70
SWIDTH 556 0
DWIDTH 14 0
BBX 12 17 1 0
BITMAP
FFF0
3030
3010
3010
3000
3000
3020
3020
3FE0
3020
3020
3000
3000
3000
3000
3000
FC00
ENDCHAR
STARTCHAR G
ENCODING 71
SWIDTH 722 0
DWIDTH 18 0
BBX 16 17 1 0
BITMAP
07E4
1C3C
380C
6004
6004
C000
C000
C000
C000
C03F
C00C
C00C
600C
600C
381C
1E38
07E0
ENDCHAR
STARTCHAR H
ENCODING 72
SWIDTH 722 0
DWIDTH 19 0
BBX 17 17 1 0
BITMAP
FC1F80
300600
300600
300600
300600
300600
300600
300600
3FFE00
300600
300600
300600
300600
300600
300600
300600
FC1F80
ENDCHAR
STARTCHAR I
ENCODING 73
SWIDTH 333 0
DWIDTH 8 0
BBX 6 17 1 0
BITMAP
FC
30
30
30
30
30
30
30
30
30
30
30
30
30
30
30
FC
ENDCHAR
STARTCHAR J
ENCODING 74
SWIDTH 389 0
DWIDTH 11 0
BBX 9 17 1 0
BITMAP
1F80
0600
0600
0600
0600
0600
0600
0600
0600
0600
0600
0600
0600
0600
C600
CC00
7800
ENDCHAR
STARTCHAR K
ENCODING 75
SWIDTH 722 0
DWIDTH 17 0
BBX 16 17 1 0
BITMAP
FC7E
3018
3030
3060
30C0
3180
3300
3E00
3F00
3380
31C0
30E0
3070
3038
301C
300E
FC1F
ENDCHAR
STARTCHAR L
ENCODING 76
SWIDTH 611 0
DWIDTH 14 0
BBX 13 17 1 0
BITMAP
FC00
3000
3000
3000
3000
3000
3000
3000
3000
3000
3000
3000
3000
3008
3008
3018
FFF8
ENDCHAR
STARTCHAR M
ENCODING 77
SWIDTH 889 0
DWIDTH 22 0
BBX 21 17 1 0
BITMAP
F000F8
3000E0
380160
380160
2C0260
2C0260
260260
260460
230460
230860
218860
218860
20D060
20D060
206060
206060
F861F8
ENDCHAR
STARTCHAR N
ENCODING 78
SWIDTH 722 0
DWIDTH 18 0
BBX 16 17 1 0
BITMAP
F01F
3004
3804
3804
2C04
2604
2604
2304
2184
2184
20C4
2064
2064
2034
201C
201C
F80C
ENDCHAR
STARTCHAR O
ENCODING 79
SWIDTH 722 0
DWIDTH 18 0
BBX 16 17 1 0
BITMAP
07E0
1C38
381C
6006
6006
C003
C003
C003
C003
C003
C003
C003
6006
6006
381C
1C38
07E0
ENDCHAR
STARTCHAR P
ENCODING 80
SWIDTH 556 0
DWIDTH 15 0
BBX 13 17 1 0
BITMAP
FFC0
3070
3030
3018
3018
3018
3030
3070
3FC0
3000
3000
3000
3000
3000
3000
3000
FC00
ENDCHAR
STARTCHAR Q
ENCODING 81
SWIDTH 722 0
DWIDTH 18 0
BBX 16 22 1 -5
BITMAP
07E0
1C38
381C
6006
6006
C003
C003
C003
C003
C003
C003
C003
6006
6006
381C
1C38
07E0
01C0
00E0
0070
0038
000F
ENDCHAR
STARTCHAR R
ENCODING 82
SWIDTH 667 0
DWIDTH 16 0
BBX 15 17 1 0
BITMAP
FFC0
3070
3030
3018
3018
3018
3030
3070
3FC0
3380
3180
30C0
3060
3070
3038
301C
FC1E
ENDCHAR
STARTCHAR S
ENCODING 83
SWIDTH 556 0
DWIDTH 13 0
BBX 11 17 1 0
BITMAP
1E40
63C0
C0C0
C040
C040
E000
7800
1E00
0F80
03C0
00E0
0060
8060
8060
C0C0
F180
9E00
ENDCHAR
STARTCHAR T
ENCODING 84
SWIDTH 611 0
DWIDTH 16 0
BBX 14 17 1 0
BITMAP
FFFC
C30C
8304
8304
0300
0300
0300
0300
0300
0300
0300
0300
0300
0300
0300
0300
0FC0
ENDCHAR
STARTCHAR U
ENCODING 85
SWIDTH 722 0
DWIDTH 18 0
BBX 16 17 1 0
BITMAP
FC1F
3004
3004
3004
3004
3004
3004
3004
3004
3004
3004
3004
3004
3008
1808
1C30
07E0
ENDCHAR
STARTCHAR V
ENCODING 86
SWIDTH 722 0
DWIDTH 17 0
BBX 17 17 0 0
BITMAP
FC1F80
300600
300400
180C00
180800
180800
0C1800
0C1000
063000
062000
062000
036000
034000
03C000
018000
018000
018000
ENDCHAR
STARTCHAR W
ENCODING 87
SWIDTH 944 0
DWIDTH 23 0
BBX 23 17 0 0
BITMAP
FC7E7E
301818
301810
181810
181830
182C20
0C2C20
0C2C60
064C60
064C40
064640
0346C0
034680
038780
018380
018300
018300
ENDCHAR
STARTCHAR X
ENCODING 88
SWIDTH 722 0
DWIDTH 18 0
BBX 18 17 0 0
BITMAP
7E0F80
1C0600
0E0C00
060800
031000
01A000
01C000
00C000
00E000
017000
023800
061800
040C00
080E00
180700
300380
FC0FC0
ENDCHAR
STARTCHAR Y
ENCODING 89
SWIDTH 722 0
DWIDTH 18 0
BBX 16 17 1 0
BITMAP
FC3F
300C
3808
1818
1C10
0C30
0620
0660
0340
03C0
0180
0180
0180
0180
0180
0180
07E0
ENDCHAR
STARTCHAR Z
ENCODING 90
SWIDTH 611 0
DWIDTH 15 0
BBX 13 17 1 0
BITMAP
FFF0
C070
80E0
80C0
01C0
0380
0300
0700
0600
0E00
1C00
1800
3800
3008
7008
E018
FFF8
ENDCHAR
STARTCHAR bracketleft
ENCODING 91
SWIDTH 333 0
DWIDTH 8 0
BBX 5 21 2 -4
BITMAP
F8
C0
C0
C0
C0
C0
C0
C0
C0
C0
C0
C0
C0
C0
C0
C0
C0
C0
C0
C0
F8
ENDCHAR
STARTCHAR backslash
ENCODING 92
SWIDTH 278 0
DWIDTH 7 0
BBX 7 17 0 0
BITMAP
C0
C0
40
60
60
20
30
30
10
18
18
08
0C
0C
04
06
06
ENDCHAR
STARTCHAR bracketright
ENCODING 93
SWIDTH 333 0
DWIDTH 8 0
BBX 5 21 1 -4
BITMAP
F8
18
18
18
18
18
18
18
18
18
18
18
18
18
18
18
18
18
18
18
F8
ENDCHAR
STARTCHAR asciicircum
ENCODING 94
SWIDTH 469 0
DWIDTH 11 0
BBX 9 9 1 8
BITMAP
0800
1C00
1400
3600
2200
6300
4100
C180
8080
ENDCHAR
STARTCHAR underscore
ENCODING 95
SWIDTH 500 0
DWIDTH 12 0
BBX 12 2 0 -5
BITMAP
FFF0
FFF0
ENDCHAR
STARTCHAR quoteleft
ENCODING 96
SWIDTH 333 0
DWIDTH 7 0
BBX 3 5 2 12
BITMAP
60
C0
80
E0
60
ENDCHAR
STARTCHAR a
ENCODING 97
SWIDTH 444 0
DWIDTH 11 0
BBX 9 12 1 0
BITMAP
3E00
6700
6300
0300
0F00
3B00
6300
C300
C300
C700
FB00
7180
ENDCHAR
STARTCHAR b
ENCODING 98
SWIDTH 500 0
DWIDTH 12 0
BBX 11 17 0 0
BITMAP
3000
F000
3000
3000
3000
3700
39C0
30C0
3060
3060
3060
3060
3060
3060
30C0
39C0
2F00
ENDCHAR
STARTCHAR c
ENCODING 99
SWIDTH 444 0
DWIDTH 11 0
BBX 9 12 1 0
BITMAP
1F00
6380
4180
C000
C000
C000
C000
C000
E000
7080
7F00
1E00
ENDCHAR
STARTCHAR d
ENCODING 100
SWIDTH 500 0
DWIDTH 12 0
BBX 10 17 1 0
BITMAP
0180
0780
0180
0180
0180
1D80
7380
6180
C180
C180
C180
C180
C180
C180
6380
7F80
19C0
ENDCHAR
STARTCHAR e
ENCODING 101
SWIDTH 444 0
DWIDTH 11 0
BBX 9 12 1 0
BITMAP
1E00
6300
4180
C180
FF80
C000
C000
C000
E000
7080
7F00
1E00
ENDCHAR
STARTCHAR f
ENCODING 102
SWIDTH 333 0
DWIDTH 7 0
BBX 7 17 0 0
BITMAP
0E
16
30
30
30
FE
30
30
30
30
30
30
30
30
30
30
78
ENDCHAR
STARTCHAR g
ENCODING 103
SWIDTH 500 0
DWIDTH 12 0
BBX 11 18 1 -6
BITMAP
1EC0
23C0
6100
6180
6180
6180
6180
3300
3C00
4000
6000
7F80
3FC0
40E0
C060
C060
E1C0
7F00
ENDCHAR
STARTCHAR h
ENCODING 104
SWIDTH 500 0
DWIDTH 13 0
BBX 12 17 0 0
BITMAP
3000
F000
3000
3000
3000
3380
37C0
38E0
3060
3060
3060
3060
3060
3060
3060
3060
78F0
ENDCHAR
STARTCHAR i
ENCODING 105
SWIDTH 278 0
DWIDTH 6 0
BBX 4 17 1 0
BITMAP
60
60
00
00
00
60
E0
60
60
60
60
60
60
60
60
60
F0
ENDCHAR
STARTCHAR j
ENCODING 106
SWIDTH 278 0
DWIDTH 6 0
BBX 6 23 -2 -6
BITMAP
0C
0C
00
00
00
0C
1C
0C
0C
0C
0C
0C
0C
0C
0C
0C
0C
0C
0C
0C
CC
C8
70
ENDCHAR
STARTCHAR k
ENCODING 107
SWIDTH 500 0
DWIDTH 12 0
BBX 12 17 0 0
BITMAP
3000
F000
3000
3000
3000
33E0
3180
3300
3200
3400
3C00
3600
3700
3380
31C0
30E0
79F0
ENDCHAR
STARTCHAR l
ENCODING 108
SWIDTH 278 0
DWIDTH 6 0
BBX 5 17 0 0
BITMAP
30
F0
30
30
30
30
30
30
30
30
30
30
30
30
30
30
78
ENDCHAR
STARTCHAR m
ENCODING 109
SWIDTH 778 0
DWIDTH 20 0
BBX 18 12 1 0
BITMAP
670E00
EF9F00
71E380
60C180
60C180
60C180
60C180
60C180
60C180
60C180
60C180
F1E3C0
ENDCHAR
STARTCHAR n
ENCODING 110
SWIDTH 500 0
DWIDTH 13 0
BBX 11 12 1 0
BITMAP
6700
EF80
71C0
60C0
60C0
60C0
60C0
60C0
60C0
60C0
60C0
F1E0
ENDCHAR
STARTCHAR o
ENCODING 111
SWIDTH 500 0
DWIDTH 12 0
BBX 10 12 1 0
BITMAP
1E00
7380
6180
C0C0
C0C0
C0C0
C0C0
C0C0
C0C0
6180
7380
1E00
ENDCHAR
STARTCHAR p
ENCODING 112
SWIDTH 500 0
DWIDTH 12 0
BBX 10 18 1 -6
BITMAP
6E00
F380
6180
60C0
60C0
60C0
60C0
60C0
60C0
6180
7380
6E00
6000
6000
6000
6000
6000
F000
ENDCHAR
STARTCHAR q
ENCODING 113
SWIDTH 500 0
DWIDTH 12 0
BBX 10 18 1 -6
BITMAP
1D80
7380
6180
C180
C180
C180
C180
C180
C180
6180
7380
1D80
0180
0180
0180
0180
0180
03C0
ENDCHAR
STARTCHAR r
ENCODING 114
SWIDTH 333 0
DWIDTH 8 0
BBX 6 12 1 0
BITMAP
6C
EC
70
60
60
60
60
60
60
60
60
F0
ENDCHAR
STARTCHAR s
ENCODING 115
SWIDTH 389 0
DWIDTH 10 0
BBX 8 12 1 0
BITMAP
3E
46
C2
E0
70
7C
1E
07
03
83
C6
F8
ENDCHAR
STARTCHAR t
ENCODING 116
SWIDTH 278 0
DWIDTH 7 0
BBX 7 15 0 0
BITMAP
10
30
70
FE
30
30
30
30
30
30
30
30
30
32
1C
ENDCHAR
STARTCHAR u
ENCODING 117
SWIDTH 500 0
DWIDTH 13 0
BBX 11 12 1 0
BITMAP
E1C0
60C0
60C0
60C0
60C0
60C0
60C0
60C0
60C0
71C0
3EC0
1CE0
ENDCHAR
STARTCHAR v
ENCODING 118
SWIDTH 500 0
DWIDTH 11 0
BBX 11 12 0 0
BITMAP
F1E0
60C0
6080
3080
3080
3100
1900
1900
1A00
0E00
0E00
0400
ENDCHAR
STARTCHAR w
ENCODING 119
SWIDTH 722 0
DWIDTH 17 0
BBX 17 12 0 0
BITMAP
F1E780
60C300
60C200
30C200
30C200
316400
196400
1A6400
1A2800
0E3800
0E3800
041000
ENDCHAR
STARTCHAR x
ENCODING 120
SWIDTH 500 0
DWIDTH 13 0
BBX 11 12 1 0
BITMAP
F1E0
60C0
3180
3900
1A00
0C00
0E00
1B00
3380
2180
60C0
F1E0
ENDCHAR
STARTCHAR y
ENCODING 121
SWIDTH 500 0
DWIDTH 11 0
BBX 12 18 -1 -6
BITMAP
78F0
3060
3040
1840
1840
1880
0C80
0C80
0D00
0700
0700
0200
0600
0400
0C00
C800
F000
6000
ENDCHAR
STARTCHAR z
ENCODING 122
SWIDTH 444 0
DWIDTH 10 0
BBX 8 12 1 0
BITMAP
FF
C3
86
0E
1C
18
38
30
70
61
C3
FF
ENDCHAR
STARTCHAR braceleft
ENCODING 123
SWIDTH 480 0
DWIDTH 10 0
BBX 8 22 1 -5
BITMAP
07
0C
18
18
18
18
18
10
30
20
C0
20
30
10
18
18
18
18
18
18
0C
07
ENDCHAR
STARTCHAR bar
ENCODING 124
SWIDTH 200 0
DWIDTH 5 0
BBX 2 17 1 0
BITMAP
C0
C0
C0
C0
C0
C0
C0
C0
C0
C0
C0
C0
C0
C0
C0
C0
C0
ENDCHAR
STARTCHAR braceright
ENCODING 125
SWIDTH 480 0
DWIDTH 10 0
BBX 8 22 1 -5
BITMAP
E0
30
18
18
18
18
18
08
0C
04
03
04
0C
08
18
18
18
18
18
18
30
E0
ENDCHAR
STARTCHAR asciitilde
ENCODING 126
SWIDTH 541 0
DWIDTH 13 0
BBX 11 4 1 4
BITMAP
3820
7C60
C7C0
8380
ENDCHAR
STARTCHAR space
ENCODING 160
SWIDTH 250 0
DWIDTH 6 0
BBX 1 1 0 0
BITMAP
00
ENDCHAR
STARTCHAR exclamdown
ENCODING 161
SWIDTH 333 0
DWIDTH 8 0
BBX 3 17 3 -5
BITMAP
60
60
00
00
00
40
40
40
40
E0
E0
E0
E0
E0
E0
E0
40
ENDCHAR
STARTCHAR cent
ENCODING 162
SWIDTH 500 0
DWIDTH 12 0
BBX 9 16 1 -2
BITMAP
0200
0200
0F00
3380
6580
C400
C400
C800
C800
C800
D000
7080
7100
3E00
4000
4000
ENDCHAR
STARTCHAR sterling
ENCODING 163
SWIDTH 500 0
DWIDTH 12 0
BBX 10 17 1 0
BITMAP
0F00
1980
3180
3000
3000
3000
3000
FC00
3000
3000
3000
3000
3000
3000
7840
BEC0
E780
ENDCHAR
STARTCHAR currency
ENCODING 164
SWIDTH 500 0
DWIDTH 13 0
BBX 11 12 1 3
BITMAP
C060
EEE0
7FC0
3180
60C0
60C0
60C0
60C0
3180
7FC0
EEE0
C060
ENDCHAR
STARTCHAR yen
ENCODING 165
SWIDTH 500 0
DWIDTH 14 0
BBX 14 17 0 0
BITMAP
F87C
7030
3020
1860
1840
0CC0
0C80
0780
0300
1FE0
0300
1FE0
0300
0300
0300
0300
0FC0
ENDCHAR
STARTCHAR brokenbar
ENCODING 166
SWIDTH 200 0
DWIDTH 6 0
BBX 2 17 2 0
BITMAP
C0
C0
C0
C0
C0
C0
C0
00
00
00
C0
C0
C0
C0
C0
C0
C0
ENDCHAR
STARTCHAR section
ENCODING 167
SWIDTH 500 0
DWIDTH 12 0
BBX 8 20 2 -3
BITMAP
1C
26
46
60
70
38
3C
4E
87
83
C3
E2
74
38
1C
0E
06
62
64
38
ENDCHAR
STARTCHAR dieresis
ENCODING 168
SWIDTH 333 0
DWIDTH 8 0
BBX 6 2 1 14
BITMAP
CC
CC
ENDCHAR
STARTCHAR copyright
ENCODING 169
SWIDTH 760 0
DWIDTH 19 0
BBX 17 17 1 0
BITMAP
07F000
1C1C00
300600
61E300
473100
C41980
8C0080
880080
880080
880080
8C0080
C41980
477100
61C300
300600
1C1C00
07F000
ENDCHAR
STARTCHAR ordfeminine
ENCODING 170
SWIDTH 276 0
DWIDTH 8 0
BBX 7 9 0 8
BITMAP
78
CC
0C
7C
CC
CC
76
00
FE
ENDCHAR
STARTCHAR guillemotleft
ENCODING 171
SWIDTH 500 0
DWIDTH 13 0
BBX 9 10 1 1
BITMAP
0880
1980
3300
6600
CC00
CC00
6600
3300
1980
0880
ENDCHAR
STARTCHAR logicalnot
ENCODING 172
SWIDTH 564 0
DWIDTH 15 0
BBX 11 7 2 1
BITMAP
FFE0
FFE0
0060
0060
0060
0060
0060
ENDCHAR
STARTCHAR hyphen
ENCODING 173
SWIDTH 333 0
DWIDTH 8 0
BBX 6 2 0 5
BITMAP
FC
FC
ENDCHAR
STARTCHAR registered
ENCODING 174
SWIDTH 760 0
DWIDTH 19 0
BBX 17 17 1 0
BITMAP
07F000
1C1C00
300600
67E300
423100
C21180
821080
823080
83E080
824080
822080
C23180
471900
600300
300600
1C1C00
07F000
ENDCHAR
STARTCHAR macron
ENCODING 175
SWIDTH 333 0
DWIDTH 8 0
BBX 7 2 1 14
BITMAP
FE
FE
ENDCHAR
STARTCHAR degree
ENCODING 176
SWIDTH 400 0
DWIDTH 9 0
BBX 7 7 1 10
BITMAP
38
44
82
82
82
44
38
ENDCHAR
STARTCHAR plusminus
ENCODING 177
SWIDTH 564 0
DWIDTH 14 0
BBX 10 11 2 0
BITMAP
0C00
0C00
0C00
FFC0
FFC0
0C00
0C00
0C00
0000
FFC0
FFC0
ENDCHAR
STARTCHAR twosuperior
ENCODING 178
SWIDTH 300 0
DWIDTH 7 0
BBX 6 10 0 7
BITMAP
38
4C
8C
0C
08
10
30
20
44
FC
ENDCHAR
STARTCHAR threesuperior
ENCODING 179
SWIDTH 300 0
DWIDTH 7 0
BBX 6 10 0 7
BITMAP
38
4C
8C
08
30
08
0C
8C
88
70
ENDCHAR
STARTCHAR acute
ENCODING 180
SWIDTH 333 0
DWIDTH 8 0
BBX 5 4 2 13
BITMAP
18
38
70
C0
ENDCHAR
STARTCHAR mu
ENCODING 181
SWIDTH 500 0
DWIDTH 13 0
BBX 11 17 1 -5
BITMAP
E1C0
60C0
60C0
60C0
60C0
60C0
60C0
60C0
60C0
71C0
7EC0
5CE0
4000
C000
C000
E000
4000
ENDCHAR
STARTCHAR paragraph
ENCODING 182
SWIDTH 453 0
DWIDTH 11 0
BBX 9 21 1 -4
BITMAP
1F80
3900
7900
7900
F900
F900
F900
7900
7900
3900
1900
0900
0900
0900
0900
0900
0900
0900
0900
0900
0900
ENDCHAR
STARTCHAR periodcentered
ENCODING 183
SWIDTH 250 0
DWIDTH 6 0
BBX 2 3 2 5
BITMAP
C0
C0
C0
ENDCHAR
STARTCHAR cedilla
ENCODING 184
SWIDTH 333 0
DWIDTH 8 0
BBX 6 6 1 -6
BITMAP
10
30
3C
0C
CC
78
ENDCHAR
STARTCHAR onesuperior
ENCODING 185
SWIDTH 300 0
DWIDTH 7 0
BBX 5 10 1 7
BITMAP
20
60
A0
20
20
20
20
20
20
F8
ENDCHAR
STARTCHAR ordmasculine
ENCODING 186
SWIDTH 310 0
DWIDTH 8 0
BBX 7 9 0 8
BITMAP
38
44
C6
C6
C6
44
38
00
FE
ENDCHAR
STARTCHAR guillemotright
ENCODING 187
SWIDTH 500 0
DWIDTH 12 0
BBX 9 10 2 1
BITMAP
8800
CC00
6600
3300
1980
1980
3300
6600
CC00
8800
ENDCHAR
STARTCHAR onequarter
ENCODING 188
SWIDTH 750 0
DWIDTH 18 0
BBX 16 17 1 0
BITMAP
2018
6018
A030
2060
2060
20C0
20C0
2184
230C
FB1C
0614
0624
0C64
1844
18FF
3004
3004
ENDCHAR
STARTCHAR onehalf
ENCODING 189
SWIDTH 750 0
DWIDTH 18 0
BBX 15 17 1 0
BITMAP
2018
6018
A030
2060
2060
20C0
20C0
219C
2326
FB46
0606
0604
0C08
1818
1810
3022
307E
ENDCHAR
STARTCHAR threequarters
ENCODING 190
SWIDTH 750 0
DWIDTH 18 0
BBX 17 17 0 0
BITMAP
380C00
4C0C00
8C1800
083000
303000
086000
0C6000
8CC200
898600
718E00
030A00
031200
063200
0C2200
0C7F80
180200
180200
ENDCHAR
STARTCHAR questiondown
ENCODING 191
SWIDTH 444 0
DWIDTH 11 0
BBX 8 17 1 -5
BITMAP
0C
0C
00
00
08
08
18
18
38
30
70
E0
C3
C3
C1
63
3E
ENDCHAR
STARTCHAR Agrave
ENCODING 192
SWIDTH 722 0
DWIDTH 17 0
BBX 17 22 0 0
BITMAP
0C0000
0E0000
070000
018000
000000
008000
01C000
01C000
016000
026000
023000
063000
043000
041800
0C1800
0FF800
080C00
180C00
100C00
100600
300600
FC1F80
ENDCHAR
STARTCHAR Aacute
ENCODING 193
SWIDTH 722 0
DWIDTH 17 0
BBX 17 22 0 0
BITMAP
001800
003800
007000
00C000
000000
008000
01C000
01C000
016000
026000
023000
063000
043000
041800
0C1800
0FF800
080C00
180C00
100C00
100600
300600
FC1F80
ENDCHAR
STARTCHAR Acircumflex
ENCODING 194
SWIDTH 722 0
DWIDTH 17 0
BBX 17 22 0 0
BITMAP
018000
03C000
066000
042000
000000
008000
01C000
01C000
016000
026000
023000
063000
043000
041800
0C1800
0FF800
080C00
180C00
100C00
100600
300600
FC1F80
ENDCHAR
STARTCHAR Atilde
ENCODING 195
SWIDTH 722 0
DWIDTH 17 0
BBX 17 21 0 0
BITMAP
032000
07E000
04C000
000000
008000
01C000
01C000
016000
026000
023000
063000
043000
041800
0C1800
0FF800
080C00
180C00
100C00
100600
300600
FC1F80
ENDCHAR
STARTCHAR Adieresis
ENCODING 196
SWIDTH 722 0
DWIDTH 17 0
BBX 17 21 0 0
BITMAP
066000
066000
000000
000000
008000
01C000
01C000
016000
026000
023000
063000
043000
041800
0C1800
0FF800
080C00
180C00
100C00
100600
300600
FC1F80
ENDCHAR
STARTCHAR Aring
ENCODING 197
SWIDTH 722 0
DWIDTH 17 0
BBX 17 23 0 0
BITMAP
01C000
022000
022000
022000
01C000
000000
008000
01C000
01C000
016000
026000
023000
063000
043000
041800
0C1800
0FF800
080C00
180C00
100C00
100600
300600
FC1F80
ENDCHAR
STARTCHAR AE
ENCODING 198
SWIDTH 889 0
DWIDTH 22 0
BBX 21 17 0 0
BITMAP
03FFF0
00F030
01B010
013010
033000
023000
063040
043040
043FC0
0C3040
0FF040
083000
183000
103008
303008
203018
F8FFF8
ENDCHAR
STARTCHAR Ccedilla
ENCODING 199
SWIDTH 667 0
DWIDTH 16 0
BBX 14 23 1 -6
BITMAP
07E4
1C3C
380C
6004
6004
C000
C000
C000
C000
C000
C000
C000
6000
6004
3808
1E38
07E0
0100
0300
03C0
00C0
0CC0
0780
ENDCHAR
STARTCHAR Egrave
ENCODING 200
SWIDTH 611 0
DWIDTH 15 0
BBX 13 22 1 0
BITMAP
1800
1C00
0E00
0300
0000
FFF0
3030
3010
3010
3000
3000
3040
3040
3FC0
3040
3040
3000
3000
3008
3008
3018
FFF8
ENDCHAR
STARTCHAR Eacute
ENCODING 201
SWIDTH 611 0
DWIDTH 15 0
BBX 13 22 1 0
BITMAP
0060
00E0
01C0
0300
0000
FFF0
3030
3010
3010
3000
3000
3040
3040
3FC0
3040
3040
3000
3000
3008
3008
3018
FFF8
ENDCHAR
STARTCHAR Ecircumflex
ENCODING 202
SWIDTH 611 0
DWIDTH 15 0
BBX 13 22 1 0
BITMAP
0600
0F00
1980
1080
0000
FFF0
3030
3010
3010
3000
3000
3040
3040
3FC0
3040
3040
3000
3000
3008
3008
3018
FFF8
ENDCHAR
STARTCHAR Edieresis
ENCODING 203
SWIDTH 611 0
DWIDTH 15 0
BBX 13 21 1 0
BITMAP
1980
1980
0000
0000
FFF0
3030
3010
3010
3000
3000
3040
3040
3FC0
3040
3040
3000
3000
3008
3008
3018
FFF8
ENDCHAR
STARTCHAR Igrave
ENCODING 204
SWIDTH 333 0
DWIDTH 8 0
BBX 7 22 0 0
BITMAP
C0
E0
70
18
00
7E
18
18
18
18
18
18
18
18
18
18
18
18
18
18
18
7E
ENDCHAR
STARTCHAR Iacute
ENCODING 205
SWIDTH 333 0
DWIDTH 8 0
BBX 7 22 1 0
BITMAP
06
0E
1C
30
00
FC
30
30
30
30
30
30
30
30
30
30
30
30
30
30
30
FC
ENDCHAR
STARTCHAR Icircumflex
ENCODING 206
SWIDTH 333 0
DWIDTH 8 0
BBX 6 22 1 0
BITMAP
30
78
CC
84
00
FC
30
30
30
30
30
30
30
30
30
30
30
30
30
30
30
FC
ENDCHAR
STARTCHAR Idieresis
ENCODING 207
SWIDTH 333 0
DWIDTH 8 0
BBX 6 21 1 0
BITMAP
CC
CC
00
00
FC
30
30
30
30
30
30
30
30
30
30
30
30
30
30
30
FC
ENDCHAR
STARTCHAR Eth
ENCODING 208
SWIDTH 722 0
DWIDTH 17 0
BBX 16 17 0 0
BITMAP
7FE0
1838
181C
1806
1806
1803
1803
FF03
FF03
1803
1803
1803
1806
1806
181C
1838
7FE0
ENDCHAR
STARTCHAR Ntilde
ENCODING 209
SWIDTH 722 0
DWIDTH 18 0
BBX 16 21 1 0
BITMAP
0320
07E0
04C0
0000
F01F
3004
3804
3804
2C04
2604
2604
2304
2184
2184
20C4
2064
2064
2034
201C
201C
F80C
ENDCHAR
STARTCHAR Ograve
ENCODING 210
SWIDTH 722 0
DWIDTH 18 0
BBX 16 22 1 0
BITMAP
0C00
0E00
0700
0180
0000
07E0
1C38
381C
6006
6006
C003
C003
C003
C003
C003
C003
C003
6006
6006
381C
1C38
07E0
ENDCHAR
STARTCHAR Oacute
ENCODING 211
SWIDTH 722 0
DWIDTH 18 0
BBX 16 22 1 0
BITMAP
0030
0070
00E0
0180
0000
07E0
1C38
381C
6006
6006
C003
C003
C003
C003
C003
C003
C003
6006
6006
381C
1C38
07E0
ENDCHAR
STARTCHAR Ocircumflex
ENCODING 212
SWIDTH 722 0
DWIDTH 18 0
BBX 16 22 1 0
BITMAP
0180
03C0
0660
0420
0000
07E0
1C38
381C
6006
6006
C003
C003
C003
C003
C003
C003
C003
6006
6006
381C
1C38
07E0
ENDCHAR
STARTCHAR Otilde
ENCODING 213
SWIDTH 722 0
DWIDTH 18 0
BBX 16 21 1 0
BITMAP
0320
07E0
04C0
0000
07E0
1C38
381C
6006
6006
C003
C003
C003
C003
C003
C003
C003
6006
6006
381C
1C38
07E0
ENDCHAR
STARTCHAR Odieresis
ENCODING 214
SWIDTH 722 0
DWIDTH 18 0
BBX 16 21 1 0
BITMAP
0660
0660
0000
0000
07E0
1C38
381C
6006
6006
C003
C003
C003
C003
C003
C003
C003
6006
6006
381C
1C38
07E0
ENDCHAR
STARTCHAR multiply
ENCODING 215
SWIDTH 564 0
DWIDTH 12 0
BBX 10 9 1 1
BITMAP
C0C0
6180
3300
1E00
0C00
1E00
3300
6180
C0C0
ENDCHAR
STARTCHAR Oslash
ENCODING 216
SWIDTH 722 0
DWIDTH 18 0
BBX 16 19 1 -1
BITMAP
0004
07E4
1C38
381C
6026
6046
C043
C083
C083
C103
C103
C203
C203
6406
6806
381C
1C38
27E0
2000
ENDCHAR
STARTCHAR Ugrave
ENCODING 217
SWIDTH 722 0
DWIDTH 18 0
BBX 16 22 1 0
BITMAP
0600
0700
0380
00C0
0000
FC1F
3004
3004
3004
3004
3004
3004
3004
3004
3004
3004
3004
3004
3008
1808
1C30
07E0
ENDCHAR
STARTCHAR Uacute
ENCODING 218
SWIDTH 722 0
DWIDTH 18 0
BBX 16 22 1 0
BITMAP
0030
0070
00E0
0180
0000
FC1F
3004
3004
3004
3004
3004
3004
3004
3004
3004
3004
3004
3004
3008
1808
1C30
07E0
ENDCHAR
STARTCHAR Ucircumflex
ENCODING 219
SWIDTH 722 0
DWIDTH 18 0
BBX 16 22 1 0
BITMAP
0180
03C0
0660
0420
0000
FC1F
3004
3004
3004
3004
3004
3004
3004
3004
3004
3004
3004
3004
3008
1808
1C30
07E0
ENDCHAR
STARTCHAR Udieresis
ENCODING 220
SWIDTH 722 0
DWIDTH 18 0
BBX 16 21 1 0
BITMAP
0660
0660
0000
0000
FC1F
3004
3004
3004
3004
3004
3004
3004
3004
3004
3004
3004
3004
3008
1808
1C30
07E0
ENDCHAR
STARTCHAR Yacute
ENCODING 221
SWIDTH 722 0
DWIDTH 18 0
BBX 16 22 1 0
BITMAP
0030
0070
00E0
0180
0000
FC3F
300C
3808
1818
1C10
0C30
0620
0660
0340
03C0
0180
0180
0180
0180
0180
0180
07E0
ENDCHAR
STARTCHAR Thorn
ENCODING 222
SWIDTH 556 0
DWIDTH 15 0
BBX 13 17 1 0
BITMAP
FC00
3000
3000
3000
3FC0
3070
3030
3018
3018
3018
3030
3070
3FC0
3000
3000
3000
FC00
ENDCHAR
STARTCHAR germandbls
ENCODING 223
SWIDTH 500 0
DWIDTH 12 0
BBX 10 17 1 0
BITMAP
1E00
3300
6180
6180
6180
6180
6300
6C00
6700
6380
6180
61C0
60C0
60C0
6CC0
6C80
E700
ENDCHAR
STARTCHAR agrave
ENCODING 224
SWIDTH 444 0
DWIDTH 11 0
BBX 9 17 1 0
BITMAP
6000
7000
3800
0C00
0000
3E00
6700
6300
0300
0F00
3B00
6300
C300
C300
C700
FB00
7180
ENDCHAR
STARTCHAR aacute
ENCODING 225
SWIDTH 444 0
DWIDTH 11 0
BBX 9 17 1 0
BITMAP
0300
0700
0E00
1800
0000
3E00
6700
6300
0300
0F00
3B00
6300
C300
C300
C700
FB00
7180
ENDCHAR
STARTCHAR acircumflex
ENCODING 226
SWIDTH 444 0
DWIDTH 11 0
BBX 9 17 1 0
BITMAP
0C00
1E00
3300
2100
0000
3E00
6700
6300
0300
0F00
3B00
6300
C300
C300
C700
FB00
7180
ENDCHAR
STARTCHAR atilde
ENCODING 227
SWIDTH 444 0
DWIDTH 11 0
BBX 9 16 1 0
BITMAP
3200
7E00
4C00
0000
3E00
6700
6300
0300
0F00
3B00
6300
C300
C300
C700
FB00
7180
ENDCHAR
STARTCHAR adieresis
ENCODING 228
SWIDTH 444 0
DWIDTH 11 0
BBX 9 16 1 0
BITMAP
6600
6600
0000
0000
3E00
6700
6300
0300
0F00
3B00
6300
C300
C300
C700
FB00
7180
ENDCHAR
STARTCHAR aring
ENCODING 229
SWIDTH 444 0
DWIDTH 11 0
BBX 9 18 1 0
BITMAP
1C00
2200
2200
2200
1C00
0000
3E00
6700
6300
0300
0F00
3B00
6300
C300
C300
C700
FB00
7180
ENDCHAR
STARTCHAR ae
ENCODING 230
SWIDTH 667 0
DWIDTH 16 0
BBX 14 12 1 0
BITMAP
3CF0
6798
630C
030C
0FFC
3B00
6300
C300
C300
C784
FBF8
70F0
ENDCHAR
STARTCHAR ccedilla
ENCODING 231
SWIDTH 444 0
DWIDTH 11 0
BBX 9 18 1 -6
BITMAP
1F00
6380
4180
C000
C000
C000
C000
C000
E000
7080
7F00
1E00
0800
1800
1E00
0600
6600
3C00
ENDCHAR
STARTCHAR egrave
ENCODING 232
SWIDTH 444 0
DWIDTH 11 0
BBX 9 17 1 0
BITMAP
6000
7000
3800
0C00
0000
1E00
6300
4180
C180
FF80
C000
C000
C000
E000
7080
7F00
1E00
ENDCHAR
STARTCHAR eacute
ENCODING 233
SWIDTH 444 0
DWIDTH 11 0
BBX 9 17 1 0
BITMAP
0300
0700
0E00
1800
0000
1E00
6300
4180
C180
FF80
C000
C000
C000
E000
7080
7F00
1E00
ENDCHAR
STARTCHAR ecircumflex
ENCODING 234
SWIDTH 444 0
DWIDTH 11 0
BBX 9 17 1 0
BITMAP
0C00
1E00
3300
2100
0000
1E00
6300
4180
C180
FF80
C000
C000
C000
E000
7080
7F00
1E00
ENDCHAR
STARTCHAR edieresis
ENCODING 235
SWIDTH 444 0
DWIDTH 11 0
BBX 9 16 1 0
BITMAP
3300
3300
0000
0000
1E00
6300
4180
C180
FF80
C000
C000
C000
E000
7080
7F00
1E00
ENDCHAR
STARTCHAR igrave
ENCODING 236
SWIDTH 278 0
DWIDTH 6 0
BBX 6 17 -1 0
BITMAP
C0
E0
70
18
00
38
18
18
18
18
18
18
18
18
18
18
3C
ENDCHAR
STARTCHAR iacute
ENCODING 237
SWIDTH 278 0
DWIDTH 6 0
BBX 5 17 1 0
BITMAP
18
38
70
C0
00
60
E0
60
60
60
60
60
60
60
60
60
F0
ENDCHAR
STARTCHAR icircumflex
ENCODING 238
SWIDTH 278 0
DWIDTH 6 0
BBX 6 17 0 0
BITMAP
30
78
CC
84
00
30
70
30
30
30
30
30
30
30
30
30
78
ENDCHAR
STARTCHAR idieresis
ENCODING 239
SWIDTH 278 0
DWIDTH 6 0
BBX 6 16 0 0
BITMAP
CC
CC
00
00
70
30
30
30
30
30
30
30
30
30
30
78
ENDCHAR
STARTCHAR eth
ENCODING 240
SWIDTH 500 0
DWIDTH 12 0
BBX 10 17 1 0
BITMAP
C000
7180
1E00
3C00
C600
1F00
7380
6180
C0C0
C0C0
C0C0
C0C0
C0C0
C0C0
6180
7380
1E00
ENDCHAR
STARTCHAR ntilde
ENCODING 241
SWIDTH 500 0
DWIDTH 13 0
BBX 11 16 1 0
BITMAP
1900
3F00
2600
0000
6700
EF80
71C0
60C0
60C0
60C0
60C0
60C0
60C0
60C0
60C0
F1E0
ENDCHAR
STARTCHAR ograve
ENCODING 242
SWIDTH 500 0
DWIDTH 12 0
BBX 10 17 1 0
BITMAP
6000
7000
3800
0C00
0000
1E00
7380
6180
C0C0
C0C0
C0C0
C0C0
C0C0
C0C0
6180
7380
1E00
ENDCHAR
STARTCHAR oacute
ENCODING 243
SWIDTH 500 0
DWIDTH 12 0
BBX 10 17 1 0
BITMAP
0300
0700
0E00
1800
0000
1E00
7380
6180
C0C0
C0C0
C0C0
C0C0
C0C0
C0C0
6180
7380
1E00
ENDCHAR
STARTCHAR ocircumflex
ENCODING 244
SWIDTH 500 0
DWIDTH 12 0
BBX 10 17 1 0
BITMAP
0C00
1E00
3300
2100
0000
1E00
7380
6180
C0C0
C0C0
C0C0
C0C0
C0C0
C0C0
6180
7380
1E00
ENDCHAR
STARTCHAR otilde
ENCODING 245
SWIDTH 500 0
DWIDTH 12 0
BBX 10 16 1 0
BITMAP
1900
3F00
2600
0000
1E00
7380
6180
C0C0
C0C0
C0C0
C0C0
C0C0
C0C0
6180
7380
1E00
ENDCHAR
STARTCHAR odieresis
ENCODING 246
SWIDTH 500 0
DWIDTH 12 0
BBX 10 16 1 0
BITMAP
3300
3300
0000
0000
1E00
7380
6180
C0C0
C0C0
C0C0
C0C0
C0C0
C0C0
6180
7380
1E00
ENDCHAR
STARTCHAR divide
ENCODING 247
SWIDTH 564 0
DWIDTH 12 0
BBX 10 10 1 1
BITMAP
0C00
0C00
0000
0000
FFC0
FFC0
0000
0000
0C00
0C00
ENDCHAR
STARTCHAR oslash
ENCODING 248
SWIDTH 500 0
DWIDTH 12 0
BBX 10 14 1 -1
BITMAP
00C0
1EC0
7380
6380
C6C0
C4C0
CCC0
C8C0
D8C0
D0C0
7180
7380
DE00
C000
ENDCHAR
STARTCHAR ugrave
ENCODING 249
SWIDTH 500 0
DWIDTH 13 0
BBX 11 17 1 0
BITMAP
6000
7000
3800
0C00
0000
E1C0
60C0
60C0
60C0
60C0
60C0
60C0
60C0
60C0
71C0
3EC0
1CE0
ENDCHAR
STARTCHAR uacute
ENCODING 250
SWIDTH 500 0
DWIDTH 13 0
BBX 11 17 1 0
BITMAP
0180
0380
0700
0C00
0000
E1C0
60C0
60C0
60C0
60C0
60C0
60C0
60C0
60C0
71C0
3EC0
1CE0
ENDCHAR
STARTCHAR ucircumflex
ENCODING 251
SWIDTH 500 0
DWIDTH 13 0
BBX 11 17 1 0
BITMAP
0C00
1E00
3300
2100
0000
E1C0
60C0
60C0
60C0
60C0
60C0
60C0
60C0
60C0
71C0
3EC0
1CE0
ENDCHAR
STARTCHAR udieresis
ENCODING 252
SWIDTH 500 0
DWIDTH 13 0
BBX 11 16 1 0
BITMAP
3300
3300
0000
0000
E1C0
60C0
60C0
60C0
60C0
60C0
60C0
60C0
60C0
71C0
3EC0
1CE0
ENDCHAR
STARTCHAR yacute
ENCODING 253
SWIDTH 500 0
DWIDTH 11 0
BBX 11 22 0 -5
BITMAP
0180
0380
0700
0C00
0000
F1E0
60C0
6080
3080
3080
3100
1900
1900
1A00
0E00
0E00
0400
0C00
0800
1800
F000
E000
ENDCHAR
STARTCHAR thorn
ENCODING 254
SWIDTH 500 0
DWIDTH 12 0
BBX 10 22 1 -5
BITMAP
6000
E000
6000
6000
6000
6E00
7380
6180
60C0
60C0
60C0
60C0
60C0
60C0
6180
7380
6E00
6000
6000
6000
6000
F000
ENDCHAR
STARTCHAR ydieresis
ENCODING 255
SWIDTH 500 0
DWIDTH 11 0
BBX 11 21 0 -5
BITMAP
3300
3300
0000
0000
F1E0
60C0
6080
3080
3080
3100
1900
1900
1A00
0E00
0E00
0400
0C00
0800
1800
F000
E000
ENDCHAR
STARTCHAR Lslash
ENCODING -1
SWIDTH 611 0
DWIDTH 15 0
BBX 14 17 0 0
BITMAP
7E00
1800
1800
1800
1800
1900
1A00
1C00
3800
5800
9800
1800
1800
1804
1804
180C
7FFC
ENDCHAR
STARTCHAR OE
ENCODING -1
SWIDTH 889 0
DWIDTH 23 0
BBX 21 17 1 0
BITMAP
07FFF0
1C3030
383010
603010
603000
C03000
C03040
C03040
C03FC0
C03040
C03040
C03000
603000
603008
383008
1C3018
07FFF8
ENDCHAR
STARTCHAR Scaron
ENCODING -1
SWIDTH 556 0
DWIDTH 13 0
BBX 11 22 1 0
BITMAP
2100
3300
1E00
0C00
0000
1E40
63C0
C0C0
C040
C040
E000
7800
1E00
0F80
03C0
00E0
0060
8060
8060
C0C0
F180
9E00
ENDCHAR
STARTCHAR Ydieresis
ENCODING -1
SWIDTH 722 0
DWIDTH 16 0
BBX 16 21 0 0
BITMAP
0660
0660
0000
0000
FC3F
300C
3808
1818
1C10
0C30
0620
0660
0340
03C0
0180
0180
0180
0180
0180
0180
07E0
ENDCHAR
STARTCHAR Zcaron
ENCODING -1
SWIDTH 611 0
DWIDTH 15 0
BBX 13 22 1 0
BITMAP
1080
1980
0F00
0600
0000
FFF0
C070
80E0
80C0
01C0
0380
0300
0700
0600
0E00
1C00
1800
3800
3008
7008
E018
FFF8
ENDCHAR
STARTCHAR breve
ENCODING -1
SWIDTH 333 0
DWIDTH 8 0
BBX 6 3 1 14
BITMAP
84
CC
78
ENDCHAR
STARTCHAR bullet
ENCODING -1
SWIDTH 350 0
DWIDTH 7 0
BBX 5 6 1 5
BITMAP
70
F8
F8
F8
F8
70
ENDCHAR
STARTCHAR caron
ENCODING -1
SWIDTH 333 0
DWIDTH 8 0
BBX 6 4 1 13
BITMAP
84
CC
78
30
ENDCHAR
STARTCHAR circumflex
ENCODING -1
SWIDTH 333 0
DWIDTH 8 0
BBX 6 4 1 13
BITMAP
30
78
CC
84
ENDCHAR
STARTCHAR dagger
ENCODING -1
SWIDTH 500 0
DWIDTH 12 0
BBX 8 20 2 -2
BITMAP
18
18
18
18
18
FF
FF
18
18
18
18
18
18
18
18
18
18
18
18
18
ENDCHAR
STARTCHAR daggerdbl
ENCODING -1
SWIDTH 500 0
DWIDTH 12 0
BBX 8 20 2 -2
BITMAP
18
18
18
18
18
FF
FF
18
18
18
18
18
18
FF
FF
18
18
18
18
18
ENDCHAR
STARTCHAR dotaccent
ENCODING -1
SWIDTH 333 0
DWIDTH 8 0
BBX 2 2 3 14
BITMAP
C0
C0
ENDCHAR
STARTCHAR dotlessi
ENCODING -1
SWIDTH 278 0
DWIDTH 6 0
BBX 4 12 1 0
BITMAP
60
E0
60
60
60
60
60
60
60
60
60
F0
ENDCHAR
STARTCHAR ellipsis
ENCODING -1
SWIDTH 1000 0
DWIDTH 25 0
BBX 18 2 3 0
BITMAP
C0C0C0
C0C0C0
ENDCHAR
STARTCHAR emdash
ENCODING -1
SWIDTH 1000 0
DWIDTH 25 0
BBX 25 1 0 6
BITMAP
FFFFFF80
ENDCHAR
STARTCHAR endash
ENCODING -1
SWIDTH 500 0
DWIDTH 12 0
BBX 12 1 0 6
BITMAP
FFF0
ENDCHAR
STARTCHAR fi
ENCODING -1
SWIDTH 556 0
DWIDTH 12 0
BBX 11 17 0 0
BITMAP
07C0
18C0
3000
3000
3000
FFC0
30C0
30C0
30C0
30C0
30C0
30C0
30C0
30C0
30C0
30C0
79E0
ENDCHAR
STARTCHAR fl
ENCODING -1
SWIDTH 556 0
DWIDTH 12 0
BBX 11 17 0 0
BITMAP
0FC0
19C0
30C0
30C0
30C0
FFC0
30C0
30C0
30C0
30C0
30C0
30C0
30C0
30C0
30C0
30C0
79E0
ENDCHAR
STARTCHAR florin
ENCODING -1
SWIDTH 500 0
DWIDTH 13 0
BBX 14 22 -1 -5
BITMAP
0078
00CC
00CC
0180
0180
0180
0180
0FE0
0300
0300
0300
0300
0600
0600
0600
0600
0C00
0C00
0C00
CC00
D800
7000
ENDCHAR
STARTCHAR fraction
ENCODING -1
SWIDTH 167 0
DWIDTH 9 0
BBX 11 17 -1 0
BITMAP
0060
0060
00C0
0180
0180
0300
0300
0600
0C00
0C00
1800
1800
3000
6000
6000
C000
C000
ENDCHAR
STARTCHAR grave
ENCODING -1
SWIDTH 333 0
DWIDTH 8 0
BBX 5 4 1 13
BITMAP
C0
E0
70
18
ENDCHAR
STARTCHAR guilsinglleft
ENCODING -1
SWIDTH 333 0
DWIDTH 8 0
BBX 5 10 1 1
BITMAP
08
18
30
60
C0
C0
60
30
18
08
ENDCHAR
STARTCHAR guilsinglright
ENCODING -1
SWIDTH 333 0
DWIDTH 8 0
BBX 5 10 2 1
BITMAP
80
C0
60
30
18
18
30
60
C0
80
ENDCHAR
STARTCHAR hungarumlaut
ENCODING -1
SWIDTH 333 0
DWIDTH 8 0
BBX 8 4 0 14
BITMAP
33
66
44
88
ENDCHAR
STARTCHAR lslash
ENCODING -1
SWIDTH 278 0
DWIDTH 7 0
BBX 6 17 0 0
BITMAP
30
70
30
30
30
30
34
38
70
B0
30
30
30
30
30
30
78
ENDCHAR
STARTCHAR oe
ENCODING -1
SWIDTH 722 0
DWIDTH 17 0
BBX 15 12 1 0
BITMAP
1E78
73CC
6186
C186
C1FE
C180
C180
C180
C180
61C2
73FC
1E78
ENDCHAR
STARTCHAR ogonek
ENCODING -1
SWIDTH 333 0
DWIDTH 8 0
BBX 5 5 2 -5
BITMAP
60
C0
C0
C8
70
ENDCHAR
STARTCHAR perthousand
ENCODING -1
SWIDTH 1000 0
DWIDTH 25 0
BBX 23 16 1 0
BITMAP
1E0C00
33FC00
621800
C21000
C43000
C86000
704000
00C000
018000
011C1C
033232
066262
04C2C2
0CC4C4
18C8C8
107070
ENDCHAR
STARTCHAR quotedblbase
ENCODING -1
SWIDTH 444 0
DWIDTH 11 0
BBX 7 5 2 -3
BITMAP
CC
EE
22
66
CC
ENDCHAR
STARTCHAR quotedblleft
ENCODING -1
SWIDTH 444 0
DWIDTH 11 0
BBX 7 5 2 12
BITMAP
66
CC
88
EE
66
ENDCHAR
STARTCHAR quotedblright
ENCODING -1
SWIDTH 444 0
DWIDTH 11 0
BBX 7 5 2 12
BITMAP
CC
EE
22
66
CC
ENDCHAR
STARTCHAR quotesinglbase
ENCODING -1
SWIDTH 333 0
DWIDTH 7 0
BBX 3 5 2 -3
BITMAP
C0
E0
20
60
C0
ENDCHAR
STARTCHAR quotesingle
ENCODING -1
SWIDTH 180 0
DWIDTH 6 0
BBX 2 5 2 12
BITMAP
C0
C0
C0
C0
80
ENDCHAR
STARTCHAR ring
ENCODING -1
SWIDTH 333 0
DWIDTH 8 0
BBX 5 5 2 13
BITMAP
70
88
88
88
70
ENDCHAR
STARTCHAR scaron
ENCODING -1
SWIDTH 389 0
DWIDTH 10 0
BBX 8 17 1 0
BITMAP
42
66
3C
18
00
3E
46
C2
E0
70
7C
1E
07
03
83
C6
F8
ENDCHAR
STARTCHAR tilde
ENCODING -1
SWIDTH 333 0
DWIDTH 8 0
BBX 6 3 1 13
BITMAP
64
FC
98
ENDCHAR
STARTCHAR trademark
ENCODING -1
SWIDTH 980 0
DWIDTH 23 0
BBX 21 10 1 7
BITMAP
FFB018
889830
889830
081450
081450
0816D0
081290
081390
081110
3E3938
ENDCHAR
STARTCHAR zcaron
ENCODING -1
SWIDTH 444 0
DWIDTH 10 0
BBX 8 17 1 0
BITMAP
42
66
3C
18
00
FF
C3
86
0E
1C
18
38
30
70
61
C3
FF
ENDCHAR
ENDFONT
