<?xml version="1.0" encoding="UTF-8" standalone="no"?>
<svg xmlns="http://www.w3.org/2000/svg"
     xmlns:xlink="http://www.w3.org/1999/xlink"
     width="40px" height="40px" viewBox="0 0 40 40"
     style="stroke:none">
<title>Figure n°0</title>
<desc>
Creator: GL2PS 1.3.2, (C) 1999-2006 Christophe Geuzaine (geuz@geuz.org)
For: Scilab
CreationDate: Fri Sep 23 19:49:47 2011
</desc>
<defs>
</defs>
<polygon fill="#ffffff" points="0,0 40,0 40,40 0,40"/>
<g>
<polygon fill="#ffffff" points="0.400002,39.6 0.400002,0.400002 0.400002,39.6"/>
<polygon fill="#ffffff" points="0.400002,0.400002 0.400002,0.400002 0.400002,39.6"/>
<polygon fill="#ffffff" points="0.400002,39.6 39.6,39.6 0.400002,39.6"/>
<polygon fill="#ffffff" points="39.6,39.6 39.6,39.6 0.400002,39.6"/>
<polygon fill="#ffffff" points="0.400002,39.6 39.6,39.6 0.400002,0.400002"/>
<polygon fill="#ffffff" points="39.6,39.6 39.6,0.400002 0.400002,0.400002"/>
<polygon fill="#ffffff" points="0.400002,0.400002 0.400002,39.6 39.6,0.400002"/>
<polygon fill="#ffffff" points="0.400002,39.6 39.6,39.6 39.6,0.400002"/>
<polyline fill="none" stroke="#000000" stroke-width="1" points="0.400002,0.400002 0.400002,39.6 39.6,39.6 39.6,0.400002 0.400002,0.400002"/>
<polygon fill="#000000" points="40,0 39.6,0 40,40"/>
<polygon fill="#000000" points="39.6,0 39.6,40 40,40"/>
<polyline fill="none" stroke="#000000" stroke-width="0.5" points="39.6,0 39.6,40"/>
<polygon fill="#000000" points="0.400002,13.4667 0,13.3333 0,13.6"/>
<polyline fill="none" stroke="#000000" stroke-width="0.5" points="0,13.6 0.400002,13.4667 0,13.3333"/>
<polygon fill="#000000" points="0.400002,26.5333 0,26.4 0,26.6667"/>
<polyline fill="none" stroke="#000000" stroke-width="0.5" points="0,26.6667 0.400002,26.5333 0,26.4"/>
<text fill="#000000" style="stroke:none" x="8" y="22" transform="rotate(0, 8, 22)" font-size="6" font-family="SansSerif" font-style="normal" font-weight="normal">TBX_SUM_c</text>
</g>
</svg>
