<?xml version="1.0" encoding="UTF-8" standalone="no"?>
<svg xmlns="http://www.w3.org/2000/svg"
     xmlns:xlink="http://www.w3.org/1999/xlink"
     width="612px" height="461px" viewBox="0 0 612 461"
     style="stroke:none">
<title>Figure n°0</title>
<desc>
Creator: GL2PS 1.3.2, (C) 1999-2006 Christophe Geuzaine (geuz@geuz.org)
For: Scilab
CreationDate: Wed Apr 14 11:42:01 2010
</desc>
<defs>
</defs>
<polygon fill="#ffffff" points="0,0 612,0 612,461 0,461"/>
<g>
<polygon fill="#ffffff" points="76.5,403.375 76.5,57.625 76.5,57.625"/>
<polygon fill="#ffffff" points="76.5,403.375 76.5,57.625 76.5,403.375"/>
<polygon fill="#ffffff" points="76.5,403.375 535.5,403.375 535.5,403.375"/>
<polygon fill="#ffffff" points="76.5,403.375 535.5,403.375 76.5,403.375"/>
<polygon fill="#ffffff" points="76.5,403.375 535.5,403.375 535.5,57.625"/>
<polygon fill="#ffffff" points="76.5,403.375 535.5,57.625 76.5,57.625"/>
<polygon fill="#000000" points="532.938,75.3467 522.689,76.9414 531.565,82.3081"/>
<polyline fill="none" stroke="#000000" stroke-width="0.5" points="523.688,77.1382 522.689,76.9414"/>
<polygon fill="#000000" points="449.529,63.5 439.94,67.4551 449.828,70.5894"/>
<polyline fill="none" stroke="#000000" stroke-width="0.5" points="440.972,67.4116 439.94,67.4551"/>
<polygon fill="#000000" points="368.057,79.4526 361.711,87.6572 371.846,85.4512"/>
<polyline fill="none" stroke="#000000" stroke-width="0.5" points="362.505,87.1553 361.711,87.6572"/>
<polygon fill="#000000" points="334.723,139.536 341.494,147.393 341.357,137.021"/>
<polyline fill="none" stroke="#000000" stroke-width="0.5" points="341.208,146.638 341.494,147.393"/>
<polygon fill="#000000" points="349.674,203.225 341.078,209.029 351.394,210.108"/>
<polyline fill="none" stroke="#000000" stroke-width="0.5" points="342.059,208.784 341.078,209.029"/>
<polygon fill="#000000" points="243.846,226.341 236.517,233.681 246.849,232.77"/>
<polyline fill="none" stroke="#000000" stroke-width="0.5" points="237.396,233.27 236.517,233.681"/>
<polygon fill="#000000" points="169.048,274.663 167.27,284.882 175.201,278.197"/>
<polyline fill="none" stroke="#000000" stroke-width="0.5" points="167.684,284.162 167.27,284.882"/>
<polygon fill="#000000" points="135.289,359.987 137.222,370.177 142.292,361.128"/>
<polyline fill="none" stroke="#000000" stroke-width="0.5" points="137.35,369.397 137.222,370.177"/>
<polyline fill="none" stroke="#000000" stroke-width="0.5" points="523.688,77.1382 522.702,76.9438 520.638,76.5146 519.556,76.2808 518.436,76.0337 517.276,75.7739 516.073,75.502 514.823,75.2173 513.524,74.9209 512.171,74.6133 510.762,74.2949 509.292,73.9658 507.757,73.627 506.155,73.2793 504.479,72.9238 502.727,72.561 500.893,72.1924 498.974,71.8193 496.964,71.4438 494.86,71.0669 492.657,70.6904 490.352,70.3179 487.94,69.9507 485.419,69.5918 482.785,69.2446 481.425,69.0762 480.037,68.9116 478.62,68.752 477.173,68.5977 475.698,68.4487 474.194,68.3057 472.661,68.1689 471.1,68.0396 469.51,67.9175 467.894,67.8037 466.25,67.6987 464.58,67.603 462.884,67.5166 461.164,67.4404 459.419,67.375 457.652,67.3213 455.864,67.2788 454.056,67.2485 452.229,67.231 450.386,67.2266 448.527,67.2354 446.654,67.2583 444.769,67.2949 442.875,67.3462 440.972,67.4116 439.063,67.4922 437.15,67.5874 435.235,67.6978 433.321,67.8232 431.409,67.9639 429.501,68.1191 427.6,68.2891 425.707,68.4741 423.824,68.6733 421.954,68.8872 420.098,69.1147 418.258,69.356 416.435,69.6104 414.632,69.8774 412.85,70.1577 411.089,70.4492 409.352,70.7524 407.639,71.0669 405.952,71.3921 404.291,71.7271 402.657,72.0713 401.051,72.4248 399.474,72.7871 397.926,73.1567 396.408,73.5342 394.919,73.9189 393.46,74.3096 392.031,74.7065 390.633,75.1084 389.264,75.5161 387.926,75.9277 386.618,76.3438 385.339,76.7637 384.09,77.1865 382.87,77.6123 380.516,78.4717 378.274,79.3389 376.142,80.2104 374.114,81.0854 372.187,81.9614 370.356,82.8369 368.618,83.7095 366.968,84.5791 365.402,85.4438 363.916,86.3027 362.505,87.1553 361.167,88.001 359.897,88.8389 358.691,89.6685 357.547,90.4893 356.461,91.3013 355.43,92.104 354.451,92.8975 353.521,93.6816 352.638,94.4565 351.799,95.2212 351.002,95.9766 349.526,97.4585 348.193,98.9019 346.989,100.309 345.9,101.678 344.917,103.012 344.029,104.312 343.228,105.578 342.504,106.812 341.852,108.014 341.264,109.186 340.735,110.33 340.261,111.445 339.836,112.534 339.12,114.634 338.556,116.638 338.123,118.553 337.8,120.385 337.572,122.14 337.425,123.822 337.348,125.438 337.331,126.991 337.365,128.485 337.562,131.311 337.891,133.941 338.32,136.398 338.821,138.699 339.375,140.861 339.964,142.897 341.208,146.638 342.482,150 343.743,153.043 344.964,155.816 346.13,158.359 348.263,162.871 350.116,166.77 351.694,170.189 353.019,173.227 355.004,178.418 356.26,182.731 356.936,186.402 356.978,192.37 355.724,197.055 350.427,203.968 342.059,208.784 315.993,215.296 277.678,222.127 237.396,233.27 207.581,247.198 188.483,260.868 167.684,284.162 157.025,302.723 146.242,330.992 137.35,369.397 135.367,381.562"/>
<polyline fill="none" stroke="#0000ff" stroke-width="0.5" stroke-dasharray="4,4,4,4" points="260.1,82.981 262.491,82.9956 264.882,83.0396 267.271,83.1123 269.658,83.2148 272.042,83.3467 274.423,83.5083 276.799,83.7002 279.17,83.9224 281.535,84.1758 283.893,84.4604 286.243,84.7773 288.583,85.127 290.914,85.5098 293.233,85.9272 295.54,86.3794 297.832,86.8682 300.107,87.394 302.366,87.9585 304.605,88.563 306.822,89.209 309.014,89.8984 311.18,90.6333 313.314,91.415 315.415,92.2471 317.477,93.1313 319.496,94.0708 321.465,95.0688 323.379,96.1294 325.23,97.2563 327.008,98.4546 328.703,99.7295 330.3,101.086 331.784,102.533 333.134,104.077 334.328,105.726 335.333,107.492 336.112,109.385 336.615,111.418 336.778,113.607 336.518,115.967 335.722,118.515 334.24,121.267 331.868,124.237 328.328,127.424 323.244,130.808 316.133,134.312 306.434,137.766 293.678,140.847 277.891,143.06 260.1,143.877 242.31,143.06 226.522,140.847 213.767,137.766 204.067,134.312 196.956,130.808 191.873,127.424 188.333,124.237 185.96,121.267 184.479,118.515 183.682,115.967 183.421,113.607 183.584,111.418 184.087,109.385 184.867,107.492 185.872,105.726 187.065,104.077 188.417,102.533 189.9,101.086 191.498,99.7295 193.192,98.4546 194.97,97.2563 196.82,96.1294 198.734,95.0688 200.704,94.0708 202.723,93.1313 204.785,92.2471 206.886,91.415 209.021,90.6333 211.186,89.8984 213.378,89.209 215.595,88.563 217.834,87.9585 220.092,87.394 222.369,86.8682 224.661,86.3794 226.967,85.9272 229.286,85.5098 231.617,85.127 233.957,84.7773 236.307,84.4604 238.665,84.1758 241.03,83.9224 243.4,83.7002 245.777,83.5083 248.157,83.3467 250.542,83.2148 252.929,83.1123 255.318,83.0396 257.708,82.9956 260.1,82.981"/>
<polygon fill="#ffffee" points="335,111 335,119 343,119"/>
<polygon fill="#ffffee" points="335,111 343,119 343,111"/>
<polyline fill="none" stroke="#000000" stroke-width="0.5" points="335,111 335,119 343,119 343,111 335,111"/>
<text fill="#000000" style="stroke:none" x="149" y="367" transform="rotate(0, 149, 367)" font-size="10" font-family="SansSerif" font-style="normal" font-weight="normal">8.8  </text>
<text fill="#000000" style="stroke:none" x="180" y="282" transform="rotate(0, 180, 282)" font-size="10" font-family="SansSerif" font-style="normal" font-weight="normal">3.6  </text>
<text fill="#000000" style="stroke:none" x="249" y="231" transform="rotate(0, 249, 231)" font-size="10" font-family="SansSerif" font-style="normal" font-weight="normal">2.1  </text>
<text fill="#000000" style="stroke:none" x="354" y="207" transform="rotate(0, 354, 207)" font-size="10" font-family="SansSerif" font-style="normal" font-weight="normal">0.99 </text>
<text fill="#000000" style="stroke:none" x="353" y="145" transform="rotate(0, 353, 145)" font-size="10" font-family="SansSerif" font-style="normal" font-weight="normal">0.16 </text>
<text fill="#000000" style="stroke:none" x="375" y="85" transform="rotate(0, 375, 85)" font-size="10" font-family="SansSerif" font-style="normal" font-weight="normal">0.058</text>
<text fill="#000000" style="stroke:none" x="453" y="65" transform="rotate(0, 453, 65)" font-size="10" font-family="SansSerif" font-style="normal" font-weight="normal">0.037</text>
<polygon fill="#ffffee" points="274.5,71.5 274.5,110.5 335.5,110.5"/>
<polygon fill="#ffffee" points="274.5,71.5 335.5,110.5 335.5,71.5"/>
<polyline fill="none" stroke="#bebebe" stroke-width="0.5" points="274.5,71.5 274.5,110.5 335.5,110.5 335.5,71.5 274.5,71.5"/>
<text fill="#000000" style="stroke:none" x="275" y="82" transform="rotate(0, 275, 82)" font-size="10" font-family="SansSerif" font-style="normal" font-weight="normal">-128.4&#x00b0;</text>
<text fill="#000000" style="stroke:none" x="275" y="95" transform="rotate(0, 275, 95)" font-size="10" font-family="SansSerif" font-style="normal" font-weight="normal">3.512 dB</text>
<text fill="#000000" style="stroke:none" x="275" y="108" transform="rotate(0, 275, 108)" font-size="10" font-family="SansSerif" font-style="normal" font-weight="normal">0.08733 Hz</text>
<polyline fill="none" stroke="#000000" stroke-width="0.5" points="76.5,403.375 76.5,57.625"/>
<polyline fill="none" stroke="#000000" stroke-width="0.5" points="76.5,403.375 69.6152,403.375"/>
<polyline fill="none" stroke="#000000" stroke-width="0.5" points="76.5,368.8 69.6152,368.8"/>
<polyline fill="none" stroke="#000000" stroke-width="0.5" points="76.5,334.225 69.6152,334.225"/>
<polyline fill="none" stroke="#000000" stroke-width="0.5" points="76.5,299.65 69.6152,299.65"/>
<polyline fill="none" stroke="#000000" stroke-width="0.5" points="76.5,265.075 69.6152,265.075"/>
<polyline fill="none" stroke="#000000" stroke-width="0.5" points="76.5,230.5 69.6152,230.5"/>
<polyline fill="none" stroke="#000000" stroke-width="0.5" points="76.5,195.925 69.6152,195.925"/>
<polyline fill="none" stroke="#000000" stroke-width="0.5" points="76.5,161.35 69.6152,161.35"/>
<polyline fill="none" stroke="#000000" stroke-width="0.5" points="76.5,126.775 69.6152,126.775"/>
<polyline fill="none" stroke="#000000" stroke-width="0.5" points="76.5,92.2002 69.6152,92.2002"/>
<polyline fill="none" stroke="#000000" stroke-width="0.5" points="76.5,57.625 69.6152,57.625"/>
<polyline fill="none" stroke="#000000" stroke-width="0.5" points="76.5,386.087 72.3691,386.087"/>
<polyline fill="none" stroke="#000000" stroke-width="0.5" points="76.5,351.513 72.3691,351.513"/>
<polyline fill="none" stroke="#000000" stroke-width="0.5" points="76.5,316.938 72.3691,316.938"/>
<polyline fill="none" stroke="#000000" stroke-width="0.5" points="76.5,282.362 72.3691,282.362"/>
<polyline fill="none" stroke="#000000" stroke-width="0.5" points="76.5,247.788 72.3691,247.788"/>
<polyline fill="none" stroke="#000000" stroke-width="0.5" points="76.5,213.212 72.3691,213.212"/>
<polyline fill="none" stroke="#000000" stroke-width="0.5" points="76.5,178.638 72.3691,178.638"/>
<polyline fill="none" stroke="#000000" stroke-width="0.5" points="76.5,144.062 72.3691,144.062"/>
<polyline fill="none" stroke="#000000" stroke-width="0.5" points="76.5,109.487 72.3691,109.487"/>
<polyline fill="none" stroke="#000000" stroke-width="0.5" points="76.5,74.9126 72.3691,74.9126"/>
<text fill="#000000" style="stroke:none" x="49" y="408" transform="rotate(-0, 49, 408)" font-size="10" font-family="SansSerif" font-style="normal" font-weight="normal">-80</text>
<text fill="#000000" style="stroke:none" x="49" y="374" transform="rotate(-0, 49, 374)" font-size="10" font-family="SansSerif" font-style="normal" font-weight="normal">-70</text>
<text fill="#000000" style="stroke:none" x="49" y="339" transform="rotate(-0, 49, 339)" font-size="10" font-family="SansSerif" font-style="normal" font-weight="normal">-60</text>
<text fill="#000000" style="stroke:none" x="49" y="305" transform="rotate(-0, 49, 305)" font-size="10" font-family="SansSerif" font-style="normal" font-weight="normal">-50</text>
<text fill="#000000" style="stroke:none" x="49" y="270" transform="rotate(-0, 49, 270)" font-size="10" font-family="SansSerif" font-style="normal" font-weight="normal">-40</text>
<text fill="#000000" style="stroke:none" x="49" y="236" transform="rotate(-0, 49, 236)" font-size="10" font-family="SansSerif" font-style="normal" font-weight="normal">-30</text>
<text fill="#000000" style="stroke:none" x="49" y="201" transform="rotate(-0, 49, 201)" font-size="10" font-family="SansSerif" font-style="normal" font-weight="normal">-20</text>
<text fill="#000000" style="stroke:none" x="49" y="166" transform="rotate(-0, 49, 166)" font-size="10" font-family="SansSerif" font-style="normal" font-weight="normal">-10</text>
<text fill="#000000" style="stroke:none" x="60" y="132" transform="rotate(-0, 60, 132)" font-size="10" font-family="SansSerif" font-style="normal" font-weight="normal">0</text>
<text fill="#000000" style="stroke:none" x="55" y="97" transform="rotate(-0, 55, 97)" font-size="10" font-family="SansSerif" font-style="normal" font-weight="normal">10</text>
<text fill="#000000" style="stroke:none" x="55" y="63" transform="rotate(-0, 55, 63)" font-size="10" font-family="SansSerif" font-style="normal" font-weight="normal">20</text>
<polyline fill="none" stroke="#000000" stroke-width="0.5" points="76.5,403.375 535.5,403.375"/>
<polyline fill="none" stroke="#000000" stroke-width="0.5" points="76.5,403.375 76.5,408.55"/>
<polyline fill="none" stroke="#000000" stroke-width="0.5" points="153,403.375 153,408.55"/>
<polyline fill="none" stroke="#000000" stroke-width="0.5" points="229.5,403.375 229.5,408.55"/>
<polyline fill="none" stroke="#000000" stroke-width="0.5" points="306,403.375 306,408.55"/>
<polyline fill="none" stroke="#000000" stroke-width="0.5" points="382.5,403.375 382.5,408.55"/>
<polyline fill="none" stroke="#000000" stroke-width="0.5" points="459,403.375 459,408.55"/>
<polyline fill="none" stroke="#000000" stroke-width="0.5" points="535.5,403.375 535.5,408.55"/>
<polyline fill="none" stroke="#000000" stroke-width="0.5" points="95.625,403.375 95.625,406.48"/>
<polyline fill="none" stroke="#000000" stroke-width="0.5" points="114.75,403.375 114.75,406.48"/>
<polyline fill="none" stroke="#000000" stroke-width="0.5" points="133.875,403.375 133.875,406.48"/>
<polyline fill="none" stroke="#000000" stroke-width="0.5" points="172.125,403.375 172.125,406.48"/>
<polyline fill="none" stroke="#000000" stroke-width="0.5" points="191.25,403.375 191.25,406.48"/>
<polyline fill="none" stroke="#000000" stroke-width="0.5" points="210.375,403.375 210.375,406.48"/>
<polyline fill="none" stroke="#000000" stroke-width="0.5" points="248.625,403.375 248.625,406.48"/>
<polyline fill="none" stroke="#000000" stroke-width="0.5" points="267.75,403.375 267.75,406.48"/>
<polyline fill="none" stroke="#000000" stroke-width="0.5" points="286.875,403.375 286.875,406.48"/>
<polyline fill="none" stroke="#000000" stroke-width="0.5" points="325.125,403.375 325.125,406.48"/>
<polyline fill="none" stroke="#000000" stroke-width="0.5" points="344.25,403.375 344.25,406.48"/>
<polyline fill="none" stroke="#000000" stroke-width="0.5" points="363.375,403.375 363.375,406.48"/>
<polyline fill="none" stroke="#000000" stroke-width="0.5" points="401.625,403.375 401.625,406.48"/>
<polyline fill="none" stroke="#000000" stroke-width="0.5" points="420.75,403.375 420.75,406.48"/>
<polyline fill="none" stroke="#000000" stroke-width="0.5" points="439.875,403.375 439.875,406.48"/>
<polyline fill="none" stroke="#000000" stroke-width="0.5" points="478.125,403.375 478.125,406.48"/>
<polyline fill="none" stroke="#000000" stroke-width="0.5" points="497.25,403.375 497.25,406.48"/>
<polyline fill="none" stroke="#000000" stroke-width="0.5" points="516.375,403.375 516.375,406.48"/>
<text fill="#000000" style="stroke:none" x="64" y="420" transform="rotate(-0, 64, 420)" font-size="10" font-family="SansSerif" font-style="normal" font-weight="normal">-300</text>
<text fill="#000000" style="stroke:none" x="141" y="420" transform="rotate(-0, 141, 420)" font-size="10" font-family="SansSerif" font-style="normal" font-weight="normal">-250</text>
<text fill="#000000" style="stroke:none" x="217" y="420" transform="rotate(-0, 217, 420)" font-size="10" font-family="SansSerif" font-style="normal" font-weight="normal">-200</text>
<text fill="#000000" style="stroke:none" x="294" y="420" transform="rotate(-0, 294, 420)" font-size="10" font-family="SansSerif" font-style="normal" font-weight="normal">-150</text>
<text fill="#000000" style="stroke:none" x="370" y="420" transform="rotate(-0, 370, 420)" font-size="10" font-family="SansSerif" font-style="normal" font-weight="normal">-100</text>
<text fill="#000000" style="stroke:none" x="450" y="420" transform="rotate(-0, 450, 420)" font-size="10" font-family="SansSerif" font-style="normal" font-weight="normal">-50</text>
<text fill="#000000" style="stroke:none" x="529" y="420" transform="rotate(-0, 529, 420)" font-size="10" font-family="SansSerif" font-style="normal" font-weight="normal">-0</text>
<text fill="#000000" style="stroke:none" x="276" y="436" transform="rotate(0, 276, 436)" font-size="10" font-family="SansSerif" font-style="normal" font-weight="normal">Phase (deg)</text>
<text fill="#000000" style="stroke:none" x="41" y="270" transform="rotate(270, 41, 270)" font-size="10" font-family="SansSerif" font-style="normal" font-weight="normal">Magnitude (dB)</text>
</g>
</svg>
