<?xml version="1.0" encoding="UTF-8" standalone="no"?>
<svg xmlns="http://www.w3.org/2000/svg"
     xmlns:xlink="http://www.w3.org/1999/xlink"
     width="464px" height="341px" viewBox="0 0 464 341"
     style="stroke:none">
<title>Graphic window number 0</title>
<desc>
Creator: GL2PS 1.3.2, (C) 1999-2006 Christophe Geuzaine (geuz@geuz.org)
For: Scilab
CreationDate: Mon May 17 17:55:37 2010
</desc>
<defs>
</defs>
<polygon fill="#ffffff" points="0,0 464,0 464,341 0,341"/>
<g>
<polygon fill="#ffffff" points="58,136.059 58,19.437 58,19.437"/>
<polygon fill="#ffffff" points="58,136.059 58,19.437 58,136.059"/>
<polygon fill="#ffffff" points="58,136.059 406,136.059 406,136.059"/>
<polygon fill="#ffffff" points="58,136.059 406,136.059 58,136.059"/>
<polygon fill="#ffffff" points="58,136.059 406,136.059 406,19.437"/>
<polygon fill="#ffffff" points="58,136.059 406,19.437 58,19.437"/>
<polyline fill="none" stroke="#000000" stroke-width="0.5" points="58,66.8896 61.5151,66.8892 67.6943,66.8882 77.6577,66.8857 92.0493,66.8784 110.591,66.8555 132.285,66.7759 156.008,66.4839 170.469,66.0127 180.902,65.3613 189.068,64.5273 195.78,63.5083 201.477,62.3027 206.426,60.9072 210.802,59.3208 212.813,58.4551 214.723,57.5415 216.541,56.5796 218.275,55.5703 219.934,54.5127 221.522,53.4082 223.046,52.2573 224.512,51.061 225.922,49.8203 227.282,48.5366 228.595,47.2124 229.863,45.8491 231.09,44.4507 232.279,43.0205 233.432,41.563 234.55,40.083 235.097,39.3364 235.636,38.5874 236.167,37.8359 236.692,37.0835 237.208,36.3311 237.719,35.5801 238.222,34.8315 238.719,34.0874 239.209,33.3486 239.693,32.6167 240.17,31.894 240.643,31.1816 241.108,30.4819 241.569,29.7964 242.023,29.1274 242.473,28.4766 242.917,27.8462 243.356,27.2383 243.79,26.6553 244.219,26.0986 244.643,25.5708 245.062,25.0737 245.478,24.6089 245.888,24.1782 246.293,23.7832 246.695,23.4253 247.093,23.1055 247.486,22.8247 247.875,22.5835 248.26,22.3823 248.642,22.2217 249.02,22.1011 249.393,22.0205 249.763,21.9785 250.13,21.9751 250.493,22.0083 250.853,22.0776 251.208,22.1816 251.562,22.3179 251.911,22.4854 252.257,22.6821 252.601,22.9058 252.941,23.1548 253.278,23.4277 253.612,23.7217 253.943,24.0356 254.271,24.3667 254.597,24.7144 254.92,25.0762 255.24,25.4502 255.557,25.8354 255.872,26.23 256.184,26.6328 256.494,27.0425 256.8,27.4575 257.105,27.877 257.407,28.3003 257.707,28.7256 258.004,29.1528 258.299,29.5806 258.592,30.0088 258.882,30.436 259.17,30.8623 259.457,31.2866 260.022,32.1289 260.58,32.959 261.129,33.7744 261.67,34.5737 262.204,35.355 262.73,36.1172 263.25,36.8599 263.762,37.5825 264.267,38.2852 264.765,38.9673 265.257,39.6294 265.743,40.272 266.223,40.8945 266.696,41.498 267.164,42.0825 268.082,43.1978 268.979,44.2441 269.854,45.2256 270.71,46.1465 271.547,47.0112 272.366,47.8232 273.168,48.5869 273.953,49.3052 274.722,49.9814 275.475,50.6187 276.214,51.2197 276.938,51.7871 278.347,52.8306 279.706,53.7646 281.017,54.6045 282.284,55.3623 283.509,56.0479 284.697,56.6699 285.848,57.2358 286.965,57.7524 288.05,58.2256 290.131,59.0581 292.104,59.7646 293.978,60.3701 295.764,60.8926 297.469,61.3462 299.101,61.7427 300.665,62.0918 302.167,62.3999 303.611,62.6738 306.344,63.1372 308.893,63.5122 311.281,63.8198 313.526,64.0757 315.646,64.29 317.653,64.4717 319.559,64.6274 323.104,64.8779 326.345,65.0688 329.33,65.2178 332.096,65.3364 334.673,65.4321 339.354,65.5762 343.518,65.6768 347.269,65.7505 350.68,65.8062 353.809,65.8486 359.382,65.9092 364.238,65.9492 368.541,65.9771 375.907,66.0122 382.069,66.0327 387.365,66.0459 396.145,66.0605 403.264,66.0684 406,66.0708"/>
<polyline fill="none" stroke="#0000ff" stroke-width="0.5" points="58,66.3525 61.5151,66.3521 67.6943,66.3516 77.6577,66.3506 92.0493,66.3467 110.591,66.335 132.285,66.2949 156.008,66.1475 170.469,65.9097 180.902,65.5806 189.068,65.1587 195.78,64.644 201.477,64.0342 206.426,63.3301 210.802,62.5303 212.813,62.0952 214.723,61.6372 216.541,61.1558 218.275,60.6523 219.934,60.1274 221.522,59.5815 223.046,59.0161 224.512,58.4321 225.922,57.8315 227.282,57.2163 228.595,56.5889 229.863,55.9517 231.09,55.3091 232.279,54.665 233.432,54.0244 234.55,53.3931 235.097,53.0835 235.636,52.7783 236.167,52.48 236.692,52.1885 237.208,51.9062 237.719,51.6333 238.222,51.3716 238.719,51.123 239.209,50.8892 239.693,50.6714 240.17,50.4712 240.643,50.2915 241.108,50.1333 241.569,49.999 242.023,49.8906 242.473,49.811 242.917,49.7617 243.356,49.7451 243.79,49.7632 244.219,49.8188 244.643,49.9136 245.062,50.0503 245.478,50.23 245.888,50.4556 246.293,50.7285 246.695,51.0498 247.093,51.4214 247.486,51.8442 247.875,52.3188 248.26,52.8467 248.642,53.4282 249.02,54.0625 249.393,54.7505 249.763,55.4912 250.13,56.2842 250.493,57.1289 250.853,58.0244 251.208,58.9692 251.562,59.9624 251.911,61.0024 252.257,62.0879 252.601,63.2173 252.941,64.3892 253.278,65.6021 253.612,66.8545 253.943,68.1445 254.271,69.4717 254.597,70.8335 254.92,72.2295 255.24,73.6582 255.557,75.1182 255.872,76.6089 256.184,78.1289 256.494,79.6777 256.8,81.2544 257.105,82.8579 257.407,84.4873 257.707,86.1421 258.004,87.8213 258.299,89.5239 258.592,91.249 258.882,92.9961 259.17,94.7627 259.457,96.5479 260.022,100.166 260.58,103.829 261.129,107.506 261.67,111.154 262.204,114.709 262.73,118.088 263.25,121.182 263.762,123.868 264.267,126.021 264.765,127.54 265.257,128.368 265.743,128.517 266.223,128.056 266.696,127.099 267.164,125.771 268.082,122.463 268.979,118.837 269.854,115.276 270.71,111.947 271.547,108.901 272.366,106.143 273.168,103.65 273.953,101.398 274.722,99.3589 275.475,97.5068 276.214,95.8203 276.938,94.2788 278.347,91.5659 279.706,89.2593 281.017,87.2764 282.284,85.5562 283.509,84.0513 284.697,82.7251 285.848,81.5483 286.965,80.499 288.05,79.5586 290.131,77.9443 292.104,76.6138 293.978,75.502 295.764,74.5625 297.469,73.7603 299.101,73.0693 300.665,72.4692 302.167,71.9453 303.611,71.4844 306.344,70.7139 308.893,70.0996 311.281,69.6011 313.526,69.1909 315.646,68.8496 317.653,68.562 319.559,68.3174 323.104,67.9258 326.345,67.6299 329.33,67.3999 332.096,67.2183 334.673,67.0718 339.354,66.853 343.518,66.7002 347.269,66.5889 350.68,66.5054 353.809,66.4409 359.382,66.3496 364.238,66.2896 368.541,66.248 375.907,66.1958 382.069,66.165 387.365,66.1455 396.145,66.1235 403.264,66.1118 406,66.1079"/>
<polygon fill="#ffffff" points="401.65,21.1602 339.5,47.48 339.5,21.1602"/>
<polygon fill="#ffffff" points="401.65,47.48 339.5,47.48 401.65,21.1602"/>
<polyline fill="none" stroke="#000000" stroke-width="0.5" points="339.5,47.48 339.5,21.1602 401.65,21.1602 401.65,47.48 339.5,47.48"/>
<text fill="#000000" style="stroke:none" x="387" y="32" transform="rotate(0, 387, 32)" font-size="10" font-family="SansSerif" font-style="normal" font-weight="normal">h1</text>
<text fill="#000000" style="stroke:none" x="387" y="44" transform="rotate(0, 387, 44)" font-size="10" font-family="SansSerif" font-style="normal" font-weight="normal">h2</text>
<polyline fill="none" stroke="#0000ff" stroke-width="0.5" points="343.85,40.3198 361.25,40.3198 378.65,40.3198"/>
<polyline fill="none" stroke="#000000" stroke-width="0.5" points="343.85,28.3198 361.25,28.3198 378.65,28.3198"/>
<polygon fill="#ffffee" points="260,122 260,130 268,130"/>
<polygon fill="#ffffee" points="260,122 268,130 268,122"/>
<polyline fill="none" stroke="#0000ff" stroke-width="0.5" points="260,122 260,130 268,130 268,122 260,122"/>
<polygon fill="#ffffee" points="264.5,98.5 264.5,122.5 314.5,122.5"/>
<polygon fill="#ffffee" points="264.5,98.5 314.5,122.5 314.5,98.5"/>
<polyline fill="none" stroke="#bebebe" stroke-width="0.5" points="264.5,98.5 264.5,122.5 314.5,122.5 314.5,98.5 264.5,98.5"/>
<text fill="#000000" style="stroke:none" x="265" y="109" transform="rotate(0, 265, 109)" font-size="10" font-family="SansSerif" font-style="normal" font-weight="normal">2.349 Hz</text>
<text fill="#000000" style="stroke:none" x="265" y="121" transform="rotate(0, 265, 121)" font-size="10" font-family="SansSerif" font-style="normal" font-weight="normal">-12.85dB</text>
<polyline fill="none" stroke="#000000" stroke-width="0.5" points="58,136.059 58,19.437"/>
<polyline fill="none" stroke="#000000" stroke-width="0.5" points="58,136.059 52.7798,136.059"/>
<polyline fill="none" stroke="#000000" stroke-width="0.5" points="58,112.734 52.7798,112.734"/>
<polyline fill="none" stroke="#000000" stroke-width="0.5" points="58,89.4102 52.7798,89.4102"/>
<polyline fill="none" stroke="#000000" stroke-width="0.5" points="58,66.0859 52.7798,66.0859"/>
<polyline fill="none" stroke="#000000" stroke-width="0.5" points="58,42.7612 52.7798,42.7612"/>
<polyline fill="none" stroke="#000000" stroke-width="0.5" points="58,19.437 52.7798,19.437"/>
<polyline fill="none" stroke="#000000" stroke-width="0.5" points="58,130.228 54.8682,130.228"/>
<polyline fill="none" stroke="#000000" stroke-width="0.5" points="58,124.397 54.8682,124.397"/>
<polyline fill="none" stroke="#000000" stroke-width="0.5" points="58,118.566 54.8682,118.566"/>
<polyline fill="none" stroke="#000000" stroke-width="0.5" points="58,106.903 54.8682,106.903"/>
<polyline fill="none" stroke="#000000" stroke-width="0.5" points="58,101.072 54.8682,101.072"/>
<polyline fill="none" stroke="#000000" stroke-width="0.5" points="58,95.2412 54.8682,95.2412"/>
<polyline fill="none" stroke="#000000" stroke-width="0.5" points="58,83.5791 54.8682,83.5791"/>
<polyline fill="none" stroke="#000000" stroke-width="0.5" points="58,77.748 54.8682,77.748"/>
<polyline fill="none" stroke="#000000" stroke-width="0.5" points="58,71.917 54.8682,71.917"/>
<polyline fill="none" stroke="#000000" stroke-width="0.5" points="58,60.2549 54.8682,60.2549"/>
<polyline fill="none" stroke="#000000" stroke-width="0.5" points="58,54.4238 54.8682,54.4238"/>
<polyline fill="none" stroke="#000000" stroke-width="0.5" points="58,48.5923 54.8682,48.5923"/>
<polyline fill="none" stroke="#000000" stroke-width="0.5" points="58,36.9302 54.8682,36.9302"/>
<polyline fill="none" stroke="#000000" stroke-width="0.5" points="58,31.0991 54.8682,31.0991"/>
<polyline fill="none" stroke="#000000" stroke-width="0.5" points="58,25.2681 54.8682,25.2681"/>
<text fill="#000000" style="stroke:none" x="32" y="141" transform="rotate(-0, 32, 141)" font-size="10" font-family="SansSerif" font-style="normal" font-weight="normal">-15</text>
<text fill="#000000" style="stroke:none" x="32" y="118" transform="rotate(-0, 32, 118)" font-size="10" font-family="SansSerif" font-style="normal" font-weight="normal">-10</text>
<text fill="#000000" style="stroke:none" x="38" y="94" transform="rotate(-0, 38, 94)" font-size="10" font-family="SansSerif" font-style="normal" font-weight="normal">-5</text>
<text fill="#000000" style="stroke:none" x="43" y="71" transform="rotate(-0, 43, 71)" font-size="10" font-family="SansSerif" font-style="normal" font-weight="normal">0</text>
<text fill="#000000" style="stroke:none" x="45" y="48" transform="rotate(-0, 45, 48)" font-size="10" font-family="SansSerif" font-style="normal" font-weight="normal">5</text>
<text fill="#000000" style="stroke:none" x="38" y="24" transform="rotate(-0, 38, 24)" font-size="10" font-family="SansSerif" font-style="normal" font-weight="normal">10</text>
<polyline fill="none" stroke="#d3d3d3" stroke-width="0.5" stroke-dasharray="4,4,4,4" points="58,136.059 406,136.059 406,136.059"/>
<polyline fill="none" stroke="#d3d3d3" stroke-width="0.5" stroke-dasharray="4,4,4,4" points="58,112.734 406,112.734 406,112.734"/>
<polyline fill="none" stroke="#d3d3d3" stroke-width="0.5" stroke-dasharray="4,4,4,4" points="58,89.4102 406,89.4102 406,89.4102"/>
<polyline fill="none" stroke="#d3d3d3" stroke-width="0.5" stroke-dasharray="4,4,4,4" points="58,66.0859 406,66.0859 406,66.0859"/>
<polyline fill="none" stroke="#d3d3d3" stroke-width="0.5" stroke-dasharray="4,4,4,4" points="58,42.7612 406,42.7612 406,42.7612"/>
<polyline fill="none" stroke="#d3d3d3" stroke-width="0.5" stroke-dasharray="4,4,4,4" points="58,19.437 406,19.437 406,19.437"/>
<polyline fill="none" stroke="#000000" stroke-width="0.5" points="58,136.059 406,136.059"/>
<polyline fill="none" stroke="#000000" stroke-width="0.5" points="58,136.059 58,139.059"/>
<polyline fill="none" stroke="#000000" stroke-width="0.5" points="145,136.059 145,139.059"/>
<polyline fill="none" stroke="#000000" stroke-width="0.5" points="232,136.059 232,139.059"/>
<polyline fill="none" stroke="#000000" stroke-width="0.5" points="319,136.059 319,139.059"/>
<polyline fill="none" stroke="#000000" stroke-width="0.5" points="406,136.059 406,139.059"/>
<polyline fill="none" stroke="#000000" stroke-width="0.5" points="84.1895,136.059 84.1895,137.859"/>
<polyline fill="none" stroke="#000000" stroke-width="0.5" points="99.5098,136.059 99.5098,137.859"/>
<polyline fill="none" stroke="#000000" stroke-width="0.5" points="110.379,136.059 110.379,137.859"/>
<polyline fill="none" stroke="#000000" stroke-width="0.5" points="118.811,136.059 118.811,137.859"/>
<polyline fill="none" stroke="#000000" stroke-width="0.5" points="125.699,136.059 125.699,137.859"/>
<polyline fill="none" stroke="#000000" stroke-width="0.5" points="131.523,136.059 131.523,137.859"/>
<polyline fill="none" stroke="#000000" stroke-width="0.5" points="136.569,136.059 136.569,137.859"/>
<polyline fill="none" stroke="#000000" stroke-width="0.5" points="141.019,136.059 141.019,137.859"/>
<polyline fill="none" stroke="#000000" stroke-width="0.5" points="171.189,136.059 171.189,137.859"/>
<polyline fill="none" stroke="#000000" stroke-width="0.5" points="186.51,136.059 186.51,137.859"/>
<polyline fill="none" stroke="#000000" stroke-width="0.5" points="197.379,136.059 197.379,137.859"/>
<polyline fill="none" stroke="#000000" stroke-width="0.5" points="205.811,136.059 205.811,137.859"/>
<polyline fill="none" stroke="#000000" stroke-width="0.5" points="212.699,136.059 212.699,137.859"/>
<polyline fill="none" stroke="#000000" stroke-width="0.5" points="218.523,136.059 218.523,137.859"/>
<polyline fill="none" stroke="#000000" stroke-width="0.5" points="223.569,136.059 223.569,137.859"/>
<polyline fill="none" stroke="#000000" stroke-width="0.5" points="228.019,136.059 228.019,137.859"/>
<polyline fill="none" stroke="#000000" stroke-width="0.5" points="258.189,136.059 258.189,137.859"/>
<polyline fill="none" stroke="#000000" stroke-width="0.5" points="273.51,136.059 273.51,137.859"/>
<polyline fill="none" stroke="#000000" stroke-width="0.5" points="284.379,136.059 284.379,137.859"/>
<polyline fill="none" stroke="#000000" stroke-width="0.5" points="292.811,136.059 292.811,137.859"/>
<polyline fill="none" stroke="#000000" stroke-width="0.5" points="299.699,136.059 299.699,137.859"/>
<polyline fill="none" stroke="#000000" stroke-width="0.5" points="305.523,136.059 305.523,137.859"/>
<polyline fill="none" stroke="#000000" stroke-width="0.5" points="310.569,136.059 310.569,137.859"/>
<polyline fill="none" stroke="#000000" stroke-width="0.5" points="315.019,136.059 315.019,137.859"/>
<polyline fill="none" stroke="#000000" stroke-width="0.5" points="345.189,136.059 345.189,137.859"/>
<polyline fill="none" stroke="#000000" stroke-width="0.5" points="360.51,136.059 360.51,137.859"/>
<polyline fill="none" stroke="#000000" stroke-width="0.5" points="371.379,136.059 371.379,137.859"/>
<polyline fill="none" stroke="#000000" stroke-width="0.5" points="379.811,136.059 379.811,137.859"/>
<polyline fill="none" stroke="#000000" stroke-width="0.5" points="386.699,136.059 386.699,137.859"/>
<polyline fill="none" stroke="#000000" stroke-width="0.5" points="392.523,136.059 392.523,137.859"/>
<polyline fill="none" stroke="#000000" stroke-width="0.5" points="397.569,136.059 397.569,137.859"/>
<polyline fill="none" stroke="#000000" stroke-width="0.5" points="402.019,136.059 402.019,137.859"/>
<text fill="#000000" style="stroke:none" x="46" y="158" transform="rotate(-0, 46, 158)" font-size="10" font-family="SansSerif" font-style="normal" font-weight="normal">10</text>
<text fill="#000000" style="stroke:none" x="133" y="158" transform="rotate(-0, 133, 158)" font-size="10" font-family="SansSerif" font-style="normal" font-weight="normal">10</text>
<text fill="#000000" style="stroke:none" x="220" y="158" transform="rotate(-0, 220, 158)" font-size="10" font-family="SansSerif" font-style="normal" font-weight="normal">10</text>
<text fill="#000000" style="stroke:none" x="307" y="158" transform="rotate(-0, 307, 158)" font-size="10" font-family="SansSerif" font-style="normal" font-weight="normal">10</text>
<text fill="#000000" style="stroke:none" x="394" y="158" transform="rotate(-0, 394, 158)" font-size="10" font-family="SansSerif" font-style="normal" font-weight="normal">10</text>
<text fill="#000000" style="stroke:none" x="59" y="148" transform="rotate(-0, 59, 148)" font-size="9" font-family="SansSerif" font-style="normal" font-weight="normal">-2</text>
<text fill="#000000" style="stroke:none" x="146" y="148" transform="rotate(-0, 146, 148)" font-size="9" font-family="SansSerif" font-style="normal" font-weight="normal">-1</text>
<text fill="#000000" style="stroke:none" x="233" y="148" transform="rotate(-0, 233, 148)" font-size="9" font-family="SansSerif" font-style="normal" font-weight="normal">0</text>
<text fill="#000000" style="stroke:none" x="320" y="148" transform="rotate(-0, 320, 148)" font-size="9" font-family="SansSerif" font-style="normal" font-weight="normal">1</text>
<text fill="#000000" style="stroke:none" x="407" y="148" transform="rotate(-0, 407, 148)" font-size="9" font-family="SansSerif" font-style="normal" font-weight="normal">2</text>
<polyline fill="none" stroke="#d3d3d3" stroke-width="0.5" stroke-dasharray="4,4,4,4" points="58,136.059 58,19.437 58,19.437"/>
<polyline fill="none" stroke="#d3d3d3" stroke-width="0.5" stroke-dasharray="4,4,4,4" points="145,136.059 145,19.437 145,19.437"/>
<polyline fill="none" stroke="#d3d3d3" stroke-width="0.5" stroke-dasharray="4,4,4,4" points="232,136.059 232,19.437 232,19.437"/>
<polyline fill="none" stroke="#d3d3d3" stroke-width="0.5" stroke-dasharray="4,4,4,4" points="319,136.059 319,19.437 319,19.437"/>
<polyline fill="none" stroke="#d3d3d3" stroke-width="0.5" stroke-dasharray="4,4,4,4" points="406,136.059 406,19.437 406,19.437"/>
<polyline fill="none" stroke="#d3d3d3" stroke-width="0.5" stroke-dasharray="4,4,4,4" points="84.1895,136.059 84.1895,19.437 84.1895,19.437"/>
<polyline fill="none" stroke="#d3d3d3" stroke-width="0.5" stroke-dasharray="4,4,4,4" points="99.5098,136.059 99.5098,19.437 99.5098,19.437"/>
<polyline fill="none" stroke="#d3d3d3" stroke-width="0.5" stroke-dasharray="4,4,4,4" points="110.379,136.059 110.379,19.437 110.379,19.437"/>
<polyline fill="none" stroke="#d3d3d3" stroke-width="0.5" stroke-dasharray="4,4,4,4" points="118.811,136.059 118.811,19.437 118.811,19.437"/>
<polyline fill="none" stroke="#d3d3d3" stroke-width="0.5" stroke-dasharray="4,4,4,4" points="125.699,136.059 125.699,19.437 125.699,19.437"/>
<polyline fill="none" stroke="#d3d3d3" stroke-width="0.5" stroke-dasharray="4,4,4,4" points="131.523,136.059 131.523,19.437 131.523,19.437"/>
<polyline fill="none" stroke="#d3d3d3" stroke-width="0.5" stroke-dasharray="4,4,4,4" points="136.569,136.059 136.569,19.437 136.569,19.437"/>
<polyline fill="none" stroke="#d3d3d3" stroke-width="0.5" stroke-dasharray="4,4,4,4" points="141.019,136.059 141.019,19.437 141.019,19.437"/>
<polyline fill="none" stroke="#d3d3d3" stroke-width="0.5" stroke-dasharray="4,4,4,4" points="171.189,136.059 171.189,19.437 171.189,19.437"/>
<polyline fill="none" stroke="#d3d3d3" stroke-width="0.5" stroke-dasharray="4,4,4,4" points="186.51,136.059 186.51,19.437 186.51,19.437"/>
<polyline fill="none" stroke="#d3d3d3" stroke-width="0.5" stroke-dasharray="4,4,4,4" points="197.379,136.059 197.379,19.437 197.379,19.437"/>
<polyline fill="none" stroke="#d3d3d3" stroke-width="0.5" stroke-dasharray="4,4,4,4" points="205.811,136.059 205.811,19.437 205.811,19.437"/>
<polyline fill="none" stroke="#d3d3d3" stroke-width="0.5" stroke-dasharray="4,4,4,4" points="212.699,136.059 212.699,19.437 212.699,19.437"/>
<polyline fill="none" stroke="#d3d3d3" stroke-width="0.5" stroke-dasharray="4,4,4,4" points="218.523,136.059 218.523,19.437 218.523,19.437"/>
<polyline fill="none" stroke="#d3d3d3" stroke-width="0.5" stroke-dasharray="4,4,4,4" points="223.569,136.059 223.569,19.437 223.569,19.437"/>
<polyline fill="none" stroke="#d3d3d3" stroke-width="0.5" stroke-dasharray="4,4,4,4" points="228.019,136.059 228.019,19.437 228.019,19.437"/>
<polyline fill="none" stroke="#d3d3d3" stroke-width="0.5" stroke-dasharray="4,4,4,4" points="258.189,136.059 258.189,19.437 258.189,19.437"/>
<polyline fill="none" stroke="#d3d3d3" stroke-width="0.5" stroke-dasharray="4,4,4,4" points="273.51,136.059 273.51,19.437 273.51,19.437"/>
<polyline fill="none" stroke="#d3d3d3" stroke-width="0.5" stroke-dasharray="4,4,4,4" points="284.379,136.059 284.379,19.437 284.379,19.437"/>
<polyline fill="none" stroke="#d3d3d3" stroke-width="0.5" stroke-dasharray="4,4,4,4" points="292.811,136.059 292.811,19.437 292.811,19.437"/>
<polyline fill="none" stroke="#d3d3d3" stroke-width="0.5" stroke-dasharray="4,4,4,4" points="299.699,136.059 299.699,19.437 299.699,19.437"/>
<polyline fill="none" stroke="#d3d3d3" stroke-width="0.5" stroke-dasharray="4,4,4,4" points="305.523,136.059 305.523,19.437 305.523,19.437"/>
<polyline fill="none" stroke="#d3d3d3" stroke-width="0.5" stroke-dasharray="4,4,4,4" points="310.569,136.059 310.569,19.437 310.569,19.437"/>
<polyline fill="none" stroke="#d3d3d3" stroke-width="0.5" stroke-dasharray="4,4,4,4" points="315.019,136.059 315.019,19.437 315.019,19.437"/>
<polyline fill="none" stroke="#d3d3d3" stroke-width="0.5" stroke-dasharray="4,4,4,4" points="345.189,136.059 345.189,19.437 345.189,19.437"/>
<polyline fill="none" stroke="#d3d3d3" stroke-width="0.5" stroke-dasharray="4,4,4,4" points="360.51,136.059 360.51,19.437 360.51,19.437"/>
<polyline fill="none" stroke="#d3d3d3" stroke-width="0.5" stroke-dasharray="4,4,4,4" points="371.379,136.059 371.379,19.437 371.379,19.437"/>
<polyline fill="none" stroke="#d3d3d3" stroke-width="0.5" stroke-dasharray="4,4,4,4" points="379.811,136.059 379.811,19.437 379.811,19.437"/>
<polyline fill="none" stroke="#d3d3d3" stroke-width="0.5" stroke-dasharray="4,4,4,4" points="386.699,136.059 386.699,19.437 386.699,19.437"/>
<polyline fill="none" stroke="#d3d3d3" stroke-width="0.5" stroke-dasharray="4,4,4,4" points="392.523,136.059 392.523,19.437 392.523,19.437"/>
<polyline fill="none" stroke="#d3d3d3" stroke-width="0.5" stroke-dasharray="4,4,4,4" points="397.569,136.059 397.569,19.437 397.569,19.437"/>
<polyline fill="none" stroke="#d3d3d3" stroke-width="0.5" stroke-dasharray="4,4,4,4" points="402.019,136.059 402.019,19.437 402.019,19.437"/>
<text fill="#000000" style="stroke:none" x="193" y="175" transform="rotate(0, 193, 175)" font-size="10" font-family="SansSerif" font-style="normal" font-weight="normal">Frequency (Hz)</text>
<text fill="#000000" style="stroke:none" x="25" y="117" transform="rotate(270, 25, 117)" font-size="10" font-family="SansSerif" font-style="normal" font-weight="normal">Magnitude (dB)</text>
<polygon fill="#ffffff" points="58,299.739 58,183.117 58,183.117"/>
<polygon fill="#ffffff" points="58,299.739 58,183.117 58,299.739"/>
<polygon fill="#ffffff" points="58,299.739 406,299.739 406,299.739"/>
<polygon fill="#ffffff" points="58,299.739 406,299.739 58,299.739"/>
<polygon fill="#ffffff" points="58,299.739 406,299.739 406,183.117"/>
<polygon fill="#ffffff" points="58,299.739 406,183.117 58,183.117"/>
<polyline fill="none" stroke="#000000" stroke-width="0.5" points="58,221.569 61.5151,221.528 67.6943,221.446 77.6577,221.281 92.0493,220.952 110.591,220.294 132.285,218.981 156.008,216.367 170.469,213.782 180.902,211.24 189.068,208.758 195.78,206.354 201.477,204.045 206.426,201.855 210.802,199.808 212.813,198.846 214.723,197.931 216.541,197.067 218.275,196.257 219.934,195.507 221.522,194.822 223.046,194.206 224.512,193.666 225.922,193.206 227.282,192.834 228.595,192.557 229.863,192.381 231.09,192.313 232.279,192.363 233.432,192.536 234.55,192.842 235.097,193.047 235.636,193.289 236.167,193.567 236.692,193.884 237.208,194.24 237.719,194.635 238.222,195.072 238.719,195.549 239.209,196.069 239.693,196.632 240.17,197.237 240.643,197.886 241.108,198.578 241.569,199.313 242.023,200.092 242.473,200.913 242.917,201.775 243.356,202.678 243.79,203.621 244.219,204.602 244.643,205.618 245.062,206.668 245.478,207.75 245.888,208.861 246.293,209.997 246.695,211.156 247.093,212.334 247.486,213.529 247.875,214.735 248.26,215.949 248.642,217.168 249.02,218.388 249.393,219.605 249.763,220.815 250.13,222.016 250.493,223.203 250.853,224.374 251.208,225.525 251.562,226.655 251.911,227.76 252.257,228.84 252.601,229.892 252.941,230.915 253.278,231.907 253.612,232.868 253.943,233.796 254.271,234.693 254.597,235.557 254.92,236.387 255.24,237.186 255.557,237.951 255.872,238.685 256.184,239.387 256.494,240.059 256.8,240.7 257.105,241.311 257.407,241.894 257.707,242.449 258.004,242.977 258.299,243.479 258.592,243.956 258.882,244.408 259.17,244.836 259.457,245.243 260.022,245.991 260.58,246.66 261.129,247.255 261.67,247.782 262.204,248.248 262.73,248.658 263.25,249.016 263.762,249.328 264.267,249.596 264.765,249.826 265.257,250.021 265.743,250.183 266.223,250.315 266.696,250.421 267.164,250.503 268.082,250.602 268.979,250.628 269.854,250.593 270.71,250.508 271.547,250.383 272.366,250.223 273.168,250.036 273.953,249.826 274.722,249.598 275.475,249.355 276.214,249.101 276.938,248.837 278.347,248.292 279.706,247.733 281.017,247.17 282.284,246.609 283.509,246.055 284.697,245.511 285.848,244.98 286.965,244.464 288.05,243.962 290.131,243.006 292.104,242.112 293.978,241.279 295.764,240.502 297.469,239.779 299.101,239.105 300.665,238.476 302.167,237.889 303.611,237.339 306.344,236.34 308.893,235.458 311.281,234.675 313.526,233.976 315.646,233.347 317.653,232.78 319.559,232.266 323.104,231.37 326.345,230.616 329.33,229.972 332.096,229.418 334.673,228.935 339.354,228.134 343.518,227.499 347.269,226.982 350.68,226.554 353.809,226.193 359.382,225.619 364.238,225.183 368.541,224.84 375.907,224.336 382.069,223.983 387.365,223.723 396.145,223.364 403.264,223.128 406,223.049"/>
<polyline fill="none" stroke="#0000ff" stroke-width="0.5" points="58,221.942 61.5151,221.938 67.6943,221.928 77.6577,221.91 92.0493,221.872 110.591,221.797 132.285,221.648 156.008,221.362 170.469,221.1 180.902,220.875 189.068,220.702 195.78,220.594 201.477,220.568 206.426,220.645 210.802,220.845 212.813,220.999 214.723,221.193 216.541,221.431 218.275,221.716 219.934,222.054 221.522,222.448 223.046,222.903 224.512,223.424 225.922,224.016 227.282,224.686 228.595,225.438 229.863,226.279 231.09,227.217 232.279,228.257 233.432,229.408 234.55,230.676 235.097,231.355 235.636,232.068 236.167,232.812 236.692,233.591 237.208,234.404 237.719,235.252 238.222,236.136 238.719,237.057 239.209,238.014 239.693,239.009 240.17,240.041 240.643,241.11 241.108,242.217 241.569,243.361 242.023,244.542 242.473,245.759 242.917,247.011 243.356,248.296 243.79,249.614 244.219,250.962 244.643,252.339 245.062,253.741 245.478,255.167 245.888,256.612 246.293,258.075 246.695,259.551 247.093,261.036 247.486,262.527 247.875,264.021 248.26,265.511 248.642,266.995 249.02,268.467 249.393,269.925 249.763,271.363 250.13,272.777 250.493,274.165 250.853,275.521 251.208,276.843 251.562,278.126 251.911,279.369 252.257,280.568 252.601,281.721 252.941,282.824 253.278,283.876 253.612,284.875 253.943,285.818 254.271,286.704 254.597,287.531 254.92,288.298 255.24,289.003 255.557,289.645 255.872,290.22 256.184,290.729 256.494,291.169 256.8,291.539 257.105,291.835 257.407,292.057 257.707,292.2 258.004,292.264 258.299,292.244 258.592,292.137 258.882,291.939 259.17,291.646 259.457,291.254 260.022,290.151 260.58,288.585 261.129,286.504 261.67,283.855 262.204,280.586 262.73,276.66 263.25,272.067 263.762,266.844 264.267,261.094 264.765,254.99 265.257,248.755 265.743,242.632 266.223,236.83 266.696,231.501 267.164,226.727 268.082,218.873 268.979,213.023 269.854,208.729 270.71,205.581 271.547,203.265 272.366,201.555 273.168,200.292 273.953,199.36 274.722,198.681 275.475,198.192 276.214,197.853 276.938,197.629 278.347,197.438 279.706,197.48 281.017,197.674 282.284,197.964 283.509,198.318 284.697,198.712 285.848,199.129 286.965,199.56 288.05,199.995 290.131,200.862 292.104,201.704 293.978,202.508 295.764,203.269 297.469,203.986 299.101,204.659 300.665,205.291 302.167,205.883 303.611,206.438 306.344,207.451 308.893,208.346 311.281,209.143 313.526,209.855 315.646,210.494 317.653,211.071 319.559,211.594 323.104,212.505 326.345,213.271 329.33,213.924 332.096,214.487 334.673,214.977 339.354,215.787 343.518,216.431 347.269,216.953 350.68,217.386 353.809,217.751 359.382,218.331 364.238,218.771 368.541,219.118 375.907,219.626 382.069,219.981 387.365,220.244 396.145,220.606 403.264,220.844 406,220.924"/>
<polygon fill="#ffffee" points="252,287 252,295 260,295"/>
<polygon fill="#ffffee" points="252,287 260,295 260,287"/>
<polyline fill="none" stroke="#0000ff" stroke-width="0.5" points="252,287 252,295 260,295 260,287 252,287"/>
<polygon fill="#ffffee" points="256.5,262.5 256.5,288.5 305.5,288.5"/>
<polygon fill="#ffffee" points="256.5,262.5 305.5,288.5 305.5,262.5"/>
<polyline fill="none" stroke="#bebebe" stroke-width="0.5" points="256.5,262.5 256.5,288.5 305.5,288.5 305.5,262.5 256.5,262.5"/>
<text fill="#000000" style="stroke:none" x="257" y="273" transform="rotate(0, 257, 273)" font-size="10" font-family="SansSerif" font-style="normal" font-weight="normal">1.912 Hz</text>
<text fill="#000000" style="stroke:none" x="257" y="287" transform="rotate(0, 257, 287)" font-size="10" font-family="SansSerif" font-style="normal" font-weight="normal"> -71.18 &#x00b0;</text>
<polyline fill="none" stroke="#000000" stroke-width="0.5" points="58,299.739 58,183.117"/>
<polyline fill="none" stroke="#000000" stroke-width="0.5" points="58,299.739 52.7798,299.739"/>
<polyline fill="none" stroke="#000000" stroke-width="0.5" points="58,280.302 52.7798,280.302"/>
<polyline fill="none" stroke="#000000" stroke-width="0.5" points="58,260.865 52.7798,260.865"/>
<polyline fill="none" stroke="#000000" stroke-width="0.5" points="58,241.428 52.7798,241.428"/>
<polyline fill="none" stroke="#000000" stroke-width="0.5" points="58,221.991 52.7798,221.991"/>
<polyline fill="none" stroke="#000000" stroke-width="0.5" points="58,202.554 52.7798,202.554"/>
<polyline fill="none" stroke="#000000" stroke-width="0.5" points="58,183.117 52.7798,183.117"/>
<polyline fill="none" stroke="#000000" stroke-width="0.5" points="58,294.88 54.8682,294.88"/>
<polyline fill="none" stroke="#000000" stroke-width="0.5" points="58,290.021 54.8682,290.021"/>
<polyline fill="none" stroke="#000000" stroke-width="0.5" points="58,285.161 54.8682,285.161"/>
<polyline fill="none" stroke="#000000" stroke-width="0.5" points="58,275.443 54.8682,275.443"/>
<polyline fill="none" stroke="#000000" stroke-width="0.5" points="58,270.583 54.8682,270.583"/>
<polyline fill="none" stroke="#000000" stroke-width="0.5" points="58,265.724 54.8682,265.724"/>
<polyline fill="none" stroke="#000000" stroke-width="0.5" points="58,256.006 54.8682,256.006"/>
<polyline fill="none" stroke="#000000" stroke-width="0.5" points="58,251.146 54.8682,251.146"/>
<polyline fill="none" stroke="#000000" stroke-width="0.5" points="58,246.287 54.8682,246.287"/>
<polyline fill="none" stroke="#000000" stroke-width="0.5" points="58,236.569 54.8682,236.569"/>
<polyline fill="none" stroke="#000000" stroke-width="0.5" points="58,231.709 54.8682,231.709"/>
<polyline fill="none" stroke="#000000" stroke-width="0.5" points="58,226.85 54.8682,226.85"/>
<polyline fill="none" stroke="#000000" stroke-width="0.5" points="58,217.132 54.8682,217.132"/>
<polyline fill="none" stroke="#000000" stroke-width="0.5" points="58,212.272 54.8682,212.272"/>
<polyline fill="none" stroke="#000000" stroke-width="0.5" points="58,207.413 54.8682,207.413"/>
<polyline fill="none" stroke="#000000" stroke-width="0.5" points="58,197.695 54.8682,197.695"/>
<polyline fill="none" stroke="#000000" stroke-width="0.5" points="58,192.835 54.8682,192.835"/>
<polyline fill="none" stroke="#000000" stroke-width="0.5" points="58,187.976 54.8682,187.976"/>
<text fill="#000000" style="stroke:none" x="32" y="305" transform="rotate(-0, 32, 305)" font-size="10" font-family="SansSerif" font-style="normal" font-weight="normal">-80</text>
<text fill="#000000" style="stroke:none" x="32" y="285" transform="rotate(-0, 32, 285)" font-size="10" font-family="SansSerif" font-style="normal" font-weight="normal">-60</text>
<text fill="#000000" style="stroke:none" x="32" y="266" transform="rotate(-0, 32, 266)" font-size="10" font-family="SansSerif" font-style="normal" font-weight="normal">-40</text>
<text fill="#000000" style="stroke:none" x="32" y="246" transform="rotate(-0, 32, 246)" font-size="10" font-family="SansSerif" font-style="normal" font-weight="normal">-20</text>
<text fill="#000000" style="stroke:none" x="43" y="227" transform="rotate(-0, 43, 227)" font-size="10" font-family="SansSerif" font-style="normal" font-weight="normal">0</text>
<text fill="#000000" style="stroke:none" x="38" y="208" transform="rotate(-0, 38, 208)" font-size="10" font-family="SansSerif" font-style="normal" font-weight="normal">20</text>
<text fill="#000000" style="stroke:none" x="37" y="188" transform="rotate(-0, 37, 188)" font-size="10" font-family="SansSerif" font-style="normal" font-weight="normal">40</text>
<polyline fill="none" stroke="#d3d3d3" stroke-width="0.5" stroke-dasharray="4,4,4,4" points="58,299.739 406,299.739 406,299.739"/>
<polyline fill="none" stroke="#d3d3d3" stroke-width="0.5" stroke-dasharray="4,4,4,4" points="58,280.302 406,280.302 406,280.302"/>
<polyline fill="none" stroke="#d3d3d3" stroke-width="0.5" stroke-dasharray="4,4,4,4" points="58,260.865 406,260.865 406,260.865"/>
<polyline fill="none" stroke="#d3d3d3" stroke-width="0.5" stroke-dasharray="4,4,4,4" points="58,241.428 406,241.428 406,241.428"/>
<polyline fill="none" stroke="#d3d3d3" stroke-width="0.5" stroke-dasharray="4,4,4,4" points="58,221.991 406,221.991 406,221.991"/>
<polyline fill="none" stroke="#d3d3d3" stroke-width="0.5" stroke-dasharray="4,4,4,4" points="58,202.554 406,202.554 406,202.554"/>
<polyline fill="none" stroke="#d3d3d3" stroke-width="0.5" stroke-dasharray="4,4,4,4" points="58,183.117 406,183.117 406,183.117"/>
<polyline fill="none" stroke="#000000" stroke-width="0.5" points="58,299.739 406,299.739"/>
<polyline fill="none" stroke="#000000" stroke-width="0.5" points="58,299.739 58,302.739"/>
<polyline fill="none" stroke="#000000" stroke-width="0.5" points="145,299.739 145,302.739"/>
<polyline fill="none" stroke="#000000" stroke-width="0.5" points="232,299.739 232,302.739"/>
<polyline fill="none" stroke="#000000" stroke-width="0.5" points="319,299.739 319,302.739"/>
<polyline fill="none" stroke="#000000" stroke-width="0.5" points="406,299.739 406,302.739"/>
<polyline fill="none" stroke="#000000" stroke-width="0.5" points="84.1895,299.739 84.1895,301.539"/>
<polyline fill="none" stroke="#000000" stroke-width="0.5" points="99.5098,299.739 99.5098,301.539"/>
<polyline fill="none" stroke="#000000" stroke-width="0.5" points="110.379,299.739 110.379,301.539"/>
<polyline fill="none" stroke="#000000" stroke-width="0.5" points="118.811,299.739 118.811,301.539"/>
<polyline fill="none" stroke="#000000" stroke-width="0.5" points="125.699,299.739 125.699,301.539"/>
<polyline fill="none" stroke="#000000" stroke-width="0.5" points="131.523,299.739 131.523,301.539"/>
<polyline fill="none" stroke="#000000" stroke-width="0.5" points="136.569,299.739 136.569,301.539"/>
<polyline fill="none" stroke="#000000" stroke-width="0.5" points="141.019,299.739 141.019,301.539"/>
<polyline fill="none" stroke="#000000" stroke-width="0.5" points="171.189,299.739 171.189,301.539"/>
<polyline fill="none" stroke="#000000" stroke-width="0.5" points="186.51,299.739 186.51,301.539"/>
<polyline fill="none" stroke="#000000" stroke-width="0.5" points="197.379,299.739 197.379,301.539"/>
<polyline fill="none" stroke="#000000" stroke-width="0.5" points="205.811,299.739 205.811,301.539"/>
<polyline fill="none" stroke="#000000" stroke-width="0.5" points="212.699,299.739 212.699,301.539"/>
<polyline fill="none" stroke="#000000" stroke-width="0.5" points="218.523,299.739 218.523,301.539"/>
<polyline fill="none" stroke="#000000" stroke-width="0.5" points="223.569,299.739 223.569,301.539"/>
<polyline fill="none" stroke="#000000" stroke-width="0.5" points="228.019,299.739 228.019,301.539"/>
<polyline fill="none" stroke="#000000" stroke-width="0.5" points="258.189,299.739 258.189,301.539"/>
<polyline fill="none" stroke="#000000" stroke-width="0.5" points="273.51,299.739 273.51,301.539"/>
<polyline fill="none" stroke="#000000" stroke-width="0.5" points="284.379,299.739 284.379,301.539"/>
<polyline fill="none" stroke="#000000" stroke-width="0.5" points="292.811,299.739 292.811,301.539"/>
<polyline fill="none" stroke="#000000" stroke-width="0.5" points="299.699,299.739 299.699,301.539"/>
<polyline fill="none" stroke="#000000" stroke-width="0.5" points="305.523,299.739 305.523,301.539"/>
<polyline fill="none" stroke="#000000" stroke-width="0.5" points="310.569,299.739 310.569,301.539"/>
<polyline fill="none" stroke="#000000" stroke-width="0.5" points="315.019,299.739 315.019,301.539"/>
<polyline fill="none" stroke="#000000" stroke-width="0.5" points="345.189,299.739 345.189,301.539"/>
<polyline fill="none" stroke="#000000" stroke-width="0.5" points="360.51,299.739 360.51,301.539"/>
<polyline fill="none" stroke="#000000" stroke-width="0.5" points="371.379,299.739 371.379,301.539"/>
<polyline fill="none" stroke="#000000" stroke-width="0.5" points="379.811,299.739 379.811,301.539"/>
<polyline fill="none" stroke="#000000" stroke-width="0.5" points="386.699,299.739 386.699,301.539"/>
<polyline fill="none" stroke="#000000" stroke-width="0.5" points="392.523,299.739 392.523,301.539"/>
<polyline fill="none" stroke="#000000" stroke-width="0.5" points="397.569,299.739 397.569,301.539"/>
<polyline fill="none" stroke="#000000" stroke-width="0.5" points="402.019,299.739 402.019,301.539"/>
<text fill="#000000" style="stroke:none" x="46" y="322" transform="rotate(-0, 46, 322)" font-size="10" font-family="SansSerif" font-style="normal" font-weight="normal">10</text>
<text fill="#000000" style="stroke:none" x="133" y="322" transform="rotate(-0, 133, 322)" font-size="10" font-family="SansSerif" font-style="normal" font-weight="normal">10</text>
<text fill="#000000" style="stroke:none" x="220" y="322" transform="rotate(-0, 220, 322)" font-size="10" font-family="SansSerif" font-style="normal" font-weight="normal">10</text>
<text fill="#000000" style="stroke:none" x="307" y="322" transform="rotate(-0, 307, 322)" font-size="10" font-family="SansSerif" font-style="normal" font-weight="normal">10</text>
<text fill="#000000" style="stroke:none" x="394" y="322" transform="rotate(-0, 394, 322)" font-size="10" font-family="SansSerif" font-style="normal" font-weight="normal">10</text>
<text fill="#000000" style="stroke:none" x="59" y="312" transform="rotate(-0, 59, 312)" font-size="9" font-family="SansSerif" font-style="normal" font-weight="normal">-2</text>
<text fill="#000000" style="stroke:none" x="146" y="312" transform="rotate(-0, 146, 312)" font-size="9" font-family="SansSerif" font-style="normal" font-weight="normal">-1</text>
<text fill="#000000" style="stroke:none" x="233" y="312" transform="rotate(-0, 233, 312)" font-size="9" font-family="SansSerif" font-style="normal" font-weight="normal">0</text>
<text fill="#000000" style="stroke:none" x="320" y="312" transform="rotate(-0, 320, 312)" font-size="9" font-family="SansSerif" font-style="normal" font-weight="normal">1</text>
<text fill="#000000" style="stroke:none" x="407" y="312" transform="rotate(-0, 407, 312)" font-size="9" font-family="SansSerif" font-style="normal" font-weight="normal">2</text>
<polyline fill="none" stroke="#d3d3d3" stroke-width="0.5" stroke-dasharray="4,4,4,4" points="58,299.739 58,183.117 58,183.117"/>
<polyline fill="none" stroke="#d3d3d3" stroke-width="0.5" stroke-dasharray="4,4,4,4" points="145,299.739 145,183.117 145,183.117"/>
<polyline fill="none" stroke="#d3d3d3" stroke-width="0.5" stroke-dasharray="4,4,4,4" points="232,299.739 232,183.117 232,183.117"/>
<polyline fill="none" stroke="#d3d3d3" stroke-width="0.5" stroke-dasharray="4,4,4,4" points="319,299.739 319,183.117 319,183.117"/>
<polyline fill="none" stroke="#d3d3d3" stroke-width="0.5" stroke-dasharray="4,4,4,4" points="406,299.739 406,183.117 406,183.117"/>
<polyline fill="none" stroke="#d3d3d3" stroke-width="0.5" stroke-dasharray="4,4,4,4" points="84.1895,299.739 84.1895,183.117 84.1895,183.117"/>
<polyline fill="none" stroke="#d3d3d3" stroke-width="0.5" stroke-dasharray="4,4,4,4" points="99.5098,299.739 99.5098,183.117 99.5098,183.117"/>
<polyline fill="none" stroke="#d3d3d3" stroke-width="0.5" stroke-dasharray="4,4,4,4" points="110.379,299.739 110.379,183.117 110.379,183.117"/>
<polyline fill="none" stroke="#d3d3d3" stroke-width="0.5" stroke-dasharray="4,4,4,4" points="118.811,299.739 118.811,183.117 118.811,183.117"/>
<polyline fill="none" stroke="#d3d3d3" stroke-width="0.5" stroke-dasharray="4,4,4,4" points="125.699,299.739 125.699,183.117 125.699,183.117"/>
<polyline fill="none" stroke="#d3d3d3" stroke-width="0.5" stroke-dasharray="4,4,4,4" points="131.523,299.739 131.523,183.117 131.523,183.117"/>
<polyline fill="none" stroke="#d3d3d3" stroke-width="0.5" stroke-dasharray="4,4,4,4" points="136.569,299.739 136.569,183.117 136.569,183.117"/>
<polyline fill="none" stroke="#d3d3d3" stroke-width="0.5" stroke-dasharray="4,4,4,4" points="141.019,299.739 141.019,183.117 141.019,183.117"/>
<polyline fill="none" stroke="#d3d3d3" stroke-width="0.5" stroke-dasharray="4,4,4,4" points="171.189,299.739 171.189,183.117 171.189,183.117"/>
<polyline fill="none" stroke="#d3d3d3" stroke-width="0.5" stroke-dasharray="4,4,4,4" points="186.51,299.739 186.51,183.117 186.51,183.117"/>
<polyline fill="none" stroke="#d3d3d3" stroke-width="0.5" stroke-dasharray="4,4,4,4" points="197.379,299.739 197.379,183.117 197.379,183.117"/>
<polyline fill="none" stroke="#d3d3d3" stroke-width="0.5" stroke-dasharray="4,4,4,4" points="205.811,299.739 205.811,183.117 205.811,183.117"/>
<polyline fill="none" stroke="#d3d3d3" stroke-width="0.5" stroke-dasharray="4,4,4,4" points="212.699,299.739 212.699,183.117 212.699,183.117"/>
<polyline fill="none" stroke="#d3d3d3" stroke-width="0.5" stroke-dasharray="4,4,4,4" points="218.523,299.739 218.523,183.117 218.523,183.117"/>
<polyline fill="none" stroke="#d3d3d3" stroke-width="0.5" stroke-dasharray="4,4,4,4" points="223.569,299.739 223.569,183.117 223.569,183.117"/>
<polyline fill="none" stroke="#d3d3d3" stroke-width="0.5" stroke-dasharray="4,4,4,4" points="228.019,299.739 228.019,183.117 228.019,183.117"/>
<polyline fill="none" stroke="#d3d3d3" stroke-width="0.5" stroke-dasharray="4,4,4,4" points="258.189,299.739 258.189,183.117 258.189,183.117"/>
<polyline fill="none" stroke="#d3d3d3" stroke-width="0.5" stroke-dasharray="4,4,4,4" points="273.51,299.739 273.51,183.117 273.51,183.117"/>
<polyline fill="none" stroke="#d3d3d3" stroke-width="0.5" stroke-dasharray="4,4,4,4" points="284.379,299.739 284.379,183.117 284.379,183.117"/>
<polyline fill="none" stroke="#d3d3d3" stroke-width="0.5" stroke-dasharray="4,4,4,4" points="292.811,299.739 292.811,183.117 292.811,183.117"/>
<polyline fill="none" stroke="#d3d3d3" stroke-width="0.5" stroke-dasharray="4,4,4,4" points="299.699,299.739 299.699,183.117 299.699,183.117"/>
<polyline fill="none" stroke="#d3d3d3" stroke-width="0.5" stroke-dasharray="4,4,4,4" points="305.523,299.739 305.523,183.117 305.523,183.117"/>
<polyline fill="none" stroke="#d3d3d3" stroke-width="0.5" stroke-dasharray="4,4,4,4" points="310.569,299.739 310.569,183.117 310.569,183.117"/>
<polyline fill="none" stroke="#d3d3d3" stroke-width="0.5" stroke-dasharray="4,4,4,4" points="315.019,299.739 315.019,183.117 315.019,183.117"/>
<polyline fill="none" stroke="#d3d3d3" stroke-width="0.5" stroke-dasharray="4,4,4,4" points="345.189,299.739 345.189,183.117 345.189,183.117"/>
<polyline fill="none" stroke="#d3d3d3" stroke-width="0.5" stroke-dasharray="4,4,4,4" points="360.51,299.739 360.51,183.117 360.51,183.117"/>
<polyline fill="none" stroke="#d3d3d3" stroke-width="0.5" stroke-dasharray="4,4,4,4" points="371.379,299.739 371.379,183.117 371.379,183.117"/>
<polyline fill="none" stroke="#d3d3d3" stroke-width="0.5" stroke-dasharray="4,4,4,4" points="379.811,299.739 379.811,183.117 379.811,183.117"/>
<polyline fill="none" stroke="#d3d3d3" stroke-width="0.5" stroke-dasharray="4,4,4,4" points="386.699,299.739 386.699,183.117 386.699,183.117"/>
<polyline fill="none" stroke="#d3d3d3" stroke-width="0.5" stroke-dasharray="4,4,4,4" points="392.523,299.739 392.523,183.117 392.523,183.117"/>
<polyline fill="none" stroke="#d3d3d3" stroke-width="0.5" stroke-dasharray="4,4,4,4" points="397.569,299.739 397.569,183.117 397.569,183.117"/>
<polyline fill="none" stroke="#d3d3d3" stroke-width="0.5" stroke-dasharray="4,4,4,4" points="402.019,299.739 402.019,183.117 402.019,183.117"/>
<text fill="#000000" style="stroke:none" x="193" y="339" transform="rotate(0, 193, 339)" font-size="10" font-family="SansSerif" font-style="normal" font-weight="normal">Frequency (Hz)</text>
<text fill="#000000" style="stroke:none" x="25" y="281" transform="rotate(270, 25, 281)" font-size="10" font-family="SansSerif" font-style="normal" font-weight="normal">Phase (degree)</text>
</g>
</svg>
