<?xml version="1.0" encoding="UTF-8" standalone="no"?>
<svg xmlns="http://www.w3.org/2000/svg"
     xmlns:xlink="http://www.w3.org/1999/xlink"
     width="612px" height="458px" viewBox="0 0 612 458"
     style="stroke:none">
<title>Figure n°0</title>
<desc>
Creator: GL2PS 1.3.2, (C) 1999-2006 Christophe Geuzaine (geuz@geuz.org)
For: Scilab
CreationDate: Thu May  5 16:36:45 2011
</desc>
<defs>
</defs>
<polygon fill="#ffffff" points="0,0 612,0 612,458 0,458"/>
<g>
<polygon fill="#ffffff" points="76.5,400.75 76.5,57.25 76.5,57.25"/>
<polygon fill="#ffffff" points="76.5,400.75 76.5,57.25 76.5,400.75"/>
<polygon fill="#ffffff" points="76.5,400.75 535.5,400.75 535.5,400.75"/>
<polygon fill="#ffffff" points="76.5,400.75 535.5,400.75 76.5,400.75"/>
<polygon fill="#ffffff" points="76.5,400.75 535.5,400.75 535.5,57.25"/>
<polygon fill="#ffffff" points="76.5,400.75 535.5,57.25 76.5,57.25"/>
<polyline fill="none" stroke="#000000" stroke-width="0.5" points="76.5,400.436 81.1362,400.403 89.8081,400.329 105.172,400.154 130.219,399.676 150.219,398.991 166.869,398.057 181.132,396.84 193.607,395.322 204.692,393.502 214.667,391.399 223.735,389.049 232.045,386.498 239.716,383.797 246.838,380.999 253.485,378.149 259.717,375.289 265.581,372.45 271.12,369.659 276.367,366.934 281.352,364.289 286.098,361.733 290.629,359.273 294.964,356.911 299.117,354.649 303.104,352.486 306.938,350.421 310.63,348.451 314.19,346.573 317.628,344.785 320.95,343.082 324.166,341.461 327.281,339.918 330.301,338.451 333.233,337.054 336.081,335.725 338.85,334.46 341.543,333.257 344.167,332.111 346.723,331.021 349.214,329.982 351.646,328.993 354.019,328.05 356.336,327.151 358.602,326.294 360.817,325.477 362.984,324.697 365.104,323.953 367.181,323.242 369.215,322.563 371.208,321.915 373.163,321.294 375.08,320.702 376.96,320.134 378.806,319.591 380.619,319.071 382.398,318.573 384.147,318.096 387.555,317.2 390.85,316.375 394.04,315.615 397.13,314.913 400.128,314.264 403.039,313.662 405.866,313.104 408.616,312.586 411.292,312.104 413.898,311.655 416.438,311.236 418.914,310.844 421.33,310.478 423.689,310.135 425.994,309.813 428.247,309.512 430.449,309.228 432.604,308.961 436.78,308.473 440.787,308.038 444.64,307.648 448.349,307.299 451.925,306.984 455.377,306.699 458.713,306.441 461.942,306.207 465.069,305.993 468.101,305.797 471.043,305.618 473.902,305.454 476.68,305.302 479.383,305.162 484.579,304.913 489.517,304.699 494.222,304.512 498.715,304.35 503.014,304.208 507.136,304.082 511.093,303.97 514.9,303.871 518.566,303.782 522.103,303.702 525.518,303.63 528.82,303.564 532.016,303.505 535.113,303.452 535.493,303.445 535.5,303.445"/>
<polyline fill="none" stroke="#0000ff" stroke-width="0.5" points="76.5,400.298 81.1362,400.251 89.8081,400.148 105.172,399.909 130.219,399.272 150.219,398.39 166.869,397.222 181.132,395.735 193.607,393.914 204.692,391.758 214.667,389.289 223.735,386.545 232.045,383.574 239.716,380.431 246.838,377.17 253.485,373.84 259.717,370.486 265.581,367.144 271.12,363.841 276.367,360.601 281.352,357.441 286.098,354.375 290.629,351.411 294.964,348.556 299.117,345.814 303.104,343.189 306.938,340.682 310.63,338.292 314.19,336.019 317.628,333.862 320.95,331.819 324.166,329.888 327.281,328.065 330.301,326.349 333.233,324.735 336.081,323.22 337.475,322.498 338.85,321.799 340.206,321.124 341.543,320.47 342.864,319.838 344.167,319.227 345.453,318.637 346.723,318.067 347.976,317.517 349.214,316.985 350.438,316.472 351.646,315.977 352.839,315.5 355.185,314.595 357.476,313.754 359.716,312.973 361.906,312.248 364.05,311.575 366.148,310.951 368.203,310.372 370.217,309.835 372.19,309.338 374.126,308.877 376.024,308.449 377.888,308.053 379.716,307.686 381.512,307.345 383.276,307.029 385.01,306.736 386.714,306.463 388.389,306.211 390.037,305.976 391.657,305.758 393.252,305.556 394.821,305.367 397.889,305.028 400.864,304.735 403.753,304.479 406.561,304.257 409.292,304.063 411.95,303.894 414.539,303.745 417.062,303.615 419.523,303.5 421.925,303.398 424.271,303.309 426.562,303.23 428.802,303.16 430.993,303.098 433.136,303.042 435.234,302.994 439.303,302.91 443.212,302.844 446.974,302.791 450.599,302.748 454.096,302.712 457.475,302.684 460.743,302.661 463.908,302.642 466.975,302.626 469.95,302.614 472.839,302.604 475.647,302.595 478.378,302.588 481.036,302.583 483.625,302.578 486.148,302.575 491.012,302.569 495.648,302.566 500.079,302.564 504.321,302.563 508.39,302.563 512.298,302.564 516.06,302.565 519.685,302.566 523.183,302.567 526.562,302.568 529.83,302.57 532.994,302.571 534.54,302.572 535.303,302.572 535.5,302.572"/>
<polyline fill="none" stroke="#00ff00" stroke-width="0.5" points="76.5,400.217 81.1362,400.162 89.8081,400.043 105.172,399.765 130.219,399.033 150.219,398.032 166.869,396.72 181.132,395.066 193.607,393.05 204.692,390.674 214.667,387.958 223.735,384.94 232.045,381.668 239.716,378.196 246.838,374.578 253.485,370.863 259.717,367.096 265.581,363.313 271.12,359.543 276.367,355.81 281.352,352.134 286.098,348.528 290.629,345.006 294.964,341.576 299.117,338.248 301.131,336.624 303.104,335.027 305.04,333.459 306.938,331.92 308.802,330.412 310.63,328.935 312.426,327.488 314.19,326.074 315.924,324.692 317.628,323.343 319.303,322.029 320.95,320.748 322.571,319.502 324.166,318.292 325.735,317.117 327.281,315.978 328.802,314.875 330.301,313.81 331.778,312.78 333.233,311.788 334.667,310.832 336.081,309.913 337.475,309.03 338.85,308.185 340.206,307.375 341.543,306.602 342.864,305.863 344.167,305.16 345.453,304.491 346.723,303.856 347.976,303.254 349.214,302.684 350.438,302.146 351.646,301.638 352.839,301.159 354.019,300.71 355.185,300.288 356.336,299.893 357.476,299.524 358.602,299.179 359.716,298.858 360.817,298.56 361.906,298.284 362.984,298.027 364.05,297.792 365.104,297.574 366.148,297.374 367.181,297.191 368.203,297.023 369.215,296.871 370.217,296.733 371.208,296.609 372.19,296.497 373.163,296.396 374.126,296.307 376.024,296.16 377.888,296.048 379.716,295.969 381.512,295.918 383.276,295.891 385.01,295.885 386.714,295.896 388.389,295.923 390.037,295.963 391.657,296.015 393.252,296.075 394.821,296.143 396.367,296.218 397.889,296.298 399.387,296.382 400.864,296.47 402.319,296.56 403.753,296.652 405.167,296.746 407.936,296.936 410.63,297.126 413.253,297.315 415.809,297.5 418.3,297.681 420.731,297.856 423.105,298.025 425.423,298.189 427.688,298.346 429.903,298.497 432.07,298.641 434.191,298.779 436.267,298.912 438.301,299.039 440.295,299.16 442.249,299.275 446.047,299.492 449.705,299.689 453.233,299.87 456.641,300.036 459.937,300.187 463.126,300.327 466.217,300.455 469.215,300.573 472.125,300.682 474.953,300.782 480.378,300.962 485.523,301.117 490.417,301.251 495.08,301.368 499.536,301.471 503.8,301.562 507.89,301.642 511.818,301.714 519.239,301.835 526.146,301.934 532.604,302.014 535.5,302.047"/>
<polyline fill="none" stroke="#00ffff" stroke-width="0.5" points="76.5,400.163 81.1362,400.103 89.8081,399.972 105.172,399.668 130.219,398.873 166.869,396.379 193.607,392.454 214.667,387.022 223.735,383.799 232.045,380.295 239.716,376.564 246.838,372.656 253.485,368.62 259.717,364.494 265.581,360.314 271.12,356.105 276.367,351.889 281.352,347.681 283.753,345.584 286.098,343.493 288.39,341.408 290.629,339.332 292.82,337.265 294.964,335.207 297.062,333.159 299.117,331.122 301.131,329.097 303.104,327.084 305.04,325.084 306.938,323.099 308.802,321.127 310.63,319.172 312.426,317.234 314.19,315.314 315.924,313.414 317.628,311.535 319.303,309.679 320.95,307.849 322.571,306.045 324.166,304.272 325.735,302.531 327.281,300.826 328.802,299.159 329.555,298.341 330.301,297.534 331.042,296.738 331.778,295.954 332.508,295.182 333.233,294.423 333.953,293.677 334.667,292.944 335.376,292.226 336.081,291.522 336.78,290.833 337.475,290.159 338.165,289.501 338.85,288.859 339.53,288.234 340.206,287.626 340.877,287.035 341.543,286.462 342.206,285.908 342.864,285.371 343.517,284.853 344.167,284.354 344.812,283.874 345.453,283.414 346.089,282.972 346.723,282.55 347.351,282.147 347.976,281.765 348.597,281.401 349.214,281.057 349.828,280.732 350.438,280.426 351.043,280.14 351.646,279.872 352.244,279.622 352.839,279.391 353.431,279.177 354.019,278.981 354.603,278.802 355.185,278.64 355.762,278.494 356.336,278.364 356.908,278.249 358.041,278.063 358.602,277.992 359.16,277.934 359.716,277.889 360.268,277.855 360.817,277.834 361.363,277.825 361.906,277.826 362.446,277.837 362.984,277.858 363.518,277.889 364.579,277.976 365.628,278.095 366.666,278.243 367.693,278.415 368.71,278.609 369.717,278.823 370.714,279.053 371.701,279.296 372.678,279.552 373.646,279.818 374.604,280.092 375.553,280.372 376.494,280.658 377.425,280.947 378.348,281.239 379.262,281.532 380.168,281.826 381.066,282.121 381.957,282.414 382.838,282.707 383.713,282.997 384.58,283.286 385.438,283.571 386.291,283.854 387.135,284.133 388.803,284.682 390.444,285.215 392.058,285.732 393.646,286.233 395.21,286.716 396.75,287.183 398.265,287.633 399.759,288.066 401.23,288.484 402.68,288.886 404.108,289.272 405.517,289.645 406.906,290.002 408.276,290.347 410.961,290.997 413.576,291.6 416.124,292.158 418.607,292.677 421.031,293.158 423.397,293.607 425.709,294.024 427.968,294.414 430.177,294.778 434.453,295.438 438.553,296.018 442.491,296.53 446.279,296.985 449.929,297.391 453.45,297.754 456.85,298.081 463.322,298.643 469.399,299.105 475.127,299.492 480.543,299.817 485.68,300.094 490.565,300.331 499.671,300.715 508.015,301.009 515.713,301.24 522.86,301.423 535.5,301.69"/>
<polyline fill="none" stroke="#ff0000" stroke-width="0.5" points="76.5,400.138 81.1362,400.075 89.8081,399.939 105.172,399.624 130.219,398.799 166.869,396.222 193.607,392.176 214.667,386.581 232.045,379.638 246.838,371.717 259.717,363.19 265.581,358.789 271.12,354.329 276.367,349.826 281.352,345.29 286.098,340.725 290.629,336.134 294.964,331.513 299.117,326.857 303.104,322.159 305.04,319.792 306.938,317.41 308.802,315.012 310.63,312.598 312.426,310.164 314.19,307.71 315.924,305.235 317.628,302.736 319.303,300.211 320.95,297.66 322.571,295.081 324.166,292.472 325.735,289.832 326.511,288.5 327.281,287.162 328.044,285.814 328.802,284.46 329.555,283.098 330.301,281.729 331.042,280.352 331.778,278.969 332.508,277.579 333.233,276.184 333.953,274.784 334.667,273.379 335.376,271.972 336.081,270.562 336.78,269.152 337.475,267.743 338.165,266.337 338.85,264.937 339.53,263.544 340.206,262.162 340.877,260.793 341.211,260.116 341.543,259.443 341.875,258.775 342.206,258.113 342.535,257.458 342.864,256.81 343.191,256.169 343.517,255.537 343.842,254.913 344.167,254.299 344.49,253.696 344.812,253.103 345.133,252.522 345.453,251.954 345.771,251.399 346.089,250.857 346.407,250.331 346.723,249.82 347.037,249.325 347.351,248.848 347.664,248.387 347.976,247.945 348.287,247.522 348.597,247.12 348.906,246.736 349.214,246.375 349.521,246.034 349.828,245.714 350.133,245.417 350.438,245.143 350.741,244.892 351.043,244.663 351.345,244.457 351.646,244.275 351.945,244.116 352.244,243.979 352.542,243.866 352.839,243.775 353.135,243.707 353.431,243.661 353.725,243.636 354.019,243.633 354.312,243.65 354.603,243.688 354.894,243.745 355.185,243.82 355.474,243.914 355.762,244.025 356.05,244.153 356.336,244.297 356.623,244.457 356.908,244.63 357.192,244.817 357.476,245.018 357.758,245.23 358.041,245.454 358.322,245.689 358.602,245.934 358.881,246.188 359.16,246.451 359.438,246.721 359.716,247 359.992,247.284 360.268,247.575 360.817,248.173 361.363,248.79 361.906,249.421 362.446,250.062 362.984,250.712 363.518,251.367 364.05,252.025 364.579,252.684 365.104,253.341 365.628,253.996 366.148,254.646 366.666,255.292 367.181,255.932 367.693,256.565 368.203,257.19 368.71,257.808 369.215,258.417 369.717,259.016 370.217,259.607 370.714,260.188 371.208,260.76 371.701,261.322 372.19,261.875 373.163,262.95 374.126,263.988 375.08,264.987 376.024,265.95 376.96,266.877 377.888,267.77 378.806,268.629 379.716,269.457 380.619,270.254 381.512,271.022 383.276,272.475 385.01,273.825 386.714,275.082 388.389,276.254 390.037,277.349 391.657,278.373 393.252,279.333 394.821,280.233 396.367,281.079 397.889,281.875 399.387,282.625 400.864,283.333 403.753,284.635 406.561,285.802 409.292,286.854 411.95,287.806 414.539,288.67 417.062,289.458 419.523,290.178 421.925,290.838 426.562,292.005 430.993,293.001 435.234,293.859 439.303,294.604 443.212,295.256 446.974,295.83 454.096,296.789 460.743,297.555 466.975,298.176 472.839,298.689 478.378,299.116 488.61,299.784 497.888,300.275 506.376,300.648 521.449,301.167 534.54,301.503 535.5,301.525"/>
<polyline fill="none" stroke="#ff00ff" stroke-width="0.5" points="76.5,400.132 79.2842,400.095 84.6289,400.017 94.5293,399.846 111.793,399.438 139.319,398.335 178.571,394.725 228.546,381.088 286.501,339.623 322.909,290.852 330.256,275.585 337.099,256.959 340.351,245.385 343.501,231.085 345.04,222.29 346.555,211.729 347.304,205.493 348.047,198.354 348.785,189.972 349.152,185.15 349.518,179.773 349.882,173.688 350.063,170.313 350.245,166.667 350.426,162.702 350.606,158.353 350.787,153.536 350.876,150.917 350.966,148.134 351.057,145.165 351.146,141.982 351.236,138.551 351.326,134.83 351.415,130.763 351.46,128.579 351.504,126.279 351.549,123.852 351.594,121.281 351.639,118.549 351.683,115.634 351.728,112.509 351.772,109.142 351.81,106.13 351.847,102.895 351.883,99.3936 351.92,95.582 351.958,91.3989 351.995,86.7642 352.032,81.5674 352.069,75.6538 352.105,68.7925 352.118,66.2002 352.517,65.9556 352.575,76.8525 352.612,82.5464 352.649,87.5664 352.686,92.0547 352.723,96.1123 352.76,99.8149 352.797,103.219 352.834,106.37 352.871,109.301 352.908,112.042 352.944,114.613 352.981,117.036 353.019,119.327 353.092,123.562 353.129,125.533 353.203,129.215 353.277,132.597 353.351,135.724 353.424,138.631 353.498,141.348 353.571,143.896 353.718,148.562 353.865,152.75 354.011,156.548 354.158,160.021 354.304,163.219 354.595,168.941 354.886,173.945 355.176,178.387 355.465,182.378 356.041,189.308 356.613,195.175 357.182,200.252 358.31,208.698 359.425,215.535 360.528,221.251 362.699,230.398 364.823,237.505 368.94,248.043 372.895,255.624 380.361,266.002 387.306,272.868 399.895,281.455 421.119,289.984 453.48,296.462 497.449,300.167 535.5,301.486"/>
<polygon fill="#ffffff" points="529.263,60.4302 415.55,146.49 415.55,60.4302"/>
<polygon fill="#ffffff" points="529.263,146.49 415.55,146.49 529.263,60.4302"/>
<polyline fill="none" stroke="#000000" stroke-width="0.5" points="415.55,146.49 415.55,60.4302 529.263,60.4302 529.263,146.49 415.55,146.49"/>
<g fill="#000000" stroke="black" transform="rotate(0,477,75) translate(477,75)"><!--Generated by the Batik Graphics2D SVG Generator--><defs id="genericDefs"
  /><g
  ><g transform="matrix(1,0,0,1,0,-13) scale(10,10) translate(0.1,0.8944)" style="font-size:1; text-rendering:geometricPrecision; color-rendering:optimizeQuality; image-rendering:optimizeQuality; font-family:&apos;jlm_cmmi10&apos;; color-interpolation:linearRGB;"
    ><path style="stroke:none;" d="M0.1562 -0.3125 L0.1562 -0.3125 L0.1719 -0.3125 Q0.1094 -0.3594 0.1094 -0.4219 Q0.1094 -0.5 0.1719 -0.5625 Q0.2188 -0.5938 0.2812 -0.6094 Q0.2656 -0.6406 0.2656 -0.6406 Q0.2656 -0.7031 0.2812 -0.7031 Q0.2969 -0.7031 0.2969 -0.6875 L0.2969 -0.6406 L0.2969 -0.6406 Q0.2969 -0.625 0.2969 -0.6094 Q0.3281 -0.625 0.3594 -0.625 Q0.4375 -0.625 0.4375 -0.5938 L0.4375 -0.5938 L0.4375 -0.5938 Q0.4531 -0.5938 0.4531 -0.5938 Q0.4531 -0.5625 0.3594 -0.5625 Q0.3125 -0.5625 0.2969 -0.5781 Q0.2969 -0.5781 0.2969 -0.5781 Q0.2188 -0.5469 0.1875 -0.4688 Q0.1875 -0.4375 0.1875 -0.4062 Q0.1875 -0.3594 0.2188 -0.3281 Q0.25 -0.3438 0.2969 -0.3438 Q0.375 -0.3438 0.375 -0.3125 Q0.375 -0.2812 0.2812 -0.2812 Q0.2344 -0.2812 0.2031 -0.2969 Q0.125 -0.2656 0.0938 -0.1875 Q0.0781 -0.1562 0.0781 -0.125 Q0.0781 -0.0781 0.1562 -0.0469 L0.2031 -0.0156 Q0.2344 -0.0156 0.2656 0 Q0.3125 0.0156 0.3281 0.0312 Q0.375 0.0469 0.375 0.0938 Q0.375 0.1406 0.3438 0.1875 Q0.3125 0.2031 0.2969 0.2031 Q0.2812 0.2031 0.2812 0.2031 Q0.2188 0.2031 0.1719 0.1719 Q0.1719 0.1562 0.1719 0.1562 Q0.1719 0.1406 0.1719 0.1406 Q0.1875 0.1406 0.1875 0.1562 Q0.2344 0.1875 0.2812 0.1875 Q0.3125 0.1875 0.3125 0.1562 Q0.3281 0.1406 0.3281 0.125 Q0.3281 0.1094 0.2969 0.0938 Q0.2969 0.0938 0.2812 0.0938 L0.1719 0.0469 Q0.0938 0.0156 0.0781 0 Q0.0625 -0.0156 0.0469 -0.0312 Q0.0312 -0.0469 0.0312 -0.0469 Q0.0156 -0.0781 0.0156 -0.1094 Q0.0156 -0.1719 0.0781 -0.2344 Q0.1094 -0.2812 0.1562 -0.3125 ZM0.3125 -0.5938 Q0.3281 -0.5781 0.3594 -0.5781 Q0.4062 -0.5781 0.4219 -0.5938 Q0.3906 -0.5938 0.3594 -0.5938 Q0.3281 -0.5938 0.3125 -0.5938 ZM0.2344 -0.3125 Q0.25 -0.3125 0.2812 -0.3125 Q0.3438 -0.3125 0.3594 -0.3125 Q0.3281 -0.3281 0.2969 -0.3281 Q0.2656 -0.3281 0.2344 -0.3125 Z"
    /></g
    ><g transform="matrix(10,0,0,10,0,-13) translate(0.8153,0.8944)" style="font-size:1; text-rendering:geometricPrecision; color-rendering:optimizeQuality; image-rendering:optimizeQuality; font-family:&apos;jlm_cmr10&apos;; color-interpolation:linearRGB;"
    ><path style="stroke:none;" d="M0.6875 -0.3281 L0.0938 -0.3281 Q0.0625 -0.3281 0.0625 -0.3438 Q0.0625 -0.3594 0.0938 -0.3594 L0.6875 -0.3594 Q0.7188 -0.3594 0.7188 -0.3438 Q0.7188 -0.3281 0.6875 -0.3281 ZM0.6875 -0.1406 L0.0938 -0.1406 Q0.0625 -0.1406 0.0625 -0.1562 Q0.0625 -0.1719 0.0938 -0.1719 L0.6875 -0.1719 Q0.7188 -0.1719 0.7188 -0.1562 Q0.7188 -0.1406 0.6875 -0.1406 Z"
    /></g
    ><g transform="matrix(10,0,0,10,0,-13) translate(1.8708,0.8944)" style="font-size:1; text-rendering:geometricPrecision; color-rendering:optimizeQuality; image-rendering:optimizeQuality; font-family:&apos;jlm_cmr10&apos;; color-interpolation:linearRGB;"
    ><path style="stroke:none;" d="M0.4531 -0.3125 Q0.4531 -0.1719 0.4219 -0.0938 Q0.3594 0.0156 0.25 0.0156 Q0.1562 0.0156 0.1094 -0.0469 Q0.0938 -0.0625 0.0781 -0.0781 Q0.0312 -0.1562 0.0312 -0.3125 Q0.0312 -0.4688 0.0781 -0.5469 Q0.125 -0.6562 0.2344 -0.6719 L0.25 -0.6719 Q0.3438 -0.6719 0.3906 -0.5938 L0.3906 -0.5938 Q0.4062 -0.5781 0.4219 -0.5469 Q0.4531 -0.4688 0.4531 -0.3125 ZM0.25 0 L0.25 0 Q0.3125 0 0.3438 -0.0625 Q0.3594 -0.0938 0.3594 -0.125 Q0.375 -0.1875 0.375 -0.3281 Q0.375 -0.4688 0.3594 -0.5312 Q0.3438 -0.625 0.2812 -0.6406 Q0.2656 -0.6406 0.25 -0.6406 Q0.1719 -0.6406 0.1406 -0.5781 Q0.1406 -0.5469 0.125 -0.5156 Q0.125 -0.4688 0.125 -0.3281 Q0.125 -0.1875 0.1406 -0.125 Q0.1562 -0.0312 0.2188 0 Q0.2344 0 0.25 0 Z"
    /></g
    ><g transform="matrix(10,0,0,10,0,-13) translate(2.3708,0.8944)" style="font-size:1; text-rendering:geometricPrecision; color-rendering:optimizeQuality; image-rendering:optimizeQuality; font-family:&apos;jlm_cmmi10&apos;; color-interpolation:linearRGB;"
    ><path style="stroke:none;" d="M0.1875 -0.0469 L0.1875 -0.0469 Q0.1875 -0.0156 0.1562 0 Q0.1562 0 0.1406 0 Q0.1094 0 0.0938 -0.0312 Q0.0938 -0.0469 0.0938 -0.0469 Q0.0938 -0.0938 0.1094 -0.0938 Q0.125 -0.1094 0.1406 -0.1094 Q0.1719 -0.1094 0.1875 -0.0781 Q0.1875 -0.0625 0.1875 -0.0469 Z"
    /></g
    ><g transform="matrix(10,0,0,10,0,-13) translate(2.6486,0.8944)" style="font-size:1; text-rendering:geometricPrecision; color-rendering:optimizeQuality; image-rendering:optimizeQuality; font-family:&apos;jlm_cmr10&apos;; color-interpolation:linearRGB;"
    ><path style="stroke:none;" d="M0.3594 -0.3125 Q0.3281 -0.2188 0.2344 -0.2188 Q0.1562 -0.2188 0.0938 -0.2969 L0.0938 -0.2969 Q0.0469 -0.3594 0.0469 -0.4453 Q0.0469 -0.5312 0.0938 -0.5938 L0.1094 -0.6094 Q0.1719 -0.6719 0.25 -0.6719 Q0.3594 -0.6719 0.4062 -0.5625 Q0.4531 -0.4844 0.4531 -0.3281 Q0.4531 -0.1562 0.3594 -0.0625 Q0.2969 0.0156 0.2031 0.0156 Q0.1094 0.0156 0.0781 -0.0312 Q0.0625 -0.0625 0.0625 -0.0938 Q0.0625 -0.125 0.1094 -0.1406 Q0.1094 -0.1406 0.1094 -0.1406 Q0.1406 -0.1406 0.1562 -0.1094 Q0.1562 -0.0938 0.1562 -0.0938 Q0.1562 -0.0469 0.125 -0.0469 Q0.1094 -0.0469 0.1094 -0.0469 Q0.1406 0 0.2031 0 Q0.2812 0 0.3281 -0.0781 Q0.3594 -0.1562 0.3594 -0.2812 L0.3594 -0.3125 ZM0.25 -0.2344 Q0.3281 -0.2344 0.3594 -0.3281 Q0.3594 -0.375 0.3594 -0.4219 Q0.3594 -0.5156 0.3438 -0.5625 Q0.3281 -0.625 0.2656 -0.6406 Q0.2656 -0.6406 0.25 -0.6406 Q0.1875 -0.6406 0.1562 -0.5781 Q0.125 -0.5469 0.125 -0.4531 L0.125 -0.4375 Q0.125 -0.3438 0.1562 -0.2969 Q0.1875 -0.2344 0.25 -0.2344 Z"
    /></g
    ><g transform="matrix(10,0,0,10,0,-13) translate(3.1486,0.8944)" style="font-size:1; text-rendering:geometricPrecision; color-rendering:optimizeQuality; image-rendering:optimizeQuality; font-family:&apos;jlm_cmr10&apos;; color-interpolation:linearRGB;"
    ><path style="stroke:none;" d="M0.4531 -0.2031 L0.4531 -0.2031 Q0.4531 -0.0938 0.375 -0.0312 Q0.3125 0.0156 0.2344 0.0156 Q0.1406 0.0156 0.0781 -0.0625 Q0.0469 -0.1094 0.0469 -0.1562 Q0.0469 -0.2031 0.0938 -0.2188 Q0.0938 -0.2188 0.0938 -0.2188 Q0.1406 -0.2188 0.1406 -0.1875 Q0.1562 -0.1719 0.1562 -0.1719 Q0.1562 -0.1406 0.125 -0.125 Q0.1094 -0.1094 0.0938 -0.1094 Q0.0938 -0.1094 0.0781 -0.125 Q0.0938 -0.0625 0.1562 -0.0312 Q0.1875 0 0.2344 0 Q0.2969 0 0.3438 -0.0781 Q0.3594 -0.1094 0.3594 -0.2031 Q0.3594 -0.2969 0.3438 -0.3281 Q0.3125 -0.3906 0.25 -0.3906 Q0.1719 -0.3906 0.125 -0.3281 Q0.125 -0.3125 0.1094 -0.3125 Q0.1094 -0.3125 0.0938 -0.3281 L0.0938 -0.3438 L0.0938 -0.6406 Q0.0938 -0.6562 0.1094 -0.6719 Q0.1094 -0.6719 0.125 -0.6562 Q0.1875 -0.6406 0.25 -0.6406 Q0.3281 -0.6406 0.3906 -0.6562 Q0.3906 -0.6719 0.4062 -0.6719 Q0.4062 -0.6719 0.4062 -0.6562 Q0.4062 -0.6406 0.375 -0.6094 Q0.3125 -0.5469 0.2188 -0.5469 Q0.1719 -0.5469 0.125 -0.5625 L0.125 -0.375 Q0.1875 -0.4219 0.2656 -0.4219 Q0.3438 -0.4219 0.4062 -0.3438 Q0.4531 -0.2812 0.4531 -0.2031 Z"
    /></g
  ></g
></g>
<g fill="#000000" stroke="black" transform="rotate(0,477,88) translate(477,88)"><!--Generated by the Batik Graphics2D SVG Generator--><defs id="genericDefs"
  /><g
  ><g transform="matrix(1,0,0,1,0,-13) scale(10,10) translate(0.1,0.8944)" style="font-size:1; text-rendering:geometricPrecision; color-rendering:optimizeQuality; image-rendering:optimizeQuality; font-family:&apos;jlm_cmmi10&apos;; color-interpolation:linearRGB;"
    ><path style="stroke:none;" d="M0.1562 -0.3125 L0.1562 -0.3125 L0.1719 -0.3125 Q0.1094 -0.3594 0.1094 -0.4219 Q0.1094 -0.5 0.1719 -0.5625 Q0.2188 -0.5938 0.2812 -0.6094 Q0.2656 -0.6406 0.2656 -0.6406 Q0.2656 -0.7031 0.2812 -0.7031 Q0.2969 -0.7031 0.2969 -0.6875 L0.2969 -0.6406 L0.2969 -0.6406 Q0.2969 -0.625 0.2969 -0.6094 Q0.3281 -0.625 0.3594 -0.625 Q0.4375 -0.625 0.4375 -0.5938 L0.4375 -0.5938 L0.4375 -0.5938 Q0.4531 -0.5938 0.4531 -0.5938 Q0.4531 -0.5625 0.3594 -0.5625 Q0.3125 -0.5625 0.2969 -0.5781 Q0.2969 -0.5781 0.2969 -0.5781 Q0.2188 -0.5469 0.1875 -0.4688 Q0.1875 -0.4375 0.1875 -0.4062 Q0.1875 -0.3594 0.2188 -0.3281 Q0.25 -0.3438 0.2969 -0.3438 Q0.375 -0.3438 0.375 -0.3125 Q0.375 -0.2812 0.2812 -0.2812 Q0.2344 -0.2812 0.2031 -0.2969 Q0.125 -0.2656 0.0938 -0.1875 Q0.0781 -0.1562 0.0781 -0.125 Q0.0781 -0.0781 0.1562 -0.0469 L0.2031 -0.0156 Q0.2344 -0.0156 0.2656 0 Q0.3125 0.0156 0.3281 0.0312 Q0.375 0.0469 0.375 0.0938 Q0.375 0.1406 0.3438 0.1875 Q0.3125 0.2031 0.2969 0.2031 Q0.2812 0.2031 0.2812 0.2031 Q0.2188 0.2031 0.1719 0.1719 Q0.1719 0.1562 0.1719 0.1562 Q0.1719 0.1406 0.1719 0.1406 Q0.1875 0.1406 0.1875 0.1562 Q0.2344 0.1875 0.2812 0.1875 Q0.3125 0.1875 0.3125 0.1562 Q0.3281 0.1406 0.3281 0.125 Q0.3281 0.1094 0.2969 0.0938 Q0.2969 0.0938 0.2812 0.0938 L0.1719 0.0469 Q0.0938 0.0156 0.0781 0 Q0.0625 -0.0156 0.0469 -0.0312 Q0.0312 -0.0469 0.0312 -0.0469 Q0.0156 -0.0781 0.0156 -0.1094 Q0.0156 -0.1719 0.0781 -0.2344 Q0.1094 -0.2812 0.1562 -0.3125 ZM0.3125 -0.5938 Q0.3281 -0.5781 0.3594 -0.5781 Q0.4062 -0.5781 0.4219 -0.5938 Q0.3906 -0.5938 0.3594 -0.5938 Q0.3281 -0.5938 0.3125 -0.5938 ZM0.2344 -0.3125 Q0.25 -0.3125 0.2812 -0.3125 Q0.3438 -0.3125 0.3594 -0.3125 Q0.3281 -0.3281 0.2969 -0.3281 Q0.2656 -0.3281 0.2344 -0.3125 Z"
    /></g
    ><g transform="matrix(10,0,0,10,0,-13) translate(0.8153,0.8944)" style="font-size:1; text-rendering:geometricPrecision; color-rendering:optimizeQuality; image-rendering:optimizeQuality; font-family:&apos;jlm_cmr10&apos;; color-interpolation:linearRGB;"
    ><path style="stroke:none;" d="M0.6875 -0.3281 L0.0938 -0.3281 Q0.0625 -0.3281 0.0625 -0.3438 Q0.0625 -0.3594 0.0938 -0.3594 L0.6875 -0.3594 Q0.7188 -0.3594 0.7188 -0.3438 Q0.7188 -0.3281 0.6875 -0.3281 ZM0.6875 -0.1406 L0.0938 -0.1406 Q0.0625 -0.1406 0.0625 -0.1562 Q0.0625 -0.1719 0.0938 -0.1719 L0.6875 -0.1719 Q0.7188 -0.1719 0.7188 -0.1562 Q0.7188 -0.1406 0.6875 -0.1406 Z"
    /></g
    ><g transform="matrix(10,0,0,10,0,-13) translate(1.8708,0.8944)" style="font-size:1; text-rendering:geometricPrecision; color-rendering:optimizeQuality; image-rendering:optimizeQuality; font-family:&apos;jlm_cmr10&apos;; color-interpolation:linearRGB;"
    ><path style="stroke:none;" d="M0.4531 -0.3125 Q0.4531 -0.1719 0.4219 -0.0938 Q0.3594 0.0156 0.25 0.0156 Q0.1562 0.0156 0.1094 -0.0469 Q0.0938 -0.0625 0.0781 -0.0781 Q0.0312 -0.1562 0.0312 -0.3125 Q0.0312 -0.4688 0.0781 -0.5469 Q0.125 -0.6562 0.2344 -0.6719 L0.25 -0.6719 Q0.3438 -0.6719 0.3906 -0.5938 L0.3906 -0.5938 Q0.4062 -0.5781 0.4219 -0.5469 Q0.4531 -0.4688 0.4531 -0.3125 ZM0.25 0 L0.25 0 Q0.3125 0 0.3438 -0.0625 Q0.3594 -0.0938 0.3594 -0.125 Q0.375 -0.1875 0.375 -0.3281 Q0.375 -0.4688 0.3594 -0.5312 Q0.3438 -0.625 0.2812 -0.6406 Q0.2656 -0.6406 0.25 -0.6406 Q0.1719 -0.6406 0.1406 -0.5781 Q0.1406 -0.5469 0.125 -0.5156 Q0.125 -0.4688 0.125 -0.3281 Q0.125 -0.1875 0.1406 -0.125 Q0.1562 -0.0312 0.2188 0 Q0.2344 0 0.25 0 Z"
    /></g
    ><g transform="matrix(10,0,0,10,0,-13) translate(2.3708,0.8944)" style="font-size:1; text-rendering:geometricPrecision; color-rendering:optimizeQuality; image-rendering:optimizeQuality; font-family:&apos;jlm_cmmi10&apos;; color-interpolation:linearRGB;"
    ><path style="stroke:none;" d="M0.1875 -0.0469 L0.1875 -0.0469 Q0.1875 -0.0156 0.1562 0 Q0.1562 0 0.1406 0 Q0.1094 0 0.0938 -0.0312 Q0.0938 -0.0469 0.0938 -0.0469 Q0.0938 -0.0938 0.1094 -0.0938 Q0.125 -0.1094 0.1406 -0.1094 Q0.1719 -0.1094 0.1875 -0.0781 Q0.1875 -0.0625 0.1875 -0.0469 Z"
    /></g
    ><g transform="matrix(10,0,0,10,0,-13) translate(2.6486,0.8944)" style="font-size:1; text-rendering:geometricPrecision; color-rendering:optimizeQuality; image-rendering:optimizeQuality; font-family:&apos;jlm_cmr10&apos;; color-interpolation:linearRGB;"
    ><path style="stroke:none;" d="M0.4688 -0.6094 L0.3438 -0.4219 Q0.2969 -0.3594 0.2812 -0.25 Q0.2656 -0.1719 0.2656 -0.0781 L0.2656 -0.0312 Q0.2656 0.0156 0.2188 0.0156 Q0.1719 0.0156 0.1719 -0.0312 Q0.1719 -0.2031 0.2656 -0.375 L0.2969 -0.4062 L0.4062 -0.5625 L0.2031 -0.5625 Q0.1094 -0.5625 0.1094 -0.5625 Q0.0938 -0.5469 0.0781 -0.4688 L0.0625 -0.4688 L0.0938 -0.6719 L0.1094 -0.6719 Q0.125 -0.6562 0.125 -0.6562 L0.1406 -0.6562 L0.1406 -0.6562 Q0.1562 -0.6406 0.2344 -0.6406 L0.4844 -0.6406 Q0.4844 -0.625 0.4688 -0.6094 Z"
    /></g
  ></g
></g>
<g fill="#000000" stroke="black" transform="rotate(0,477,101) translate(477,101)"><!--Generated by the Batik Graphics2D SVG Generator--><defs id="genericDefs"
  /><g
  ><g transform="matrix(1,0,0,1,0,-13) scale(10,10) translate(0.1,0.8944)" style="font-size:1; text-rendering:geometricPrecision; color-rendering:optimizeQuality; image-rendering:optimizeQuality; font-family:&apos;jlm_cmmi10&apos;; color-interpolation:linearRGB;"
    ><path style="stroke:none;" d="M0.1562 -0.3125 L0.1562 -0.3125 L0.1719 -0.3125 Q0.1094 -0.3594 0.1094 -0.4219 Q0.1094 -0.5 0.1719 -0.5625 Q0.2188 -0.5938 0.2812 -0.6094 Q0.2656 -0.6406 0.2656 -0.6406 Q0.2656 -0.7031 0.2812 -0.7031 Q0.2969 -0.7031 0.2969 -0.6875 L0.2969 -0.6406 L0.2969 -0.6406 Q0.2969 -0.625 0.2969 -0.6094 Q0.3281 -0.625 0.3594 -0.625 Q0.4375 -0.625 0.4375 -0.5938 L0.4375 -0.5938 L0.4375 -0.5938 Q0.4531 -0.5938 0.4531 -0.5938 Q0.4531 -0.5625 0.3594 -0.5625 Q0.3125 -0.5625 0.2969 -0.5781 Q0.2969 -0.5781 0.2969 -0.5781 Q0.2188 -0.5469 0.1875 -0.4688 Q0.1875 -0.4375 0.1875 -0.4062 Q0.1875 -0.3594 0.2188 -0.3281 Q0.25 -0.3438 0.2969 -0.3438 Q0.375 -0.3438 0.375 -0.3125 Q0.375 -0.2812 0.2812 -0.2812 Q0.2344 -0.2812 0.2031 -0.2969 Q0.125 -0.2656 0.0938 -0.1875 Q0.0781 -0.1562 0.0781 -0.125 Q0.0781 -0.0781 0.1562 -0.0469 L0.2031 -0.0156 Q0.2344 -0.0156 0.2656 0 Q0.3125 0.0156 0.3281 0.0312 Q0.375 0.0469 0.375 0.0938 Q0.375 0.1406 0.3438 0.1875 Q0.3125 0.2031 0.2969 0.2031 Q0.2812 0.2031 0.2812 0.2031 Q0.2188 0.2031 0.1719 0.1719 Q0.1719 0.1562 0.1719 0.1562 Q0.1719 0.1406 0.1719 0.1406 Q0.1875 0.1406 0.1875 0.1562 Q0.2344 0.1875 0.2812 0.1875 Q0.3125 0.1875 0.3125 0.1562 Q0.3281 0.1406 0.3281 0.125 Q0.3281 0.1094 0.2969 0.0938 Q0.2969 0.0938 0.2812 0.0938 L0.1719 0.0469 Q0.0938 0.0156 0.0781 0 Q0.0625 -0.0156 0.0469 -0.0312 Q0.0312 -0.0469 0.0312 -0.0469 Q0.0156 -0.0781 0.0156 -0.1094 Q0.0156 -0.1719 0.0781 -0.2344 Q0.1094 -0.2812 0.1562 -0.3125 ZM0.3125 -0.5938 Q0.3281 -0.5781 0.3594 -0.5781 Q0.4062 -0.5781 0.4219 -0.5938 Q0.3906 -0.5938 0.3594 -0.5938 Q0.3281 -0.5938 0.3125 -0.5938 ZM0.2344 -0.3125 Q0.25 -0.3125 0.2812 -0.3125 Q0.3438 -0.3125 0.3594 -0.3125 Q0.3281 -0.3281 0.2969 -0.3281 Q0.2656 -0.3281 0.2344 -0.3125 Z"
    /></g
    ><g transform="matrix(10,0,0,10,0,-13) translate(0.8153,0.8944)" style="font-size:1; text-rendering:geometricPrecision; color-rendering:optimizeQuality; image-rendering:optimizeQuality; font-family:&apos;jlm_cmr10&apos;; color-interpolation:linearRGB;"
    ><path style="stroke:none;" d="M0.6875 -0.3281 L0.0938 -0.3281 Q0.0625 -0.3281 0.0625 -0.3438 Q0.0625 -0.3594 0.0938 -0.3594 L0.6875 -0.3594 Q0.7188 -0.3594 0.7188 -0.3438 Q0.7188 -0.3281 0.6875 -0.3281 ZM0.6875 -0.1406 L0.0938 -0.1406 Q0.0625 -0.1406 0.0625 -0.1562 Q0.0625 -0.1719 0.0938 -0.1719 L0.6875 -0.1719 Q0.7188 -0.1719 0.7188 -0.1562 Q0.7188 -0.1406 0.6875 -0.1406 Z"
    /></g
    ><g transform="matrix(10,0,0,10,0,-13) translate(1.8708,0.8944)" style="font-size:1; text-rendering:geometricPrecision; color-rendering:optimizeQuality; image-rendering:optimizeQuality; font-family:&apos;jlm_cmr10&apos;; color-interpolation:linearRGB;"
    ><path style="stroke:none;" d="M0.4531 -0.3125 Q0.4531 -0.1719 0.4219 -0.0938 Q0.3594 0.0156 0.25 0.0156 Q0.1562 0.0156 0.1094 -0.0469 Q0.0938 -0.0625 0.0781 -0.0781 Q0.0312 -0.1562 0.0312 -0.3125 Q0.0312 -0.4688 0.0781 -0.5469 Q0.125 -0.6562 0.2344 -0.6719 L0.25 -0.6719 Q0.3438 -0.6719 0.3906 -0.5938 L0.3906 -0.5938 Q0.4062 -0.5781 0.4219 -0.5469 Q0.4531 -0.4688 0.4531 -0.3125 ZM0.25 0 L0.25 0 Q0.3125 0 0.3438 -0.0625 Q0.3594 -0.0938 0.3594 -0.125 Q0.375 -0.1875 0.375 -0.3281 Q0.375 -0.4688 0.3594 -0.5312 Q0.3438 -0.625 0.2812 -0.6406 Q0.2656 -0.6406 0.25 -0.6406 Q0.1719 -0.6406 0.1406 -0.5781 Q0.1406 -0.5469 0.125 -0.5156 Q0.125 -0.4688 0.125 -0.3281 Q0.125 -0.1875 0.1406 -0.125 Q0.1562 -0.0312 0.2188 0 Q0.2344 0 0.25 0 Z"
    /></g
    ><g transform="matrix(10,0,0,10,0,-13) translate(2.3708,0.8944)" style="font-size:1; text-rendering:geometricPrecision; color-rendering:optimizeQuality; image-rendering:optimizeQuality; font-family:&apos;jlm_cmmi10&apos;; color-interpolation:linearRGB;"
    ><path style="stroke:none;" d="M0.1875 -0.0469 L0.1875 -0.0469 Q0.1875 -0.0156 0.1562 0 Q0.1562 0 0.1406 0 Q0.1094 0 0.0938 -0.0312 Q0.0938 -0.0469 0.0938 -0.0469 Q0.0938 -0.0938 0.1094 -0.0938 Q0.125 -0.1094 0.1406 -0.1094 Q0.1719 -0.1094 0.1875 -0.0781 Q0.1875 -0.0625 0.1875 -0.0469 Z"
    /></g
    ><g transform="matrix(10,0,0,10,0,-13) translate(2.6486,0.8944)" style="font-size:1; text-rendering:geometricPrecision; color-rendering:optimizeQuality; image-rendering:optimizeQuality; font-family:&apos;jlm_cmr10&apos;; color-interpolation:linearRGB;"
    ><path style="stroke:none;" d="M0.4531 -0.2031 L0.4531 -0.2031 Q0.4531 -0.0938 0.375 -0.0312 Q0.3125 0.0156 0.2344 0.0156 Q0.1406 0.0156 0.0781 -0.0625 Q0.0469 -0.1094 0.0469 -0.1562 Q0.0469 -0.2031 0.0938 -0.2188 Q0.0938 -0.2188 0.0938 -0.2188 Q0.1406 -0.2188 0.1406 -0.1875 Q0.1562 -0.1719 0.1562 -0.1719 Q0.1562 -0.1406 0.125 -0.125 Q0.1094 -0.1094 0.0938 -0.1094 Q0.0938 -0.1094 0.0781 -0.125 Q0.0938 -0.0625 0.1562 -0.0312 Q0.1875 0 0.2344 0 Q0.2969 0 0.3438 -0.0781 Q0.3594 -0.1094 0.3594 -0.2031 Q0.3594 -0.2969 0.3438 -0.3281 Q0.3125 -0.3906 0.25 -0.3906 Q0.1719 -0.3906 0.125 -0.3281 Q0.125 -0.3125 0.1094 -0.3125 Q0.1094 -0.3125 0.0938 -0.3281 L0.0938 -0.3438 L0.0938 -0.6406 Q0.0938 -0.6562 0.1094 -0.6719 Q0.1094 -0.6719 0.125 -0.6562 Q0.1875 -0.6406 0.25 -0.6406 Q0.3281 -0.6406 0.3906 -0.6562 Q0.3906 -0.6719 0.4062 -0.6719 Q0.4062 -0.6719 0.4062 -0.6562 Q0.4062 -0.6406 0.375 -0.6094 Q0.3125 -0.5469 0.2188 -0.5469 Q0.1719 -0.5469 0.125 -0.5625 L0.125 -0.375 Q0.1875 -0.4219 0.2656 -0.4219 Q0.3438 -0.4219 0.4062 -0.3438 Q0.4531 -0.2812 0.4531 -0.2031 Z"
    /></g
  ></g
></g>
<g fill="#000000" stroke="black" transform="rotate(0,477,114) translate(477,114)"><!--Generated by the Batik Graphics2D SVG Generator--><defs id="genericDefs"
  /><g
  ><g transform="matrix(1,0,0,1,0,-13) scale(10,10) translate(0.1,0.8944)" style="font-size:1; text-rendering:geometricPrecision; color-rendering:optimizeQuality; image-rendering:optimizeQuality; font-family:&apos;jlm_cmmi10&apos;; color-interpolation:linearRGB;"
    ><path style="stroke:none;" d="M0.1562 -0.3125 L0.1562 -0.3125 L0.1719 -0.3125 Q0.1094 -0.3594 0.1094 -0.4219 Q0.1094 -0.5 0.1719 -0.5625 Q0.2188 -0.5938 0.2812 -0.6094 Q0.2656 -0.6406 0.2656 -0.6406 Q0.2656 -0.7031 0.2812 -0.7031 Q0.2969 -0.7031 0.2969 -0.6875 L0.2969 -0.6406 L0.2969 -0.6406 Q0.2969 -0.625 0.2969 -0.6094 Q0.3281 -0.625 0.3594 -0.625 Q0.4375 -0.625 0.4375 -0.5938 L0.4375 -0.5938 L0.4375 -0.5938 Q0.4531 -0.5938 0.4531 -0.5938 Q0.4531 -0.5625 0.3594 -0.5625 Q0.3125 -0.5625 0.2969 -0.5781 Q0.2969 -0.5781 0.2969 -0.5781 Q0.2188 -0.5469 0.1875 -0.4688 Q0.1875 -0.4375 0.1875 -0.4062 Q0.1875 -0.3594 0.2188 -0.3281 Q0.25 -0.3438 0.2969 -0.3438 Q0.375 -0.3438 0.375 -0.3125 Q0.375 -0.2812 0.2812 -0.2812 Q0.2344 -0.2812 0.2031 -0.2969 Q0.125 -0.2656 0.0938 -0.1875 Q0.0781 -0.1562 0.0781 -0.125 Q0.0781 -0.0781 0.1562 -0.0469 L0.2031 -0.0156 Q0.2344 -0.0156 0.2656 0 Q0.3125 0.0156 0.3281 0.0312 Q0.375 0.0469 0.375 0.0938 Q0.375 0.1406 0.3438 0.1875 Q0.3125 0.2031 0.2969 0.2031 Q0.2812 0.2031 0.2812 0.2031 Q0.2188 0.2031 0.1719 0.1719 Q0.1719 0.1562 0.1719 0.1562 Q0.1719 0.1406 0.1719 0.1406 Q0.1875 0.1406 0.1875 0.1562 Q0.2344 0.1875 0.2812 0.1875 Q0.3125 0.1875 0.3125 0.1562 Q0.3281 0.1406 0.3281 0.125 Q0.3281 0.1094 0.2969 0.0938 Q0.2969 0.0938 0.2812 0.0938 L0.1719 0.0469 Q0.0938 0.0156 0.0781 0 Q0.0625 -0.0156 0.0469 -0.0312 Q0.0312 -0.0469 0.0312 -0.0469 Q0.0156 -0.0781 0.0156 -0.1094 Q0.0156 -0.1719 0.0781 -0.2344 Q0.1094 -0.2812 0.1562 -0.3125 ZM0.3125 -0.5938 Q0.3281 -0.5781 0.3594 -0.5781 Q0.4062 -0.5781 0.4219 -0.5938 Q0.3906 -0.5938 0.3594 -0.5938 Q0.3281 -0.5938 0.3125 -0.5938 ZM0.2344 -0.3125 Q0.25 -0.3125 0.2812 -0.3125 Q0.3438 -0.3125 0.3594 -0.3125 Q0.3281 -0.3281 0.2969 -0.3281 Q0.2656 -0.3281 0.2344 -0.3125 Z"
    /></g
    ><g transform="matrix(10,0,0,10,0,-13) translate(0.8153,0.8944)" style="font-size:1; text-rendering:geometricPrecision; color-rendering:optimizeQuality; image-rendering:optimizeQuality; font-family:&apos;jlm_cmr10&apos;; color-interpolation:linearRGB;"
    ><path style="stroke:none;" d="M0.6875 -0.3281 L0.0938 -0.3281 Q0.0625 -0.3281 0.0625 -0.3438 Q0.0625 -0.3594 0.0938 -0.3594 L0.6875 -0.3594 Q0.7188 -0.3594 0.7188 -0.3438 Q0.7188 -0.3281 0.6875 -0.3281 ZM0.6875 -0.1406 L0.0938 -0.1406 Q0.0625 -0.1406 0.0625 -0.1562 Q0.0625 -0.1719 0.0938 -0.1719 L0.6875 -0.1719 Q0.7188 -0.1719 0.7188 -0.1562 Q0.7188 -0.1406 0.6875 -0.1406 Z"
    /></g
    ><g transform="matrix(10,0,0,10,0,-13) translate(1.8708,0.8944)" style="font-size:1; text-rendering:geometricPrecision; color-rendering:optimizeQuality; image-rendering:optimizeQuality; font-family:&apos;jlm_cmr10&apos;; color-interpolation:linearRGB;"
    ><path style="stroke:none;" d="M0.4531 -0.3125 Q0.4531 -0.1719 0.4219 -0.0938 Q0.3594 0.0156 0.25 0.0156 Q0.1562 0.0156 0.1094 -0.0469 Q0.0938 -0.0625 0.0781 -0.0781 Q0.0312 -0.1562 0.0312 -0.3125 Q0.0312 -0.4688 0.0781 -0.5469 Q0.125 -0.6562 0.2344 -0.6719 L0.25 -0.6719 Q0.3438 -0.6719 0.3906 -0.5938 L0.3906 -0.5938 Q0.4062 -0.5781 0.4219 -0.5469 Q0.4531 -0.4688 0.4531 -0.3125 ZM0.25 0 L0.25 0 Q0.3125 0 0.3438 -0.0625 Q0.3594 -0.0938 0.3594 -0.125 Q0.375 -0.1875 0.375 -0.3281 Q0.375 -0.4688 0.3594 -0.5312 Q0.3438 -0.625 0.2812 -0.6406 Q0.2656 -0.6406 0.25 -0.6406 Q0.1719 -0.6406 0.1406 -0.5781 Q0.1406 -0.5469 0.125 -0.5156 Q0.125 -0.4688 0.125 -0.3281 Q0.125 -0.1875 0.1406 -0.125 Q0.1562 -0.0312 0.2188 0 Q0.2344 0 0.25 0 Z"
    /></g
    ><g transform="matrix(10,0,0,10,0,-13) translate(2.3708,0.8944)" style="font-size:1; text-rendering:geometricPrecision; color-rendering:optimizeQuality; image-rendering:optimizeQuality; font-family:&apos;jlm_cmmi10&apos;; color-interpolation:linearRGB;"
    ><path style="stroke:none;" d="M0.1875 -0.0469 L0.1875 -0.0469 Q0.1875 -0.0156 0.1562 0 Q0.1562 0 0.1406 0 Q0.1094 0 0.0938 -0.0312 Q0.0938 -0.0469 0.0938 -0.0469 Q0.0938 -0.0938 0.1094 -0.0938 Q0.125 -0.1094 0.1406 -0.1094 Q0.1719 -0.1094 0.1875 -0.0781 Q0.1875 -0.0625 0.1875 -0.0469 Z"
    /></g
    ><g transform="matrix(10,0,0,10,0,-13) translate(2.6486,0.8944)" style="font-size:1; text-rendering:geometricPrecision; color-rendering:optimizeQuality; image-rendering:optimizeQuality; font-family:&apos;jlm_cmr10&apos;; color-interpolation:linearRGB;"
    ><path style="stroke:none;" d="M0.2969 -0.3594 L0.2969 -0.3594 Q0.3906 -0.3281 0.4375 -0.25 Q0.4531 -0.2188 0.4531 -0.1719 Q0.4531 -0.0938 0.3906 -0.0312 Q0.3281 0.0156 0.25 0.0156 Q0.1406 0.0156 0.0781 -0.0312 Q0.0469 -0.0781 0.0469 -0.1406 Q0.0469 -0.1875 0.0781 -0.1875 Q0.0938 -0.1875 0.0938 -0.1875 Q0.1406 -0.1875 0.1562 -0.1562 Q0.1562 -0.1406 0.1562 -0.1406 Q0.1562 -0.0938 0.125 -0.0781 Q0.1094 -0.0781 0.0938 -0.0781 Q0.125 -0.0156 0.2188 -0.0156 Q0.2344 0 0.2344 0 Q0.3125 0 0.3281 -0.0625 Q0.3594 -0.1094 0.3594 -0.1719 Q0.3594 -0.2969 0.2812 -0.3281 Q0.25 -0.3438 0.2344 -0.3438 L0.1875 -0.3438 Q0.1719 -0.3438 0.1719 -0.3438 Q0.1719 -0.3594 0.1875 -0.3594 Q0.2031 -0.3594 0.2188 -0.3594 Q0.2656 -0.3594 0.2969 -0.4062 L0.2969 -0.4062 L0.2969 -0.4062 L0.2969 -0.4062 L0.2969 -0.4062 L0.3125 -0.4219 Q0.3438 -0.4688 0.3438 -0.5312 Q0.3438 -0.625 0.2656 -0.6406 Q0.25 -0.6406 0.2344 -0.6406 Q0.1719 -0.6406 0.125 -0.5938 Q0.1094 -0.5938 0.1094 -0.5781 Q0.1719 -0.5781 0.1719 -0.5312 Q0.1719 -0.5 0.1406 -0.4844 Q0.125 -0.4844 0.125 -0.4844 Q0.0781 -0.4844 0.0781 -0.5156 L0.0781 -0.5156 L0.0781 -0.5156 Q0.0625 -0.5156 0.0625 -0.5312 Q0.0625 -0.5938 0.1406 -0.6406 Q0.1875 -0.6719 0.25 -0.6719 Q0.3438 -0.6719 0.3906 -0.6094 L0.3906 -0.6094 Q0.4375 -0.5781 0.4375 -0.5312 Q0.4375 -0.4375 0.3594 -0.3906 Q0.3281 -0.3594 0.2969 -0.3594 Z"
    /></g
  ></g
></g>
<g fill="#000000" stroke="black" transform="rotate(0,477,128) translate(477,128)"><!--Generated by the Batik Graphics2D SVG Generator--><defs id="genericDefs"
  /><g
  ><g transform="matrix(1,0,0,1,0,-13) scale(10,10) translate(0.1,0.8944)" style="font-size:1; text-rendering:geometricPrecision; color-rendering:optimizeQuality; image-rendering:optimizeQuality; font-family:&apos;jlm_cmmi10&apos;; color-interpolation:linearRGB;"
    ><path style="stroke:none;" d="M0.1562 -0.3125 L0.1562 -0.3125 L0.1719 -0.3125 Q0.1094 -0.3594 0.1094 -0.4219 Q0.1094 -0.5 0.1719 -0.5625 Q0.2188 -0.5938 0.2812 -0.6094 Q0.2656 -0.6406 0.2656 -0.6406 Q0.2656 -0.7031 0.2812 -0.7031 Q0.2969 -0.7031 0.2969 -0.6875 L0.2969 -0.6406 L0.2969 -0.6406 Q0.2969 -0.625 0.2969 -0.6094 Q0.3281 -0.625 0.3594 -0.625 Q0.4375 -0.625 0.4375 -0.5938 L0.4375 -0.5938 L0.4375 -0.5938 Q0.4531 -0.5938 0.4531 -0.5938 Q0.4531 -0.5625 0.3594 -0.5625 Q0.3125 -0.5625 0.2969 -0.5781 Q0.2969 -0.5781 0.2969 -0.5781 Q0.2188 -0.5469 0.1875 -0.4688 Q0.1875 -0.4375 0.1875 -0.4062 Q0.1875 -0.3594 0.2188 -0.3281 Q0.25 -0.3438 0.2969 -0.3438 Q0.375 -0.3438 0.375 -0.3125 Q0.375 -0.2812 0.2812 -0.2812 Q0.2344 -0.2812 0.2031 -0.2969 Q0.125 -0.2656 0.0938 -0.1875 Q0.0781 -0.1562 0.0781 -0.125 Q0.0781 -0.0781 0.1562 -0.0469 L0.2031 -0.0156 Q0.2344 -0.0156 0.2656 0 Q0.3125 0.0156 0.3281 0.0312 Q0.375 0.0469 0.375 0.0938 Q0.375 0.1406 0.3438 0.1875 Q0.3125 0.2031 0.2969 0.2031 Q0.2812 0.2031 0.2812 0.2031 Q0.2188 0.2031 0.1719 0.1719 Q0.1719 0.1562 0.1719 0.1562 Q0.1719 0.1406 0.1719 0.1406 Q0.1875 0.1406 0.1875 0.1562 Q0.2344 0.1875 0.2812 0.1875 Q0.3125 0.1875 0.3125 0.1562 Q0.3281 0.1406 0.3281 0.125 Q0.3281 0.1094 0.2969 0.0938 Q0.2969 0.0938 0.2812 0.0938 L0.1719 0.0469 Q0.0938 0.0156 0.0781 0 Q0.0625 -0.0156 0.0469 -0.0312 Q0.0312 -0.0469 0.0312 -0.0469 Q0.0156 -0.0781 0.0156 -0.1094 Q0.0156 -0.1719 0.0781 -0.2344 Q0.1094 -0.2812 0.1562 -0.3125 ZM0.3125 -0.5938 Q0.3281 -0.5781 0.3594 -0.5781 Q0.4062 -0.5781 0.4219 -0.5938 Q0.3906 -0.5938 0.3594 -0.5938 Q0.3281 -0.5938 0.3125 -0.5938 ZM0.2344 -0.3125 Q0.25 -0.3125 0.2812 -0.3125 Q0.3438 -0.3125 0.3594 -0.3125 Q0.3281 -0.3281 0.2969 -0.3281 Q0.2656 -0.3281 0.2344 -0.3125 Z"
    /></g
    ><g transform="matrix(10,0,0,10,0,-13) translate(0.8153,0.8944)" style="font-size:1; text-rendering:geometricPrecision; color-rendering:optimizeQuality; image-rendering:optimizeQuality; font-family:&apos;jlm_cmr10&apos;; color-interpolation:linearRGB;"
    ><path style="stroke:none;" d="M0.6875 -0.3281 L0.0938 -0.3281 Q0.0625 -0.3281 0.0625 -0.3438 Q0.0625 -0.3594 0.0938 -0.3594 L0.6875 -0.3594 Q0.7188 -0.3594 0.7188 -0.3438 Q0.7188 -0.3281 0.6875 -0.3281 ZM0.6875 -0.1406 L0.0938 -0.1406 Q0.0625 -0.1406 0.0625 -0.1562 Q0.0625 -0.1719 0.0938 -0.1719 L0.6875 -0.1719 Q0.7188 -0.1719 0.7188 -0.1562 Q0.7188 -0.1406 0.6875 -0.1406 Z"
    /></g
    ><g transform="matrix(10,0,0,10,0,-13) translate(1.8708,0.8944)" style="font-size:1; text-rendering:geometricPrecision; color-rendering:optimizeQuality; image-rendering:optimizeQuality; font-family:&apos;jlm_cmr10&apos;; color-interpolation:linearRGB;"
    ><path style="stroke:none;" d="M0.4531 -0.3125 Q0.4531 -0.1719 0.4219 -0.0938 Q0.3594 0.0156 0.25 0.0156 Q0.1562 0.0156 0.1094 -0.0469 Q0.0938 -0.0625 0.0781 -0.0781 Q0.0312 -0.1562 0.0312 -0.3125 Q0.0312 -0.4688 0.0781 -0.5469 Q0.125 -0.6562 0.2344 -0.6719 L0.25 -0.6719 Q0.3438 -0.6719 0.3906 -0.5938 L0.3906 -0.5938 Q0.4062 -0.5781 0.4219 -0.5469 Q0.4531 -0.4688 0.4531 -0.3125 ZM0.25 0 L0.25 0 Q0.3125 0 0.3438 -0.0625 Q0.3594 -0.0938 0.3594 -0.125 Q0.375 -0.1875 0.375 -0.3281 Q0.375 -0.4688 0.3594 -0.5312 Q0.3438 -0.625 0.2812 -0.6406 Q0.2656 -0.6406 0.25 -0.6406 Q0.1719 -0.6406 0.1406 -0.5781 Q0.1406 -0.5469 0.125 -0.5156 Q0.125 -0.4688 0.125 -0.3281 Q0.125 -0.1875 0.1406 -0.125 Q0.1562 -0.0312 0.2188 0 Q0.2344 0 0.25 0 Z"
    /></g
    ><g transform="matrix(10,0,0,10,0,-13) translate(2.3708,0.8944)" style="font-size:1; text-rendering:geometricPrecision; color-rendering:optimizeQuality; image-rendering:optimizeQuality; font-family:&apos;jlm_cmmi10&apos;; color-interpolation:linearRGB;"
    ><path style="stroke:none;" d="M0.1875 -0.0469 L0.1875 -0.0469 Q0.1875 -0.0156 0.1562 0 Q0.1562 0 0.1406 0 Q0.1094 0 0.0938 -0.0312 Q0.0938 -0.0469 0.0938 -0.0469 Q0.0938 -0.0938 0.1094 -0.0938 Q0.125 -0.1094 0.1406 -0.1094 Q0.1719 -0.1094 0.1875 -0.0781 Q0.1875 -0.0625 0.1875 -0.0469 Z"
    /></g
    ><g transform="matrix(10,0,0,10,0,-13) translate(2.6486,0.8944)" style="font-size:1; text-rendering:geometricPrecision; color-rendering:optimizeQuality; image-rendering:optimizeQuality; font-family:&apos;jlm_cmr10&apos;; color-interpolation:linearRGB;"
    ><path style="stroke:none;" d="M0.2969 -0.6406 L0.2969 -0.0781 Q0.2969 -0.0469 0.3125 -0.0469 Q0.3281 -0.0312 0.3906 -0.0312 L0.4219 -0.0312 L0.4219 0 Q0.3906 0 0.25 0 Q0.125 0 0.0938 0 L0.0938 -0.0312 L0.125 -0.0312 Q0.2031 -0.0312 0.2188 -0.0469 L0.2188 -0.0469 Q0.2188 -0.0625 0.2188 -0.0781 L0.2188 -0.5938 Q0.1719 -0.5781 0.0938 -0.5781 L0.0938 -0.6094 Q0.2031 -0.6094 0.2656 -0.6719 Q0.2969 -0.6719 0.2969 -0.6562 L0.2969 -0.6562 L0.2969 -0.6562 Q0.2969 -0.6562 0.2969 -0.6406 Z"
    /></g
    ><g transform="matrix(10,0,0,10,0,-13) translate(3.1486,0.8944)" style="font-size:1; text-rendering:geometricPrecision; color-rendering:optimizeQuality; image-rendering:optimizeQuality; font-family:&apos;jlm_cmr10&apos;; color-interpolation:linearRGB;"
    ><path style="stroke:none;" d="M0.2969 -0.3594 L0.2969 -0.3594 Q0.3906 -0.3281 0.4375 -0.25 Q0.4531 -0.2188 0.4531 -0.1719 Q0.4531 -0.0938 0.3906 -0.0312 Q0.3281 0.0156 0.25 0.0156 Q0.1406 0.0156 0.0781 -0.0312 Q0.0469 -0.0781 0.0469 -0.1406 Q0.0469 -0.1875 0.0781 -0.1875 Q0.0938 -0.1875 0.0938 -0.1875 Q0.1406 -0.1875 0.1562 -0.1562 Q0.1562 -0.1406 0.1562 -0.1406 Q0.1562 -0.0938 0.125 -0.0781 Q0.1094 -0.0781 0.0938 -0.0781 Q0.125 -0.0156 0.2188 -0.0156 Q0.2344 0 0.2344 0 Q0.3125 0 0.3281 -0.0625 Q0.3594 -0.1094 0.3594 -0.1719 Q0.3594 -0.2969 0.2812 -0.3281 Q0.25 -0.3438 0.2344 -0.3438 L0.1875 -0.3438 Q0.1719 -0.3438 0.1719 -0.3438 Q0.1719 -0.3594 0.1875 -0.3594 Q0.2031 -0.3594 0.2188 -0.3594 Q0.2656 -0.3594 0.2969 -0.4062 L0.2969 -0.4062 L0.2969 -0.4062 L0.2969 -0.4062 L0.2969 -0.4062 L0.3125 -0.4219 Q0.3438 -0.4688 0.3438 -0.5312 Q0.3438 -0.625 0.2656 -0.6406 Q0.25 -0.6406 0.2344 -0.6406 Q0.1719 -0.6406 0.125 -0.5938 Q0.1094 -0.5938 0.1094 -0.5781 Q0.1719 -0.5781 0.1719 -0.5312 Q0.1719 -0.5 0.1406 -0.4844 Q0.125 -0.4844 0.125 -0.4844 Q0.0781 -0.4844 0.0781 -0.5156 L0.0781 -0.5156 L0.0781 -0.5156 Q0.0625 -0.5156 0.0625 -0.5312 Q0.0625 -0.5938 0.1406 -0.6406 Q0.1875 -0.6719 0.25 -0.6719 Q0.3438 -0.6719 0.3906 -0.6094 L0.3906 -0.6094 Q0.4375 -0.5781 0.4375 -0.5312 Q0.4375 -0.4375 0.3594 -0.3906 Q0.3281 -0.3594 0.2969 -0.3594 Z"
    /></g
  ></g
></g>
<g fill="#000000" stroke="black" transform="rotate(0,477,141) translate(477,141)"><!--Generated by the Batik Graphics2D SVG Generator--><defs id="genericDefs"
  /><g
  ><g transform="matrix(1,0,0,1,0,-13) scale(10,10) translate(0.1,0.8944)" style="font-size:1; text-rendering:geometricPrecision; color-rendering:optimizeQuality; image-rendering:optimizeQuality; font-family:&apos;jlm_cmmi10&apos;; color-interpolation:linearRGB;"
    ><path style="stroke:none;" d="M0.1562 -0.3125 L0.1562 -0.3125 L0.1719 -0.3125 Q0.1094 -0.3594 0.1094 -0.4219 Q0.1094 -0.5 0.1719 -0.5625 Q0.2188 -0.5938 0.2812 -0.6094 Q0.2656 -0.6406 0.2656 -0.6406 Q0.2656 -0.7031 0.2812 -0.7031 Q0.2969 -0.7031 0.2969 -0.6875 L0.2969 -0.6406 L0.2969 -0.6406 Q0.2969 -0.625 0.2969 -0.6094 Q0.3281 -0.625 0.3594 -0.625 Q0.4375 -0.625 0.4375 -0.5938 L0.4375 -0.5938 L0.4375 -0.5938 Q0.4531 -0.5938 0.4531 -0.5938 Q0.4531 -0.5625 0.3594 -0.5625 Q0.3125 -0.5625 0.2969 -0.5781 Q0.2969 -0.5781 0.2969 -0.5781 Q0.2188 -0.5469 0.1875 -0.4688 Q0.1875 -0.4375 0.1875 -0.4062 Q0.1875 -0.3594 0.2188 -0.3281 Q0.25 -0.3438 0.2969 -0.3438 Q0.375 -0.3438 0.375 -0.3125 Q0.375 -0.2812 0.2812 -0.2812 Q0.2344 -0.2812 0.2031 -0.2969 Q0.125 -0.2656 0.0938 -0.1875 Q0.0781 -0.1562 0.0781 -0.125 Q0.0781 -0.0781 0.1562 -0.0469 L0.2031 -0.0156 Q0.2344 -0.0156 0.2656 0 Q0.3125 0.0156 0.3281 0.0312 Q0.375 0.0469 0.375 0.0938 Q0.375 0.1406 0.3438 0.1875 Q0.3125 0.2031 0.2969 0.2031 Q0.2812 0.2031 0.2812 0.2031 Q0.2188 0.2031 0.1719 0.1719 Q0.1719 0.1562 0.1719 0.1562 Q0.1719 0.1406 0.1719 0.1406 Q0.1875 0.1406 0.1875 0.1562 Q0.2344 0.1875 0.2812 0.1875 Q0.3125 0.1875 0.3125 0.1562 Q0.3281 0.1406 0.3281 0.125 Q0.3281 0.1094 0.2969 0.0938 Q0.2969 0.0938 0.2812 0.0938 L0.1719 0.0469 Q0.0938 0.0156 0.0781 0 Q0.0625 -0.0156 0.0469 -0.0312 Q0.0312 -0.0469 0.0312 -0.0469 Q0.0156 -0.0781 0.0156 -0.1094 Q0.0156 -0.1719 0.0781 -0.2344 Q0.1094 -0.2812 0.1562 -0.3125 ZM0.3125 -0.5938 Q0.3281 -0.5781 0.3594 -0.5781 Q0.4062 -0.5781 0.4219 -0.5938 Q0.3906 -0.5938 0.3594 -0.5938 Q0.3281 -0.5938 0.3125 -0.5938 ZM0.2344 -0.3125 Q0.25 -0.3125 0.2812 -0.3125 Q0.3438 -0.3125 0.3594 -0.3125 Q0.3281 -0.3281 0.2969 -0.3281 Q0.2656 -0.3281 0.2344 -0.3125 Z"
    /></g
    ><g transform="matrix(10,0,0,10,0,-13) translate(0.8153,0.8944)" style="font-size:1; text-rendering:geometricPrecision; color-rendering:optimizeQuality; image-rendering:optimizeQuality; font-family:&apos;jlm_cmr10&apos;; color-interpolation:linearRGB;"
    ><path style="stroke:none;" d="M0.6875 -0.3281 L0.0938 -0.3281 Q0.0625 -0.3281 0.0625 -0.3438 Q0.0625 -0.3594 0.0938 -0.3594 L0.6875 -0.3594 Q0.7188 -0.3594 0.7188 -0.3438 Q0.7188 -0.3281 0.6875 -0.3281 ZM0.6875 -0.1406 L0.0938 -0.1406 Q0.0625 -0.1406 0.0625 -0.1562 Q0.0625 -0.1719 0.0938 -0.1719 L0.6875 -0.1719 Q0.7188 -0.1719 0.7188 -0.1562 Q0.7188 -0.1406 0.6875 -0.1406 Z"
    /></g
    ><g transform="matrix(10,0,0,10,0,-13) translate(1.8708,0.8944)" style="font-size:1; text-rendering:geometricPrecision; color-rendering:optimizeQuality; image-rendering:optimizeQuality; font-family:&apos;jlm_cmr10&apos;; color-interpolation:linearRGB;"
    ><path style="stroke:none;" d="M0.4531 -0.3125 Q0.4531 -0.1719 0.4219 -0.0938 Q0.3594 0.0156 0.25 0.0156 Q0.1562 0.0156 0.1094 -0.0469 Q0.0938 -0.0625 0.0781 -0.0781 Q0.0312 -0.1562 0.0312 -0.3125 Q0.0312 -0.4688 0.0781 -0.5469 Q0.125 -0.6562 0.2344 -0.6719 L0.25 -0.6719 Q0.3438 -0.6719 0.3906 -0.5938 L0.3906 -0.5938 Q0.4062 -0.5781 0.4219 -0.5469 Q0.4531 -0.4688 0.4531 -0.3125 ZM0.25 0 L0.25 0 Q0.3125 0 0.3438 -0.0625 Q0.3594 -0.0938 0.3594 -0.125 Q0.375 -0.1875 0.375 -0.3281 Q0.375 -0.4688 0.3594 -0.5312 Q0.3438 -0.625 0.2812 -0.6406 Q0.2656 -0.6406 0.25 -0.6406 Q0.1719 -0.6406 0.1406 -0.5781 Q0.1406 -0.5469 0.125 -0.5156 Q0.125 -0.4688 0.125 -0.3281 Q0.125 -0.1875 0.1406 -0.125 Q0.1562 -0.0312 0.2188 0 Q0.2344 0 0.25 0 Z"
    /></g
    ><g transform="matrix(10,0,0,10,0,-13) translate(2.3708,0.8944)" style="font-size:1; text-rendering:geometricPrecision; color-rendering:optimizeQuality; image-rendering:optimizeQuality; font-family:&apos;jlm_cmmi10&apos;; color-interpolation:linearRGB;"
    ><path style="stroke:none;" d="M0.1875 -0.0469 L0.1875 -0.0469 Q0.1875 -0.0156 0.1562 0 Q0.1562 0 0.1406 0 Q0.1094 0 0.0938 -0.0312 Q0.0938 -0.0469 0.0938 -0.0469 Q0.0938 -0.0938 0.1094 -0.0938 Q0.125 -0.1094 0.1406 -0.1094 Q0.1719 -0.1094 0.1875 -0.0781 Q0.1875 -0.0625 0.1875 -0.0469 Z"
    /></g
    ><g transform="matrix(10,0,0,10,0,-13) translate(2.6486,0.8944)" style="font-size:1; text-rendering:geometricPrecision; color-rendering:optimizeQuality; image-rendering:optimizeQuality; font-family:&apos;jlm_cmr10&apos;; color-interpolation:linearRGB;"
    ><path style="stroke:none;" d="M0.4531 -0.3125 Q0.4531 -0.1719 0.4219 -0.0938 Q0.3594 0.0156 0.25 0.0156 Q0.1562 0.0156 0.1094 -0.0469 Q0.0938 -0.0625 0.0781 -0.0781 Q0.0312 -0.1562 0.0312 -0.3125 Q0.0312 -0.4688 0.0781 -0.5469 Q0.125 -0.6562 0.2344 -0.6719 L0.25 -0.6719 Q0.3438 -0.6719 0.3906 -0.5938 L0.3906 -0.5938 Q0.4062 -0.5781 0.4219 -0.5469 Q0.4531 -0.4688 0.4531 -0.3125 ZM0.25 0 L0.25 0 Q0.3125 0 0.3438 -0.0625 Q0.3594 -0.0938 0.3594 -0.125 Q0.375 -0.1875 0.375 -0.3281 Q0.375 -0.4688 0.3594 -0.5312 Q0.3438 -0.625 0.2812 -0.6406 Q0.2656 -0.6406 0.25 -0.6406 Q0.1719 -0.6406 0.1406 -0.5781 Q0.1406 -0.5469 0.125 -0.5156 Q0.125 -0.4688 0.125 -0.3281 Q0.125 -0.1875 0.1406 -0.125 Q0.1562 -0.0312 0.2188 0 Q0.2344 0 0.25 0 Z"
    /></g
    ><g transform="matrix(10,0,0,10,0,-13) translate(3.1486,0.8944)" style="font-size:1; text-rendering:geometricPrecision; color-rendering:optimizeQuality; image-rendering:optimizeQuality; font-family:&apos;jlm_cmr10&apos;; color-interpolation:linearRGB;"
    ><path style="stroke:none;" d="M0.4531 -0.3125 Q0.4531 -0.1719 0.4219 -0.0938 Q0.3594 0.0156 0.25 0.0156 Q0.1562 0.0156 0.1094 -0.0469 Q0.0938 -0.0625 0.0781 -0.0781 Q0.0312 -0.1562 0.0312 -0.3125 Q0.0312 -0.4688 0.0781 -0.5469 Q0.125 -0.6562 0.2344 -0.6719 L0.25 -0.6719 Q0.3438 -0.6719 0.3906 -0.5938 L0.3906 -0.5938 Q0.4062 -0.5781 0.4219 -0.5469 Q0.4531 -0.4688 0.4531 -0.3125 ZM0.25 0 L0.25 0 Q0.3125 0 0.3438 -0.0625 Q0.3594 -0.0938 0.3594 -0.125 Q0.375 -0.1875 0.375 -0.3281 Q0.375 -0.4688 0.3594 -0.5312 Q0.3438 -0.625 0.2812 -0.6406 Q0.2656 -0.6406 0.25 -0.6406 Q0.1719 -0.6406 0.1406 -0.5781 Q0.1406 -0.5469 0.125 -0.5156 Q0.125 -0.4688 0.125 -0.3281 Q0.125 -0.1875 0.1406 -0.125 Q0.1562 -0.0312 0.2188 0 Q0.2344 0 0.25 0 Z"
    /></g
    ><g transform="matrix(10,0,0,10,0,-13) translate(3.6486,0.8944)" style="font-size:1; text-rendering:geometricPrecision; color-rendering:optimizeQuality; image-rendering:optimizeQuality; font-family:&apos;jlm_cmr10&apos;; color-interpolation:linearRGB;"
    ><path style="stroke:none;" d="M0.4531 -0.3125 Q0.4531 -0.1719 0.4219 -0.0938 Q0.3594 0.0156 0.25 0.0156 Q0.1562 0.0156 0.1094 -0.0469 Q0.0938 -0.0625 0.0781 -0.0781 Q0.0312 -0.1562 0.0312 -0.3125 Q0.0312 -0.4688 0.0781 -0.5469 Q0.125 -0.6562 0.2344 -0.6719 L0.25 -0.6719 Q0.3438 -0.6719 0.3906 -0.5938 L0.3906 -0.5938 Q0.4062 -0.5781 0.4219 -0.5469 Q0.4531 -0.4688 0.4531 -0.3125 ZM0.25 0 L0.25 0 Q0.3125 0 0.3438 -0.0625 Q0.3594 -0.0938 0.3594 -0.125 Q0.375 -0.1875 0.375 -0.3281 Q0.375 -0.4688 0.3594 -0.5312 Q0.3438 -0.625 0.2812 -0.6406 Q0.2656 -0.6406 0.25 -0.6406 Q0.1719 -0.6406 0.1406 -0.5781 Q0.1406 -0.5469 0.125 -0.5156 Q0.125 -0.4688 0.125 -0.3281 Q0.125 -0.1875 0.1406 -0.125 Q0.1562 -0.0312 0.2188 0 Q0.2344 0 0.25 0 Z"
    /></g
    ><g transform="matrix(10,0,0,10,0,-13) translate(4.1486,0.8944)" style="font-size:1; text-rendering:geometricPrecision; color-rendering:optimizeQuality; image-rendering:optimizeQuality; font-family:&apos;jlm_cmr10&apos;; color-interpolation:linearRGB;"
    ><path style="stroke:none;" d="M0.2969 -0.6406 L0.2969 -0.0781 Q0.2969 -0.0469 0.3125 -0.0469 Q0.3281 -0.0312 0.3906 -0.0312 L0.4219 -0.0312 L0.4219 0 Q0.3906 0 0.25 0 Q0.125 0 0.0938 0 L0.0938 -0.0312 L0.125 -0.0312 Q0.2031 -0.0312 0.2188 -0.0469 L0.2188 -0.0469 Q0.2188 -0.0625 0.2188 -0.0781 L0.2188 -0.5938 Q0.1719 -0.5781 0.0938 -0.5781 L0.0938 -0.6094 Q0.2031 -0.6094 0.2656 -0.6719 Q0.2969 -0.6719 0.2969 -0.6562 L0.2969 -0.6562 L0.2969 -0.6562 Q0.2969 -0.6562 0.2969 -0.6406 Z"
    /></g
  ></g
></g>
<polyline fill="none" stroke="#ff00ff" stroke-width="0.5" points="421.288,136.46 444.237,136.46 467.188,136.46"/>
<polyline fill="none" stroke="#ff0000" stroke-width="0.5" points="421.288,123.26 444.237,123.26 467.188,123.26"/>
<polyline fill="none" stroke="#00ffff" stroke-width="0.5" points="421.288,110.06 444.237,110.06 467.188,110.06"/>
<polyline fill="none" stroke="#00ff00" stroke-width="0.5" points="421.288,96.8599 444.237,96.8599 467.188,96.8599"/>
<polyline fill="none" stroke="#0000ff" stroke-width="0.5" points="421.288,83.6602 444.237,83.6602 467.188,83.6602"/>
<polyline fill="none" stroke="#000000" stroke-width="0.5" points="421.288,70.46 444.237,70.46 467.188,70.46"/>
<polyline fill="none" stroke="#ff0000" stroke-width="0.5" points="352.318,400.75 352.318,57.25"/>
<polyline fill="none" stroke="#000000" stroke-width="0.5" points="76.5,400.75 76.5,57.25"/>
<polyline fill="none" stroke="#000000" stroke-width="0.5" points="76.5,400.75 69.6147,400.75"/>
<polyline fill="none" stroke="#000000" stroke-width="0.5" points="76.5,351.679 69.6147,351.679"/>
<polyline fill="none" stroke="#000000" stroke-width="0.5" points="76.5,302.607 69.6147,302.607"/>
<polyline fill="none" stroke="#000000" stroke-width="0.5" points="76.5,253.536 69.6147,253.536"/>
<polyline fill="none" stroke="#000000" stroke-width="0.5" points="76.5,204.464 69.6147,204.464"/>
<polyline fill="none" stroke="#000000" stroke-width="0.5" points="76.5,155.393 69.6147,155.393"/>
<polyline fill="none" stroke="#000000" stroke-width="0.5" points="76.5,106.321 69.6147,106.321"/>
<polyline fill="none" stroke="#000000" stroke-width="0.5" points="76.5,57.25 69.6147,57.25"/>
<polyline fill="none" stroke="#000000" stroke-width="0.5" points="76.5,376.214 72.3691,376.214"/>
<polyline fill="none" stroke="#000000" stroke-width="0.5" points="76.5,327.143 72.3691,327.143"/>
<polyline fill="none" stroke="#000000" stroke-width="0.5" points="76.5,278.071 72.3691,278.071"/>
<polyline fill="none" stroke="#000000" stroke-width="0.5" points="76.5,229 72.3691,229"/>
<polyline fill="none" stroke="#000000" stroke-width="0.5" points="76.5,179.929 72.3691,179.929"/>
<polyline fill="none" stroke="#000000" stroke-width="0.5" points="76.5,130.857 72.3691,130.857"/>
<polyline fill="none" stroke="#000000" stroke-width="0.5" points="76.5,81.7856 72.3691,81.7856"/>
<text fill="#000000" style="stroke:none" x="60" y="406" transform="rotate(-0, 60, 406)" font-size="10" font-family="SansSerif" font-style="normal" font-weight="normal">0</text>
<text fill="#000000" style="stroke:none" x="55" y="357" transform="rotate(-0, 55, 357)" font-size="10" font-family="SansSerif" font-style="normal" font-weight="normal">10</text>
<text fill="#000000" style="stroke:none" x="55" y="308" transform="rotate(-0, 55, 308)" font-size="10" font-family="SansSerif" font-style="normal" font-weight="normal">20</text>
<text fill="#000000" style="stroke:none" x="55" y="259" transform="rotate(-0, 55, 259)" font-size="10" font-family="SansSerif" font-style="normal" font-weight="normal">30</text>
<text fill="#000000" style="stroke:none" x="54" y="209" transform="rotate(-0, 54, 209)" font-size="10" font-family="SansSerif" font-style="normal" font-weight="normal">40</text>
<text fill="#000000" style="stroke:none" x="55" y="160" transform="rotate(-0, 55, 160)" font-size="10" font-family="SansSerif" font-style="normal" font-weight="normal">50</text>
<text fill="#000000" style="stroke:none" x="55" y="111" transform="rotate(-0, 55, 111)" font-size="10" font-family="SansSerif" font-style="normal" font-weight="normal">60</text>
<text fill="#000000" style="stroke:none" x="55" y="62" transform="rotate(-0, 55, 62)" font-size="10" font-family="SansSerif" font-style="normal" font-weight="normal">70</text>
<polyline fill="none" stroke="#d3d3d3" stroke-width="0.5" stroke-dasharray="4,4,4,4" points="76.5,400.75 535.5,400.75 535.5,400.75"/>
<polyline fill="none" stroke="#d3d3d3" stroke-width="0.5" stroke-dasharray="4,4,4,4" points="76.5,351.679 535.5,351.679 535.5,351.679"/>
<polyline fill="none" stroke="#d3d3d3" stroke-width="0.5" stroke-dasharray="4,4,4,4" points="76.5,302.607 535.5,302.607 535.5,302.607"/>
<polyline fill="none" stroke="#d3d3d3" stroke-width="0.5" stroke-dasharray="4,4,4,4" points="76.5,253.536 535.5,253.536 535.5,253.536"/>
<polyline fill="none" stroke="#d3d3d3" stroke-width="0.5" stroke-dasharray="4,4,4,4" points="76.5,204.464 535.5,204.464 535.5,204.464"/>
<polyline fill="none" stroke="#d3d3d3" stroke-width="0.5" stroke-dasharray="4,4,4,4" points="76.5,155.393 535.5,155.393 535.5,155.393"/>
<polyline fill="none" stroke="#d3d3d3" stroke-width="0.5" stroke-dasharray="4,4,4,4" points="76.5,106.321 535.5,106.321 535.5,106.321"/>
<polyline fill="none" stroke="#d3d3d3" stroke-width="0.5" stroke-dasharray="4,4,4,4" points="76.5,57.25 535.5,57.25 535.5,57.25"/>
<polyline fill="none" stroke="#000000" stroke-width="0.5" points="76.5,400.75 535.5,400.75"/>
<polyline fill="none" stroke="#000000" stroke-width="0.5" points="76.5,400.75 76.5,405.895"/>
<polyline fill="none" stroke="#000000" stroke-width="0.5" points="306,400.75 306,405.895"/>
<polyline fill="none" stroke="#000000" stroke-width="0.5" points="535.5,400.75 535.5,405.895"/>
<polyline fill="none" stroke="#000000" stroke-width="0.5" points="145.586,400.75 145.586,403.837"/>
<polyline fill="none" stroke="#000000" stroke-width="0.5" points="186,400.75 186,403.837"/>
<polyline fill="none" stroke="#000000" stroke-width="0.5" points="214.673,400.75 214.673,403.837"/>
<polyline fill="none" stroke="#000000" stroke-width="0.5" points="236.914,400.75 236.914,403.837"/>
<polyline fill="none" stroke="#000000" stroke-width="0.5" points="255.086,400.75 255.086,403.837"/>
<polyline fill="none" stroke="#000000" stroke-width="0.5" points="270.45,400.75 270.45,403.837"/>
<polyline fill="none" stroke="#000000" stroke-width="0.5" points="283.759,400.75 283.759,403.837"/>
<polyline fill="none" stroke="#000000" stroke-width="0.5" points="295.499,400.75 295.499,403.837"/>
<polyline fill="none" stroke="#000000" stroke-width="0.5" points="375.086,400.75 375.086,403.837"/>
<polyline fill="none" stroke="#000000" stroke-width="0.5" points="415.5,400.75 415.5,403.837"/>
<polyline fill="none" stroke="#000000" stroke-width="0.5" points="444.173,400.75 444.173,403.837"/>
<polyline fill="none" stroke="#000000" stroke-width="0.5" points="466.414,400.75 466.414,403.837"/>
<polyline fill="none" stroke="#000000" stroke-width="0.5" points="484.586,400.75 484.586,403.837"/>
<polyline fill="none" stroke="#000000" stroke-width="0.5" points="499.95,400.75 499.95,403.837"/>
<polyline fill="none" stroke="#000000" stroke-width="0.5" points="513.259,400.75 513.259,403.837"/>
<polyline fill="none" stroke="#000000" stroke-width="0.5" points="524.999,400.75 524.999,403.837"/>
<text fill="#000000" style="stroke:none" x="64" y="425" transform="rotate(-0, 64, 425)" font-size="10" font-family="SansSerif" font-style="normal" font-weight="normal">10</text>
<text fill="#000000" style="stroke:none" x="294" y="425" transform="rotate(-0, 294, 425)" font-size="10" font-family="SansSerif" font-style="normal" font-weight="normal">10</text>
<text fill="#000000" style="stroke:none" x="523" y="425" transform="rotate(-0, 523, 425)" font-size="10" font-family="SansSerif" font-style="normal" font-weight="normal">10</text>
<text fill="#000000" style="stroke:none" x="77" y="415" transform="rotate(-0, 77, 415)" font-size="9" font-family="SansSerif" font-style="normal" font-weight="normal">-2</text>
<text fill="#000000" style="stroke:none" x="307" y="415" transform="rotate(-0, 307, 415)" font-size="9" font-family="SansSerif" font-style="normal" font-weight="normal">-1</text>
<text fill="#000000" style="stroke:none" x="536" y="415" transform="rotate(-0, 536, 415)" font-size="9" font-family="SansSerif" font-style="normal" font-weight="normal">0</text>
<polyline fill="none" stroke="#d3d3d3" stroke-width="0.5" stroke-dasharray="4,4,4,4" points="76.5,400.75 76.5,57.25 76.5,57.25"/>
<polyline fill="none" stroke="#d3d3d3" stroke-width="0.5" stroke-dasharray="4,4,4,4" points="306,400.75 306,57.25 306,57.25"/>
<polyline fill="none" stroke="#d3d3d3" stroke-width="0.5" stroke-dasharray="4,4,4,4" points="535.5,400.75 535.5,57.25 535.5,57.25"/>
<polyline fill="none" stroke="#d3d3d3" stroke-width="0.5" stroke-dasharray="4,4,4,4" points="145.586,400.75 145.586,57.25 145.586,57.25"/>
<polyline fill="none" stroke="#d3d3d3" stroke-width="0.5" stroke-dasharray="4,4,4,4" points="186,400.75 186,57.25 186,57.25"/>
<polyline fill="none" stroke="#d3d3d3" stroke-width="0.5" stroke-dasharray="4,4,4,4" points="214.673,400.75 214.673,57.25 214.673,57.25"/>
<polyline fill="none" stroke="#d3d3d3" stroke-width="0.5" stroke-dasharray="4,4,4,4" points="236.914,400.75 236.914,57.25 236.914,57.25"/>
<polyline fill="none" stroke="#d3d3d3" stroke-width="0.5" stroke-dasharray="4,4,4,4" points="255.086,400.75 255.086,57.25 255.086,57.25"/>
<polyline fill="none" stroke="#d3d3d3" stroke-width="0.5" stroke-dasharray="4,4,4,4" points="270.45,400.75 270.45,57.25 270.45,57.25"/>
<polyline fill="none" stroke="#d3d3d3" stroke-width="0.5" stroke-dasharray="4,4,4,4" points="283.759,400.75 283.759,57.25 283.759,57.25"/>
<polyline fill="none" stroke="#d3d3d3" stroke-width="0.5" stroke-dasharray="4,4,4,4" points="295.499,400.75 295.499,57.25 295.499,57.25"/>
<polyline fill="none" stroke="#d3d3d3" stroke-width="0.5" stroke-dasharray="4,4,4,4" points="375.086,400.75 375.086,57.25 375.086,57.25"/>
<polyline fill="none" stroke="#d3d3d3" stroke-width="0.5" stroke-dasharray="4,4,4,4" points="415.5,400.75 415.5,57.25 415.5,57.25"/>
<polyline fill="none" stroke="#d3d3d3" stroke-width="0.5" stroke-dasharray="4,4,4,4" points="444.173,400.75 444.173,57.25 444.173,57.25"/>
<polyline fill="none" stroke="#d3d3d3" stroke-width="0.5" stroke-dasharray="4,4,4,4" points="466.414,400.75 466.414,57.25 466.414,57.25"/>
<polyline fill="none" stroke="#d3d3d3" stroke-width="0.5" stroke-dasharray="4,4,4,4" points="484.586,400.75 484.586,57.25 484.586,57.25"/>
<polyline fill="none" stroke="#d3d3d3" stroke-width="0.5" stroke-dasharray="4,4,4,4" points="499.95,400.75 499.95,57.25 499.95,57.25"/>
<polyline fill="none" stroke="#d3d3d3" stroke-width="0.5" stroke-dasharray="4,4,4,4" points="513.259,400.75 513.259,57.25 513.259,57.25"/>
<polyline fill="none" stroke="#d3d3d3" stroke-width="0.5" stroke-dasharray="4,4,4,4" points="524.999,400.75 524.999,57.25 524.999,57.25"/>
<g fill="#000000" stroke="black" transform="rotate(0,248,37) translate(248,37)"><!--Generated by the Batik Graphics2D SVG Generator--><defs id="genericDefs"
  /><g
  ><g transform="matrix(1,0,0,1,0,-29) scale(10,10) translate(0.6192,1.014)" style="font-size:1; text-rendering:geometricPrecision; color-rendering:optimizeQuality; image-rendering:optimizeQuality; font-family:&apos;jlm_cmr10&apos;; color-interpolation:linearRGB;"
    ><path style="stroke:none;" d="M0.2969 -0.6406 L0.2969 -0.0781 Q0.2969 -0.0469 0.3125 -0.0469 Q0.3281 -0.0312 0.3906 -0.0312 L0.4219 -0.0312 L0.4219 0 Q0.3906 0 0.25 0 Q0.125 0 0.0938 0 L0.0938 -0.0312 L0.125 -0.0312 Q0.2031 -0.0312 0.2188 -0.0469 L0.2188 -0.0469 Q0.2188 -0.0625 0.2188 -0.0781 L0.2188 -0.5938 Q0.1719 -0.5781 0.0938 -0.5781 L0.0938 -0.6094 Q0.2031 -0.6094 0.2656 -0.6719 Q0.2969 -0.6719 0.2969 -0.6562 L0.2969 -0.6562 L0.2969 -0.6562 Q0.2969 -0.6562 0.2969 -0.6406 Z"
    /></g
    ><g transform="matrix(10,0,0,10,0,-29) translate(1.3415,1.014)" style="font-size:1; text-rendering:geometricPrecision; color-rendering:optimizeQuality; image-rendering:optimizeQuality; font-family:&apos;jlm_cmr10&apos;; color-interpolation:linearRGB;"
    ><path style="stroke:none;" d="M0.4062 -0.2344 L0.4062 0.0469 Q0.4062 0.0781 0.3906 0.0781 Q0.375 0.0781 0.375 0.0469 L0.375 -0.2344 L0.0938 -0.2344 Q0.0625 -0.2344 0.0625 -0.25 Q0.0625 -0.2656 0.0938 -0.2656 L0.375 -0.2656 L0.375 -0.5469 Q0.375 -0.5781 0.3906 -0.5781 Q0.4062 -0.5781 0.4062 -0.5469 L0.4062 -0.2656 L0.6875 -0.2656 Q0.7188 -0.2656 0.7188 -0.25 Q0.7188 -0.2344 0.6875 -0.2344 L0.4062 -0.2344 Z"
    /></g
    ><g transform="matrix(10,0,0,10,0,-29) translate(2.3415,1.014)" style="font-size:1; text-rendering:geometricPrecision; color-rendering:optimizeQuality; image-rendering:optimizeQuality; font-family:&apos;jlm_cmr10&apos;; color-interpolation:linearRGB;"
    ><path style="stroke:none;" d="M0.4531 -0.2031 L0.4531 -0.2031 Q0.4531 -0.0938 0.375 -0.0312 Q0.3125 0.0156 0.2344 0.0156 Q0.1406 0.0156 0.0781 -0.0625 Q0.0469 -0.1094 0.0469 -0.1562 Q0.0469 -0.2031 0.0938 -0.2188 Q0.0938 -0.2188 0.0938 -0.2188 Q0.1406 -0.2188 0.1406 -0.1875 Q0.1562 -0.1719 0.1562 -0.1719 Q0.1562 -0.1406 0.125 -0.125 Q0.1094 -0.1094 0.0938 -0.1094 Q0.0938 -0.1094 0.0781 -0.125 Q0.0938 -0.0625 0.1562 -0.0312 Q0.1875 0 0.2344 0 Q0.2969 0 0.3438 -0.0781 Q0.3594 -0.1094 0.3594 -0.2031 Q0.3594 -0.2969 0.3438 -0.3281 Q0.3125 -0.3906 0.25 -0.3906 Q0.1719 -0.3906 0.125 -0.3281 Q0.125 -0.3125 0.1094 -0.3125 Q0.1094 -0.3125 0.0938 -0.3281 L0.0938 -0.3438 L0.0938 -0.6406 Q0.0938 -0.6562 0.1094 -0.6719 Q0.1094 -0.6719 0.125 -0.6562 Q0.1875 -0.6406 0.25 -0.6406 Q0.3281 -0.6406 0.3906 -0.6562 Q0.3906 -0.6719 0.4062 -0.6719 Q0.4062 -0.6719 0.4062 -0.6562 Q0.4062 -0.6406 0.375 -0.6094 Q0.3125 -0.5469 0.2188 -0.5469 Q0.1719 -0.5469 0.125 -0.5625 L0.125 -0.375 Q0.1875 -0.4219 0.2656 -0.4219 Q0.3438 -0.4219 0.4062 -0.3438 Q0.4531 -0.2812 0.4531 -0.2031 Z"
    /></g
    ><g transform="matrix(10,0,0,10,0,-29) translate(2.8415,1.014)" style="font-size:1; text-rendering:geometricPrecision; color-rendering:optimizeQuality; image-rendering:optimizeQuality; font-family:&apos;jlm_cmmi10&apos;; color-interpolation:linearRGB;"
    ><path style="stroke:none;" d="M0.3906 -0.375 L0.3906 -0.375 Q0.375 -0.4219 0.2969 -0.4219 Q0.2188 -0.4219 0.1875 -0.3594 Q0.1875 -0.3438 0.1875 -0.3281 Q0.1875 -0.2969 0.2344 -0.2812 L0.2344 -0.2812 L0.2344 -0.2812 Q0.25 -0.2812 0.2656 -0.2656 Q0.3281 -0.25 0.3438 -0.2344 Q0.3594 -0.2344 0.3594 -0.2344 Q0.3906 -0.2031 0.3906 -0.1562 Q0.3906 -0.1094 0.3594 -0.0625 Q0.2969 0.0156 0.1875 0.0156 Q0.1094 0.0156 0.0625 -0.0469 Q0.0469 -0.0625 0.0469 -0.0938 Q0.0469 -0.1406 0.0938 -0.1562 Q0.0938 -0.1562 0.1094 -0.1562 Q0.1406 -0.1406 0.1406 -0.1094 Q0.1406 -0.0938 0.125 -0.0781 Q0.1094 -0.0625 0.0781 -0.0625 Q0.1094 -0.0156 0.2031 -0.0156 Q0.2969 -0.0156 0.3281 -0.0938 Q0.3438 -0.1094 0.3438 -0.125 Q0.3438 -0.1719 0.2812 -0.1875 L0.2812 -0.1875 L0.2812 -0.1875 Q0.2656 -0.1875 0.2344 -0.2031 Q0.1406 -0.2188 0.1406 -0.2812 Q0.125 -0.2812 0.125 -0.2969 Q0.125 -0.3438 0.1719 -0.3906 Q0.2188 -0.4375 0.2969 -0.4375 Q0.375 -0.4375 0.4062 -0.3906 Q0.4219 -0.375 0.4219 -0.3594 Q0.4219 -0.3125 0.3906 -0.2969 Q0.375 -0.2969 0.375 -0.2969 Q0.3438 -0.2969 0.3438 -0.3281 Q0.3438 -0.3594 0.375 -0.375 Q0.375 -0.375 0.3906 -0.375 Z"
    /></g
    ><g transform="matrix(10,0,0,10,0,-29) translate(3.5324,1.014)" style="font-size:1; text-rendering:geometricPrecision; color-rendering:optimizeQuality; image-rendering:optimizeQuality; font-family:&apos;jlm_cmr10&apos;; color-interpolation:linearRGB;"
    ><path style="stroke:none;" d="M0.4062 -0.2344 L0.4062 0.0469 Q0.4062 0.0781 0.3906 0.0781 Q0.375 0.0781 0.375 0.0469 L0.375 -0.2344 L0.0938 -0.2344 Q0.0625 -0.2344 0.0625 -0.25 Q0.0625 -0.2656 0.0938 -0.2656 L0.375 -0.2656 L0.375 -0.5469 Q0.375 -0.5781 0.3906 -0.5781 Q0.4062 -0.5781 0.4062 -0.5469 L0.4062 -0.2656 L0.6875 -0.2656 Q0.7188 -0.2656 0.7188 -0.25 Q0.7188 -0.2344 0.6875 -0.2344 L0.4062 -0.2344 Z"
    /></g
    ><g transform="matrix(10,0,0,10,0,-29) translate(4.5324,1.014)" style="font-size:1; text-rendering:geometricPrecision; color-rendering:optimizeQuality; image-rendering:optimizeQuality; font-family:&apos;jlm_cmr10&apos;; color-interpolation:linearRGB;"
    ><path style="stroke:none;" d="M0.2969 -0.6406 L0.2969 -0.0781 Q0.2969 -0.0469 0.3125 -0.0469 Q0.3281 -0.0312 0.3906 -0.0312 L0.4219 -0.0312 L0.4219 0 Q0.3906 0 0.25 0 Q0.125 0 0.0938 0 L0.0938 -0.0312 L0.125 -0.0312 Q0.2031 -0.0312 0.2188 -0.0469 L0.2188 -0.0469 Q0.2188 -0.0625 0.2188 -0.0781 L0.2188 -0.5938 Q0.1719 -0.5781 0.0938 -0.5781 L0.0938 -0.6094 Q0.2031 -0.6094 0.2656 -0.6719 Q0.2969 -0.6719 0.2969 -0.6562 L0.2969 -0.6562 L0.2969 -0.6562 Q0.2969 -0.6562 0.2969 -0.6406 Z"
    /></g
    ><g transform="matrix(10,0,0,10,0,-29) translate(5.0324,1.014)" style="font-size:1; text-rendering:geometricPrecision; color-rendering:optimizeQuality; image-rendering:optimizeQuality; font-family:&apos;jlm_cmr10&apos;; color-interpolation:linearRGB;"
    ><path style="stroke:none;" d="M0.4531 -0.3125 Q0.4531 -0.1719 0.4219 -0.0938 Q0.3594 0.0156 0.25 0.0156 Q0.1562 0.0156 0.1094 -0.0469 Q0.0938 -0.0625 0.0781 -0.0781 Q0.0312 -0.1562 0.0312 -0.3125 Q0.0312 -0.4688 0.0781 -0.5469 Q0.125 -0.6562 0.2344 -0.6719 L0.25 -0.6719 Q0.3438 -0.6719 0.3906 -0.5938 L0.3906 -0.5938 Q0.4062 -0.5781 0.4219 -0.5469 Q0.4531 -0.4688 0.4531 -0.3125 ZM0.25 0 L0.25 0 Q0.3125 0 0.3438 -0.0625 Q0.3594 -0.0938 0.3594 -0.125 Q0.375 -0.1875 0.375 -0.3281 Q0.375 -0.4688 0.3594 -0.5312 Q0.3438 -0.625 0.2812 -0.6406 Q0.2656 -0.6406 0.25 -0.6406 Q0.1719 -0.6406 0.1406 -0.5781 Q0.1406 -0.5469 0.125 -0.5156 Q0.125 -0.4688 0.125 -0.3281 Q0.125 -0.1875 0.1406 -0.125 Q0.1562 -0.0312 0.2188 0 Q0.2344 0 0.25 0 Z"
    /></g
    ><g transform="matrix(10,0,0,10,0,-29) translate(5.5324,1.014)" style="font-size:1; text-rendering:geometricPrecision; color-rendering:optimizeQuality; image-rendering:optimizeQuality; font-family:&apos;jlm_cmmi10&apos;; color-interpolation:linearRGB;"
    ><path style="stroke:none;" d="M0.3906 -0.375 L0.3906 -0.375 Q0.375 -0.4219 0.2969 -0.4219 Q0.2188 -0.4219 0.1875 -0.3594 Q0.1875 -0.3438 0.1875 -0.3281 Q0.1875 -0.2969 0.2344 -0.2812 L0.2344 -0.2812 L0.2344 -0.2812 Q0.25 -0.2812 0.2656 -0.2656 Q0.3281 -0.25 0.3438 -0.2344 Q0.3594 -0.2344 0.3594 -0.2344 Q0.3906 -0.2031 0.3906 -0.1562 Q0.3906 -0.1094 0.3594 -0.0625 Q0.2969 0.0156 0.1875 0.0156 Q0.1094 0.0156 0.0625 -0.0469 Q0.0469 -0.0625 0.0469 -0.0938 Q0.0469 -0.1406 0.0938 -0.1562 Q0.0938 -0.1562 0.1094 -0.1562 Q0.1406 -0.1406 0.1406 -0.1094 Q0.1406 -0.0938 0.125 -0.0781 Q0.1094 -0.0625 0.0781 -0.0625 Q0.1094 -0.0156 0.2031 -0.0156 Q0.2969 -0.0156 0.3281 -0.0938 Q0.3438 -0.1094 0.3438 -0.125 Q0.3438 -0.1719 0.2812 -0.1875 L0.2812 -0.1875 L0.2812 -0.1875 Q0.2656 -0.1875 0.2344 -0.2031 Q0.1406 -0.2188 0.1406 -0.2812 Q0.125 -0.2812 0.125 -0.2969 Q0.125 -0.3438 0.1719 -0.3906 Q0.2188 -0.4375 0.2969 -0.4375 Q0.375 -0.4375 0.4062 -0.3906 Q0.4219 -0.375 0.4219 -0.3594 Q0.4219 -0.3125 0.3906 -0.2969 Q0.375 -0.2969 0.375 -0.2969 Q0.3438 -0.2969 0.3438 -0.3281 Q0.3438 -0.3594 0.375 -0.375 Q0.375 -0.375 0.3906 -0.375 Z"
    /></g
    ><g transform="matrix(10,0,0,10,0,-29) translate(6.0012,0.6511) scale(0.7,0.7)" style="font-size:1; text-rendering:geometricPrecision; color-rendering:optimizeQuality; image-rendering:optimizeQuality; font-family:&apos;jlm_cmr10&apos;; color-interpolation:linearRGB;"
    ><path style="stroke:none;" d="M0.4531 -0.1719 L0.4531 -0.1719 L0.4219 0 L0.0469 0 Q0.0469 -0.0312 0.0625 -0.0312 L0.0625 -0.0312 L0.25 -0.25 Q0.3594 -0.375 0.3594 -0.4688 Q0.3594 -0.5625 0.2969 -0.6094 L0.2969 -0.6094 L0.2969 -0.6094 Q0.2656 -0.6406 0.2188 -0.6406 Q0.1562 -0.6406 0.1094 -0.5781 Q0.0938 -0.5625 0.0938 -0.5312 Q0.0938 -0.5312 0.1094 -0.5312 Q0.1406 -0.5312 0.1562 -0.5 L0.1562 -0.5 Q0.1562 -0.4844 0.1562 -0.4844 Q0.1562 -0.4375 0.1094 -0.4375 Q0.1094 -0.4219 0.1094 -0.4219 Q0.0625 -0.4219 0.0469 -0.4531 Q0.0469 -0.4688 0.0469 -0.4844 Q0.0469 -0.5625 0.1094 -0.6094 Q0.1562 -0.6719 0.2344 -0.6719 Q0.3438 -0.6719 0.4062 -0.5938 Q0.4375 -0.5469 0.4531 -0.4844 Q0.4531 -0.4844 0.4531 -0.4688 Q0.4531 -0.4062 0.3906 -0.3281 Q0.3594 -0.2969 0.2969 -0.25 L0.25 -0.1875 L0.2344 -0.1875 L0.125 -0.0781 L0.3125 -0.0781 Q0.3906 -0.0781 0.4062 -0.0781 Q0.4062 -0.0938 0.4219 -0.1719 L0.4531 -0.1719 Z"
    /></g
    ><g transform="matrix(10,0,0,10,0,-29)" style="font-size:1; text-rendering:geometricPrecision; color-rendering:optimizeQuality; image-rendering:optimizeQuality; font-family:&apos;jlm_cmr10&apos;; color-interpolation:linearRGB;"
    ><rect x="0.1" width="6.8204" height="0.04" y="1.4205" style="stroke:none;"
      /><path d="M0.2656 -0.0781 Q0.2031 0.0156 0.125 0.0156 Q0.0312 0.0156 0.0156 -0.0938 Q0.0156 -0.1094 0.0156 -0.125 Q0.0156 -0.2188 0.0469 -0.3125 Q0.0781 -0.375 0.1094 -0.4219 Q0.125 -0.4375 0.125 -0.4375 Q0.1406 -0.4375 0.1406 -0.4219 Q0.1406 -0.4062 0.125 -0.4062 Q0.0469 -0.2812 0.0469 -0.1719 Q0.0469 -0.0781 0.1094 -0.0625 Q0.125 -0.0625 0.1406 -0.0625 Q0.2031 -0.0625 0.25 -0.1406 Q0.2656 -0.1406 0.2656 -0.1719 Q0.2812 -0.2344 0.2812 -0.2656 Q0.2969 -0.2969 0.3125 -0.2969 Q0.3281 -0.2969 0.3438 -0.2656 Q0.3438 -0.2344 0.3125 -0.1719 Q0.3125 -0.1562 0.2969 -0.1562 Q0.2969 -0.1406 0.2969 -0.1406 Q0.2969 -0.1094 0.3125 -0.0781 Q0.3281 -0.0625 0.375 -0.0625 Q0.4531 -0.0625 0.5156 -0.1406 Q0.5625 -0.2188 0.5625 -0.2812 Q0.5625 -0.3281 0.5312 -0.3594 Q0.5156 -0.375 0.5156 -0.3906 Q0.5156 -0.4219 0.5312 -0.4375 Q0.5469 -0.4375 0.5625 -0.4375 Q0.5938 -0.4375 0.6094 -0.3906 Q0.6094 -0.375 0.6094 -0.375 Q0.6094 -0.3125 0.5781 -0.2188 Q0.5469 -0.1406 0.5156 -0.0781 Q0.4375 0.0156 0.3594 0.0156 Q0.2812 0.0156 0.2656 -0.0781 Z" style="stroke:none;" transform="translate(0.1,2.3765)"
    /></g
    ><g transform="matrix(10,0,0,10,0,-29) translate(0.7583,2.0876) scale(0.7,0.7)" style="font-size:1; text-rendering:geometricPrecision; color-rendering:optimizeQuality; image-rendering:optimizeQuality; font-family:&apos;jlm_cmr10&apos;; color-interpolation:linearRGB;"
    ><path style="stroke:none;" d="M0.4531 -0.1719 L0.4531 -0.1719 L0.4219 0 L0.0469 0 Q0.0469 -0.0312 0.0625 -0.0312 L0.0625 -0.0312 L0.25 -0.25 Q0.3594 -0.375 0.3594 -0.4688 Q0.3594 -0.5625 0.2969 -0.6094 L0.2969 -0.6094 L0.2969 -0.6094 Q0.2656 -0.6406 0.2188 -0.6406 Q0.1562 -0.6406 0.1094 -0.5781 Q0.0938 -0.5625 0.0938 -0.5312 Q0.0938 -0.5312 0.1094 -0.5312 Q0.1406 -0.5312 0.1562 -0.5 L0.1562 -0.5 Q0.1562 -0.4844 0.1562 -0.4844 Q0.1562 -0.4375 0.1094 -0.4375 Q0.1094 -0.4219 0.1094 -0.4219 Q0.0625 -0.4219 0.0469 -0.4531 Q0.0469 -0.4688 0.0469 -0.4844 Q0.0469 -0.5625 0.1094 -0.6094 Q0.1562 -0.6719 0.2344 -0.6719 Q0.3438 -0.6719 0.4062 -0.5938 Q0.4375 -0.5469 0.4531 -0.4844 Q0.4531 -0.4844 0.4531 -0.4688 Q0.4531 -0.4062 0.3906 -0.3281 Q0.3594 -0.2969 0.2969 -0.25 L0.25 -0.1875 L0.2344 -0.1875 L0.125 -0.0781 L0.3125 -0.0781 Q0.3906 -0.0781 0.4062 -0.0781 Q0.4062 -0.0938 0.4219 -0.1719 L0.4531 -0.1719 Z"
    /></g
    ><g transform="matrix(10,0,0,10,0,-29) translate(0.7225,2.6237) scale(0.7,0.7)" style="font-size:1; text-rendering:geometricPrecision; color-rendering:optimizeQuality; image-rendering:optimizeQuality; font-family:&apos;jlm_cmmi10&apos;; color-interpolation:linearRGB;"
    ><path style="stroke:none;" d="M0.0938 -0.0625 L0.0938 -0.0625 L0.1406 -0.2969 Q0.1562 -0.3594 0.1562 -0.375 Q0.1562 -0.4219 0.125 -0.4219 Q0.0938 -0.4219 0.0625 -0.3281 Q0.0625 -0.3125 0.0625 -0.2969 Q0.0469 -0.2812 0.0469 -0.2812 Q0.0312 -0.2812 0.0312 -0.2812 Q0.0312 -0.2969 0.0469 -0.3594 L0.0469 -0.3594 Q0.0469 -0.3594 0.0469 -0.3594 L0.0469 -0.3594 L0.0469 -0.3594 L0.0625 -0.3906 Q0.0781 -0.4219 0.1094 -0.4375 Q0.125 -0.4375 0.1406 -0.4375 Q0.1875 -0.4375 0.2188 -0.3906 Q0.2188 -0.375 0.2188 -0.3594 Q0.2969 -0.4375 0.375 -0.4375 Q0.4688 -0.4375 0.4844 -0.375 Q0.5 -0.3594 0.5 -0.3281 Q0.5 -0.2812 0.4375 -0.1094 Q0.4219 -0.0781 0.4219 -0.0469 Q0.4219 -0.0156 0.4375 -0.0156 Q0.5156 -0.0156 0.5469 -0.1406 Q0.5469 -0.1562 0.5469 -0.1562 L0.5469 -0.1562 L0.5625 -0.1562 Q0.5781 -0.1562 0.5781 -0.1406 Q0.5781 -0.125 0.5469 -0.0781 Q0.5 0.0156 0.4375 0.0156 Q0.3906 0.0156 0.3594 -0.0312 Q0.3594 -0.0469 0.3594 -0.0781 Q0.3594 -0.0938 0.375 -0.1094 Q0.4375 -0.2969 0.4375 -0.3438 Q0.4375 -0.4219 0.375 -0.4219 Q0.2812 -0.4219 0.2344 -0.3125 Q0.2188 -0.3125 0.2188 -0.2969 L0.2031 -0.25 Q0.2031 -0.2188 0.1875 -0.1875 L0.1562 -0.0938 Q0.1406 -0.0156 0.1406 -0.0156 Q0.1406 0.0156 0.1094 0.0156 Q0.0781 0 0.0781 -0.0156 Q0.0781 -0.0156 0.0938 -0.0625 Z"
    /></g
    ><g transform="matrix(10,0,0,10,0,-29) translate(1.3806,2.3765)" style="font-size:1; text-rendering:geometricPrecision; color-rendering:optimizeQuality; image-rendering:optimizeQuality; font-family:&apos;jlm_cmr10&apos;; color-interpolation:linearRGB;"
    ><path style="stroke:none;" d="M0.4062 -0.2344 L0.4062 0.0469 Q0.4062 0.0781 0.3906 0.0781 Q0.375 0.0781 0.375 0.0469 L0.375 -0.2344 L0.0938 -0.2344 Q0.0625 -0.2344 0.0625 -0.25 Q0.0625 -0.2656 0.0938 -0.2656 L0.375 -0.2656 L0.375 -0.5469 Q0.375 -0.5781 0.3906 -0.5781 Q0.4062 -0.5781 0.4062 -0.5469 L0.4062 -0.2656 L0.6875 -0.2656 Q0.7188 -0.2656 0.7188 -0.25 Q0.7188 -0.2344 0.6875 -0.2344 L0.4062 -0.2344 Z"
    /></g
    ><g transform="matrix(10,0,0,10,0,-29) translate(2.3806,2.3765)" style="font-size:1; text-rendering:geometricPrecision; color-rendering:optimizeQuality; image-rendering:optimizeQuality; font-family:&apos;jlm_cmr10&apos;; color-interpolation:linearRGB;"
    ><path style="stroke:none;" d="M0.4531 -0.1719 L0.4531 -0.1719 L0.4219 0 L0.0469 0 Q0.0469 -0.0312 0.0625 -0.0312 L0.0625 -0.0312 L0.25 -0.25 Q0.3594 -0.375 0.3594 -0.4688 Q0.3594 -0.5625 0.2969 -0.6094 L0.2969 -0.6094 L0.2969 -0.6094 Q0.2656 -0.6406 0.2188 -0.6406 Q0.1562 -0.6406 0.1094 -0.5781 Q0.0938 -0.5625 0.0938 -0.5312 Q0.0938 -0.5312 0.1094 -0.5312 Q0.1406 -0.5312 0.1562 -0.5 L0.1562 -0.5 Q0.1562 -0.4844 0.1562 -0.4844 Q0.1562 -0.4375 0.1094 -0.4375 Q0.1094 -0.4219 0.1094 -0.4219 Q0.0625 -0.4219 0.0469 -0.4531 Q0.0469 -0.4688 0.0469 -0.4844 Q0.0469 -0.5625 0.1094 -0.6094 Q0.1562 -0.6719 0.2344 -0.6719 Q0.3438 -0.6719 0.4062 -0.5938 Q0.4375 -0.5469 0.4531 -0.4844 Q0.4531 -0.4844 0.4531 -0.4688 Q0.4531 -0.4062 0.3906 -0.3281 Q0.3594 -0.2969 0.2969 -0.25 L0.25 -0.1875 L0.2344 -0.1875 L0.125 -0.0781 L0.3125 -0.0781 Q0.3906 -0.0781 0.4062 -0.0781 Q0.4062 -0.0938 0.4219 -0.1719 L0.4531 -0.1719 Z"
    /></g
    ><g transform="matrix(10,0,0,10,0,-29) translate(2.8806,2.3765)" style="font-size:1; text-rendering:geometricPrecision; color-rendering:optimizeQuality; image-rendering:optimizeQuality; font-family:&apos;jlm_cmmi10&apos;; color-interpolation:linearRGB;"
    ><path style="stroke:none;" d="M0.2656 -0.0781 Q0.2031 0.0156 0.125 0.0156 Q0.0312 0.0156 0.0156 -0.0938 Q0.0156 -0.1094 0.0156 -0.125 Q0.0156 -0.2188 0.0469 -0.3125 Q0.0781 -0.375 0.1094 -0.4219 Q0.125 -0.4375 0.125 -0.4375 Q0.1406 -0.4375 0.1406 -0.4219 Q0.1406 -0.4062 0.125 -0.4062 Q0.0469 -0.2812 0.0469 -0.1719 Q0.0469 -0.0781 0.1094 -0.0625 Q0.125 -0.0625 0.1406 -0.0625 Q0.2031 -0.0625 0.25 -0.1406 Q0.2656 -0.1406 0.2656 -0.1719 Q0.2812 -0.2344 0.2812 -0.2656 Q0.2969 -0.2969 0.3125 -0.2969 Q0.3281 -0.2969 0.3438 -0.2656 Q0.3438 -0.2344 0.3125 -0.1719 Q0.3125 -0.1562 0.2969 -0.1562 Q0.2969 -0.1406 0.2969 -0.1406 Q0.2969 -0.1094 0.3125 -0.0781 Q0.3281 -0.0625 0.375 -0.0625 Q0.4531 -0.0625 0.5156 -0.1406 Q0.5625 -0.2188 0.5625 -0.2812 Q0.5625 -0.3281 0.5312 -0.3594 Q0.5156 -0.375 0.5156 -0.3906 Q0.5156 -0.4219 0.5312 -0.4375 Q0.5469 -0.4375 0.5625 -0.4375 Q0.5938 -0.4375 0.6094 -0.3906 Q0.6094 -0.375 0.6094 -0.375 Q0.6094 -0.3125 0.5781 -0.2188 Q0.5469 -0.1406 0.5156 -0.0781 Q0.4375 0.0156 0.3594 0.0156 Q0.2812 0.0156 0.2656 -0.0781 Z"
    /></g
    ><g transform="matrix(10,0,0,10,0,-29) translate(3.503,2.5265) scale(0.7,0.7)" style="font-size:1; text-rendering:geometricPrecision; color-rendering:optimizeQuality; image-rendering:optimizeQuality; font-family:&apos;jlm_cmmi10&apos;; color-interpolation:linearRGB;"
    ><path style="stroke:none;" d="M0.0938 -0.0625 L0.0938 -0.0625 L0.1406 -0.2969 Q0.1562 -0.3594 0.1562 -0.375 Q0.1562 -0.4219 0.125 -0.4219 Q0.0938 -0.4219 0.0625 -0.3281 Q0.0625 -0.3125 0.0625 -0.2969 Q0.0469 -0.2812 0.0469 -0.2812 Q0.0312 -0.2812 0.0312 -0.2812 Q0.0312 -0.2969 0.0469 -0.3594 L0.0469 -0.3594 Q0.0469 -0.3594 0.0469 -0.3594 L0.0469 -0.3594 L0.0469 -0.3594 L0.0625 -0.3906 Q0.0781 -0.4219 0.1094 -0.4375 Q0.125 -0.4375 0.1406 -0.4375 Q0.1875 -0.4375 0.2188 -0.3906 Q0.2188 -0.375 0.2188 -0.3594 Q0.2969 -0.4375 0.375 -0.4375 Q0.4688 -0.4375 0.4844 -0.375 Q0.5 -0.3594 0.5 -0.3281 Q0.5 -0.2812 0.4375 -0.1094 Q0.4219 -0.0781 0.4219 -0.0469 Q0.4219 -0.0156 0.4375 -0.0156 Q0.5156 -0.0156 0.5469 -0.1406 Q0.5469 -0.1562 0.5469 -0.1562 L0.5469 -0.1562 L0.5625 -0.1562 Q0.5781 -0.1562 0.5781 -0.1406 Q0.5781 -0.125 0.5469 -0.0781 Q0.5 0.0156 0.4375 0.0156 Q0.3906 0.0156 0.3594 -0.0312 Q0.3594 -0.0469 0.3594 -0.0781 Q0.3594 -0.0938 0.375 -0.1094 Q0.4375 -0.2969 0.4375 -0.3438 Q0.4375 -0.4219 0.375 -0.4219 Q0.2812 -0.4219 0.2344 -0.3125 Q0.2188 -0.3125 0.2188 -0.2969 L0.2031 -0.25 Q0.2031 -0.2188 0.1875 -0.1875 L0.1562 -0.0938 Q0.1406 -0.0156 0.1406 -0.0156 Q0.1406 0.0156 0.1094 0.0156 Q0.0781 0 0.0781 -0.0156 Q0.0781 -0.0156 0.0938 -0.0625 Z"
    /></g
    ><g transform="matrix(10,0,0,10,0,-29) translate(3.9232,2.3765)" style="font-size:1; text-rendering:geometricPrecision; color-rendering:optimizeQuality; image-rendering:optimizeQuality; font-family:&apos;jlm_cmmi10&apos;; color-interpolation:linearRGB;"
    ><path style="stroke:none;" d="M0.1562 -0.3125 L0.1562 -0.3125 L0.1719 -0.3125 Q0.1094 -0.3594 0.1094 -0.4219 Q0.1094 -0.5 0.1719 -0.5625 Q0.2188 -0.5938 0.2812 -0.6094 Q0.2656 -0.6406 0.2656 -0.6406 Q0.2656 -0.7031 0.2812 -0.7031 Q0.2969 -0.7031 0.2969 -0.6875 L0.2969 -0.6406 L0.2969 -0.6406 Q0.2969 -0.625 0.2969 -0.6094 Q0.3281 -0.625 0.3594 -0.625 Q0.4375 -0.625 0.4375 -0.5938 L0.4375 -0.5938 L0.4375 -0.5938 Q0.4531 -0.5938 0.4531 -0.5938 Q0.4531 -0.5625 0.3594 -0.5625 Q0.3125 -0.5625 0.2969 -0.5781 Q0.2969 -0.5781 0.2969 -0.5781 Q0.2188 -0.5469 0.1875 -0.4688 Q0.1875 -0.4375 0.1875 -0.4062 Q0.1875 -0.3594 0.2188 -0.3281 Q0.25 -0.3438 0.2969 -0.3438 Q0.375 -0.3438 0.375 -0.3125 Q0.375 -0.2812 0.2812 -0.2812 Q0.2344 -0.2812 0.2031 -0.2969 Q0.125 -0.2656 0.0938 -0.1875 Q0.0781 -0.1562 0.0781 -0.125 Q0.0781 -0.0781 0.1562 -0.0469 L0.2031 -0.0156 Q0.2344 -0.0156 0.2656 0 Q0.3125 0.0156 0.3281 0.0312 Q0.375 0.0469 0.375 0.0938 Q0.375 0.1406 0.3438 0.1875 Q0.3125 0.2031 0.2969 0.2031 Q0.2812 0.2031 0.2812 0.2031 Q0.2188 0.2031 0.1719 0.1719 Q0.1719 0.1562 0.1719 0.1562 Q0.1719 0.1406 0.1719 0.1406 Q0.1875 0.1406 0.1875 0.1562 Q0.2344 0.1875 0.2812 0.1875 Q0.3125 0.1875 0.3125 0.1562 Q0.3281 0.1406 0.3281 0.125 Q0.3281 0.1094 0.2969 0.0938 Q0.2969 0.0938 0.2812 0.0938 L0.1719 0.0469 Q0.0938 0.0156 0.0781 0 Q0.0625 -0.0156 0.0469 -0.0312 Q0.0312 -0.0469 0.0312 -0.0469 Q0.0156 -0.0781 0.0156 -0.1094 Q0.0156 -0.1719 0.0781 -0.2344 Q0.1094 -0.2812 0.1562 -0.3125 ZM0.3125 -0.5938 Q0.3281 -0.5781 0.3594 -0.5781 Q0.4062 -0.5781 0.4219 -0.5938 Q0.3906 -0.5938 0.3594 -0.5938 Q0.3281 -0.5938 0.3125 -0.5938 ZM0.2344 -0.3125 Q0.25 -0.3125 0.2812 -0.3125 Q0.3438 -0.3125 0.3594 -0.3125 Q0.3281 -0.3281 0.2969 -0.3281 Q0.2656 -0.3281 0.2344 -0.3125 Z"
    /></g
    ><g transform="matrix(10,0,0,10,0,-29) translate(4.3607,2.3765)" style="font-size:1; text-rendering:geometricPrecision; color-rendering:optimizeQuality; image-rendering:optimizeQuality; font-family:&apos;jlm_cmmi10&apos;; color-interpolation:linearRGB;"
    ><path style="stroke:none;" d="M0.3906 -0.375 L0.3906 -0.375 Q0.375 -0.4219 0.2969 -0.4219 Q0.2188 -0.4219 0.1875 -0.3594 Q0.1875 -0.3438 0.1875 -0.3281 Q0.1875 -0.2969 0.2344 -0.2812 L0.2344 -0.2812 L0.2344 -0.2812 Q0.25 -0.2812 0.2656 -0.2656 Q0.3281 -0.25 0.3438 -0.2344 Q0.3594 -0.2344 0.3594 -0.2344 Q0.3906 -0.2031 0.3906 -0.1562 Q0.3906 -0.1094 0.3594 -0.0625 Q0.2969 0.0156 0.1875 0.0156 Q0.1094 0.0156 0.0625 -0.0469 Q0.0469 -0.0625 0.0469 -0.0938 Q0.0469 -0.1406 0.0938 -0.1562 Q0.0938 -0.1562 0.1094 -0.1562 Q0.1406 -0.1406 0.1406 -0.1094 Q0.1406 -0.0938 0.125 -0.0781 Q0.1094 -0.0625 0.0781 -0.0625 Q0.1094 -0.0156 0.2031 -0.0156 Q0.2969 -0.0156 0.3281 -0.0938 Q0.3438 -0.1094 0.3438 -0.125 Q0.3438 -0.1719 0.2812 -0.1875 L0.2812 -0.1875 L0.2812 -0.1875 Q0.2656 -0.1875 0.2344 -0.2031 Q0.1406 -0.2188 0.1406 -0.2812 Q0.125 -0.2812 0.125 -0.2969 Q0.125 -0.3438 0.1719 -0.3906 Q0.2188 -0.4375 0.2969 -0.4375 Q0.375 -0.4375 0.4062 -0.3906 Q0.4219 -0.375 0.4219 -0.3594 Q0.4219 -0.3125 0.3906 -0.2969 Q0.375 -0.2969 0.375 -0.2969 Q0.3438 -0.2969 0.3438 -0.3281 Q0.3438 -0.3594 0.375 -0.375 Q0.375 -0.375 0.3906 -0.375 Z"
    /></g
    ><g transform="matrix(10,0,0,10,0,-29) translate(5.0517,2.3765)" style="font-size:1; text-rendering:geometricPrecision; color-rendering:optimizeQuality; image-rendering:optimizeQuality; font-family:&apos;jlm_cmr10&apos;; color-interpolation:linearRGB;"
    ><path style="stroke:none;" d="M0.4062 -0.2344 L0.4062 0.0469 Q0.4062 0.0781 0.3906 0.0781 Q0.375 0.0781 0.375 0.0469 L0.375 -0.2344 L0.0938 -0.2344 Q0.0625 -0.2344 0.0625 -0.25 Q0.0625 -0.2656 0.0938 -0.2656 L0.375 -0.2656 L0.375 -0.5469 Q0.375 -0.5781 0.3906 -0.5781 Q0.4062 -0.5781 0.4062 -0.5469 L0.4062 -0.2656 L0.6875 -0.2656 Q0.7188 -0.2656 0.7188 -0.25 Q0.7188 -0.2344 0.6875 -0.2344 L0.4062 -0.2344 Z"
    /></g
    ><g transform="matrix(10,0,0,10,0,-29) translate(6.0517,2.3765)" style="font-size:1; text-rendering:geometricPrecision; color-rendering:optimizeQuality; image-rendering:optimizeQuality; font-family:&apos;jlm_cmmi10&apos;; color-interpolation:linearRGB;"
    ><path style="stroke:none;" d="M0.3906 -0.375 L0.3906 -0.375 Q0.375 -0.4219 0.2969 -0.4219 Q0.2188 -0.4219 0.1875 -0.3594 Q0.1875 -0.3438 0.1875 -0.3281 Q0.1875 -0.2969 0.2344 -0.2812 L0.2344 -0.2812 L0.2344 -0.2812 Q0.25 -0.2812 0.2656 -0.2656 Q0.3281 -0.25 0.3438 -0.2344 Q0.3594 -0.2344 0.3594 -0.2344 Q0.3906 -0.2031 0.3906 -0.1562 Q0.3906 -0.1094 0.3594 -0.0625 Q0.2969 0.0156 0.1875 0.0156 Q0.1094 0.0156 0.0625 -0.0469 Q0.0469 -0.0625 0.0469 -0.0938 Q0.0469 -0.1406 0.0938 -0.1562 Q0.0938 -0.1562 0.1094 -0.1562 Q0.1406 -0.1406 0.1406 -0.1094 Q0.1406 -0.0938 0.125 -0.0781 Q0.1094 -0.0625 0.0781 -0.0625 Q0.1094 -0.0156 0.2031 -0.0156 Q0.2969 -0.0156 0.3281 -0.0938 Q0.3438 -0.1094 0.3438 -0.125 Q0.3438 -0.1719 0.2812 -0.1875 L0.2812 -0.1875 L0.2812 -0.1875 Q0.2656 -0.1875 0.2344 -0.2031 Q0.1406 -0.2188 0.1406 -0.2812 Q0.125 -0.2812 0.125 -0.2969 Q0.125 -0.3438 0.1719 -0.3906 Q0.2188 -0.4375 0.2969 -0.4375 Q0.375 -0.4375 0.4062 -0.3906 Q0.4219 -0.375 0.4219 -0.3594 Q0.4219 -0.3125 0.3906 -0.2969 Q0.375 -0.2969 0.375 -0.2969 Q0.3438 -0.2969 0.3438 -0.3281 Q0.3438 -0.3594 0.375 -0.375 Q0.375 -0.375 0.3906 -0.375 Z"
    /></g
    ><g transform="matrix(10,0,0,10,0,-29) translate(6.5204,2.0876) scale(0.7,0.7)" style="font-size:1; text-rendering:geometricPrecision; color-rendering:optimizeQuality; image-rendering:optimizeQuality; font-family:&apos;jlm_cmr10&apos;; color-interpolation:linearRGB;"
    ><path style="stroke:none;" d="M0.4531 -0.1719 L0.4531 -0.1719 L0.4219 0 L0.0469 0 Q0.0469 -0.0312 0.0625 -0.0312 L0.0625 -0.0312 L0.25 -0.25 Q0.3594 -0.375 0.3594 -0.4688 Q0.3594 -0.5625 0.2969 -0.6094 L0.2969 -0.6094 L0.2969 -0.6094 Q0.2656 -0.6406 0.2188 -0.6406 Q0.1562 -0.6406 0.1094 -0.5781 Q0.0938 -0.5625 0.0938 -0.5312 Q0.0938 -0.5312 0.1094 -0.5312 Q0.1406 -0.5312 0.1562 -0.5 L0.1562 -0.5 Q0.1562 -0.4844 0.1562 -0.4844 Q0.1562 -0.4375 0.1094 -0.4375 Q0.1094 -0.4219 0.1094 -0.4219 Q0.0625 -0.4219 0.0469 -0.4531 Q0.0469 -0.4688 0.0469 -0.4844 Q0.0469 -0.5625 0.1094 -0.6094 Q0.1562 -0.6719 0.2344 -0.6719 Q0.3438 -0.6719 0.4062 -0.5938 Q0.4375 -0.5469 0.4531 -0.4844 Q0.4531 -0.4844 0.4531 -0.4688 Q0.4531 -0.4062 0.3906 -0.3281 Q0.3594 -0.2969 0.2969 -0.25 L0.25 -0.1875 L0.2344 -0.1875 L0.125 -0.0781 L0.3125 -0.0781 Q0.3906 -0.0781 0.4062 -0.0781 Q0.4062 -0.0938 0.4219 -0.1719 L0.4531 -0.1719 Z"
    /></g
    ><g transform="matrix(10,0,0,10,0,-29) translate(7.0315,1.6905)" style="font-size:1; text-rendering:geometricPrecision; color-rendering:optimizeQuality; image-rendering:optimizeQuality; font-family:&apos;jlm_cmmi10&apos;; color-interpolation:linearRGB;"
    ><path style="stroke:none;" d="M0.2031 0 L0.2031 0 Q0.2031 0.0938 0.1406 0.1719 Q0.125 0.1875 0.1094 0.1875 Q0.1094 0.1875 0.1094 0.1875 Q0.1094 0.1719 0.1094 0.1719 Q0.1719 0.1094 0.1875 0.0156 Q0.1875 0.0156 0.1875 0 Q0.1875 -0.0156 0.1719 -0.0156 Q0.1719 -0.0156 0.1719 -0.0156 Q0.1562 0 0.1406 0 Q0.1094 0 0.0938 -0.0312 Q0.0938 -0.0469 0.0938 -0.0469 Q0.0938 -0.0938 0.1094 -0.1094 Q0.125 -0.1094 0.1406 -0.1094 Q0.1875 -0.1094 0.2031 -0.0469 Q0.2031 -0.0312 0.2031 0 Z"
    /></g
    ><g transform="matrix(10,0,0,10,0,-29) translate(7.851,1.6905)" style="font-size:1; text-rendering:geometricPrecision; color-rendering:optimizeQuality; image-rendering:optimizeQuality; font-family:&apos;jlm_cmmi10&apos;; color-interpolation:linearRGB;"
    ><path style="stroke:none;" d="M0.2656 -0.0781 Q0.2031 0.0156 0.125 0.0156 Q0.0312 0.0156 0.0156 -0.0938 Q0.0156 -0.1094 0.0156 -0.125 Q0.0156 -0.2188 0.0469 -0.3125 Q0.0781 -0.375 0.1094 -0.4219 Q0.125 -0.4375 0.125 -0.4375 Q0.1406 -0.4375 0.1406 -0.4219 Q0.1406 -0.4062 0.125 -0.4062 Q0.0469 -0.2812 0.0469 -0.1719 Q0.0469 -0.0781 0.1094 -0.0625 Q0.125 -0.0625 0.1406 -0.0625 Q0.2031 -0.0625 0.25 -0.1406 Q0.2656 -0.1406 0.2656 -0.1719 Q0.2812 -0.2344 0.2812 -0.2656 Q0.2969 -0.2969 0.3125 -0.2969 Q0.3281 -0.2969 0.3438 -0.2656 Q0.3438 -0.2344 0.3125 -0.1719 Q0.3125 -0.1562 0.2969 -0.1562 Q0.2969 -0.1406 0.2969 -0.1406 Q0.2969 -0.1094 0.3125 -0.0781 Q0.3281 -0.0625 0.375 -0.0625 Q0.4531 -0.0625 0.5156 -0.1406 Q0.5625 -0.2188 0.5625 -0.2812 Q0.5625 -0.3281 0.5312 -0.3594 Q0.5156 -0.375 0.5156 -0.3906 Q0.5156 -0.4219 0.5312 -0.4375 Q0.5469 -0.4375 0.5625 -0.4375 Q0.5938 -0.4375 0.6094 -0.3906 Q0.6094 -0.375 0.6094 -0.375 Q0.6094 -0.3125 0.5781 -0.2188 Q0.5469 -0.1406 0.5156 -0.0781 Q0.4375 0.0156 0.3594 0.0156 Q0.2812 0.0156 0.2656 -0.0781 Z"
    /></g
    ><g transform="matrix(10,0,0,10,0,-29) translate(8.4734,1.8405) scale(0.7,0.7)" style="font-size:1; text-rendering:geometricPrecision; color-rendering:optimizeQuality; image-rendering:optimizeQuality; font-family:&apos;jlm_cmmi10&apos;; color-interpolation:linearRGB;"
    ><path style="stroke:none;" d="M0.0938 -0.0625 L0.0938 -0.0625 L0.1406 -0.2969 Q0.1562 -0.3594 0.1562 -0.375 Q0.1562 -0.4219 0.125 -0.4219 Q0.0938 -0.4219 0.0625 -0.3281 Q0.0625 -0.3125 0.0625 -0.2969 Q0.0469 -0.2812 0.0469 -0.2812 Q0.0312 -0.2812 0.0312 -0.2812 Q0.0312 -0.2969 0.0469 -0.3594 L0.0469 -0.3594 Q0.0469 -0.3594 0.0469 -0.3594 L0.0469 -0.3594 L0.0469 -0.3594 L0.0625 -0.3906 Q0.0781 -0.4219 0.1094 -0.4375 Q0.125 -0.4375 0.1406 -0.4375 Q0.1875 -0.4375 0.2188 -0.3906 Q0.2188 -0.375 0.2188 -0.3594 Q0.2969 -0.4375 0.375 -0.4375 Q0.4688 -0.4375 0.4844 -0.375 Q0.5 -0.3594 0.5 -0.3281 Q0.5 -0.2812 0.4375 -0.1094 Q0.4219 -0.0781 0.4219 -0.0469 Q0.4219 -0.0156 0.4375 -0.0156 Q0.5156 -0.0156 0.5469 -0.1406 Q0.5469 -0.1562 0.5469 -0.1562 L0.5469 -0.1562 L0.5625 -0.1562 Q0.5781 -0.1562 0.5781 -0.1406 Q0.5781 -0.125 0.5469 -0.0781 Q0.5 0.0156 0.4375 0.0156 Q0.3906 0.0156 0.3594 -0.0312 Q0.3594 -0.0469 0.3594 -0.0781 Q0.3594 -0.0938 0.375 -0.1094 Q0.4375 -0.2969 0.4375 -0.3438 Q0.4375 -0.4219 0.375 -0.4219 Q0.2812 -0.4219 0.2344 -0.3125 Q0.2188 -0.3125 0.2188 -0.2969 L0.2031 -0.25 Q0.2031 -0.2188 0.1875 -0.1875 L0.1562 -0.0938 Q0.1406 -0.0156 0.1406 -0.0156 Q0.1406 0.0156 0.1094 0.0156 Q0.0781 0 0.0781 -0.0156 Q0.0781 -0.0156 0.0938 -0.0625 Z"
    /></g
    ><g transform="matrix(10,0,0,10,0,-29) translate(9.1714,1.6905)" style="font-size:1; text-rendering:geometricPrecision; color-rendering:optimizeQuality; image-rendering:optimizeQuality; font-family:&apos;jlm_cmr10&apos;; color-interpolation:linearRGB;"
    ><path style="stroke:none;" d="M0.6875 -0.3281 L0.0938 -0.3281 Q0.0625 -0.3281 0.0625 -0.3438 Q0.0625 -0.3594 0.0938 -0.3594 L0.6875 -0.3594 Q0.7188 -0.3594 0.7188 -0.3438 Q0.7188 -0.3281 0.6875 -0.3281 ZM0.6875 -0.1406 L0.0938 -0.1406 Q0.0625 -0.1406 0.0625 -0.1562 Q0.0625 -0.1719 0.0938 -0.1719 L0.6875 -0.1719 Q0.7188 -0.1719 0.7188 -0.1562 Q0.7188 -0.1406 0.6875 -0.1406 Z"
    /></g
    ><g transform="matrix(10,0,0,10,0,-29) translate(10.2269,1.6905)" style="font-size:1; text-rendering:geometricPrecision; color-rendering:optimizeQuality; image-rendering:optimizeQuality; font-family:&apos;jlm_cmr10&apos;; color-interpolation:linearRGB;"
    ><path style="stroke:none;" d="M0.2969 -0.6406 L0.2969 -0.0781 Q0.2969 -0.0469 0.3125 -0.0469 Q0.3281 -0.0312 0.3906 -0.0312 L0.4219 -0.0312 L0.4219 0 Q0.3906 0 0.25 0 Q0.125 0 0.0938 0 L0.0938 -0.0312 L0.125 -0.0312 Q0.2031 -0.0312 0.2188 -0.0469 L0.2188 -0.0469 Q0.2188 -0.0625 0.2188 -0.0781 L0.2188 -0.5938 Q0.1719 -0.5781 0.0938 -0.5781 L0.0938 -0.6094 Q0.2031 -0.6094 0.2656 -0.6719 Q0.2969 -0.6719 0.2969 -0.6562 L0.2969 -0.6562 L0.2969 -0.6562 Q0.2969 -0.6562 0.2969 -0.6406 Z"
    /></g
  ></g
></g>
<text fill="#000000" style="stroke:none" x="265" y="442" transform="rotate(0, 265, 442)" font-size="10" font-family="SansSerif" font-style="normal" font-weight="normal">Frequence (Hz)</text>
<text fill="#000000" style="stroke:none" x="47" y="270" transform="rotate(270, 47, 270)" font-size="10" font-family="SansSerif" font-style="normal" font-weight="normal">Magnitude (dB)</text>
</g>
</svg>
