<?xml version="1.0" encoding="UTF-8" standalone="no"?>
<svg xmlns="http://www.w3.org/2000/svg"
     xmlns:xlink="http://www.w3.org/1999/xlink"
     width="612px" height="461px" viewBox="0 0 612 461"
     style="stroke:none">
<title>Graphic window number 0</title>
<desc>
Creator: GL2PS 1.3.2, (C) 1999-2006 Christophe Geuzaine (geuz@geuz.org)
For: Scilab
CreationDate: Thu Apr 15 13:27:24 2010
</desc>
<defs>
</defs>
<polygon fill="#ffffff" points="0,0 612,0 612,461 0,461"/>
<g>
<polygon fill="#ffffff" points="76.5,403.375 76.5,57.625 76.5,57.625"/>
<polygon fill="#ffffff" points="76.5,403.375 76.5,57.625 76.5,403.375"/>
<polygon fill="#ffffff" points="76.5,403.375 535.5,403.375 535.5,403.375"/>
<polygon fill="#ffffff" points="76.5,403.375 535.5,403.375 76.5,403.375"/>
<polygon fill="#ffffff" points="76.5,403.375 535.5,403.375 535.5,57.625"/>
<polygon fill="#ffffff" points="76.5,403.375 535.5,57.625 76.5,57.625"/>
<polyline fill="none" stroke="#87ceff" stroke-width="0.5" stroke-dasharray="1,1,1,1,1,1,1,1,1,1" points="404.357,230.5 76.5,230.5"/>
<polyline fill="none" stroke="#87ceff" stroke-width="0.5" stroke-dasharray="1,1,1,1,1,1,1,1,1,1" points="404.357,230.5 76.5,230.5"/>
<polyline fill="none" stroke="#87ceff" stroke-width="0.5" stroke-dasharray="1,1,1,1,1,1,1,1,1,1" points="404.357,230.5 76.5,180.026"/>
<polyline fill="none" stroke="#87ceff" stroke-width="0.5" stroke-dasharray="1,1,1,1,1,1,1,1,1,1" points="404.357,230.5 76.5,280.974"/>
<polyline fill="none" stroke="#87ceff" stroke-width="0.5" stroke-dasharray="1,1,1,1,1,1,1,1,1,1" points="404.357,230.5 76.5,125.924"/>
<polyline fill="none" stroke="#87ceff" stroke-width="0.5" stroke-dasharray="1,1,1,1,1,1,1,1,1,1" points="404.357,230.5 76.5,335.075"/>
<polyline fill="none" stroke="#87ceff" stroke-width="0.5" stroke-dasharray="1,1,1,1,1,1,1,1,1,1" points="404.357,230.5 76.5,59.5366"/>
<polyline fill="none" stroke="#87ceff" stroke-width="0.5" stroke-dasharray="1,1,1,1,1,1,1,1,1,1" points="404.357,230.5 76.5,401.463"/>
<polyline fill="none" stroke="#87ceff" stroke-width="0.5" stroke-dasharray="1,1,1,1,1,1,1,1,1,1" points="404.357,230.5 174.326,57.625"/>
<polyline fill="none" stroke="#87ceff" stroke-width="0.5" stroke-dasharray="1,1,1,1,1,1,1,1,1,1" points="404.357,230.5 174.326,403.375"/>
<polyline fill="none" stroke="#87ceff" stroke-width="0.5" stroke-dasharray="1,1,1,1,1,1,1,1,1,1" points="404.357,230.5 240.509,57.625"/>
<polyline fill="none" stroke="#87ceff" stroke-width="0.5" stroke-dasharray="1,1,1,1,1,1,1,1,1,1" points="404.357,230.5 240.509,403.375"/>
<polyline fill="none" stroke="#87ceff" stroke-width="0.5" stroke-dasharray="1,1,1,1,1,1,1,1,1,1" points="404.357,230.5 290.784,57.625"/>
<polyline fill="none" stroke="#87ceff" stroke-width="0.5" stroke-dasharray="1,1,1,1,1,1,1,1,1,1" points="404.357,230.5 290.784,403.375"/>
<polyline fill="none" stroke="#87ceff" stroke-width="0.5" stroke-dasharray="1,1,1,1,1,1,1,1,1,1" points="404.357,230.5 333.237,57.625"/>
<polyline fill="none" stroke="#87ceff" stroke-width="0.5" stroke-dasharray="1,1,1,1,1,1,1,1,1,1" points="404.357,230.5 333.237,403.375"/>
<polyline fill="none" stroke="#87ceff" stroke-width="0.5" stroke-dasharray="1,1,1,1,1,1,1,1,1,1" points="404.357,230.5 372.472,57.625"/>
<polyline fill="none" stroke="#87ceff" stroke-width="0.5" stroke-dasharray="1,1,1,1,1,1,1,1,1,1" points="404.357,230.5 372.472,403.375"/>
<polyline fill="none" stroke="#87ceff" stroke-width="0.5" stroke-dasharray="1,1,1,1,1,1,1,1,1,1" points="404.357,230.5 404.357,57.625"/>
<polyline fill="none" stroke="#87ceff" stroke-width="0.5" stroke-dasharray="1,1,1,1,1,1,1,1,1,1" points="404.357,230.5 404.357,403.375"/>
<polyline fill="none" stroke="#00ffff" stroke-width="0.5" stroke-dasharray="1,1,1,1,1,1,1,1,1,1" points="85.4707,57.6216 83.8779,59.8916 80.853,64.3589 77.9092,68.8677 76.4956,71.1138"/>
<polyline fill="none" stroke="#00ffff" stroke-width="0.5" stroke-dasharray="1,1,1,1,1,1,1,1,1,1" points="76.4956,389.886 77.9092,392.132 80.853,396.641 83.8779,401.108 85.4707,403.378"/>
<polyline fill="none" stroke="#00ffff" stroke-width="0.5" stroke-dasharray="1,1,1,1,1,1,1,1,1,1" points="178.189,57.6216 175.579,60.2881 172.549,63.4829 169.578,66.7197 166.666,69.9976 163.812,73.3149 161.019,76.6714 158.286,80.0669 155.614,83.499 153.004,86.9683 150.458,90.4731 147.974,94.0132 145.554,97.5869 143.199,101.194 140.909,104.833 138.684,108.504 136.525,112.205 134.434,115.935 132.41,119.694 130.453,123.48 128.565,127.294 126.745,131.133 124.995,134.997 123.314,138.884 121.704,142.794 120.163,146.727 118.694,150.68 117.295,154.653 115.969,158.645 114.714,162.654 113.532,166.681 112.421,170.724 111.384,174.781 110.419,178.853 109.528,182.937 108.711,187.033 107.967,191.14 107.297,195.257 106.701,199.382 106.179,203.516 105.731,207.656 105.358,211.801 105.06,215.952 104.835,220.106 104.686,224.263 104.611,228.42 104.611,232.579 104.686,236.737 104.835,240.894 105.06,245.048 105.358,249.198 105.731,253.344 106.179,257.484 106.701,261.618 107.297,265.743 107.967,269.86 108.711,273.967 109.528,278.063 110.419,282.147 111.384,286.219 112.421,290.276 113.532,294.319 114.714,298.346 115.969,302.355 117.295,306.347 118.694,310.32 120.163,314.273 121.704,318.206 123.314,322.116 124.995,326.003 126.745,329.867 128.565,333.706 130.453,337.52 132.41,341.306 134.434,345.065 136.525,348.795 138.684,352.496 140.909,356.167 143.199,359.806 145.554,363.413 147.974,366.987 150.458,370.527 153.004,374.032 155.614,377.501 158.286,380.933 161.019,384.328 163.812,387.685 166.666,391.002 169.578,394.28 172.549,397.517 175.579,400.712 178.189,403.378"/>
<polyline fill="none" stroke="#00ffff" stroke-width="0.5" stroke-dasharray="1,1,1,1,1,1,1,1,1,1" points="295.526,57.6216 292.462,59.1387 289.397,60.7124 286.362,62.3286 283.355,63.9863 280.379,65.686 277.435,67.4263 274.521,69.2075 271.64,71.0288 268.792,72.8896 265.978,74.79 263.198,76.7295 260.453,78.707 257.744,80.7222 255.072,82.7749 252.437,84.8643 249.84,86.9902 247.281,89.1514 244.762,91.3481 242.282,93.5796 239.843,95.8452 237.444,98.1445 235.088,100.477 232.773,102.841 230.501,105.237 228.273,107.665 226.088,110.123 223.948,112.611 221.853,115.129 219.803,117.675 217.8,120.25 215.843,122.851 213.932,125.48 212.069,128.135 210.255,130.815 208.488,133.521 206.771,136.25 205.102,139.003 203.483,141.778 201.915,144.576 200.396,147.396 198.929,150.235 197.513,153.095 196.148,155.975 194.835,158.873 193.575,161.788 192.367,164.721 191.212,167.67 190.11,170.635 189.061,173.615 188.066,176.608 187.125,179.616 186.238,182.636 185.405,185.668 184.627,188.711 183.904,191.765 183.236,194.828 182.623,197.9 182.064,200.98 181.562,204.067 181.115,207.162 180.724,210.262 180.388,213.367 180.108,216.476 179.884,219.589 179.716,222.705 179.604,225.822 179.548,228.94 179.548,232.06 179.604,235.178 179.716,238.295 179.884,241.411 180.108,244.524 180.388,247.633 180.724,250.738 181.115,253.838 181.562,256.932 182.064,260.02 182.623,263.1 183.236,266.172 183.904,269.235 184.627,272.289 185.405,275.332 186.238,278.364 187.125,281.384 188.066,284.392 189.061,287.385 190.11,290.365 191.212,293.33 192.367,296.279 193.575,299.212 194.835,302.127 196.148,305.025 197.513,307.905 198.929,310.765 200.396,313.604 201.915,316.424 203.483,319.222 205.102,321.997 206.771,324.75 208.488,327.479 210.255,330.185 212.069,332.865 213.932,335.52 215.843,338.148 217.8,340.75 219.803,343.325 221.853,345.871 223.948,348.389 226.088,350.877 228.273,353.335 230.501,355.763 232.773,358.159 235.088,360.523 237.444,362.855 239.843,365.155 242.282,367.42 244.762,369.651 247.281,371.848 249.84,374.01 252.437,376.136 255.072,378.225 257.744,380.278 260.453,382.293 263.198,384.271 265.978,386.21 268.792,388.11 271.64,389.971 274.521,391.792 277.435,393.574 280.379,395.314 283.355,397.014 286.362,398.671 289.397,400.288 292.462,401.861 295.526,403.378"/>
<polyline fill="none" stroke="#00ffff" stroke-width="0.5" stroke-dasharray="1,1,1,1,1,1,1,1,1,1" points="404.357,98.7856 401.991,98.8022 399.626,98.8516 397.262,98.9336 394.899,99.0483 392.539,99.1958 390.182,99.376 387.828,99.5894 385.479,99.835 383.134,100.113 380.794,100.424 378.46,100.767 376.133,101.142 373.813,101.55 371.501,101.99 369.196,102.461 366.901,102.965 364.615,103.5 362.338,104.068 360.072,104.667 357.817,105.297 355.574,105.958 353.343,106.65 351.125,107.374 348.919,108.127 346.729,108.912 344.551,109.726 342.39,110.571 340.243,111.445 338.112,112.35 335.998,113.284 333.901,114.247 331.822,115.238 329.76,116.259 327.717,117.308 325.694,118.386 323.689,119.491 321.706,120.624 319.742,121.784 317.8,122.972 315.879,124.186 313.98,125.427 312.104,126.693 310.251,127.986 308.421,129.305 306.615,130.648 304.834,132.017 303.077,133.41 301.346,134.827 299.64,136.268 297.96,137.732 296.307,139.22 294.681,140.73 293.082,142.263 291.511,143.818 289.968,145.394 288.453,146.992 286.968,148.61 285.511,150.249 284.084,151.907 282.688,153.586 281.321,155.283 279.985,157 278.681,158.734 277.407,160.487 276.166,162.256 274.956,164.043 273.778,165.847 272.633,167.667 271.521,169.502 270.441,171.353 269.396,173.217 268.383,175.097 267.405,176.99 266.461,178.897 265.551,180.816 264.676,182.748 263.836,184.692 263.03,186.647 262.26,188.613 261.525,190.59 260.826,192.576 260.163,194.572 259.536,196.577 258.944,198.59 258.389,200.612 257.871,202.641 257.388,204.676 256.943,206.718 256.534,208.767 256.162,210.82 255.827,212.878 255.529,214.941 255.268,217.008 255.044,219.078 254.857,221.151 254.708,223.226 254.596,225.303 254.521,227.381 254.484,229.46 254.484,231.54 254.521,233.619 254.596,235.697 254.708,237.774 254.857,239.849 255.044,241.922 255.268,243.992 255.529,246.059 255.827,248.122 256.162,250.18 256.534,252.233 256.943,254.281 257.388,256.324 257.871,258.359 258.389,260.388 258.944,262.409 259.536,264.423 260.163,266.428 260.826,268.424 261.525,270.41 262.26,272.387 263.03,274.353 263.836,276.308 264.676,278.251 265.551,280.184 266.461,282.103 267.405,284.01 268.383,285.903 269.396,287.782 270.441,289.647 271.521,291.498 272.633,293.333 273.778,295.153 274.956,296.957 276.166,298.743 277.407,300.513 278.681,302.266 279.985,304 281.321,305.717 282.688,307.414 284.084,309.092 285.511,310.751 286.968,312.39 288.453,314.008 289.968,315.606 291.511,317.182 293.082,318.737 294.681,320.27 296.307,321.78 297.96,323.268 299.64,324.732 301.346,326.173 303.077,327.59 304.834,328.983 306.615,330.352 308.421,331.695 310.251,333.014 312.104,334.307 313.98,335.573 315.879,336.814 317.8,338.028 319.742,339.216 321.706,340.376 323.689,341.509 325.694,342.614 327.717,343.691 329.76,344.741 331.822,345.761 333.901,346.753 335.998,347.716 338.112,348.65 340.243,349.554 342.39,350.429 344.551,351.274 346.729,352.088 348.919,352.873 351.125,353.626 353.343,354.35 355.574,355.042 357.817,355.703 360.072,356.333 362.338,356.932 364.615,357.499 366.901,358.035 369.196,358.539 371.501,359.01 373.813,359.45 376.133,359.858 378.46,360.233 380.794,360.576 383.134,360.887 385.479,361.165 387.828,361.411 390.182,361.624 392.539,361.804 394.899,361.952 397.262,362.066 399.626,362.148 401.991,362.198 404.357,362.214"/>
<polyline fill="none" stroke="#00ffff" stroke-width="0.5" stroke-dasharray="1,1,1,1,1,1,1,1,1,1" points="404.357,164.643 403.174,164.651 401.992,164.676 400.81,164.717 399.628,164.774 398.448,164.848 397.27,164.938 396.093,165.044 394.918,165.167 393.746,165.307 392.576,165.462 391.409,165.633 390.245,165.821 389.085,166.025 387.929,166.245 386.777,166.481 385.629,166.732 384.486,167 383.348,167.284 382.215,167.583 381.087,167.898 379.966,168.229 378.85,168.575 377.741,168.937 376.638,169.313 375.543,169.706 374.454,170.113 373.374,170.536 372.3,170.973 371.235,171.425 370.178,171.892 369.129,172.373 368.089,172.869 367.059,173.379 366.037,173.904 365.025,174.443 364.023,174.996 363.031,175.562 362.05,176.142 361.079,176.736 360.118,177.343 359.169,177.963 358.23,178.597 357.304,179.243 356.389,179.902 355.486,180.574 354.596,181.258 353.717,181.955 352.852,182.664 351.999,183.384 351.159,184.116 350.332,184.86 349.519,185.615 348.72,186.381 347.934,187.159 347.163,187.947 346.405,188.746 345.663,189.555 344.934,190.375 344.221,191.204 343.522,192.043 342.839,192.892 342.171,193.75 341.519,194.617 340.882,195.493 340.261,196.378 339.656,197.271 339.067,198.173 338.495,199.083 337.939,200.001 337.399,200.926 336.876,201.859 336.37,202.798 335.881,203.745 335.409,204.698 334.954,205.658 334.517,206.624 334.097,207.596 333.694,208.574 333.309,209.557 332.941,210.545 332.592,211.538 332.26,212.536 331.946,213.539 331.651,214.545 331.373,215.556 331.114,216.57 330.873,217.588 330.65,218.609 330.446,219.633 330.26,220.66 330.092,221.689 329.943,222.721 329.812,223.754 329.701,224.789 329.607,225.825 329.533,226.863 329.477,227.901 329.439,228.94 329.421,229.98 329.421,231.02 329.439,232.06 329.477,233.099 329.533,234.137 329.607,235.175 329.701,236.211 329.812,237.246 329.943,238.279 330.092,239.311 330.26,240.34 330.446,241.367 330.65,242.391 330.873,243.412 331.114,244.43 331.373,245.444 331.651,246.455 331.946,247.461 332.26,248.464 332.592,249.462 332.941,250.455 333.309,251.443 333.694,252.426 334.097,253.404 334.517,254.376 334.954,255.342 335.409,256.301 335.881,257.255 336.37,258.202 336.876,259.141 337.399,260.074 337.939,260.999 338.495,261.917 339.067,262.827 339.656,263.728 340.261,264.622 340.882,265.507 341.519,266.383 342.171,267.25 342.839,268.108 343.522,268.957 344.221,269.796 344.934,270.625 345.663,271.445 346.405,272.254 347.163,273.053 347.934,273.841 348.72,274.619 349.519,275.385 350.332,276.14 351.159,276.884 351.999,277.616 352.852,278.336 353.717,279.045 354.596,279.742 355.486,280.426 356.389,281.098 357.304,281.757 358.23,282.403 359.169,283.037 360.118,283.657 361.079,284.264 362.05,284.858 363.031,285.438 364.023,286.004 365.025,286.557 366.037,287.096 367.059,287.621 368.089,288.131 369.129,288.626 370.178,289.108 371.235,289.575 372.3,290.027 373.374,290.464 374.454,290.887 375.543,291.294 376.638,291.687 377.741,292.063 378.85,292.425 379.966,292.771 381.087,293.102 382.215,293.417 383.348,293.716 384.486,294 385.629,294.268 386.777,294.519 387.929,294.755 389.085,294.975 390.245,295.179 391.409,295.367 392.576,295.538 393.746,295.693 394.918,295.833 396.093,295.956 397.27,296.062 398.448,296.152 399.628,296.226 400.81,296.283 401.992,296.324 403.174,296.349 404.357,296.357"/>
<polyline fill="none" stroke="#00ffff" stroke-width="0.5" stroke-dasharray="1,1,1,1,1,1,1,1,1,1" points="404.357,230.5 404.357,230.5 404.357,230.5 404.357,230.5 404.357,230.5 404.357,230.5 404.357,230.5 404.357,230.5 404.357,230.5 404.357,230.5 404.357,230.5 404.357,230.5 404.357,230.5 404.357,230.5 404.357,230.5 404.357,230.5 404.357,230.5 404.357,230.5 404.357,230.5 404.357,230.5 404.357,230.5 404.357,230.5 404.357,230.5 404.357,230.5 404.357,230.5 404.357,230.5 404.357,230.5 404.357,230.5 404.357,230.5 404.357,230.5 404.357,230.5 404.357,230.5 404.357,230.5 404.357,230.5 404.357,230.5 404.357,230.5 404.357,230.5 404.357,230.5 404.357,230.5 404.357,230.5 404.357,230.5 404.357,230.5 404.357,230.5 404.357,230.5 404.357,230.5 404.357,230.5 404.357,230.5 404.357,230.5 404.357,230.5 404.357,230.5 404.357,230.5 404.357,230.5 404.357,230.5 404.357,230.5 404.357,230.5 404.357,230.5 404.357,230.5 404.357,230.5 404.357,230.5 404.357,230.5 404.357,230.5 404.357,230.5 404.357,230.5 404.357,230.5 404.357,230.5 404.357,230.5 404.357,230.5 404.357,230.5 404.357,230.5 404.357,230.5 404.357,230.5 404.357,230.5 404.357,230.5 404.357,230.5 404.357,230.5 404.357,230.5 404.357,230.5 404.357,230.5 404.357,230.5 404.357,230.5 404.357,230.5 404.357,230.5 404.357,230.5 404.357,230.5 404.357,230.5 404.357,230.5 404.357,230.5 404.357,230.5 404.357,230.5 404.357,230.5 404.357,230.5 404.357,230.5 404.357,230.5 404.357,230.5 404.357,230.5 404.357,230.5 404.357,230.5 404.357,230.5 404.357,230.5 404.357,230.5 404.357,230.5 404.357,230.5 404.357,230.5 404.357,230.5 404.357,230.5 404.357,230.5 404.357,230.5 404.357,230.5 404.357,230.5 404.357,230.5 404.357,230.5 404.357,230.5 404.357,230.5 404.357,230.5 404.357,230.5 404.357,230.5 404.357,230.5 404.357,230.5 404.357,230.5 404.357,230.5 404.357,230.5 404.357,230.5 404.357,230.5 404.357,230.5 404.357,230.5 404.357,230.5 404.357,230.5 404.357,230.5 404.357,230.5 404.357,230.5 404.357,230.5 404.357,230.5 404.357,230.5 404.357,230.5 404.357,230.5 404.357,230.5 404.357,230.5 404.357,230.5 404.357,230.5 404.357,230.5 404.357,230.5 404.357,230.5 404.357,230.5 404.357,230.5 404.357,230.5 404.357,230.5 404.357,230.5 404.357,230.5 404.357,230.5 404.357,230.5 404.357,230.5 404.357,230.5 404.357,230.5 404.357,230.5 404.357,230.5 404.357,230.5 404.357,230.5 404.357,230.5 404.357,230.5 404.357,230.5 404.357,230.5 404.357,230.5 404.357,230.5 404.357,230.5 404.357,230.5 404.357,230.5 404.357,230.5 404.357,230.5 404.357,230.5 404.357,230.5 404.357,230.5 404.357,230.5 404.357,230.5 404.357,230.5 404.357,230.5 404.357,230.5 404.357,230.5 404.357,230.5 404.357,230.5 404.357,230.5 404.357,230.5 404.357,230.5 404.357,230.5 404.357,230.5 404.357,230.5 404.357,230.5 404.357,230.5 404.357,230.5 404.357,230.5 404.357,230.5 404.357,230.5 404.357,230.5 404.357,230.5 404.357,230.5 404.357,230.5 404.357,230.5 404.357,230.5 404.357,230.5 404.357,230.5 404.357,230.5"/>
<polygon fill="#ffffff" points="335,230 339,226 343,230"/>
<polygon fill="#ffffff" points="335,230 343,230 339,234"/>
<polyline fill="none" stroke="#000000" stroke-width="0.5" points="335,230 339,226 343,230 339,234 335,230"/>
<polyline fill="none" stroke="#000000" stroke-width="0.5" points="400,226 408,234"/>
<polyline fill="none" stroke="#000000" stroke-width="0.5" points="400,234 408,226"/>
<polyline fill="none" stroke="#000000" stroke-width="0.5" points="400,226 408,234"/>
<polyline fill="none" stroke="#000000" stroke-width="0.5" points="400,234 408,226"/>
<polyline fill="none" stroke="#000000" stroke-width="0.5" points="368,115 376,123"/>
<polyline fill="none" stroke="#000000" stroke-width="0.5" points="368,123 376,115"/>
<polyline fill="none" stroke="#000000" stroke-width="0.5" points="368,338 376,346"/>
<polyline fill="none" stroke="#000000" stroke-width="0.5" points="368,346 376,338"/>
<polyline fill="none" stroke="#000000" stroke-width="0.5" points="138,226 146,234"/>
<polyline fill="none" stroke="#000000" stroke-width="0.5" points="138,234 146,226"/>
<polyline fill="none" stroke="#000000" stroke-width="0.5" points="338.786,230.5 535.504,57.6216"/>
<polyline fill="none" stroke="#000000" stroke-width="0.5" points="338.786,230.5 142.067,57.6216"/>
<polyline fill="none" stroke="#000000" stroke-width="0.5" points="338.786,230.5 142.067,403.378"/>
<polyline fill="none" stroke="#000000" stroke-width="0.5" points="338.786,230.5 535.504,403.378"/>
<polyline fill="none" stroke="#000000" stroke-width="0.5" points="404.357,230.5 404.351,229.411 404.346,228.96 404.34,228.614 404.328,228.065 404.316,227.618 404.305,227.231 404.281,226.571 404.257,226.005 404.234,225.502 404.21,225.045 404.187,224.623 404.14,223.856 404.092,223.168 404.044,222.537 403.997,221.951 403.949,221.401 403.901,220.881 403.853,220.386 403.805,219.913 403.757,219.459 403.708,219.021 403.611,218.189 403.514,217.406 403.415,216.662 403.316,215.951 403.217,215.27 403.117,214.614 403.017,213.98 402.916,213.365 402.814,212.768 402.712,212.187 402.609,211.62 402.506,211.065 402.401,210.523 402.297,209.992 402.191,209.47 402.085,208.957 401.979,208.453 401.872,207.957 401.764,207.467 401.655,206.985 401.545,206.509 401.436,206.039 401.324,205.574 401.213,205.114 401.101,204.659 400.987,204.208 400.873,203.762 400.758,203.319 400.643,202.88 400.526,202.444 400.409,202.012 400.29,201.583 400.051,200.731 399.808,199.89 399.561,199.057 399.309,198.23 399.053,197.41 398.793,196.594 398.527,195.781 398.257,194.971 397.981,194.163 397.699,193.354 397.412,192.546 397.117,191.737 396.815,190.925 396.506,190.11 396.189,189.291 395.864,188.465 395.528,187.634 395.183,186.795 394.826,185.946 394.457,185.087 394.073,184.216 393.675,183.332 393.259,182.431 392.824,181.512 392.367,180.573 391.884,179.61 391.37,178.622 390.821,177.602 390.228,176.547 389.58,175.452 388.864,174.311 388.554,173.84 388.227,173.361 387.882,172.873 387.517,172.375 387.127,171.87 386.711,171.355 386.263,170.833 385.778,170.306 385.252,169.775 384.679,169.247 384.052,168.728 383.369,168.228 382.629,167.759 381.838,167.336 381.008,166.971 380.156,166.668 379.3,166.431 378.456,166.251 377.634,166.123 376.841,166.035 376.079,165.98 375.347,165.951 374.646,165.942 373.974,165.949 373.327,165.969 372.705,165.998 372.106,166.034 371.527,166.077 370.967,166.124 370.425,166.175 369.899,166.23 369.388,166.287 368.891,166.345 367.936,166.467 367.025,166.592 366.154,166.72 365.319,166.849 364.516,166.978 363.741,167.107 362.992,167.236 362.267,167.365 361.563,167.492 360.878,167.619 360.213,167.744 359.564,167.869 358.931,167.992 358.312,168.115 357.708,168.236 357.116,168.357 356.536,168.477 355.968,168.595 355.41,168.713 354.863,168.83 354.325,168.946 353.796,169.062 353.276,169.176 352.765,169.291 352.261,169.404 351.765,169.517 351.276,169.628 350.794,169.74 349.85,169.961 348.93,170.181 348.032,170.399 347.155,170.616 346.297,170.831 345.457,171.045 344.634,171.258 343.827,171.47 343.035,171.682 342.256,171.893 341.49,172.104 340.737,172.314 339.995,172.525 339.264,172.735 338.544,172.946 337.833,173.157 337.132,173.368 336.439,173.579 335.755,173.791 335.079,174.003 334.41,174.216 333.749,174.43 333.094,174.645 332.446,174.86 331.804,175.076 331.168,175.293 330.538,175.512 329.912,175.731 329.292,175.952 328.677,176.174 328.066,176.397 327.46,176.622 326.858,176.849 326.26,177.076 325.666,177.306 325.075,177.537 324.487,177.77 323.903,178.004 323.322,178.241 322.743,178.479 322.167,178.72 321.594,178.963 321.023,179.208 320.455,179.456 319.888,179.706 319.323,179.958 318.76,180.212 318.199,180.47 317.639,180.73 317.08,180.993 316.522,181.259 315.965,181.528 315.41,181.8 314.854,182.075 314.3,182.354 313.746,182.636 313.192,182.922 312.638,183.212 312.084,183.505 311.53,183.803 310.976,184.104 310.421,184.411 309.866,184.722 309.309,185.037 308.752,185.357 308.193,185.683 307.634,186.013 307.072,186.35 306.509,186.692 305.944,187.04 305.377,187.394 304.808,187.755 304.236,188.123 303.661,188.499 303.083,188.881 302.501,189.272 301.917,189.671 301.328,190.08 300.735,190.497 300.137,190.924 299.534,191.362 298.926,191.811 298.312,192.272 297.692,192.745 297.065,193.232 296.432,193.733 295.79,194.25 295.139,194.782 294.479,195.333 293.81,195.903 293.128,196.495 292.436,197.109 291.73,197.748 291.01,198.415 290.274,199.113 289.52,199.845 288.747,200.615 287.952,201.428 287.132,202.291 286.285,203.211 285.406,204.198 285.044,204.615 284.676,205.044 284.301,205.489 283.92,205.95 283.53,206.428 283.133,206.925 282.727,207.442 282.311,207.983 281.884,208.549 281.447,209.144 280.997,209.771 280.534,210.433 280.056,211.138 279.561,211.891 279.047,212.701 278.513,213.579 277.954,214.54 277.368,215.605 276.749,216.806 276.491,217.335 276.226,217.897 275.954,218.499 275.674,219.148 275.386,219.853 275.088,220.628 274.78,221.494 274.461,222.482 274.128,223.65 273.992,224.19 273.852,224.79 273.71,225.47 273.565,226.271 273.418,227.284 273.358,227.799 273.298,228.443 273.237,229.432 273.214,230.5 271.92,230.5 271.369,230.5 270.939,230.5 270.245,230.5 269.668,230.5 269.161,230.5 268.7,230.5 267.872,230.5 267.127,230.5 266.441,230.5 265.796,230.5 265.183,230.5 264.594,230.5 264.025,230.5 263.472,230.5 262.932,230.5 262.402,230.5 261.88,230.5 261.364,230.5 260.854,230.5 260.347,230.5 259.841,230.5 259.337,230.5 258.833,230.5 258.327,230.5 257.818,230.5 257.306,230.5 256.788,230.5 256.263,230.5 255.729,230.5 255.185,230.5 254.628,230.5 254.056,230.5 253.465,230.5 252.852,230.5 252.208,230.5 251.53,230.5 250.803,230.5 250.011,230.5 249.123,230.5 248.077,230.5 246.686,230.5 245.862,230.5 245.392,230.5 244.797,230.5 244.215,230.5 244.205,229.614 244.195,229.248 244.175,228.729 244.154,228.333 244.114,227.705 244.074,227.197 244.035,226.758 243.956,226.012 243.878,225.378 243.802,224.819 243.727,224.314 243.653,223.85 243.579,223.42 243.435,222.637 243.294,221.935 243.157,221.294 243.023,220.702 242.892,220.15 242.763,219.632 242.637,219.143 242.513,218.679 242.392,218.237 242.272,217.814 242.04,217.02 241.815,216.283 241.597,215.594 241.386,214.945 241.18,214.332 240.98,213.75 240.785,213.194 240.595,212.663 240.409,212.154 240.228,211.664 240.05,211.192 239.876,210.736 239.706,210.295 239.539,209.869 239.375,209.455 239.055,208.661 238.747,207.909 238.449,207.193 238.159,206.51 237.878,205.855 237.604,205.226 237.338,204.621 237.079,204.038 236.825,203.474 236.578,202.928 236.335,202.399 236.098,201.885 235.866,201.386 235.638,200.9 235.415,200.427 235.195,199.966 234.979,199.515 234.768,199.076 234.56,198.646 234.354,198.225 234.153,197.813 233.954,197.41 233.566,196.626 233.188,195.872 232.82,195.145 232.462,194.441 232.112,193.76 231.771,193.1 231.437,192.458 231.11,191.835 230.79,191.229 230.476,190.638 230.168,190.062 229.866,189.499 229.569,188.949 229.277,188.412 228.99,187.887 228.708,187.372 228.43,186.868 228.156,186.374 227.886,185.89 227.621,185.415 227.359,184.948 227.1,184.489 226.845,184.039 226.594,183.596"/>
<polyline fill="none" stroke="#0000ff" stroke-width="0.5" points="404.357,230.5 404.351,231.589 404.346,232.04 404.34,232.386 404.328,232.935 404.316,233.382 404.305,233.768 404.281,234.429 404.257,234.995 404.234,235.498 404.21,235.955 404.187,236.377 404.14,237.144 404.092,237.832 404.044,238.463 403.997,239.049 403.949,239.599 403.901,240.119 403.853,240.614 403.805,241.087 403.757,241.541 403.708,241.979 403.611,242.811 403.514,243.594 403.415,244.338 403.316,245.048 403.217,245.73 403.117,246.386 403.017,247.02 402.916,247.635 402.814,248.232 402.712,248.813 402.609,249.38 402.506,249.934 402.401,250.477 402.297,251.008 402.191,251.53 402.085,252.043 401.979,252.547 401.872,253.043 401.764,253.533 401.655,254.015 401.545,254.491 401.436,254.961 401.324,255.426 401.213,255.886 401.101,256.341 400.987,256.792 400.873,257.238 400.758,257.681 400.643,258.12 400.526,258.556 400.409,258.988 400.29,259.417 400.051,260.269 399.808,261.11 399.561,261.943 399.309,262.77 399.053,263.59 398.793,264.406 398.527,265.219 398.257,266.029 397.981,266.837 397.699,267.645 397.412,268.454 397.117,269.263 396.815,270.075 396.506,270.89 396.189,271.709 395.864,272.535 395.528,273.366 395.183,274.205 394.826,275.054 394.457,275.913 394.073,276.784 393.675,277.668 393.259,278.569 392.824,279.488 392.367,280.427 391.884,281.389 391.37,282.378 390.821,283.398 390.228,284.453 389.58,285.548 388.864,286.689 388.554,287.16 388.227,287.639 387.882,288.127 387.517,288.625 387.127,289.13 386.711,289.645 386.263,290.167 385.778,290.694 385.252,291.225 384.679,291.753 384.052,292.272 383.369,292.772 382.629,293.241 381.838,293.664 381.008,294.029 380.156,294.332 379.3,294.569 378.456,294.749 377.634,294.877 376.841,294.965 376.079,295.02 375.347,295.049 374.646,295.058 373.974,295.051 373.327,295.031 372.705,295.002 372.106,294.966 371.527,294.923 370.967,294.876 370.425,294.825 369.899,294.77 369.388,294.713 368.891,294.655 367.936,294.533 367.025,294.408 366.154,294.28 365.319,294.151 364.516,294.022 363.741,293.893 362.992,293.764 362.267,293.635 361.563,293.508 360.878,293.381 360.213,293.256 359.564,293.131 358.931,293.008 358.312,292.885 357.708,292.764 357.116,292.643 356.536,292.523 355.968,292.405 355.41,292.287 354.863,292.17 354.325,292.054 353.796,291.938 353.276,291.823 352.765,291.709 352.261,291.596 351.765,291.483 351.276,291.372 350.794,291.26 349.85,291.038 348.93,290.819 348.032,290.601 347.155,290.384 346.297,290.169 345.457,289.955 344.634,289.742 343.827,289.53 343.035,289.318 342.256,289.107 341.49,288.896 340.737,288.686 339.995,288.475 339.264,288.265 338.544,288.054 337.833,287.843 337.132,287.632 336.439,287.421 335.755,287.209 335.079,286.997 334.41,286.784 333.749,286.57 333.094,286.355 332.446,286.14 331.804,285.924 331.168,285.707 330.538,285.488 329.912,285.269 329.292,285.048 328.677,284.826 328.066,284.603 327.46,284.378 326.858,284.151 326.26,283.924 325.666,283.694 325.075,283.463 324.487,283.23 323.903,282.996 323.322,282.759 322.743,282.52 322.167,282.28 321.594,282.037 321.023,281.792 320.455,281.544 319.888,281.294 319.323,281.042 318.76,280.788 318.199,280.53 317.639,280.27 317.08,280.007 316.522,279.741 315.965,279.472 315.41,279.2 314.854,278.925 314.3,278.646 313.746,278.364 313.192,278.078 312.638,277.788 312.084,277.495 311.53,277.197 310.976,276.896 310.421,276.589 309.866,276.278 309.309,275.963 308.752,275.643 308.193,275.317 307.634,274.987 307.072,274.65 306.509,274.308 305.944,273.96 305.377,273.606 304.808,273.245 304.236,272.877 303.661,272.501 303.083,272.119 302.501,271.728 301.917,271.329 301.328,270.92 300.735,270.503 300.137,270.076 299.534,269.638 298.926,269.189 298.312,268.728 297.692,268.255 297.065,267.768 296.432,267.267 295.79,266.75 295.139,266.218 294.479,265.667 293.81,265.096 293.128,264.505 292.436,263.891 291.73,263.251 291.01,262.585 290.274,261.887 289.52,261.155 288.747,260.385 287.952,259.572 287.132,258.709 286.285,257.789 285.406,256.801 285.044,256.385 284.676,255.955 284.301,255.511 283.92,255.05 283.53,254.572 283.133,254.075 282.727,253.558 282.311,253.017 281.884,252.451 281.447,251.856 280.997,251.229 280.534,250.567 280.056,249.862 279.561,249.109 279.047,248.299 278.513,247.421 277.954,246.46 277.368,245.395 276.749,244.194 276.491,243.665 276.226,243.103 275.954,242.501 275.674,241.852 275.386,241.147 275.088,240.372 274.78,239.506 274.461,238.518 274.128,237.35 273.992,236.81 273.852,236.21 273.71,235.53 273.565,234.729 273.418,233.716 273.358,233.201 273.298,232.557 273.237,231.568 273.214,230.5 274.459,230.5 274.961,230.5 275.342,230.5 275.937,230.5 276.413,230.5 276.819,230.5 277.178,230.5 277.801,230.5 278.336,230.5 278.81,230.5 279.239,230.5 279.633,230.5 279.999,230.5 280.34,230.5 280.662,230.5 280.966,230.5 281.255,230.5 281.531,230.5 281.795,230.5 282.049,230.5 282.292,230.5 282.528,230.5 282.755,230.5 282.975,230.5 283.188,230.5 283.396,230.5 283.597,230.5 283.792,230.5 283.983,230.5 284.169,230.5 284.35,230.5 284.527,230.5 284.701,230.5 284.87,230.5 285.036,230.5 285.198,230.5 285.357,230.5 285.514,230.5 285.667,230.5 285.817,230.5 285.965,230.5 286.11,230.5 286.168,230.5 286.19,230.5 286.209,230.5 286.215,230.5 286.233,230.5 286.251,230.5 286.287,230.5 286.323,230.5 286.395,230.5 286.466,230.5 286.536,230.5 286.675,230.5 286.812,230.5 286.947,230.5 287.08,230.5 287.21,230.5 287.339,230.5 287.591,230.5 287.836,230.5 288.075,230.5 288.308,230.5 288.535,230.5 288.757,230.5 288.973,230.5 289.185,230.5 289.392,230.5 289.595,230.5 289.989,230.5 290.367,230.5 290.731,230.5 291.083,230.5 291.423,230.5 291.752,230.5 292.071,230.5 292.38,230.5 292.681,230.5 292.973,230.5 293.258,230.5 293.535,230.5 293.805,230.5 294.069,230.5 294.326,230.5 294.824,230.5 295.3,230.5 295.757,230.5 296.195,230.5 296.618,230.5 297.025,230.5 297.419,230.5 297.799,230.5 298.167,230.5 298.524,230.5 298.871,230.5 299.207,230.5 299.534,230.5 299.852,230.5 300.162,230.5 300.463,230.5 300.757,230.5 301.044,230.5 301.325,230.5 301.598,230.5 301.866,230.5 302.127,230.5 302.634,230.5 303.12,230.5 303.586,230.5 304.035,230.5 304.468,230.5 304.885,230.5 305.288,230.5 305.678,230.5 306.055,230.5 306.42,230.5 306.774,230.5 307.118,230.5 307.452,230.5 307.777,230.5 308.092,230.5 308.4,230.5 308.699,230.5 308.991,230.5 309.275,230.5 309.552,230.5 309.823,230.5 310.087,230.5 310.346,230.5 310.598,230.5"/>
<polyline fill="none" stroke="#00ff00" stroke-width="0.5" points="371.571,118.91 371.575,118.92 371.579,118.93 371.583,118.94 371.59,118.96 371.597,118.98 371.604,119.001 371.619,119.042 371.634,119.082 371.648,119.123 371.664,119.164 371.678,119.205 371.708,119.286 371.738,119.368 371.768,119.451 371.797,119.533 371.828,119.616 371.858,119.698 371.888,119.781 371.919,119.865 371.949,119.948 371.98,120.032 372.042,120.2 372.104,120.369 372.167,120.539 372.23,120.709 372.294,120.881 372.358,121.054 372.423,121.228 372.488,121.402 372.554,121.577 372.62,121.754 372.687,121.932 372.754,122.11 372.823,122.29 372.891,122.47 372.96,122.652 373.03,122.835 373.101,123.019 373.172,123.204 373.244,123.39 373.316,123.577 373.389,123.766 373.462,123.956 373.537,124.146 373.612,124.339 373.688,124.532 373.765,124.727 373.842,124.923 373.92,125.121 373.999,125.32 374.079,125.52 374.159,125.722 374.24,125.925 374.406,126.335 374.575,126.752 374.748,127.176 374.924,127.605 375.105,128.042 375.291,128.487 375.48,128.939 375.675,129.399 375.875,129.867 376.082,130.345 376.293,130.831 376.511,131.328 376.736,131.834 376.968,132.353 377.208,132.882 377.457,133.424 377.714,133.98 377.982,134.55 378.261,135.135 378.552,135.737 378.857,136.356 379.176,136.995 379.513,137.655 379.869,138.339 380.247,139.047 380.65,139.785 381.084,140.553 381.553,141.356 382.066,142.2 382.632,143.087 383.268,144.025 383.546,144.416 383.84,144.815 384.152,145.224 384.485,145.643 384.842,146.071 385.226,146.508 385.641,146.954 386.092,147.406 386.586,147.861 387.126,148.314 387.72,148.759 388.371,149.186 389.078,149.581 389.836,149.932 390.633,150.226 391.452,150.456 392.274,150.624 393.085,150.732 393.874,150.792 394.634,150.81 395.363,150.796 396.061,150.757 396.729,150.698 397.368,150.624 397.98,150.538 398.569,150.443 399.135,150.341 399.68,150.233 400.206,150.121 400.714,150.005 401.207,149.888 401.684,149.768 402.147,149.646 403.035,149.4 403.877,149.153 404.68,148.905 405.446,148.657 406.181,148.411 406.887,148.167 407.567,147.924 408.224,147.684 408.858,147.447 409.473,147.211 410.069,146.979 410.648,146.749 411.211,146.522 411.759,146.297 412.293,146.075 412.814,145.855 413.323,145.637 413.821,145.422 414.307,145.209 414.783,144.999 415.249,144.791 415.705,144.585 416.153,144.381 416.592,144.179 417.023,143.979 417.446,143.781 417.862,143.585 418.271,143.391 419.068,143.008 419.841,142.632 420.589,142.263 421.316,141.9 422.023,141.543 422.711,141.192 423.381,140.847 424.035,140.506 424.672,140.171 425.295,139.841 425.904,139.516 426.5,139.195 427.082,138.879 427.653,138.567 428.212,138.259 428.761,137.955 429.298,137.655 429.827,137.359 430.345,137.066 430.854,136.777 431.354,136.491 431.847,136.208 432.331,135.929 432.807,135.652 433.275,135.379 433.736,135.108 434.191,134.841 434.639,134.576 435.08,134.314 435.515,134.054 435.943,133.797 436.366,133.543 436.783,133.291 437.195,133.042 437.601,132.794 438.002,132.549 438.398,132.306 438.789,132.065 439.176,131.827 439.558,131.591 439.935,131.356 440.308,131.124 440.676,130.893 441.041,130.665 441.401,130.438 441.757,130.213 442.11,129.99 442.458,129.769 442.804,129.549 443.146,129.331 443.484,129.115 443.818,128.9 444.15,128.687 444.478,128.475 444.803,128.265 445.125,128.057 445.444,127.85 445.76,127.644 446.073,127.44 446.383,127.237 446.69,127.036 446.995,126.836 447.297,126.638 447.596,126.44 447.893,126.244 448.187,126.049 448.479,125.856 448.768,125.664 449.055,125.473 449.34,125.283 449.622,125.094 449.902,124.906 450.18,124.72 450.456,124.535 450.729,124.351 451.001,124.167 451.271,123.986 451.538,123.805 451.804,123.625 452.067,123.446 452.329,123.268 452.589,123.091 452.847,122.916 453.103,122.741 453.357,122.566 453.609,122.394 453.86,122.222 454.109,122.05 454.357,121.88 454.603,121.711 454.847,121.542 455.089,121.375 455.33,121.208 455.57,121.042 455.808,120.877 456.044,120.713 456.279,120.55 456.512,120.388 456.744,120.226 456.975,120.065 457.204,119.905 457.295,119.841 457.386,119.777 457.477,119.714 457.567,119.65 457.658,119.587 457.748,119.524 457.838,119.461 457.928,119.398 458.017,119.335 458.106,119.272 458.196,119.209 458.285,119.147 458.374,119.084 458.462,119.022 458.55,118.96 458.638,118.898 458.726,118.836 458.814,118.774 458.901,118.713 458.936,118.688 458.971,118.664 459.006,118.639 459.041,118.614 459.076,118.59 459.11,118.565 459.145,118.541 459.18,118.516 459.214,118.492 459.229,118.482 459.242,118.472 459.256,118.462 459.27,118.453 459.284,118.443 459.289,118.439 459.295,118.435 459.3,118.431 459.302,118.43 459.305,118.428 459.307,118.426 459.309,118.425 459.313,118.422 459.318,118.418 459.322,118.416 459.327,118.412 459.335,118.406 459.344,118.4 459.353,118.394 459.362,118.387 459.371,118.381 459.38,118.375 459.389,118.369 459.397,118.362 459.406,118.356 459.415,118.35 459.424,118.344 459.433,118.337 459.441,118.331 459.45,118.325 459.459,118.318 459.468,118.312 459.477,118.306 459.486,118.3 459.495,118.293 459.503,118.288 459.512,118.281 459.521,118.275 459.53,118.269 459.539,118.263 459.547,118.256 459.556,118.25 459.565,118.244 459.574,118.238 459.583,118.231 459.591,118.225 459.6,118.219 459.609,118.213 459.618,118.207 459.626,118.2 459.635,118.194 459.639,118.191 459.64,118.19 459.641,118.19 459.642,118.189 459.643,118.189 459.644,118.188 459.646,118.187 459.648,118.185 459.653,118.182 459.657,118.178 459.662,118.175 459.671,118.169 459.68,118.163 459.689,118.156 459.698,118.15 459.707,118.144 459.716,118.137 459.733,118.125 459.751,118.112 459.77,118.099 459.787,118.086 459.805,118.074 459.823,118.061 459.841,118.048 459.859,118.036 459.877,118.023 459.895,118.01 459.93,117.985 459.966,117.959 460.001,117.935 460.037,117.909 460.073,117.884 460.108,117.859 460.144,117.833 460.179,117.808 460.215,117.783 460.25,117.758 460.286,117.733 460.321,117.708 460.356,117.683 460.392,117.658 460.427,117.633 460.497,117.583 460.567,117.533 460.637,117.483 460.708,117.433 460.777,117.383 460.847,117.333 460.917,117.284 460.986,117.234 461.056,117.185 461.125,117.136 461.194,117.086 461.263,117.037 461.332,116.988 461.4,116.939 461.469,116.89 461.538,116.841 461.606,116.792 461.674,116.743 461.743,116.694 461.811,116.646 461.878,116.597 461.946,116.548 462.082,116.452 462.216,116.355 462.351,116.259 462.485,116.163 462.618,116.067 462.751,115.971 462.884,115.876 463.016,115.781 463.147,115.686 463.279,115.592 463.409,115.498 463.54,115.403 463.669,115.31 463.799,115.216 463.928,115.123 464.057,115.03 464.185,114.938 464.313,114.845 464.44,114.752 464.567,114.661 464.694,114.569 464.82,114.478 464.946,114.386 465.072,114.295"/>
<polyline fill="none" stroke="#00ffff" stroke-width="0.5" points="371.571,342.09 371.575,342.08 371.579,342.07 371.583,342.06 371.59,342.04 371.597,342.02 371.604,341.999 371.619,341.958 371.634,341.918 371.648,341.877 371.664,341.836 371.678,341.795 371.708,341.714 371.738,341.632 371.768,341.549 371.797,341.467 371.828,341.384 371.858,341.302 371.888,341.219 371.919,341.135 371.949,341.052 371.98,340.968 372.042,340.8 372.104,340.631 372.167,340.461 372.23,340.291 372.294,340.119 372.358,339.946 372.423,339.772 372.488,339.598 372.554,339.422 372.62,339.246 372.687,339.068 372.754,338.89 372.823,338.71 372.891,338.53 372.96,338.348 373.03,338.165 373.101,337.981 373.172,337.796 373.244,337.61 373.316,337.423 373.389,337.234 373.462,337.044 373.537,336.854 373.612,336.661 373.688,336.468 373.765,336.273 373.842,336.077 373.92,335.879 373.999,335.68 374.079,335.48 374.159,335.278 374.24,335.075 374.406,334.665 374.575,334.248 374.748,333.824 374.924,333.395 375.105,332.958 375.291,332.513 375.48,332.061 375.675,331.601 375.875,331.133 376.082,330.655 376.293,330.169 376.511,329.672 376.736,329.166 376.968,328.647 377.208,328.118 377.457,327.576 377.714,327.02 377.982,326.45 378.261,325.865 378.552,325.263 378.857,324.644 379.176,324.005 379.513,323.345 379.869,322.661 380.247,321.953 380.65,321.215 381.084,320.447 381.553,319.643 382.066,318.8 382.632,317.913 383.268,316.975 383.546,316.584 383.84,316.185 384.152,315.776 384.485,315.357 384.842,314.929 385.226,314.492 385.641,314.046 386.092,313.594 386.586,313.139 387.126,312.686 387.72,312.241 388.371,311.814 389.078,311.419 389.836,311.068 390.633,310.774 391.452,310.544 392.274,310.376 393.085,310.268 393.874,310.208 394.634,310.19 395.363,310.204 396.061,310.243 396.729,310.302 397.368,310.376 397.98,310.462 398.569,310.557 399.135,310.659 399.68,310.767 400.206,310.879 400.714,310.995 401.207,311.112 401.684,311.232 402.147,311.354 403.035,311.6 403.877,311.847 404.68,312.095 405.446,312.343 406.181,312.589 406.887,312.833 407.567,313.076 408.224,313.316 408.858,313.553 409.473,313.789 410.069,314.021 410.648,314.251 411.211,314.478 411.759,314.703 412.293,314.925 412.814,315.145 413.323,315.363 413.821,315.578 414.307,315.791 414.783,316.001 415.249,316.209 415.705,316.415 416.153,316.619 416.592,316.821 417.023,317.021 417.446,317.219 417.862,317.415 418.271,317.609 419.068,317.992 419.841,318.368 420.589,318.737 421.316,319.1 422.023,319.457 422.711,319.808 423.381,320.153 424.035,320.494 424.672,320.829 425.295,321.159 425.904,321.484 426.5,321.805 427.082,322.121 427.653,322.433 428.212,322.741 428.761,323.045 429.298,323.345 429.827,323.641 430.345,323.934 430.854,324.223 431.354,324.509 431.847,324.792 432.331,325.071 432.807,325.348 433.275,325.621 433.736,325.892 434.191,326.159 434.639,326.424 435.08,326.686 435.515,326.946 435.943,327.203 436.366,327.457 436.783,327.709 437.195,327.958 437.601,328.206 438.002,328.451 438.398,328.694 438.789,328.935 439.176,329.173 439.558,329.409 439.935,329.644 440.308,329.876 440.676,330.107 441.041,330.335 441.401,330.562 441.757,330.787 442.11,331.01 442.458,331.231 442.804,331.451 443.146,331.669 443.484,331.885 443.818,332.1 444.15,332.313 444.478,332.525 444.803,332.735 445.125,332.943 445.444,333.15 445.76,333.355 446.073,333.56 446.383,333.763 446.69,333.964 446.995,334.164 447.297,334.362 447.596,334.56 447.893,334.756 448.187,334.951 448.479,335.144 448.768,335.336 449.055,335.527 449.34,335.717 449.622,335.906 449.902,336.093 450.18,336.28 450.456,336.465 450.729,336.649 451.001,336.833 451.271,337.014 451.538,337.195 451.804,337.375 452.067,337.554 452.329,337.732 452.589,337.909 452.847,338.084 453.103,338.259 453.357,338.433 453.609,338.606 453.86,338.778 454.109,338.949 454.357,339.12 454.603,339.289 454.847,339.458 455.089,339.625 455.33,339.792 455.57,339.958 455.808,340.123 456.044,340.287 456.279,340.45 456.512,340.612 456.744,340.774 456.975,340.935 457.204,341.095 457.295,341.159 457.386,341.223 457.477,341.286 457.567,341.35 457.658,341.413 457.748,341.476 457.838,341.539 457.928,341.602 458.017,341.665 458.106,341.728 458.196,341.791 458.285,341.853 458.374,341.916 458.462,341.978 458.55,342.04 458.638,342.102 458.726,342.164 458.814,342.226 458.901,342.287 458.936,342.312 458.971,342.336 459.006,342.361 459.041,342.386 459.076,342.41 459.11,342.435 459.145,342.459 459.18,342.484 459.214,342.508 459.229,342.518 459.242,342.528 459.256,342.538 459.27,342.547 459.284,342.557 459.289,342.561 459.295,342.565 459.3,342.569 459.302,342.57 459.305,342.572 459.307,342.574 459.309,342.575 459.313,342.578 459.318,342.582 459.322,342.584 459.327,342.588 459.335,342.594 459.344,342.6 459.353,342.606 459.362,342.613 459.371,342.619 459.38,342.625 459.389,342.631 459.397,342.638 459.406,342.644 459.415,342.65 459.424,342.656 459.433,342.663 459.441,342.669 459.45,342.675 459.459,342.681 459.468,342.688 459.477,342.694 459.486,342.7 459.495,342.707 459.503,342.712 459.512,342.719 459.521,342.725 459.53,342.731 459.539,342.737 459.547,342.744 459.556,342.75 459.565,342.756 459.574,342.762 459.583,342.769 459.591,342.775 459.6,342.781 459.609,342.787 459.618,342.793 459.626,342.8 459.635,342.806 459.639,342.809 459.64,342.81 459.641,342.81 459.642,342.811 459.643,342.811 459.644,342.812 459.646,342.813 459.648,342.815 459.653,342.818 459.657,342.822 459.662,342.825 459.671,342.831 459.68,342.837 459.689,342.844 459.698,342.85 459.707,342.856 459.716,342.863 459.733,342.875 459.751,342.888 459.77,342.901 459.787,342.914 459.805,342.926 459.823,342.939 459.841,342.952 459.859,342.964 459.877,342.977 459.895,342.99 459.93,343.015 459.966,343.041 460.001,343.065 460.037,343.091 460.073,343.116 460.108,343.141 460.144,343.167 460.179,343.191 460.215,343.217 460.25,343.242 460.286,343.267 460.321,343.292 460.356,343.317 460.392,343.342 460.427,343.367 460.497,343.417 460.567,343.467 460.637,343.517 460.708,343.567 460.777,343.617 460.847,343.667 460.917,343.716 460.986,343.766 461.056,343.815 461.125,343.864 461.194,343.914 461.263,343.963 461.332,344.012 461.4,344.061 461.469,344.11 461.538,344.159 461.606,344.208 461.674,344.257 461.743,344.306 461.811,344.354 461.878,344.403 461.946,344.452 462.082,344.548 462.216,344.645 462.351,344.741 462.485,344.837 462.618,344.933 462.751,345.029 462.884,345.124 463.016,345.219 463.147,345.313 463.279,345.408 463.409,345.502 463.54,345.596 463.669,345.69 463.799,345.784 463.928,345.877 464.057,345.97 464.185,346.062 464.313,346.155 464.44,346.247 464.567,346.339 464.694,346.431 464.82,346.522 464.946,346.614 465.072,346.705"/>
<polyline fill="none" stroke="#ff0000" stroke-width="0.5" points="142.071,230.5 142.076,230.5 142.08,230.5 142.084,230.5 142.093,230.5 142.102,230.5 142.111,230.5 142.128,230.5 142.146,230.5 142.164,230.5 142.181,230.5 142.199,230.5 142.234,230.5 142.269,230.5 142.305,230.5 142.34,230.5 142.375,230.5 142.41,230.5 142.446,230.5 142.481,230.5 142.517,230.5 142.552,230.5 142.623,230.5 142.693,230.5 142.765,230.5 142.836,230.5 142.907,230.5 142.979,230.5 143.05,230.5 143.122,230.5 143.193,230.5 143.265,230.5 143.336,230.5 143.408,230.5 143.48,230.5 143.553,230.5 143.625,230.5 143.697,230.5 143.77,230.5 143.842,230.5 143.915,230.5 143.987,230.5 144.06,230.5 144.133,230.5 144.206,230.5 144.279,230.5 144.352,230.5 144.425,230.5 144.499,230.5 144.572,230.5 144.646,230.5 144.72,230.5 144.793,230.5 144.867,230.5 145.015,230.5 145.164,230.5 145.313,230.5 145.462,230.5 145.612,230.5 145.762,230.5 145.913,230.5 146.064,230.5 146.215,230.5 146.367,230.5 146.52,230.5 146.672,230.5 146.826,230.5 146.979,230.5 147.134,230.5 147.288,230.5 147.443,230.5 147.599,230.5 147.755,230.5 147.912,230.5 148.068,230.5 148.226,230.5 148.384,230.5 148.542,230.5 148.701,230.5 148.86,230.5 149.021,230.5 149.181,230.5 149.342,230.5 149.503,230.5 149.665,230.5 149.73,230.5 149.795,230.5 149.86,230.5 149.925,230.5 149.99,230.5 150.056,230.5 150.121,230.5 150.187,230.5 150.252,230.5 150.318,230.5 150.384,230.5 150.449,230.5 150.515,230.5 150.582,230.5 150.647,230.5 150.713,230.5 150.78,230.5 150.846,230.5 150.913,230.5 150.979,230.5 151.046,230.5 151.112,230.5 151.179,230.5 151.246,230.5 151.313,230.5 151.38,230.5 151.447,230.5 151.515,230.5 151.582,230.5 151.649,230.5 151.717,230.5 151.784,230.5 151.852,230.5 151.988,230.5 152.124,230.5 152.26,230.5 152.397,230.5 152.534,230.5 152.671,230.5 152.81,230.5 152.948,230.5 153.086,230.5 153.226,230.5 153.365,230.5 153.505,230.5 153.645,230.5 153.786,230.5 153.927,230.5 154.068,230.5 154.21,230.5 154.352,230.5 154.495,230.5 154.638,230.5 154.781,230.5 154.925,230.5 155.07,230.5 155.214,230.5 155.359,230.5 155.505,230.5 155.651,230.5 155.798,230.5 156.092,230.5 156.389,230.5 156.687,230.5 156.986,230.5 157.288,230.5 157.592,230.5 157.897,230.5 158.205,230.5 158.515,230.5 158.826,230.5 159.14,230.5 159.456,230.5 159.774,230.5 160.094,230.5 160.417,230.5 160.741,230.5 161.068,230.5 161.397,230.5 161.729,230.5 162.062,230.5 162.399,230.5 162.738,230.5 163.08,230.5 163.424,230.5 163.771,230.5 164.12,230.5 164.472,230.5 164.827,230.5 165.185,230.5 165.546,230.5 165.91,230.5 166.276,230.5 166.646,230.5 167.019,230.5 167.396,230.5 167.775,230.5 168.158,230.5 168.544,230.5 168.934,230.5 169.327,230.5 169.724,230.5 170.125,230.5 170.53,230.5 170.938,230.5 171.351,230.5 171.768,230.5 172.189,230.5 172.614,230.5 173.044,230.5 173.478,230.5 173.917,230.5 174.361,230.5 174.81,230.5 175.264,230.5 175.723,230.5 176.188,230.5 176.658,230.5 177.133,230.5 177.615,230.5 178.103,230.5 178.597,230.5 179.097,230.5 179.604,230.5 180.118,230.5 180.639,230.5 181.167,230.5 181.704,230.5 182.248,230.5 182.799,230.5 183.36,230.5 183.93,230.5 184.508,230.5 185.097,230.5 185.695,230.5 186.304,230.5 186.923,230.5 187.554,230.5 188.197,230.5 188.852,230.5 189.521,230.5 190.202,230.5 190.899,230.5 191.611,230.5 192.339,230.5 193.083,230.5 193.847,230.5 194.629,230.5 195.432,230.5 196.256,230.5 197.104,230.5 197.978,230.5 198.878,230.5 199.808,230.5 200.77,230.5 201.766,230.5 202.801,230.5 203.877,230.5 205,230.5 206.176,230.5 207.409,230.5 208.709,230.5 209.25,230.5 209.804,230.5 210.372,230.5 210.954,230.5 211.552,230.5 212.167,230.5 212.8,230.5 213.452,230.5 214.125,230.5 214.822,230.5 215.543,230.5 216.292,230.5 217.071,230.5 217.884,230.5 218.734,230.5 219.627,230.5 220.569,230.5 221.566,230.5 222.629,230.5 223.075,230.5 223.535,230.5 224.009,230.5 224.499,230.5 225.005,230.5 225.531,230.5 226.078,230.5 226.647,230.5 227.243,230.5 227.489,230.5 227.74,230.5 227.996,230.5 228.258,230.5 228.525,230.5 228.634,230.5 228.744,230.5 228.854,230.5 228.896,230.5 228.94,230.5 228.985,230.5 229.03,230.5 229.121,230.5 229.212,230.5 229.304,230.5 229.397,230.5 229.585,230.5 229.776,230.5 229.971,230.5 230.169,230.5 230.371,230.5 230.576,230.5 230.786,230.5 231,230.5 231.218,230.5 231.441,230.5 231.67,230.5 231.904,230.5 232.143,230.5 232.389,230.5 232.641,230.5 232.9,230.5 233.167,230.5 233.442,230.5 233.726,230.5 234.02,230.5 234.325,230.5 234.642,230.5 234.972,230.5 235.316,230.5 235.678,230.5 236.06,230.5 236.463,230.5 236.894,230.5 237.356,230.5 237.859,230.5 238.412,230.5 239.033,230.5 239.753,230.5 240.634,230.5 241.862,230.5 242.621,230.5 243.066,230.5 243.64,230.5 244.215,230.5 244.205,231.386 244.195,231.752 244.175,232.271 244.154,232.667 244.114,233.295 244.074,233.803 244.035,234.242 243.956,234.988 243.878,235.622 243.802,236.181 243.727,236.686 243.653,237.15 243.579,237.58 243.435,238.363 243.294,239.065 243.157,239.706 243.023,240.298 242.892,240.85 242.763,241.368 242.637,241.857 242.513,242.321 242.392,242.763 242.272,243.186 242.04,243.98 241.815,244.717 241.597,245.406 241.386,246.055 241.18,246.668 240.98,247.25 240.785,247.806 240.595,248.337 240.409,248.846 240.228,249.336 240.05,249.808 239.876,250.264 239.706,250.705 239.539,251.131 239.375,251.545 239.055,252.339 238.747,253.091 238.449,253.807 238.159,254.49 237.878,255.145 237.604,255.774 237.338,256.379 237.079,256.962 236.825,257.526 236.578,258.072 236.335,258.601 236.098,259.115 235.866,259.614 235.638,260.1 235.415,260.573 235.195,261.034 234.979,261.484 234.768,261.924 234.56,262.354 234.354,262.775 234.153,263.187 233.954,263.59 233.566,264.374 233.188,265.127 232.82,265.855 232.462,266.559 232.112,267.24 231.771,267.9 231.437,268.542 231.11,269.165 230.79,269.771 230.476,270.362 230.168,270.938 229.866,271.501 229.569,272.051 229.277,272.588 228.99,273.113 228.708,273.628 228.43,274.132 228.156,274.625 227.886,275.11 227.621,275.585 227.359,276.052 227.1,276.511 226.845,276.961 226.594,277.404"/>
<polygon fill="#ffffff" points="529.263,61.4502 350.65,111.55 350.65,61.4502"/>
<polygon fill="#ffffff" points="529.263,111.55 350.65,111.55 529.263,61.4502"/>
<polyline fill="none" stroke="#000000" stroke-width="0.5" points="350.65,111.55 350.65,61.4502 529.263,61.4502 529.263,111.55 350.65,111.55"/>
<text fill="#000000" style="stroke:none" x="412" y="77" transform="rotate(0, 412, 77)" font-size="10" font-family="SansSerif" font-style="normal" font-weight="normal">asymptotic directions</text>
<text fill="#000000" style="stroke:none" x="412" y="91" transform="rotate(0, 412, 91)" font-size="10" font-family="SansSerif" font-style="normal" font-weight="normal">open loop poles</text>
<text fill="#000000" style="stroke:none" x="412" y="106" transform="rotate(0, 412, 106)" font-size="10" font-family="SansSerif" font-style="normal" font-weight="normal">open loop zeroes</text>
<polygon fill="#ffffff" points="352,101 356,97 360,101"/>
<polygon fill="#ffffff" points="352,101 360,101 356,105"/>
<polyline fill="none" stroke="#000000" stroke-width="0.5" points="352,101 356,97 360,101 356,105 352,101"/>
<polygon fill="#ffffff" points="375,101 379,97 383,101"/>
<polygon fill="#ffffff" points="375,101 383,101 379,105"/>
<polyline fill="none" stroke="#000000" stroke-width="0.5" points="375,101 379,97 383,101 379,105 375,101"/>
<polygon fill="#ffffff" points="398,101 402,97 406,101"/>
<polygon fill="#ffffff" points="398,101 406,101 402,105"/>
<polyline fill="none" stroke="#000000" stroke-width="0.5" points="398,101 402,97 406,101 402,105 398,101"/>
<polyline fill="none" stroke="#000000" stroke-width="0.5" points="352,83 360,91"/>
<polyline fill="none" stroke="#000000" stroke-width="0.5" points="352,91 360,83"/>
<polyline fill="none" stroke="#000000" stroke-width="0.5" points="375,83 383,91"/>
<polyline fill="none" stroke="#000000" stroke-width="0.5" points="375,91 383,83"/>
<polyline fill="none" stroke="#000000" stroke-width="0.5" points="398,83 406,91"/>
<polyline fill="none" stroke="#000000" stroke-width="0.5" points="398,91 406,83"/>
<polyline fill="none" stroke="#000000" stroke-width="0.5" points="356.388,72.1001 379.337,72.1001 402.288,72.1001"/>
<text fill="#00ffff" style="stroke:none" x="396" y="240" transform="rotate(0, 396, 240)" font-size="10" font-family="SansSerif" font-style="normal" font-weight="normal">0</text>
<text fill="#00ffff" style="stroke:none" x="396" y="228" transform="rotate(0, 396, 228)" font-size="10" font-family="SansSerif" font-style="normal" font-weight="normal">0</text>
<text fill="#00ffff" style="stroke:none" x="388" y="306" transform="rotate(0, 388, 306)" font-size="10" font-family="SansSerif" font-style="normal" font-weight="normal">5.7</text>
<text fill="#00ffff" style="stroke:none" x="388" y="163" transform="rotate(0, 388, 163)" font-size="10" font-family="SansSerif" font-style="normal" font-weight="normal">5.7</text>
<text fill="#00ffff" style="stroke:none" x="392" y="372" transform="rotate(0, 392, 372)" font-size="10" font-family="SansSerif" font-style="normal" font-weight="normal">11</text>
<text fill="#00ffff" style="stroke:none" x="392" y="97" transform="rotate(0, 392, 97)" font-size="10" font-family="SansSerif" font-style="normal" font-weight="normal">11</text>
<text fill="#87ceff" style="stroke:none" x="396" y="389" transform="rotate(0, 396, 389)" font-size="10" font-family="SansSerif" font-style="normal" font-weight="normal">0</text>
<text fill="#87ceff" style="stroke:none" x="396" y="68" transform="rotate(0, 396, 68)" font-size="10" font-family="SansSerif" font-style="normal" font-weight="normal">0</text>
<text fill="#87ceff" style="stroke:none" x="352" y="389" transform="rotate(0, 352, 389)" font-size="10" font-family="SansSerif" font-style="normal" font-weight="normal">0.16</text>
<text fill="#87ceff" style="stroke:none" x="349" y="68" transform="rotate(0, 349, 68)" font-size="10" font-family="SansSerif" font-style="normal" font-weight="normal">0.16</text>
<text fill="#87ceff" style="stroke:none" x="315" y="389" transform="rotate(0, 315, 389)" font-size="10" font-family="SansSerif" font-style="normal" font-weight="normal">0.34</text>
<text fill="#87ceff" style="stroke:none" x="310" y="68" transform="rotate(0, 310, 68)" font-size="10" font-family="SansSerif" font-style="normal" font-weight="normal">0.34</text>
<text fill="#87ceff" style="stroke:none" x="283" y="389" transform="rotate(0, 283, 389)" font-size="10" font-family="SansSerif" font-style="normal" font-weight="normal">0.5</text>
<text fill="#87ceff" style="stroke:none" x="275" y="68" transform="rotate(0, 275, 68)" font-size="10" font-family="SansSerif" font-style="normal" font-weight="normal">0.5</text>
<text fill="#87ceff" style="stroke:none" x="229" y="389" transform="rotate(0, 229, 389)" font-size="10" font-family="SansSerif" font-style="normal" font-weight="normal">0.64</text>
<text fill="#87ceff" style="stroke:none" x="218" y="68" transform="rotate(0, 218, 68)" font-size="10" font-family="SansSerif" font-style="normal" font-weight="normal">0.64</text>
<text fill="#87ceff" style="stroke:none" x="167" y="389" transform="rotate(0, 167, 389)" font-size="10" font-family="SansSerif" font-style="normal" font-weight="normal">0.76</text>
<text fill="#87ceff" style="stroke:none" x="151" y="68" transform="rotate(0, 151, 68)" font-size="10" font-family="SansSerif" font-style="normal" font-weight="normal">0.76</text>
<text fill="#87ceff" style="stroke:none" x="78" y="399" transform="rotate(0, 78, 399)" font-size="10" font-family="SansSerif" font-style="normal" font-weight="normal">0.86</text>
<text fill="#87ceff" style="stroke:none" x="78" y="58" transform="rotate(0, 78, 58)" font-size="10" font-family="SansSerif" font-style="normal" font-weight="normal">0.86</text>
<text fill="#87ceff" style="stroke:none" x="78" y="333" transform="rotate(0, 78, 333)" font-size="10" font-family="SansSerif" font-style="normal" font-weight="normal">0.94</text>
<text fill="#87ceff" style="stroke:none" x="78" y="124" transform="rotate(0, 78, 124)" font-size="10" font-family="SansSerif" font-style="normal" font-weight="normal">0.94</text>
<text fill="#87ceff" style="stroke:none" x="78" y="279" transform="rotate(0, 78, 279)" font-size="10" font-family="SansSerif" font-style="normal" font-weight="normal">0.985</text>
<text fill="#87ceff" style="stroke:none" x="78" y="178" transform="rotate(0, 78, 178)" font-size="10" font-family="SansSerif" font-style="normal" font-weight="normal">0.985</text>
<text fill="#87ceff" style="stroke:none" x="78" y="228" transform="rotate(0, 78, 228)" font-size="10" font-family="SansSerif" font-style="normal" font-weight="normal">1</text>
<text fill="#87ceff" style="stroke:none" x="78" y="228" transform="rotate(0, 78, 228)" font-size="10" font-family="SansSerif" font-style="normal" font-weight="normal">1</text>
<polyline fill="none" stroke="#000000" stroke-width="0.5" points="76.5,403.375 76.5,57.625"/>
<polyline fill="none" stroke="#000000" stroke-width="0.5" points="76.5,403.375 69.6152,403.375"/>
<polyline fill="none" stroke="#000000" stroke-width="0.5" points="76.5,345.75 69.6152,345.75"/>
<polyline fill="none" stroke="#000000" stroke-width="0.5" points="76.5,288.125 69.6152,288.125"/>
<polyline fill="none" stroke="#000000" stroke-width="0.5" points="76.5,230.5 69.6152,230.5"/>
<polyline fill="none" stroke="#000000" stroke-width="0.5" points="76.5,172.875 69.6152,172.875"/>
<polyline fill="none" stroke="#000000" stroke-width="0.5" points="76.5,115.25 69.6152,115.25"/>
<polyline fill="none" stroke="#000000" stroke-width="0.5" points="76.5,57.625 69.6152,57.625"/>
<polyline fill="none" stroke="#000000" stroke-width="0.5" points="76.5,388.969 72.3691,388.969"/>
<polyline fill="none" stroke="#000000" stroke-width="0.5" points="76.5,374.562 72.3691,374.562"/>
<polyline fill="none" stroke="#000000" stroke-width="0.5" points="76.5,360.156 72.3691,360.156"/>
<polyline fill="none" stroke="#000000" stroke-width="0.5" points="76.5,331.344 72.3691,331.344"/>
<polyline fill="none" stroke="#000000" stroke-width="0.5" points="76.5,316.938 72.3691,316.938"/>
<polyline fill="none" stroke="#000000" stroke-width="0.5" points="76.5,302.531 72.3691,302.531"/>
<polyline fill="none" stroke="#000000" stroke-width="0.5" points="76.5,273.719 72.3691,273.719"/>
<polyline fill="none" stroke="#000000" stroke-width="0.5" points="76.5,259.312 72.3691,259.312"/>
<polyline fill="none" stroke="#000000" stroke-width="0.5" points="76.5,244.906 72.3691,244.906"/>
<polyline fill="none" stroke="#000000" stroke-width="0.5" points="76.5,216.094 72.3691,216.094"/>
<polyline fill="none" stroke="#000000" stroke-width="0.5" points="76.5,201.688 72.3691,201.688"/>
<polyline fill="none" stroke="#000000" stroke-width="0.5" points="76.5,187.281 72.3691,187.281"/>
<polyline fill="none" stroke="#000000" stroke-width="0.5" points="76.5,158.469 72.3691,158.469"/>
<polyline fill="none" stroke="#000000" stroke-width="0.5" points="76.5,144.062 72.3691,144.062"/>
<polyline fill="none" stroke="#000000" stroke-width="0.5" points="76.5,129.656 72.3691,129.656"/>
<polyline fill="none" stroke="#000000" stroke-width="0.5" points="76.5,100.844 72.3691,100.844"/>
<polyline fill="none" stroke="#000000" stroke-width="0.5" points="76.5,86.4375 72.3691,86.4375"/>
<polyline fill="none" stroke="#000000" stroke-width="0.5" points="76.5,72.0312 72.3691,72.0312"/>
<text fill="#000000" style="stroke:none" x="49" y="408" transform="rotate(-0, 49, 408)" font-size="10" font-family="SansSerif" font-style="normal" font-weight="normal">-15</text>
<text fill="#000000" style="stroke:none" x="49" y="351" transform="rotate(-0, 49, 351)" font-size="10" font-family="SansSerif" font-style="normal" font-weight="normal">-10</text>
<text fill="#000000" style="stroke:none" x="55" y="293" transform="rotate(-0, 55, 293)" font-size="10" font-family="SansSerif" font-style="normal" font-weight="normal">-5</text>
<text fill="#000000" style="stroke:none" x="60" y="235" transform="rotate(-0, 60, 235)" font-size="10" font-family="SansSerif" font-style="normal" font-weight="normal">0</text>
<text fill="#000000" style="stroke:none" x="62" y="178" transform="rotate(-0, 62, 178)" font-size="10" font-family="SansSerif" font-style="normal" font-weight="normal">5</text>
<text fill="#000000" style="stroke:none" x="55" y="120" transform="rotate(-0, 55, 120)" font-size="10" font-family="SansSerif" font-style="normal" font-weight="normal">10</text>
<text fill="#000000" style="stroke:none" x="56" y="63" transform="rotate(-0, 56, 63)" font-size="10" font-family="SansSerif" font-style="normal" font-weight="normal">15</text>
<polyline fill="none" stroke="#000000" stroke-width="0.5" points="76.5,403.375 535.5,403.375"/>
<polyline fill="none" stroke="#000000" stroke-width="0.5" points="76.5,403.375 76.5,408.55"/>
<polyline fill="none" stroke="#000000" stroke-width="0.5" points="142.071,403.375 142.071,408.55"/>
<polyline fill="none" stroke="#000000" stroke-width="0.5" points="207.643,403.375 207.643,408.55"/>
<polyline fill="none" stroke="#000000" stroke-width="0.5" points="273.214,403.375 273.214,408.55"/>
<polyline fill="none" stroke="#000000" stroke-width="0.5" points="338.786,403.375 338.786,408.55"/>
<polyline fill="none" stroke="#000000" stroke-width="0.5" points="404.357,403.375 404.357,408.55"/>
<polyline fill="none" stroke="#000000" stroke-width="0.5" points="469.929,403.375 469.929,408.55"/>
<polyline fill="none" stroke="#000000" stroke-width="0.5" points="535.5,403.375 535.5,408.55"/>
<polyline fill="none" stroke="#000000" stroke-width="0.5" points="98.3569,403.375 98.3569,406.48"/>
<polyline fill="none" stroke="#000000" stroke-width="0.5" points="120.214,403.375 120.214,406.48"/>
<polyline fill="none" stroke="#000000" stroke-width="0.5" points="163.929,403.375 163.929,406.48"/>
<polyline fill="none" stroke="#000000" stroke-width="0.5" points="185.786,403.375 185.786,406.48"/>
<polyline fill="none" stroke="#000000" stroke-width="0.5" points="229.5,403.375 229.5,406.48"/>
<polyline fill="none" stroke="#000000" stroke-width="0.5" points="251.357,403.375 251.357,406.48"/>
<polyline fill="none" stroke="#000000" stroke-width="0.5" points="295.071,403.375 295.071,406.48"/>
<polyline fill="none" stroke="#000000" stroke-width="0.5" points="316.929,403.375 316.929,406.48"/>
<polyline fill="none" stroke="#000000" stroke-width="0.5" points="360.643,403.375 360.643,406.48"/>
<polyline fill="none" stroke="#000000" stroke-width="0.5" points="382.5,403.375 382.5,406.48"/>
<polyline fill="none" stroke="#000000" stroke-width="0.5" points="426.214,403.375 426.214,406.48"/>
<polyline fill="none" stroke="#000000" stroke-width="0.5" points="448.071,403.375 448.071,406.48"/>
<polyline fill="none" stroke="#000000" stroke-width="0.5" points="491.786,403.375 491.786,406.48"/>
<polyline fill="none" stroke="#000000" stroke-width="0.5" points="513.643,403.375 513.643,406.48"/>
<text fill="#000000" style="stroke:none" x="67" y="420" transform="rotate(-0, 67, 420)" font-size="10" font-family="SansSerif" font-style="normal" font-weight="normal">-25</text>
<text fill="#000000" style="stroke:none" x="133" y="420" transform="rotate(-0, 133, 420)" font-size="10" font-family="SansSerif" font-style="normal" font-weight="normal">-20</text>
<text fill="#000000" style="stroke:none" x="198" y="420" transform="rotate(-0, 198, 420)" font-size="10" font-family="SansSerif" font-style="normal" font-weight="normal">-15</text>
<text fill="#000000" style="stroke:none" x="264" y="420" transform="rotate(-0, 264, 420)" font-size="10" font-family="SansSerif" font-style="normal" font-weight="normal">-10</text>
<text fill="#000000" style="stroke:none" x="332" y="420" transform="rotate(-0, 332, 420)" font-size="10" font-family="SansSerif" font-style="normal" font-weight="normal">-5</text>
<text fill="#000000" style="stroke:none" x="400" y="420" transform="rotate(-0, 400, 420)" font-size="10" font-family="SansSerif" font-style="normal" font-weight="normal">0</text>
<text fill="#000000" style="stroke:none" x="467" y="420" transform="rotate(-0, 467, 420)" font-size="10" font-family="SansSerif" font-style="normal" font-weight="normal">5</text>
<text fill="#000000" style="stroke:none" x="529" y="420" transform="rotate(-0, 529, 420)" font-size="10" font-family="SansSerif" font-style="normal" font-weight="normal">10</text>
<text fill="#000000" style="stroke:none" x="263" y="50" transform="rotate(0, 263, 50)" font-size="10" font-family="SansSerif" font-style="normal" font-weight="normal">Evans root locus</text>
<text fill="#000000" style="stroke:none" x="282" y="433" transform="rotate(0, 282, 433)" font-size="10" font-family="SansSerif" font-style="normal" font-weight="normal">Real axis</text>
<text fill="#000000" style="stroke:none" x="41" y="269" transform="rotate(270, 41, 269)" font-size="10" font-family="SansSerif" font-style="normal" font-weight="normal">Imaginary axis</text>
</g>
</svg>
