<?xml version="1.0" encoding="UTF-8" standalone="no"?>
<svg xmlns="http://www.w3.org/2000/svg"
     xmlns:xlink="http://www.w3.org/1999/xlink"
     width="612px" height="461px" viewBox="0 0 612 461"
     style="stroke:none">
<title>Graphic window number 0</title>
<desc>
Creator: GL2PS 1.3.2, (C) 1999-2006 Christophe Geuzaine (geuz@geuz.org)
For: Scilab
CreationDate: Thu Apr 15 13:25:38 2010
</desc>
<defs>
</defs>
<polygon fill="#ffffff" points="0,0 612,0 612,461 0,461"/>
<g>
<polygon fill="#ffffff" points="76.5,403.375 76.5,57.625 76.5,57.625"/>
<polygon fill="#ffffff" points="76.5,403.375 76.5,57.625 76.5,403.375"/>
<polygon fill="#ffffff" points="76.5,403.375 535.5,403.375 535.5,403.375"/>
<polygon fill="#ffffff" points="76.5,403.375 535.5,403.375 76.5,403.375"/>
<polygon fill="#ffffff" points="76.5,403.375 535.5,403.375 535.5,57.625"/>
<polygon fill="#ffffff" points="76.5,403.375 535.5,57.625 76.5,57.625"/>
<polyline fill="none" stroke="#87ceff" stroke-width="0.5" stroke-dasharray="1,1,1,1,1,1,1,1,1,1" points="153,230.5 175.233,231.08 194.204,232.483 210.384,234.313 224.195,236.296 236.005,238.249 246.131,240.055 254.841,241.645 262.36,242.985 268.877,244.063 274.549,244.883 279.505,245.456 283.851,245.8 287.676,245.935 291.053,245.883 294.041,245.664 296.691,245.297 299.042,244.801 301.131,244.192 302.984,243.486 304.626,242.694 306.077,241.83 307.352,240.903 308.466,239.923 309.43,238.897 310.254,237.834 310.946,236.74 311.512,235.62 311.958,234.48 312.286,233.325 312.5,232.16 312.602,230.988 312.602,230.988 312.5,232.16 312.286,233.325 311.958,234.48 311.512,235.62 310.946,236.74 310.254,237.834 309.43,238.897 308.466,239.923 307.352,240.903 306.077,241.83 304.626,242.694 302.984,243.486 301.131,244.192 299.042,244.801 296.691,245.297 294.041,245.664 291.053,245.883 287.676,245.935 283.851,245.8 279.505,245.456 274.549,244.883 268.877,244.063 262.36,242.985 254.841,241.645 246.131,240.055 236.005,238.249 224.195,236.296 210.384,234.313 194.204,232.483 175.233,231.08 153,230.5 175.233,229.92 194.204,228.517 210.384,226.687 224.195,224.704 236.005,222.751 246.131,220.945 254.841,219.355 262.36,218.015 268.877,216.937 274.549,216.117 279.505,215.544 283.851,215.2 287.676,215.065 291.053,215.117 294.041,215.336 296.691,215.703 299.042,216.199 301.131,216.808 302.984,217.514 304.626,218.306 306.077,219.17 307.352,220.097 308.466,221.077 309.43,222.103 310.254,223.166 310.946,224.26 311.512,225.38 311.958,226.52 312.286,227.675 312.5,228.84 312.602,230.012 312.602,230.012 312.5,228.84 312.286,227.675 311.958,226.52 311.512,225.38 310.946,224.26 310.254,223.166 309.43,222.103 308.466,221.077 307.352,220.097 306.077,219.17 304.626,218.306 302.984,217.514 301.131,216.808 299.042,216.199 296.691,215.703 294.041,215.336 291.053,215.117 287.676,215.065 283.851,215.2 279.505,215.544 274.549,216.117 268.877,216.937 262.36,218.015 254.841,219.355 246.131,220.945 236.005,222.751 224.195,224.704 210.384,226.687 194.204,228.517 175.233,229.92 153,230.5"/>
<polyline fill="none" stroke="#87ceff" stroke-width="0.5" stroke-dasharray="1,1,1,1,1,1,1,1,1,1" points="160.488,283.921 179.81,277.385 196.789,272.53 211.665,268.915 224.676,266.195 236.047,264.109 245.986,262.46 254.68,261.101 262.294,259.924 268.975,258.854 274.846,257.836 280.018,256.833 284.582,255.82 288.618,254.784 292.192,253.713 295.363,252.604 298.178,251.457 300.678,250.27 302.898,249.045 304.868,247.787 306.611,246.498 308.149,245.18 309.5,243.838 310.68,242.474 311.699,241.091 312.569,239.693 313.299,238.281 313.895,236.858 314.364,235.427 314.709,233.989 314.935,232.546 315.042,231.102 315.042,231.102 314.935,232.546 314.709,233.989 314.364,235.427 313.895,236.858 313.299,238.281 312.569,239.693 311.699,241.091 310.68,242.474 309.5,243.838 308.149,245.18 306.611,246.498 304.868,247.787 302.898,249.045 300.678,250.27 298.178,251.457 295.363,252.604 292.192,253.713 288.618,254.784 284.582,255.82 280.018,256.833 274.846,257.836 268.975,258.854 262.294,259.924 254.68,261.101 245.986,262.46 236.047,264.109 224.676,266.195 211.665,268.915 196.789,272.53 179.81,277.385 160.488,283.921"/>
<polyline fill="none" stroke="#87ceff" stroke-width="0.5" stroke-dasharray="1,1,1,1,1,1,1,1,1,1" points="160.488,177.079 179.81,183.615 196.789,188.47 211.665,192.085 224.676,194.805 236.047,196.891 245.986,198.54 254.68,199.899 262.294,201.076 268.975,202.146 274.846,203.164 280.018,204.167 284.582,205.18 288.618,206.216 292.192,207.287 295.363,208.396 298.178,209.543 300.678,210.73 302.898,211.955 304.868,213.213 306.611,214.502 308.149,215.82 309.5,217.162 310.68,218.526 311.699,219.909 312.569,221.307 313.299,222.719 313.895,224.142 314.364,225.573 314.709,227.011 314.935,228.454 315.042,229.898 315.042,229.898 314.935,228.454 314.709,227.011 314.364,225.573 313.895,224.142 313.299,222.719 312.569,221.307 311.699,219.909 310.68,218.526 309.5,217.162 308.149,215.82 306.611,214.502 304.868,213.213 302.898,211.955 300.678,210.73 298.178,209.543 295.363,208.396 292.192,207.287 288.618,206.216 284.582,205.18 280.018,204.167 274.846,203.164 268.975,202.146 262.294,201.076 254.68,199.899 245.986,198.54 236.047,196.891 224.676,194.805 211.665,192.085 196.789,188.47 179.81,183.615 160.488,177.079"/>
<polyline fill="none" stroke="#87ceff" stroke-width="0.5" stroke-dasharray="1,1,1,1,1,1,1,1,1,1" points="182.22,332.113 197.082,320.506 210.574,310.925 222.754,302.98 233.7,296.348 243.505,290.76 252.268,286 260.087,281.892 267.058,278.295 273.27,275.101 278.806,272.219 283.741,269.581 288.14,267.133 292.065,264.834 295.566,262.649 298.691,260.555 301.48,258.531 303.967,256.563 306.182,254.639 308.152,252.749 309.9,250.887 311.444,249.047 312.803,247.225 313.989,245.417 315.015,243.622 315.892,241.836 316.626,240.058 317.228,238.285 317.7,236.518 318.048,234.753 318.275,232.992 318.383,231.232 318.383,231.232 318.275,232.992 318.048,234.753 317.7,236.518 317.228,238.285 316.626,240.058 315.892,241.836 315.015,243.622 313.989,245.417 312.803,247.225 311.444,249.047 309.9,250.887 308.152,252.749 306.182,254.639 303.967,256.563 301.48,258.531 298.691,260.555 295.566,262.649 292.065,264.834 288.14,267.133 283.741,269.581 278.806,272.219 273.27,275.101 267.058,278.295 260.087,281.892 252.268,286 243.505,290.76 233.7,296.348 222.754,302.98 210.574,310.925 197.082,320.506 182.22,332.113"/>
<polyline fill="none" stroke="#87ceff" stroke-width="0.5" stroke-dasharray="1,1,1,1,1,1,1,1,1,1" points="182.22,128.887 197.082,140.494 210.574,150.075 222.754,158.02 233.7,164.652 243.505,170.24 252.268,175 260.087,179.108 267.058,182.705 273.27,185.899 278.806,188.781 283.741,191.419 288.14,193.867 292.065,196.166 295.566,198.351 298.691,200.445 301.48,202.469 303.967,204.437 306.182,206.361 308.152,208.251 309.9,210.113 311.444,211.953 312.803,213.775 313.989,215.583 315.015,217.378 315.892,219.164 316.626,220.942 317.228,222.715 317.7,224.482 318.048,226.247 318.275,228.008 318.383,229.768 318.383,229.768 318.275,228.008 318.048,226.247 317.7,224.482 317.228,222.715 316.626,220.942 315.892,219.164 315.015,217.378 313.989,215.583 312.803,213.775 311.444,211.953 309.9,210.113 308.152,208.251 306.182,206.361 303.967,204.437 301.48,202.469 298.691,200.445 295.566,198.351 292.065,196.166 288.14,193.867 283.741,191.419 278.806,188.781 273.27,185.899 267.058,182.705 260.087,179.108 252.268,175 243.505,170.24 233.7,164.652 222.754,158.02 210.574,150.075 197.082,140.494 182.22,128.887"/>
<polyline fill="none" stroke="#87ceff" stroke-width="0.5" stroke-dasharray="1,1,1,1,1,1,1,1,1,1" points="216.069,370.359 225.734,356.051 234.892,343.68 243.478,332.961 251.461,323.644 258.835,315.511 265.61,308.372 271.809,302.067 277.46,296.459 282.601,291.433 287.265,286.893 291.49,282.757 295.313,278.96 298.767,275.444 301.883,272.165 304.692,269.084 307.221,266.168 309.493,263.394 311.531,260.736 313.353,258.178 314.977,255.705 316.419,253.302 317.691,250.96 318.805,248.669 319.771,246.421 320.599,244.209 321.293,242.026 321.862,239.868 322.31,237.728 322.64,235.603 322.855,233.487 322.958,231.377 322.958,231.377 322.855,233.487 322.64,235.603 322.31,237.728 321.862,239.868 321.293,242.026 320.599,244.209 319.771,246.421 318.805,248.669 317.691,250.96 316.419,253.302 314.977,255.705 313.353,258.178 311.531,260.736 309.493,263.394 307.221,266.168 304.692,269.084 301.883,272.165 298.767,275.444 295.313,278.96 291.49,282.757 287.265,286.893 282.601,291.433 277.46,296.459 271.809,302.067 265.61,308.372 258.835,315.511 251.461,323.644 243.478,332.961 234.892,343.68 225.734,356.051 216.069,370.359"/>
<polyline fill="none" stroke="#87ceff" stroke-width="0.5" stroke-dasharray="1,1,1,1,1,1,1,1,1,1" points="216.069,90.6411 225.734,104.949 234.892,117.32 243.478,128.039 251.461,137.356 258.835,145.489 265.61,152.628 271.809,158.933 277.46,164.541 282.601,169.567 287.265,174.107 291.49,178.243 295.313,182.04 298.767,185.556 301.883,188.835 304.692,191.916 307.221,194.832 309.493,197.606 311.531,200.264 313.353,202.822 314.977,205.295 316.419,207.698 317.691,210.04 318.805,212.331 319.771,214.579 320.599,216.791 321.293,218.974 321.862,221.132 322.31,223.272 322.64,225.397 322.855,227.513 322.958,229.623 322.958,229.623 322.855,227.513 322.64,225.397 322.31,223.272 321.862,221.132 321.293,218.974 320.599,216.791 319.771,214.579 318.805,212.331 317.691,210.04 316.419,207.698 314.977,205.295 313.353,202.822 311.531,200.264 309.493,197.606 307.221,194.832 304.692,191.916 301.883,188.835 298.767,185.556 295.313,182.04 291.49,178.243 287.265,174.107 282.601,169.567 277.46,164.541 271.809,158.933 265.61,152.628 258.835,145.489 251.461,137.356 243.478,128.039 234.892,117.32 225.734,104.949 216.069,90.6411"/>
<polyline fill="none" stroke="#87ceff" stroke-width="0.5" stroke-dasharray="1,1,1,1,1,1,1,1,1,1" points="258.72,394.914 263.283,380.246 267.967,367.122 272.659,355.377 277.27,344.858 281.739,335.421 286.02,326.933 290.083,319.275 293.912,312.343 297.497,306.04 300.837,300.283 303.934,295 306.795,290.128 309.43,285.611 311.849,281.401 314.062,277.458 316.08,273.744 317.917,270.229 319.581,266.886 321.083,263.692 322.434,260.627 323.642,257.673 324.714,254.815 325.659,252.038 326.482,249.331 327.189,246.683 327.786,244.083 328.276,241.524 328.662,238.996 328.947,236.493 329.134,234.006 329.223,231.529 329.223,231.529 329.134,234.006 328.947,236.493 328.662,238.996 328.276,241.524 327.786,244.083 327.189,246.683 326.482,249.331 325.659,252.038 324.714,254.815 323.642,257.673 322.434,260.627 321.083,263.692 319.581,266.886 317.917,270.229 316.08,273.744 314.062,277.458 311.849,281.401 309.43,285.611 306.795,290.128 303.934,295 300.837,300.283 297.497,306.04 293.912,312.343 290.083,319.275 286.02,326.933 281.739,335.421 277.27,344.858 272.659,355.377 267.967,367.122 263.283,380.246 258.72,394.914"/>
<polyline fill="none" stroke="#87ceff" stroke-width="0.5" stroke-dasharray="1,1,1,1,1,1,1,1,1,1" points="258.72,66.0859 263.283,80.7539 267.967,93.8784 272.659,105.623 277.27,116.142 281.739,125.579 286.02,134.067 290.083,141.725 293.912,148.657 297.497,154.96 300.837,160.717 303.934,166 306.795,170.872 309.43,175.389 311.849,179.599 314.062,183.542 316.08,187.256 317.917,190.771 319.581,194.114 321.083,197.308 322.434,200.373 323.642,203.327 324.714,206.185 325.659,208.962 326.482,211.669 327.189,214.317 327.786,216.917 328.276,219.476 328.662,222.004 328.947,224.507 329.134,226.994 329.223,229.471 329.223,229.471 329.134,226.994 328.947,224.507 328.662,222.004 328.276,219.476 327.786,216.917 327.189,214.317 326.482,211.669 325.659,208.962 324.714,206.185 323.642,203.327 322.434,200.373 321.083,197.308 319.581,194.114 317.917,190.771 316.08,187.256 314.062,183.542 311.849,179.599 309.43,175.389 306.795,170.872 303.934,166 300.837,160.717 297.497,154.96 293.912,148.657 290.083,141.725 286.02,134.067 281.739,125.579 277.27,116.142 272.659,105.623 267.967,93.8784 263.283,80.7539 258.72,66.0859"/>
<polyline fill="none" stroke="#87ceff" stroke-width="0.5" stroke-dasharray="1,1,1,1,1,1,1,1,1,1" points="306,403.375 306.278,390.322 307.026,378.279 308.134,367.185 309.506,356.971 311.063,347.568 312.742,338.908 314.49,330.924 316.264,323.553 318.033,316.733 319.77,310.409 321.455,304.529 323.075,299.046 324.619,293.917 326.081,289.104 327.454,284.57 328.738,280.284 329.93,276.218 331.032,272.345 332.043,268.645 332.966,265.094 333.802,261.675 334.553,258.372 335.222,255.168 335.809,252.05 336.318,249.006 336.75,246.023 337.106,243.092 337.388,240.2 337.597,237.34 337.734,234.5 337.799,231.674 337.799,231.674 337.734,234.5 337.597,237.34 337.388,240.2 337.106,243.092 336.75,246.023 336.318,249.006 335.809,252.05 335.222,255.168 334.553,258.372 333.802,261.675 332.966,265.094 332.043,268.645 331.032,272.345 329.93,276.218 328.738,280.284 327.454,284.57 326.081,289.104 324.619,293.917 323.075,299.046 321.455,304.529 319.77,310.409 318.033,316.733 316.264,323.553 314.49,330.924 312.742,338.908 311.063,347.568 309.506,356.971 308.134,367.185 307.026,378.279 306.278,390.322 306,403.375"/>
<polyline fill="none" stroke="#87ceff" stroke-width="0.5" stroke-dasharray="1,1,1,1,1,1,1,1,1,1" points="306,57.625 306.278,70.6782 307.026,82.7207 308.134,93.8154 309.506,104.029 311.063,113.432 312.742,122.092 314.49,130.076 316.264,137.447 318.033,144.267 319.77,150.591 321.455,156.471 323.075,161.954 324.619,167.083 326.081,171.896 327.454,176.43 328.738,180.716 329.93,184.782 331.032,188.655 332.043,192.355 332.966,195.906 333.802,199.325 334.553,202.628 335.222,205.832 335.809,208.95 336.318,211.994 336.75,214.977 337.106,217.908 337.388,220.8 337.597,223.66 337.734,226.5 337.799,229.326 337.799,229.326 337.734,226.5 337.597,223.66 337.388,220.8 337.106,217.908 336.75,214.977 336.318,211.994 335.809,208.95 335.222,205.832 334.553,202.628 333.802,199.325 332.966,195.906 332.043,192.355 331.032,188.655 329.93,184.782 328.738,180.716 327.454,176.43 326.081,171.896 324.619,167.083 323.075,161.954 321.455,156.471 319.77,150.591 318.033,144.267 316.264,137.447 314.49,130.076 312.742,122.092 311.063,113.432 309.506,104.029 308.134,93.8154 307.026,82.7207 306.278,70.6782 306,57.625"/>
<polyline fill="none" stroke="#87ceff" stroke-width="0.5" stroke-dasharray="1,1,1,1,1,1,1,1,1,1" points="353.28,394.914 350.616,384.826 348.51,375.23 346.883,366.126 345.662,357.507 344.784,349.36 344.192,341.666 343.837,334.404 343.675,327.55 343.668,321.08 343.785,314.966 343.997,309.184 344.281,303.708 344.618,298.514 344.99,293.578 345.385,288.878 345.791,284.392 346.198,280.1 346.599,275.984 346.988,272.026 347.358,268.209 347.708,264.519 348.031,260.941 348.328,257.461 348.595,254.067 348.831,250.747 349.034,247.49 349.205,244.285 349.341,241.122 349.443,237.99 349.51,234.882 349.542,231.786 349.542,231.786 349.51,234.882 349.443,237.99 349.341,241.122 349.205,244.285 349.034,247.49 348.831,250.747 348.595,254.067 348.328,257.461 348.031,260.941 347.708,264.519 347.358,268.209 346.988,272.026 346.599,275.984 346.198,280.1 345.791,284.392 345.385,288.878 344.99,293.578 344.618,298.514 344.281,303.708 343.997,309.184 343.785,314.966 343.668,321.08 343.675,327.55 343.837,334.404 344.192,341.666 344.784,349.36 345.662,357.507 346.883,366.126 348.51,375.23 350.616,384.826 353.28,394.914"/>
<polyline fill="none" stroke="#87ceff" stroke-width="0.5" stroke-dasharray="1,1,1,1,1,1,1,1,1,1" points="353.28,66.0859 350.616,76.1738 348.51,85.77 346.883,94.874 345.662,103.493 344.784,111.64 344.192,119.334 343.837,126.596 343.675,133.45 343.668,139.92 343.785,146.034 343.997,151.816 344.281,157.292 344.618,162.486 344.99,167.422 345.385,172.122 345.791,176.608 346.198,180.9 346.599,185.016 346.988,188.974 347.358,192.791 347.708,196.481 348.031,200.059 348.328,203.539 348.595,206.933 348.831,210.253 349.034,213.51 349.205,216.715 349.341,219.878 349.443,223.01 349.51,226.118 349.542,229.214 349.542,229.214 349.51,226.118 349.443,223.01 349.341,219.878 349.205,216.715 349.034,213.51 348.831,210.253 348.595,206.933 348.328,203.539 348.031,200.059 347.708,196.481 347.358,192.791 346.988,188.974 346.599,185.016 346.198,180.9 345.791,176.608 345.385,172.122 344.99,167.422 344.618,162.486 344.281,157.292 343.997,151.816 343.785,146.034 343.668,139.92 343.675,133.45 343.837,126.596 344.192,119.334 344.784,111.64 345.662,103.493 346.883,94.874 348.51,85.77 350.616,76.1738 353.28,66.0859"/>
<polyline fill="none" stroke="#87ceff" stroke-width="0.5" stroke-dasharray="1,1,1,1,1,1,1,1,1,1" points="395.931,370.359 391.932,363.81 388.385,357.363 385.25,351.044 382.49,344.874 380.068,338.865 377.951,333.029 376.107,327.371 374.506,321.893 373.12,316.596 371.925,311.477 370.898,306.531 370.019,301.753 369.269,297.136 368.631,292.673 368.09,288.355 367.634,284.173 367.251,280.12 366.931,276.184 366.664,272.357 366.442,268.631 366.26,264.997 366.111,261.444 365.989,257.966 365.891,254.553 365.812,251.197 365.751,247.891 365.703,244.625 365.667,241.393 365.642,238.187 365.626,234.998 365.619,231.82 365.619,231.82 365.626,234.998 365.642,238.187 365.667,241.393 365.703,244.625 365.751,247.891 365.812,251.197 365.891,254.553 365.989,257.966 366.111,261.444 366.26,264.997 366.442,268.631 366.664,272.357 366.931,276.184 367.251,280.12 367.634,284.173 368.09,288.355 368.631,292.673 369.269,297.136 370.019,301.753 370.898,306.531 371.925,311.477 373.12,316.596 374.506,321.893 376.107,327.371 377.951,333.029 380.068,338.865 382.49,344.874 385.25,351.044 388.385,357.363 391.932,363.81 395.931,370.359"/>
<polyline fill="none" stroke="#87ceff" stroke-width="0.5" stroke-dasharray="1,1,1,1,1,1,1,1,1,1" points="395.931,90.6411 391.932,97.1904 388.385,103.637 385.25,109.956 382.49,116.126 380.068,122.135 377.951,127.971 376.107,133.629 374.506,139.107 373.12,144.404 371.925,149.523 370.898,154.469 370.019,159.247 369.269,163.864 368.631,168.327 368.09,172.645 367.634,176.827 367.251,180.88 366.931,184.816 366.664,188.643 366.442,192.369 366.26,196.003 366.111,199.556 365.989,203.034 365.891,206.447 365.812,209.803 365.751,213.109 365.703,216.375 365.667,219.607 365.642,222.813 365.626,226.002 365.619,229.18 365.619,229.18 365.626,226.002 365.642,222.813 365.667,219.607 365.703,216.375 365.751,213.109 365.812,209.803 365.891,206.447 365.989,203.034 366.111,199.556 366.26,196.003 366.442,192.369 366.664,188.643 366.931,184.816 367.251,180.88 367.634,176.827 368.09,172.645 368.631,168.327 369.269,163.864 370.019,159.247 370.898,154.469 371.925,149.523 373.12,144.404 374.506,139.107 376.107,133.629 377.951,127.971 380.068,122.135 382.49,116.126 385.25,109.956 388.385,103.637 391.932,97.1904 395.931,90.6411"/>
<polyline fill="none" stroke="#87ceff" stroke-width="0.5" stroke-dasharray="1,1,1,1,1,1,1,1,1,1" points="429.78,332.113 426.021,328.866 422.519,325.522 419.261,322.106 416.24,318.636 413.442,315.129 410.859,311.601 408.477,308.065 406.286,304.532 404.273,301.011 402.428,297.51 400.739,294.036 399.196,290.593 397.79,287.185 396.509,283.814 395.347,280.484 394.294,277.193 393.342,273.943 392.484,270.733 391.715,267.562 391.026,264.428 390.414,261.33 389.873,258.265 389.398,255.231 388.986,252.225 388.634,249.244 388.337,246.286 388.095,243.345 387.904,240.421 387.763,237.508 387.671,234.604 387.628,231.705 387.628,231.705 387.671,234.604 387.763,237.508 387.904,240.421 388.095,243.345 388.337,246.286 388.634,249.244 388.986,252.225 389.398,255.231 389.873,258.265 390.414,261.33 391.026,264.428 391.715,267.562 392.484,270.733 393.342,273.943 394.294,277.193 395.347,280.484 396.509,283.814 397.79,287.185 399.196,290.593 400.739,294.036 402.428,297.51 404.273,301.011 406.286,304.532 408.477,308.065 410.859,311.601 413.442,315.129 416.24,318.636 419.261,322.106 422.519,325.522 426.021,328.866 429.78,332.113"/>
<polyline fill="none" stroke="#87ceff" stroke-width="0.5" stroke-dasharray="1,1,1,1,1,1,1,1,1,1" points="429.78,128.887 426.021,132.134 422.519,135.478 419.261,138.894 416.24,142.364 413.442,145.871 410.859,149.399 408.477,152.935 406.286,156.468 404.273,159.989 402.428,163.49 400.739,166.964 399.196,170.407 397.79,173.815 396.509,177.186 395.347,180.516 394.294,183.807 393.342,187.057 392.484,190.267 391.715,193.438 391.026,196.572 390.414,199.67 389.873,202.735 389.398,205.769 388.986,208.775 388.634,211.756 388.337,214.714 388.095,217.655 387.904,220.579 387.763,223.492 387.671,226.396 387.628,229.295 387.628,229.295 387.671,226.396 387.763,223.492 387.904,220.579 388.095,217.655 388.337,214.714 388.634,211.756 388.986,208.775 389.398,205.769 389.873,202.735 390.414,199.67 391.026,196.572 391.715,193.438 392.484,190.267 393.342,187.057 394.294,183.807 395.347,180.516 396.509,177.186 397.79,173.815 399.196,170.407 400.739,166.964 402.428,163.49 404.273,159.989 406.286,156.468 408.477,152.935 410.859,149.399 413.442,145.871 416.24,142.364 419.261,138.894 422.519,135.478 426.021,132.134 429.78,128.887"/>
<polyline fill="none" stroke="#87ceff" stroke-width="0.5" stroke-dasharray="1,1,1,1,1,1,1,1,1,1" points="451.512,283.921 449.263,283.025 447.09,282.021 444.997,280.917 442.983,279.721 441.051,278.438 439.202,277.078 437.436,275.646 435.753,274.148 434.154,272.591 432.637,270.98 431.202,269.321 429.848,267.619 428.573,265.878 427.377,264.103 426.258,262.296 425.215,260.463 424.246,258.606 423.35,256.728 422.525,254.832 421.77,252.919 421.084,250.994 420.465,249.056 419.912,247.108 419.424,245.153 419,243.189 418.64,241.221 418.341,239.247 418.104,237.27 417.927,235.29 417.812,233.308 417.757,231.325 417.757,231.325 417.812,233.308 417.927,235.29 418.104,237.27 418.341,239.247 418.64,241.221 419,243.189 419.424,245.153 419.912,247.108 420.465,249.056 421.084,250.994 421.77,252.919 422.525,254.832 423.35,256.728 424.246,258.606 425.215,260.463 426.258,262.296 427.377,264.103 428.573,265.878 429.848,267.619 431.202,269.321 432.637,270.98 434.154,272.591 435.753,274.148 437.436,275.646 439.202,277.078 441.051,278.438 442.983,279.721 444.997,280.917 447.09,282.021 449.263,283.025 451.512,283.921"/>
<polyline fill="none" stroke="#87ceff" stroke-width="0.5" stroke-dasharray="1,1,1,1,1,1,1,1,1,1" points="451.512,177.079 449.263,177.975 447.09,178.979 444.997,180.083 442.983,181.279 441.051,182.562 439.202,183.922 437.436,185.354 435.753,186.852 434.154,188.409 432.637,190.02 431.202,191.679 429.848,193.381 428.573,195.122 427.377,196.897 426.258,198.704 425.215,200.537 424.246,202.394 423.35,204.272 422.525,206.168 421.77,208.081 421.084,210.006 420.465,211.944 419.912,213.892 419.424,215.847 419,217.811 418.64,219.779 418.341,221.753 418.104,223.73 417.927,225.71 417.812,227.692 417.757,229.675 417.757,229.675 417.812,227.692 417.927,225.71 418.104,223.73 418.341,221.753 418.64,219.779 419,217.811 419.424,215.847 419.912,213.892 420.465,211.944 421.084,210.006 421.77,208.081 422.525,206.168 423.35,204.272 424.246,202.394 425.215,200.537 426.258,198.704 427.377,196.897 428.573,195.122 429.848,193.381 431.202,191.679 432.637,190.02 434.154,188.409 435.753,186.852 437.436,185.354 439.202,183.922 441.051,182.562 442.983,181.279 444.997,180.083 447.09,178.979 449.263,177.975 451.512,177.079"/>
<polyline fill="none" stroke="#00ffff" stroke-width="0.5" stroke-dasharray="1,1,1,1,1,1,1,1,1,1" points="459,230.5 446.136,208.826 431.95,190.797 416.955,176.293 401.612,165.133 386.32,157.084 371.421,151.879 357.197,149.222 343.874,148.803 331.625,150.306 320.572,153.418 310.794,157.835 302.329,163.265 295.177,169.438 289.312,176.105 284.679,183.042 281.206,190.053 278.802,196.966 277.368,203.638 276.795,209.952 276.97,215.817 276.97,245.183 276.795,251.048 277.368,257.362 278.802,264.034 281.206,270.947 284.679,277.958 289.312,284.895 295.177,291.562 302.329,297.735 310.794,303.165 320.572,307.582 331.625,310.694 343.874,312.197 357.197,311.778 371.421,309.121 386.32,303.916 401.612,295.867 416.955,284.707 431.95,270.203 446.136,252.174 459,230.5 448.196,207.208 435.378,187.206 421.08,170.567 405.807,157.28 390.028,147.257 374.168,140.343 358.604,136.332 343.661,134.973 329.611,135.985 316.673,139.065 305.017,143.897 294.759,150.162 285.974,157.546 278.688,165.747 272.896,174.477 268.553,183.472 265.589,192.494 263.911,201.33 263.405,209.796 263.944,217.743 263.944,243.257 263.405,251.204 263.911,259.67 265.589,268.506 268.553,277.528 272.896,286.523 278.688,295.253 285.974,303.454 294.759,310.838 305.017,317.103 316.673,321.935 329.611,325.015 343.661,326.027 358.604,324.668 374.168,320.657 390.028,313.743 405.807,303.72 421.08,290.433 435.378,273.794 448.196,253.792 459,230.5 450.322,205.88 439.033,184.054 425.633,165.282 410.627,149.73 394.512,137.476 377.767,128.51 360.842,122.746 344.15,120.034 328.062,120.161 312.904,122.869 298.947,127.863 286.41,134.819 275.462,143.399 266.216,153.253 258.736,164.036 253.04,175.412 249.101,187.058 246.853,198.678 246.197,210 247.005,220.786 247.005,240.214 246.197,251 246.853,262.322 249.101,273.942 253.04,285.588 258.736,296.964 266.216,307.747 275.462,317.601 286.41,326.181 298.947,333.137 312.904,338.131 328.062,340.839 344.15,340.966 360.842,338.254 377.767,332.49 394.512,323.524 410.627,311.27 425.633,295.718 439.033,276.946 450.322,255.12 459,230.5 452.516,204.818 442.929,181.313 430.659,160.413 416.161,142.459 399.917,127.699 382.42,116.292 364.165,108.305 345.634,103.72 327.285,102.44 309.546,104.295 292.803,109.049 277.394,116.412 263.606,126.048 251.669,137.591 241.757,150.649 233.98,164.817 228.397,179.689 225.005,194.869 223.753,209.975 224.541,224.65 224.541,236.35 223.753,251.025 225.005,266.131 228.397,281.311 233.98,296.183 241.757,310.351 251.669,323.409 263.606,334.952 277.394,344.588 292.803,351.951 309.546,356.705 327.285,358.56 345.634,357.28 364.165,352.695 382.42,344.708 399.917,333.301 416.161,318.541 430.659,300.587 442.929,279.687 452.516,256.182 459,230.5 454.78,204.01 447.083,178.982 436.205,155.977 422.507,135.489 406.408,117.938 388.374,103.659 368.9,92.8955 348.504,85.8013 327.708,82.4336 307.03,82.7593 286.965,86.6562 267.983,93.9199 250.51,104.269 234.922,117.358 221.539,132.786 210.617,150.104 202.345,168.836 196.842,188.483 194.155,208.542 194.262,228.512 194.262,232.488 194.155,252.458 196.842,272.517 202.345,292.164 210.617,310.896 221.539,328.214 234.922,343.642 250.51,356.731 267.983,367.08 286.965,374.344 307.03,378.241 327.708,378.566 348.504,375.199 368.9,368.104 388.374,357.341 406.408,343.062 422.507,325.511 436.205,305.023 447.083,282.018 454.78,256.99 459,230.5 457.116,203.457 451.512,177.079 442.324,152.017 429.78,128.887 414.188,108.259 395.931,90.6411 375.46,76.4673 353.28,66.0859 329.935,59.7534 306,57.625 282.065,59.7534 258.72,66.0859 236.54,76.4673 216.069,90.6411 197.812,108.259 182.22,128.887 169.676,152.017 160.488,177.079 154.884,203.457 153,230.5 153,230.5 154.884,257.543 160.488,283.921 169.676,308.983 182.22,332.113 197.812,352.741 216.069,370.359 236.54,384.533 258.72,394.914 282.065,401.247 306,403.375 329.935,401.247 353.28,394.914 375.46,384.533 395.931,370.359 414.188,352.741 429.78,332.113 442.324,308.983 451.512,283.921 457.116,257.543 459,230.5"/>
<polygon fill="#ffffff" points="361,112 365,108 369,112"/>
<polygon fill="#ffffff" points="361,112 369,112 365,116"/>
<polyline fill="none" stroke="#000000" stroke-width="0.5" points="361,112 365,108 369,112 365,116 361,112"/>
<polygon fill="#ffffff" points="361,349 365,345 369,349"/>
<polygon fill="#ffffff" points="361,349 369,349 365,353"/>
<polyline fill="none" stroke="#000000" stroke-width="0.5" points="361,349 365,345 369,349 365,353 361,349"/>
<polygon fill="#ffffff" points="442,196 446,192 450,196"/>
<polygon fill="#ffffff" points="442,196 450,196 446,200"/>
<polyline fill="none" stroke="#000000" stroke-width="0.5" points="442,196 446,192 450,196 446,200 442,196"/>
<polygon fill="#ffffff" points="442,265 446,261 450,265"/>
<polygon fill="#ffffff" points="442,265 450,265 446,269"/>
<polyline fill="none" stroke="#000000" stroke-width="0.5" points="442,265 446,261 450,265 446,269 442,265"/>
<polyline fill="none" stroke="#000000" stroke-width="0.5" points="378,88 386,96"/>
<polyline fill="none" stroke="#000000" stroke-width="0.5" points="378,96 386,88"/>
<polyline fill="none" stroke="#000000" stroke-width="0.5" points="378,365 386,373"/>
<polyline fill="none" stroke="#000000" stroke-width="0.5" points="378,373 386,365"/>
<polyline fill="none" stroke="#000000" stroke-width="0.5" points="157,215 165,223"/>
<polyline fill="none" stroke="#000000" stroke-width="0.5" points="157,223 165,215"/>
<polyline fill="none" stroke="#000000" stroke-width="0.5" points="157,238 165,246"/>
<polyline fill="none" stroke="#000000" stroke-width="0.5" points="157,246 165,238"/>
<polyline fill="none" stroke="#000000" stroke-width="0.5" points="382.208,92.4463 382.209,92.4448 382.21,92.4434 382.212,92.4424 382.213,92.4409 382.214,92.4399 382.216,92.4385 382.217,92.437 382.218,92.436 382.22,92.4346 382.221,92.4331 382.222,92.4321 382.224,92.4307 382.225,92.4292 382.226,92.4282 382.228,92.4268 382.229,92.4258 382.23,92.4243 382.231,92.4229 382.233,92.4219 382.234,92.4204 382.235,92.4189 382.237,92.418 382.238,92.4165 382.239,92.4155 382.242,92.4126 382.245,92.4102 382.248,92.4077 382.25,92.4053 382.252,92.4023 382.255,92.3999 382.258,92.3975 382.261,92.3945 382.263,92.3921 382.266,92.3896 382.269,92.3872 382.271,92.3843 382.274,92.3818 382.276,92.3794 382.279,92.377 382.282,92.374 382.285,92.3716 382.287,92.3691 382.29,92.3662 382.292,92.3638 382.295,92.3613 382.298,92.3589 382.3,92.356 382.303,92.3535 382.306,92.3511 382.309,92.3486 382.311,92.3457 382.314,92.3433 382.316,92.3408 382.319,92.3379 382.322,92.3354 382.325,92.333 382.327,92.3306 382.33,92.3276 382.333,92.3252 382.335,92.3228 382.338,92.3203 382.34,92.3174 382.343,92.3149 382.346,92.3125 382.349,92.3096 382.351,92.3071 382.356,92.3022 382.362,92.2969 382.367,92.2915 382.373,92.2866 382.378,92.2812 382.383,92.2764 382.389,92.271 382.394,92.2661 382.4,92.2607 382.405,92.2554 382.411,92.2505 382.416,92.2451 382.421,92.2402 382.427,92.2349 382.432,92.2295 382.438,92.2246 382.443,92.2192 382.448,92.2144 382.454,92.209 382.459,92.2036 382.465,92.1987 382.47,92.1934 382.476,92.1885 382.481,92.1831 382.487,92.1777 382.492,92.1729 382.498,92.1675 382.503,92.1626 382.508,92.1572 382.514,92.1519 382.52,92.147 382.525,92.1416 382.53,92.1367 382.536,92.1313 382.542,92.126 382.547,92.1211 382.552,92.1157 382.558,92.1104 382.563,92.1055 382.569,92.1001 382.575,92.0952 382.58,92.0898 382.585,92.0845 382.591,92.0796 382.597,92.0742 382.602,92.0688 382.608,92.064 382.613,92.0586 382.619,92.0532 382.625,92.0483 382.63,92.043 382.636,92.0376 382.641,92.0327 382.647,92.0273 382.652,92.022 382.658,92.0171 382.664,92.0117 382.669,92.0068 382.675,92.0015 382.68,91.9961 382.686,91.9912 382.691,91.9858 382.697,91.9805 382.703,91.9756 382.708,91.9702 382.714,91.9648 382.72,91.96 382.725,91.9546 382.731,91.9492 382.742,91.939 382.753,91.9287 382.765,91.918 382.776,91.9077 382.788,91.897 382.799,91.8867 382.811,91.8765 382.822,91.8657 382.833,91.8555 382.845,91.8447 382.856,91.8345 382.868,91.8242 382.879,91.8135 382.891,91.8032 382.902,91.7925 382.914,91.7822 382.925,91.772 382.937,91.7612 382.948,91.751 382.96,91.7402 382.972,91.73 382.983,91.7192 382.995,91.709 383.007,91.6982 383.019,91.688 383.03,91.6777 383.042,91.667 383.054,91.6567 383.065,91.646 383.077,91.6357 383.089,91.625 383.101,91.6147 383.113,91.604 383.125,91.5938 383.136,91.583 383.148,91.5728 383.16,91.562 383.172,91.5518 383.184,91.541 383.196,91.5308 383.208,91.52 383.22,91.5098 383.232,91.499 383.244,91.4883 383.256,91.478 383.268,91.4673 383.28,91.457 383.292,91.4463 383.305,91.436 383.317,91.4253 383.329,91.415 383.341,91.4043 383.354,91.394 383.366,91.3833 383.378,91.3726 383.39,91.3623 383.402,91.3516 383.415,91.3413 383.427,91.3306 383.439,91.3203 383.452,91.3096 383.464,91.2988 383.476,91.2886 383.489,91.2778 383.501,91.2676 383.514,91.2568 383.526,91.2466 383.539,91.2358 383.551,91.2251 383.563,91.2148 383.576,91.2041 383.588,91.1938 383.601,91.1831 383.614,91.1724 383.626,91.1621 383.639,91.1514 383.652,91.1411 383.664,91.1304 383.677,91.1201 383.689,91.1094 383.702,91.0986 383.715,91.0884 383.728,91.0776 383.741,91.0674 383.753,91.0566 383.766,91.0459 383.779,91.0356 383.792,91.0249 383.805,91.0146 383.831,90.9932 383.856,90.9722 383.882,90.9512 383.909,90.9302 383.935,90.9092 383.961,90.8882 383.987,90.8667 384.013,90.8457 384.04,90.8247 384.066,90.8037 384.093,90.7827 384.12,90.7617 384.146,90.7407 384.173,90.7197 384.2,90.6982 384.227,90.6772 384.254,90.6562 384.281,90.6353 384.309,90.6143 384.335,90.5933 384.363,90.5723 384.391,90.5513 384.418,90.5303 384.446,90.5093 384.473,90.4883 384.501,90.4673 384.529,90.4468 384.557,90.4258 384.585,90.4048 384.613,90.3838 384.641,90.3628 384.669,90.3418 384.698,90.3213 384.727,90.3003 384.755,90.2793 384.784,90.2588 384.812,90.2378 384.841,90.2168 384.87,90.1963 384.899,90.1753 384.928,90.1548 384.957,90.1338 384.986,90.1133 385.015,90.0923 385.045,90.0718 385.074,90.0513 385.104,90.0303 385.133,90.0098 385.163,89.9893 385.193,89.9688 385.223,89.9478 385.252,89.9272 385.283,89.9067 385.313,89.8862 385.343,89.8657 385.374,89.8452 385.404,89.8247 385.434,89.8047 385.465,89.7842 385.496,89.7637 385.526,89.7432 385.557,89.7231 385.588,89.7026 385.619,89.6826 385.65,89.6621 385.681,89.6421 385.712,89.6216 385.744,89.6016 385.775,89.5815 385.807,89.5615 385.838,89.541 385.87,89.521 385.902,89.501 385.934,89.481 385.966,89.4614 385.998,89.4414 386.03,89.4214 386.062,89.4014 386.094,89.3818 386.127,89.3618 386.159,89.3423 386.192,89.3223 386.225,89.3027 386.257,89.2832 386.29,89.2637 386.323,89.2441 386.356,89.2246 386.422,89.1855 386.489,89.1465 386.556,89.1079 386.624,89.0698 386.691,89.0312 386.759,88.9932 386.828,88.9551 386.896,88.9175 386.966,88.8799 387.035,88.8428 387.105,88.8057 387.175,88.7686 387.246,88.7319 387.317,88.6953 387.388,88.6592 387.46,88.623 387.532,88.5869 387.604,88.5513 387.677,88.5161 387.75,88.481 387.824,88.4458 387.897,88.4116 387.972,88.377 388.046,88.3428 388.121,88.3091 388.196,88.2754 388.271,88.2422 388.347,88.209 388.423,88.1763 388.5,88.144 388.577,88.1118 388.654,88.0801 388.731,88.0483 388.809,88.0171 388.887,87.9863 388.966,87.9556 389.044,87.9253 389.124,87.8955 389.203,87.8657 389.283,87.8364 389.363,87.8076 389.443,87.7788 389.524,87.7505 389.605,87.7227 389.686,87.6953 389.768,87.668 389.85,87.6411 389.932,87.6147 390.014,87.5889 390.097,87.563 390.18,87.5381 390.264,87.5132 390.347,87.4883 390.431,87.4644 390.515,87.4404 390.6,87.4175 390.684,87.3945 390.769,87.3721 390.854,87.3496 390.94,87.3281 391.025,87.3071 391.111,87.2861 391.198,87.2656 391.284,87.2456 391.371,87.2261 391.458,87.207 391.632,87.1704 391.808,87.1353 391.984,87.1021 392.161,87.0708 392.338,87.041 392.517,87.0132 392.696,86.9878 392.876,86.9639 393.056,86.9419 393.237,86.9214 393.419,86.9033 393.601,86.8872 393.784,86.873 393.966,86.8608 394.15,86.8506 394.333,86.8418 394.518,86.8354 394.702,86.8311 394.887,86.8286 395.071,86.8281 395.256,86.8301 395.441,86.8335 395.627,86.8389 395.812,86.8462 395.998,86.8555 396.183,86.8667 396.368,86.8799 396.553,86.895 396.738,86.9121 396.923,86.9307 397.108,86.9517 397.292,86.9741 397.477,86.9985 397.661,87.0249 397.845,87.0532 398.028,87.083 398.212,87.1147 398.395,87.1479 398.577,87.1836 398.759,87.2202 398.94,87.2588 399.122,87.2993 399.482,87.3848 399.841,87.4766 400.197,87.5747 400.551,87.6792 400.902,87.7891 401.251,87.9053 401.597,88.0264 401.94,88.1533 402.28,88.2852 402.617,88.4219 402.951,88.5635 403.281,88.7095 403.608,88.8599 403.932,89.0146 404.252,89.1733 404.57,89.3359 404.884,89.5024 405.194,89.6724 405.501,89.8452 405.804,90.0215 406.104,90.2012 406.4,90.3833 406.693,90.5684 406.983,90.7559 407.269,90.9458 407.552,91.1387 407.831,91.333 408.107,91.5298 408.648,91.9292 409.176,92.3354 409.692,92.748 410.194,93.166 410.684,93.5889 411.162,94.0151 411.627,94.4453 412.082,94.8784 412.524,95.3135 412.956,95.7505 413.377,96.189 413.788,96.6289 414.188,97.0688 414.579,97.5093 414.96,97.9497 415.332,98.3901 415.695,98.8296 416.049,99.2686 416.395,99.7065 416.733,100.143 417.063,100.579 417.385,101.012 417.7,101.444 418.008,101.875 418.309,102.303 418.603,102.729 418.891,103.153 419.172,103.575 419.447,103.995 419.716,104.412 419.979,104.827 420.237,105.239 420.49,105.648 420.737,106.055 420.979,106.459 421.216,106.861 421.449,107.26 421.676,107.656 421.9,108.049 422.119,108.44 422.333,108.828 422.544,109.213 422.75,109.595 422.953,109.975 423.152,110.351 423.347,110.725 423.727,111.464 424.093,112.192 424.446,112.908 424.788,113.614 425.117,114.309 425.436,114.993 425.745,115.666 426.043,116.328 426.333,116.98 426.613,117.622 426.886,118.254 427.149,118.875 427.406,119.488 427.655,120.09 427.897,120.683 428.132,121.267 428.361,121.841 428.584,122.407 428.801,122.964 429.012,123.513 429.218,124.053 429.418,124.584 429.614,125.108 429.805,125.624 429.991,126.132 430.173,126.633 430.351,127.125 430.524,127.611 430.693,128.09 430.859,128.562 431.021,129.026 431.18,129.484 431.335,129.936 431.487,130.38 431.635,130.819 431.781,131.251 431.923,131.677 432.063,132.098 432.2,132.512 432.333,132.921 432.594,133.722 432.845,134.5 433.085,135.259 433.318,135.998 433.542,136.717 433.758,137.418 433.967,138.101 434.169,138.767 434.364,139.417 434.553,140.05 434.735,140.669 434.913,141.272 435.084,141.862 435.25,142.438 435.412,143 435.568,143.551 435.721,144.088 435.869,144.614 436.012,145.128 436.152,145.631 436.288,146.124 436.42,146.605 436.549,147.077 436.674,147.539 436.796,147.992 436.915,148.435 437.031,148.87 437.145,149.295 437.255,149.713 437.468,150.524 437.671,151.305 437.865,152.058 438.05,152.783 438.227,153.482 438.396,154.157 438.559,154.809 438.714,155.44 438.864,156.049 439.008,156.64 439.146,157.211 439.279,157.765 439.407,158.302 439.531,158.823 439.65,159.328 439.765,159.819 439.875,160.296 439.982,160.759 440.086,161.21 440.187,161.648 440.283,162.075 440.377,162.49 440.556,163.289 440.725,164.048 440.883,164.77 441.033,165.458 441.174,166.114 441.309,166.74 441.436,167.339 441.556,167.913 441.67,168.463 441.78,168.99 441.883,169.496 441.983,169.982 442.078,170.451 442.168,170.901 442.254,171.334 442.337,171.753 442.494,172.546 442.637,173.286 442.771,173.979 442.894,174.628 443.008,175.239 443.116,175.814 443.216,176.356 443.31,176.87 443.397,177.355 443.48,177.816 443.559,178.253 443.632,178.669 443.768,179.443 443.89,180.148 444,180.794 444.101,181.387 444.192,181.934 444.275,182.44 444.353,182.911 444.423,183.348 444.489,183.756 444.607,184.496 444.709,185.149 444.8,185.73 444.879,186.25 444.95,186.719 445.014,187.143 445.124,187.882 445.214,188.504 445.291,189.035 445.356,189.494 445.413,189.894 445.506,190.559 445.579,191.089 445.637,191.521 445.686,191.881 445.761,192.446 445.816,192.869 445.893,193.459 445.943,193.853 446.005,194.344"/>
<polyline fill="none" stroke="#0000ff" stroke-width="0.5" points="382.208,368.554 382.209,368.555 382.21,368.557 382.212,368.558 382.213,368.559 382.214,368.56 382.216,368.562 382.217,368.563 382.218,368.564 382.22,368.565 382.221,368.567 382.222,368.568 382.224,368.569 382.225,368.571 382.226,368.572 382.228,368.573 382.229,368.574 382.23,368.576 382.231,368.577 382.233,368.578 382.234,368.58 382.235,368.581 382.237,368.582 382.238,368.583 382.239,368.584 382.242,368.587 382.245,368.59 382.248,368.592 382.25,368.595 382.252,368.598 382.255,368.6 382.258,368.603 382.261,368.605 382.263,368.608 382.266,368.61 382.269,368.613 382.271,368.616 382.274,368.618 382.276,368.621 382.279,368.623 382.282,368.626 382.285,368.628 382.287,368.631 382.29,368.634 382.292,368.636 382.295,368.639 382.298,368.641 382.3,368.644 382.303,368.646 382.306,368.649 382.309,368.651 382.311,368.654 382.314,368.657 382.316,368.659 382.319,368.662 382.322,368.665 382.325,368.667 382.327,368.669 382.33,368.672 382.333,368.675 382.335,368.677 382.338,368.68 382.34,368.683 382.343,368.685 382.346,368.688 382.349,368.69 382.351,368.693 382.356,368.698 382.362,368.703 382.367,368.708 382.373,368.713 382.378,368.719 382.383,368.724 382.389,368.729 382.394,368.734 382.4,368.739 382.405,368.745 382.411,368.75 382.416,368.755 382.421,368.76 382.427,368.765 382.432,368.771 382.438,368.775 382.443,368.781 382.448,368.786 382.454,368.791 382.459,368.796 382.465,368.801 382.47,368.807 382.476,368.812 382.481,368.817 382.487,368.822 382.492,368.827 382.498,368.833 382.503,368.837 382.508,368.843 382.514,368.848 382.52,368.853 382.525,368.858 382.53,368.863 382.536,368.869 382.542,368.874 382.547,368.879 382.552,368.884 382.558,368.89 382.563,368.895 382.569,368.9 382.575,368.905 382.58,368.91 382.585,368.916 382.591,368.92 382.597,368.926 382.602,368.931 382.608,368.936 382.613,368.941 382.619,368.947 382.625,368.952 382.63,368.957 382.636,368.962 382.641,368.967 382.647,368.973 382.652,368.978 382.658,368.983 382.664,368.988 382.669,368.993 382.675,368.999 382.68,369.004 382.686,369.009 382.691,369.014 382.697,369.02 382.703,369.024 382.708,369.03 382.714,369.035 382.72,369.04 382.725,369.045 382.731,369.051 382.742,369.061 382.753,369.071 382.765,369.082 382.776,369.092 382.788,369.103 382.799,369.113 382.811,369.124 382.822,369.134 382.833,369.145 382.845,369.155 382.856,369.166 382.868,369.176 382.879,369.187 382.891,369.197 382.902,369.208 382.914,369.218 382.925,369.228 382.937,369.239 382.948,369.249 382.96,369.26 382.972,369.27 382.983,369.281 382.995,369.291 383.007,369.302 383.019,369.312 383.03,369.322 383.042,369.333 383.054,369.343 383.065,369.354 383.077,369.364 383.089,369.375 383.101,369.385 383.113,369.396 383.125,369.406 383.136,369.417 383.148,369.427 383.16,369.438 383.172,369.448 383.184,369.459 383.196,369.469 383.208,369.48 383.22,369.49 383.232,369.501 383.244,369.512 383.256,369.522 383.268,369.533 383.28,369.543 383.292,369.554 383.305,369.564 383.317,369.575 383.329,369.585 383.341,369.596 383.354,369.606 383.366,369.617 383.378,369.627 383.39,369.638 383.402,369.648 383.415,369.659 383.427,369.669 383.439,369.68 383.452,369.69 383.464,369.701 383.476,369.711 383.489,369.722 383.501,369.732 383.514,369.743 383.526,369.753 383.539,369.764 383.551,369.775 383.563,369.785 383.576,369.796 383.588,369.806 383.601,369.817 383.614,369.828 383.626,369.838 383.639,369.849 383.652,369.859 383.664,369.87 383.677,369.88 383.689,369.891 383.702,369.901 383.715,369.912 383.728,369.922 383.741,369.933 383.753,369.943 383.766,369.954 383.779,369.964 383.792,369.975 383.805,369.985 383.831,370.007 383.856,370.028 383.882,370.049 383.909,370.07 383.935,370.091 383.961,370.112 383.987,370.133 384.013,370.154 384.04,370.175 384.066,370.196 384.093,370.217 384.12,370.238 384.146,370.259 384.173,370.28 384.2,370.302 384.227,370.323 384.254,370.344 384.281,370.365 384.309,370.386 384.335,370.407 384.363,370.428 384.391,370.449 384.418,370.47 384.446,370.491 384.473,370.512 384.501,370.533 384.529,370.553 384.557,370.574 384.585,370.595 384.613,370.616 384.641,370.637 384.669,370.658 384.698,370.679 384.727,370.7 384.755,370.721 384.784,370.741 384.812,370.762 384.841,370.783 384.87,370.804 384.899,370.825 384.928,370.845 384.957,370.866 384.986,370.887 385.015,370.908 385.045,370.928 385.074,370.949 385.104,370.97 385.133,370.99 385.163,371.011 385.193,371.031 385.223,371.052 385.252,371.073 385.283,371.093 385.313,371.114 385.343,371.134 385.374,371.155 385.404,371.175 385.434,371.195 385.465,371.216 385.496,371.236 385.526,371.257 385.557,371.277 385.588,371.297 385.619,371.317 385.65,371.338 385.681,371.358 385.712,371.378 385.744,371.398 385.775,371.418 385.807,371.438 385.838,371.459 385.87,371.479 385.902,371.499 385.934,371.519 385.966,371.539 385.998,371.559 386.03,371.579 386.062,371.599 386.094,371.618 386.127,371.638 386.159,371.658 386.192,371.678 386.225,371.697 386.257,371.717 386.29,371.736 386.323,371.756 386.356,371.775 386.422,371.814 386.489,371.854 386.556,371.892 386.624,371.93 386.691,371.969 386.759,372.007 386.828,372.045 386.896,372.083 386.966,372.12 387.035,372.157 387.105,372.194 387.175,372.231 387.246,372.268 387.317,372.305 387.388,372.341 387.46,372.377 387.532,372.413 387.604,372.449 387.677,372.484 387.75,372.519 387.824,372.554 387.897,372.588 387.972,372.623 388.046,372.657 388.121,372.691 388.196,372.725 388.271,372.758 388.347,372.791 388.423,372.824 388.5,372.856 388.577,372.888 388.654,372.92 388.731,372.952 388.809,372.983 388.887,373.014 388.966,373.044 389.044,373.075 389.124,373.104 389.203,373.134 389.283,373.164 389.363,373.192 389.443,373.221 389.524,373.25 389.605,373.277 389.686,373.305 389.768,373.332 389.85,373.359 389.932,373.385 390.014,373.411 390.097,373.437 390.18,373.462 390.264,373.487 390.347,373.512 390.431,373.536 390.515,373.56 390.6,373.583 390.684,373.605 390.769,373.628 390.854,373.65 390.94,373.672 391.025,373.693 391.111,373.714 391.198,373.734 391.284,373.754 391.371,373.774 391.458,373.793 391.632,373.83 391.808,373.865 391.984,373.898 392.161,373.929 392.338,373.959 392.517,373.987 392.696,374.012 392.876,374.036 393.056,374.058 393.237,374.079 393.419,374.097 393.601,374.113 393.784,374.127 393.966,374.139 394.15,374.149 394.333,374.158 394.518,374.165 394.702,374.169 394.887,374.171 395.071,374.172 395.256,374.17 395.441,374.167 395.627,374.161 395.812,374.154 395.998,374.145 396.183,374.133 396.368,374.12 396.553,374.105 396.738,374.088 396.923,374.069 397.108,374.048 397.292,374.026 397.477,374.001 397.661,373.975 397.845,373.947 398.028,373.917 398.212,373.885 398.395,373.852 398.577,373.816 398.759,373.78 398.94,373.741 399.122,373.701 399.482,373.615 399.841,373.523 400.197,373.425 400.551,373.321 400.902,373.211 401.251,373.095 401.597,372.974 401.94,372.847 402.28,372.715 402.617,372.578 402.951,372.437 403.281,372.291 403.608,372.14 403.932,371.985 404.252,371.827 404.57,371.664 404.884,371.498 405.194,371.328 405.501,371.155 405.804,370.979 406.104,370.799 406.4,370.617 406.693,370.432 406.983,370.244 407.269,370.054 407.552,369.861 407.831,369.667 408.107,369.47 408.648,369.071 409.176,368.665 409.692,368.252 410.194,367.834 410.684,367.411 411.162,366.985 411.627,366.555 412.082,366.122 412.524,365.687 412.956,365.25 413.377,364.811 413.788,364.371 414.188,363.931 414.579,363.491 414.96,363.05 415.332,362.61 415.695,362.17 416.049,361.731 416.395,361.293 416.733,360.857 417.063,360.421 417.385,359.988 417.7,359.556 418.008,359.125 418.309,358.697 418.603,358.271 418.891,357.847 419.172,357.425 419.447,357.005 419.716,356.588 419.979,356.173 420.237,355.761 420.49,355.352 420.737,354.945 420.979,354.541 421.216,354.139 421.449,353.74 421.676,353.344 421.9,352.951 422.119,352.56 422.333,352.172 422.544,351.787 422.75,351.405 422.953,351.025 423.152,350.649 423.347,350.275 423.727,349.536 424.093,348.808 424.446,348.092 424.788,347.386 425.117,346.691 425.436,346.007 425.745,345.334 426.043,344.672 426.333,344.02 426.613,343.378 426.886,342.746 427.149,342.125 427.406,341.512 427.655,340.91 427.897,340.317 428.132,339.733 428.361,339.159 428.584,338.593 428.801,338.036 429.012,337.487 429.218,336.947 429.418,336.416 429.614,335.892 429.805,335.376 429.991,334.868 430.173,334.367 430.351,333.875 430.524,333.389 430.693,332.91 430.859,332.438 431.021,331.974 431.18,331.516 431.335,331.064 431.487,330.62 431.635,330.181 431.781,329.749 431.923,329.323 432.063,328.902 432.2,328.488 432.333,328.079 432.594,327.278 432.845,326.5 433.085,325.741 433.318,325.002 433.542,324.283 433.758,323.582 433.967,322.899 434.169,322.233 434.364,321.583 434.553,320.95 434.735,320.331 434.913,319.728 435.084,319.138 435.25,318.562 435.412,318 435.568,317.449 435.721,316.912 435.869,316.386 436.012,315.872 436.152,315.369 436.288,314.876 436.42,314.395 436.549,313.923 436.674,313.461 436.796,313.008 436.915,312.565 437.031,312.13 437.145,311.705 437.255,311.287 437.468,310.476 437.671,309.695 437.865,308.942 438.05,308.217 438.227,307.518 438.396,306.843 438.559,306.191 438.714,305.56 438.864,304.951 439.008,304.36 439.146,303.789 439.279,303.235 439.407,302.698 439.531,302.177 439.65,301.672 439.765,301.181 439.875,300.704 439.982,300.241 440.086,299.79 440.187,299.352 440.283,298.925 440.377,298.51 440.556,297.711 440.725,296.952 440.883,296.23 441.033,295.542 441.174,294.886 441.309,294.26 441.436,293.661 441.556,293.087 441.67,292.537 441.78,292.01 441.883,291.504 441.983,291.018 442.078,290.549 442.168,290.099 442.254,289.666 442.337,289.247 442.494,288.454 442.637,287.714 442.771,287.021 442.894,286.372 443.008,285.761 443.116,285.186 443.216,284.644 443.31,284.13 443.397,283.645 443.48,283.184 443.559,282.747 443.632,282.331 443.768,281.557 443.89,280.852 444,280.206 444.101,279.613 444.192,279.066 444.275,278.56 444.353,278.089 444.423,277.652 444.489,277.244 444.607,276.504 444.709,275.851 444.8,275.27 444.879,274.75 444.95,274.281 445.014,273.857 445.124,273.118 445.214,272.496 445.291,271.965 445.356,271.506 445.413,271.106 445.506,270.441 445.579,269.911 445.637,269.479 445.686,269.119 445.761,268.554 445.816,268.131 445.893,267.541 445.943,267.147 446.005,266.656"/>
<polyline fill="none" stroke="#00ff00" stroke-width="0.5" points="160.942,219.236 161.01,218.285 161.079,217.403 161.146,216.579 161.214,215.8 161.283,215.062 161.351,214.359 161.418,213.685 161.486,213.039 161.554,212.416 161.622,211.813 161.69,211.231 161.758,210.667 161.825,210.119 161.893,209.585 161.961,209.065 162.028,208.559 162.096,208.064 162.164,207.58 162.231,207.107 162.298,206.644 162.366,206.19 162.433,205.745 162.5,205.308 162.568,204.879 162.703,204.043 162.837,203.235 162.971,202.452 163.105,201.691 163.239,200.952 163.373,200.232 163.507,199.531 163.64,198.846 163.774,198.178 163.907,197.524 164.04,196.884 164.173,196.258 164.306,195.645 164.438,195.042 164.571,194.452 164.704,193.872 164.836,193.303 164.968,192.743 165.1,192.192 165.232,191.651 165.364,191.118 165.496,190.593 165.627,190.077 165.758,189.567 165.889,189.065 166.021,188.571 166.151,188.083 166.282,187.602 166.413,187.126 166.543,186.658 166.674,186.194 166.804,185.737 166.934,185.286 167.064,184.839 167.194,184.398 167.323,183.963 167.453,183.532 167.583,183.106 167.712,182.685 167.841,182.268 167.97,181.855 168.099,181.447 168.356,180.644 168.613,179.856 168.869,179.084 169.125,178.327 169.38,177.584 169.635,176.854 169.889,176.137 170.143,175.432 170.396,174.739 170.648,174.057 170.901,173.387 171.152,172.727 171.403,172.077 171.654,171.437 171.904,170.806 172.153,170.185 172.402,169.573 172.651,168.969 172.899,168.374 173.146,167.787 173.394,167.207 173.64,166.636 173.886,166.071 174.131,165.515 174.376,164.965 174.621,164.422 174.865,163.885 175.108,163.356 175.352,162.833 175.594,162.315 175.836,161.804 176.078,161.299 176.319,160.799 176.559,160.305 176.799,159.817 177.039,159.334 177.278,158.856 177.517,158.384 177.755,157.917 177.993,157.454 178.23,156.996 178.466,156.543 178.703,156.095 178.938,155.651 179.174,155.212 179.409,154.777 179.643,154.346 179.877,153.92 180.11,153.498 180.343,153.079 180.576,152.665 180.808,152.254 181.04,151.848 181.271,151.445 181.501,151.046 181.732,150.651 181.961,150.259 182.191,149.871 182.42,149.486 182.648,149.105 182.876,148.727 183.104,148.353 183.331,147.981 183.558,147.613 183.784,147.248 184.009,146.886 184.235,146.527 184.459,146.171 184.684,145.818 185.131,145.122 185.577,144.436 186.021,143.762 186.464,143.098 186.904,142.444 187.343,141.801 187.781,141.168 188.216,140.545 188.65,139.931 189.082,139.326 189.513,138.73 189.941,138.143 190.369,137.564 190.794,136.994 191.218,136.432 191.641,135.877 192.062,135.331 192.481,134.792 192.898,134.261 193.314,133.737 193.729,133.22 194.142,132.71 194.553,132.207 194.963,131.711 195.371,131.221 195.778,130.738 196.183,130.261 196.587,129.79 196.989,129.325 197.39,128.866 197.789,128.413 198.187,127.966 198.583,127.524 198.978,127.088 199.371,126.657 199.763,126.232 200.153,125.812 200.542,125.396 200.93,124.987 201.316,124.582 201.701,124.182 202.084,123.786 202.466,123.396 202.846,123.01 203.226,122.628 203.604,122.251 203.98,121.879 204.355,121.511 204.729,121.146 205.101,120.787 205.472,120.431 205.841,120.08 206.21,119.732 206.577,119.389 206.942,119.049 207.307,118.714 207.67,118.382 208.032,118.053 208.392,117.729 208.751,117.408 209.109,117.09 209.466,116.776 209.821,116.466 210.176,116.159 210.528,115.855 210.88,115.555 211.23,115.258 211.58,114.964 211.928,114.673 212.274,114.386 212.62,114.102 212.964,113.82 213.307,113.542 213.649,113.267 213.99,112.994 214.33,112.725 214.668,112.458 215.005,112.194 215.341,111.933 215.676,111.675 216.01,111.419 216.342,111.166 216.673,110.916 217.004,110.668 217.333,110.423 217.661,110.181 217.988,109.941 218.313,109.703 218.638,109.468 219.284,109.005 219.925,108.552 220.562,108.108 221.196,107.673 221.824,107.247 222.449,106.829 223.069,106.419 223.685,106.019 224.297,105.625 224.905,105.241 225.508,104.863 226.108,104.493 226.704,104.131 227.296,103.776 227.884,103.428 228.468,103.086 229.048,102.752 229.625,102.424 230.198,102.103 230.767,101.788 231.332,101.479 231.894,101.176 232.452,100.879 233.006,100.588 233.557,100.303 234.104,100.023 234.648,99.7495 235.189,99.481 235.726,99.2173 236.26,98.9595 236.79,98.7065 237.316,98.4585 237.84,98.2153 238.36,97.9771 238.877,97.7432 239.391,97.5146 239.901,97.29 240.409,97.0703 240.913,96.8545 241.414,96.6436 241.912,96.4365 242.406,96.2339 242.898,96.0352 243.387,95.8403 243.873,95.6494 244.355,95.4629 244.835,95.2798 245.312,95.1001 245.786,94.9243 246.257,94.7524 246.725,94.584 247.19,94.4189 247.653,94.2573 248.112,94.0991 248.569,93.9438 249.023,93.792 249.475,93.6436 249.923,93.498 250.37,93.356 250.813,93.2168 251.253,93.0806 251.692,92.9473 252.127,92.8169 252.56,92.689 252.99,92.5645 253.418,92.4424 253.843,92.3228 254.266,92.2061 254.687,92.0923 255.104,91.981 255.52,91.8716 255.933,91.7651 256.343,91.6611 256.751,91.5596 257.157,91.4604 257.56,91.3638 257.961,91.269 258.36,91.1768 258.756,91.0869 259.15,90.999 259.542,90.9131 259.932,90.8296 260.319,90.748 260.704,90.6689 261.087,90.5913 261.468,90.5161 261.846,90.4429 262.597,90.3018 263.339,90.168 264.073,90.042 264.798,89.9229 265.515,89.8105 266.225,89.7051 266.926,89.606 267.619,89.5132 268.305,89.4263 268.983,89.3452 269.653,89.27 270.317,89.2002 270.973,89.1362 271.621,89.0771 272.263,89.0234 272.897,88.9741 273.525,88.9302 274.146,88.8906 274.76,88.8555 275.368,88.8247 275.968,88.7983 276.563,88.7759 277.151,88.7578 277.732,88.7432 278.308,88.7324 278.877,88.7256 279.441,88.7222 279.998,88.7222 280.549,88.7256 281.095,88.7324 281.635,88.7422 282.169,88.7549 282.697,88.7705 283.22,88.7891 283.738,88.8105 284.25,88.835 284.756,88.8618 285.258,88.8911 285.754,88.9229 286.245,88.957 286.731,88.9937 287.212,89.0327 287.688,89.0737 288.159,89.1167 288.625,89.1616 289.086,89.209 289.543,89.2578 289.996,89.3091 290.443,89.3618 290.886,89.416 291.324,89.4722 291.758,89.5298 292.188,89.5894 292.613,89.6504 293.034,89.7124 293.45,89.7764 293.863,89.8413 294.271,89.9082 294.675,89.9756 295.075,90.0449 295.472,90.1147 295.864,90.186 296.252,90.2588 296.637,90.332 297.017,90.4067 297.394,90.4819 298.137,90.6357 298.865,90.793 299.579,90.9536 300.279,91.1172 300.965,91.2832 301.638,91.4517 302.298,91.6226 302.946,91.7954 303.581,91.9697 304.205,92.146 304.816,92.3237 305.416,92.5024 306.004,92.6826 306.582,92.8633 307.149,93.0449 307.705,93.2271 308.251,93.4097 308.788,93.5928 309.314,93.7759 309.831,93.9595 310.338,94.1426 310.836,94.3262 311.326,94.5088 311.807,94.6914 312.279,94.874 312.743,95.0557 313.198,95.2373 313.646,95.418 314.086,95.5977 314.519,95.7773 314.944,95.9556 315.361,96.1333 315.772,96.3096 316.176,96.4854 316.573,96.6602 316.964,96.834 317.348,97.0063 317.726,97.1777 318.097,97.3481 318.462,97.5171 318.822,97.6851 319.176,97.8516 319.867,98.1812 320.537,98.5054 321.186,98.8247 321.815,99.1382 322.426,99.4458 323.019,99.7485 323.594,100.045 324.153,100.337 324.696,100.623 325.224,100.902 325.737,101.177 326.237,101.446 326.723,101.71 327.196,101.968 327.658,102.221 328.107,102.469 328.545,102.711 328.972,102.949 329.389,103.181 329.796,103.409 330.193,103.631 330.581,103.849 330.959,104.062 331.33,104.271 331.691,104.475 332.045,104.675 332.391,104.871 332.729,105.062 333.385,105.432 334.014,105.787 334.618,106.126 335.198,106.452 335.756,106.763 336.293,107.061 336.811,107.347 337.31,107.621 337.792,107.883 338.257,108.135 338.708,108.376 339.143,108.608 339.564,108.83 339.973,109.043 340.369,109.248 340.752,109.444 341.125,109.632 341.487,109.813 341.838,109.987 342.18,110.154 342.512,110.314 342.835,110.468 343.149,110.617 343.456,110.759 343.754,110.896 344.044,111.028 344.328,111.154 344.604,111.276 344.874,111.394 345.137,111.506 345.394,111.615 345.644,111.719 345.889,111.82 346.128,111.917 346.362,112.01 346.59,112.1 346.814,112.187 347.033,112.27 347.247,112.35 347.456,112.427 347.661,112.501 347.861,112.573 348.058,112.643 348.25,112.709 348.438,112.773 348.623,112.835 348.981,112.952 349.325,113.061 349.656,113.161 349.975,113.255 350.282,113.342 350.578,113.422 350.863,113.498 351.138,113.567 351.403,113.631 351.66,113.691 351.907,113.747 352.147,113.798 352.378,113.846 352.603,113.89 352.82,113.931 353.03,113.968 353.233,114.003 353.431,114.035 353.622,114.065 353.808,114.092 353.988,114.117 354.163,114.14 354.333,114.161 354.498,114.18 354.658,114.197 354.813,114.213 354.965,114.228 355.112,114.241 355.255,114.252 355.395,114.263 355.531,114.272 355.663,114.28 355.792,114.287 355.917,114.293 356.039,114.299 356.158,114.303 356.274,114.307 356.388,114.31 356.499,114.312 356.606,114.313 356.814,114.315 357.013,114.314 357.202,114.312 357.383,114.308 357.556,114.302 357.722,114.295 357.88,114.287 358.032,114.278 358.177,114.268 358.317,114.258 358.452,114.247 358.581,114.235 358.705,114.223 358.824,114.21 358.939,114.197 359.05,114.184 359.156,114.171 359.259,114.157 359.359,114.144 359.455,114.13 359.548,114.116 359.637,114.103 359.724,114.089 359.808,114.075 359.889,114.061 359.968,114.047 360.044,114.034 360.118,114.02 360.19,114.006 360.327,113.979 360.457,113.953 360.579,113.927 360.694,113.902 360.803,113.877 360.907,113.853 361.005,113.829 361.099,113.806 361.188,113.783 361.273,113.761 361.354,113.74 361.432,113.719 361.505,113.698 361.576,113.679 361.644,113.659 361.709,113.641 361.771,113.622 361.831,113.604 361.888,113.587 361.943,113.57 361.997,113.553 362.048,113.537 362.145,113.506 362.235,113.477 362.319,113.449 362.397,113.422 362.471,113.396 362.54,113.373 362.605,113.349 362.667,113.327 362.724,113.306 362.779,113.286 362.831,113.267 362.88,113.248 362.927,113.23 362.971,113.213 363.013,113.197 363.053,113.181 363.128,113.152 363.197,113.125 363.26,113.099 363.317,113.075 363.371,113.053 363.42,113.032 363.466,113.013 363.509,112.995 363.549,112.978 363.587,112.961 363.622,112.946 363.655,112.932 363.715,112.905 363.769,112.881 363.817,112.859 363.861,112.839 363.901,112.821 363.937,112.805 363.97,112.789 364,112.775 364.028,112.762 364.078,112.738 364.121,112.718 364.159,112.7 364.192,112.684 364.221,112.67 364.247,112.657 364.292,112.635 364.329,112.617 364.36,112.602 364.387,112.588 364.409,112.577 364.446,112.558 364.476,112.543 364.499,112.532 364.518,112.522 364.547,112.507 364.569,112.496 364.599,112.48 364.619,112.47 364.643,112.458"/>
<polyline fill="none" stroke="#00ffff" stroke-width="0.5" points="160.942,241.764 161.01,242.715 161.079,243.597 161.146,244.421 161.214,245.2 161.283,245.938 161.351,246.641 161.418,247.315 161.486,247.961 161.554,248.584 161.622,249.187 161.69,249.769 161.758,250.333 161.825,250.881 161.893,251.415 161.961,251.935 162.028,252.441 162.096,252.936 162.164,253.42 162.231,253.893 162.298,254.356 162.366,254.81 162.433,255.255 162.5,255.692 162.568,256.121 162.703,256.957 162.837,257.765 162.971,258.548 163.105,259.309 163.239,260.048 163.373,260.768 163.507,261.469 163.64,262.154 163.774,262.822 163.907,263.476 164.04,264.116 164.173,264.742 164.306,265.355 164.438,265.958 164.571,266.548 164.704,267.128 164.836,267.697 164.968,268.257 165.1,268.808 165.232,269.349 165.364,269.882 165.496,270.407 165.627,270.923 165.758,271.433 165.889,271.935 166.021,272.429 166.151,272.917 166.282,273.398 166.413,273.874 166.543,274.342 166.674,274.806 166.804,275.263 166.934,275.714 167.064,276.161 167.194,276.602 167.323,277.037 167.453,277.468 167.583,277.894 167.712,278.315 167.841,278.732 167.97,279.145 168.099,279.553 168.356,280.356 168.613,281.144 168.869,281.916 169.125,282.673 169.38,283.416 169.635,284.146 169.889,284.863 170.143,285.568 170.396,286.261 170.648,286.943 170.901,287.613 171.152,288.273 171.403,288.923 171.654,289.563 171.904,290.194 172.153,290.815 172.402,291.427 172.651,292.031 172.899,292.626 173.146,293.213 173.394,293.793 173.64,294.364 173.886,294.929 174.131,295.485 174.376,296.035 174.621,296.578 174.865,297.115 175.108,297.644 175.352,298.167 175.594,298.685 175.836,299.196 176.078,299.701 176.319,300.201 176.559,300.695 176.799,301.183 177.039,301.666 177.278,302.144 177.517,302.616 177.755,303.083 177.993,303.546 178.23,304.004 178.466,304.457 178.703,304.905 178.938,305.349 179.174,305.788 179.409,306.223 179.643,306.654 179.877,307.08 180.11,307.502 180.343,307.921 180.576,308.335 180.808,308.746 181.04,309.152 181.271,309.555 181.501,309.954 181.732,310.349 181.961,310.741 182.191,311.129 182.42,311.514 182.648,311.895 182.876,312.273 183.104,312.647 183.331,313.019 183.558,313.387 183.784,313.752 184.009,314.114 184.235,314.473 184.459,314.829 184.684,315.182 185.131,315.878 185.577,316.564 186.021,317.238 186.464,317.902 186.904,318.556 187.343,319.199 187.781,319.832 188.216,320.455 188.65,321.069 189.082,321.674 189.513,322.27 189.941,322.857 190.369,323.436 190.794,324.006 191.218,324.568 191.641,325.123 192.062,325.669 192.481,326.208 192.898,326.739 193.314,327.263 193.729,327.78 194.142,328.29 194.553,328.793 194.963,329.289 195.371,329.779 195.778,330.262 196.183,330.739 196.587,331.21 196.989,331.675 197.39,332.134 197.789,332.587 198.187,333.034 198.583,333.476 198.978,333.912 199.371,334.343 199.763,334.768 200.153,335.188 200.542,335.604 200.93,336.013 201.316,336.418 201.701,336.818 202.084,337.214 202.466,337.604 202.846,337.99 203.226,338.372 203.604,338.749 203.98,339.121 204.355,339.489 204.729,339.854 205.101,340.213 205.472,340.569 205.841,340.92 206.21,341.268 206.577,341.611 206.942,341.951 207.307,342.286 207.67,342.618 208.032,342.947 208.392,343.271 208.751,343.592 209.109,343.91 209.466,344.224 209.821,344.534 210.176,344.841 210.528,345.145 210.88,345.445 211.23,345.742 211.58,346.036 211.928,346.327 212.274,346.614 212.62,346.898 212.964,347.18 213.307,347.458 213.649,347.733 213.99,348.006 214.33,348.275 214.668,348.542 215.005,348.806 215.341,349.067 215.676,349.325 216.01,349.581 216.342,349.834 216.673,350.084 217.004,350.332 217.333,350.577 217.661,350.819 217.988,351.059 218.313,351.297 218.638,351.532 219.284,351.995 219.925,352.448 220.562,352.892 221.196,353.327 221.824,353.753 222.449,354.171 223.069,354.581 223.685,354.981 224.297,355.375 224.905,355.759 225.508,356.137 226.108,356.507 226.704,356.869 227.296,357.224 227.884,357.572 228.468,357.914 229.048,358.248 229.625,358.576 230.198,358.897 230.767,359.212 231.332,359.521 231.894,359.824 232.452,360.121 233.006,360.412 233.557,360.697 234.104,360.977 234.648,361.25 235.189,361.519 235.726,361.783 236.26,362.041 236.79,362.293 237.316,362.542 237.84,362.785 238.36,363.023 238.877,363.257 239.391,363.485 239.901,363.71 240.409,363.93 240.913,364.146 241.414,364.356 241.912,364.563 242.406,364.766 242.898,364.965 243.387,365.16 243.873,365.351 244.355,365.537 244.835,365.72 245.312,365.9 245.786,366.076 246.257,366.248 246.725,366.416 247.19,366.581 247.653,366.743 248.112,366.901 248.569,367.056 249.023,367.208 249.475,367.356 249.923,367.502 250.37,367.644 250.813,367.783 251.253,367.919 251.692,368.053 252.127,368.183 252.56,368.311 252.99,368.436 253.418,368.558 253.843,368.677 254.266,368.794 254.687,368.908 255.104,369.019 255.52,369.128 255.933,369.235 256.343,369.339 256.751,369.44 257.157,369.54 257.56,369.636 257.961,369.731 258.36,369.823 258.756,369.913 259.15,370.001 259.542,370.087 259.932,370.17 260.319,370.252 260.704,370.331 261.087,370.409 261.468,370.484 261.846,370.557 262.597,370.698 263.339,370.832 264.073,370.958 264.798,371.077 265.515,371.189 266.225,371.295 266.926,371.394 267.619,371.487 268.305,371.574 268.983,371.655 269.653,371.73 270.317,371.8 270.973,371.864 271.621,371.923 272.263,371.977 272.897,372.026 273.525,372.07 274.146,372.109 274.76,372.145 275.368,372.175 275.968,372.202 276.563,372.224 277.151,372.242 277.732,372.257 278.308,372.268 278.877,372.274 279.441,372.278 279.998,372.278 280.549,372.274 281.095,372.268 281.635,372.258 282.169,372.245 282.697,372.229 283.22,372.211 283.738,372.189 284.25,372.165 284.756,372.138 285.258,372.109 285.754,372.077 286.245,372.043 286.731,372.006 287.212,371.967 287.688,371.926 288.159,371.883 288.625,371.838 289.086,371.791 289.543,371.742 289.996,371.691 290.443,371.638 290.886,371.584 291.324,371.528 291.758,371.47 292.188,371.411 292.613,371.35 293.034,371.288 293.45,371.224 293.863,371.159 294.271,371.092 294.675,371.024 295.075,370.955 295.472,370.885 295.864,370.814 296.252,370.741 296.637,370.668 297.017,370.593 297.394,370.518 298.137,370.364 298.865,370.207 299.579,370.046 300.279,369.883 300.965,369.717 301.638,369.548 302.298,369.377 302.946,369.205 303.581,369.03 304.205,368.854 304.816,368.676 305.416,368.498 306.004,368.317 306.582,368.137 307.149,367.955 307.705,367.773 308.251,367.59 308.788,367.407 309.314,367.224 309.831,367.041 310.338,366.857 310.836,366.674 311.326,366.491 311.807,366.309 312.279,366.126 312.743,365.944 313.198,365.763 313.646,365.582 314.086,365.402 314.519,365.223 314.944,365.044 315.361,364.867 315.772,364.69 316.176,364.515 316.573,364.34 316.964,364.166 317.348,363.994 317.726,363.822 318.097,363.652 318.462,363.483 318.822,363.315 319.176,363.148 319.867,362.819 320.537,362.495 321.186,362.175 321.815,361.862 322.426,361.554 323.019,361.251 323.594,360.955 324.153,360.663 324.696,360.377 325.224,360.098 325.737,359.823 326.237,359.554 326.723,359.29 327.196,359.032 327.658,358.779 328.107,358.531 328.545,358.289 328.972,358.051 329.389,357.819 329.796,357.591 330.193,357.369 330.581,357.151 330.959,356.938 331.33,356.729 331.691,356.525 332.045,356.325 332.391,356.129 332.729,355.938 333.385,355.568 334.014,355.213 334.618,354.874 335.198,354.548 335.756,354.237 336.293,353.939 336.811,353.653 337.31,353.379 337.792,353.117 338.257,352.865 338.708,352.624 339.143,352.392 339.564,352.17 339.973,351.957 340.369,351.752 340.752,351.556 341.125,351.368 341.487,351.187 341.838,351.013 342.18,350.846 342.512,350.686 342.835,350.532 343.149,350.383 343.456,350.241 343.754,350.104 344.044,349.972 344.328,349.846 344.604,349.724 344.874,349.606 345.137,349.494 345.394,349.385 345.644,349.281 345.889,349.18 346.128,349.083 346.362,348.99 346.59,348.9 346.814,348.813 347.033,348.73 347.247,348.65 347.456,348.573 347.661,348.499 347.861,348.427 348.058,348.357 348.25,348.291 348.438,348.227 348.623,348.165 348.981,348.048 349.325,347.939 349.656,347.839 349.975,347.745 350.282,347.658 350.578,347.578 350.863,347.502 351.138,347.433 351.403,347.369 351.66,347.309 351.907,347.253 352.147,347.202 352.378,347.154 352.603,347.11 352.82,347.069 353.03,347.032 353.233,346.997 353.431,346.965 353.622,346.935 353.808,346.908 353.988,346.883 354.163,346.86 354.333,346.839 354.498,346.82 354.658,346.803 354.813,346.787 354.965,346.772 355.112,346.759 355.255,346.748 355.395,346.737 355.531,346.728 355.663,346.72 355.792,346.713 355.917,346.707 356.039,346.701 356.158,346.697 356.274,346.693 356.388,346.69 356.499,346.688 356.606,346.687 356.814,346.685 357.013,346.686 357.202,346.688 357.383,346.692 357.556,346.698 357.722,346.705 357.88,346.713 358.032,346.722 358.177,346.732 358.317,346.742 358.452,346.753 358.581,346.765 358.705,346.777 358.824,346.79 358.939,346.803 359.05,346.816 359.156,346.829 359.259,346.843 359.359,346.856 359.455,346.87 359.548,346.884 359.637,346.897 359.724,346.911 359.808,346.925 359.889,346.939 359.968,346.953 360.044,346.966 360.118,346.98 360.19,346.994 360.327,347.021 360.457,347.047 360.579,347.073 360.694,347.098 360.803,347.123 360.907,347.147 361.005,347.171 361.099,347.194 361.188,347.217 361.273,347.239 361.354,347.26 361.432,347.281 361.505,347.302 361.576,347.321 361.644,347.341 361.709,347.359 361.771,347.378 361.831,347.396 361.888,347.413 361.943,347.43 361.997,347.447 362.048,347.463 362.145,347.494 362.235,347.523 362.319,347.551 362.397,347.578 362.471,347.604 362.54,347.627 362.605,347.651 362.667,347.673 362.724,347.694 362.779,347.714 362.831,347.733 362.88,347.752 362.927,347.77 362.971,347.787 363.013,347.803 363.053,347.819 363.128,347.848 363.197,347.875 363.26,347.901 363.317,347.925 363.371,347.947 363.42,347.968 363.466,347.987 363.509,348.005 363.549,348.022 363.587,348.039 363.622,348.054 363.655,348.068 363.715,348.095 363.769,348.119 363.817,348.141 363.861,348.161 363.901,348.179 363.937,348.195 363.97,348.211 364,348.225 364.028,348.238 364.078,348.262 364.121,348.282 364.159,348.3 364.192,348.316 364.221,348.33 364.247,348.343 364.292,348.365 364.329,348.383 364.36,348.398 364.387,348.412 364.409,348.423 364.446,348.442 364.476,348.457 364.499,348.468 364.518,348.478 364.547,348.493 364.569,348.504 364.599,348.52 364.619,348.53 364.643,348.542"/>
<polygon fill="#ffffff" points="529.263,61.4502 372.65,97.1499 372.65,61.4502"/>
<polygon fill="#ffffff" points="529.263,97.1499 372.65,97.1499 529.263,61.4502"/>
<polyline fill="none" stroke="#000000" stroke-width="0.5" points="372.65,97.1499 372.65,61.4502 529.263,61.4502 529.263,97.1499 372.65,97.1499"/>
<text fill="#000000" style="stroke:none" x="434" y="77" transform="rotate(0, 434, 77)" font-size="10" font-family="SansSerif" font-style="normal" font-weight="normal">open loop poles</text>
<text fill="#000000" style="stroke:none" x="434" y="92" transform="rotate(0, 434, 92)" font-size="10" font-family="SansSerif" font-style="normal" font-weight="normal">open loop zeroes</text>
<polygon fill="#ffffff" points="374,87 378,83 382,87"/>
<polygon fill="#ffffff" points="374,87 382,87 378,91"/>
<polyline fill="none" stroke="#000000" stroke-width="0.5" points="374,87 378,83 382,87 378,91 374,87"/>
<polygon fill="#ffffff" points="397,87 401,83 405,87"/>
<polygon fill="#ffffff" points="397,87 405,87 401,91"/>
<polyline fill="none" stroke="#000000" stroke-width="0.5" points="397,87 401,83 405,87 401,91 397,87"/>
<polygon fill="#ffffff" points="420,87 424,83 428,87"/>
<polygon fill="#ffffff" points="420,87 428,87 424,91"/>
<polyline fill="none" stroke="#000000" stroke-width="0.5" points="420,87 424,83 428,87 424,91 420,87"/>
<polyline fill="none" stroke="#000000" stroke-width="0.5" points="374,68 382,76"/>
<polyline fill="none" stroke="#000000" stroke-width="0.5" points="374,76 382,68"/>
<polyline fill="none" stroke="#000000" stroke-width="0.5" points="397,68 405,76"/>
<polyline fill="none" stroke="#000000" stroke-width="0.5" points="397,76 405,68"/>
<polyline fill="none" stroke="#000000" stroke-width="0.5" points="420,68 428,76"/>
<polyline fill="none" stroke="#000000" stroke-width="0.5" points="420,76 428,68"/>
<text fill="#00ffff" style="stroke:none" x="307" y="401" transform="rotate(0, 307, 401)" font-size="9" font-family="SansSerif" font-style="normal" font-weight="normal"> 0</text>
<text fill="#00ffff" style="stroke:none" x="308" y="376" transform="rotate(0, 308, 376)" font-size="9" font-family="SansSerif" font-style="normal" font-weight="normal"> 0.1</text>
<text fill="#00ffff" style="stroke:none" x="311" y="355" transform="rotate(0, 311, 355)" font-size="9" font-family="SansSerif" font-style="normal" font-weight="normal"> 0.2</text>
<text fill="#00ffff" style="stroke:none" x="314" y="336" transform="rotate(0, 314, 336)" font-size="9" font-family="SansSerif" font-style="normal" font-weight="normal"> 0.3</text>
<text fill="#00ffff" style="stroke:none" x="318" y="320" transform="rotate(0, 318, 320)" font-size="9" font-family="SansSerif" font-style="normal" font-weight="normal"> 0.4</text>
<text fill="#00ffff" style="stroke:none" x="322" y="306" transform="rotate(0, 322, 306)" font-size="9" font-family="SansSerif" font-style="normal" font-weight="normal"> 0.5</text>
<text fill="#87ceff" style="stroke:none" x="453" y="175" transform="rotate(0, 453, 175)" font-size="9" font-family="SansSerif" font-style="normal" font-weight="normal">0.1&#x03c0;/dt</text>
<text fill="#87ceff" style="stroke:none" x="453" y="282" transform="rotate(0, 453, 282)" font-size="9" font-family="SansSerif" font-style="normal" font-weight="normal">0.1&#x03c0;/dt</text>
<text fill="#87ceff" style="stroke:none" x="431" y="127" transform="rotate(0, 431, 127)" font-size="9" font-family="SansSerif" font-style="normal" font-weight="normal">0.2&#x03c0;/dt</text>
<text fill="#87ceff" style="stroke:none" x="431" y="330" transform="rotate(0, 431, 330)" font-size="9" font-family="SansSerif" font-style="normal" font-weight="normal">0.2&#x03c0;/dt</text>
<text fill="#87ceff" style="stroke:none" x="397" y="89" transform="rotate(0, 397, 89)" font-size="9" font-family="SansSerif" font-style="normal" font-weight="normal">0.3&#x03c0;/dt</text>
<text fill="#87ceff" style="stroke:none" x="397" y="368" transform="rotate(0, 397, 368)" font-size="9" font-family="SansSerif" font-style="normal" font-weight="normal">0.3&#x03c0;/dt</text>
<text fill="#87ceff" style="stroke:none" x="354" y="64" transform="rotate(0, 354, 64)" font-size="9" font-family="SansSerif" font-style="normal" font-weight="normal">0.4&#x03c0;/dt</text>
<text fill="#87ceff" style="stroke:none" x="354" y="393" transform="rotate(0, 354, 393)" font-size="9" font-family="SansSerif" font-style="normal" font-weight="normal">0.4&#x03c0;/dt</text>
<text fill="#87ceff" style="stroke:none" x="307" y="401" transform="rotate(0, 307, 401)" font-size="9" font-family="SansSerif" font-style="normal" font-weight="normal">0.5&#x03c0;/dt</text>
<text fill="#87ceff" style="stroke:none" x="260" y="64" transform="rotate(0, 260, 64)" font-size="9" font-family="SansSerif" font-style="normal" font-weight="normal">0.6&#x03c0;/dt</text>
<text fill="#87ceff" style="stroke:none" x="260" y="393" transform="rotate(0, 260, 393)" font-size="9" font-family="SansSerif" font-style="normal" font-weight="normal">0.6&#x03c0;/dt</text>
<text fill="#87ceff" style="stroke:none" x="217" y="89" transform="rotate(0, 217, 89)" font-size="9" font-family="SansSerif" font-style="normal" font-weight="normal">0.7&#x03c0;/dt</text>
<text fill="#87ceff" style="stroke:none" x="217" y="368" transform="rotate(0, 217, 368)" font-size="9" font-family="SansSerif" font-style="normal" font-weight="normal">0.7&#x03c0;/dt</text>
<text fill="#87ceff" style="stroke:none" x="183" y="127" transform="rotate(0, 183, 127)" font-size="9" font-family="SansSerif" font-style="normal" font-weight="normal">0.8&#x03c0;/dt</text>
<text fill="#87ceff" style="stroke:none" x="183" y="330" transform="rotate(0, 183, 330)" font-size="9" font-family="SansSerif" font-style="normal" font-weight="normal">0.8&#x03c0;/dt</text>
<text fill="#87ceff" style="stroke:none" x="161" y="175" transform="rotate(0, 161, 175)" font-size="9" font-family="SansSerif" font-style="normal" font-weight="normal">0.9&#x03c0;/dt</text>
<text fill="#87ceff" style="stroke:none" x="161" y="282" transform="rotate(0, 161, 282)" font-size="9" font-family="SansSerif" font-style="normal" font-weight="normal">0.9&#x03c0;/dt</text>
<text fill="#87ceff" style="stroke:none" x="154" y="228" transform="rotate(0, 154, 228)" font-size="9" font-family="SansSerif" font-style="normal" font-weight="normal">1&#x03c0;/dt</text>
<text fill="#87ceff" style="stroke:none" x="154" y="229" transform="rotate(0, 154, 229)" font-size="9" font-family="SansSerif" font-style="normal" font-weight="normal">1&#x03c0;/dt</text>
<polyline fill="none" stroke="#000000" stroke-width="0.5" points="76.5,403.375 76.5,57.625"/>
<polyline fill="none" stroke="#000000" stroke-width="0.5" points="76.5,403.375 69.6152,403.375"/>
<polyline fill="none" stroke="#000000" stroke-width="0.5" points="76.5,368.8 69.6152,368.8"/>
<polyline fill="none" stroke="#000000" stroke-width="0.5" points="76.5,334.225 69.6152,334.225"/>
<polyline fill="none" stroke="#000000" stroke-width="0.5" points="76.5,299.65 69.6152,299.65"/>
<polyline fill="none" stroke="#000000" stroke-width="0.5" points="76.5,265.075 69.6152,265.075"/>
<polyline fill="none" stroke="#000000" stroke-width="0.5" points="76.5,230.5 69.6152,230.5"/>
<polyline fill="none" stroke="#000000" stroke-width="0.5" points="76.5,195.925 69.6152,195.925"/>
<polyline fill="none" stroke="#000000" stroke-width="0.5" points="76.5,161.35 69.6152,161.35"/>
<polyline fill="none" stroke="#000000" stroke-width="0.5" points="76.5,126.775 69.6152,126.775"/>
<polyline fill="none" stroke="#000000" stroke-width="0.5" points="76.5,92.2002 69.6152,92.2002"/>
<polyline fill="none" stroke="#000000" stroke-width="0.5" points="76.5,57.625 69.6152,57.625"/>
<polyline fill="none" stroke="#000000" stroke-width="0.5" points="76.5,386.087 72.3691,386.087"/>
<polyline fill="none" stroke="#000000" stroke-width="0.5" points="76.5,351.513 72.3691,351.513"/>
<polyline fill="none" stroke="#000000" stroke-width="0.5" points="76.5,316.938 72.3691,316.938"/>
<polyline fill="none" stroke="#000000" stroke-width="0.5" points="76.5,282.362 72.3691,282.362"/>
<polyline fill="none" stroke="#000000" stroke-width="0.5" points="76.5,247.788 72.3691,247.788"/>
<polyline fill="none" stroke="#000000" stroke-width="0.5" points="76.5,213.212 72.3691,213.212"/>
<polyline fill="none" stroke="#000000" stroke-width="0.5" points="76.5,178.638 72.3691,178.638"/>
<polyline fill="none" stroke="#000000" stroke-width="0.5" points="76.5,144.062 72.3691,144.062"/>
<polyline fill="none" stroke="#000000" stroke-width="0.5" points="76.5,109.487 72.3691,109.487"/>
<polyline fill="none" stroke="#000000" stroke-width="0.5" points="76.5,74.9126 72.3691,74.9126"/>
<text fill="#000000" style="stroke:none" x="48" y="408" transform="rotate(-0, 48, 408)" font-size="9" font-family="SansSerif" font-style="normal" font-weight="normal">-1.0</text>
<text fill="#000000" style="stroke:none" x="48" y="373" transform="rotate(-0, 48, 373)" font-size="9" font-family="SansSerif" font-style="normal" font-weight="normal">-0.8</text>
<text fill="#000000" style="stroke:none" x="48" y="339" transform="rotate(-0, 48, 339)" font-size="9" font-family="SansSerif" font-style="normal" font-weight="normal">-0.6</text>
<text fill="#000000" style="stroke:none" x="48" y="304" transform="rotate(-0, 48, 304)" font-size="9" font-family="SansSerif" font-style="normal" font-weight="normal">-0.4</text>
<text fill="#000000" style="stroke:none" x="48" y="270" transform="rotate(-0, 48, 270)" font-size="9" font-family="SansSerif" font-style="normal" font-weight="normal">-0.2</text>
<text fill="#000000" style="stroke:none" x="53" y="235" transform="rotate(-0, 53, 235)" font-size="9" font-family="SansSerif" font-style="normal" font-weight="normal">0.0</text>
<text fill="#000000" style="stroke:none" x="53" y="200" transform="rotate(-0, 53, 200)" font-size="9" font-family="SansSerif" font-style="normal" font-weight="normal">0.2</text>
<text fill="#000000" style="stroke:none" x="53" y="166" transform="rotate(-0, 53, 166)" font-size="9" font-family="SansSerif" font-style="normal" font-weight="normal">0.4</text>
<text fill="#000000" style="stroke:none" x="53" y="131" transform="rotate(-0, 53, 131)" font-size="9" font-family="SansSerif" font-style="normal" font-weight="normal">0.6</text>
<text fill="#000000" style="stroke:none" x="53" y="97" transform="rotate(-0, 53, 97)" font-size="9" font-family="SansSerif" font-style="normal" font-weight="normal">0.8</text>
<text fill="#000000" style="stroke:none" x="53" y="62" transform="rotate(-0, 53, 62)" font-size="9" font-family="SansSerif" font-style="normal" font-weight="normal">1.0</text>
<polyline fill="none" stroke="#000000" stroke-width="0.5" points="76.5,403.375 535.5,403.375"/>
<polyline fill="none" stroke="#000000" stroke-width="0.5" points="76.5,403.375 76.5,408.55"/>
<polyline fill="none" stroke="#000000" stroke-width="0.5" points="153,403.375 153,408.55"/>
<polyline fill="none" stroke="#000000" stroke-width="0.5" points="229.5,403.375 229.5,408.55"/>
<polyline fill="none" stroke="#000000" stroke-width="0.5" points="306,403.375 306,408.55"/>
<polyline fill="none" stroke="#000000" stroke-width="0.5" points="382.5,403.375 382.5,408.55"/>
<polyline fill="none" stroke="#000000" stroke-width="0.5" points="459,403.375 459,408.55"/>
<polyline fill="none" stroke="#000000" stroke-width="0.5" points="535.5,403.375 535.5,408.55"/>
<polyline fill="none" stroke="#000000" stroke-width="0.5" points="95.625,403.375 95.625,406.48"/>
<polyline fill="none" stroke="#000000" stroke-width="0.5" points="114.75,403.375 114.75,406.48"/>
<polyline fill="none" stroke="#000000" stroke-width="0.5" points="133.875,403.375 133.875,406.48"/>
<polyline fill="none" stroke="#000000" stroke-width="0.5" points="172.125,403.375 172.125,406.48"/>
<polyline fill="none" stroke="#000000" stroke-width="0.5" points="191.25,403.375 191.25,406.48"/>
<polyline fill="none" stroke="#000000" stroke-width="0.5" points="210.375,403.375 210.375,406.48"/>
<polyline fill="none" stroke="#000000" stroke-width="0.5" points="248.625,403.375 248.625,406.48"/>
<polyline fill="none" stroke="#000000" stroke-width="0.5" points="267.75,403.375 267.75,406.48"/>
<polyline fill="none" stroke="#000000" stroke-width="0.5" points="286.875,403.375 286.875,406.48"/>
<polyline fill="none" stroke="#000000" stroke-width="0.5" points="325.125,403.375 325.125,406.48"/>
<polyline fill="none" stroke="#000000" stroke-width="0.5" points="344.25,403.375 344.25,406.48"/>
<polyline fill="none" stroke="#000000" stroke-width="0.5" points="363.375,403.375 363.375,406.48"/>
<polyline fill="none" stroke="#000000" stroke-width="0.5" points="401.625,403.375 401.625,406.48"/>
<polyline fill="none" stroke="#000000" stroke-width="0.5" points="420.75,403.375 420.75,406.48"/>
<polyline fill="none" stroke="#000000" stroke-width="0.5" points="439.875,403.375 439.875,406.48"/>
<polyline fill="none" stroke="#000000" stroke-width="0.5" points="478.125,403.375 478.125,406.48"/>
<polyline fill="none" stroke="#000000" stroke-width="0.5" points="497.25,403.375 497.25,406.48"/>
<polyline fill="none" stroke="#000000" stroke-width="0.5" points="516.375,403.375 516.375,406.48"/>
<text fill="#000000" style="stroke:none" x="67" y="419" transform="rotate(-0, 67, 419)" font-size="9" font-family="SansSerif" font-style="normal" font-weight="normal">-1.5</text>
<text fill="#000000" style="stroke:none" x="143" y="419" transform="rotate(-0, 143, 419)" font-size="9" font-family="SansSerif" font-style="normal" font-weight="normal">-1.0</text>
<text fill="#000000" style="stroke:none" x="220" y="419" transform="rotate(-0, 220, 419)" font-size="9" font-family="SansSerif" font-style="normal" font-weight="normal">-0.5</text>
<text fill="#000000" style="stroke:none" x="298" y="419" transform="rotate(-0, 298, 419)" font-size="9" font-family="SansSerif" font-style="normal" font-weight="normal">0.0</text>
<text fill="#000000" style="stroke:none" x="375" y="419" transform="rotate(-0, 375, 419)" font-size="9" font-family="SansSerif" font-style="normal" font-weight="normal">0.5</text>
<text fill="#000000" style="stroke:none" x="452" y="419" transform="rotate(-0, 452, 419)" font-size="9" font-family="SansSerif" font-style="normal" font-weight="normal">1.0</text>
<text fill="#000000" style="stroke:none" x="529" y="419" transform="rotate(-0, 529, 419)" font-size="9" font-family="SansSerif" font-style="normal" font-weight="normal">1.5</text>
<text fill="#000000" style="stroke:none" x="263" y="50" transform="rotate(0, 263, 50)" font-size="10" font-family="SansSerif" font-style="normal" font-weight="normal">Evans root locus</text>
<text fill="#000000" style="stroke:none" x="282" y="432" transform="rotate(0, 282, 432)" font-size="10" font-family="SansSerif" font-style="normal" font-weight="normal">Real axis</text>
<text fill="#000000" style="stroke:none" x="40" y="269" transform="rotate(270, 40, 269)" font-size="10" font-family="SansSerif" font-style="normal" font-weight="normal">Imaginary axis</text>
</g>
</svg>
