<?xml version="1.0" encoding="UTF-8" standalone="no"?>
<svg xmlns="http://www.w3.org/2000/svg"
     xmlns:xlink="http://www.w3.org/1999/xlink"
     width="612px" height="406px" viewBox="0 0 612 406"
     style="stroke:none">
<title>Figure n°0</title>
<desc>
Creator: GL2PS 1.3.2, (C) 1999-2006 Christophe Geuzaine (geuz@geuz.org)
For: Scilab
CreationDate: Fri Apr 29 10:52:49 2011
</desc>
<defs>
</defs>
<polygon fill="#ffffff" points="0,0 612,0 612,406 0,406"/>
<g>
<polygon fill="#ffffff" points="76.5,355.25 76.5,50.75 76.5,50.75"/>
<polygon fill="#ffffff" points="76.5,355.25 76.5,50.75 76.5,355.25"/>
<polygon fill="#ffffff" points="76.5,355.25 535.5,355.25 535.5,355.25"/>
<polygon fill="#ffffff" points="76.5,355.25 535.5,355.25 76.5,355.25"/>
<polygon fill="#ffffff" points="76.5,355.25 535.5,355.25 535.5,50.75"/>
<polygon fill="#ffffff" points="76.5,355.25 535.5,50.75 76.5,50.75"/>
<polyline fill="none" stroke="#000000" stroke-width="0.5" points="76.5,154 81.1362,153.999 89.2866,153.996 102.428,153.99 121.41,153.975 145.865,153.924 174.479,153.751 205.77,153.116 224.843,152.091 238.604,150.673 249.375,148.858 258.227,146.642 265.741,144.019 272.27,140.982 278.041,137.53 280.693,135.647 283.212,133.659 285.61,131.566 287.897,129.37 290.085,127.069 292.18,124.666 294.19,122.162 296.123,119.559 297.984,116.859 299.777,114.066 301.508,111.184 303.182,108.219 304.8,105.176 306.368,102.064 307.888,98.8921 309.363,95.6719 310.084,94.0483 310.795,92.418 311.497,90.7827 312.188,89.1455 312.87,87.5088 313.543,85.8745 314.207,84.2461 314.862,82.6265 315.508,81.019 316.146,79.4268 316.777,77.854 317.399,76.3042 318.014,74.7817 318.621,73.29 319.221,71.8345 319.813,70.4185 320.399,69.0469 320.978,67.7246 321.551,66.4556 322.116,65.2446 322.676,64.0962 323.229,63.0146 323.776,62.0029 324.317,61.0659 324.853,60.2065 325.383,59.4277 325.907,58.7319 326.425,58.1206 326.939,57.5962 327.447,57.1592 327.95,56.8091 328.448,56.5469 328.941,56.3711 329.429,56.2803 329.913,56.2725 330.392,56.3452 330.866,56.4961 331.335,56.7217 331.801,57.0186 332.262,57.3828 332.719,57.8105 333.172,58.2974 333.62,58.8398 334.065,59.4326 334.506,60.0728 334.942,60.7554 335.375,61.4766 335.805,62.2324 336.23,63.0195 336.653,63.8335 337.071,64.6719 337.486,65.5303 337.898,66.4067 338.306,67.2979 338.711,68.2012 339.112,69.1143 339.511,70.0347 339.906,70.9604 340.298,71.8901 340.688,72.8213 341.074,73.7524 341.457,74.6821 341.837,75.6099 342.214,76.5332 342.589,77.4521 343.329,79.272 344.059,81.063 344.778,82.8198 345.487,84.5396 346.187,86.2192 346.876,87.8569 347.556,89.4512 348.227,91.002 348.889,92.5083 349.542,93.9707 350.187,95.3896 350.823,96.7656 351.452,98.0996 352.072,99.3921 353.291,101.857 354.481,104.17 355.643,106.34 356.778,108.376 357.888,110.287 358.974,112.083 360.037,113.77 361.077,115.356 362.097,116.85 363.095,118.257 365.035,120.836 366.902,123.138 368.701,125.199 370.438,127.051 372.116,128.72 373.74,130.23 375.312,131.6 376.836,132.846 378.315,133.983 379.752,135.023 381.148,135.977 382.506,136.854 383.828,137.662 386.372,139.097 388.792,140.331 391.099,141.399 393.305,142.329 395.417,143.145 397.443,143.863 399.39,144.5 401.264,145.066 403.07,145.573 406.497,146.438 409.703,147.145 412.715,147.729 415.555,148.219 418.243,148.633 420.792,148.987 423.218,149.291 425.531,149.554 429.858,149.985 433.839,150.321 437.525,150.587 440.958,150.801 444.169,150.977 447.186,151.122 450.03,151.244 455.274,151.435 460.019,151.577 464.35,151.684 468.335,151.768 472.025,151.834 475.46,151.888 481.693,151.968 487.232,152.024 492.217,152.065 496.748,152.096 500.901,152.12 508.294,152.153 514.731,152.175 520.431,152.19 530.183,152.209 534.425,152.216 535.5,152.217"/>
<polyline fill="none" stroke="#0000ff" stroke-width="0.5" points="76.5,151.081 81.1362,151.082 89.2866,151.083 102.428,151.085 121.41,151.093 145.865,151.118 174.479,151.204 205.77,151.519 224.843,152.026 238.604,152.727 249.375,153.625 258.227,154.721 265.741,156.018 272.27,157.521 278.041,159.234 280.693,160.17 283.212,161.161 285.61,162.207 287.897,163.309 290.085,164.467 292.18,165.682 294.19,166.956 296.123,168.289 297.984,169.681 299.777,171.135 301.508,172.652 303.182,174.231 304.8,175.876 306.368,177.586 307.888,179.364 309.363,181.211 310.084,182.16 310.795,183.127 311.497,184.113 312.188,185.117 312.87,186.139 313.543,187.179 314.207,188.239 314.862,189.317 315.508,190.416 316.146,191.534 316.777,192.671 317.399,193.83 318.014,195.008 318.621,196.208 319.221,197.428 319.813,198.67 320.399,199.934 320.978,201.22 321.551,202.529 322.116,203.861 322.676,205.216 323.229,206.595 323.776,207.998 324.317,209.425 324.853,210.878 325.383,212.356 325.907,213.86 326.425,215.392 326.939,216.95 327.447,218.536 327.95,220.149 328.448,221.792 328.941,223.465 329.429,225.167 329.913,226.901 330.392,228.666 330.866,230.463 331.335,232.293 331.801,234.158 332.262,236.057 332.719,237.991 333.172,239.961 333.62,241.969 334.065,244.015 334.506,246.1 334.942,248.224 335.375,250.39 335.805,252.598 336.23,254.848 336.653,257.142 337.071,259.481 337.486,261.866 337.898,264.297 338.306,266.776 338.711,269.303 339.112,271.879 339.511,274.504 339.906,277.178 340.298,279.903 340.688,282.676 341.074,285.499 341.457,288.37 341.837,291.286 342.214,294.247 342.589,297.249 343.329,303.356 344.059,309.562 344.778,315.789 345.487,321.925 346.187,327.814 346.876,333.25 347.556,337.979 348.227,341.726 348.889,344.237 349.542,345.333 350.187,344.966 350.823,343.224 351.452,340.314 352.072,336.501 353.291,327.221 354.481,317.09 355.643,307.089 356.778,297.665 357.888,288.97 358.974,281.019 360.037,273.769 361.077,267.157 362.097,261.115 363.095,255.582 365.035,245.817 366.902,237.488 368.701,230.308 370.438,224.062 372.116,218.584 373.74,213.746 375.312,209.446 376.836,205.602 378.315,202.15 379.752,199.035 381.148,196.213 382.506,193.648 383.828,191.307 386.372,187.2 388.792,183.722 391.099,180.748 393.305,178.185 395.417,175.957 397.443,174.009 399.39,172.295 401.264,170.778 403.07,169.429 406.497,167.143 409.703,165.288 412.715,163.761 415.555,162.49 418.243,161.419 420.792,160.51 423.218,159.729 425.531,159.055 429.858,157.955 433.839,157.102 437.525,156.428 440.958,155.885 444.169,155.442 447.186,155.076 450.03,154.769 455.274,154.289 460.019,153.934 464.35,153.664 468.335,153.454 472.025,153.288 475.46,153.154 481.693,152.954 487.232,152.813 492.217,152.711 496.748,152.634 500.901,152.575 508.294,152.492 514.731,152.437 520.431,152.398 530.183,152.35 534.425,152.334 535.5,152.331"/>
<polygon fill="#ffffff" points="529.263,54.04 373.75,120.12 373.75,54.04"/>
<polygon fill="#ffffff" points="529.263,120.12 373.75,120.12 529.263,54.04"/>
<polyline fill="none" stroke="#000000" stroke-width="0.5" points="373.75,120.12 373.75,54.04 529.263,54.04 529.263,120.12 373.75,120.12"/>
<g fill="#000000" stroke="black" transform="rotate(0,436,83) translate(436,83)"><!--Generated by the Batik Graphics2D SVG Generator--><defs id="genericDefs"
  /><g
  ><g transform="matrix(1,0,0,1,0,-27) scale(10,10) translate(0.8778,1.014)" style="font-size:1; text-rendering:geometricPrecision; color-rendering:optimizeQuality; image-rendering:optimizeQuality; font-family:&apos;jlm_cmmi10&apos;; color-interpolation:linearRGB;"
    ><path style="stroke:none;" d="M0.3906 -0.375 L0.3906 -0.375 Q0.375 -0.4219 0.2969 -0.4219 Q0.2188 -0.4219 0.1875 -0.3594 Q0.1875 -0.3438 0.1875 -0.3281 Q0.1875 -0.2969 0.2344 -0.2812 L0.2344 -0.2812 L0.2344 -0.2812 Q0.25 -0.2812 0.2656 -0.2656 Q0.3281 -0.25 0.3438 -0.2344 Q0.3594 -0.2344 0.3594 -0.2344 Q0.3906 -0.2031 0.3906 -0.1562 Q0.3906 -0.1094 0.3594 -0.0625 Q0.2969 0.0156 0.1875 0.0156 Q0.1094 0.0156 0.0625 -0.0469 Q0.0469 -0.0625 0.0469 -0.0938 Q0.0469 -0.1406 0.0938 -0.1562 Q0.0938 -0.1562 0.1094 -0.1562 Q0.1406 -0.1406 0.1406 -0.1094 Q0.1406 -0.0938 0.125 -0.0781 Q0.1094 -0.0625 0.0781 -0.0625 Q0.1094 -0.0156 0.2031 -0.0156 Q0.2969 -0.0156 0.3281 -0.0938 Q0.3438 -0.1094 0.3438 -0.125 Q0.3438 -0.1719 0.2812 -0.1875 L0.2812 -0.1875 L0.2812 -0.1875 Q0.2656 -0.1875 0.2344 -0.2031 Q0.1406 -0.2188 0.1406 -0.2812 Q0.125 -0.2812 0.125 -0.2969 Q0.125 -0.3438 0.1719 -0.3906 Q0.2188 -0.4375 0.2969 -0.4375 Q0.375 -0.4375 0.4062 -0.3906 Q0.4219 -0.375 0.4219 -0.3594 Q0.4219 -0.3125 0.3906 -0.2969 Q0.375 -0.2969 0.375 -0.2969 Q0.3438 -0.2969 0.3438 -0.3281 Q0.3438 -0.3594 0.375 -0.375 Q0.375 -0.375 0.3906 -0.375 Z"
    /></g
    ><g transform="matrix(10,0,0,10,0,-27) translate(1.3465,0.6511) scale(0.7,0.7)" style="font-size:1; text-rendering:geometricPrecision; color-rendering:optimizeQuality; image-rendering:optimizeQuality; font-family:&apos;jlm_cmr10&apos;; color-interpolation:linearRGB;"
    ><path style="stroke:none;" d="M0.4531 -0.1719 L0.4531 -0.1719 L0.4219 0 L0.0469 0 Q0.0469 -0.0312 0.0625 -0.0312 L0.0625 -0.0312 L0.25 -0.25 Q0.3594 -0.375 0.3594 -0.4688 Q0.3594 -0.5625 0.2969 -0.6094 L0.2969 -0.6094 L0.2969 -0.6094 Q0.2656 -0.6406 0.2188 -0.6406 Q0.1562 -0.6406 0.1094 -0.5781 Q0.0938 -0.5625 0.0938 -0.5312 Q0.0938 -0.5312 0.1094 -0.5312 Q0.1406 -0.5312 0.1562 -0.5 L0.1562 -0.5 Q0.1562 -0.4844 0.1562 -0.4844 Q0.1562 -0.4375 0.1094 -0.4375 Q0.1094 -0.4219 0.1094 -0.4219 Q0.0625 -0.4219 0.0469 -0.4531 Q0.0469 -0.4688 0.0469 -0.4844 Q0.0469 -0.5625 0.1094 -0.6094 Q0.1562 -0.6719 0.2344 -0.6719 Q0.3438 -0.6719 0.4062 -0.5938 Q0.4375 -0.5469 0.4531 -0.4844 Q0.4531 -0.4844 0.4531 -0.4688 Q0.4531 -0.4062 0.3906 -0.3281 Q0.3594 -0.2969 0.2969 -0.25 L0.25 -0.1875 L0.2344 -0.1875 L0.125 -0.0781 L0.3125 -0.0781 Q0.3906 -0.0781 0.4062 -0.0781 Q0.4062 -0.0938 0.4219 -0.1719 L0.4531 -0.1719 Z"
    /></g
    ><g transform="matrix(10,0,0,10,0,-27) translate(1.9688,1.014)" style="font-size:1; text-rendering:geometricPrecision; color-rendering:optimizeQuality; image-rendering:optimizeQuality; font-family:&apos;jlm_cmr10&apos;; color-interpolation:linearRGB;"
    ><path style="stroke:none;" d="M0.4062 -0.2344 L0.4062 0.0469 Q0.4062 0.0781 0.3906 0.0781 Q0.375 0.0781 0.375 0.0469 L0.375 -0.2344 L0.0938 -0.2344 Q0.0625 -0.2344 0.0625 -0.25 Q0.0625 -0.2656 0.0938 -0.2656 L0.375 -0.2656 L0.375 -0.5469 Q0.375 -0.5781 0.3906 -0.5781 Q0.4062 -0.5781 0.4062 -0.5469 L0.4062 -0.2656 L0.6875 -0.2656 Q0.7188 -0.2656 0.7188 -0.25 Q0.7188 -0.2344 0.6875 -0.2344 L0.4062 -0.2344 Z"
    /></g
    ><g transform="matrix(10,0,0,10,0,-27) translate(2.9688,1.014)" style="font-size:1; text-rendering:geometricPrecision; color-rendering:optimizeQuality; image-rendering:optimizeQuality; font-family:&apos;jlm_cmr10&apos;; color-interpolation:linearRGB;"
    ><path style="stroke:none;" d="M0.2969 -0.6406 L0.2969 -0.0781 Q0.2969 -0.0469 0.3125 -0.0469 Q0.3281 -0.0312 0.3906 -0.0312 L0.4219 -0.0312 L0.4219 0 Q0.3906 0 0.25 0 Q0.125 0 0.0938 0 L0.0938 -0.0312 L0.125 -0.0312 Q0.2031 -0.0312 0.2188 -0.0469 L0.2188 -0.0469 Q0.2188 -0.0625 0.2188 -0.0781 L0.2188 -0.5938 Q0.1719 -0.5781 0.0938 -0.5781 L0.0938 -0.6094 Q0.2031 -0.6094 0.2656 -0.6719 Q0.2969 -0.6719 0.2969 -0.6562 L0.2969 -0.6562 L0.2969 -0.6562 Q0.2969 -0.6562 0.2969 -0.6406 Z"
    /></g
    ><g transform="matrix(10,0,0,10,0,-27) translate(3.4688,1.014)" style="font-size:1; text-rendering:geometricPrecision; color-rendering:optimizeQuality; image-rendering:optimizeQuality; font-family:&apos;jlm_cmr10&apos;; color-interpolation:linearRGB;"
    ><path style="stroke:none;" d="M0.1562 -0.4531 L0.2812 -0.375 Q0.3906 -0.4375 0.3906 -0.5156 Q0.3906 -0.5781 0.3281 -0.625 Q0.2969 -0.6406 0.25 -0.6406 Q0.1719 -0.6406 0.1406 -0.5938 L0.1406 -0.5938 L0.1406 -0.5938 Q0.1094 -0.5625 0.1094 -0.5312 Q0.1094 -0.4844 0.1562 -0.4531 ZM0.3125 -0.3594 L0.3125 -0.3594 Q0.3906 -0.3125 0.4062 -0.2969 Q0.4062 -0.2969 0.4062 -0.2969 Q0.4531 -0.2344 0.4531 -0.1719 Q0.4531 -0.0781 0.3906 -0.0156 Q0.3281 0.0156 0.25 0.0156 Q0.1562 0.0156 0.0938 -0.0312 Q0.0469 -0.0781 0.0469 -0.1562 Q0.0469 -0.2656 0.1875 -0.3281 Q0.125 -0.375 0.1094 -0.3906 Q0.0625 -0.4375 0.0625 -0.5 Q0.0625 -0.5781 0.1406 -0.625 Q0.1875 -0.6719 0.25 -0.6719 Q0.3438 -0.6719 0.3906 -0.6094 Q0.4375 -0.5781 0.4375 -0.5156 Q0.4375 -0.4219 0.3125 -0.3594 ZM0.2031 -0.3125 L0.2031 -0.3125 Q0.0938 -0.25 0.0938 -0.1562 Q0.0938 -0.0781 0.1562 -0.0312 Q0.2031 0 0.25 0 Q0.3281 0 0.375 -0.0625 Q0.4062 -0.0938 0.4062 -0.125 Q0.4062 -0.1875 0.3438 -0.2344 Q0.3438 -0.2344 0.3281 -0.2344 L0.2031 -0.3125 Z"
    /></g
    ><g transform="matrix(10,0,0,10,0,-27) translate(3.9688,1.014)" style="font-size:1; text-rendering:geometricPrecision; color-rendering:optimizeQuality; image-rendering:optimizeQuality; font-family:&apos;jlm_cmmi10&apos;; color-interpolation:linearRGB;"
    ><path style="stroke:none;" d="M0.3906 -0.375 L0.3906 -0.375 Q0.375 -0.4219 0.2969 -0.4219 Q0.2188 -0.4219 0.1875 -0.3594 Q0.1875 -0.3438 0.1875 -0.3281 Q0.1875 -0.2969 0.2344 -0.2812 L0.2344 -0.2812 L0.2344 -0.2812 Q0.25 -0.2812 0.2656 -0.2656 Q0.3281 -0.25 0.3438 -0.2344 Q0.3594 -0.2344 0.3594 -0.2344 Q0.3906 -0.2031 0.3906 -0.1562 Q0.3906 -0.1094 0.3594 -0.0625 Q0.2969 0.0156 0.1875 0.0156 Q0.1094 0.0156 0.0625 -0.0469 Q0.0469 -0.0625 0.0469 -0.0938 Q0.0469 -0.1406 0.0938 -0.1562 Q0.0938 -0.1562 0.1094 -0.1562 Q0.1406 -0.1406 0.1406 -0.1094 Q0.1406 -0.0938 0.125 -0.0781 Q0.1094 -0.0625 0.0781 -0.0625 Q0.1094 -0.0156 0.2031 -0.0156 Q0.2969 -0.0156 0.3281 -0.0938 Q0.3438 -0.1094 0.3438 -0.125 Q0.3438 -0.1719 0.2812 -0.1875 L0.2812 -0.1875 L0.2812 -0.1875 Q0.2656 -0.1875 0.2344 -0.2031 Q0.1406 -0.2188 0.1406 -0.2812 Q0.125 -0.2812 0.125 -0.2969 Q0.125 -0.3438 0.1719 -0.3906 Q0.2188 -0.4375 0.2969 -0.4375 Q0.375 -0.4375 0.4062 -0.3906 Q0.4219 -0.375 0.4219 -0.3594 Q0.4219 -0.3125 0.3906 -0.2969 Q0.375 -0.2969 0.375 -0.2969 Q0.3438 -0.2969 0.3438 -0.3281 Q0.3438 -0.3594 0.375 -0.375 Q0.375 -0.375 0.3906 -0.375 Z"
    /></g
    ><g transform="matrix(10,0,0,10,0,-27) translate(4.6597,1.014)" style="font-size:1; text-rendering:geometricPrecision; color-rendering:optimizeQuality; image-rendering:optimizeQuality; font-family:&apos;jlm_cmr10&apos;; color-interpolation:linearRGB;"
    ><path style="stroke:none;" d="M0.4062 -0.2344 L0.4062 0.0469 Q0.4062 0.0781 0.3906 0.0781 Q0.375 0.0781 0.375 0.0469 L0.375 -0.2344 L0.0938 -0.2344 Q0.0625 -0.2344 0.0625 -0.25 Q0.0625 -0.2656 0.0938 -0.2656 L0.375 -0.2656 L0.375 -0.5469 Q0.375 -0.5781 0.3906 -0.5781 Q0.4062 -0.5781 0.4062 -0.5469 L0.4062 -0.2656 L0.6875 -0.2656 Q0.7188 -0.2656 0.7188 -0.25 Q0.7188 -0.2344 0.6875 -0.2344 L0.4062 -0.2344 Z"
    /></g
    ><g transform="matrix(10,0,0,10,0,-27) translate(5.6597,1.014)" style="font-size:1; text-rendering:geometricPrecision; color-rendering:optimizeQuality; image-rendering:optimizeQuality; font-family:&apos;jlm_cmr10&apos;; color-interpolation:linearRGB;"
    ><path style="stroke:none;" d="M0.2969 -0.6406 L0.2969 -0.0781 Q0.2969 -0.0469 0.3125 -0.0469 Q0.3281 -0.0312 0.3906 -0.0312 L0.4219 -0.0312 L0.4219 0 Q0.3906 0 0.25 0 Q0.125 0 0.0938 0 L0.0938 -0.0312 L0.125 -0.0312 Q0.2031 -0.0312 0.2188 -0.0469 L0.2188 -0.0469 Q0.2188 -0.0625 0.2188 -0.0781 L0.2188 -0.5938 Q0.1719 -0.5781 0.0938 -0.5781 L0.0938 -0.6094 Q0.2031 -0.6094 0.2656 -0.6719 Q0.2969 -0.6719 0.2969 -0.6562 L0.2969 -0.6562 L0.2969 -0.6562 Q0.2969 -0.6562 0.2969 -0.6406 Z"
    /></g
    ><g transform="matrix(10,0,0,10,0,-27) translate(6.1597,1.014)" style="font-size:1; text-rendering:geometricPrecision; color-rendering:optimizeQuality; image-rendering:optimizeQuality; font-family:&apos;jlm_cmr10&apos;; color-interpolation:linearRGB;"
    ><path style="stroke:none;" d="M0.4531 -0.3125 Q0.4531 -0.1719 0.4219 -0.0938 Q0.3594 0.0156 0.25 0.0156 Q0.1562 0.0156 0.1094 -0.0469 Q0.0938 -0.0625 0.0781 -0.0781 Q0.0312 -0.1562 0.0312 -0.3125 Q0.0312 -0.4688 0.0781 -0.5469 Q0.125 -0.6562 0.2344 -0.6719 L0.25 -0.6719 Q0.3438 -0.6719 0.3906 -0.5938 L0.3906 -0.5938 Q0.4062 -0.5781 0.4219 -0.5469 Q0.4531 -0.4688 0.4531 -0.3125 ZM0.25 0 L0.25 0 Q0.3125 0 0.3438 -0.0625 Q0.3594 -0.0938 0.3594 -0.125 Q0.375 -0.1875 0.375 -0.3281 Q0.375 -0.4688 0.3594 -0.5312 Q0.3438 -0.625 0.2812 -0.6406 Q0.2656 -0.6406 0.25 -0.6406 Q0.1719 -0.6406 0.1406 -0.5781 Q0.1406 -0.5469 0.125 -0.5156 Q0.125 -0.4688 0.125 -0.3281 Q0.125 -0.1875 0.1406 -0.125 Q0.1562 -0.0312 0.2188 0 Q0.2344 0 0.25 0 Z"
    /></g
    ><g transform="matrix(10,0,0,10,0,-27) translate(6.6597,1.014)" style="font-size:1; text-rendering:geometricPrecision; color-rendering:optimizeQuality; image-rendering:optimizeQuality; font-family:&apos;jlm_cmr10&apos;; color-interpolation:linearRGB;"
    ><path style="stroke:none;" d="M0.4531 -0.3125 Q0.4531 -0.1719 0.4219 -0.0938 Q0.3594 0.0156 0.25 0.0156 Q0.1562 0.0156 0.1094 -0.0469 Q0.0938 -0.0625 0.0781 -0.0781 Q0.0312 -0.1562 0.0312 -0.3125 Q0.0312 -0.4688 0.0781 -0.5469 Q0.125 -0.6562 0.2344 -0.6719 L0.25 -0.6719 Q0.3438 -0.6719 0.3906 -0.5938 L0.3906 -0.5938 Q0.4062 -0.5781 0.4219 -0.5469 Q0.4531 -0.4688 0.4531 -0.3125 ZM0.25 0 L0.25 0 Q0.3125 0 0.3438 -0.0625 Q0.3594 -0.0938 0.3594 -0.125 Q0.375 -0.1875 0.375 -0.3281 Q0.375 -0.4688 0.3594 -0.5312 Q0.3438 -0.625 0.2812 -0.6406 Q0.2656 -0.6406 0.25 -0.6406 Q0.1719 -0.6406 0.1406 -0.5781 Q0.1406 -0.5469 0.125 -0.5156 Q0.125 -0.4688 0.125 -0.3281 Q0.125 -0.1875 0.1406 -0.125 Q0.1562 -0.0312 0.2188 0 Q0.2344 0 0.25 0 Z"
    /></g
    ><g transform="matrix(10,0,0,10,0,-27)" style="font-size:1; text-rendering:geometricPrecision; color-rendering:optimizeQuality; image-rendering:optimizeQuality; font-family:&apos;jlm_cmr10&apos;; color-interpolation:linearRGB;"
    ><rect x="0.1" width="7.8375" height="0.04" y="1.4205" style="stroke:none;"
      /><path d="M0.3906 -0.375 L0.3906 -0.375 Q0.375 -0.4219 0.2969 -0.4219 Q0.2188 -0.4219 0.1875 -0.3594 Q0.1875 -0.3438 0.1875 -0.3281 Q0.1875 -0.2969 0.2344 -0.2812 L0.2344 -0.2812 L0.2344 -0.2812 Q0.25 -0.2812 0.2656 -0.2656 Q0.3281 -0.25 0.3438 -0.2344 Q0.3594 -0.2344 0.3594 -0.2344 Q0.3906 -0.2031 0.3906 -0.1562 Q0.3906 -0.1094 0.3594 -0.0625 Q0.2969 0.0156 0.1875 0.0156 Q0.1094 0.0156 0.0625 -0.0469 Q0.0469 -0.0625 0.0469 -0.0938 Q0.0469 -0.1406 0.0938 -0.1562 Q0.0938 -0.1562 0.1094 -0.1562 Q0.1406 -0.1406 0.1406 -0.1094 Q0.1406 -0.0938 0.125 -0.0781 Q0.1094 -0.0625 0.0781 -0.0625 Q0.1094 -0.0156 0.2031 -0.0156 Q0.2969 -0.0156 0.3281 -0.0938 Q0.3438 -0.1094 0.3438 -0.125 Q0.3438 -0.1719 0.2812 -0.1875 L0.2812 -0.1875 L0.2812 -0.1875 Q0.2656 -0.1875 0.2344 -0.2031 Q0.1406 -0.2188 0.1406 -0.2812 Q0.125 -0.2812 0.125 -0.2969 Q0.125 -0.3438 0.1719 -0.3906 Q0.2188 -0.4375 0.2969 -0.4375 Q0.375 -0.4375 0.4062 -0.3906 Q0.4219 -0.375 0.4219 -0.3594 Q0.4219 -0.3125 0.3906 -0.2969 Q0.375 -0.2969 0.375 -0.2969 Q0.3438 -0.2969 0.3438 -0.3281 Q0.3438 -0.3594 0.375 -0.375 Q0.375 -0.375 0.3906 -0.375 Z" style="stroke:none;" transform="translate(0.1,2.3765)"
    /></g
    ><g transform="matrix(10,0,0,10,0,-27) translate(0.5688,2.0876) scale(0.7,0.7)" style="font-size:1; text-rendering:geometricPrecision; color-rendering:optimizeQuality; image-rendering:optimizeQuality; font-family:&apos;jlm_cmr10&apos;; color-interpolation:linearRGB;"
    ><path style="stroke:none;" d="M0.4531 -0.1719 L0.4531 -0.1719 L0.4219 0 L0.0469 0 Q0.0469 -0.0312 0.0625 -0.0312 L0.0625 -0.0312 L0.25 -0.25 Q0.3594 -0.375 0.3594 -0.4688 Q0.3594 -0.5625 0.2969 -0.6094 L0.2969 -0.6094 L0.2969 -0.6094 Q0.2656 -0.6406 0.2188 -0.6406 Q0.1562 -0.6406 0.1094 -0.5781 Q0.0938 -0.5625 0.0938 -0.5312 Q0.0938 -0.5312 0.1094 -0.5312 Q0.1406 -0.5312 0.1562 -0.5 L0.1562 -0.5 Q0.1562 -0.4844 0.1562 -0.4844 Q0.1562 -0.4375 0.1094 -0.4375 Q0.1094 -0.4219 0.1094 -0.4219 Q0.0625 -0.4219 0.0469 -0.4531 Q0.0469 -0.4688 0.0469 -0.4844 Q0.0469 -0.5625 0.1094 -0.6094 Q0.1562 -0.6719 0.2344 -0.6719 Q0.3438 -0.6719 0.4062 -0.5938 Q0.4375 -0.5469 0.4531 -0.4844 Q0.4531 -0.4844 0.4531 -0.4688 Q0.4531 -0.4062 0.3906 -0.3281 Q0.3594 -0.2969 0.2969 -0.25 L0.25 -0.1875 L0.2344 -0.1875 L0.125 -0.0781 L0.3125 -0.0781 Q0.3906 -0.0781 0.4062 -0.0781 Q0.4062 -0.0938 0.4219 -0.1719 L0.4531 -0.1719 Z"
    /></g
    ><g transform="matrix(10,0,0,10,0,-27) translate(1.191,2.3765)" style="font-size:1; text-rendering:geometricPrecision; color-rendering:optimizeQuality; image-rendering:optimizeQuality; font-family:&apos;jlm_cmr10&apos;; color-interpolation:linearRGB;"
    ><path style="stroke:none;" d="M0.4062 -0.2344 L0.4062 0.0469 Q0.4062 0.0781 0.3906 0.0781 Q0.375 0.0781 0.375 0.0469 L0.375 -0.2344 L0.0938 -0.2344 Q0.0625 -0.2344 0.0625 -0.25 Q0.0625 -0.2656 0.0938 -0.2656 L0.375 -0.2656 L0.375 -0.5469 Q0.375 -0.5781 0.3906 -0.5781 Q0.4062 -0.5781 0.4062 -0.5469 L0.4062 -0.2656 L0.6875 -0.2656 Q0.7188 -0.2656 0.7188 -0.25 Q0.7188 -0.2344 0.6875 -0.2344 L0.4062 -0.2344 Z"
    /></g
    ><g transform="matrix(10,0,0,10,0,-27) translate(2.191,2.3765)" style="font-size:1; text-rendering:geometricPrecision; color-rendering:optimizeQuality; image-rendering:optimizeQuality; font-family:&apos;jlm_cmr10&apos;; color-interpolation:linearRGB;"
    ><path style="stroke:none;" d="M0.125 -0.3281 L0.125 -0.3281 Q0.1719 -0.4219 0.25 -0.4219 Q0.3438 -0.4219 0.4062 -0.3438 Q0.4375 -0.3125 0.4531 -0.25 Q0.4531 -0.2344 0.4531 -0.2031 Q0.4531 -0.0938 0.375 -0.0312 Q0.3281 0.0156 0.25 0.0156 Q0.1562 0.0156 0.0938 -0.0781 Q0.0469 -0.1562 0.0469 -0.3125 Q0.0469 -0.4844 0.1406 -0.5938 Q0.2188 -0.6719 0.3125 -0.6719 Q0.3906 -0.6719 0.4219 -0.6094 Q0.4375 -0.5781 0.4375 -0.5625 Q0.4375 -0.5156 0.3906 -0.5156 Q0.3906 -0.5156 0.3906 -0.5156 Q0.3594 -0.5156 0.3438 -0.5312 Q0.3438 -0.5469 0.3438 -0.5625 Q0.3438 -0.5938 0.3906 -0.5938 Q0.375 -0.6406 0.3125 -0.6406 Q0.2344 -0.6406 0.1875 -0.5781 Q0.125 -0.5 0.125 -0.3594 L0.125 -0.3281 ZM0.25 0 L0.25 0 Q0.3125 0 0.3438 -0.0781 Q0.3594 -0.1094 0.3594 -0.2031 Q0.3594 -0.3125 0.3438 -0.3438 Q0.3125 -0.4062 0.25 -0.4062 Q0.1719 -0.4062 0.1406 -0.3125 Q0.1406 -0.2656 0.1406 -0.2188 Q0.1406 -0.125 0.1562 -0.0781 Q0.1719 -0.0312 0.2188 -0.0156 Q0.2344 0 0.25 0 Z"
    /></g
    ><g transform="matrix(10,0,0,10,0,-27) translate(2.691,2.3765)" style="font-size:1; text-rendering:geometricPrecision; color-rendering:optimizeQuality; image-rendering:optimizeQuality; font-family:&apos;jlm_cmmi10&apos;; color-interpolation:linearRGB;"
    ><path style="stroke:none;" d="M0.1875 -0.0469 L0.1875 -0.0469 Q0.1875 -0.0156 0.1562 0 Q0.1562 0 0.1406 0 Q0.1094 0 0.0938 -0.0312 Q0.0938 -0.0469 0.0938 -0.0469 Q0.0938 -0.0938 0.1094 -0.0938 Q0.125 -0.1094 0.1406 -0.1094 Q0.1719 -0.1094 0.1875 -0.0781 Q0.1875 -0.0625 0.1875 -0.0469 Z"
    /></g
    ><g transform="matrix(10,0,0,10,0,-27) translate(2.9688,2.3765)" style="font-size:1; text-rendering:geometricPrecision; color-rendering:optimizeQuality; image-rendering:optimizeQuality; font-family:&apos;jlm_cmr10&apos;; color-interpolation:linearRGB;"
    ><path style="stroke:none;" d="M0.4531 -0.3125 Q0.4531 -0.1719 0.4219 -0.0938 Q0.3594 0.0156 0.25 0.0156 Q0.1562 0.0156 0.1094 -0.0469 Q0.0938 -0.0625 0.0781 -0.0781 Q0.0312 -0.1562 0.0312 -0.3125 Q0.0312 -0.4688 0.0781 -0.5469 Q0.125 -0.6562 0.2344 -0.6719 L0.25 -0.6719 Q0.3438 -0.6719 0.3906 -0.5938 L0.3906 -0.5938 Q0.4062 -0.5781 0.4219 -0.5469 Q0.4531 -0.4688 0.4531 -0.3125 ZM0.25 0 L0.25 0 Q0.3125 0 0.3438 -0.0625 Q0.3594 -0.0938 0.3594 -0.125 Q0.375 -0.1875 0.375 -0.3281 Q0.375 -0.4688 0.3594 -0.5312 Q0.3438 -0.625 0.2812 -0.6406 Q0.2656 -0.6406 0.25 -0.6406 Q0.1719 -0.6406 0.1406 -0.5781 Q0.1406 -0.5469 0.125 -0.5156 Q0.125 -0.4688 0.125 -0.3281 Q0.125 -0.1875 0.1406 -0.125 Q0.1562 -0.0312 0.2188 0 Q0.2344 0 0.25 0 Z"
    /></g
    ><g transform="matrix(10,0,0,10,0,-27) translate(3.4688,2.3765)" style="font-size:1; text-rendering:geometricPrecision; color-rendering:optimizeQuality; image-rendering:optimizeQuality; font-family:&apos;jlm_cmr10&apos;; color-interpolation:linearRGB;"
    ><path style="stroke:none;" d="M0.125 -0.3281 L0.125 -0.3281 Q0.1719 -0.4219 0.25 -0.4219 Q0.3438 -0.4219 0.4062 -0.3438 Q0.4375 -0.3125 0.4531 -0.25 Q0.4531 -0.2344 0.4531 -0.2031 Q0.4531 -0.0938 0.375 -0.0312 Q0.3281 0.0156 0.25 0.0156 Q0.1562 0.0156 0.0938 -0.0781 Q0.0469 -0.1562 0.0469 -0.3125 Q0.0469 -0.4844 0.1406 -0.5938 Q0.2188 -0.6719 0.3125 -0.6719 Q0.3906 -0.6719 0.4219 -0.6094 Q0.4375 -0.5781 0.4375 -0.5625 Q0.4375 -0.5156 0.3906 -0.5156 Q0.3906 -0.5156 0.3906 -0.5156 Q0.3594 -0.5156 0.3438 -0.5312 Q0.3438 -0.5469 0.3438 -0.5625 Q0.3438 -0.5938 0.3906 -0.5938 Q0.375 -0.6406 0.3125 -0.6406 Q0.2344 -0.6406 0.1875 -0.5781 Q0.125 -0.5 0.125 -0.3594 L0.125 -0.3281 ZM0.25 0 L0.25 0 Q0.3125 0 0.3438 -0.0781 Q0.3594 -0.1094 0.3594 -0.2031 Q0.3594 -0.3125 0.3438 -0.3438 Q0.3125 -0.4062 0.25 -0.4062 Q0.1719 -0.4062 0.1406 -0.3125 Q0.1406 -0.2656 0.1406 -0.2188 Q0.1406 -0.125 0.1562 -0.0781 Q0.1719 -0.0312 0.2188 -0.0156 Q0.2344 0 0.25 0 Z"
    /></g
    ><g transform="matrix(10,0,0,10,0,-27) translate(3.9688,2.3765)" style="font-size:1; text-rendering:geometricPrecision; color-rendering:optimizeQuality; image-rendering:optimizeQuality; font-family:&apos;jlm_cmmi10&apos;; color-interpolation:linearRGB;"
    ><path style="stroke:none;" d="M0.3906 -0.375 L0.3906 -0.375 Q0.375 -0.4219 0.2969 -0.4219 Q0.2188 -0.4219 0.1875 -0.3594 Q0.1875 -0.3438 0.1875 -0.3281 Q0.1875 -0.2969 0.2344 -0.2812 L0.2344 -0.2812 L0.2344 -0.2812 Q0.25 -0.2812 0.2656 -0.2656 Q0.3281 -0.25 0.3438 -0.2344 Q0.3594 -0.2344 0.3594 -0.2344 Q0.3906 -0.2031 0.3906 -0.1562 Q0.3906 -0.1094 0.3594 -0.0625 Q0.2969 0.0156 0.1875 0.0156 Q0.1094 0.0156 0.0625 -0.0469 Q0.0469 -0.0625 0.0469 -0.0938 Q0.0469 -0.1406 0.0938 -0.1562 Q0.0938 -0.1562 0.1094 -0.1562 Q0.1406 -0.1406 0.1406 -0.1094 Q0.1406 -0.0938 0.125 -0.0781 Q0.1094 -0.0625 0.0781 -0.0625 Q0.1094 -0.0156 0.2031 -0.0156 Q0.2969 -0.0156 0.3281 -0.0938 Q0.3438 -0.1094 0.3438 -0.125 Q0.3438 -0.1719 0.2812 -0.1875 L0.2812 -0.1875 L0.2812 -0.1875 Q0.2656 -0.1875 0.2344 -0.2031 Q0.1406 -0.2188 0.1406 -0.2812 Q0.125 -0.2812 0.125 -0.2969 Q0.125 -0.3438 0.1719 -0.3906 Q0.2188 -0.4375 0.2969 -0.4375 Q0.375 -0.4375 0.4062 -0.3906 Q0.4219 -0.375 0.4219 -0.3594 Q0.4219 -0.3125 0.3906 -0.2969 Q0.375 -0.2969 0.375 -0.2969 Q0.3438 -0.2969 0.3438 -0.3281 Q0.3438 -0.3594 0.375 -0.375 Q0.375 -0.375 0.3906 -0.375 Z"
    /></g
    ><g transform="matrix(10,0,0,10,0,-27) translate(4.6597,2.3765)" style="font-size:1; text-rendering:geometricPrecision; color-rendering:optimizeQuality; image-rendering:optimizeQuality; font-family:&apos;jlm_cmr10&apos;; color-interpolation:linearRGB;"
    ><path style="stroke:none;" d="M0.4062 -0.2344 L0.4062 0.0469 Q0.4062 0.0781 0.3906 0.0781 Q0.375 0.0781 0.375 0.0469 L0.375 -0.2344 L0.0938 -0.2344 Q0.0625 -0.2344 0.0625 -0.25 Q0.0625 -0.2656 0.0938 -0.2656 L0.375 -0.2656 L0.375 -0.5469 Q0.375 -0.5781 0.3906 -0.5781 Q0.4062 -0.5781 0.4062 -0.5469 L0.4062 -0.2656 L0.6875 -0.2656 Q0.7188 -0.2656 0.7188 -0.25 Q0.7188 -0.2344 0.6875 -0.2344 L0.4062 -0.2344 Z"
    /></g
    ><g transform="matrix(10,0,0,10,0,-27) translate(5.6597,2.3765)" style="font-size:1; text-rendering:geometricPrecision; color-rendering:optimizeQuality; image-rendering:optimizeQuality; font-family:&apos;jlm_cmr10&apos;; color-interpolation:linearRGB;"
    ><path style="stroke:none;" d="M0.2969 -0.6406 L0.2969 -0.0781 Q0.2969 -0.0469 0.3125 -0.0469 Q0.3281 -0.0312 0.3906 -0.0312 L0.4219 -0.0312 L0.4219 0 Q0.3906 0 0.25 0 Q0.125 0 0.0938 0 L0.0938 -0.0312 L0.125 -0.0312 Q0.2031 -0.0312 0.2188 -0.0469 L0.2188 -0.0469 Q0.2188 -0.0625 0.2188 -0.0781 L0.2188 -0.5938 Q0.1719 -0.5781 0.0938 -0.5781 L0.0938 -0.6094 Q0.2031 -0.6094 0.2656 -0.6719 Q0.2969 -0.6719 0.2969 -0.6562 L0.2969 -0.6562 L0.2969 -0.6562 Q0.2969 -0.6562 0.2969 -0.6406 Z"
    /></g
    ><g transform="matrix(10,0,0,10,0,-27) translate(6.1597,2.3765)" style="font-size:1; text-rendering:geometricPrecision; color-rendering:optimizeQuality; image-rendering:optimizeQuality; font-family:&apos;jlm_cmr10&apos;; color-interpolation:linearRGB;"
    ><path style="stroke:none;" d="M0.4531 -0.3125 Q0.4531 -0.1719 0.4219 -0.0938 Q0.3594 0.0156 0.25 0.0156 Q0.1562 0.0156 0.1094 -0.0469 Q0.0938 -0.0625 0.0781 -0.0781 Q0.0312 -0.1562 0.0312 -0.3125 Q0.0312 -0.4688 0.0781 -0.5469 Q0.125 -0.6562 0.2344 -0.6719 L0.25 -0.6719 Q0.3438 -0.6719 0.3906 -0.5938 L0.3906 -0.5938 Q0.4062 -0.5781 0.4219 -0.5469 Q0.4531 -0.4688 0.4531 -0.3125 ZM0.25 0 L0.25 0 Q0.3125 0 0.3438 -0.0625 Q0.3594 -0.0938 0.3594 -0.125 Q0.375 -0.1875 0.375 -0.3281 Q0.375 -0.4688 0.3594 -0.5312 Q0.3438 -0.625 0.2812 -0.6406 Q0.2656 -0.6406 0.25 -0.6406 Q0.1719 -0.6406 0.1406 -0.5781 Q0.1406 -0.5469 0.125 -0.5156 Q0.125 -0.4688 0.125 -0.3281 Q0.125 -0.1875 0.1406 -0.125 Q0.1562 -0.0312 0.2188 0 Q0.2344 0 0.25 0 Z"
    /></g
    ><g transform="matrix(10,0,0,10,0,-27) translate(6.6597,2.3765)" style="font-size:1; text-rendering:geometricPrecision; color-rendering:optimizeQuality; image-rendering:optimizeQuality; font-family:&apos;jlm_cmr10&apos;; color-interpolation:linearRGB;"
    ><path style="stroke:none;" d="M0.4531 -0.1719 L0.4531 -0.1719 L0.4219 0 L0.0469 0 Q0.0469 -0.0312 0.0625 -0.0312 L0.0625 -0.0312 L0.25 -0.25 Q0.3594 -0.375 0.3594 -0.4688 Q0.3594 -0.5625 0.2969 -0.6094 L0.2969 -0.6094 L0.2969 -0.6094 Q0.2656 -0.6406 0.2188 -0.6406 Q0.1562 -0.6406 0.1094 -0.5781 Q0.0938 -0.5625 0.0938 -0.5312 Q0.0938 -0.5312 0.1094 -0.5312 Q0.1406 -0.5312 0.1562 -0.5 L0.1562 -0.5 Q0.1562 -0.4844 0.1562 -0.4844 Q0.1562 -0.4375 0.1094 -0.4375 Q0.1094 -0.4219 0.1094 -0.4219 Q0.0625 -0.4219 0.0469 -0.4531 Q0.0469 -0.4688 0.0469 -0.4844 Q0.0469 -0.5625 0.1094 -0.6094 Q0.1562 -0.6719 0.2344 -0.6719 Q0.3438 -0.6719 0.4062 -0.5938 Q0.4375 -0.5469 0.4531 -0.4844 Q0.4531 -0.4844 0.4531 -0.4688 Q0.4531 -0.4062 0.3906 -0.3281 Q0.3594 -0.2969 0.2969 -0.25 L0.25 -0.1875 L0.2344 -0.1875 L0.125 -0.0781 L0.3125 -0.0781 Q0.3906 -0.0781 0.4062 -0.0781 Q0.4062 -0.0938 0.4219 -0.1719 L0.4531 -0.1719 Z"
    /></g
    ><g transform="matrix(10,0,0,10,0,-27) translate(7.1597,2.3765)" style="font-size:1; text-rendering:geometricPrecision; color-rendering:optimizeQuality; image-rendering:optimizeQuality; font-family:&apos;jlm_cmmi10&apos;; color-interpolation:linearRGB;"
    ><path style="stroke:none;" d="M0.1875 -0.0469 L0.1875 -0.0469 Q0.1875 -0.0156 0.1562 0 Q0.1562 0 0.1406 0 Q0.1094 0 0.0938 -0.0312 Q0.0938 -0.0469 0.0938 -0.0469 Q0.0938 -0.0938 0.1094 -0.0938 Q0.125 -0.1094 0.1406 -0.1094 Q0.1719 -0.1094 0.1875 -0.0781 Q0.1875 -0.0625 0.1875 -0.0469 Z"
    /></g
    ><g transform="matrix(10,0,0,10,0,-27) translate(7.4375,2.3765)" style="font-size:1; text-rendering:geometricPrecision; color-rendering:optimizeQuality; image-rendering:optimizeQuality; font-family:&apos;jlm_cmr10&apos;; color-interpolation:linearRGB;"
    ><path style="stroke:none;" d="M0.2969 -0.6406 L0.2969 -0.0781 Q0.2969 -0.0469 0.3125 -0.0469 Q0.3281 -0.0312 0.3906 -0.0312 L0.4219 -0.0312 L0.4219 0 Q0.3906 0 0.25 0 Q0.125 0 0.0938 0 L0.0938 -0.0312 L0.125 -0.0312 Q0.2031 -0.0312 0.2188 -0.0469 L0.2188 -0.0469 Q0.2188 -0.0625 0.2188 -0.0781 L0.2188 -0.5938 Q0.1719 -0.5781 0.0938 -0.5781 L0.0938 -0.6094 Q0.2031 -0.6094 0.2656 -0.6719 Q0.2969 -0.6719 0.2969 -0.6562 L0.2969 -0.6562 L0.2969 -0.6562 Q0.2969 -0.6562 0.2969 -0.6406 Z"
    /></g
  ></g
></g>
<g fill="#000000" stroke="black" transform="rotate(0,436,113) translate(436,113)"><!--Generated by the Batik Graphics2D SVG Generator--><defs id="genericDefs"
  /><g
  ><g transform="matrix(1,0,0,1,0,-27) scale(10,10) translate(0.1,1.014)" style="font-size:1; text-rendering:geometricPrecision; color-rendering:optimizeQuality; image-rendering:optimizeQuality; font-family:&apos;jlm_cmmi10&apos;; color-interpolation:linearRGB;"
    ><path style="stroke:none;" d="M0.3906 -0.375 L0.3906 -0.375 Q0.375 -0.4219 0.2969 -0.4219 Q0.2188 -0.4219 0.1875 -0.3594 Q0.1875 -0.3438 0.1875 -0.3281 Q0.1875 -0.2969 0.2344 -0.2812 L0.2344 -0.2812 L0.2344 -0.2812 Q0.25 -0.2812 0.2656 -0.2656 Q0.3281 -0.25 0.3438 -0.2344 Q0.3594 -0.2344 0.3594 -0.2344 Q0.3906 -0.2031 0.3906 -0.1562 Q0.3906 -0.1094 0.3594 -0.0625 Q0.2969 0.0156 0.1875 0.0156 Q0.1094 0.0156 0.0625 -0.0469 Q0.0469 -0.0625 0.0469 -0.0938 Q0.0469 -0.1406 0.0938 -0.1562 Q0.0938 -0.1562 0.1094 -0.1562 Q0.1406 -0.1406 0.1406 -0.1094 Q0.1406 -0.0938 0.125 -0.0781 Q0.1094 -0.0625 0.0781 -0.0625 Q0.1094 -0.0156 0.2031 -0.0156 Q0.2969 -0.0156 0.3281 -0.0938 Q0.3438 -0.1094 0.3438 -0.125 Q0.3438 -0.1719 0.2812 -0.1875 L0.2812 -0.1875 L0.2812 -0.1875 Q0.2656 -0.1875 0.2344 -0.2031 Q0.1406 -0.2188 0.1406 -0.2812 Q0.125 -0.2812 0.125 -0.2969 Q0.125 -0.3438 0.1719 -0.3906 Q0.2188 -0.4375 0.2969 -0.4375 Q0.375 -0.4375 0.4062 -0.3906 Q0.4219 -0.375 0.4219 -0.3594 Q0.4219 -0.3125 0.3906 -0.2969 Q0.375 -0.2969 0.375 -0.2969 Q0.3438 -0.2969 0.3438 -0.3281 Q0.3438 -0.3594 0.375 -0.375 Q0.375 -0.375 0.3906 -0.375 Z"
    /></g
    ><g transform="matrix(10,0,0,10,0,-27) translate(0.5688,0.6511) scale(0.7,0.7)" style="font-size:1; text-rendering:geometricPrecision; color-rendering:optimizeQuality; image-rendering:optimizeQuality; font-family:&apos;jlm_cmr10&apos;; color-interpolation:linearRGB;"
    ><path style="stroke:none;" d="M0.4531 -0.1719 L0.4531 -0.1719 L0.4219 0 L0.0469 0 Q0.0469 -0.0312 0.0625 -0.0312 L0.0625 -0.0312 L0.25 -0.25 Q0.3594 -0.375 0.3594 -0.4688 Q0.3594 -0.5625 0.2969 -0.6094 L0.2969 -0.6094 L0.2969 -0.6094 Q0.2656 -0.6406 0.2188 -0.6406 Q0.1562 -0.6406 0.1094 -0.5781 Q0.0938 -0.5625 0.0938 -0.5312 Q0.0938 -0.5312 0.1094 -0.5312 Q0.1406 -0.5312 0.1562 -0.5 L0.1562 -0.5 Q0.1562 -0.4844 0.1562 -0.4844 Q0.1562 -0.4375 0.1094 -0.4375 Q0.1094 -0.4219 0.1094 -0.4219 Q0.0625 -0.4219 0.0469 -0.4531 Q0.0469 -0.4688 0.0469 -0.4844 Q0.0469 -0.5625 0.1094 -0.6094 Q0.1562 -0.6719 0.2344 -0.6719 Q0.3438 -0.6719 0.4062 -0.5938 Q0.4375 -0.5469 0.4531 -0.4844 Q0.4531 -0.4844 0.4531 -0.4688 Q0.4531 -0.4062 0.3906 -0.3281 Q0.3594 -0.2969 0.2969 -0.25 L0.25 -0.1875 L0.2344 -0.1875 L0.125 -0.0781 L0.3125 -0.0781 Q0.3906 -0.0781 0.4062 -0.0781 Q0.4062 -0.0938 0.4219 -0.1719 L0.4531 -0.1719 Z"
    /></g
    ><g transform="matrix(10,0,0,10,0,-27) translate(1.191,1.014)" style="font-size:1; text-rendering:geometricPrecision; color-rendering:optimizeQuality; image-rendering:optimizeQuality; font-family:&apos;jlm_cmr10&apos;; color-interpolation:linearRGB;"
    ><path style="stroke:none;" d="M0.4062 -0.2344 L0.4062 0.0469 Q0.4062 0.0781 0.3906 0.0781 Q0.375 0.0781 0.375 0.0469 L0.375 -0.2344 L0.0938 -0.2344 Q0.0625 -0.2344 0.0625 -0.25 Q0.0625 -0.2656 0.0938 -0.2656 L0.375 -0.2656 L0.375 -0.5469 Q0.375 -0.5781 0.3906 -0.5781 Q0.4062 -0.5781 0.4062 -0.5469 L0.4062 -0.2656 L0.6875 -0.2656 Q0.7188 -0.2656 0.7188 -0.25 Q0.7188 -0.2344 0.6875 -0.2344 L0.4062 -0.2344 Z"
    /></g
    ><g transform="matrix(10,0,0,10,0,-27) translate(2.191,1.014)" style="font-size:1; text-rendering:geometricPrecision; color-rendering:optimizeQuality; image-rendering:optimizeQuality; font-family:&apos;jlm_cmr10&apos;; color-interpolation:linearRGB;"
    ><path style="stroke:none;" d="M0.2969 -0.3594 L0.2969 -0.3594 Q0.3906 -0.3281 0.4375 -0.25 Q0.4531 -0.2188 0.4531 -0.1719 Q0.4531 -0.0938 0.3906 -0.0312 Q0.3281 0.0156 0.25 0.0156 Q0.1406 0.0156 0.0781 -0.0312 Q0.0469 -0.0781 0.0469 -0.1406 Q0.0469 -0.1875 0.0781 -0.1875 Q0.0938 -0.1875 0.0938 -0.1875 Q0.1406 -0.1875 0.1562 -0.1562 Q0.1562 -0.1406 0.1562 -0.1406 Q0.1562 -0.0938 0.125 -0.0781 Q0.1094 -0.0781 0.0938 -0.0781 Q0.125 -0.0156 0.2188 -0.0156 Q0.2344 0 0.2344 0 Q0.3125 0 0.3281 -0.0625 Q0.3594 -0.1094 0.3594 -0.1719 Q0.3594 -0.2969 0.2812 -0.3281 Q0.25 -0.3438 0.2344 -0.3438 L0.1875 -0.3438 Q0.1719 -0.3438 0.1719 -0.3438 Q0.1719 -0.3594 0.1875 -0.3594 Q0.2031 -0.3594 0.2188 -0.3594 Q0.2656 -0.3594 0.2969 -0.4062 L0.2969 -0.4062 L0.2969 -0.4062 L0.2969 -0.4062 L0.2969 -0.4062 L0.3125 -0.4219 Q0.3438 -0.4688 0.3438 -0.5312 Q0.3438 -0.625 0.2656 -0.6406 Q0.25 -0.6406 0.2344 -0.6406 Q0.1719 -0.6406 0.125 -0.5938 Q0.1094 -0.5938 0.1094 -0.5781 Q0.1719 -0.5781 0.1719 -0.5312 Q0.1719 -0.5 0.1406 -0.4844 Q0.125 -0.4844 0.125 -0.4844 Q0.0781 -0.4844 0.0781 -0.5156 L0.0781 -0.5156 L0.0781 -0.5156 Q0.0625 -0.5156 0.0625 -0.5312 Q0.0625 -0.5938 0.1406 -0.6406 Q0.1875 -0.6719 0.25 -0.6719 Q0.3438 -0.6719 0.3906 -0.6094 L0.3906 -0.6094 Q0.4375 -0.5781 0.4375 -0.5312 Q0.4375 -0.4375 0.3594 -0.3906 Q0.3281 -0.3594 0.2969 -0.3594 Z"
    /></g
    ><g transform="matrix(10,0,0,10,0,-27) translate(2.691,1.014)" style="font-size:1; text-rendering:geometricPrecision; color-rendering:optimizeQuality; image-rendering:optimizeQuality; font-family:&apos;jlm_cmmi10&apos;; color-interpolation:linearRGB;"
    ><path style="stroke:none;" d="M0.1875 -0.0469 L0.1875 -0.0469 Q0.1875 -0.0156 0.1562 0 Q0.1562 0 0.1406 0 Q0.1094 0 0.0938 -0.0312 Q0.0938 -0.0469 0.0938 -0.0469 Q0.0938 -0.0938 0.1094 -0.0938 Q0.125 -0.1094 0.1406 -0.1094 Q0.1719 -0.1094 0.1875 -0.0781 Q0.1875 -0.0625 0.1875 -0.0469 Z"
    /></g
    ><g transform="matrix(10,0,0,10,0,-27) translate(2.9688,1.014)" style="font-size:1; text-rendering:geometricPrecision; color-rendering:optimizeQuality; image-rendering:optimizeQuality; font-family:&apos;jlm_cmr10&apos;; color-interpolation:linearRGB;"
    ><path style="stroke:none;" d="M0.4531 -0.3125 Q0.4531 -0.1719 0.4219 -0.0938 Q0.3594 0.0156 0.25 0.0156 Q0.1562 0.0156 0.1094 -0.0469 Q0.0938 -0.0625 0.0781 -0.0781 Q0.0312 -0.1562 0.0312 -0.3125 Q0.0312 -0.4688 0.0781 -0.5469 Q0.125 -0.6562 0.2344 -0.6719 L0.25 -0.6719 Q0.3438 -0.6719 0.3906 -0.5938 L0.3906 -0.5938 Q0.4062 -0.5781 0.4219 -0.5469 Q0.4531 -0.4688 0.4531 -0.3125 ZM0.25 0 L0.25 0 Q0.3125 0 0.3438 -0.0625 Q0.3594 -0.0938 0.3594 -0.125 Q0.375 -0.1875 0.375 -0.3281 Q0.375 -0.4688 0.3594 -0.5312 Q0.3438 -0.625 0.2812 -0.6406 Q0.2656 -0.6406 0.25 -0.6406 Q0.1719 -0.6406 0.1406 -0.5781 Q0.1406 -0.5469 0.125 -0.5156 Q0.125 -0.4688 0.125 -0.3281 Q0.125 -0.1875 0.1406 -0.125 Q0.1562 -0.0312 0.2188 0 Q0.2344 0 0.25 0 Z"
    /></g
    ><g transform="matrix(10,0,0,10,0,-27) translate(3.4688,1.014)" style="font-size:1; text-rendering:geometricPrecision; color-rendering:optimizeQuality; image-rendering:optimizeQuality; font-family:&apos;jlm_cmr10&apos;; color-interpolation:linearRGB;"
    ><path style="stroke:none;" d="M0.4531 -0.1719 L0.4531 -0.1719 L0.4219 0 L0.0469 0 Q0.0469 -0.0312 0.0625 -0.0312 L0.0625 -0.0312 L0.25 -0.25 Q0.3594 -0.375 0.3594 -0.4688 Q0.3594 -0.5625 0.2969 -0.6094 L0.2969 -0.6094 L0.2969 -0.6094 Q0.2656 -0.6406 0.2188 -0.6406 Q0.1562 -0.6406 0.1094 -0.5781 Q0.0938 -0.5625 0.0938 -0.5312 Q0.0938 -0.5312 0.1094 -0.5312 Q0.1406 -0.5312 0.1562 -0.5 L0.1562 -0.5 Q0.1562 -0.4844 0.1562 -0.4844 Q0.1562 -0.4375 0.1094 -0.4375 Q0.1094 -0.4219 0.1094 -0.4219 Q0.0625 -0.4219 0.0469 -0.4531 Q0.0469 -0.4688 0.0469 -0.4844 Q0.0469 -0.5625 0.1094 -0.6094 Q0.1562 -0.6719 0.2344 -0.6719 Q0.3438 -0.6719 0.4062 -0.5938 Q0.4375 -0.5469 0.4531 -0.4844 Q0.4531 -0.4844 0.4531 -0.4688 Q0.4531 -0.4062 0.3906 -0.3281 Q0.3594 -0.2969 0.2969 -0.25 L0.25 -0.1875 L0.2344 -0.1875 L0.125 -0.0781 L0.3125 -0.0781 Q0.3906 -0.0781 0.4062 -0.0781 Q0.4062 -0.0938 0.4219 -0.1719 L0.4531 -0.1719 Z"
    /></g
    ><g transform="matrix(10,0,0,10,0,-27) translate(3.9688,1.014)" style="font-size:1; text-rendering:geometricPrecision; color-rendering:optimizeQuality; image-rendering:optimizeQuality; font-family:&apos;jlm_cmmi10&apos;; color-interpolation:linearRGB;"
    ><path style="stroke:none;" d="M0.3906 -0.375 L0.3906 -0.375 Q0.375 -0.4219 0.2969 -0.4219 Q0.2188 -0.4219 0.1875 -0.3594 Q0.1875 -0.3438 0.1875 -0.3281 Q0.1875 -0.2969 0.2344 -0.2812 L0.2344 -0.2812 L0.2344 -0.2812 Q0.25 -0.2812 0.2656 -0.2656 Q0.3281 -0.25 0.3438 -0.2344 Q0.3594 -0.2344 0.3594 -0.2344 Q0.3906 -0.2031 0.3906 -0.1562 Q0.3906 -0.1094 0.3594 -0.0625 Q0.2969 0.0156 0.1875 0.0156 Q0.1094 0.0156 0.0625 -0.0469 Q0.0469 -0.0625 0.0469 -0.0938 Q0.0469 -0.1406 0.0938 -0.1562 Q0.0938 -0.1562 0.1094 -0.1562 Q0.1406 -0.1406 0.1406 -0.1094 Q0.1406 -0.0938 0.125 -0.0781 Q0.1094 -0.0625 0.0781 -0.0625 Q0.1094 -0.0156 0.2031 -0.0156 Q0.2969 -0.0156 0.3281 -0.0938 Q0.3438 -0.1094 0.3438 -0.125 Q0.3438 -0.1719 0.2812 -0.1875 L0.2812 -0.1875 L0.2812 -0.1875 Q0.2656 -0.1875 0.2344 -0.2031 Q0.1406 -0.2188 0.1406 -0.2812 Q0.125 -0.2812 0.125 -0.2969 Q0.125 -0.3438 0.1719 -0.3906 Q0.2188 -0.4375 0.2969 -0.4375 Q0.375 -0.4375 0.4062 -0.3906 Q0.4219 -0.375 0.4219 -0.3594 Q0.4219 -0.3125 0.3906 -0.2969 Q0.375 -0.2969 0.375 -0.2969 Q0.3438 -0.2969 0.3438 -0.3281 Q0.3438 -0.3594 0.375 -0.375 Q0.375 -0.375 0.3906 -0.375 Z"
    /></g
    ><g transform="matrix(10,0,0,10,0,-27) translate(4.6597,1.014)" style="font-size:1; text-rendering:geometricPrecision; color-rendering:optimizeQuality; image-rendering:optimizeQuality; font-family:&apos;jlm_cmr10&apos;; color-interpolation:linearRGB;"
    ><path style="stroke:none;" d="M0.4062 -0.2344 L0.4062 0.0469 Q0.4062 0.0781 0.3906 0.0781 Q0.375 0.0781 0.375 0.0469 L0.375 -0.2344 L0.0938 -0.2344 Q0.0625 -0.2344 0.0625 -0.25 Q0.0625 -0.2656 0.0938 -0.2656 L0.375 -0.2656 L0.375 -0.5469 Q0.375 -0.5781 0.3906 -0.5781 Q0.4062 -0.5781 0.4062 -0.5469 L0.4062 -0.2656 L0.6875 -0.2656 Q0.7188 -0.2656 0.7188 -0.25 Q0.7188 -0.2344 0.6875 -0.2344 L0.4062 -0.2344 Z"
    /></g
    ><g transform="matrix(10,0,0,10,0,-27) translate(5.6597,1.014)" style="font-size:1; text-rendering:geometricPrecision; color-rendering:optimizeQuality; image-rendering:optimizeQuality; font-family:&apos;jlm_cmr10&apos;; color-interpolation:linearRGB;"
    ><path style="stroke:none;" d="M0.4531 -0.1719 L0.4531 -0.1719 L0.4219 0 L0.0469 0 Q0.0469 -0.0312 0.0625 -0.0312 L0.0625 -0.0312 L0.25 -0.25 Q0.3594 -0.375 0.3594 -0.4688 Q0.3594 -0.5625 0.2969 -0.6094 L0.2969 -0.6094 L0.2969 -0.6094 Q0.2656 -0.6406 0.2188 -0.6406 Q0.1562 -0.6406 0.1094 -0.5781 Q0.0938 -0.5625 0.0938 -0.5312 Q0.0938 -0.5312 0.1094 -0.5312 Q0.1406 -0.5312 0.1562 -0.5 L0.1562 -0.5 Q0.1562 -0.4844 0.1562 -0.4844 Q0.1562 -0.4375 0.1094 -0.4375 Q0.1094 -0.4219 0.1094 -0.4219 Q0.0625 -0.4219 0.0469 -0.4531 Q0.0469 -0.4688 0.0469 -0.4844 Q0.0469 -0.5625 0.1094 -0.6094 Q0.1562 -0.6719 0.2344 -0.6719 Q0.3438 -0.6719 0.4062 -0.5938 Q0.4375 -0.5469 0.4531 -0.4844 Q0.4531 -0.4844 0.4531 -0.4688 Q0.4531 -0.4062 0.3906 -0.3281 Q0.3594 -0.2969 0.2969 -0.25 L0.25 -0.1875 L0.2344 -0.1875 L0.125 -0.0781 L0.3125 -0.0781 Q0.3906 -0.0781 0.4062 -0.0781 Q0.4062 -0.0938 0.4219 -0.1719 L0.4531 -0.1719 Z"
    /></g
    ><g transform="matrix(10,0,0,10,0,-27) translate(6.1597,1.014)" style="font-size:1; text-rendering:geometricPrecision; color-rendering:optimizeQuality; image-rendering:optimizeQuality; font-family:&apos;jlm_cmr10&apos;; color-interpolation:linearRGB;"
    ><path style="stroke:none;" d="M0.4531 -0.1719 L0.4531 -0.1719 L0.4219 0 L0.0469 0 Q0.0469 -0.0312 0.0625 -0.0312 L0.0625 -0.0312 L0.25 -0.25 Q0.3594 -0.375 0.3594 -0.4688 Q0.3594 -0.5625 0.2969 -0.6094 L0.2969 -0.6094 L0.2969 -0.6094 Q0.2656 -0.6406 0.2188 -0.6406 Q0.1562 -0.6406 0.1094 -0.5781 Q0.0938 -0.5625 0.0938 -0.5312 Q0.0938 -0.5312 0.1094 -0.5312 Q0.1406 -0.5312 0.1562 -0.5 L0.1562 -0.5 Q0.1562 -0.4844 0.1562 -0.4844 Q0.1562 -0.4375 0.1094 -0.4375 Q0.1094 -0.4219 0.1094 -0.4219 Q0.0625 -0.4219 0.0469 -0.4531 Q0.0469 -0.4688 0.0469 -0.4844 Q0.0469 -0.5625 0.1094 -0.6094 Q0.1562 -0.6719 0.2344 -0.6719 Q0.3438 -0.6719 0.4062 -0.5938 Q0.4375 -0.5469 0.4531 -0.4844 Q0.4531 -0.4844 0.4531 -0.4688 Q0.4531 -0.4062 0.3906 -0.3281 Q0.3594 -0.2969 0.2969 -0.25 L0.25 -0.1875 L0.2344 -0.1875 L0.125 -0.0781 L0.3125 -0.0781 Q0.3906 -0.0781 0.4062 -0.0781 Q0.4062 -0.0938 0.4219 -0.1719 L0.4531 -0.1719 Z"
    /></g
    ><g transform="matrix(10,0,0,10,0,-27) translate(6.6597,1.014)" style="font-size:1; text-rendering:geometricPrecision; color-rendering:optimizeQuality; image-rendering:optimizeQuality; font-family:&apos;jlm_cmr10&apos;; color-interpolation:linearRGB;"
    ><path style="stroke:none;" d="M0.1562 -0.4531 L0.2812 -0.375 Q0.3906 -0.4375 0.3906 -0.5156 Q0.3906 -0.5781 0.3281 -0.625 Q0.2969 -0.6406 0.25 -0.6406 Q0.1719 -0.6406 0.1406 -0.5938 L0.1406 -0.5938 L0.1406 -0.5938 Q0.1094 -0.5625 0.1094 -0.5312 Q0.1094 -0.4844 0.1562 -0.4531 ZM0.3125 -0.3594 L0.3125 -0.3594 Q0.3906 -0.3125 0.4062 -0.2969 Q0.4062 -0.2969 0.4062 -0.2969 Q0.4531 -0.2344 0.4531 -0.1719 Q0.4531 -0.0781 0.3906 -0.0156 Q0.3281 0.0156 0.25 0.0156 Q0.1562 0.0156 0.0938 -0.0312 Q0.0469 -0.0781 0.0469 -0.1562 Q0.0469 -0.2656 0.1875 -0.3281 Q0.125 -0.375 0.1094 -0.3906 Q0.0625 -0.4375 0.0625 -0.5 Q0.0625 -0.5781 0.1406 -0.625 Q0.1875 -0.6719 0.25 -0.6719 Q0.3438 -0.6719 0.3906 -0.6094 Q0.4375 -0.5781 0.4375 -0.5156 Q0.4375 -0.4219 0.3125 -0.3594 ZM0.2031 -0.3125 L0.2031 -0.3125 Q0.0938 -0.25 0.0938 -0.1562 Q0.0938 -0.0781 0.1562 -0.0312 Q0.2031 0 0.25 0 Q0.3281 0 0.375 -0.0625 Q0.4062 -0.0938 0.4062 -0.125 Q0.4062 -0.1875 0.3438 -0.2344 Q0.3438 -0.2344 0.3281 -0.2344 L0.2031 -0.3125 Z"
    /></g
    ><g transform="matrix(10,0,0,10,0,-27) translate(7.1597,1.014)" style="font-size:1; text-rendering:geometricPrecision; color-rendering:optimizeQuality; image-rendering:optimizeQuality; font-family:&apos;jlm_cmmi10&apos;; color-interpolation:linearRGB;"
    ><path style="stroke:none;" d="M0.1875 -0.0469 L0.1875 -0.0469 Q0.1875 -0.0156 0.1562 0 Q0.1562 0 0.1406 0 Q0.1094 0 0.0938 -0.0312 Q0.0938 -0.0469 0.0938 -0.0469 Q0.0938 -0.0938 0.1094 -0.0938 Q0.125 -0.1094 0.1406 -0.1094 Q0.1719 -0.1094 0.1875 -0.0781 Q0.1875 -0.0625 0.1875 -0.0469 Z"
    /></g
    ><g transform="matrix(10,0,0,10,0,-27) translate(7.4375,1.014)" style="font-size:1; text-rendering:geometricPrecision; color-rendering:optimizeQuality; image-rendering:optimizeQuality; font-family:&apos;jlm_cmr10&apos;; color-interpolation:linearRGB;"
    ><path style="stroke:none;" d="M0.4531 -0.3125 Q0.4531 -0.1719 0.4219 -0.0938 Q0.3594 0.0156 0.25 0.0156 Q0.1562 0.0156 0.1094 -0.0469 Q0.0938 -0.0625 0.0781 -0.0781 Q0.0312 -0.1562 0.0312 -0.3125 Q0.0312 -0.4688 0.0781 -0.5469 Q0.125 -0.6562 0.2344 -0.6719 L0.25 -0.6719 Q0.3438 -0.6719 0.3906 -0.5938 L0.3906 -0.5938 Q0.4062 -0.5781 0.4219 -0.5469 Q0.4531 -0.4688 0.4531 -0.3125 ZM0.25 0 L0.25 0 Q0.3125 0 0.3438 -0.0625 Q0.3594 -0.0938 0.3594 -0.125 Q0.375 -0.1875 0.375 -0.3281 Q0.375 -0.4688 0.3594 -0.5312 Q0.3438 -0.625 0.2812 -0.6406 Q0.2656 -0.6406 0.25 -0.6406 Q0.1719 -0.6406 0.1406 -0.5781 Q0.1406 -0.5469 0.125 -0.5156 Q0.125 -0.4688 0.125 -0.3281 Q0.125 -0.1875 0.1406 -0.125 Q0.1562 -0.0312 0.2188 0 Q0.2344 0 0.25 0 Z"
    /></g
    ><g transform="matrix(10,0,0,10,0,-27) translate(7.9375,1.014)" style="font-size:1; text-rendering:geometricPrecision; color-rendering:optimizeQuality; image-rendering:optimizeQuality; font-family:&apos;jlm_cmr10&apos;; color-interpolation:linearRGB;"
    ><path style="stroke:none;" d="M0.2969 -0.6406 L0.2969 -0.0781 Q0.2969 -0.0469 0.3125 -0.0469 Q0.3281 -0.0312 0.3906 -0.0312 L0.4219 -0.0312 L0.4219 0 Q0.3906 0 0.25 0 Q0.125 0 0.0938 0 L0.0938 -0.0312 L0.125 -0.0312 Q0.2031 -0.0312 0.2188 -0.0469 L0.2188 -0.0469 Q0.2188 -0.0625 0.2188 -0.0781 L0.2188 -0.5938 Q0.1719 -0.5781 0.0938 -0.5781 L0.0938 -0.6094 Q0.2031 -0.6094 0.2656 -0.6719 Q0.2969 -0.6719 0.2969 -0.6562 L0.2969 -0.6562 L0.2969 -0.6562 Q0.2969 -0.6562 0.2969 -0.6406 Z"
    /></g
    ><g transform="matrix(10,0,0,10,0,-27)" style="font-size:1; text-rendering:geometricPrecision; color-rendering:optimizeQuality; image-rendering:optimizeQuality; font-family:&apos;jlm_cmr10&apos;; color-interpolation:linearRGB;"
    ><rect x="0.1" width="8.3375" height="0.04" y="1.4205" style="stroke:none;"
      /><path d="M0.3906 -0.375 L0.3906 -0.375 Q0.375 -0.4219 0.2969 -0.4219 Q0.2188 -0.4219 0.1875 -0.3594 Q0.1875 -0.3438 0.1875 -0.3281 Q0.1875 -0.2969 0.2344 -0.2812 L0.2344 -0.2812 L0.2344 -0.2812 Q0.25 -0.2812 0.2656 -0.2656 Q0.3281 -0.25 0.3438 -0.2344 Q0.3594 -0.2344 0.3594 -0.2344 Q0.3906 -0.2031 0.3906 -0.1562 Q0.3906 -0.1094 0.3594 -0.0625 Q0.2969 0.0156 0.1875 0.0156 Q0.1094 0.0156 0.0625 -0.0469 Q0.0469 -0.0625 0.0469 -0.0938 Q0.0469 -0.1406 0.0938 -0.1562 Q0.0938 -0.1562 0.1094 -0.1562 Q0.1406 -0.1406 0.1406 -0.1094 Q0.1406 -0.0938 0.125 -0.0781 Q0.1094 -0.0625 0.0781 -0.0625 Q0.1094 -0.0156 0.2031 -0.0156 Q0.2969 -0.0156 0.3281 -0.0938 Q0.3438 -0.1094 0.3438 -0.125 Q0.3438 -0.1719 0.2812 -0.1875 L0.2812 -0.1875 L0.2812 -0.1875 Q0.2656 -0.1875 0.2344 -0.2031 Q0.1406 -0.2188 0.1406 -0.2812 Q0.125 -0.2812 0.125 -0.2969 Q0.125 -0.3438 0.1719 -0.3906 Q0.2188 -0.4375 0.2969 -0.4375 Q0.375 -0.4375 0.4062 -0.3906 Q0.4219 -0.375 0.4219 -0.3594 Q0.4219 -0.3125 0.3906 -0.2969 Q0.375 -0.2969 0.375 -0.2969 Q0.3438 -0.2969 0.3438 -0.3281 Q0.3438 -0.3594 0.375 -0.375 Q0.375 -0.375 0.3906 -0.375 Z" style="stroke:none;" transform="translate(1.1278,2.3765)"
    /></g
    ><g transform="matrix(10,0,0,10,0,-27) translate(1.5965,2.0876) scale(0.7,0.7)" style="font-size:1; text-rendering:geometricPrecision; color-rendering:optimizeQuality; image-rendering:optimizeQuality; font-family:&apos;jlm_cmr10&apos;; color-interpolation:linearRGB;"
    ><path style="stroke:none;" d="M0.4531 -0.1719 L0.4531 -0.1719 L0.4219 0 L0.0469 0 Q0.0469 -0.0312 0.0625 -0.0312 L0.0625 -0.0312 L0.25 -0.25 Q0.3594 -0.375 0.3594 -0.4688 Q0.3594 -0.5625 0.2969 -0.6094 L0.2969 -0.6094 L0.2969 -0.6094 Q0.2656 -0.6406 0.2188 -0.6406 Q0.1562 -0.6406 0.1094 -0.5781 Q0.0938 -0.5625 0.0938 -0.5312 Q0.0938 -0.5312 0.1094 -0.5312 Q0.1406 -0.5312 0.1562 -0.5 L0.1562 -0.5 Q0.1562 -0.4844 0.1562 -0.4844 Q0.1562 -0.4375 0.1094 -0.4375 Q0.1094 -0.4219 0.1094 -0.4219 Q0.0625 -0.4219 0.0469 -0.4531 Q0.0469 -0.4688 0.0469 -0.4844 Q0.0469 -0.5625 0.1094 -0.6094 Q0.1562 -0.6719 0.2344 -0.6719 Q0.3438 -0.6719 0.4062 -0.5938 Q0.4375 -0.5469 0.4531 -0.4844 Q0.4531 -0.4844 0.4531 -0.4688 Q0.4531 -0.4062 0.3906 -0.3281 Q0.3594 -0.2969 0.2969 -0.25 L0.25 -0.1875 L0.2344 -0.1875 L0.125 -0.0781 L0.3125 -0.0781 Q0.3906 -0.0781 0.4062 -0.0781 Q0.4062 -0.0938 0.4219 -0.1719 L0.4531 -0.1719 Z"
    /></g
    ><g transform="matrix(10,0,0,10,0,-27) translate(2.2188,2.3765)" style="font-size:1; text-rendering:geometricPrecision; color-rendering:optimizeQuality; image-rendering:optimizeQuality; font-family:&apos;jlm_cmr10&apos;; color-interpolation:linearRGB;"
    ><path style="stroke:none;" d="M0.4062 -0.2344 L0.4062 0.0469 Q0.4062 0.0781 0.3906 0.0781 Q0.375 0.0781 0.375 0.0469 L0.375 -0.2344 L0.0938 -0.2344 Q0.0625 -0.2344 0.0625 -0.25 Q0.0625 -0.2656 0.0938 -0.2656 L0.375 -0.2656 L0.375 -0.5469 Q0.375 -0.5781 0.3906 -0.5781 Q0.4062 -0.5781 0.4062 -0.5469 L0.4062 -0.2656 L0.6875 -0.2656 Q0.7188 -0.2656 0.7188 -0.25 Q0.7188 -0.2344 0.6875 -0.2344 L0.4062 -0.2344 Z"
    /></g
    ><g transform="matrix(10,0,0,10,0,-27) translate(3.2188,2.3765)" style="font-size:1; text-rendering:geometricPrecision; color-rendering:optimizeQuality; image-rendering:optimizeQuality; font-family:&apos;jlm_cmr10&apos;; color-interpolation:linearRGB;"
    ><path style="stroke:none;" d="M0.4531 -0.1719 L0.4531 -0.1719 L0.4219 0 L0.0469 0 Q0.0469 -0.0312 0.0625 -0.0312 L0.0625 -0.0312 L0.25 -0.25 Q0.3594 -0.375 0.3594 -0.4688 Q0.3594 -0.5625 0.2969 -0.6094 L0.2969 -0.6094 L0.2969 -0.6094 Q0.2656 -0.6406 0.2188 -0.6406 Q0.1562 -0.6406 0.1094 -0.5781 Q0.0938 -0.5625 0.0938 -0.5312 Q0.0938 -0.5312 0.1094 -0.5312 Q0.1406 -0.5312 0.1562 -0.5 L0.1562 -0.5 Q0.1562 -0.4844 0.1562 -0.4844 Q0.1562 -0.4375 0.1094 -0.4375 Q0.1094 -0.4219 0.1094 -0.4219 Q0.0625 -0.4219 0.0469 -0.4531 Q0.0469 -0.4688 0.0469 -0.4844 Q0.0469 -0.5625 0.1094 -0.6094 Q0.1562 -0.6719 0.2344 -0.6719 Q0.3438 -0.6719 0.4062 -0.5938 Q0.4375 -0.5469 0.4531 -0.4844 Q0.4531 -0.4844 0.4531 -0.4688 Q0.4531 -0.4062 0.3906 -0.3281 Q0.3594 -0.2969 0.2969 -0.25 L0.25 -0.1875 L0.2344 -0.1875 L0.125 -0.0781 L0.3125 -0.0781 Q0.3906 -0.0781 0.4062 -0.0781 Q0.4062 -0.0938 0.4219 -0.1719 L0.4531 -0.1719 Z"
    /></g
    ><g transform="matrix(10,0,0,10,0,-27) translate(3.7188,2.3765)" style="font-size:1; text-rendering:geometricPrecision; color-rendering:optimizeQuality; image-rendering:optimizeQuality; font-family:&apos;jlm_cmr10&apos;; color-interpolation:linearRGB;"
    ><path style="stroke:none;" d="M0.4688 -0.6094 L0.3438 -0.4219 Q0.2969 -0.3594 0.2812 -0.25 Q0.2656 -0.1719 0.2656 -0.0781 L0.2656 -0.0312 Q0.2656 0.0156 0.2188 0.0156 Q0.1719 0.0156 0.1719 -0.0312 Q0.1719 -0.2031 0.2656 -0.375 L0.2969 -0.4062 L0.4062 -0.5625 L0.2031 -0.5625 Q0.1094 -0.5625 0.1094 -0.5625 Q0.0938 -0.5469 0.0781 -0.4688 L0.0625 -0.4688 L0.0938 -0.6719 L0.1094 -0.6719 Q0.125 -0.6562 0.125 -0.6562 L0.1406 -0.6562 L0.1406 -0.6562 Q0.1562 -0.6406 0.2344 -0.6406 L0.4844 -0.6406 Q0.4844 -0.625 0.4688 -0.6094 Z"
    /></g
    ><g transform="matrix(10,0,0,10,0,-27) translate(4.2188,2.3765)" style="font-size:1; text-rendering:geometricPrecision; color-rendering:optimizeQuality; image-rendering:optimizeQuality; font-family:&apos;jlm_cmmi10&apos;; color-interpolation:linearRGB;"
    ><path style="stroke:none;" d="M0.3906 -0.375 L0.3906 -0.375 Q0.375 -0.4219 0.2969 -0.4219 Q0.2188 -0.4219 0.1875 -0.3594 Q0.1875 -0.3438 0.1875 -0.3281 Q0.1875 -0.2969 0.2344 -0.2812 L0.2344 -0.2812 L0.2344 -0.2812 Q0.25 -0.2812 0.2656 -0.2656 Q0.3281 -0.25 0.3438 -0.2344 Q0.3594 -0.2344 0.3594 -0.2344 Q0.3906 -0.2031 0.3906 -0.1562 Q0.3906 -0.1094 0.3594 -0.0625 Q0.2969 0.0156 0.1875 0.0156 Q0.1094 0.0156 0.0625 -0.0469 Q0.0469 -0.0625 0.0469 -0.0938 Q0.0469 -0.1406 0.0938 -0.1562 Q0.0938 -0.1562 0.1094 -0.1562 Q0.1406 -0.1406 0.1406 -0.1094 Q0.1406 -0.0938 0.125 -0.0781 Q0.1094 -0.0625 0.0781 -0.0625 Q0.1094 -0.0156 0.2031 -0.0156 Q0.2969 -0.0156 0.3281 -0.0938 Q0.3438 -0.1094 0.3438 -0.125 Q0.3438 -0.1719 0.2812 -0.1875 L0.2812 -0.1875 L0.2812 -0.1875 Q0.2656 -0.1875 0.2344 -0.2031 Q0.1406 -0.2188 0.1406 -0.2812 Q0.125 -0.2812 0.125 -0.2969 Q0.125 -0.3438 0.1719 -0.3906 Q0.2188 -0.4375 0.2969 -0.4375 Q0.375 -0.4375 0.4062 -0.3906 Q0.4219 -0.375 0.4219 -0.3594 Q0.4219 -0.3125 0.3906 -0.2969 Q0.375 -0.2969 0.375 -0.2969 Q0.3438 -0.2969 0.3438 -0.3281 Q0.3438 -0.3594 0.375 -0.375 Q0.375 -0.375 0.3906 -0.375 Z"
    /></g
    ><g transform="matrix(10,0,0,10,0,-27) translate(4.9097,2.3765)" style="font-size:1; text-rendering:geometricPrecision; color-rendering:optimizeQuality; image-rendering:optimizeQuality; font-family:&apos;jlm_cmr10&apos;; color-interpolation:linearRGB;"
    ><path style="stroke:none;" d="M0.4062 -0.2344 L0.4062 0.0469 Q0.4062 0.0781 0.3906 0.0781 Q0.375 0.0781 0.375 0.0469 L0.375 -0.2344 L0.0938 -0.2344 Q0.0625 -0.2344 0.0625 -0.25 Q0.0625 -0.2656 0.0938 -0.2656 L0.375 -0.2656 L0.375 -0.5469 Q0.375 -0.5781 0.3906 -0.5781 Q0.4062 -0.5781 0.4062 -0.5469 L0.4062 -0.2656 L0.6875 -0.2656 Q0.7188 -0.2656 0.7188 -0.25 Q0.7188 -0.2344 0.6875 -0.2344 L0.4062 -0.2344 Z"
    /></g
    ><g transform="matrix(10,0,0,10,0,-27) translate(5.9097,2.3765)" style="font-size:1; text-rendering:geometricPrecision; color-rendering:optimizeQuality; image-rendering:optimizeQuality; font-family:&apos;jlm_cmr10&apos;; color-interpolation:linearRGB;"
    ><path style="stroke:none;" d="M0.4531 -0.1719 L0.4531 -0.1719 L0.4219 0 L0.0469 0 Q0.0469 -0.0312 0.0625 -0.0312 L0.0625 -0.0312 L0.25 -0.25 Q0.3594 -0.375 0.3594 -0.4688 Q0.3594 -0.5625 0.2969 -0.6094 L0.2969 -0.6094 L0.2969 -0.6094 Q0.2656 -0.6406 0.2188 -0.6406 Q0.1562 -0.6406 0.1094 -0.5781 Q0.0938 -0.5625 0.0938 -0.5312 Q0.0938 -0.5312 0.1094 -0.5312 Q0.1406 -0.5312 0.1562 -0.5 L0.1562 -0.5 Q0.1562 -0.4844 0.1562 -0.4844 Q0.1562 -0.4375 0.1094 -0.4375 Q0.1094 -0.4219 0.1094 -0.4219 Q0.0625 -0.4219 0.0469 -0.4531 Q0.0469 -0.4688 0.0469 -0.4844 Q0.0469 -0.5625 0.1094 -0.6094 Q0.1562 -0.6719 0.2344 -0.6719 Q0.3438 -0.6719 0.4062 -0.5938 Q0.4375 -0.5469 0.4531 -0.4844 Q0.4531 -0.4844 0.4531 -0.4688 Q0.4531 -0.4062 0.3906 -0.3281 Q0.3594 -0.2969 0.2969 -0.25 L0.25 -0.1875 L0.2344 -0.1875 L0.125 -0.0781 L0.3125 -0.0781 Q0.3906 -0.0781 0.4062 -0.0781 Q0.4062 -0.0938 0.4219 -0.1719 L0.4531 -0.1719 Z"
    /></g
    ><g transform="matrix(10,0,0,10,0,-27) translate(6.4097,2.3765)" style="font-size:1; text-rendering:geometricPrecision; color-rendering:optimizeQuality; image-rendering:optimizeQuality; font-family:&apos;jlm_cmr10&apos;; color-interpolation:linearRGB;"
    ><path style="stroke:none;" d="M0.4531 -0.1719 L0.4531 -0.1719 L0.4219 0 L0.0469 0 Q0.0469 -0.0312 0.0625 -0.0312 L0.0625 -0.0312 L0.25 -0.25 Q0.3594 -0.375 0.3594 -0.4688 Q0.3594 -0.5625 0.2969 -0.6094 L0.2969 -0.6094 L0.2969 -0.6094 Q0.2656 -0.6406 0.2188 -0.6406 Q0.1562 -0.6406 0.1094 -0.5781 Q0.0938 -0.5625 0.0938 -0.5312 Q0.0938 -0.5312 0.1094 -0.5312 Q0.1406 -0.5312 0.1562 -0.5 L0.1562 -0.5 Q0.1562 -0.4844 0.1562 -0.4844 Q0.1562 -0.4375 0.1094 -0.4375 Q0.1094 -0.4219 0.1094 -0.4219 Q0.0625 -0.4219 0.0469 -0.4531 Q0.0469 -0.4688 0.0469 -0.4844 Q0.0469 -0.5625 0.1094 -0.6094 Q0.1562 -0.6719 0.2344 -0.6719 Q0.3438 -0.6719 0.4062 -0.5938 Q0.4375 -0.5469 0.4531 -0.4844 Q0.4531 -0.4844 0.4531 -0.4688 Q0.4531 -0.4062 0.3906 -0.3281 Q0.3594 -0.2969 0.2969 -0.25 L0.25 -0.1875 L0.2344 -0.1875 L0.125 -0.0781 L0.3125 -0.0781 Q0.3906 -0.0781 0.4062 -0.0781 Q0.4062 -0.0938 0.4219 -0.1719 L0.4531 -0.1719 Z"
    /></g
    ><g transform="matrix(10,0,0,10,0,-27) translate(6.9097,2.3765)" style="font-size:1; text-rendering:geometricPrecision; color-rendering:optimizeQuality; image-rendering:optimizeQuality; font-family:&apos;jlm_cmr10&apos;; color-interpolation:linearRGB;"
    ><path style="stroke:none;" d="M0.4531 -0.2031 L0.4531 -0.2031 Q0.4531 -0.0938 0.375 -0.0312 Q0.3125 0.0156 0.2344 0.0156 Q0.1406 0.0156 0.0781 -0.0625 Q0.0469 -0.1094 0.0469 -0.1562 Q0.0469 -0.2031 0.0938 -0.2188 Q0.0938 -0.2188 0.0938 -0.2188 Q0.1406 -0.2188 0.1406 -0.1875 Q0.1562 -0.1719 0.1562 -0.1719 Q0.1562 -0.1406 0.125 -0.125 Q0.1094 -0.1094 0.0938 -0.1094 Q0.0938 -0.1094 0.0781 -0.125 Q0.0938 -0.0625 0.1562 -0.0312 Q0.1875 0 0.2344 0 Q0.2969 0 0.3438 -0.0781 Q0.3594 -0.1094 0.3594 -0.2031 Q0.3594 -0.2969 0.3438 -0.3281 Q0.3125 -0.3906 0.25 -0.3906 Q0.1719 -0.3906 0.125 -0.3281 Q0.125 -0.3125 0.1094 -0.3125 Q0.1094 -0.3125 0.0938 -0.3281 L0.0938 -0.3438 L0.0938 -0.6406 Q0.0938 -0.6562 0.1094 -0.6719 Q0.1094 -0.6719 0.125 -0.6562 Q0.1875 -0.6406 0.25 -0.6406 Q0.3281 -0.6406 0.3906 -0.6562 Q0.3906 -0.6719 0.4062 -0.6719 Q0.4062 -0.6719 0.4062 -0.6562 Q0.4062 -0.6406 0.375 -0.6094 Q0.3125 -0.5469 0.2188 -0.5469 Q0.1719 -0.5469 0.125 -0.5625 L0.125 -0.375 Q0.1875 -0.4219 0.2656 -0.4219 Q0.3438 -0.4219 0.4062 -0.3438 Q0.4531 -0.2812 0.4531 -0.2031 Z"
    /></g
  ></g
></g>
<polyline fill="none" stroke="#0000ff" stroke-width="0.5" points="379.487,102.08 402.438,102.08 425.388,102.08"/>
<polyline fill="none" stroke="#000000" stroke-width="0.5" points="379.487,72.0801 402.438,72.0801 425.388,72.0801"/>
<polyline fill="none" stroke="#000000" stroke-width="0.5" points="76.5,355.25 76.5,50.75"/>
<polyline fill="none" stroke="#000000" stroke-width="0.5" points="76.5,355.25 69.6147,355.25"/>
<polyline fill="none" stroke="#000000" stroke-width="0.5" points="76.5,304.5 69.6147,304.5"/>
<polyline fill="none" stroke="#000000" stroke-width="0.5" points="76.5,253.75 69.6147,253.75"/>
<polyline fill="none" stroke="#000000" stroke-width="0.5" points="76.5,203 69.6147,203"/>
<polyline fill="none" stroke="#000000" stroke-width="0.5" points="76.5,152.25 69.6147,152.25"/>
<polyline fill="none" stroke="#000000" stroke-width="0.5" points="76.5,101.5 69.6147,101.5"/>
<polyline fill="none" stroke="#000000" stroke-width="0.5" points="76.5,50.75 69.6147,50.75"/>
<text fill="#000000" style="stroke:none" x="50" y="360" transform="rotate(-0, 50, 360)" font-size="10" font-family="SansSerif" font-style="normal" font-weight="normal">-20</text>
<text fill="#000000" style="stroke:none" x="51" y="309" transform="rotate(-0, 51, 309)" font-size="10" font-family="SansSerif" font-style="normal" font-weight="normal">-15</text>
<text fill="#000000" style="stroke:none" x="50" y="259" transform="rotate(-0, 50, 259)" font-size="10" font-family="SansSerif" font-style="normal" font-weight="normal">-10</text>
<text fill="#000000" style="stroke:none" x="57" y="208" transform="rotate(-0, 57, 208)" font-size="10" font-family="SansSerif" font-style="normal" font-weight="normal">-5</text>
<text fill="#000000" style="stroke:none" x="60" y="157" transform="rotate(-0, 60, 157)" font-size="10" font-family="SansSerif" font-style="normal" font-weight="normal">0</text>
<text fill="#000000" style="stroke:none" x="61" y="106" transform="rotate(-0, 61, 106)" font-size="10" font-family="SansSerif" font-style="normal" font-weight="normal">5</text>
<text fill="#000000" style="stroke:none" x="55" y="56" transform="rotate(-0, 55, 56)" font-size="10" font-family="SansSerif" font-style="normal" font-weight="normal">10</text>
<polyline fill="none" stroke="#d3d3d3" stroke-width="0.5" stroke-dasharray="4,4,4,4" points="76.5,355.25 535.5,355.25 535.5,355.25"/>
<polyline fill="none" stroke="#d3d3d3" stroke-width="0.5" stroke-dasharray="4,4,4,4" points="76.5,304.5 535.5,304.5 535.5,304.5"/>
<polyline fill="none" stroke="#d3d3d3" stroke-width="0.5" stroke-dasharray="4,4,4,4" points="76.5,253.75 535.5,253.75 535.5,253.75"/>
<polyline fill="none" stroke="#d3d3d3" stroke-width="0.5" stroke-dasharray="4,4,4,4" points="76.5,203 535.5,203 535.5,203"/>
<polyline fill="none" stroke="#d3d3d3" stroke-width="0.5" stroke-dasharray="4,4,4,4" points="76.5,152.25 535.5,152.25 535.5,152.25"/>
<polyline fill="none" stroke="#d3d3d3" stroke-width="0.5" stroke-dasharray="4,4,4,4" points="76.5,101.5 535.5,101.5 535.5,101.5"/>
<polyline fill="none" stroke="#d3d3d3" stroke-width="0.5" stroke-dasharray="4,4,4,4" points="76.5,50.75 535.5,50.75 535.5,50.75"/>
<polyline fill="none" stroke="#000000" stroke-width="0.5" points="76.5,355.25 535.5,355.25"/>
<polyline fill="none" stroke="#000000" stroke-width="0.5" points="76.5,355.25 76.5,359.81"/>
<polyline fill="none" stroke="#000000" stroke-width="0.5" points="191.25,355.25 191.25,359.81"/>
<polyline fill="none" stroke="#000000" stroke-width="0.5" points="306,355.25 306,359.81"/>
<polyline fill="none" stroke="#000000" stroke-width="0.5" points="420.75,355.25 420.75,359.81"/>
<polyline fill="none" stroke="#000000" stroke-width="0.5" points="535.5,355.25 535.5,359.81"/>
<polyline fill="none" stroke="#000000" stroke-width="0.5" points="111.043,355.25 111.043,357.986"/>
<polyline fill="none" stroke="#000000" stroke-width="0.5" points="131.25,355.25 131.25,357.986"/>
<polyline fill="none" stroke="#000000" stroke-width="0.5" points="145.586,355.25 145.586,357.986"/>
<polyline fill="none" stroke="#000000" stroke-width="0.5" points="156.707,355.25 156.707,357.986"/>
<polyline fill="none" stroke="#000000" stroke-width="0.5" points="165.793,355.25 165.793,357.986"/>
<polyline fill="none" stroke="#000000" stroke-width="0.5" points="173.475,355.25 173.475,357.986"/>
<polyline fill="none" stroke="#000000" stroke-width="0.5" points="180.129,355.25 180.129,357.986"/>
<polyline fill="none" stroke="#000000" stroke-width="0.5" points="186,355.25 186,357.986"/>
<polyline fill="none" stroke="#000000" stroke-width="0.5" points="225.793,355.25 225.793,357.986"/>
<polyline fill="none" stroke="#000000" stroke-width="0.5" points="246,355.25 246,357.986"/>
<polyline fill="none" stroke="#000000" stroke-width="0.5" points="260.336,355.25 260.336,357.986"/>
<polyline fill="none" stroke="#000000" stroke-width="0.5" points="271.457,355.25 271.457,357.986"/>
<polyline fill="none" stroke="#000000" stroke-width="0.5" points="280.543,355.25 280.543,357.986"/>
<polyline fill="none" stroke="#000000" stroke-width="0.5" points="288.225,355.25 288.225,357.986"/>
<polyline fill="none" stroke="#000000" stroke-width="0.5" points="294.879,355.25 294.879,357.986"/>
<polyline fill="none" stroke="#000000" stroke-width="0.5" points="300.75,355.25 300.75,357.986"/>
<polyline fill="none" stroke="#000000" stroke-width="0.5" points="340.543,355.25 340.543,357.986"/>
<polyline fill="none" stroke="#000000" stroke-width="0.5" points="360.75,355.25 360.75,357.986"/>
<polyline fill="none" stroke="#000000" stroke-width="0.5" points="375.086,355.25 375.086,357.986"/>
<polyline fill="none" stroke="#000000" stroke-width="0.5" points="386.207,355.25 386.207,357.986"/>
<polyline fill="none" stroke="#000000" stroke-width="0.5" points="395.293,355.25 395.293,357.986"/>
<polyline fill="none" stroke="#000000" stroke-width="0.5" points="402.975,355.25 402.975,357.986"/>
<polyline fill="none" stroke="#000000" stroke-width="0.5" points="409.629,355.25 409.629,357.986"/>
<polyline fill="none" stroke="#000000" stroke-width="0.5" points="415.5,355.25 415.5,357.986"/>
<polyline fill="none" stroke="#000000" stroke-width="0.5" points="455.293,355.25 455.293,357.986"/>
<polyline fill="none" stroke="#000000" stroke-width="0.5" points="475.5,355.25 475.5,357.986"/>
<polyline fill="none" stroke="#000000" stroke-width="0.5" points="489.836,355.25 489.836,357.986"/>
<polyline fill="none" stroke="#000000" stroke-width="0.5" points="500.957,355.25 500.957,357.986"/>
<polyline fill="none" stroke="#000000" stroke-width="0.5" points="510.043,355.25 510.043,357.986"/>
<polyline fill="none" stroke="#000000" stroke-width="0.5" points="517.725,355.25 517.725,357.986"/>
<polyline fill="none" stroke="#000000" stroke-width="0.5" points="524.379,355.25 524.379,357.986"/>
<polyline fill="none" stroke="#000000" stroke-width="0.5" points="530.25,355.25 530.25,357.986"/>
<text fill="#000000" style="stroke:none" x="64" y="379" transform="rotate(-0, 64, 379)" font-size="10" font-family="SansSerif" font-style="normal" font-weight="normal">10</text>
<text fill="#000000" style="stroke:none" x="179" y="379" transform="rotate(-0, 179, 379)" font-size="10" font-family="SansSerif" font-style="normal" font-weight="normal">10</text>
<text fill="#000000" style="stroke:none" x="294" y="379" transform="rotate(-0, 294, 379)" font-size="10" font-family="SansSerif" font-style="normal" font-weight="normal">10</text>
<text fill="#000000" style="stroke:none" x="408" y="379" transform="rotate(-0, 408, 379)" font-size="10" font-family="SansSerif" font-style="normal" font-weight="normal">10</text>
<text fill="#000000" style="stroke:none" x="523" y="379" transform="rotate(-0, 523, 379)" font-size="10" font-family="SansSerif" font-style="normal" font-weight="normal">10</text>
<text fill="#000000" style="stroke:none" x="77" y="369" transform="rotate(-0, 77, 369)" font-size="9" font-family="SansSerif" font-style="normal" font-weight="normal">-2</text>
<text fill="#000000" style="stroke:none" x="192" y="369" transform="rotate(-0, 192, 369)" font-size="9" font-family="SansSerif" font-style="normal" font-weight="normal">-1</text>
<text fill="#000000" style="stroke:none" x="307" y="369" transform="rotate(-0, 307, 369)" font-size="9" font-family="SansSerif" font-style="normal" font-weight="normal">0</text>
<text fill="#000000" style="stroke:none" x="421" y="369" transform="rotate(-0, 421, 369)" font-size="9" font-family="SansSerif" font-style="normal" font-weight="normal">1</text>
<text fill="#000000" style="stroke:none" x="536" y="369" transform="rotate(-0, 536, 369)" font-size="9" font-family="SansSerif" font-style="normal" font-weight="normal">2</text>
<polyline fill="none" stroke="#d3d3d3" stroke-width="0.5" stroke-dasharray="4,4,4,4" points="76.5,355.25 76.5,50.75 76.5,50.75"/>
<polyline fill="none" stroke="#d3d3d3" stroke-width="0.5" stroke-dasharray="4,4,4,4" points="191.25,355.25 191.25,50.75 191.25,50.75"/>
<polyline fill="none" stroke="#d3d3d3" stroke-width="0.5" stroke-dasharray="4,4,4,4" points="306,355.25 306,50.75 306,50.75"/>
<polyline fill="none" stroke="#d3d3d3" stroke-width="0.5" stroke-dasharray="4,4,4,4" points="420.75,355.25 420.75,50.75 420.75,50.75"/>
<polyline fill="none" stroke="#d3d3d3" stroke-width="0.5" stroke-dasharray="4,4,4,4" points="535.5,355.25 535.5,50.75 535.5,50.75"/>
<polyline fill="none" stroke="#d3d3d3" stroke-width="0.5" stroke-dasharray="4,4,4,4" points="111.043,355.25 111.043,50.75 111.043,50.75"/>
<polyline fill="none" stroke="#d3d3d3" stroke-width="0.5" stroke-dasharray="4,4,4,4" points="131.25,355.25 131.25,50.75 131.25,50.75"/>
<polyline fill="none" stroke="#d3d3d3" stroke-width="0.5" stroke-dasharray="4,4,4,4" points="145.586,355.25 145.586,50.75 145.586,50.75"/>
<polyline fill="none" stroke="#d3d3d3" stroke-width="0.5" stroke-dasharray="4,4,4,4" points="156.707,355.25 156.707,50.75 156.707,50.75"/>
<polyline fill="none" stroke="#d3d3d3" stroke-width="0.5" stroke-dasharray="4,4,4,4" points="165.793,355.25 165.793,50.75 165.793,50.75"/>
<polyline fill="none" stroke="#d3d3d3" stroke-width="0.5" stroke-dasharray="4,4,4,4" points="173.475,355.25 173.475,50.75 173.475,50.75"/>
<polyline fill="none" stroke="#d3d3d3" stroke-width="0.5" stroke-dasharray="4,4,4,4" points="180.129,355.25 180.129,50.75 180.129,50.75"/>
<polyline fill="none" stroke="#d3d3d3" stroke-width="0.5" stroke-dasharray="4,4,4,4" points="186,355.25 186,50.75 186,50.75"/>
<polyline fill="none" stroke="#d3d3d3" stroke-width="0.5" stroke-dasharray="4,4,4,4" points="225.793,355.25 225.793,50.75 225.793,50.75"/>
<polyline fill="none" stroke="#d3d3d3" stroke-width="0.5" stroke-dasharray="4,4,4,4" points="246,355.25 246,50.75 246,50.75"/>
<polyline fill="none" stroke="#d3d3d3" stroke-width="0.5" stroke-dasharray="4,4,4,4" points="260.336,355.25 260.336,50.75 260.336,50.75"/>
<polyline fill="none" stroke="#d3d3d3" stroke-width="0.5" stroke-dasharray="4,4,4,4" points="271.457,355.25 271.457,50.75 271.457,50.75"/>
<polyline fill="none" stroke="#d3d3d3" stroke-width="0.5" stroke-dasharray="4,4,4,4" points="280.543,355.25 280.543,50.75 280.543,50.75"/>
<polyline fill="none" stroke="#d3d3d3" stroke-width="0.5" stroke-dasharray="4,4,4,4" points="288.225,355.25 288.225,50.75 288.225,50.75"/>
<polyline fill="none" stroke="#d3d3d3" stroke-width="0.5" stroke-dasharray="4,4,4,4" points="294.879,355.25 294.879,50.75 294.879,50.75"/>
<polyline fill="none" stroke="#d3d3d3" stroke-width="0.5" stroke-dasharray="4,4,4,4" points="300.75,355.25 300.75,50.75 300.75,50.75"/>
<polyline fill="none" stroke="#d3d3d3" stroke-width="0.5" stroke-dasharray="4,4,4,4" points="340.543,355.25 340.543,50.75 340.543,50.75"/>
<polyline fill="none" stroke="#d3d3d3" stroke-width="0.5" stroke-dasharray="4,4,4,4" points="360.75,355.25 360.75,50.75 360.75,50.75"/>
<polyline fill="none" stroke="#d3d3d3" stroke-width="0.5" stroke-dasharray="4,4,4,4" points="375.086,355.25 375.086,50.75 375.086,50.75"/>
<polyline fill="none" stroke="#d3d3d3" stroke-width="0.5" stroke-dasharray="4,4,4,4" points="386.207,355.25 386.207,50.75 386.207,50.75"/>
<polyline fill="none" stroke="#d3d3d3" stroke-width="0.5" stroke-dasharray="4,4,4,4" points="395.293,355.25 395.293,50.75 395.293,50.75"/>
<polyline fill="none" stroke="#d3d3d3" stroke-width="0.5" stroke-dasharray="4,4,4,4" points="402.975,355.25 402.975,50.75 402.975,50.75"/>
<polyline fill="none" stroke="#d3d3d3" stroke-width="0.5" stroke-dasharray="4,4,4,4" points="409.629,355.25 409.629,50.75 409.629,50.75"/>
<polyline fill="none" stroke="#d3d3d3" stroke-width="0.5" stroke-dasharray="4,4,4,4" points="415.5,355.25 415.5,50.75 415.5,50.75"/>
<polyline fill="none" stroke="#d3d3d3" stroke-width="0.5" stroke-dasharray="4,4,4,4" points="455.293,355.25 455.293,50.75 455.293,50.75"/>
<polyline fill="none" stroke="#d3d3d3" stroke-width="0.5" stroke-dasharray="4,4,4,4" points="475.5,355.25 475.5,50.75 475.5,50.75"/>
<polyline fill="none" stroke="#d3d3d3" stroke-width="0.5" stroke-dasharray="4,4,4,4" points="489.836,355.25 489.836,50.75 489.836,50.75"/>
<polyline fill="none" stroke="#d3d3d3" stroke-width="0.5" stroke-dasharray="4,4,4,4" points="500.957,355.25 500.957,50.75 500.957,50.75"/>
<polyline fill="none" stroke="#d3d3d3" stroke-width="0.5" stroke-dasharray="4,4,4,4" points="510.043,355.25 510.043,50.75 510.043,50.75"/>
<polyline fill="none" stroke="#d3d3d3" stroke-width="0.5" stroke-dasharray="4,4,4,4" points="517.725,355.25 517.725,50.75 517.725,50.75"/>
<polyline fill="none" stroke="#d3d3d3" stroke-width="0.5" stroke-dasharray="4,4,4,4" points="524.379,355.25 524.379,50.75 524.379,50.75"/>
<polyline fill="none" stroke="#d3d3d3" stroke-width="0.5" stroke-dasharray="4,4,4,4" points="530.25,355.25 530.25,50.75 530.25,50.75"/>
<text fill="#000000" style="stroke:none" x="283" y="42" transform="rotate(0, 283, 42)" font-size="10" font-family="SansSerif" font-style="normal" font-weight="normal">Gainplot</text>
<text fill="#000000" style="stroke:none" x="265" y="396" transform="rotate(0, 265, 396)" font-size="10" font-family="SansSerif" font-style="normal" font-weight="normal">Frequence (Hz)</text>
<text fill="#000000" style="stroke:none" x="43" y="244" transform="rotate(270, 43, 244)" font-size="10" font-family="SansSerif" font-style="normal" font-weight="normal">Magnitude (dB)</text>
</g>
</svg>
