<?xml version="1.0" encoding="UTF-8" standalone="no"?>
<svg xmlns="http://www.w3.org/2000/svg"
     xmlns:xlink="http://www.w3.org/1999/xlink"
     width="612px" height="461px" viewBox="0 0 612 461"
     style="stroke:none">
<title>Graphic window number 0</title>
<desc>
Creator: GL2PS 1.3.2, (C) 1999-2006 Christophe Geuzaine (geuz@geuz.org)
For: Scilab
CreationDate: Thu Apr 15 13:50:44 2010
</desc>
<defs>
</defs>
<polygon fill="#ffffff" points="0,0 612,0 612,461 0,461"/>
<g>
<polyline fill="none" stroke="#000000" stroke-width="0.5" points="76.5,403.375 76.5,57.625 76.5,57.625 535.5,57.625 535.5,403.375 535.5,403.375 76.5,403.375"/>
<polyline fill="none" stroke="#000000" stroke-width="0.5" points="535.5,57.625 76.5,57.625"/>
<polyline fill="none" stroke="#000000" stroke-width="0.5" points="535.5,57.625 535.5,403.375"/>
<polyline fill="none" stroke="#000000" stroke-width="0.5" points="535.5,57.625 535.5,57.625"/>
<polygon fill="#ffffff" points="76.5,403.375 76.5,57.625 76.5,57.625"/>
<polygon fill="#ffffff" points="76.5,403.375 76.5,57.625 76.5,403.375"/>
<polygon fill="#ffffff" points="76.5,403.375 535.5,403.375 535.5,403.375"/>
<polygon fill="#ffffff" points="76.5,403.375 535.5,403.375 76.5,403.375"/>
<polygon fill="#ffffff" points="76.5,403.375 535.5,403.375 535.5,57.625"/>
<polygon fill="#ffffff" points="76.5,403.375 535.5,57.625 76.5,57.625"/>
<polyline fill="none" stroke="#87ceff" stroke-width="0.5" stroke-dasharray="1,1,1,1,1,1,1,1,1,1" points="338.786,230.5 338.77,229.136 338.72,227.772 338.639,226.413 338.524,225.056 338.378,223.706 338.199,222.361 337.988,221.025 337.746,219.699 337.471,218.383 337.165,217.08 336.828,215.79 336.46,214.514 336.062,213.254 335.634,212.012 335.177,210.788 334.69,209.583 334.175,208.4 333.632,207.239 333.061,206.101 332.463,204.986 331.839,203.898 331.189,202.836 330.514,201.801 329.814,200.795 329.091,199.819 328.345,198.874 327.577,197.959 326.787,197.078 325.976,196.229 325.145,195.416 324.295,194.636 323.427,193.893 322.542,193.186 321.64,192.516 320.723,191.884 319.791,191.291 318.845,190.736 317.886,190.222 316.916,189.747 315.934,189.313 314.943,188.92 313.943,188.569 312.935,188.259 311.919,187.992 310.898,187.767 309.873,187.584 308.843,187.444 307.811,187.347 306.776,187.293 305.741,187.283 304.707,187.315 303.673,187.39 302.642,187.509 301.614,187.67 300.59,187.874 299.572,188.12 298.561,188.409 297.556,188.739 296.56,189.111 295.574,189.525 294.598,189.979 293.633,190.474 292.681,191.008 291.742,191.583 290.816,192.195 289.907,192.846 289.013,193.535 288.136,194.26 287.277,195.021 286.437,195.818 285.616,196.649 284.816,197.515 284.037,198.413 283.279,199.343 282.544,200.304 281.833,201.295 281.146,202.315 280.483,203.363 279.846,204.439 279.234,205.54 278.65,206.667 278.093,207.816 277.563,208.989 277.062,210.183 276.591,211.397 276.148,212.631 275.735,213.882 275.352,215.15 275,216.433 274.678,217.73 274.388,219.04 274.129,220.361 273.902,221.692 273.708,223.033 273.544,224.38 273.414,225.734 273.316,227.092 273.251,228.454 273.218,229.818 273.218,231.182 273.251,232.546 273.316,233.908 273.414,235.266 273.544,236.62 273.708,237.967 273.902,239.308 274.129,240.639 274.388,241.96 274.678,243.27 275,244.567 275.352,245.85 275.735,247.118 276.148,248.369 276.591,249.603 277.062,250.817 277.563,252.011 278.093,253.184 278.65,254.333 279.234,255.46 279.846,256.561 280.483,257.637 281.146,258.685 281.833,259.705 282.544,260.696 283.279,261.657 284.037,262.587 284.816,263.485 285.616,264.351 286.437,265.182 287.277,265.979 288.136,266.74 289.013,267.465 289.907,268.154 290.816,268.805 291.742,269.417 292.681,269.992 293.633,270.526 294.598,271.021 295.574,271.475 296.56,271.889 297.556,272.261 298.561,272.591 299.572,272.88 300.59,273.126 301.614,273.33 302.642,273.491 303.673,273.61 304.707,273.685 305.741,273.717 306.776,273.707 307.811,273.653 308.843,273.556 309.873,273.416 310.898,273.233 311.919,273.008 312.935,272.741 313.943,272.431 314.943,272.08 315.934,271.687 316.916,271.253 317.886,270.778 318.845,270.264 319.791,269.709 320.723,269.116 321.64,268.484 322.542,267.814 323.427,267.107 324.295,266.364 325.145,265.584 325.976,264.771 326.787,263.922 327.577,263.041 328.345,262.126 329.091,261.181 329.814,260.205 330.514,259.199 331.189,258.164 331.839,257.102 332.463,256.014 333.061,254.899 333.632,253.761 334.175,252.6 334.69,251.417 335.177,250.212 335.634,248.988 336.062,247.746 336.46,246.486 336.828,245.21 337.165,243.92 337.471,242.617 337.746,241.301 337.988,239.975 338.199,238.639 338.378,237.294 338.524,235.944 338.639,234.587 338.72,233.228 338.77,231.864 338.786,230.5"/>
<polyline fill="none" stroke="#87ceff" stroke-width="0.5" stroke-dasharray="1,1,1,1,1,1,1,1,1,1" points="343.858,205.548 343.839,203.972 343.782,202.398 343.688,200.828 343.556,199.262 343.387,197.702 343.18,196.15 342.937,194.607 342.656,193.076 342.339,191.557 341.986,190.051 341.597,188.562 341.173,187.089 340.713,185.634 340.219,184.2 339.69,182.786 339.129,181.396 338.534,180.029 337.907,178.688 337.248,177.374 336.557,176.087 335.836,174.83 335.086,173.604 334.306,172.409 333.499,171.248 332.664,170.121 331.802,169.029 330.915,167.973 330.002,166.955 329.066,165.976 328.107,165.036 327.125,164.136 326.124,163.277 325.101,162.461 324.06,161.688 323,160.958 321.924,160.272 320.832,159.632 319.725,159.038 318.604,158.49 317.471,157.989 316.327,157.535 315.171,157.129 314.007,156.772 312.835,156.463 311.656,156.203 310.472,155.992 309.283,155.831 308.091,155.719 306.896,155.657 305.701,155.645 304.506,155.682 303.313,155.769 302.122,155.905 300.935,156.092 299.753,156.327 298.578,156.611 297.41,156.945 296.25,157.327 295.1,157.756 293.961,158.234 292.834,158.758 291.72,159.33 290.62,159.947 289.536,160.609 288.468,161.317 287.417,162.069 286.385,162.864 285.373,163.701 284.381,164.581 283.411,165.5 282.463,166.46 281.539,167.459 280.639,168.497 279.764,169.57 278.916,170.68 278.094,171.824 277.3,173.002 276.535,174.213 275.799,175.455 275.094,176.727 274.419,178.027 273.776,179.355 273.165,180.709 272.586,182.088 272.041,183.49 271.53,184.914 271.053,186.359 270.611,187.823 270.204,189.304 269.833,190.802 269.498,192.314 269.199,193.84 268.937,195.377 268.712,196.925 268.524,198.481 268.373,200.044 268.26,201.612 268.185,203.185 268.147,204.76 268.147,206.335 268.185,207.91 268.26,209.483 268.373,211.051 268.524,212.614 268.712,214.17 268.937,215.718 269.199,217.255 269.498,218.781 269.833,220.293 270.204,221.791 270.611,223.272 271.053,224.736 271.53,226.181 272.041,227.605 272.586,229.007 273.165,230.386 273.776,231.74 274.419,233.068 275.094,234.369 275.799,235.641 276.535,236.882 277.3,238.093 278.094,239.271 278.916,240.416 279.764,241.525 280.639,242.599 281.539,243.636 282.463,244.635 283.411,245.595 284.381,246.515 285.373,247.394 286.385,248.231 287.417,249.026 288.468,249.778 289.536,250.486 290.62,251.148 291.72,251.766 292.834,252.337 293.961,252.862 295.1,253.339 296.25,253.769 297.41,254.15 298.578,254.484 299.753,254.768 300.935,255.004 302.122,255.19 303.313,255.327 304.506,255.414 305.701,255.451 306.896,255.438 308.091,255.376 309.283,255.264 310.472,255.103 311.656,254.892 312.835,254.632 314.007,254.323 315.171,253.966 316.327,253.56 317.471,253.106 318.604,252.605 319.725,252.057 320.832,251.463 321.924,250.823 323,250.138 324.06,249.408 325.101,248.634 326.124,247.818 327.125,246.959 328.107,246.06 329.066,245.12 330.002,244.14 330.915,243.122 331.802,242.066 332.664,240.975 333.499,239.847 334.306,238.686 335.086,237.492 335.836,236.265 336.557,235.008 337.248,233.722 337.907,232.408 338.534,231.066 339.129,229.7 339.69,228.309 340.219,226.896 340.713,225.461 341.173,224.007 341.597,222.534 341.986,221.044 342.339,219.539 342.656,218.02 342.937,216.488 343.18,214.945 343.387,213.394 343.556,211.833 343.688,210.268 343.782,208.697 343.839,207.123 343.858,205.548"/>
<polyline fill="none" stroke="#87ceff" stroke-width="0.5" stroke-dasharray="1,1,1,1,1,1,1,1,1,1" points="352.366,187.281 352.343,185.352 352.273,183.424 352.158,181.5 351.997,179.583 351.79,177.672 351.537,175.771 351.238,173.882 350.895,172.006 350.506,170.146 350.074,168.302 349.598,166.478 349.078,164.674 348.515,162.892 347.91,161.135 347.262,159.404 346.574,157.701 345.846,156.027 345.077,154.385 344.27,152.775 343.425,151.2 342.542,149.66 341.623,148.158 340.668,146.695 339.679,145.273 338.656,143.892 337.601,142.555 336.514,141.262 335.396,140.015 334.25,138.815 333.075,137.664 331.874,136.562 330.646,135.511 329.394,134.511 328.119,133.563 326.821,132.67 325.503,131.831 324.166,131.047 322.81,130.319 321.437,129.648 320.049,129.034 318.647,128.479 317.233,127.981 315.807,127.543 314.372,127.165 312.928,126.847 311.477,126.589 310.021,126.391 308.561,126.254 307.098,126.178 305.634,126.163 304.17,126.208 302.709,126.315 301.25,126.482 299.797,126.71 298.35,126.999 296.91,127.347 295.479,127.755 294.059,128.223 292.65,128.749 291.255,129.333 289.875,129.976 288.51,130.676 287.164,131.432 285.835,132.244 284.527,133.11 283.241,134.031 281.977,135.004 280.737,136.03 279.522,137.107 278.334,138.234 277.173,139.41 276.041,140.633 274.939,141.903 273.868,143.218 272.829,144.577 271.822,145.979 270.85,147.422 269.913,148.904 269.012,150.425 268.148,151.983 267.321,153.576 266.534,155.202 265.785,156.86 265.077,158.549 264.409,160.267 263.783,162.011 263.199,163.78 262.657,165.573 262.159,167.387 261.704,169.222 261.294,171.074 260.928,172.942 260.607,174.825 260.332,176.721 260.101,178.626 259.917,180.541 259.778,182.462 259.686,184.388 259.64,186.316 259.64,188.246 259.686,190.175 259.778,192.101 259.917,194.022 260.101,195.936 260.332,197.842 260.607,199.737 260.928,201.62 261.294,203.488 261.704,205.341 262.159,207.175 262.657,208.99 263.199,210.782 263.783,212.552 264.409,214.296 265.077,216.014 265.785,217.702 266.534,219.36 267.321,220.987 268.148,222.58 269.012,224.137 269.913,225.658 270.85,227.141 271.822,228.583 272.829,229.985 273.868,231.344 274.939,232.66 276.041,233.93 277.173,235.153 278.334,236.329 279.522,237.456 280.737,238.533 281.977,239.558 283.241,240.532 284.527,241.453 285.835,242.319 287.164,243.131 288.51,243.887 289.875,244.586 291.255,245.229 292.65,245.813 294.059,246.34 295.479,246.808 296.91,247.216 298.35,247.564 299.797,247.853 301.25,248.08 302.709,248.248 304.17,248.354 305.634,248.4 307.098,248.385 308.561,248.309 310.021,248.171 311.477,247.974 312.928,247.716 314.372,247.397 315.807,247.019 317.233,246.581 318.647,246.084 320.049,245.528 321.437,244.915 322.81,244.244 324.166,243.516 325.503,242.732 326.821,241.893 328.119,240.999 329.394,240.052 330.646,239.052 331.874,238 333.075,236.898 334.25,235.747 335.396,234.547 336.514,233.3 337.601,232.007 338.656,230.67 339.679,229.29 340.668,227.867 341.623,226.404 342.542,224.902 343.425,223.363 344.27,221.788 345.077,220.178 345.846,218.535 346.574,216.861 347.262,215.158 347.91,213.427 348.515,211.67 349.078,209.889 349.598,208.085 350.074,206.26 350.506,204.417 350.895,202.556 351.238,200.68 351.537,198.791 351.79,196.89 351.997,194.98 352.158,193.062 352.273,191.138 352.343,189.211 352.366,187.281"/>
<polyline fill="none" stroke="#87ceff" stroke-width="0.5" stroke-dasharray="1,1,1,1,1,1,1,1,1,1" points="371.571,155.643 371.539,152.914 371.441,150.188 371.277,147.468 371.049,144.755 370.756,142.054 370.398,139.366 369.977,136.694 369.491,134.041 368.942,131.41 368.33,128.803 367.656,126.222 366.921,123.671 366.125,121.152 365.269,118.667 364.354,116.219 363.381,113.81 362.35,111.443 361.264,109.12 360.122,106.844 358.926,104.616 357.678,102.438 356.378,100.314 355.028,98.2456 353.629,96.2339 352.183,94.2817 350.69,92.3901 349.153,90.562 347.573,88.7988 345.952,87.1021 344.29,85.4736 342.591,83.915 340.855,82.4282 339.084,81.0142 337.28,79.6748 335.445,78.4111 333.582,77.2241 331.689,76.1152 329.772,75.0859 327.831,74.1367 325.869,73.269 323.886,72.4834 321.885,71.7803 319.869,71.1611 317.839,70.626 315.797,70.1758 313.746,69.8105 311.687,69.5312 309.621,69.3374 307.553,69.2295 305.482,69.208 303.413,69.2729 301.346,69.4233 299.283,69.6602 297.228,69.9824 295.181,70.3901 293.144,70.8828 291.121,71.4604 289.112,72.1216 287.121,72.8657 285.147,73.6929 283.195,74.6011 281.266,75.5908 279.361,76.6597 277.483,77.8076 275.633,79.0332 273.814,80.335 272.026,81.7119 270.273,83.1626 268.555,84.6855 266.874,86.2793 265.232,87.9419 263.632,89.6724 262.073,91.4683 260.558,93.3281 259.088,95.2505 257.666,97.2324 256.291,99.2729 254.965,101.37 253.691,103.521 252.469,105.724 251.3,107.976 250.186,110.276 249.127,112.621 248.125,115.009 247.181,117.438 246.295,119.905 245.47,122.407 244.704,124.943 243.999,127.509 243.356,130.103 242.776,132.723 242.258,135.365 241.805,138.028 241.415,140.708 241.089,143.403 240.829,146.11 240.633,148.827 240.502,151.551 240.437,154.278 240.437,157.007 240.502,159.735 240.633,162.459 240.829,165.176 241.089,167.883 241.415,170.578 241.805,173.258 242.258,175.921 242.776,178.563 243.356,181.183 243.999,183.777 244.704,186.343 245.47,188.878 246.295,191.381 247.181,193.848 248.125,196.276 249.127,198.665 250.186,201.01 251.3,203.31 252.469,205.562 253.691,207.765 254.965,209.916 256.291,212.013 257.666,214.053 259.088,216.036 260.558,217.958 262.073,219.817 263.632,221.614 265.232,223.344 266.874,225.007 268.555,226.6 270.273,228.123 272.026,229.574 273.814,230.951 275.633,232.252 277.483,233.478 279.361,234.626 281.266,235.695 283.195,236.685 285.147,237.593 287.121,238.42 289.112,239.165 291.121,239.826 293.144,240.403 295.181,240.896 297.228,241.303 299.283,241.626 301.346,241.862 303.413,242.013 305.482,242.078 307.553,242.056 309.621,241.949 311.687,241.755 313.746,241.475 315.797,241.11 317.839,240.66 319.869,240.125 321.885,239.505 323.886,238.803 325.869,238.017 327.831,237.149 329.772,236.2 331.689,235.17 333.582,234.062 335.445,232.875 337.28,231.611 339.084,230.271 340.855,228.857 342.591,227.371 344.29,225.812 345.952,224.184 347.573,222.487 349.153,220.724 350.69,218.896 352.183,217.004 353.629,215.052 355.028,213.04 356.378,210.971 357.678,208.847 358.926,206.67 360.122,204.442 361.264,202.166 362.35,199.843 363.381,197.476 364.354,195.067 365.269,192.619 366.125,190.134 366.921,187.615 367.656,185.064 368.33,182.483 368.942,179.876 369.491,177.245 369.977,174.592 370.398,171.92 370.756,169.232 371.049,166.531 371.277,163.818 371.441,161.098 371.539,158.372 371.571,155.643"/>
<polyline fill="none" stroke="#87ceff" stroke-width="0.5" stroke-dasharray="1,1,1,1,1,1,1,1,1,1" points="432.674,69.2056 432.611,63.9341 432.422,58.668 432.359,57.6216"/>
<polyline fill="none" stroke="#87ceff" stroke-width="0.5" stroke-dasharray="1,1,1,1,1,1,1,1,1,1" points="179.644,57.6216 179.468,61.2998 179.341,66.5693 179.341,71.8413 179.468,77.1108 179.72,82.3726 180.099,87.6211 180.602,92.8511 181.231,98.0576 181.984,103.235 182.861,108.379 183.86,113.484 184.981,118.545 186.224,123.556 187.585,128.514 189.064,133.412 190.66,138.246 192.371,143.012 194.195,147.703 196.13,152.317 198.176,156.848 200.328,161.291 202.586,165.643 204.947,169.898 207.409,174.053 209.969,178.104 212.625,182.045 215.374,185.875 218.213,189.588 221.139,193.181 224.15,196.651 227.244,199.994 230.415,203.206 233.662,206.285 236.98,209.227 240.368,212.029 243.821,214.689 247.336,217.204 250.91,219.571 254.538,221.789 258.218,223.854 261.945,225.766 265.716,227.521 269.527,229.119 273.375,230.557 277.255,231.834 281.165,232.949 285.098,233.901 289.053,234.688 293.024,235.312 297.008,235.769 301.002,236.06 305,236.185 309,236.143 312.996,235.935 316.985,235.561 320.963,235.021 324.927,234.315 328.872,233.445 332.793,232.412 336.688,231.215 340.553,229.858 344.383,228.34 348.175,226.663 351.924,224.83 355.628,222.841 359.283,220.699 362.884,218.406 366.429,215.965 369.914,213.377 373.334,210.645 376.688,207.772 379.971,204.762 383.181,201.616 386.313,198.338 389.365,194.932 392.335,191.4 395.218,187.747 398.012,183.975 400.715,180.088 403.323,176.091 405.834,171.988 408.246,167.782 410.556,163.479 412.761,159.081 414.86,154.593 416.851,150.02 418.731,145.367 420.499,140.638 422.152,135.837 423.69,130.971 425.111,126.042 426.413,121.057 427.594,116.021 428.655,110.937 429.593,105.812 430.408,100.65 431.099,95.4575 431.666,90.2388 432.106,84.999 432.422,79.7432 432.611,74.4771 432.674,69.2056"/>
<polyline fill="none" stroke="#87ceff" stroke-width="0.5" stroke-dasharray="1,1,1,1,1,1,1,1,1,1" points="179.326,391.794 179.389,397.066 179.578,402.332 179.641,403.378"/>
<polyline fill="none" stroke="#87ceff" stroke-width="0.5" stroke-dasharray="1,1,1,1,1,1,1,1,1,1" points="432.356,403.378 432.532,399.7 432.659,394.431 432.659,389.159 432.532,383.889 432.28,378.627 431.901,373.379 431.398,368.149 430.769,362.942 430.016,357.765 429.139,352.621 428.14,347.516 427.019,342.455 425.776,337.444 424.415,332.486 422.936,327.588 421.34,322.754 419.629,317.988 417.805,313.297 415.87,308.683 413.824,304.152 411.672,299.709 409.414,295.357 407.053,291.102 404.591,286.947 402.031,282.896 399.375,278.955 396.626,275.125 393.787,271.412 390.861,267.819 387.85,264.349 384.756,261.006 381.585,257.794 378.338,254.715 375.02,251.773 371.632,248.971 368.179,246.311 364.664,243.796 361.09,241.429 357.462,239.211 353.782,237.146 350.055,235.234 346.284,233.479 342.473,231.881 338.625,230.443 334.745,229.166 330.835,228.051 326.902,227.099 322.947,226.312 318.976,225.688 314.992,225.231 310.998,224.94 307,224.815 303,224.857 299.004,225.065 295.015,225.439 291.037,225.979 287.073,226.685 283.128,227.555 279.207,228.588 275.312,229.785 271.447,231.142 267.617,232.66 263.825,234.337 260.076,236.17 256.372,238.159 252.717,240.301 249.116,242.594 245.571,245.035 242.086,247.623 238.666,250.355 235.312,253.228 232.029,256.238 228.819,259.384 225.687,262.662 222.635,266.068 219.665,269.6 216.782,273.253 213.988,277.025 211.285,280.912 208.677,284.909 206.166,289.012 203.754,293.218 201.444,297.521 199.239,301.919 197.14,306.407 195.149,310.98 193.269,315.633 191.501,320.362 189.848,325.163 188.31,330.029 186.889,334.958 185.587,339.943 184.406,344.979 183.345,350.063 182.407,355.188 181.592,360.35 180.901,365.542 180.334,370.761 179.894,376.001 179.578,381.257 179.389,386.523 179.326,391.794"/>
<polyline fill="none" stroke="#87ceff" stroke-width="0.5" stroke-dasharray="1,1,1,1,1,1,1,1,1,1" points="240.429,305.357 240.461,308.086 240.559,310.812 240.723,313.532 240.951,316.245 241.244,318.946 241.602,321.634 242.023,324.306 242.509,326.959 243.058,329.59 243.67,332.197 244.344,334.778 245.079,337.329 245.875,339.848 246.731,342.333 247.646,344.781 248.619,347.19 249.65,349.557 250.736,351.88 251.878,354.156 253.074,356.384 254.322,358.562 255.622,360.686 256.972,362.754 258.371,364.766 259.817,366.718 261.31,368.61 262.847,370.438 264.427,372.201 266.048,373.898 267.71,375.526 269.409,377.085 271.145,378.572 272.916,379.986 274.72,381.325 276.555,382.589 278.418,383.776 280.311,384.885 282.228,385.914 284.169,386.863 286.131,387.731 288.114,388.517 290.115,389.22 292.131,389.839 294.161,390.374 296.203,390.824 298.254,391.189 300.313,391.469 302.379,391.663 304.447,391.771 306.518,391.792 308.587,391.727 310.654,391.577 312.717,391.34 314.772,391.018 316.819,390.61 318.856,390.117 320.879,389.54 322.888,388.878 324.879,388.134 326.853,387.307 328.805,386.399 330.734,385.409 332.639,384.34 334.517,383.192 336.367,381.967 338.186,380.665 339.974,379.288 341.727,377.837 343.445,376.314 345.126,374.721 346.768,373.058 348.368,371.328 349.927,369.532 351.442,367.672 352.912,365.75 354.334,363.768 355.709,361.727 357.035,359.63 358.309,357.479 359.531,355.276 360.7,353.024 361.814,350.724 362.873,348.379 363.875,345.991 364.819,343.562 365.705,341.095 366.53,338.593 367.296,336.057 368.001,333.491 368.644,330.897 369.224,328.277 369.742,325.635 370.195,322.972 370.585,320.292 370.911,317.597 371.171,314.89 371.367,312.173 371.498,309.449 371.563,306.722 371.563,303.993 371.498,301.265 371.367,298.541 371.171,295.824 370.911,293.117 370.585,290.422 370.195,287.742 369.742,285.079 369.224,282.437 368.644,279.817 368.001,277.223 367.296,274.657 366.53,272.122 365.705,269.619 364.819,267.152 363.875,264.724 362.873,262.335 361.814,259.99 360.7,257.69 359.531,255.438 358.309,253.235 357.035,251.084 355.709,248.987 354.334,246.947 352.912,244.964 351.442,243.042 349.927,241.183 348.368,239.386 346.768,237.656 345.126,235.993 343.445,234.4 341.727,232.877 339.974,231.426 338.186,230.049 336.367,228.748 334.517,227.522 332.639,226.374 330.734,225.305 328.805,224.315 326.853,223.407 324.879,222.58 322.888,221.835 320.879,221.174 318.856,220.597 316.819,220.104 314.772,219.697 312.717,219.374 310.654,219.138 308.587,218.987 306.518,218.922 304.447,218.944 302.379,219.051 300.313,219.245 298.254,219.525 296.203,219.89 294.161,220.34 292.131,220.875 290.115,221.495 288.114,222.197 286.131,222.983 284.169,223.851 282.228,224.8 280.311,225.83 278.418,226.938 276.555,228.125 274.72,229.389 272.916,230.729 271.145,232.143 269.409,233.629 267.71,235.188 266.048,236.816 264.427,238.513 262.847,240.276 261.31,242.104 259.817,243.996 258.371,245.948 256.972,247.96 255.622,250.029 254.322,252.153 253.074,254.33 251.878,256.558 250.736,258.834 249.65,261.157 248.619,263.524 247.646,265.933 246.731,268.381 245.875,270.866 245.079,273.385 244.344,275.936 243.67,278.517 243.058,281.124 242.509,283.755 242.023,286.408 241.602,289.08 241.244,291.768 240.951,294.469 240.723,297.182 240.559,299.902 240.461,302.628 240.429,305.357"/>
<polyline fill="none" stroke="#87ceff" stroke-width="0.5" stroke-dasharray="1,1,1,1,1,1,1,1,1,1" points="259.634,273.719 259.657,275.648 259.727,277.576 259.842,279.5 260.003,281.417 260.21,283.328 260.463,285.229 260.762,287.118 261.105,288.994 261.494,290.854 261.926,292.698 262.402,294.522 262.922,296.326 263.485,298.108 264.09,299.865 264.737,301.596 265.426,303.299 266.154,304.973 266.923,306.615 267.73,308.225 268.575,309.8 269.458,311.34 270.377,312.842 271.332,314.305 272.321,315.727 273.344,317.108 274.399,318.445 275.486,319.738 276.604,320.985 277.75,322.185 278.925,323.336 280.126,324.438 281.354,325.489 282.606,326.489 283.881,327.437 285.179,328.33 286.497,329.169 287.834,329.953 289.19,330.681 290.563,331.352 291.951,331.966 293.353,332.521 294.767,333.019 296.193,333.457 297.628,333.835 299.072,334.153 300.523,334.411 301.979,334.609 303.439,334.746 304.902,334.822 306.366,334.837 307.83,334.792 309.291,334.685 310.75,334.518 312.203,334.29 313.65,334.001 315.09,333.653 316.521,333.245 317.941,332.777 319.35,332.251 320.745,331.667 322.125,331.024 323.49,330.324 324.836,329.568 326.165,328.756 327.473,327.89 328.759,326.969 330.023,325.996 331.263,324.97 332.478,323.893 333.666,322.766 334.827,321.59 335.959,320.367 337.061,319.097 338.132,317.782 339.171,316.423 340.178,315.021 341.15,313.578 342.087,312.096 342.988,310.575 343.852,309.017 344.679,307.424 345.466,305.798 346.215,304.14 346.923,302.451 347.591,300.733 348.217,298.989 348.801,297.22 349.343,295.427 349.841,293.613 350.296,291.778 350.706,289.926 351.072,288.058 351.393,286.175 351.668,284.279 351.899,282.374 352.083,280.459 352.222,278.538 352.314,276.612 352.36,274.684 352.36,272.754 352.314,270.825 352.222,268.899 352.083,266.978 351.899,265.064 351.668,263.158 351.393,261.263 351.072,259.38 350.706,257.512 350.296,255.659 349.841,253.825 349.343,252.01 348.801,250.218 348.217,248.448 347.591,246.704 346.923,244.986 346.215,243.298 345.466,241.64 344.679,240.013 343.852,238.42 342.988,236.863 342.087,235.342 341.15,233.859 340.178,232.417 339.171,231.015 338.132,229.656 337.061,228.34 335.959,227.07 334.827,225.847 333.666,224.671 332.478,223.544 331.263,222.467 330.023,221.442 328.759,220.468 327.473,219.547 326.165,218.681 324.836,217.869 323.49,217.113 322.125,216.414 320.745,215.771 319.35,215.187 317.941,214.66 316.521,214.192 315.09,213.784 313.65,213.436 312.203,213.147 310.75,212.92 309.291,212.752 307.83,212.646 306.366,212.6 304.902,212.615 303.439,212.691 301.979,212.829 300.523,213.026 299.072,213.284 297.628,213.603 296.193,213.981 294.767,214.419 293.353,214.916 291.951,215.472 290.563,216.085 289.19,216.756 287.834,217.484 286.497,218.268 285.179,219.107 283.881,220.001 282.606,220.948 281.354,221.948 280.126,223 278.925,224.102 277.75,225.253 276.604,226.453 275.486,227.7 274.399,228.993 273.344,230.33 272.321,231.71 271.332,233.133 270.377,234.596 269.458,236.098 268.575,237.637 267.73,239.212 266.923,240.822 266.154,242.465 265.426,244.139 264.737,245.842 264.09,247.573 263.485,249.33 262.922,251.111 262.402,252.915 261.926,254.74 261.494,256.583 261.105,258.444 260.762,260.32 260.463,262.209 260.21,264.11 260.003,266.02 259.842,267.938 259.727,269.862 259.657,271.789 259.634,273.719"/>
<polyline fill="none" stroke="#87ceff" stroke-width="0.5" stroke-dasharray="1,1,1,1,1,1,1,1,1,1" points="268.142,255.452 268.161,257.028 268.218,258.602 268.312,260.172 268.444,261.738 268.613,263.298 268.82,264.85 269.063,266.393 269.344,267.924 269.661,269.443 270.014,270.949 270.403,272.438 270.827,273.911 271.287,275.366 271.781,276.8 272.31,278.214 272.871,279.604 273.466,280.971 274.093,282.312 274.752,283.626 275.443,284.913 276.164,286.17 276.914,287.396 277.694,288.591 278.501,289.752 279.336,290.879 280.198,291.971 281.085,293.027 281.998,294.045 282.934,295.024 283.893,295.964 284.875,296.864 285.876,297.723 286.899,298.539 287.94,299.312 289,300.042 290.076,300.728 291.168,301.368 292.275,301.962 293.396,302.51 294.529,303.011 295.673,303.465 296.829,303.871 297.993,304.228 299.165,304.537 300.344,304.797 301.528,305.008 302.717,305.169 303.909,305.281 305.104,305.343 306.299,305.355 307.494,305.318 308.687,305.231 309.878,305.095 311.065,304.908 312.247,304.673 313.422,304.389 314.59,304.055 315.75,303.673 316.9,303.244 318.039,302.766 319.166,302.242 320.28,301.67 321.38,301.053 322.464,300.391 323.532,299.683 324.583,298.931 325.615,298.136 326.627,297.299 327.619,296.419 328.589,295.5 329.537,294.54 330.461,293.541 331.361,292.503 332.236,291.43 333.084,290.32 333.906,289.176 334.7,287.998 335.465,286.787 336.201,285.545 336.906,284.273 337.581,282.973 338.224,281.645 338.835,280.291 339.414,278.912 339.959,277.51 340.47,276.086 340.947,274.641 341.389,273.177 341.796,271.696 342.167,270.198 342.502,268.686 342.801,267.16 343.063,265.623 343.288,264.075 343.476,262.519 343.627,260.956 343.74,259.388 343.815,257.815 343.853,256.24 343.853,254.665 343.815,253.09 343.74,251.517 343.627,249.949 343.476,248.386 343.288,246.83 343.063,245.282 342.801,243.745 342.502,242.219 342.167,240.707 341.796,239.209 341.389,237.728 340.947,236.264 340.47,234.819 339.959,233.395 339.414,231.993 338.835,230.614 338.224,229.26 337.581,227.932 336.906,226.631 336.201,225.359 335.465,224.118 334.7,222.907 333.906,221.729 333.084,220.584 332.236,219.475 331.361,218.401 330.461,217.364 329.537,216.365 328.589,215.405 327.619,214.485 326.627,213.606 325.615,212.769 324.583,211.974 323.532,211.222 322.464,210.514 321.38,209.852 320.28,209.234 319.166,208.663 318.039,208.138 316.9,207.661 315.75,207.231 314.59,206.85 313.422,206.516 312.247,206.232 311.065,205.996 309.878,205.81 308.687,205.673 307.494,205.586 306.299,205.549 305.104,205.562 303.909,205.624 302.717,205.736 301.528,205.897 300.344,206.108 299.165,206.368 297.993,206.677 296.829,207.034 295.673,207.44 294.529,207.894 293.396,208.395 292.275,208.943 291.168,209.537 290.076,210.177 289,210.862 287.94,211.592 286.899,212.366 285.876,213.182 284.875,214.041 283.893,214.94 282.934,215.88 281.998,216.86 281.085,217.878 280.198,218.934 279.336,220.025 278.501,221.153 277.694,222.314 276.914,223.508 276.164,224.735 275.443,225.992 274.752,227.278 274.093,228.592 273.466,229.934 272.871,231.3 272.31,232.691 271.781,234.104 271.287,235.539 270.827,236.993 270.403,238.466 270.014,239.956 269.661,241.461 269.344,242.98 269.063,244.512 268.82,246.055 268.613,247.606 268.444,249.167 268.312,250.732 268.218,252.303 268.161,253.877 268.142,255.452"/>
<polyline fill="none" stroke="#87ceff" stroke-width="0.5" stroke-dasharray="1,1,1,1,1,1,1,1,1,1" points="273.214,230.5 273.23,231.864 273.28,233.228 273.361,234.587 273.476,235.944 273.622,237.294 273.801,238.639 274.012,239.975 274.254,241.301 274.529,242.617 274.835,243.92 275.172,245.21 275.54,246.486 275.938,247.746 276.366,248.988 276.823,250.212 277.31,251.417 277.825,252.6 278.368,253.761 278.939,254.899 279.537,256.014 280.161,257.102 280.811,258.164 281.486,259.199 282.186,260.205 282.909,261.181 283.655,262.126 284.423,263.041 285.213,263.922 286.024,264.771 286.855,265.584 287.705,266.364 288.573,267.107 289.458,267.814 290.36,268.484 291.277,269.116 292.209,269.709 293.155,270.264 294.114,270.778 295.084,271.253 296.066,271.687 297.057,272.08 298.057,272.431 299.065,272.741 300.081,273.008 301.102,273.233 302.127,273.416 303.157,273.556 304.189,273.653 305.224,273.707 306.259,273.717 307.293,273.685 308.327,273.61 309.358,273.491 310.386,273.33 311.41,273.126 312.428,272.88 313.439,272.591 314.444,272.261 315.44,271.889 316.426,271.475 317.402,271.021 318.367,270.526 319.319,269.992 320.258,269.417 321.184,268.805 322.093,268.154 322.987,267.465 323.864,266.74 324.723,265.979 325.563,265.182 326.384,264.351 327.184,263.485 327.963,262.587 328.721,261.657 329.456,260.696 330.167,259.705 330.854,258.685 331.517,257.637 332.154,256.561 332.766,255.46 333.35,254.333 333.907,253.184 334.437,252.011 334.938,250.817 335.409,249.603 335.852,248.369 336.265,247.118 336.648,245.85 337,244.567 337.322,243.27 337.612,241.96 337.871,240.639 338.098,239.308 338.292,237.967 338.456,236.62 338.586,235.266 338.684,233.908 338.749,232.546 338.782,231.182 338.782,229.818 338.749,228.454 338.684,227.092 338.586,225.734 338.456,224.38 338.292,223.033 338.098,221.692 337.871,220.361 337.612,219.04 337.322,217.73 337,216.433 336.648,215.15 336.265,213.882 335.852,212.631 335.409,211.397 334.938,210.183 334.437,208.989 333.907,207.816 333.35,206.667 332.766,205.54 332.154,204.439 331.517,203.363 330.854,202.315 330.167,201.295 329.456,200.304 328.721,199.343 327.963,198.413 327.184,197.515 326.384,196.649 325.563,195.818 324.723,195.021 323.864,194.26 322.987,193.535 322.093,192.846 321.184,192.195 320.258,191.583 319.319,191.008 318.367,190.474 317.402,189.979 316.426,189.525 315.44,189.111 314.444,188.739 313.439,188.409 312.428,188.12 311.41,187.874 310.386,187.67 309.358,187.509 308.327,187.39 307.293,187.315 306.259,187.283 305.224,187.293 304.189,187.347 303.157,187.444 302.127,187.584 301.102,187.767 300.081,187.992 299.065,188.259 298.057,188.569 297.057,188.92 296.066,189.313 295.084,189.747 294.114,190.222 293.155,190.736 292.209,191.291 291.277,191.884 290.36,192.516 289.458,193.186 288.573,193.893 287.705,194.636 286.855,195.416 286.024,196.229 285.213,197.078 284.423,197.959 283.655,198.874 282.909,199.819 282.186,200.795 281.486,201.801 280.811,202.836 280.161,203.898 279.537,204.986 278.939,206.101 278.368,207.239 277.825,208.4 277.31,209.583 276.823,210.788 276.366,212.012 275.938,213.254 275.54,214.514 275.172,215.79 274.835,217.08 274.529,218.383 274.254,219.699 274.012,221.025 273.801,222.361 273.622,223.706 273.476,225.056 273.361,226.413 273.28,227.772 273.23,229.136 273.214,230.5"/>
<polyline fill="none" stroke="#00ffff" stroke-width="0.5" stroke-dasharray="1,1,1,1,1,1,1,1,1,1" points="279.175,230.5 279.172,230.225 279.162,229.949 279.146,229.674 279.123,229.4 279.093,229.127 279.057,228.856 279.014,228.586 278.965,228.318 278.91,228.052 278.848,227.789 278.78,227.528 278.706,227.271 278.625,227.016 278.539,226.765 278.446,226.518 278.348,226.274 278.244,226.035 278.134,225.801 278.019,225.571 277.898,225.346 277.772,225.126 277.641,224.911 277.504,224.702 277.363,224.499 277.217,224.302 277.066,224.111 276.911,223.926 276.751,223.748 276.587,223.577 276.419,223.412 276.248,223.255 276.073,223.104 275.894,222.962 275.711,222.827 275.526,222.699 275.338,222.579 275.147,222.467 274.953,222.363 274.757,222.267 274.559,222.179 274.358,222.1 274.157,222.029 273.953,221.966 273.748,221.913 273.542,221.867 273.334,221.83 273.126,221.802 272.918,221.782 272.709,221.771 272.5,221.769 272.291,221.776 272.082,221.791 271.874,221.815 271.666,221.848 271.459,221.889 271.253,221.938 271.049,221.997 270.846,222.063 270.645,222.139 270.446,222.222 270.249,222.314 270.054,222.414 269.861,222.522 269.671,222.638 269.484,222.762 269.301,222.893 269.12,223.032 268.943,223.179 268.77,223.333 268.6,223.494 268.434,223.662 268.272,223.836 268.115,224.018 267.962,224.206 267.813,224.4 267.669,224.6 267.531,224.806 267.397,225.018 267.268,225.235 267.145,225.458 267.027,225.685 266.914,225.917 266.807,226.154 266.706,226.396 266.611,226.641 266.521,226.89 266.438,227.143 266.36,227.399 266.289,227.658 266.224,227.92 266.166,228.185 266.113,228.452 266.067,228.721 266.028,228.991 265.995,229.264 265.969,229.537 265.949,229.812 265.936,230.086 265.929,230.362 265.929,230.638 265.936,230.914 265.949,231.188 265.969,231.463 265.995,231.736 266.028,232.009 266.067,232.279 266.113,232.548 266.166,232.815 266.224,233.08 266.289,233.342 266.36,233.601 266.438,233.857 266.521,234.11 266.611,234.359 266.706,234.604 266.807,234.846 266.914,235.083 267.027,235.315 267.145,235.542 267.268,235.765 267.397,235.982 267.531,236.194 267.669,236.4 267.813,236.6 267.962,236.794 268.115,236.982 268.272,237.164 268.434,237.338 268.6,237.506 268.77,237.667 268.943,237.821 269.12,237.968 269.301,238.107 269.484,238.238 269.671,238.362 269.861,238.478 270.054,238.586 270.249,238.686 270.446,238.778 270.645,238.861 270.846,238.937 271.049,239.003 271.253,239.062 271.459,239.111 271.666,239.152 271.874,239.185 272.082,239.209 272.291,239.224 272.5,239.231 272.709,239.229 272.918,239.218 273.126,239.198 273.334,239.17 273.542,239.133 273.748,239.087 273.953,239.034 274.157,238.971 274.358,238.9 274.559,238.821 274.757,238.733 274.953,238.637 275.147,238.533 275.338,238.421 275.526,238.301 275.711,238.173 275.894,238.038 276.073,237.896 276.248,237.745 276.419,237.588 276.587,237.423 276.751,237.252 276.911,237.074 277.066,236.889 277.217,236.698 277.363,236.501 277.504,236.298 277.641,236.089 277.772,235.874 277.898,235.654 278.019,235.429 278.134,235.199 278.244,234.965 278.348,234.726 278.446,234.482 278.539,234.235 278.625,233.984 278.706,233.729 278.78,233.472 278.848,233.211 278.91,232.948 278.965,232.682 279.014,232.414 279.057,232.144 279.093,231.873 279.123,231.6 279.146,231.326 279.162,231.051 279.172,230.775 279.175,230.5"/>
<polyline fill="none" stroke="#00ffff" stroke-width="0.5" stroke-dasharray="1,1,1,1,1,1,1,1,1,1" points="288.968,230.5 288.957,229.541 288.922,228.583 288.865,227.627 288.785,226.674 288.682,225.725 288.556,224.781 288.408,223.842 288.237,222.91 288.044,221.985 287.829,221.069 287.592,220.163 287.334,219.266 287.054,218.381 286.753,217.508 286.432,216.648 286.09,215.801 285.728,214.97 285.346,214.154 284.945,213.354 284.525,212.571 284.086,211.806 283.63,211.06 283.155,210.333 282.664,209.626 282.155,208.94 281.631,208.275 281.091,207.633 280.536,207.013 279.966,206.417 279.382,205.845 278.785,205.297 278.175,204.775 277.553,204.278 276.919,203.808 276.275,203.363 275.62,202.946 274.955,202.557 274.281,202.195 273.599,201.862 272.91,201.557 272.213,201.281 271.51,201.034 270.802,200.816 270.088,200.628 269.371,200.47 268.65,200.342 267.927,200.243 267.201,200.175 266.474,200.138 265.747,200.13 265.02,200.153 264.293,200.206 263.568,200.289 262.846,200.402 262.127,200.545 261.412,200.718 260.701,200.921 259.995,201.153 259.295,201.415 258.602,201.706 257.916,202.025 257.238,202.373 256.569,202.748 255.909,203.151 255.259,203.582 254.62,204.04 253.991,204.523 253.375,205.033 252.771,205.568 252.181,206.128 251.604,206.712 251.042,207.32 250.494,207.951 249.962,208.605 249.445,209.28 248.945,209.977 248.462,210.694 247.997,211.43 247.549,212.186 247.12,212.96 246.709,213.751 246.317,214.56 245.946,215.384 245.594,216.223 245.262,217.076 244.951,217.943 244.66,218.822 244.391,219.713 244.144,220.615 243.918,221.526 243.714,222.447 243.532,223.375 243.373,224.311 243.236,225.252 243.121,226.199 243.03,227.15 242.961,228.105 242.915,229.062 242.892,230.021 242.892,230.979 242.915,231.938 242.961,232.895 243.03,233.85 243.121,234.801 243.236,235.748 243.373,236.689 243.532,237.625 243.714,238.553 243.918,239.474 244.144,240.385 244.391,241.287 244.66,242.178 244.951,243.057 245.262,243.924 245.594,244.777 245.946,245.616 246.317,246.44 246.709,247.249 247.12,248.04 247.549,248.814 247.997,249.57 248.462,250.306 248.945,251.023 249.445,251.72 249.962,252.395 250.494,253.049 251.042,253.68 251.604,254.288 252.181,254.872 252.771,255.432 253.375,255.967 253.991,256.477 254.62,256.96 255.259,257.418 255.909,257.849 256.569,258.252 257.238,258.627 257.916,258.975 258.602,259.294 259.295,259.585 259.995,259.847 260.701,260.079 261.412,260.282 262.127,260.455 262.846,260.598 263.568,260.711 264.293,260.794 265.02,260.847 265.747,260.87 266.474,260.862 267.201,260.825 267.927,260.757 268.65,260.658 269.371,260.53 270.088,260.372 270.802,260.184 271.51,259.966 272.213,259.719 272.91,259.443 273.599,259.138 274.281,258.805 274.955,258.443 275.62,258.054 276.275,257.637 276.919,257.192 277.553,256.722 278.175,256.225 278.785,255.703 279.382,255.155 279.966,254.583 280.536,253.987 281.091,253.367 281.631,252.725 282.155,252.06 282.664,251.374 283.155,250.667 283.63,249.94 284.086,249.194 284.525,248.429 284.945,247.646 285.346,246.846 285.728,246.03 286.09,245.199 286.432,244.352 286.753,243.492 287.054,242.619 287.334,241.734 287.592,240.837 287.829,239.931 288.044,239.015 288.237,238.09 288.408,237.158 288.556,236.219 288.682,235.275 288.785,234.326 288.865,233.373 288.922,232.417 288.957,231.459 288.968,230.5"/>
<polyline fill="none" stroke="#00ffff" stroke-width="0.5" stroke-dasharray="1,1,1,1,1,1,1,1,1,1" points="295.106,230.5 295.084,228.674 295.019,226.849 294.909,225.028 294.756,223.213 294.56,221.405 294.321,219.605 294.039,217.817 293.713,216.042 293.346,214.28 292.937,212.536 292.485,210.808 291.993,209.101 291.46,207.415 290.888,205.751 290.275,204.113 289.624,202.501 288.934,200.917 288.207,199.362 287.443,197.838 286.643,196.347 285.807,194.89 284.937,193.468 284.033,192.083 283.097,190.737 282.129,189.43 281.13,188.165 280.101,186.941 279.043,185.761 277.958,184.625 276.846,183.535 275.709,182.492 274.547,181.497 273.362,180.55 272.155,179.654 270.927,178.808 269.679,178.013 268.413,177.271 267.129,176.583 265.83,175.947 264.517,175.366 263.189,174.84 261.851,174.37 260.501,173.956 259.143,173.597 257.776,173.296 256.403,173.052 255.024,172.864 253.642,172.735 252.257,172.663 250.872,172.648 249.487,172.691 248.103,172.792 246.723,172.951 245.347,173.167 243.977,173.439 242.614,173.769 241.26,174.156 239.915,174.598 238.582,175.096 237.262,175.65 235.955,176.258 234.664,176.92 233.389,177.636 232.132,178.404 230.894,179.224 229.676,180.096 228.479,181.017 227.306,181.988 226.156,183.007 225.031,184.074 223.932,185.187 222.861,186.345 221.817,187.547 220.804,188.792 219.82,190.079 218.868,191.405 217.947,192.771 217.061,194.174 216.208,195.614 215.39,197.088 214.607,198.596 213.861,200.135 213.153,201.705 212.482,203.304 211.851,204.929 211.258,206.58 210.705,208.255 210.192,209.952 209.721,211.669 209.29,213.406 208.902,215.159 208.556,216.928 208.252,218.71 207.991,220.504 207.773,222.308 207.599,224.12 207.467,225.938 207.38,227.761 207.336,229.587 207.336,231.413 207.38,233.239 207.467,235.062 207.599,236.88 207.773,238.692 207.991,240.496 208.252,242.29 208.556,244.072 208.902,245.841 209.29,247.594 209.721,249.331 210.192,251.048 210.705,252.745 211.258,254.42 211.851,256.071 212.482,257.696 213.153,259.295 213.861,260.865 214.607,262.404 215.39,263.912 216.208,265.386 217.061,266.826 217.947,268.229 218.868,269.595 219.82,270.921 220.804,272.208 221.817,273.453 222.861,274.655 223.932,275.813 225.031,276.926 226.156,277.993 227.306,279.012 228.479,279.983 229.676,280.904 230.894,281.776 232.132,282.596 233.389,283.364 234.664,284.08 235.955,284.742 237.262,285.35 238.582,285.904 239.915,286.402 241.26,286.844 242.614,287.231 243.977,287.561 245.347,287.833 246.723,288.049 248.103,288.208 249.487,288.309 250.872,288.352 252.257,288.337 253.642,288.265 255.024,288.136 256.403,287.948 257.776,287.704 259.143,287.403 260.501,287.044 261.851,286.63 263.189,286.16 264.517,285.634 265.83,285.053 267.129,284.417 268.413,283.729 269.679,282.987 270.927,282.192 272.155,281.346 273.362,280.45 274.547,279.503 275.709,278.508 276.846,277.465 277.958,276.375 279.043,275.239 280.101,274.059 281.13,272.835 282.129,271.57 283.097,270.263 284.033,268.917 284.937,267.532 285.807,266.11 286.643,264.653 287.443,263.162 288.207,261.638 288.934,260.083 289.624,258.499 290.275,256.887 290.888,255.249 291.46,253.585 291.993,251.899 292.485,250.192 292.937,248.464 293.346,246.72 293.713,244.958 294.039,243.183 294.321,241.395 294.56,239.595 294.756,237.787 294.909,235.972 295.019,234.151 295.084,232.326 295.106,230.5"/>
<polyline fill="none" stroke="#00ffff" stroke-width="0.5" stroke-dasharray="1,1,1,1,1,1,1,1,1,1" points="298.582,230.5 298.547,227.64 298.444,224.782 298.273,221.93 298.034,219.086 297.727,216.254 297.352,213.437 296.909,210.636 296.4,207.855 295.825,205.097 295.184,202.363 294.477,199.659 293.707,196.984 292.872,194.343 291.975,191.738 291.016,189.172 289.995,186.647 288.915,184.166 287.776,181.731 286.579,179.344 285.326,177.009 284.017,174.727 282.655,172.5 281.239,170.331 279.773,168.222 278.256,166.176 276.692,164.193 275.081,162.276 273.424,160.428 271.725,158.649 269.983,156.942 268.201,155.309 266.381,153.75 264.525,152.268 262.635,150.863 260.711,149.539 258.757,148.294 256.774,147.132 254.764,146.053 252.729,145.058 250.671,144.148 248.593,143.325 246.496,142.588 244.383,141.938 242.254,141.378 240.114,140.906 237.963,140.523 235.805,140.23 233.64,140.027 231.471,139.914 229.301,139.892 227.131,139.959 224.964,140.117 222.803,140.365 220.647,140.703 218.501,141.13 216.367,141.647 214.246,142.252 212.141,142.945 210.052,143.726 207.984,144.592 205.938,145.545 203.916,146.582 201.918,147.703 199.95,148.906 198.011,150.191 196.103,151.556 194.229,152.999 192.391,154.52 190.59,156.116 188.829,157.787 187.108,159.53 185.429,161.344 183.795,163.227 182.208,165.176 180.667,167.191 179.175,169.269 177.734,171.408 176.345,173.606 175.009,175.861 173.728,178.17 172.502,180.531 171.334,182.942 170.225,185.401 169.174,187.904 168.185,190.45 167.256,193.036 166.39,195.659 165.587,198.317 164.849,201.007 164.175,203.727 163.566,206.473 163.024,209.243 162.548,212.034 162.14,214.844 161.798,217.669 161.525,220.507 161.32,223.355 161.183,226.21 161.114,229.07 161.114,231.93 161.183,234.79 161.32,237.645 161.525,240.493 161.798,243.331 162.14,246.156 162.548,248.966 163.024,251.757 163.566,254.527 164.175,257.273 164.849,259.993 165.587,262.683 166.39,265.341 167.256,267.964 168.185,270.55 169.174,273.096 170.225,275.599 171.334,278.058 172.502,280.469 173.728,282.83 175.009,285.139 176.345,287.394 177.734,289.592 179.175,291.731 180.667,293.809 182.208,295.824 183.795,297.773 185.429,299.656 187.108,301.47 188.829,303.213 190.59,304.884 192.391,306.48 194.229,308.001 196.103,309.444 198.011,310.809 199.95,312.094 201.918,313.297 203.916,314.418 205.938,315.455 207.984,316.408 210.052,317.274 212.141,318.055 214.246,318.748 216.367,319.353 218.501,319.87 220.647,320.297 222.803,320.635 224.964,320.883 227.131,321.041 229.301,321.108 231.471,321.086 233.64,320.973 235.805,320.77 237.963,320.477 240.114,320.094 242.254,319.622 244.383,319.062 246.496,318.412 248.593,317.675 250.671,316.852 252.729,315.942 254.764,314.947 256.774,313.868 258.757,312.706 260.711,311.461 262.635,310.137 264.525,308.732 266.381,307.25 268.201,305.691 269.983,304.058 271.725,302.351 273.424,300.572 275.081,298.724 276.692,296.807 278.256,294.824 279.773,292.778 281.239,290.669 282.655,288.5 284.017,286.273 285.326,283.991 286.579,281.656 287.776,279.269 288.915,276.834 289.995,274.353 291.016,271.828 291.975,269.262 292.872,266.657 293.707,264.016 294.477,261.341 295.184,258.637 295.825,255.903 296.4,253.145 296.909,250.364 297.352,247.563 297.727,244.746 298.034,241.914 298.273,239.07 298.444,236.218 298.547,233.36 298.582,230.5"/>
<polyline fill="none" stroke="#00ffff" stroke-width="0.5" stroke-dasharray="1,1,1,1,1,1,1,1,1,1" points="302.242,230.5 302.172,224.627 301.96,218.759 301.609,212.904 301.118,207.065 300.487,201.25 299.717,195.465 298.809,189.714 297.764,184.004 296.582,178.34 295.265,172.729 293.815,167.174 292.232,161.684 290.519,156.261 288.677,150.913 286.707,145.644 284.612,140.459 282.395,135.364 280.056,130.364 277.598,125.464 275.025,120.669 272.338,115.983 269.54,111.411 266.634,106.958 263.623,102.628 260.51,98.4258 257.297,94.355 253.989,90.4199 250.588,86.6245 247.098,82.9727 243.522,79.4678 239.864,76.1133 236.127,72.9126 232.316,69.8691 228.434,66.9858 224.484,64.2656 220.472,61.7109 216.4,59.3247 213.228,57.6216"/>
<polyline fill="none" stroke="#00ffff" stroke-width="0.5" stroke-dasharray="1,1,1,1,1,1,1,1,1,1" points="108.987,57.6216 107.868,58.1953 103.769,60.4966 99.7261,62.9673 95.7446,65.605 91.8281,68.4072 87.981,71.3711 84.2065,74.4937 80.5088,77.7715 76.8916,81.2017 76.4956,81.6025"/>
<polyline fill="none" stroke="#00ffff" stroke-width="0.5" stroke-dasharray="1,1,1,1,1,1,1,1,1,1" points="76.4956,379.397 76.8916,379.798 80.5088,383.229 84.2065,386.506 87.981,389.629 91.8281,392.593 95.7446,395.395 99.7261,398.033 103.769,400.503 107.868,402.805 108.987,403.378"/>
<polyline fill="none" stroke="#00ffff" stroke-width="0.5" stroke-dasharray="1,1,1,1,1,1,1,1,1,1" points="213.228,403.378 216.4,401.675 220.472,399.289 224.484,396.734 228.434,394.014 232.316,391.131 236.127,388.087 239.864,384.887 243.522,381.532 247.098,378.027 250.588,374.375 253.989,370.58 257.297,366.645 260.51,362.574 263.623,358.372 266.634,354.042 269.54,349.589 272.338,345.017 275.025,340.331 277.598,335.536 280.056,330.636 282.395,325.636 284.612,320.541 286.707,315.356 288.677,310.087 290.519,304.739 292.232,299.316 293.815,293.826 295.265,288.271 296.582,282.66 297.764,276.996 298.809,271.286 299.717,265.535 300.487,259.75 301.118,253.935 301.609,248.096 301.96,242.241 302.172,236.373 302.242,230.5"/>
<polyline fill="none" stroke="#00ffff" stroke-width="0.5" stroke-dasharray="1,1,1,1,1,1,1,1,1,1" points="535.504,81.6187 533.31,79.4678 529.652,76.1133 525.916,72.9126 522.104,69.8691 518.222,66.9858 514.273,64.2656 510.26,61.7109 506.188,59.3247 503.016,57.6216"/>
<polyline fill="none" stroke="#00ffff" stroke-width="0.5" stroke-dasharray="1,1,1,1,1,1,1,1,1,1" points="398.775,57.6216 397.657,58.1953 393.557,60.4966 389.514,62.9673 385.533,65.605 381.616,68.4072 377.769,71.3711 373.995,74.4937 370.297,77.7715 366.68,81.2017 363.146,84.7803 359.7,88.5044 356.345,92.3701 353.084,96.3735 349.921,100.511 346.858,104.777 343.899,109.169 341.047,113.683 338.305,118.312 335.674,123.053 333.158,127.901 330.76,132.852 328.481,137.9 326.325,143.041 324.292,148.268 322.386,153.577 320.608,158.963 318.96,164.421 317.443,169.944 316.06,175.528 314.811,181.166 313.697,186.854 312.72,192.585 311.881,198.354 311.18,204.155 310.619,209.982 310.197,215.83 309.917,221.692 309.775,227.563 309.775,233.437 309.917,239.308 310.197,245.17 310.619,251.018 311.18,256.845 311.881,262.646 312.72,268.415 313.697,274.146 314.811,279.834 316.06,285.472 317.443,291.056 318.96,296.579 320.608,302.037 322.386,307.423 324.292,312.732 326.325,317.959 328.481,323.1 330.76,328.148 333.158,333.099 335.674,337.947 338.305,342.688 341.047,347.317 343.899,351.831 346.858,356.223 349.921,360.489 353.084,364.626 356.345,368.63 359.7,372.496 363.146,376.22 366.68,379.798 370.297,383.229 373.995,386.506 377.769,389.629 381.616,392.593 385.533,395.395 389.514,398.033 393.557,400.503 397.657,402.805 398.775,403.378"/>
<polyline fill="none" stroke="#00ffff" stroke-width="0.5" stroke-dasharray="1,1,1,1,1,1,1,1,1,1" points="503.016,403.378 506.188,401.675 510.26,399.289 514.273,396.734 518.222,394.014 522.104,391.131 525.916,388.087 529.652,384.887 533.31,381.532 535.504,379.381"/>
<polyline fill="none" stroke="#00ffff" stroke-width="0.5" stroke-dasharray="1,1,1,1,1,1,1,1,1,1" points="450.894,230.5 450.86,227.64 450.757,224.782 450.586,221.93 450.347,219.086 450.04,216.254 449.665,213.437 449.222,210.636 448.713,207.855 448.138,205.097 447.496,202.363 446.79,199.659 446.019,196.984 445.185,194.343 444.287,191.738 443.328,189.172 442.308,186.647 441.228,184.166 440.089,181.731 438.892,179.344 437.639,177.009 436.33,174.727 434.967,172.5 433.552,170.331 432.085,168.222 430.569,166.176 429.004,164.193 427.393,162.276 425.737,160.428 424.037,158.649 422.295,156.942 420.514,155.309 418.694,153.75 416.838,152.268 414.947,150.863 413.024,149.539 411.069,148.294 409.086,147.132 407.077,146.053 405.042,145.058 402.984,144.148 400.906,143.325 398.809,142.588 396.695,141.938 394.567,141.378 392.427,140.906 390.276,140.523 388.117,140.23 385.953,140.027 383.784,139.914 381.614,139.892 379.444,139.959 377.277,140.117 375.115,140.365 372.96,140.703 370.814,141.13 368.68,141.647 366.559,142.252 364.453,142.945 362.365,143.726 360.297,144.592 358.25,145.545 356.228,146.582 354.231,147.703 352.262,148.906 350.323,150.191 348.416,151.556 346.542,152.999 344.704,154.52 342.903,156.116 341.141,157.787 339.42,159.53 337.742,161.344 336.108,163.227 334.52,165.176 332.979,167.191 331.488,169.269 330.046,171.408 328.657,173.606 327.322,175.861 326.041,178.17 324.815,180.531 323.647,182.942 322.538,185.401 321.487,187.904 320.497,190.45 319.569,193.036 318.703,195.659 317.9,198.317 317.162,201.007 316.488,203.727 315.879,206.473 315.337,209.243 314.861,212.034 314.452,214.844 314.111,217.669 313.838,220.507 313.633,223.355 313.496,226.21 313.427,229.07 313.427,231.93 313.496,234.79 313.633,237.645 313.838,240.493 314.111,243.331 314.452,246.156 314.861,248.966 315.337,251.757 315.879,254.527 316.488,257.273 317.162,259.993 317.9,262.683 318.703,265.341 319.569,267.964 320.497,270.55 321.487,273.096 322.538,275.599 323.647,278.058 324.815,280.469 326.041,282.83 327.322,285.139 328.657,287.394 330.046,289.592 331.488,291.731 332.979,293.809 334.52,295.824 336.108,297.773 337.742,299.656 339.42,301.47 341.141,303.213 342.903,304.884 344.704,306.48 346.542,308.001 348.416,309.444 350.323,310.809 352.262,312.094 354.231,313.297 356.228,314.418 358.25,315.455 360.297,316.408 362.365,317.274 364.453,318.055 366.559,318.748 368.68,319.353 370.814,319.87 372.96,320.297 375.115,320.635 377.277,320.883 379.444,321.041 381.614,321.108 383.784,321.086 385.953,320.973 388.117,320.77 390.276,320.477 392.427,320.094 394.567,319.622 396.695,319.062 398.809,318.412 400.906,317.675 402.984,316.852 405.042,315.942 407.077,314.947 409.086,313.868 411.069,312.706 413.024,311.461 414.947,310.137 416.838,308.732 418.694,307.25 420.514,305.691 422.295,304.058 424.037,302.351 425.737,300.572 427.393,298.724 429.004,296.807 430.569,294.824 432.085,292.778 433.552,290.669 434.967,288.5 436.33,286.273 437.639,283.991 438.892,281.656 440.089,279.269 441.228,276.834 442.308,274.353 443.328,271.828 444.287,269.262 445.185,266.657 446.019,264.016 446.79,261.341 447.496,258.637 448.138,255.903 448.713,253.145 449.222,250.364 449.665,247.563 450.04,244.746 450.347,241.914 450.586,239.07 450.757,236.218 450.86,233.36 450.894,230.5"/>
<polyline fill="none" stroke="#00ffff" stroke-width="0.5" stroke-dasharray="1,1,1,1,1,1,1,1,1,1" points="404.669,230.5 404.647,228.674 404.582,226.849 404.473,225.028 404.32,223.213 404.124,221.405 403.884,219.605 403.602,217.817 403.277,216.042 402.909,214.28 402.5,212.536 402.049,210.808 401.557,209.101 401.024,207.415 400.451,205.751 399.838,204.113 399.187,202.501 398.498,200.917 397.77,199.362 397.006,197.838 396.206,196.347 395.37,194.89 394.5,193.468 393.597,192.083 392.66,190.737 391.692,189.43 390.693,188.165 389.665,186.941 388.607,185.761 387.521,184.625 386.41,183.535 385.272,182.492 384.11,181.497 382.925,180.55 381.718,179.654 380.49,178.808 379.242,178.013 377.976,177.271 376.693,176.583 375.394,175.947 374.08,175.366 372.753,174.84 371.414,174.37 370.064,173.956 368.706,173.597 367.339,173.296 365.966,173.052 364.587,172.864 363.206,172.735 361.821,172.663 360.435,172.648 359.05,172.691 357.667,172.792 356.286,172.951 354.91,173.167 353.54,173.439 352.177,173.769 350.823,174.156 349.479,174.598 348.146,175.096 346.825,175.65 345.518,176.258 344.227,176.92 342.952,177.636 341.695,178.404 340.457,179.224 339.239,180.096 338.042,181.017 336.869,181.988 335.719,183.007 334.594,184.074 333.496,185.187 332.424,186.345 331.381,187.547 330.367,188.792 329.383,190.079 328.431,191.405 327.511,192.771 326.624,194.174 325.771,195.614 324.953,197.088 324.17,198.596 323.425,200.135 322.716,201.705 322.045,203.304 321.414,204.929 320.821,206.58 320.268,208.255 319.755,209.952 319.284,211.669 318.854,213.406 318.465,215.159 318.119,216.928 317.815,218.71 317.554,220.504 317.336,222.308 317.162,224.12 317.031,225.938 316.943,227.761 316.899,229.587 316.899,231.413 316.943,233.239 317.031,235.062 317.162,236.88 317.336,238.692 317.554,240.496 317.815,242.29 318.119,244.072 318.465,245.841 318.854,247.594 319.284,249.331 319.755,251.048 320.268,252.745 320.821,254.42 321.414,256.071 322.045,257.696 322.716,259.295 323.425,260.865 324.17,262.404 324.953,263.912 325.771,265.386 326.624,266.826 327.511,268.229 328.431,269.595 329.383,270.921 330.367,272.208 331.381,273.453 332.424,274.655 333.496,275.813 334.594,276.926 335.719,277.993 336.869,279.012 338.042,279.983 339.239,280.904 340.457,281.776 341.695,282.596 342.952,283.364 344.227,284.08 345.518,284.742 346.825,285.35 348.146,285.904 349.479,286.402 350.823,286.844 352.177,287.231 353.54,287.561 354.91,287.833 356.286,288.049 357.667,288.208 359.05,288.309 360.435,288.352 361.821,288.337 363.206,288.265 364.587,288.136 365.966,287.948 367.339,287.704 368.706,287.403 370.064,287.044 371.414,286.63 372.753,286.16 374.08,285.634 375.394,285.053 376.693,284.417 377.976,283.729 379.242,282.987 380.49,282.192 381.718,281.346 382.925,280.45 384.11,279.503 385.272,278.508 386.41,277.465 387.521,276.375 388.607,275.239 389.665,274.059 390.693,272.835 391.692,271.57 392.66,270.263 393.597,268.917 394.5,267.532 395.37,266.11 396.206,264.653 397.006,263.162 397.77,261.638 398.498,260.083 399.187,258.499 399.838,256.887 400.451,255.249 401.024,253.585 401.557,251.899 402.049,250.192 402.5,248.464 402.909,246.72 403.277,244.958 403.602,243.183 403.884,241.395 404.124,239.595 404.32,237.787 404.473,235.972 404.582,234.151 404.647,232.326 404.669,230.5"/>
<polyline fill="none" stroke="#00ffff" stroke-width="0.5" stroke-dasharray="1,1,1,1,1,1,1,1,1,1" points="369.111,230.5 369.1,229.541 369.065,228.583 369.008,227.627 368.927,226.674 368.824,225.725 368.699,224.781 368.55,223.842 368.38,222.91 368.187,221.985 367.972,221.069 367.735,220.163 367.477,219.266 367.197,218.381 366.896,217.508 366.575,216.648 366.233,215.801 365.871,214.97 365.489,214.154 365.088,213.354 364.668,212.571 364.229,211.806 363.772,211.06 363.298,210.333 362.807,209.626 362.298,208.94 361.774,208.275 361.234,207.633 360.679,207.013 360.109,206.417 359.525,205.845 358.928,205.297 358.318,204.775 357.696,204.278 357.062,203.808 356.417,203.363 355.763,202.946 355.098,202.557 354.424,202.195 353.742,201.862 353.053,201.557 352.356,201.281 351.653,201.034 350.945,200.816 350.231,200.628 349.514,200.47 348.793,200.342 348.069,200.243 347.344,200.175 346.617,200.138 345.89,200.13 345.163,200.153 344.436,200.206 343.711,200.289 342.989,200.402 342.27,200.545 341.554,200.718 340.843,200.921 340.138,201.153 339.438,201.415 338.745,201.706 338.059,202.025 337.381,202.373 336.711,202.748 336.052,203.151 335.402,203.582 334.762,204.04 334.134,204.523 333.518,205.033 332.915,205.568 332.324,206.128 331.747,206.712 331.185,207.32 330.637,207.951 330.104,208.605 329.588,209.28 329.088,209.977 328.605,210.694 328.14,211.43 327.692,212.186 327.263,212.96 326.852,213.751 326.46,214.56 326.088,215.384 325.736,216.223 325.405,217.076 325.093,217.943 324.803,218.822 324.534,219.713 324.287,220.615 324.061,221.526 323.857,222.447 323.675,223.375 323.516,224.311 323.378,225.252 323.264,226.199 323.172,227.15 323.104,228.105 323.058,229.062 323.035,230.021 323.035,230.979 323.058,231.938 323.104,232.895 323.172,233.85 323.264,234.801 323.378,235.748 323.516,236.689 323.675,237.625 323.857,238.553 324.061,239.474 324.287,240.385 324.534,241.287 324.803,242.178 325.093,243.057 325.405,243.924 325.736,244.777 326.088,245.616 326.46,246.44 326.852,247.249 327.263,248.04 327.692,248.814 328.14,249.57 328.605,250.306 329.088,251.023 329.588,251.72 330.104,252.395 330.637,253.049 331.185,253.68 331.747,254.288 332.324,254.872 332.915,255.432 333.518,255.967 334.134,256.477 334.762,256.96 335.402,257.418 336.052,257.849 336.711,258.252 337.381,258.627 338.059,258.975 338.745,259.294 339.438,259.585 340.138,259.847 340.843,260.079 341.554,260.282 342.27,260.455 342.989,260.598 343.711,260.711 344.436,260.794 345.163,260.847 345.89,260.87 346.617,260.862 347.344,260.825 348.069,260.757 348.793,260.658 349.514,260.53 350.231,260.372 350.945,260.184 351.653,259.966 352.356,259.719 353.053,259.443 353.742,259.138 354.424,258.805 355.098,258.443 355.763,258.054 356.417,257.637 357.062,257.192 357.696,256.722 358.318,256.225 358.928,255.703 359.525,255.155 360.109,254.583 360.679,253.987 361.234,253.367 361.774,252.725 362.298,252.06 362.807,251.374 363.298,250.667 363.772,249.94 364.229,249.194 364.668,248.429 365.088,247.646 365.489,246.846 365.871,246.03 366.233,245.199 366.575,244.352 366.896,243.492 367.197,242.619 367.477,241.734 367.735,240.837 367.972,239.931 368.187,239.015 368.38,238.09 368.55,237.158 368.699,236.219 368.824,235.275 368.927,234.326 369.008,233.373 369.065,232.417 369.1,231.459 369.111,230.5"/>
<polyline fill="none" stroke="#00ffff" stroke-width="0.5" stroke-dasharray="1,1,1,1,1,1,1,1,1,1" points="346.071,230.5 346.068,230.225 346.058,229.949 346.042,229.674 346.019,229.4 345.989,229.127 345.953,228.856 345.91,228.586 345.861,228.318 345.806,228.052 345.744,227.789 345.676,227.528 345.602,227.271 345.521,227.016 345.435,226.765 345.342,226.518 345.244,226.274 345.14,226.035 345.03,225.801 344.915,225.571 344.794,225.346 344.668,225.126 344.537,224.911 344.4,224.702 344.259,224.499 344.113,224.302 343.962,224.111 343.807,223.926 343.647,223.748 343.483,223.577 343.316,223.412 343.144,223.255 342.969,223.104 342.79,222.962 342.608,222.827 342.422,222.699 342.234,222.579 342.043,222.467 341.849,222.363 341.653,222.267 341.455,222.179 341.255,222.1 341.053,222.029 340.849,221.966 340.644,221.913 340.438,221.867 340.23,221.83 340.022,221.802 339.814,221.782 339.605,221.771 339.396,221.769 339.187,221.776 338.978,221.791 338.77,221.815 338.562,221.848 338.355,221.889 338.149,221.938 337.945,221.997 337.742,222.063 337.541,222.139 337.342,222.222 337.145,222.314 336.95,222.414 336.757,222.522 336.567,222.638 336.381,222.762 336.197,222.893 336.017,223.032 335.839,223.179 335.666,223.333 335.496,223.494 335.33,223.662 335.168,223.836 335.011,224.018 334.858,224.206 334.709,224.4 334.566,224.6 334.427,224.806 334.293,225.018 334.165,225.235 334.041,225.458 333.923,225.685 333.81,225.917 333.703,226.154 333.602,226.396 333.507,226.641 333.417,226.89 333.334,227.143 333.256,227.399 333.186,227.658 333.121,227.92 333.062,228.185 333.009,228.452 332.964,228.721 332.924,228.991 332.892,229.264 332.865,229.537 332.845,229.812 332.832,230.086 332.826,230.362 332.826,230.638 332.832,230.914 332.845,231.188 332.865,231.463 332.892,231.736 332.924,232.009 332.964,232.279 333.009,232.548 333.062,232.815 333.121,233.08 333.186,233.342 333.256,233.601 333.334,233.857 333.417,234.11 333.507,234.359 333.602,234.604 333.703,234.846 333.81,235.083 333.923,235.315 334.041,235.542 334.165,235.765 334.293,235.982 334.427,236.194 334.566,236.4 334.709,236.6 334.858,236.794 335.011,236.982 335.168,237.164 335.33,237.338 335.496,237.506 335.666,237.667 335.839,237.821 336.017,237.968 336.197,238.107 336.381,238.238 336.567,238.362 336.757,238.478 336.95,238.586 337.145,238.686 337.342,238.778 337.541,238.861 337.742,238.937 337.945,239.003 338.149,239.062 338.355,239.111 338.562,239.152 338.77,239.185 338.978,239.209 339.187,239.224 339.396,239.231 339.605,239.229 339.814,239.218 340.022,239.198 340.23,239.17 340.438,239.133 340.644,239.087 340.849,239.034 341.053,238.971 341.255,238.9 341.455,238.821 341.653,238.733 341.849,238.637 342.043,238.533 342.234,238.421 342.422,238.301 342.608,238.173 342.79,238.038 342.969,237.896 343.144,237.745 343.316,237.588 343.483,237.423 343.647,237.252 343.807,237.074 343.962,236.889 344.113,236.698 344.259,236.501 344.4,236.298 344.537,236.089 344.668,235.874 344.794,235.654 344.915,235.429 345.03,235.199 345.14,234.965 345.244,234.726 345.342,234.482 345.435,234.235 345.521,233.984 345.602,233.729 345.676,233.472 345.744,233.211 345.806,232.948 345.861,232.682 345.91,232.414 345.953,232.144 345.989,231.873 346.019,231.6 346.042,231.326 346.058,231.051 346.068,230.775 346.071,230.5"/>
<text fill="#00ffff" style="stroke:none" x="346" y="233" transform="rotate(0, 346, 233)" font-size="10" font-family="SansSerif" font-style="normal" font-weight="normal">-20dB</text>
<text fill="#00ffff" style="stroke:none" x="367" y="213" transform="rotate(0, 367, 213)" font-size="10" font-family="SansSerif" font-style="normal" font-weight="normal">-10dB</text>
<text fill="#00ffff" style="stroke:none" x="400" y="257" transform="rotate(0, 400, 257)" font-size="10" font-family="SansSerif" font-style="normal" font-weight="normal">-6dB</text>
<text fill="#00ffff" style="stroke:none" x="443" y="183" transform="rotate(0, 443, 183)" font-size="10" font-family="SansSerif" font-style="normal" font-weight="normal">-4dB</text>
<text fill="#00ffff" style="stroke:none" x="284" y="135" transform="rotate(0, 284, 135)" font-size="10" font-family="SansSerif" font-style="normal" font-weight="normal">2dB</text>
<text fill="#00ffff" style="stroke:none" x="290" y="274" transform="rotate(0, 290, 274)" font-size="10" font-family="SansSerif" font-style="normal" font-weight="normal">4dB</text>
<text fill="#00ffff" style="stroke:none" x="290" y="200" transform="rotate(0, 290, 200)" font-size="10" font-family="SansSerif" font-style="normal" font-weight="normal">6dB</text>
<text fill="#00ffff" style="stroke:none" x="287" y="244" transform="rotate(0, 287, 244)" font-size="10" font-family="SansSerif" font-style="normal" font-weight="normal">10dB</text>
<text fill="#00ffff" style="stroke:none" x="279" y="224" transform="rotate(0, 279, 224)" font-size="10" font-family="SansSerif" font-style="normal" font-weight="normal">20dB</text>
<text fill="#87ceff" style="stroke:none" x="307" y="272" transform="rotate(0, 307, 272)" font-size="10" font-family="SansSerif" font-style="normal" font-weight="normal">-90&#x00b0;</text>
<text fill="#87ceff" style="stroke:none" x="307" y="303" transform="rotate(0, 307, 303)" font-size="10" font-family="SansSerif" font-style="normal" font-weight="normal">-60&#x00b0;</text>
<text fill="#87ceff" style="stroke:none" x="307" y="333" transform="rotate(0, 307, 333)" font-size="10" font-family="SansSerif" font-style="normal" font-weight="normal">-45&#x00b0;</text>
<text fill="#87ceff" style="stroke:none" x="307" y="390" transform="rotate(0, 307, 390)" font-size="10" font-family="SansSerif" font-style="normal" font-weight="normal">-30&#x00b0;</text>
<text fill="#87ceff" style="stroke:none" x="307" y="67" transform="rotate(0, 307, 67)" font-size="10" font-family="SansSerif" font-style="normal" font-weight="normal">30&#x00b0;</text>
<text fill="#87ceff" style="stroke:none" x="307" y="124" transform="rotate(0, 307, 124)" font-size="10" font-family="SansSerif" font-style="normal" font-weight="normal">45&#x00b0;</text>
<text fill="#87ceff" style="stroke:none" x="307" y="154" transform="rotate(0, 307, 154)" font-size="10" font-family="SansSerif" font-style="normal" font-weight="normal">60&#x00b0;</text>
<text fill="#87ceff" style="stroke:none" x="307" y="185" transform="rotate(0, 307, 185)" font-size="10" font-family="SansSerif" font-style="normal" font-weight="normal">90&#x00b0;</text>
<polyline fill="none" stroke="#000000" stroke-width="0.5" points="76.5,403.375 76.5,57.625"/>
<polyline fill="none" stroke="#000000" stroke-width="0.5" points="76.5,403.375 69.6147,403.375"/>
<polyline fill="none" stroke="#000000" stroke-width="0.5" points="76.5,360.156 69.6147,360.156"/>
<polyline fill="none" stroke="#000000" stroke-width="0.5" points="76.5,316.938 69.6147,316.938"/>
<polyline fill="none" stroke="#000000" stroke-width="0.5" points="76.5,273.719 69.6147,273.719"/>
<polyline fill="none" stroke="#000000" stroke-width="0.5" points="76.5,230.5 69.6147,230.5"/>
<polyline fill="none" stroke="#000000" stroke-width="0.5" points="76.5,187.281 69.6147,187.281"/>
<polyline fill="none" stroke="#000000" stroke-width="0.5" points="76.5,144.062 69.6147,144.062"/>
<polyline fill="none" stroke="#000000" stroke-width="0.5" points="76.5,100.844 69.6147,100.844"/>
<polyline fill="none" stroke="#000000" stroke-width="0.5" points="76.5,57.625 69.6147,57.625"/>
<polyline fill="none" stroke="#000000" stroke-width="0.5" points="76.5,381.766 72.3691,381.766"/>
<polyline fill="none" stroke="#000000" stroke-width="0.5" points="76.5,338.547 72.3691,338.547"/>
<polyline fill="none" stroke="#000000" stroke-width="0.5" points="76.5,295.328 72.3691,295.328"/>
<polyline fill="none" stroke="#000000" stroke-width="0.5" points="76.5,252.109 72.3691,252.109"/>
<polyline fill="none" stroke="#000000" stroke-width="0.5" points="76.5,208.891 72.3691,208.891"/>
<polyline fill="none" stroke="#000000" stroke-width="0.5" points="76.5,165.672 72.3691,165.672"/>
<polyline fill="none" stroke="#000000" stroke-width="0.5" points="76.5,122.453 72.3691,122.453"/>
<polyline fill="none" stroke="#000000" stroke-width="0.5" points="76.5,79.2344 72.3691,79.2344"/>
<text fill="#000000" style="stroke:none" x="46" y="408" transform="rotate(-0, 46, 408)" font-size="10" font-family="SansSerif" font-style="normal" font-weight="normal">-2.0</text>
<text fill="#000000" style="stroke:none" x="46" y="365" transform="rotate(-0, 46, 365)" font-size="10" font-family="SansSerif" font-style="normal" font-weight="normal">-1.5</text>
<text fill="#000000" style="stroke:none" x="46" y="322" transform="rotate(-0, 46, 322)" font-size="10" font-family="SansSerif" font-style="normal" font-weight="normal">-1.0</text>
<text fill="#000000" style="stroke:none" x="46" y="279" transform="rotate(-0, 46, 279)" font-size="10" font-family="SansSerif" font-style="normal" font-weight="normal">-0.5</text>
<text fill="#000000" style="stroke:none" x="51" y="235" transform="rotate(-0, 51, 235)" font-size="10" font-family="SansSerif" font-style="normal" font-weight="normal">0.0</text>
<text fill="#000000" style="stroke:none" x="52" y="192" transform="rotate(-0, 52, 192)" font-size="10" font-family="SansSerif" font-style="normal" font-weight="normal">0.5</text>
<text fill="#000000" style="stroke:none" x="52" y="149" transform="rotate(-0, 52, 149)" font-size="10" font-family="SansSerif" font-style="normal" font-weight="normal">1.0</text>
<text fill="#000000" style="stroke:none" x="53" y="106" transform="rotate(-0, 53, 106)" font-size="10" font-family="SansSerif" font-style="normal" font-weight="normal">1.5</text>
<text fill="#000000" style="stroke:none" x="52" y="63" transform="rotate(-0, 52, 63)" font-size="10" font-family="SansSerif" font-style="normal" font-weight="normal">2.0</text>
<polyline fill="none" stroke="#000000" stroke-width="0.5" points="76.5,403.375 535.5,403.375"/>
<polyline fill="none" stroke="#000000" stroke-width="0.5" points="76.5,403.375 76.5,408.55"/>
<polyline fill="none" stroke="#000000" stroke-width="0.5" points="142.071,403.375 142.071,408.55"/>
<polyline fill="none" stroke="#000000" stroke-width="0.5" points="207.643,403.375 207.643,408.55"/>
<polyline fill="none" stroke="#000000" stroke-width="0.5" points="273.214,403.375 273.214,408.55"/>
<polyline fill="none" stroke="#000000" stroke-width="0.5" points="338.786,403.375 338.786,408.55"/>
<polyline fill="none" stroke="#000000" stroke-width="0.5" points="404.357,403.375 404.357,408.55"/>
<polyline fill="none" stroke="#000000" stroke-width="0.5" points="469.929,403.375 469.929,408.55"/>
<polyline fill="none" stroke="#000000" stroke-width="0.5" points="535.5,403.375 535.5,408.55"/>
<polyline fill="none" stroke="#000000" stroke-width="0.5" points="98.3569,403.375 98.3569,406.48"/>
<polyline fill="none" stroke="#000000" stroke-width="0.5" points="120.214,403.375 120.214,406.48"/>
<polyline fill="none" stroke="#000000" stroke-width="0.5" points="163.929,403.375 163.929,406.48"/>
<polyline fill="none" stroke="#000000" stroke-width="0.5" points="185.786,403.375 185.786,406.48"/>
<polyline fill="none" stroke="#000000" stroke-width="0.5" points="229.5,403.375 229.5,406.48"/>
<polyline fill="none" stroke="#000000" stroke-width="0.5" points="251.357,403.375 251.357,406.48"/>
<polyline fill="none" stroke="#000000" stroke-width="0.5" points="295.071,403.375 295.071,406.48"/>
<polyline fill="none" stroke="#000000" stroke-width="0.5" points="316.929,403.375 316.929,406.48"/>
<polyline fill="none" stroke="#000000" stroke-width="0.5" points="360.643,403.375 360.643,406.48"/>
<polyline fill="none" stroke="#000000" stroke-width="0.5" points="382.5,403.375 382.5,406.48"/>
<polyline fill="none" stroke="#000000" stroke-width="0.5" points="426.214,403.375 426.214,406.48"/>
<polyline fill="none" stroke="#000000" stroke-width="0.5" points="448.071,403.375 448.071,406.48"/>
<polyline fill="none" stroke="#000000" stroke-width="0.5" points="491.786,403.375 491.786,406.48"/>
<polyline fill="none" stroke="#000000" stroke-width="0.5" points="513.643,403.375 513.643,406.48"/>
<text fill="#000000" style="stroke:none" x="70" y="420" transform="rotate(-0, 70, 420)" font-size="10" font-family="SansSerif" font-style="normal" font-weight="normal">-4</text>
<text fill="#000000" style="stroke:none" x="136" y="420" transform="rotate(-0, 136, 420)" font-size="10" font-family="SansSerif" font-style="normal" font-weight="normal">-3</text>
<text fill="#000000" style="stroke:none" x="201" y="420" transform="rotate(-0, 201, 420)" font-size="10" font-family="SansSerif" font-style="normal" font-weight="normal">-2</text>
<text fill="#000000" style="stroke:none" x="267" y="420" transform="rotate(-0, 267, 420)" font-size="10" font-family="SansSerif" font-style="normal" font-weight="normal">-1</text>
<text fill="#000000" style="stroke:none" x="335" y="420" transform="rotate(-0, 335, 420)" font-size="10" font-family="SansSerif" font-style="normal" font-weight="normal">0</text>
<text fill="#000000" style="stroke:none" x="401" y="420" transform="rotate(-0, 401, 420)" font-size="10" font-family="SansSerif" font-style="normal" font-weight="normal">1</text>
<text fill="#000000" style="stroke:none" x="466" y="420" transform="rotate(-0, 466, 420)" font-size="10" font-family="SansSerif" font-style="normal" font-weight="normal">2</text>
<text fill="#000000" style="stroke:none" x="532" y="420" transform="rotate(-0, 532, 420)" font-size="10" font-family="SansSerif" font-style="normal" font-weight="normal">3</text>
<text fill="#000000" style="stroke:none" x="280" y="50" transform="rotate(0, 280, 50)" font-size="10" font-family="SansSerif" font-style="normal" font-weight="normal">Hall chart</text>
<text fill="#000000" style="stroke:none" x="282" y="433" transform="rotate(0, 282, 433)" font-size="10" font-family="SansSerif" font-style="normal" font-weight="normal">Real axis</text>
<text fill="#000000" style="stroke:none" x="38" y="269" transform="rotate(270, 38, 269)" font-size="10" font-family="SansSerif" font-style="normal" font-weight="normal">Imaginary axis</text>
</g>
</svg>
