<?xml version="1.0" encoding="UTF-8" standalone="no"?>
<svg xmlns="http://www.w3.org/2000/svg"
     xmlns:xlink="http://www.w3.org/1999/xlink"
     width="555px" height="361px" viewBox="0 0 555 361"
     style="stroke:none">
<title>Graphic window number 0</title>
<desc>
Creator: GL2PS 1.3.2, (C) 1999-2006 Christophe Geuzaine (geuz@geuz.org)
For: Scilab
CreationDate: Wed Apr 14 17:15:12 2010
</desc>
<defs>
</defs>
<polygon fill="#ffffff" points="0,0 555,0 555,361 0,361"/>
<g>
<polyline fill="none" stroke="#000000" stroke-width="0.5" points="69.375,315.875 69.375,45.125 69.375,45.125 485.625,45.125 485.625,315.875 485.625,315.875 69.375,315.875"/>
<polyline fill="none" stroke="#000000" stroke-width="0.5" points="485.625,45.125 69.375,45.125"/>
<polyline fill="none" stroke="#000000" stroke-width="0.5" points="485.625,45.125 485.625,315.875"/>
<polyline fill="none" stroke="#000000" stroke-width="0.5" points="485.625,45.125 485.625,45.125"/>
<polygon fill="#ffffff" points="69.375,315.875 69.375,45.125 69.375,45.125"/>
<polygon fill="#ffffff" points="69.375,315.875 69.375,45.125 69.375,315.875"/>
<polygon fill="#ffffff" points="69.375,315.875 485.625,315.875 485.625,315.875"/>
<polygon fill="#ffffff" points="69.375,315.875 485.625,315.875 69.375,315.875"/>
<polygon fill="#ffffff" points="69.375,315.875 485.625,315.875 485.625,45.125"/>
<polygon fill="#ffffff" points="69.375,315.875 485.625,45.125 69.375,45.125"/>
<polyline fill="none" stroke="#87ceff" stroke-width="0.5" stroke-dasharray="1,1,1,1,1,1,1,1,1,1" points="255.894,315.878 256,257.958 257.988,234.488 259.975,221.623 261.962,212.724 263.95,205.923 265.938,200.426"/>
<polyline fill="none" stroke="#87ceff" stroke-width="0.5" stroke-dasharray="1,1,1,1,1,1,1,1,1,1" points="289.062,200.426 291.05,205.923 293.038,212.724 295.025,221.623 297.012,234.488 299,257.958 299.106,315.878"/>
<polyline fill="none" stroke="#87ceff" stroke-width="0.5" stroke-dasharray="1,1,1,1,1,1,1,1,1,1" points="162.588,315.878 162.59,313.173 164.578,274.102 166.565,257.915 168.553,247.554 170.54,239.929 172.527,233.902 174.515,228.925 176.502,224.693 178.49,221.017 180.478,217.774 182.465,214.878 184.452,212.266 186.439,209.891 188.427,207.718 190.415,205.72 192.402,203.874 194.39,202.162 196.377,200.569 198.364,199.083 200.352,197.694 202.339,196.393 204.327,195.173 206.314,194.026 208.302,192.948 210.289,191.934 212.276,190.979 214.264,190.08 216.251,189.233 218.239,188.436 220.226,187.686 222.214,186.979 224.201,186.316 226.188,185.693 228.176,185.109 230.164,184.562 232.151,184.051 234.138,183.575 236.126,183.133 238.113,182.723 240.101,182.345 242.088,181.998 244.076,181.681 246.063,181.393 248.05,181.135 250.038,180.905 252.025,180.703 254.013,180.529 256,180.382 257.988,180.262 259.975,180.169 261.962,180.103 263.95,180.063 265.938,180.05"/>
<polyline fill="none" stroke="#87ceff" stroke-width="0.5" stroke-dasharray="1,1,1,1,1,1,1,1,1,1" points="289.062,180.05 291.05,180.063 293.038,180.103 295.025,180.169 297.012,180.262 299,180.382 300.987,180.529 302.975,180.703 304.962,180.905 306.95,181.135 308.937,181.393 310.924,181.681 312.912,181.998 314.899,182.345 316.887,182.723 318.874,183.133 320.862,183.575 322.849,184.051 324.836,184.562 326.824,185.109 328.812,185.693 330.799,186.316 332.786,186.979 334.774,187.686 336.761,188.436 338.749,189.233 340.736,190.08 342.724,190.979 344.711,191.934 346.699,192.948 348.686,194.026 350.673,195.173 352.661,196.393 354.648,197.694 356.636,199.083 358.623,200.569 360.611,202.162 362.598,203.874 364.585,205.72 366.573,207.718 368.561,209.891 370.548,212.266 372.535,214.878 374.523,217.774 376.51,221.017 378.498,224.693 380.485,228.925 382.473,233.902 384.46,239.929 386.447,247.554 388.435,257.915 390.422,274.102 392.41,313.173 392.412,315.878"/>
<polyline fill="none" stroke="#87ceff" stroke-width="0.5" stroke-dasharray="1,1,1,1,1,1,1,1,1,1" points="116.833,315.878 116.879,284.129 118.866,256.221 120.854,242.183 122.841,232.74 124.829,225.625 126.816,219.923 128.804,215.172 130.791,211.106 132.778,207.558 134.766,204.417 136.753,201.603 138.741,199.059 140.729,196.742 142.716,194.619 144.703,192.664 146.691,190.856 148.678,189.178 150.666,187.615 152.653,186.156 154.641,184.792 156.628,183.513 158.615,182.313 160.603,181.186 162.59,180.126 164.578,179.128 166.565,178.189 168.553,177.304 170.54,176.471 172.527,175.687 174.515,174.949 176.502,174.254 178.49,173.602 180.478,172.99 182.465,172.416 184.452,171.878 186.439,171.377 188.427,170.911 190.415,170.477 192.402,170.076 194.39,169.706 196.377,169.367 198.364,169.058 200.352,168.779 202.339,168.528 204.327,168.306 206.314,168.112 208.302,167.945 210.289,167.805 212.276,167.693 214.264,167.607 216.251,167.548 218.239,167.516 220.226,167.51 222.214,167.53 224.201,167.577 226.188,167.65 228.176,167.75 230.164,167.877 232.151,168.032 234.138,168.213 236.126,168.423 238.113,168.661 240.101,168.927 242.088,169.222 244.076,169.547 246.063,169.903 248.05,170.289 250.038,170.708 252.025,171.159 254.013,171.645 256,172.165 257.988,172.722 259.975,173.316 261.962,173.951 263.95,174.625 265.938,175.343"/>
<polyline fill="none" stroke="#87ceff" stroke-width="0.5" stroke-dasharray="1,1,1,1,1,1,1,1,1,1" points="289.062,175.343 291.05,174.625 293.038,173.951 295.025,173.316 297.012,172.722 299,172.165 300.987,171.645 302.975,171.159 304.962,170.708 306.95,170.289 308.937,169.903 310.924,169.547 312.912,169.222 314.899,168.927 316.887,168.661 318.874,168.423 320.862,168.213 322.849,168.032 324.836,167.877 326.824,167.75 328.812,167.65 330.799,167.577 332.786,167.53 334.774,167.51 336.761,167.516 338.749,167.548 340.736,167.607 342.724,167.693 344.711,167.805 346.699,167.945 348.686,168.112 350.673,168.306 352.661,168.528 354.648,168.779 356.636,169.058 358.623,169.367 360.611,169.706 362.598,170.076 364.585,170.477 366.573,170.911 368.561,171.377 370.548,171.878 372.535,172.416 374.523,172.99 376.51,173.602 378.498,174.254 380.485,174.949 382.473,175.687 384.46,176.471 386.447,177.304 388.435,178.189 390.422,179.128 392.41,180.126 394.397,181.186 396.385,182.313 398.372,183.513 400.359,184.792 402.347,186.156 404.334,187.615 406.322,189.178 408.31,190.856 410.297,192.664 412.284,194.619 414.271,196.742 416.259,199.059 418.247,201.603 420.234,204.417 422.222,207.558 424.209,211.106 426.196,215.172 428.184,219.923 430.171,225.625 432.159,232.74 434.146,242.183 436.134,256.221 438.121,284.129 438.167,315.878"/>
<polyline fill="none" stroke="#87ceff" stroke-width="0.5" stroke-dasharray="1,1,1,1,1,1,1,1,1,1" points="93.0142,315.878 93.0298,290.918 95.0171,245.104 97.0044,228.011 98.9917,217.292 100.979,209.474 102.967,203.326 104.954,198.266 106.942,193.973 108.929,190.252 110.917,186.973 112.904,184.047 114.892,181.41 116.879,179.015 118.866,176.825 120.854,174.811 122.841,172.952 124.829,171.228 126.816,169.625 128.804,168.129 130.791,166.731 132.778,165.422 134.766,164.195 136.753,163.042 138.741,161.958 140.729,160.938 142.716,159.977 144.703,159.073 146.691,158.222 148.678,157.42 150.666,156.665 152.653,155.955 154.641,155.288 156.628,154.661 158.615,154.073 160.603,153.523 162.59,153.009 164.578,152.529 166.565,152.083 168.553,151.671 170.54,151.29 172.527,150.94 174.515,150.62 176.502,150.33 178.49,150.069 180.478,149.836 182.465,149.632 184.452,149.455 186.439,149.306 188.427,149.183 190.415,149.088 192.402,149.019 194.39,148.977 196.377,148.961 198.364,148.972 200.352,149.009 202.339,149.073 204.327,149.164 206.314,149.281 208.302,149.425 210.289,149.597 212.276,149.796 214.264,150.023 216.251,150.279 218.239,150.563 220.226,150.878 222.214,151.222 224.201,151.597 226.188,152.004 228.176,152.443 230.164,152.917 232.151,153.424 234.138,153.967 236.126,154.548 238.113,155.167 240.101,155.827 242.088,156.529 244.076,157.275 246.063,158.068 248.05,158.91 250.038,159.804 252.025,160.753 254.013,161.762 256,162.834 257.988,163.974 259.975,165.187 261.962,166.48 263.95,167.861 265.938,169.337"/>
<polyline fill="none" stroke="#87ceff" stroke-width="0.5" stroke-dasharray="1,1,1,1,1,1,1,1,1,1" points="289.062,169.337 291.05,167.861 293.038,166.48 295.025,165.187 297.012,163.974 299,162.834 300.987,161.762 302.975,160.753 304.962,159.804 306.95,158.91 308.937,158.068 310.924,157.275 312.912,156.529 314.899,155.827 316.887,155.167 318.874,154.548 320.862,153.967 322.849,153.424 324.836,152.917 326.824,152.443 328.812,152.004 330.799,151.597 332.786,151.222 334.774,150.878 336.761,150.563 338.749,150.279 340.736,150.023 342.724,149.796 344.711,149.597 346.699,149.425 348.686,149.281 350.673,149.164 352.661,149.073 354.648,149.009 356.636,148.972 358.623,148.961 360.611,148.977 362.598,149.019 364.585,149.088 366.573,149.183 368.561,149.306 370.548,149.455 372.535,149.632 374.523,149.836 376.51,150.069 378.498,150.33 380.485,150.62 382.473,150.94 384.46,151.29 386.447,151.671 388.435,152.083 390.422,152.529 392.41,153.009 394.397,153.523 396.385,154.073 398.372,154.661 400.359,155.288 402.347,155.955 404.334,156.665 406.322,157.42 408.31,158.222 410.297,159.073 412.284,159.977 414.271,160.938 416.259,161.958 418.247,163.042 420.234,164.195 422.222,165.422 424.209,166.731 426.196,168.129 428.184,169.625 430.171,171.228 432.159,172.952 434.146,174.811 436.134,176.825 438.121,179.015 440.108,181.41 442.096,184.047 444.083,186.973 446.071,190.252 448.058,193.973 450.046,198.266 452.033,203.326 454.021,209.474 456.008,217.292 457.996,228.011 459.983,245.104 461.97,290.918 461.986,315.878"/>
<polyline fill="none" stroke="#87ceff" stroke-width="0.5" stroke-dasharray="1,1,1,1,1,1,1,1,1,1" points="69.3711,180.515 71.1675,178.402 73.1553,176.263 75.1426,174.293 77.1299,172.472 79.1177,170.782 81.105,169.209 83.0923,167.741 85.0796,166.368 87.0674,165.082 89.0547,163.875 91.042,162.741 93.0298,161.675 95.0171,160.671 97.0044,159.727 98.9917,158.837 100.979,158 102.967,157.21 104.954,156.468 106.942,155.77 108.929,155.114 110.917,154.498 112.904,153.92 114.892,153.38 116.879,152.875 118.866,152.405 120.854,151.969 122.841,151.564 124.829,151.192 126.816,150.85 128.804,150.539 130.791,150.256 132.778,150.003 134.766,149.778 136.753,149.581 138.741,149.412 140.729,149.27 142.716,149.155 144.703,149.066 146.691,149.005 148.678,148.97 150.666,148.961 152.653,148.979 154.641,149.024 156.628,149.095 158.615,149.192 160.603,149.317 162.59,149.469 164.578,149.648 166.565,149.855 168.553,150.09 170.54,150.353 172.527,150.646 174.515,150.968 176.502,151.321 178.49,151.705 180.478,152.12 182.465,152.568 184.452,153.05 186.439,153.568 188.427,154.121 190.415,154.712 192.402,155.342 194.39,156.013 196.377,156.727 198.364,157.485 200.352,158.291 202.339,159.147 204.327,160.056 206.314,161.021 208.302,162.046 210.289,163.136 212.276,164.295 214.264,165.529 216.251,166.846 218.239,168.251 220.226,169.755 222.214,171.368 224.201,173.103 226.188,174.975 228.176,177.002 230.164,179.208 232.151,181.622 234.138,184.281 236.126,187.234 238.113,190.547 240.101,194.311 242.088,198.659 244.076,203.795 246.063,210.057 248.05,218.057 250.038,229.123 252.025,247.126 254.013,302.087 256,257.958 257.988,234.488 259.975,221.623 261.962,212.724 263.95,205.923 265.938,200.426"/>
<polyline fill="none" stroke="#87ceff" stroke-width="0.5" stroke-dasharray="1,1,1,1,1,1,1,1,1,1" points="289.062,200.426 291.05,205.923 293.038,212.724 295.025,221.623 297.012,234.488 299,257.958 300.987,302.087 302.975,247.126 304.962,229.123 306.95,218.057 308.937,210.057 310.924,203.795 312.912,198.659 314.899,194.311 316.887,190.547 318.874,187.234 320.862,184.281 322.849,181.622 324.836,179.208 326.824,177.002 328.812,174.975 330.799,173.103 332.786,171.368 334.774,169.755 336.761,168.251 338.749,166.846 340.736,165.529 342.724,164.295 344.711,163.136 346.699,162.046 348.686,161.021 350.673,160.056 352.661,159.147 354.648,158.291 356.636,157.485 358.623,156.727 360.611,156.013 362.598,155.342 364.585,154.712 366.573,154.121 368.561,153.568 370.548,153.05 372.535,152.568 374.523,152.12 376.51,151.705 378.498,151.321 380.485,150.968 382.473,150.646 384.46,150.353 386.447,150.09 388.435,149.855 390.422,149.648 392.41,149.469 394.397,149.317 396.385,149.192 398.372,149.095 400.359,149.024 402.347,148.979 404.334,148.961 406.322,148.97 408.31,149.005 410.297,149.066 412.284,149.155 414.271,149.27 416.259,149.412 418.247,149.581 420.234,149.778 422.222,150.003 424.209,150.256 426.196,150.539 428.184,150.85 430.171,151.192 432.159,151.564 434.146,151.969 436.134,152.405 438.121,152.875 440.108,153.38 442.096,153.92 444.083,154.498 446.071,155.114 448.058,155.77 450.046,156.468 452.033,157.21 454.021,158 456.008,158.837 457.996,159.727 459.983,160.671 461.97,161.675 463.958,162.741 465.945,163.875 467.933,165.082 469.92,166.368 471.908,167.741 473.895,169.209 475.883,170.782 477.87,172.472 479.857,174.293 481.845,176.263 483.833,178.402 485.629,180.515"/>
<polyline fill="none" stroke="#87ceff" stroke-width="0.5" stroke-dasharray="1,1,1,1,1,1,1,1,1,1" points="69.3711,182.764 71.1675,152.986 73.1553,137.858 75.1426,127.939 77.1299,120.556 79.1177,114.682 81.105,109.811 83.0923,105.656 85.0796,102.04 87.0674,98.8438 89.0547,95.9854 91.042,93.4048 93.0298,91.0571 95.0171,88.9072 97.0044,86.9292 98.9917,85.1006 100.979,83.4038 102.967,81.8252 104.954,80.3516 106.942,78.9741 108.929,77.6836 110.917,76.4722 112.904,75.3345 114.892,74.2646 116.879,73.2583 118.866,72.3105 120.854,71.418 122.841,70.5776 124.829,69.7861 126.816,69.0415 128.804,68.3408 130.791,67.6821 132.778,67.064 134.766,66.4849 136.753,65.9424 138.741,65.436 140.729,64.9639 142.716,64.5259 144.703,64.1196 146.691,63.7456 148.678,63.4023 150.666,63.0889 152.653,62.8052 154.641,62.5503 156.628,62.3237 158.615,62.1255 160.603,61.9546 162.59,61.811 164.578,61.6948 166.565,61.605 168.553,61.542 170.54,61.5059 172.527,61.4956 174.515,61.5122 176.502,61.5552 178.49,61.625 180.478,61.7212 182.465,61.8442 184.452,61.9946 186.439,62.1719 188.427,62.3774 190.415,62.6108 192.402,62.8726 194.39,63.1636 196.377,63.4844 198.364,63.8354 200.352,64.2173 202.339,64.6313 204.327,65.0776 206.314,65.5581 208.302,66.0732 210.289,66.625 212.276,67.2139 214.264,67.8418 216.251,68.5103 218.239,69.2217 220.226,69.978 222.214,70.7812 224.201,71.6343 226.188,72.54 228.176,73.502 230.164,74.5239 232.151,75.6099 234.138,76.7651 236.126,77.9956 238.113,79.3071 240.101,80.7075 242.088,82.2061 244.076,83.813 246.063,85.5405 248.05,87.4048 250.038,89.4233 252.025,91.6191 254.013,94.021 256,96.6655 257.988,99.6016 259.975,102.893 261.962,106.629 263.95,110.942 265.938,116.029"/>
<polyline fill="none" stroke="#87ceff" stroke-width="0.5" stroke-dasharray="1,1,1,1,1,1,1,1,1,1" points="289.062,116.029 291.05,110.942 293.038,106.629 295.025,102.893 297.012,99.6016 299,96.6655 300.987,94.021 302.975,91.6191 304.962,89.4233 306.95,87.4048 308.937,85.5405 310.924,83.813 312.912,82.2061 314.899,80.7075 316.887,79.3071 318.874,77.9956 320.862,76.7651 322.849,75.6099 324.836,74.5239 326.824,73.502 328.812,72.54 330.799,71.6343 332.786,70.7812 334.774,69.978 336.761,69.2217 338.749,68.5103 340.736,67.8418 342.724,67.2139 344.711,66.625 346.699,66.0732 348.686,65.5581 350.673,65.0776 352.661,64.6313 354.648,64.2173 356.636,63.8354 358.623,63.4844 360.611,63.1636 362.598,62.8726 364.585,62.6108 366.573,62.3774 368.561,62.1719 370.548,61.9946 372.535,61.8442 374.523,61.7212 376.51,61.625 378.498,61.5552 380.485,61.5122 382.473,61.4956 384.46,61.5059 386.447,61.542 388.435,61.605 390.422,61.6948 392.41,61.811 394.397,61.9546 396.385,62.1255 398.372,62.3237 400.359,62.5503 402.347,62.8052 404.334,63.0889 406.322,63.4023 408.31,63.7456 410.297,64.1196 412.284,64.5259 414.271,64.9639 416.259,65.436 418.247,65.9424 420.234,66.4849 422.222,67.064 424.209,67.6821 426.196,68.3408 428.184,69.0415 430.171,69.7861 432.159,70.5776 434.146,71.418 436.134,72.3105 438.121,73.2583 440.108,74.2646 442.096,75.3345 444.083,76.4722 446.071,77.6836 448.058,78.9741 450.046,80.3516 452.033,81.8252 454.021,83.4038 456.008,85.1006 457.996,86.9292 459.983,88.9072 461.97,91.0571 463.958,93.4048 465.945,95.9854 467.933,98.8438 469.92,102.04 471.908,105.656 473.895,109.811 475.883,114.682 477.87,120.556 479.857,127.939 481.845,137.858 483.833,152.986 485.629,182.764"/>
<polyline fill="none" stroke="#00ffff" stroke-width="0.5" stroke-dasharray="1,1,1,1,1,1,1,1,1,1" points="277.5,160.054 277.416,160.054 277.332,160.054 277.247,160.055 277.163,160.055 277.079,160.055 276.995,160.056 276.91,160.057 276.826,160.057 276.742,160.058 276.658,160.059 276.573,160.06 276.489,160.061 276.405,160.062 276.321,160.063 276.237,160.065 276.152,160.066 276.068,160.068 275.984,160.069 275.9,160.071 275.816,160.073 275.732,160.075 275.648,160.077 275.564,160.079 275.479,160.082 275.396,160.084 275.312,160.086 275.228,160.089 275.144,160.091 275.06,160.094 274.976,160.097 274.892,160.1 274.808,160.103 274.725,160.105 274.641,160.109 274.557,160.112 274.473,160.116 274.389,160.119 274.306,160.123 274.222,160.126 274.138,160.13 274.055,160.134 273.971,160.138 273.888,160.142 273.804,160.146 273.721,160.15 273.637,160.154 273.554,160.159 273.471,160.163 273.387,160.167 273.304,160.172 273.221,160.177 273.138,160.182 273.055,160.187 272.971,160.192 272.888,160.197 272.805,160.202 272.722,160.208 272.639,160.213 272.557,160.218 272.474,160.224 272.391,160.229 272.308,160.235 272.226,160.241 272.143,160.247 272.06,160.253 271.978,160.259 271.895,160.266 271.813,160.272 271.73,160.278 271.648,160.285 271.566,160.291 271.483,160.298 271.401,160.305 271.319,160.312 271.237,160.318 271.155,160.325 271.073,160.333 270.992,160.34 270.91,160.347 270.91,160.347 268.945,160.551 267.026,160.805 265.163,161.105 263.361,161.451 261.63,161.836 259.972,162.258 258.394,162.713 256.896,163.198 255.483,163.708 254.155,164.24 252.911,164.791 251.752,165.356 250.676,165.935 249.681,166.523 248.766,167.119 247.928,167.72 247.165,168.323 246.473,168.927 245.85,169.531 245.292,170.133 244.798,170.731 244.364,171.326 243.988,171.915 243.666,172.498 243.395,173.074 243.174,173.643 243,174.204 242.87,174.756 242.781,175.3 242.733,175.834 242.723,176.36 242.748,176.876 242.807,177.384 242.898,177.881 243.021,178.369 243.171,178.847 243.35,179.315 243.554,179.774 243.784,180.223 244.036,180.662 244.311,181.092 244.607,181.513 244.923,181.923 245.259,182.325 245.612,182.717 245.983,183.101 246.371,183.475 246.773,183.84 247.191,184.196 247.624,184.543 248.069,184.882 248.527,185.212 248.998,185.534 249.48,185.847 249.974,186.152 250.478,186.449 250.992,186.737 251.516,187.018 252.049,187.291 252.591,187.555 253.142,187.812 253.7,188.062 254.266,188.303 254.839,188.538 255.418,188.764 256.005,188.983 256.598,189.196 257.197,189.4 257.802,189.598 258.412,189.789 259.027,189.973 259.647,190.149 260.271,190.319 260.901,190.482 261.534,190.638 262.171,190.787 262.812,190.93 263.457,191.066 264.105,191.195 264.756,191.318 265.41,191.434 266.067,191.544 266.727,191.647 267.389,191.744 268.053,191.834 268.719,191.918 269.387,191.997 270.057,192.068 270.729,192.133 271.402,192.192 272.076,192.245 272.751,192.291 273.428,192.331 274.105,192.365 274.784,192.393 275.462,192.415 276.141,192.43 276.82,192.439 277.5,192.442 278.18,192.439 278.859,192.43 279.538,192.415 280.217,192.393 280.895,192.365 281.572,192.331 282.249,192.291 282.924,192.245 283.599,192.192 284.271,192.133 284.943,192.068 285.613,191.997 286.281,191.918 286.947,191.834 287.612,191.744 288.273,191.647 288.933,191.544 289.59,191.434 290.244,191.318 290.895,191.195 291.543,191.066 292.188,190.93 292.829,190.787 293.466,190.638 294.099,190.482 294.729,190.319 295.353,190.149 295.973,189.973 296.588,189.789 297.198,189.598 297.803,189.4 298.402,189.196 298.995,188.983 299.582,188.764 300.162,188.538 300.734,188.303 301.3,188.062 301.858,187.812 302.409,187.555 302.951,187.291 303.484,187.018 304.008,186.737 304.522,186.449 305.026,186.152 305.52,185.847 306.002,185.534 306.473,185.212 306.931,184.882 307.376,184.543 307.809,184.196 308.227,183.84 308.629,183.475 309.017,183.101 309.388,182.717 309.741,182.325 310.077,181.923 310.393,181.513 310.689,181.092 310.964,180.662 311.217,180.223 311.446,179.774 311.65,179.315 311.829,178.847 311.979,178.369 312.102,177.881 312.193,177.384 312.252,176.876 312.277,176.36 312.267,175.834 312.219,175.3 312.131,174.756 312,174.204 311.826,173.643 311.605,173.074 311.334,172.498 311.012,171.915 310.636,171.326 310.202,170.731 309.708,170.133 309.151,169.531 308.528,168.927 307.836,168.323 307.072,167.72 306.234,167.119 305.319,166.523 304.324,165.935 303.248,165.356 302.089,164.791 300.845,164.24 299.517,163.708 298.104,163.198 296.606,162.713 295.028,162.258 293.371,161.836 291.639,161.451 289.837,161.105 287.974,160.805 286.055,160.551 284.09,160.347 284.09,160.347 284.008,160.34 283.927,160.333 283.845,160.325 283.763,160.318 283.681,160.312 283.599,160.305 283.517,160.298 283.434,160.291 283.352,160.285 283.27,160.278 283.188,160.272 283.105,160.266 283.022,160.259 282.94,160.253 282.857,160.247 282.774,160.241 282.692,160.235 282.609,160.229 282.526,160.224 282.443,160.218 282.361,160.213 282.278,160.208 282.195,160.202 282.112,160.197 282.029,160.192 281.946,160.187 281.862,160.182 281.779,160.177 281.696,160.172 281.613,160.167 281.529,160.163 281.446,160.159 281.363,160.154 281.279,160.15 281.196,160.146 281.112,160.142 281.029,160.138 280.945,160.134 280.862,160.13 280.778,160.126 280.694,160.123 280.611,160.119 280.527,160.116 280.443,160.112 280.359,160.109 280.276,160.105 280.192,160.103 280.108,160.1 280.024,160.097 279.94,160.094 279.856,160.091 279.772,160.089 279.688,160.086 279.604,160.084 279.521,160.082 279.437,160.079 279.352,160.077 279.268,160.075 279.184,160.073 279.1,160.071 279.016,160.069 278.932,160.068 278.848,160.066 278.764,160.065 278.679,160.063 278.595,160.062 278.511,160.061 278.427,160.06 278.342,160.059 278.258,160.058 278.174,160.057 278.09,160.057 278.005,160.056 277.921,160.055 277.837,160.055 277.753,160.055 277.668,160.054 277.584,160.054 277.5,160.054"/>
<polyline fill="none" stroke="#00ffff" stroke-width="0.5" stroke-dasharray="1,1,1,1,1,1,1,1,1,1" points="277.5,144.318 277.297,144.319 277.093,144.319 276.89,144.32 276.687,144.322 276.484,144.323 276.281,144.326 276.078,144.328 275.875,144.331 275.671,144.334 275.468,144.338 275.266,144.342 275.062,144.347 274.86,144.352 274.657,144.357 274.455,144.362 274.252,144.369 274.05,144.375 273.847,144.382 273.645,144.389 273.443,144.396 273.241,144.404 273.04,144.413 272.838,144.421 272.636,144.431 272.435,144.44 272.234,144.45 272.033,144.46 271.832,144.471 271.631,144.482 271.431,144.494 271.23,144.505 271.031,144.518 270.831,144.53 270.631,144.543 270.432,144.556 270.232,144.57 270.033,144.583 269.834,144.598 269.636,144.613 269.438,144.628 269.24,144.644 269.042,144.659 268.844,144.675 268.647,144.692 268.45,144.709 268.253,144.727 268.057,144.744 267.861,144.762 267.665,144.78 267.47,144.799 267.274,144.818 267.079,144.837 266.885,144.857 266.69,144.877 266.497,144.898 266.303,144.919 266.109,144.94 265.917,144.961 265.724,144.983 265.532,145.005 265.34,145.028 265.148,145.051 264.957,145.074 264.766,145.098 264.576,145.122 264.386,145.146 264.196,145.17 264.007,145.195 263.818,145.22 263.629,145.246 263.441,145.271 263.254,145.298 263.066,145.324 262.88,145.351 262.693,145.378 262.507,145.406 262.322,145.433 262.137,145.461 261.952,145.49 261.952,145.49 257.611,146.266 253.573,147.191 249.863,148.238 246.492,149.375 243.458,150.579 240.748,151.826 238.344,153.097 236.225,154.378 234.368,155.656 232.75,156.924 231.347,158.173 230.141,159.399 229.11,160.6 228.239,161.771 227.51,162.912 226.91,164.021 226.426,165.1 226.047,166.146 225.762,167.163 225.563,168.148 225.443,169.104 225.393,170.031 225.406,170.93 225.479,171.802 225.605,172.647 225.781,173.467 226.001,174.263 226.263,175.034 226.563,175.783 226.898,176.509 227.266,177.214 227.663,177.898 228.088,178.562 228.54,179.208 229.015,179.834 229.512,180.442 230.03,181.034 230.568,181.608 231.124,182.166 231.696,182.708 232.285,183.234 232.888,183.746 233.506,184.243 234.136,184.726 234.779,185.195 235.434,185.652 236.1,186.095 236.775,186.525 237.461,186.944 238.155,187.35 238.859,187.745 239.57,188.127 240.29,188.5 241.017,188.86 241.75,189.211 242.491,189.551 243.237,189.88 243.989,190.2 244.748,190.51 245.511,190.81 246.279,191.1 247.053,191.381 247.831,191.654 248.612,191.917 249.399,192.171 250.189,192.417 250.983,192.654 251.78,192.882 252.581,193.103 253.385,193.314 254.191,193.518 255.001,193.714 255.813,193.902 256.628,194.083 257.446,194.255 258.266,194.419 259.087,194.577 259.912,194.727 260.737,194.869 261.565,195.004 262.394,195.132 263.225,195.252 264.057,195.366 264.891,195.472 265.726,195.571 266.562,195.663 267.399,195.748 268.238,195.826 269.077,195.897 269.917,195.962 270.758,196.02 271.599,196.07 272.441,196.114 273.283,196.151 274.126,196.182 274.969,196.205 275.813,196.222 276.656,196.232 277.5,196.235 278.344,196.232 279.187,196.222 280.031,196.205 280.874,196.182 281.717,196.151 282.559,196.114 283.401,196.07 284.243,196.02 285.083,195.962 285.923,195.897 286.762,195.826 287.601,195.748 288.438,195.663 289.274,195.571 290.109,195.472 290.943,195.366 291.775,195.252 292.606,195.132 293.436,195.004 294.263,194.869 295.089,194.727 295.913,194.577 296.734,194.419 297.554,194.255 298.372,194.083 299.187,193.902 299.999,193.714 300.809,193.518 301.615,193.314 302.419,193.103 303.22,192.882 304.017,192.654 304.811,192.417 305.601,192.171 306.388,191.917 307.17,191.654 307.947,191.381 308.721,191.1 309.489,190.81 310.252,190.51 311.011,190.2 311.763,189.88 312.51,189.551 313.25,189.211 313.983,188.86 314.71,188.5 315.43,188.127 316.141,187.745 316.845,187.35 317.539,186.944 318.225,186.525 318.901,186.095 319.566,185.652 320.221,185.195 320.864,184.726 321.494,184.243 322.112,183.746 322.715,183.234 323.304,182.708 323.876,182.166 324.432,181.608 324.97,181.034 325.488,180.442 325.985,179.834 326.46,179.208 326.912,178.562 327.337,177.898 327.734,177.214 328.102,176.509 328.437,175.783 328.737,175.034 328.999,174.263 329.219,173.467 329.395,172.647 329.521,171.802 329.594,170.93 329.607,170.031 329.557,169.104 329.437,168.148 329.238,167.163 328.953,166.146 328.574,165.1 328.09,164.021 327.49,162.912 326.761,161.771 325.89,160.6 324.859,159.399 323.653,158.173 322.25,156.924 320.632,155.656 318.775,154.378 316.656,153.097 314.252,151.826 311.542,150.579 308.508,149.375 305.137,148.238 301.427,147.191 297.389,146.266 293.048,145.49 293.048,145.49 292.864,145.461 292.678,145.433 292.493,145.406 292.307,145.378 292.121,145.351 291.934,145.324 291.746,145.298 291.559,145.271 291.371,145.246 291.182,145.22 290.993,145.195 290.804,145.17 290.614,145.146 290.424,145.122 290.234,145.098 290.043,145.074 289.852,145.051 289.66,145.028 289.468,145.005 289.276,144.983 289.083,144.961 288.891,144.94 288.697,144.919 288.503,144.898 288.31,144.877 288.115,144.857 287.921,144.837 287.726,144.818 287.531,144.799 287.335,144.78 287.139,144.762 286.943,144.744 286.747,144.727 286.55,144.709 286.353,144.692 286.156,144.675 285.958,144.659 285.76,144.644 285.562,144.628 285.364,144.613 285.166,144.598 284.967,144.583 284.768,144.57 284.568,144.556 284.369,144.543 284.169,144.53 283.97,144.518 283.77,144.505 283.569,144.494 283.369,144.482 283.168,144.471 282.967,144.46 282.766,144.45 282.565,144.44 282.364,144.431 282.162,144.421 281.96,144.413 281.759,144.404 281.557,144.396 281.355,144.389 281.153,144.382 280.95,144.375 280.748,144.369 280.545,144.362 280.343,144.357 280.14,144.352 279.938,144.347 279.734,144.342 279.532,144.338 279.329,144.334 279.125,144.331 278.922,144.328 278.719,144.326 278.516,144.323 278.313,144.322 278.11,144.32 277.907,144.319 277.703,144.319 277.5,144.318"/>
<polyline fill="none" stroke="#00ffff" stroke-width="0.5" stroke-dasharray="1,1,1,1,1,1,1,1,1,1" points="277.5,115.278 276.813,115.28 276.126,115.285 275.439,115.294 274.753,115.307 274.067,115.322 273.383,115.342 272.699,115.365 272.017,115.391 271.336,115.421 270.657,115.455 269.979,115.491 269.303,115.531 268.629,115.575 267.958,115.622 267.289,115.672 266.622,115.726 265.958,115.782 265.296,115.842 264.638,115.905 263.983,115.971 263.331,116.041 262.682,116.113 262.037,116.188 261.396,116.266 260.757,116.347 260.123,116.431 259.493,116.518 258.867,116.607 258.245,116.7 257.626,116.794 257.013,116.892 256.404,116.991 255.799,117.094 255.199,117.198 254.603,117.305 254.012,117.415 253.426,117.526 252.845,117.64 252.268,117.756 251.696,117.874 251.129,117.994 250.568,118.116 250.011,118.239 249.459,118.365 248.913,118.493 248.371,118.622 247.835,118.752 247.304,118.885 246.778,119.019 246.257,119.154 245.741,119.292 245.231,119.43 244.726,119.569 244.226,119.71 243.731,119.853 243.241,119.996 242.757,120.141 242.277,120.287 241.803,120.434 241.334,120.582 240.871,120.73 240.412,120.88 239.958,121.031 239.51,121.182 239.066,121.334 238.628,121.487 238.194,121.641 237.766,121.795 237.342,121.95 236.923,122.106 236.509,122.262 236.1,122.419 235.696,122.576 235.296,122.734 234.902,122.892 234.512,123.051 234.126,123.209 233.745,123.369 233.369,123.528 233.369,123.528 225.52,127.431 219.722,131.229 215.439,134.801 212.265,138.113 209.908,141.169 208.163,143.988 206.883,146.592 205.964,149.006 205.329,151.25 204.92,153.342 204.695,155.3 204.621,157.138 204.671,158.868 204.826,160.5 205.07,162.044 205.389,163.508 205.772,164.899 206.211,166.223 206.699,167.485 207.23,168.689 207.798,169.842 208.399,170.945 209.03,172.003 209.688,173.018 210.369,173.993 211.07,174.931 211.792,175.834 212.53,176.704 213.285,177.542 214.053,178.352 214.835,179.132 215.629,179.887 216.434,180.616 217.249,181.32 218.073,182.002 218.906,182.662 219.747,183.301 220.595,183.919 221.45,184.519 222.312,185.099 223.179,185.662 224.052,186.207 224.931,186.736 225.813,187.249 226.701,187.746 227.593,188.229 228.489,188.696 229.389,189.15 230.292,189.59 231.199,190.017 232.108,190.431 233.021,190.833 233.936,191.222 234.854,191.599 235.775,191.965 236.698,192.32 237.623,192.663 238.55,192.996 239.479,193.318 240.41,193.63 241.343,193.932 242.278,194.224 243.214,194.506 244.152,194.779 245.091,195.042 246.031,195.296 246.973,195.542 247.917,195.778 248.86,196.006 249.806,196.225 250.752,196.435 251.7,196.637 252.648,196.832 253.597,197.017 254.547,197.195 255.498,197.365 256.45,197.527 257.402,197.681 258.355,197.828 259.309,197.966 260.263,198.098 261.217,198.222 262.173,198.338 263.128,198.448 264.084,198.55 265.041,198.645 265.998,198.732 266.956,198.812 267.913,198.885 268.871,198.952 269.829,199.011 270.788,199.062 271.746,199.108 272.705,199.146 273.664,199.177 274.623,199.201 275.582,199.219 276.541,199.229 277.5,199.232 278.459,199.229 279.418,199.219 280.377,199.201 281.336,199.177 282.295,199.146 283.254,199.108 284.212,199.062 285.171,199.011 286.129,198.952 287.087,198.885 288.044,198.812 289.002,198.732 289.959,198.645 290.916,198.55 291.872,198.448 292.827,198.338 293.783,198.222 294.737,198.098 295.691,197.966 296.645,197.828 297.598,197.681 298.55,197.527 299.502,197.365 300.453,197.195 301.403,197.017 302.352,196.832 303.3,196.637 304.248,196.435 305.194,196.225 306.14,196.006 307.084,195.778 308.027,195.542 308.969,195.296 309.909,195.042 310.848,194.779 311.786,194.506 312.722,194.224 313.657,193.932 314.59,193.63 315.521,193.318 316.45,192.996 317.377,192.663 318.302,192.32 319.225,191.965 320.146,191.599 321.064,191.222 321.979,190.833 322.892,190.431 323.801,190.017 324.708,189.59 325.611,189.15 326.511,188.696 327.407,188.229 328.299,187.746 329.187,187.249 330.069,186.736 330.948,186.207 331.821,185.662 332.688,185.099 333.55,184.519 334.405,183.919 335.253,183.301 336.094,182.662 336.927,182.002 337.751,181.32 338.566,180.616 339.371,179.887 340.165,179.132 340.947,178.352 341.715,177.542 342.47,176.704 343.208,175.834 343.93,174.931 344.632,173.993 345.312,173.018 345.97,172.003 346.601,170.945 347.202,169.842 347.77,168.689 348.301,167.485 348.789,166.223 349.228,164.899 349.612,163.508 349.93,162.044 350.174,160.5 350.329,158.868 350.379,157.138 350.305,155.3 350.08,153.342 349.671,151.25 349.036,149.006 348.117,146.592 346.837,143.988 345.092,141.169 342.735,138.113 339.561,134.801 335.278,131.229 329.48,127.431 321.631,123.528 321.631,123.528 321.255,123.369 320.874,123.209 320.488,123.051 320.098,122.892 319.704,122.734 319.304,122.576 318.9,122.419 318.491,122.262 318.077,122.106 317.658,121.95 317.234,121.795 316.806,121.641 316.373,121.487 315.934,121.334 315.49,121.182 315.042,121.031 314.588,120.88 314.129,120.73 313.666,120.582 313.197,120.434 312.723,120.287 312.243,120.141 311.759,119.996 311.269,119.853 310.774,119.71 310.274,119.569 309.769,119.43 309.259,119.292 308.743,119.154 308.222,119.019 307.696,118.885 307.165,118.752 306.629,118.622 306.087,118.493 305.541,118.365 304.989,118.239 304.432,118.116 303.871,117.994 303.304,117.874 302.732,117.756 302.156,117.64 301.574,117.526 300.988,117.415 300.397,117.305 299.801,117.198 299.201,117.094 298.596,116.991 297.987,116.892 297.374,116.794 296.755,116.7 296.133,116.607 295.507,116.518 294.877,116.431 294.243,116.347 293.604,116.266 292.963,116.188 292.318,116.113 291.669,116.041 291.017,115.971 290.362,115.905 289.704,115.842 289.042,115.782 288.378,115.726 287.711,115.672 287.042,115.622 286.371,115.575 285.697,115.531 285.021,115.491 284.343,115.455 283.664,115.421 282.983,115.391 282.301,115.365 281.617,115.342 280.933,115.322 280.247,115.307 279.561,115.294 278.875,115.285 278.188,115.28 277.5,115.278"/>
<polyline fill="none" stroke="#00ffff" stroke-width="0.5" stroke-dasharray="1,1,1,1,1,1,1,1,1,1" points="69.375,118.663 70.146,118.664 70.917,118.669 71.6875,118.678 72.4575,118.691 73.2271,118.707 73.9956,118.726 74.7627,118.749 75.5288,118.775 76.2939,118.806 77.0571,118.839 77.8188,118.875 78.5781,118.916 79.3359,118.959 80.0913,119.006 80.8442,119.057 81.5947,119.11 82.3428,119.167 83.0879,119.227 83.8301,119.29 84.5693,119.355 85.3052,119.425 86.0376,119.497 86.7666,119.572 87.4922,119.651 88.2144,119.732 88.9321,119.815 89.6465,119.902 90.3564,119.992 91.0625,120.084 91.7642,120.179 92.4619,120.276 93.1548,120.376 93.8433,120.478 94.5273,120.583 95.207,120.69 95.8818,120.799 96.5518,120.911 97.2173,121.024 97.8774,121.14 98.5332,121.258 99.1836,121.378 99.8296,121.5 100.47,121.624 101.105,121.75 101.736,121.877 102.361,122.006 102.981,122.137 103.597,122.27 104.207,122.403 104.811,122.539 105.411,122.676 106.005,122.814 106.594,122.954 107.178,123.095 107.756,123.237 108.33,123.381 108.898,123.525 109.461,123.671 110.019,123.818 110.572,123.966 111.12,124.115 111.662,124.264 112.2,124.415 112.732,124.566 113.26,124.719 113.782,124.872 114.299,125.025 114.812,125.18 115.319,125.335 115.822,125.49 116.32,125.646 116.812,125.803 117.301,125.96 117.784,126.118 118.263,126.276 118.737,126.435 119.206,126.594 119.671,126.753 120.131,126.913 120.131,126.913 130.016,130.815 137.849,134.613 144.167,138.186 149.376,141.498 153.769,144.554 157.55,147.373 160.865,149.977 163.819,152.39 166.49,154.634 168.934,156.727 171.193,158.685 173.303,160.522 175.288,162.252 177.168,163.885 178.96,165.429 180.677,166.893 182.329,168.284 183.925,169.607 185.472,170.869 186.977,172.074 188.444,173.226 189.878,174.33 191.283,175.387 192.661,176.402 194.015,177.378 195.349,178.316 196.663,179.219 197.959,180.088 199.241,180.927 200.507,181.736 201.761,182.517 203.002,183.271 204.233,184 205.454,184.705 206.665,185.387 207.867,186.046 209.062,186.685 210.249,187.304 211.429,187.903 212.603,188.483 213.771,189.046 214.933,189.592 216.09,190.121 217.242,190.633 218.39,191.13 219.533,191.613 220.672,192.081 221.808,192.535 222.94,192.975 224.069,193.401 225.195,193.815 226.317,194.217 227.438,194.606 228.555,194.983 229.669,195.35 230.782,195.704 231.892,196.047 233,196.38 234.106,196.703 235.211,197.015 236.313,197.316 237.414,197.608 238.513,197.891 239.611,198.163 240.707,198.427 241.802,198.681 242.896,198.926 243.988,199.163 245.079,199.39 246.169,199.609 247.258,199.819 248.346,200.022 249.433,200.216 250.519,200.401 251.604,200.579 252.689,200.749 253.772,200.911 254.855,201.065 255.938,201.212 257.02,201.351 258.101,201.482 259.182,201.606 260.262,201.723 261.341,201.832 262.42,201.934 263.499,202.029 264.578,202.116 265.656,202.197 266.733,202.27 267.811,202.336 268.888,202.395 269.965,202.447 271.042,202.492 272.119,202.53 273.195,202.562 274.271,202.586 275.348,202.603 276.424,202.613 277.5,202.617 278.576,202.613 279.652,202.603 280.729,202.586 281.805,202.562 282.881,202.53 283.958,202.492 285.035,202.447 286.112,202.395 287.189,202.336 288.267,202.27 289.344,202.197 290.422,202.116 291.501,202.029 292.58,201.934 293.659,201.832 294.738,201.723 295.818,201.606 296.899,201.482 297.98,201.351 299.062,201.212 300.145,201.065 301.228,200.911 302.311,200.749 303.396,200.579 304.481,200.401 305.567,200.216 306.654,200.022 307.742,199.819 308.831,199.609 309.921,199.39 311.012,199.163 312.104,198.926 313.198,198.681 314.293,198.427 315.389,198.163 316.487,197.891 317.586,197.608 318.687,197.316 319.789,197.015 320.894,196.703 322,196.38 323.108,196.047 324.218,195.704 325.331,195.35 326.445,194.983 327.562,194.606 328.683,194.217 329.805,193.815 330.931,193.401 332.06,192.975 333.192,192.535 334.328,192.081 335.467,191.613 336.61,191.13 337.758,190.633 338.91,190.121 340.067,189.592 341.23,189.046 342.397,188.483 343.571,187.903 344.751,187.304 345.938,186.685 347.133,186.046 348.335,185.387 349.547,184.705 350.767,184 351.998,183.271 353.239,182.517 354.493,181.736 355.759,180.927 357.041,180.088 358.337,179.219 359.651,178.316 360.985,177.378 362.339,176.402 363.717,175.387 365.122,174.33 366.556,173.226 368.023,172.074 369.528,170.869 371.075,169.607 372.671,168.284 374.323,166.893 376.04,165.429 377.832,163.885 379.712,162.252 381.697,160.522 383.807,158.685 386.067,156.727 388.511,154.634 391.181,152.39 394.135,149.977 397.451,147.373 401.231,144.554 405.624,141.498 410.833,138.186 417.151,134.613 424.984,130.815 434.869,126.913 434.869,126.913 435.329,126.753 435.794,126.594 436.263,126.435 436.737,126.276 437.216,126.118 437.699,125.96 438.188,125.803 438.68,125.646 439.178,125.49 439.681,125.335 440.188,125.18 440.701,125.025 441.218,124.872 441.74,124.719 442.268,124.566 442.8,124.415 443.338,124.264 443.88,124.115 444.428,123.966 444.981,123.818 445.539,123.671 446.102,123.525 446.67,123.381 447.244,123.237 447.822,123.095 448.406,122.954 448.995,122.814 449.589,122.676 450.189,122.539 450.794,122.403 451.404,122.27 452.019,122.137 452.639,122.006 453.264,121.877 453.895,121.75 454.53,121.624 455.171,121.5 455.816,121.378 456.467,121.258 457.123,121.14 457.783,121.024 458.448,120.911 459.118,120.799 459.793,120.69 460.473,120.583 461.157,120.478 461.845,120.376 462.539,120.276 463.236,120.179 463.938,120.084 464.644,119.992 465.354,119.902 466.068,119.815 466.786,119.732 467.508,119.651 468.233,119.572 468.962,119.497 469.695,119.425 470.431,119.355 471.17,119.29 471.912,119.227 472.657,119.167 473.405,119.11 474.156,119.057 474.909,119.006 475.664,118.959 476.422,118.916 477.182,118.875 477.943,118.839 478.706,118.806 479.471,118.775 480.237,118.749 481.004,118.726 481.773,118.707 482.542,118.691 483.312,118.678 484.083,118.669 484.854,118.664 485.625,118.663"/>
<polyline fill="none" stroke="#00ffff" stroke-width="0.5" stroke-dasharray="1,1,1,1,1,1,1,1,1,1" points="69.375,154.472 69.6621,154.472 69.9492,154.473 70.2363,154.474 70.5234,154.475 70.8105,154.477 71.0977,154.479 71.3848,154.481 71.6714,154.484 71.9585,154.487 72.2451,154.491 72.5322,154.495 72.8188,154.5 73.1055,154.505 73.3921,154.51 73.6782,154.516 73.9648,154.521 74.251,154.528 74.5371,154.535 74.8232,154.542 75.1089,154.55 75.395,154.558 75.6807,154.566 75.9658,154.575 76.2515,154.584 76.5366,154.593 76.8213,154.603 77.1064,154.613 77.3911,154.624 77.6758,154.635 77.96,154.646 78.2441,154.658 78.5278,154.67 78.8115,154.683 79.0952,154.696 79.3784,154.709 79.6616,154.723 79.9443,154.737 80.2271,154.751 80.5098,154.766 80.7915,154.781 81.0737,154.796 81.3555,154.812 81.6367,154.829 81.918,154.845 82.1987,154.862 82.479,154.879 82.7593,154.897 83.0396,154.915 83.3193,154.934 83.5986,154.952 83.8774,154.971 84.1562,154.991 84.4351,155.011 84.7129,155.031 84.9907,155.051 85.2681,155.072 85.5454,155.093 85.8223,155.115 86.0986,155.137 86.375,155.159 86.6504,155.181 86.9258,155.204 87.2012,155.228 87.4756,155.251 87.75,155.275 88.0239,155.299 88.2974,155.323 88.5703,155.348 88.8433,155.374 89.1157,155.399 89.3877,155.425 89.6592,155.451 89.9302,155.478 90.2007,155.504 90.4712,155.531 90.7412,155.559 91.0107,155.586 91.2793,155.614 91.5483,155.643 91.5483,155.643 97.9238,156.418 103.998,157.345 109.743,158.391 115.149,159.528 120.219,160.732 124.964,161.979 129.403,163.25 133.558,164.531 137.45,165.81 141.104,167.077 144.542,168.326 147.784,169.553 150.849,170.752 153.756,171.924 156.521,173.064 159.156,174.174 161.675,175.252 164.089,176.3 166.409,177.316 168.643,178.301 170.8,179.257 172.885,180.185 174.907,181.083 176.869,181.955 178.778,182.801 180.638,183.621 182.453,184.416 184.227,185.187 185.962,185.936 187.663,186.662 189.331,187.367 190.968,188.051 192.578,188.716 194.163,189.361 195.723,189.987 197.261,190.596 198.778,191.187 200.276,191.761 201.755,192.319 203.218,192.861 204.665,193.387 206.097,193.899 207.514,194.396 208.919,194.879 210.312,195.349 211.692,195.805 213.062,196.248 214.422,196.679 215.771,197.097 217.112,197.503 218.444,197.897 219.768,198.281 221.084,198.652 222.393,199.014 223.694,199.364 224.989,199.704 226.278,200.033 227.561,200.353 228.838,200.663 230.11,200.963 231.377,201.253 232.639,201.535 233.897,201.807 235.15,202.07 236.399,202.324 237.645,202.57 238.886,202.807 240.124,203.035 241.358,203.255 242.59,203.467 243.818,203.671 245.044,203.867 246.267,204.055 247.487,204.235 248.706,204.408 249.921,204.573 251.135,204.73 252.346,204.88 253.556,205.022 254.764,205.157 255.97,205.285 257.174,205.405 258.377,205.519 259.579,205.625 260.779,205.724 261.979,205.816 263.176,205.901 264.374,205.979 265.57,206.051 266.765,206.115 267.959,206.173 269.153,206.224 270.347,206.268 271.54,206.305 272.732,206.335 273.925,206.358 275.117,206.375 276.308,206.385 277.5,206.389 278.692,206.385 279.883,206.375 281.076,206.358 282.268,206.335 283.46,206.305 284.653,206.268 285.847,206.224 287.041,206.173 288.235,206.115 289.43,206.051 290.626,205.979 291.824,205.901 293.022,205.816 294.221,205.724 295.421,205.625 296.623,205.519 297.826,205.405 299.03,205.285 300.236,205.157 301.444,205.022 302.654,204.88 303.865,204.73 305.079,204.573 306.294,204.408 307.513,204.235 308.733,204.055 309.956,203.867 311.182,203.671 312.41,203.467 313.642,203.255 314.876,203.035 316.114,202.807 317.355,202.57 318.601,202.324 319.85,202.07 321.103,201.807 322.361,201.535 323.623,201.253 324.89,200.963 326.162,200.663 327.439,200.353 328.722,200.033 330.011,199.704 331.306,199.364 332.607,199.014 333.916,198.652 335.232,198.281 336.556,197.897 337.888,197.503 339.229,197.097 340.578,196.679 341.938,196.248 343.308,195.805 344.688,195.349 346.081,194.879 347.486,194.396 348.904,193.899 350.335,193.387 351.782,192.861 353.245,192.319 354.725,191.761 356.222,191.187 357.739,190.596 359.277,189.987 360.837,189.361 362.422,188.716 364.032,188.051 365.669,187.367 367.337,186.662 369.038,185.936 370.773,185.187 372.547,184.416 374.362,183.621 376.222,182.801 378.131,181.955 380.093,181.083 382.115,180.185 384.201,179.257 386.357,178.301 388.591,177.316 390.911,176.3 393.325,175.252 395.844,174.174 398.479,173.064 401.244,171.924 404.151,170.752 407.216,169.553 410.458,168.326 413.896,167.077 417.55,165.81 421.442,164.531 425.597,163.25 430.036,161.979 434.781,160.732 439.851,159.528 445.257,158.391 451.002,157.345 457.076,156.418 463.452,155.643 463.452,155.643 463.721,155.614 463.99,155.586 464.259,155.559 464.529,155.531 464.799,155.504 465.07,155.478 465.341,155.451 465.612,155.425 465.884,155.399 466.157,155.374 466.43,155.348 466.703,155.323 466.976,155.299 467.25,155.275 467.524,155.251 467.799,155.228 468.074,155.204 468.35,155.181 468.625,155.159 468.901,155.137 469.178,155.115 469.455,155.093 469.732,155.072 470.009,155.051 470.287,155.031 470.565,155.011 470.844,154.991 471.123,154.971 471.401,154.952 471.681,154.934 471.96,154.915 472.241,154.897 472.521,154.879 472.801,154.862 473.083,154.845 473.363,154.829 473.645,154.812 473.926,154.796 474.208,154.781 474.491,154.766 474.773,154.751 475.056,154.737 475.338,154.723 475.622,154.709 475.905,154.696 476.188,154.683 476.472,154.67 476.756,154.658 477.04,154.646 477.325,154.635 477.609,154.624 477.894,154.613 478.179,154.603 478.463,154.593 478.749,154.584 479.034,154.575 479.32,154.566 479.605,154.558 479.891,154.55 480.177,154.542 480.463,154.535 480.749,154.528 481.035,154.521 481.322,154.516 481.608,154.51 481.895,154.505 482.181,154.5 482.468,154.495 482.755,154.491 483.042,154.487 483.329,154.484 483.615,154.481 483.902,154.479 484.189,154.477 484.477,154.475 484.764,154.474 485.051,154.473 485.338,154.472 485.625,154.472"/>
<polyline fill="none" stroke="#00ffff" stroke-width="0.5" stroke-dasharray="1,1,1,1,1,1,1,1,1,1" points="69.375,180.36 69.543,180.36 69.7114,180.36 69.8794,180.361 70.0474,180.361 70.2158,180.362 70.3838,180.362 70.5518,180.363 70.7197,180.363 70.8882,180.364 71.0562,180.365 71.2241,180.366 71.3921,180.367 71.5601,180.369 71.7285,180.37 71.8965,180.371 72.0645,180.373 72.2324,180.374 72.4004,180.376 72.5684,180.377 72.7363,180.379 72.9043,180.381 73.0723,180.383 73.2402,180.385 73.4077,180.388 73.5757,180.39 73.7437,180.393 73.9116,180.395 74.0791,180.397 74.2471,180.4 74.415,180.403 74.5825,180.406 74.7505,180.409 74.918,180.412 75.0854,180.415 75.2534,180.418 75.4209,180.422 75.5884,180.425 75.7559,180.429 75.9233,180.432 76.0908,180.436 76.2583,180.44 76.4258,180.444 76.5933,180.448 76.7607,180.452 76.9277,180.456 77.0952,180.46 77.2627,180.465 77.4297,180.469 77.5967,180.474 77.7642,180.479 77.9312,180.483 78.0981,180.488 78.2651,180.493 78.4321,180.498 78.5991,180.503 78.7656,180.508 78.9326,180.514 79.0996,180.519 79.2661,180.524 79.4331,180.53 79.5996,180.536 79.7661,180.542 79.9326,180.547 80.0991,180.553 80.2656,180.56 80.4321,180.565 80.5981,180.572 80.7646,180.578 80.9307,180.584 81.0972,180.591 81.2632,180.598 81.4292,180.604 81.5952,180.611 81.7612,180.618 81.9272,180.625 82.0928,180.632 82.2588,180.639 82.4243,180.646 82.5903,180.653 82.5903,180.653 86.5903,180.857 90.5444,181.111 94.4434,181.412 98.2798,181.757 102.047,182.142 105.74,182.564 109.354,183.02 112.886,183.504 116.334,184.014 119.699,184.546 122.978,185.097 126.172,185.663 129.284,186.242 132.313,186.83 135.264,187.425 138.138,188.026 140.937,188.629 143.664,189.233 146.322,189.837 148.915,190.439 151.444,191.038 153.914,191.632 156.325,192.221 158.683,192.804 160.989,193.38 163.245,193.949 165.455,194.51 167.621,195.062 169.744,195.606 171.828,196.141 173.874,196.667 175.883,197.183 177.859,197.69 179.803,198.187 181.717,198.675 183.601,199.153 185.458,199.622 187.289,200.08 189.095,200.529 190.878,200.969 192.638,201.398 194.377,201.819 196.097,202.229 197.797,202.631 199.479,203.024 201.143,203.407 202.791,203.781 204.423,204.146 206.041,204.502 207.644,204.85 209.234,205.188 210.811,205.519 212.375,205.84 213.929,206.153 215.471,206.458 217.002,206.755 218.523,207.043 220.034,207.324 221.537,207.597 223.03,207.861 224.515,208.119 225.992,208.368 227.462,208.609 228.924,208.844 230.379,209.07 231.828,209.29 233.271,209.502 234.707,209.707 236.138,209.905 237.563,210.095 238.983,210.279 240.398,210.456 241.809,210.625 243.215,210.788 244.618,210.944 246.016,211.093 247.41,211.236 248.801,211.372 250.188,211.501 251.572,211.624 252.954,211.74 254.332,211.85 255.708,211.954 257.081,212.05 258.453,212.141 259.822,212.225 261.188,212.303 262.554,212.374 263.918,212.439 265.28,212.498 266.641,212.551 268.001,212.597 269.36,212.638 270.718,212.671 272.075,212.699 273.432,212.721 274.788,212.736 276.144,212.746 277.5,212.749 278.856,212.746 280.212,212.736 281.568,212.721 282.925,212.699 284.282,212.671 285.64,212.638 286.999,212.597 288.359,212.551 289.72,212.498 291.082,212.439 292.446,212.374 293.812,212.303 295.179,212.225 296.547,212.141 297.919,212.05 299.292,211.954 300.668,211.85 302.046,211.74 303.428,211.624 304.812,211.501 306.2,211.372 307.59,211.236 308.984,211.093 310.382,210.944 311.785,210.788 313.191,210.625 314.602,210.456 316.017,210.279 317.437,210.095 318.862,209.905 320.293,209.707 321.729,209.502 323.172,209.29 324.621,209.07 326.076,208.844 327.538,208.609 329.008,208.368 330.485,208.119 331.97,207.861 333.463,207.597 334.966,207.324 336.477,207.043 337.999,206.755 339.529,206.458 341.071,206.153 342.625,205.84 344.189,205.519 345.766,205.188 347.356,204.85 348.959,204.502 350.577,204.146 352.209,203.781 353.857,203.407 355.521,203.024 357.204,202.631 358.903,202.229 360.623,201.819 362.362,201.398 364.122,200.969 365.905,200.529 367.711,200.08 369.542,199.622 371.399,199.153 373.283,198.675 375.197,198.187 377.141,197.69 379.117,197.183 381.126,196.667 383.172,196.141 385.256,195.606 387.379,195.062 389.545,194.51 391.755,193.949 394.011,193.38 396.317,192.804 398.675,192.221 401.087,191.632 403.556,191.038 406.085,190.439 408.678,189.837 411.336,189.233 414.063,188.629 416.862,188.026 419.736,187.425 422.687,186.83 425.716,186.242 428.828,185.663 432.022,185.097 435.302,184.546 438.666,184.014 442.114,183.504 445.646,183.02 449.26,182.564 452.953,182.142 456.72,181.757 460.557,181.412 464.456,181.111 468.41,180.857 472.41,180.653 472.41,180.653 472.576,180.646 472.741,180.639 472.907,180.632 473.073,180.625 473.239,180.618 473.405,180.611 473.571,180.604 473.737,180.598 473.903,180.591 474.069,180.584 474.235,180.578 474.402,180.572 474.568,180.565 474.734,180.56 474.901,180.553 475.067,180.547 475.234,180.542 475.4,180.536 475.567,180.53 475.734,180.524 475.9,180.519 476.067,180.514 476.234,180.508 476.401,180.503 476.568,180.498 476.735,180.493 476.902,180.488 477.069,180.483 477.236,180.479 477.403,180.474 477.57,180.469 477.738,180.465 477.905,180.46 478.072,180.456 478.239,180.452 478.407,180.448 478.574,180.444 478.742,180.44 478.909,180.436 479.077,180.432 479.244,180.429 479.412,180.425 479.579,180.422 479.747,180.418 479.915,180.415 480.082,180.412 480.25,180.409 480.417,180.406 480.585,180.403 480.753,180.4 480.921,180.397 481.088,180.395 481.256,180.393 481.424,180.39 481.592,180.388 481.76,180.385 481.928,180.383 482.096,180.381 482.264,180.379 482.432,180.377 482.6,180.376 482.768,180.374 482.936,180.373 483.104,180.371 483.272,180.37 483.44,180.369 483.608,180.367 483.776,180.366 483.944,180.365 484.112,180.364 484.28,180.363 484.448,180.363 484.616,180.362 484.785,180.362 484.953,180.361 485.121,180.361 485.289,180.36 485.457,180.36 485.625,180.36"/>
<text fill="#00ffff" style="stroke:none" x="461" y="178" transform="rotate(0, 461, 178)" font-size="10" font-family="SansSerif" font-style="normal" font-weight="normal">-6dB</text>
<text fill="#00ffff" style="stroke:none" x="461" y="152" transform="rotate(0, 461, 152)" font-size="10" font-family="SansSerif" font-style="normal" font-weight="normal">-3dB</text>
<text fill="#00ffff" style="stroke:none" x="461" y="117" transform="rotate(0, 461, 117)" font-size="10" font-family="SansSerif" font-style="normal" font-weight="normal">-1dB</text>
<text fill="#00ffff" style="stroke:none" x="269" y="113" transform="rotate(0, 269, 113)" font-size="10" font-family="SansSerif" font-style="normal" font-weight="normal">1dB</text>
<text fill="#00ffff" style="stroke:none" x="269" y="142" transform="rotate(0, 269, 142)" font-size="10" font-family="SansSerif" font-style="normal" font-weight="normal">3dB</text>
<text fill="#00ffff" style="stroke:none" x="269" y="158" transform="rotate(0, 269, 158)" font-size="10" font-family="SansSerif" font-style="normal" font-weight="normal">6dB</text>
<polyline fill="none" stroke="#000000" stroke-width="0.5" points="69.375,315.875 69.375,45.125"/>
<polyline fill="none" stroke="#000000" stroke-width="0.5" points="69.375,315.875 63.1353,315.875"/>
<polyline fill="none" stroke="#000000" stroke-width="0.5" points="69.375,282.031 63.1353,282.031"/>
<polyline fill="none" stroke="#000000" stroke-width="0.5" points="69.375,248.188 63.1353,248.188"/>
<polyline fill="none" stroke="#000000" stroke-width="0.5" points="69.375,214.344 63.1353,214.344"/>
<polyline fill="none" stroke="#000000" stroke-width="0.5" points="69.375,180.5 63.1353,180.5"/>
<polyline fill="none" stroke="#000000" stroke-width="0.5" points="69.375,146.656 63.1353,146.656"/>
<polyline fill="none" stroke="#000000" stroke-width="0.5" points="69.375,112.812 63.1353,112.812"/>
<polyline fill="none" stroke="#000000" stroke-width="0.5" points="69.375,78.9688 63.1353,78.9688"/>
<polyline fill="none" stroke="#000000" stroke-width="0.5" points="69.375,45.125 63.1353,45.125"/>
<polyline fill="none" stroke="#000000" stroke-width="0.5" points="69.375,298.953 65.6309,298.953"/>
<polyline fill="none" stroke="#000000" stroke-width="0.5" points="69.375,265.109 65.6309,265.109"/>
<polyline fill="none" stroke="#000000" stroke-width="0.5" points="69.375,231.266 65.6309,231.266"/>
<polyline fill="none" stroke="#000000" stroke-width="0.5" points="69.375,197.422 65.6309,197.422"/>
<polyline fill="none" stroke="#000000" stroke-width="0.5" points="69.375,163.578 65.6309,163.578"/>
<polyline fill="none" stroke="#000000" stroke-width="0.5" points="69.375,129.734 65.6309,129.734"/>
<polyline fill="none" stroke="#000000" stroke-width="0.5" points="69.375,95.8906 65.6309,95.8906"/>
<polyline fill="none" stroke="#000000" stroke-width="0.5" points="69.375,62.0469 65.6309,62.0469"/>
<text fill="#000000" style="stroke:none" x="43" y="321" transform="rotate(-0, 43, 321)" font-size="10" font-family="SansSerif" font-style="normal" font-weight="normal">-40</text>
<text fill="#000000" style="stroke:none" x="43" y="287" transform="rotate(-0, 43, 287)" font-size="10" font-family="SansSerif" font-style="normal" font-weight="normal">-30</text>
<text fill="#000000" style="stroke:none" x="43" y="253" transform="rotate(-0, 43, 253)" font-size="10" font-family="SansSerif" font-style="normal" font-weight="normal">-20</text>
<text fill="#000000" style="stroke:none" x="43" y="219" transform="rotate(-0, 43, 219)" font-size="10" font-family="SansSerif" font-style="normal" font-weight="normal">-10</text>
<text fill="#000000" style="stroke:none" x="54" y="185" transform="rotate(-0, 54, 185)" font-size="10" font-family="SansSerif" font-style="normal" font-weight="normal">0</text>
<text fill="#000000" style="stroke:none" x="49" y="152" transform="rotate(-0, 49, 152)" font-size="10" font-family="SansSerif" font-style="normal" font-weight="normal">10</text>
<text fill="#000000" style="stroke:none" x="49" y="118" transform="rotate(-0, 49, 118)" font-size="10" font-family="SansSerif" font-style="normal" font-weight="normal">20</text>
<text fill="#000000" style="stroke:none" x="49" y="84" transform="rotate(-0, 49, 84)" font-size="10" font-family="SansSerif" font-style="normal" font-weight="normal">30</text>
<text fill="#000000" style="stroke:none" x="48" y="50" transform="rotate(-0, 48, 50)" font-size="10" font-family="SansSerif" font-style="normal" font-weight="normal">40</text>
<polyline fill="none" stroke="#000000" stroke-width="0.5" points="69.375,315.875 485.625,315.875"/>
<polyline fill="none" stroke="#000000" stroke-width="0.5" points="80.9375,315.875 80.9375,319.925"/>
<polyline fill="none" stroke="#000000" stroke-width="0.5" points="138.75,315.875 138.75,319.925"/>
<polyline fill="none" stroke="#000000" stroke-width="0.5" points="196.562,315.875 196.562,319.925"/>
<polyline fill="none" stroke="#000000" stroke-width="0.5" points="254.375,315.875 254.375,319.925"/>
<polyline fill="none" stroke="#000000" stroke-width="0.5" points="312.188,315.875 312.188,319.925"/>
<polyline fill="none" stroke="#000000" stroke-width="0.5" points="370,315.875 370,319.925"/>
<polyline fill="none" stroke="#000000" stroke-width="0.5" points="427.812,315.875 427.812,319.925"/>
<polyline fill="none" stroke="#000000" stroke-width="0.5" points="485.625,315.875 485.625,319.925"/>
<polyline fill="none" stroke="#000000" stroke-width="0.5" points="109.844,315.875 109.844,318.305"/>
<polyline fill="none" stroke="#000000" stroke-width="0.5" points="167.656,315.875 167.656,318.305"/>
<polyline fill="none" stroke="#000000" stroke-width="0.5" points="225.469,315.875 225.469,318.305"/>
<polyline fill="none" stroke="#000000" stroke-width="0.5" points="283.281,315.875 283.281,318.305"/>
<polyline fill="none" stroke="#000000" stroke-width="0.5" points="341.094,315.875 341.094,318.305"/>
<polyline fill="none" stroke="#000000" stroke-width="0.5" points="398.906,315.875 398.906,318.305"/>
<polyline fill="none" stroke="#000000" stroke-width="0.5" points="456.719,315.875 456.719,318.305"/>
<text fill="#000000" style="stroke:none" x="68" y="331" transform="rotate(-0, 68, 331)" font-size="10" font-family="SansSerif" font-style="normal" font-weight="normal">-350</text>
<text fill="#000000" style="stroke:none" x="126" y="331" transform="rotate(-0, 126, 331)" font-size="10" font-family="SansSerif" font-style="normal" font-weight="normal">-300</text>
<text fill="#000000" style="stroke:none" x="184" y="331" transform="rotate(-0, 184, 331)" font-size="10" font-family="SansSerif" font-style="normal" font-weight="normal">-250</text>
<text fill="#000000" style="stroke:none" x="242" y="331" transform="rotate(-0, 242, 331)" font-size="10" font-family="SansSerif" font-style="normal" font-weight="normal">-200</text>
<text fill="#000000" style="stroke:none" x="300" y="331" transform="rotate(-0, 300, 331)" font-size="10" font-family="SansSerif" font-style="normal" font-weight="normal">-150</text>
<text fill="#000000" style="stroke:none" x="358" y="331" transform="rotate(-0, 358, 331)" font-size="10" font-family="SansSerif" font-style="normal" font-weight="normal">-100</text>
<text fill="#000000" style="stroke:none" x="418" y="331" transform="rotate(-0, 418, 331)" font-size="10" font-family="SansSerif" font-style="normal" font-weight="normal">-50</text>
<text fill="#000000" style="stroke:none" x="479" y="331" transform="rotate(-0, 479, 331)" font-size="10" font-family="SansSerif" font-style="normal" font-weight="normal">-0</text>
<text fill="#000000" style="stroke:none" x="167" y="36" transform="rotate(0, 167, 36)" font-size="10" font-family="SansSerif" font-style="normal" font-weight="normal">Amplitude and phase contours of y/(1+y)</text>
<text fill="#000000" style="stroke:none" x="232" y="346" transform="rotate(0, 232, 346)" font-size="10" font-family="SansSerif" font-style="normal" font-weight="normal">phase(y) (degree)</text>
<text fill="#000000" style="stroke:none" x="35" y="226" transform="rotate(270, 35, 226)" font-size="10" font-family="SansSerif" font-style="normal" font-weight="normal">magnitude(y) (dB)</text>
</g>
</svg>
