<?xml version="1.0" encoding="UTF-8" standalone="no"?>
<svg xmlns="http://www.w3.org/2000/svg"
     xmlns:xlink="http://www.w3.org/1999/xlink"
     width="612px" height="461px" viewBox="0 0 612 461"
     style="stroke:none">
<title>Graphic window number 0</title>
<desc>
Creator: GL2PS 1.3.2, (C) 1999-2006 Christophe Geuzaine (geuz@geuz.org)
For: Scilab
CreationDate: Fri Apr 16 10:33:37 2010
</desc>
<defs>
</defs>
<polygon fill="#ffffff" points="0,0 612,0 612,461 0,461"/>
<g>
<polygon fill="#ffffff" points="76.5,403.375 76.5,57.625 76.5,57.625"/>
<polygon fill="#ffffff" points="76.5,403.375 76.5,57.625 76.5,403.375"/>
<polygon fill="#ffffff" points="76.5,403.375 535.5,403.375 535.5,403.375"/>
<polygon fill="#ffffff" points="76.5,403.375 535.5,403.375 76.5,403.375"/>
<polygon fill="#ffffff" points="76.5,403.375 535.5,403.375 535.5,57.625"/>
<polygon fill="#ffffff" points="76.5,403.375 535.5,57.625 76.5,57.625"/>
<polyline fill="none" stroke="#000000" stroke-width="0.5" points="457.992,230.49 457.992,230.489 457.992,230.485 457.992,230.479 457.992,230.468 457.993,230.444 457.997,230.396 458.009,230.301 458.057,230.111 458.248,229.734 458.565,229.367 459.01,229.013 459.585,228.679 460.292,228.368 461.136,228.088 462.119,227.845 463.246,227.646 464.521,227.501 465.95,227.418 467.537,227.409 469.287,227.486 471.205,227.664 473.296,227.958 475.563,228.389 478.009,228.977 480.634,229.747 483.437,230.726 486.41,231.947 489.544,233.445 491.167,234.311 492.822,235.261 494.507,236.302 496.217,237.439 497.948,238.679 499.694,240.028 501.447,241.494 503.2,243.082 504.943,244.8 506.667,246.655 508.357,248.654 510.002,250.804 511.585,253.111 513.088,255.583 514.493,258.222 515.776,261.036 516.915,264.025 517.883,267.193 518.65,270.54 519.188,274.061 519.461,277.753 519.438,281.608 519.083,285.612 518.359,289.75 517.849,291.864 517.233,294.002 516.509,296.164 515.671,298.343 514.716,300.538 513.641,302.743 512.441,304.954 511.115,307.166 509.66,309.374 508.073,311.573 506.353,313.757 504.498,315.921 502.507,318.058 500.382,320.162 498.121,322.228 495.727,324.247 493.201,326.215 490.545,328.125 487.764,329.97 484.859,331.744 481.837,333.441 478.703,335.056 475.461,336.582 472.12,338.015 468.685,339.348 465.165,340.579 461.567,341.703 457.901,342.716 454.175,343.615 450.398,344.398 446.58,345.063 442.73,345.609 438.859,346.034 434.975,346.339 431.088,346.523 427.208,346.589 423.344,346.537 419.505,346.369 415.698,346.087 411.933,345.695 408.217,345.197 404.558,344.594 400.96,343.892 397.433,343.095 393.98,342.207 390.607,341.232 387.318,340.177 381.008,337.841 375.077,335.24 372.257,333.852 369.539,332.412 366.92,330.925 364.404,329.396 361.989,327.829 359.675,326.229 357.461,324.6 355.348,322.945 353.333,321.27 349.592,317.869 346.227,314.426 343.218,310.963 340.55,307.502 338.203,304.06 336.156,300.653 334.389,297.294 332.882,293.994 331.617,290.76 330.573,287.599 329.732,284.517 329.079,281.517 328.595,278.602 328.268,275.773 328.081,273.033 328.022,270.379 328.08,267.812 328.242,265.331 328.499,262.934 328.841,260.62 329.26,258.387 329.747,256.233 330.296,254.156 331.552,250.222 332.982,246.567 334.549,243.171 336.221,240.018 337.972,237.087 339.781,234.364 341.63,231.833 343.507,229.479 345.397,227.289 347.293,225.25 349.187,223.35 351.071,221.581 352.941,219.931 354.793,218.393 356.624,216.958 358.429,215.619 360.208,214.37 361.96,213.203 365.374,211.095 368.665,209.257 371.83,207.654 374.869,206.256 377.784,205.039 380.577,203.98 383.252,203.062 385.813,202.268 388.264,201.583 390.61,200.996 392.855,200.496 397.06,199.719 400.913,199.189 404.447,198.855 407.693,198.679 410.676,198.629 413.423,198.679 415.956,198.81 418.293,199.005 420.454,199.251 422.456,199.538 424.311,199.855 426.034,200.197 427.636,200.557 429.128,200.93 431.818,201.702 434.169,202.488 436.235,203.273 438.058,204.046 439.674,204.8 441.113,205.531 442.399,206.237 443.553,206.916 444.592,207.567 446.382,208.79 447.86,209.91 449.095,210.934 450.136,211.872 451.022,212.732 451.783,213.522 453.011,214.92 453.952,216.116 454.688,217.148 455.273,218.046 455.748,218.834 456.137,219.53 456.733,220.704 457.16,221.653 457.477,222.437 457.719,223.094 457.907,223.653 458.178,224.553 458.359,225.244 458.487,225.792 458.58,226.236 458.703,226.915 458.779,227.407 458.829,227.78 458.889,228.309 458.922,228.666 458.956,229.117 458.972,229.39 458.985,229.704 458.991,229.879 458.996,230.069 458.998,230.17 458.999,230.275 458.999,230.279 458.999,230.721 458.999,230.725 458.998,230.83 458.996,230.931 458.991,231.121 458.985,231.296 458.972,231.61 458.956,231.883 458.922,232.334 458.889,232.691 458.829,233.22 458.779,233.593 458.703,234.085 458.58,234.764 458.487,235.208 458.359,235.756 458.178,236.447 457.907,237.347 457.719,237.906 457.477,238.563 457.16,239.347 456.733,240.296 456.137,241.47 455.748,242.166 455.273,242.954 454.688,243.852 453.952,244.884 453.011,246.08 451.783,247.478 451.022,248.268 450.136,249.128 449.095,250.066 447.86,251.09 446.382,252.21 444.592,253.433 443.553,254.084 442.399,254.763 441.113,255.469 439.674,256.2 438.058,256.954 436.235,257.727 434.169,258.512 431.818,259.298 429.128,260.07 427.636,260.443 426.034,260.803 424.311,261.145 422.456,261.462 420.454,261.749 418.293,261.995 415.956,262.19 413.423,262.321 410.676,262.371 407.693,262.321 404.447,262.145 400.913,261.811 397.06,261.281 392.855,260.504 390.61,260.004 388.264,259.417 385.813,258.732 383.252,257.938 380.577,257.02 377.784,255.961 374.869,254.744 371.83,253.346 368.665,251.743 365.374,249.905 361.96,247.797 360.208,246.63 358.429,245.381 356.624,244.042 354.793,242.607 352.941,241.069 351.071,239.419 349.187,237.65 347.293,235.75 345.397,233.711 343.507,231.521 341.63,229.167 339.781,226.636 337.972,223.913 336.221,220.982 334.549,217.829 332.982,214.433 331.552,210.778 330.296,206.844 329.747,204.767 329.26,202.613 328.841,200.38 328.499,198.066 328.242,195.669 328.08,193.188 328.022,190.621 328.081,187.967 328.268,185.227 328.595,182.398 329.079,179.483 329.732,176.483 330.573,173.401 331.617,170.24 332.882,167.006 334.389,163.706 336.156,160.347 338.203,156.94 340.55,153.498 343.218,150.037 346.227,146.574 349.592,143.131 353.333,139.73 355.348,138.055 357.461,136.4 359.675,134.771 361.989,133.171 364.404,131.604 366.92,130.075 369.539,128.588 372.257,127.148 375.077,125.76 381.008,123.159 387.318,120.823 390.607,119.768 393.98,118.793 397.433,117.905 400.96,117.108 404.558,116.406 408.217,115.803 411.933,115.305 415.698,114.913 419.505,114.631 423.344,114.463 427.208,114.411 431.088,114.477 434.975,114.661 438.859,114.966 442.73,115.391 446.58,115.937 450.398,116.602 454.175,117.385 457.901,118.284 461.567,119.297 465.165,120.421 468.685,121.652 472.12,122.985 475.461,124.418 478.703,125.944 481.837,127.559 484.859,129.256 487.764,131.03 490.545,132.875 493.201,134.785 495.727,136.753 498.121,138.772 500.382,140.838 502.507,142.942 504.498,145.079 506.353,147.243 508.073,149.427 509.66,151.626 511.115,153.834 512.441,156.046 513.641,158.257 514.716,160.462 515.671,162.657 516.509,164.836 517.233,166.998 517.849,169.136 518.359,171.25 519.083,175.388 519.438,179.392 519.461,183.247 519.188,186.939 518.65,190.46 517.883,193.807 516.915,196.975 515.776,199.964 514.493,202.778 513.088,205.417 511.585,207.889 510.002,210.196 508.357,212.346 506.667,214.345 504.943,216.2 503.2,217.918 501.447,219.506 499.694,220.972 497.948,222.321 496.217,223.561 494.507,224.698 492.822,225.739 491.167,226.689 489.544,227.555 486.41,229.053 483.437,230.274 480.634,231.253 478.009,232.023 475.563,232.611 473.296,233.042 471.205,233.336 469.287,233.514 467.537,233.591 465.95,233.582 464.521,233.499 463.246,233.354 462.119,233.155 461.136,232.912 460.292,232.632 459.585,232.321 459.01,231.987 458.565,231.633 458.248,231.266 458.057,230.889 458.009,230.699 457.997,230.604 457.993,230.556 457.992,230.532 457.992,230.521 457.992,230.515 457.992,230.511 457.992,230.51"/>
<polygon fill="#000000" points="461.451,240.104 457.993,230.325 454.356,240.039"/>
<polyline fill="none" stroke="#000000" stroke-width="0.5" points="457.992,230.49 457.993,230.325"/>
<polygon fill="#000000" points="514.318,294.924 512.349,305.108 520.403,298.572"/>
<polyline fill="none" stroke="#000000" stroke-width="0.5" points="512.441,304.954 512.349,305.108"/>
<polygon fill="#000000" points="391.146,338.414 380.794,337.748 388.295,344.911"/>
<polyline fill="none" stroke="#000000" stroke-width="0.5" points="381.008,337.841 380.794,337.748"/>
<polygon fill="#000000" points="341.591,304.53 334.316,297.136 335.136,307.476"/>
<polyline fill="none" stroke="#000000" stroke-width="0.5" points="334.389,297.294 334.316,297.136"/>
<polygon fill="#000000" points="332.193,256.745 333.055,246.408 325.75,253.772"/>
<polyline fill="none" stroke="#000000" stroke-width="0.5" points="332.982,246.567 333.055,246.408"/>
<polygon fill="#000000" points="370.15,211.725 378.007,204.954 367.636,205.09"/>
<polyline fill="none" stroke="#000000" stroke-width="0.5" points="377.784,205.039 378.007,204.954"/>
<polygon fill="#000000" points="388.155,256.098 377.784,255.961 385.641,262.733"/>
<polyline fill="none" stroke="#000000" stroke-width="0.5" points="378.007,256.046 377.784,255.961"/>
<polygon fill="#000000" points="340.287,221.797 332.982,214.433 333.845,224.77"/>
<polyline fill="none" stroke="#000000" stroke-width="0.5" points="333.055,214.592 332.982,214.433"/>
<polygon fill="#000000" points="333.569,174.045 334.389,163.706 327.114,171.1"/>
<polyline fill="none" stroke="#000000" stroke-width="0.5" points="334.316,163.864 334.389,163.706"/>
<polygon fill="#000000" points="373.507,130.322 381.008,123.159 370.657,123.825"/>
<polyline fill="none" stroke="#000000" stroke-width="0.5" points="380.794,123.252 381.008,123.159"/>
<polygon fill="#000000" points="504.387,149.511 512.441,156.046 510.473,145.863"/>
<polyline fill="none" stroke="#000000" stroke-width="0.5" points="512.349,155.892 512.441,156.046"/>
<polygon fill="#000000" points="461.628,240.224 457.992,230.51 454.534,240.289"/>
<polyline fill="none" stroke="#000000" stroke-width="0.5" points="457.993,230.675 457.992,230.51"/>
<polygon fill="#ffffee" points="506,148 506,156 514,156"/>
<polygon fill="#ffffee" points="506,148 514,156 514,148"/>
<polyline fill="none" stroke="#000000" stroke-width="0.5" points="506,148 506,156 514,156 514,148 506,148"/>
<text fill="#000000" style="stroke:none" x="379" y="254" transform="rotate(0, 379, 254)" font-size="10" font-family="SansSerif" font-style="normal" font-weight="normal">-3.36</text>
<text fill="#000000" style="stroke:none" x="379" y="203" transform="rotate(0, 379, 203)" font-size="10" font-family="SansSerif" font-style="normal" font-weight="normal">3.36</text>
<text fill="#000000" style="stroke:none" x="334" y="212" transform="rotate(0, 334, 212)" font-size="10" font-family="SansSerif" font-style="normal" font-weight="normal">-2.36</text>
<text fill="#000000" style="stroke:none" x="334" y="245" transform="rotate(0, 334, 245)" font-size="10" font-family="SansSerif" font-style="normal" font-weight="normal">2.36</text>
<text fill="#000000" style="stroke:none" x="335" y="162" transform="rotate(0, 335, 162)" font-size="10" font-family="SansSerif" font-style="normal" font-weight="normal">-1.98</text>
<text fill="#000000" style="stroke:none" x="335" y="295" transform="rotate(0, 335, 295)" font-size="10" font-family="SansSerif" font-style="normal" font-weight="normal">1.98</text>
<text fill="#000000" style="stroke:none" x="382" y="121" transform="rotate(0, 382, 121)" font-size="10" font-family="SansSerif" font-style="normal" font-weight="normal">-1.74</text>
<text fill="#000000" style="stroke:none" x="382" y="336" transform="rotate(0, 382, 336)" font-size="10" font-family="SansSerif" font-style="normal" font-weight="normal">1.74</text>
<text fill="#000000" style="stroke:none" x="513" y="154" transform="rotate(0, 513, 154)" font-size="10" font-family="SansSerif" font-style="normal" font-weight="normal">-1.33</text>
<text fill="#000000" style="stroke:none" x="513" y="303" transform="rotate(0, 513, 303)" font-size="10" font-family="SansSerif" font-style="normal" font-weight="normal">1.33</text>
<text fill="#000000" style="stroke:none" x="459" y="228" transform="rotate(0, 459, 228)" font-size="10" font-family="SansSerif" font-style="normal" font-weight="normal">0.001</text>
<polygon fill="#ffffee" points="435.5,123.5 435.5,147.5 506.5,147.5"/>
<polygon fill="#ffffee" points="435.5,123.5 506.5,147.5 506.5,123.5"/>
<polyline fill="none" stroke="#bebebe" stroke-width="0.5" points="435.5,123.5 435.5,147.5 506.5,147.5 506.5,123.5 435.5,123.5"/>
<text fill="#000000" style="stroke:none" x="436" y="134" transform="rotate(0, 436, 134)" font-size="10" font-family="SansSerif" font-style="normal" font-weight="normal">1.331+0.684i</text>
<text fill="#000000" style="stroke:none" x="436" y="146" transform="rotate(0, 436, 146)" font-size="10" font-family="SansSerif" font-style="normal" font-weight="normal">1.352 Hz</text>
<polyline fill="none" stroke="#000000" stroke-width="0.5" points="76.5,403.375 76.5,57.625"/>
<polyline fill="none" stroke="#000000" stroke-width="0.5" points="76.5,403.375 69.6152,403.375"/>
<polyline fill="none" stroke="#000000" stroke-width="0.5" points="76.5,345.75 69.6152,345.75"/>
<polyline fill="none" stroke="#000000" stroke-width="0.5" points="76.5,288.125 69.6152,288.125"/>
<polyline fill="none" stroke="#000000" stroke-width="0.5" points="76.5,230.5 69.6152,230.5"/>
<polyline fill="none" stroke="#000000" stroke-width="0.5" points="76.5,172.875 69.6152,172.875"/>
<polyline fill="none" stroke="#000000" stroke-width="0.5" points="76.5,115.25 69.6152,115.25"/>
<polyline fill="none" stroke="#000000" stroke-width="0.5" points="76.5,57.625 69.6152,57.625"/>
<polyline fill="none" stroke="#000000" stroke-width="0.5" points="76.5,388.969 72.3691,388.969"/>
<polyline fill="none" stroke="#000000" stroke-width="0.5" points="76.5,374.562 72.3691,374.562"/>
<polyline fill="none" stroke="#000000" stroke-width="0.5" points="76.5,360.156 72.3691,360.156"/>
<polyline fill="none" stroke="#000000" stroke-width="0.5" points="76.5,331.344 72.3691,331.344"/>
<polyline fill="none" stroke="#000000" stroke-width="0.5" points="76.5,316.938 72.3691,316.938"/>
<polyline fill="none" stroke="#000000" stroke-width="0.5" points="76.5,302.531 72.3691,302.531"/>
<polyline fill="none" stroke="#000000" stroke-width="0.5" points="76.5,273.719 72.3691,273.719"/>
<polyline fill="none" stroke="#000000" stroke-width="0.5" points="76.5,259.312 72.3691,259.312"/>
<polyline fill="none" stroke="#000000" stroke-width="0.5" points="76.5,244.906 72.3691,244.906"/>
<polyline fill="none" stroke="#000000" stroke-width="0.5" points="76.5,216.094 72.3691,216.094"/>
<polyline fill="none" stroke="#000000" stroke-width="0.5" points="76.5,201.688 72.3691,201.688"/>
<polyline fill="none" stroke="#000000" stroke-width="0.5" points="76.5,187.281 72.3691,187.281"/>
<polyline fill="none" stroke="#000000" stroke-width="0.5" points="76.5,158.469 72.3691,158.469"/>
<polyline fill="none" stroke="#000000" stroke-width="0.5" points="76.5,144.062 72.3691,144.062"/>
<polyline fill="none" stroke="#000000" stroke-width="0.5" points="76.5,129.656 72.3691,129.656"/>
<polyline fill="none" stroke="#000000" stroke-width="0.5" points="76.5,100.844 72.3691,100.844"/>
<polyline fill="none" stroke="#000000" stroke-width="0.5" points="76.5,86.4375 72.3691,86.4375"/>
<polyline fill="none" stroke="#000000" stroke-width="0.5" points="76.5,72.0312 72.3691,72.0312"/>
<text fill="#000000" style="stroke:none" x="46" y="408" transform="rotate(-0, 46, 408)" font-size="10" font-family="SansSerif" font-style="normal" font-weight="normal">-1.5</text>
<text fill="#000000" style="stroke:none" x="46" y="351" transform="rotate(-0, 46, 351)" font-size="10" font-family="SansSerif" font-style="normal" font-weight="normal">-1.0</text>
<text fill="#000000" style="stroke:none" x="46" y="293" transform="rotate(-0, 46, 293)" font-size="10" font-family="SansSerif" font-style="normal" font-weight="normal">-0.5</text>
<text fill="#000000" style="stroke:none" x="51" y="235" transform="rotate(-0, 51, 235)" font-size="10" font-family="SansSerif" font-style="normal" font-weight="normal">0.0</text>
<text fill="#000000" style="stroke:none" x="52" y="178" transform="rotate(-0, 52, 178)" font-size="10" font-family="SansSerif" font-style="normal" font-weight="normal">0.5</text>
<text fill="#000000" style="stroke:none" x="52" y="120" transform="rotate(-0, 52, 120)" font-size="10" font-family="SansSerif" font-style="normal" font-weight="normal">1.0</text>
<text fill="#000000" style="stroke:none" x="53" y="63" transform="rotate(-0, 53, 63)" font-size="10" font-family="SansSerif" font-style="normal" font-weight="normal">1.5</text>
<polyline fill="none" stroke="#d3d3d3" stroke-width="0.5" stroke-dasharray="4,4,4,4" points="76.5,403.375 535.5,403.375 535.5,403.375"/>
<polyline fill="none" stroke="#d3d3d3" stroke-width="0.5" stroke-dasharray="4,4,4,4" points="76.5,345.75 535.5,345.75 535.5,345.75"/>
<polyline fill="none" stroke="#d3d3d3" stroke-width="0.5" stroke-dasharray="4,4,4,4" points="76.5,288.125 535.5,288.125 535.5,288.125"/>
<polyline fill="none" stroke="#d3d3d3" stroke-width="0.5" stroke-dasharray="4,4,4,4" points="76.5,230.5 535.5,230.5 535.5,230.5"/>
<polyline fill="none" stroke="#d3d3d3" stroke-width="0.5" stroke-dasharray="4,4,4,4" points="76.5,172.875 535.5,172.875 535.5,172.875"/>
<polyline fill="none" stroke="#d3d3d3" stroke-width="0.5" stroke-dasharray="4,4,4,4" points="76.5,115.25 535.5,115.25 535.5,115.25"/>
<polyline fill="none" stroke="#d3d3d3" stroke-width="0.5" stroke-dasharray="4,4,4,4" points="76.5,57.625 535.5,57.625 535.5,57.625"/>
<polyline fill="none" stroke="#000000" stroke-width="0.5" points="76.5,403.375 535.5,403.375"/>
<polyline fill="none" stroke="#000000" stroke-width="0.5" points="76.5,403.375 76.5,408.55"/>
<polyline fill="none" stroke="#000000" stroke-width="0.5" points="153,403.375 153,408.55"/>
<polyline fill="none" stroke="#000000" stroke-width="0.5" points="229.5,403.375 229.5,408.55"/>
<polyline fill="none" stroke="#000000" stroke-width="0.5" points="306,403.375 306,408.55"/>
<polyline fill="none" stroke="#000000" stroke-width="0.5" points="382.5,403.375 382.5,408.55"/>
<polyline fill="none" stroke="#000000" stroke-width="0.5" points="459,403.375 459,408.55"/>
<polyline fill="none" stroke="#000000" stroke-width="0.5" points="535.5,403.375 535.5,408.55"/>
<polyline fill="none" stroke="#000000" stroke-width="0.5" points="95.625,403.375 95.625,406.48"/>
<polyline fill="none" stroke="#000000" stroke-width="0.5" points="114.75,403.375 114.75,406.48"/>
<polyline fill="none" stroke="#000000" stroke-width="0.5" points="133.875,403.375 133.875,406.48"/>
<polyline fill="none" stroke="#000000" stroke-width="0.5" points="172.125,403.375 172.125,406.48"/>
<polyline fill="none" stroke="#000000" stroke-width="0.5" points="191.25,403.375 191.25,406.48"/>
<polyline fill="none" stroke="#000000" stroke-width="0.5" points="210.375,403.375 210.375,406.48"/>
<polyline fill="none" stroke="#000000" stroke-width="0.5" points="248.625,403.375 248.625,406.48"/>
<polyline fill="none" stroke="#000000" stroke-width="0.5" points="267.75,403.375 267.75,406.48"/>
<polyline fill="none" stroke="#000000" stroke-width="0.5" points="286.875,403.375 286.875,406.48"/>
<polyline fill="none" stroke="#000000" stroke-width="0.5" points="325.125,403.375 325.125,406.48"/>
<polyline fill="none" stroke="#000000" stroke-width="0.5" points="344.25,403.375 344.25,406.48"/>
<polyline fill="none" stroke="#000000" stroke-width="0.5" points="363.375,403.375 363.375,406.48"/>
<polyline fill="none" stroke="#000000" stroke-width="0.5" points="401.625,403.375 401.625,406.48"/>
<polyline fill="none" stroke="#000000" stroke-width="0.5" points="420.75,403.375 420.75,406.48"/>
<polyline fill="none" stroke="#000000" stroke-width="0.5" points="439.875,403.375 439.875,406.48"/>
<polyline fill="none" stroke="#000000" stroke-width="0.5" points="478.125,403.375 478.125,406.48"/>
<polyline fill="none" stroke="#000000" stroke-width="0.5" points="497.25,403.375 497.25,406.48"/>
<polyline fill="none" stroke="#000000" stroke-width="0.5" points="516.375,403.375 516.375,406.48"/>
<text fill="#000000" style="stroke:none" x="66" y="420" transform="rotate(-0, 66, 420)" font-size="10" font-family="SansSerif" font-style="normal" font-weight="normal">-1.5</text>
<text fill="#000000" style="stroke:none" x="142" y="420" transform="rotate(-0, 142, 420)" font-size="10" font-family="SansSerif" font-style="normal" font-weight="normal">-1.0</text>
<text fill="#000000" style="stroke:none" x="219" y="420" transform="rotate(-0, 219, 420)" font-size="10" font-family="SansSerif" font-style="normal" font-weight="normal">-0.5</text>
<text fill="#000000" style="stroke:none" x="298" y="420" transform="rotate(-0, 298, 420)" font-size="10" font-family="SansSerif" font-style="normal" font-weight="normal">0.0</text>
<text fill="#000000" style="stroke:none" x="375" y="420" transform="rotate(-0, 375, 420)" font-size="10" font-family="SansSerif" font-style="normal" font-weight="normal">0.5</text>
<text fill="#000000" style="stroke:none" x="451" y="420" transform="rotate(-0, 451, 420)" font-size="10" font-family="SansSerif" font-style="normal" font-weight="normal">1.0</text>
<text fill="#000000" style="stroke:none" x="528" y="420" transform="rotate(-0, 528, 420)" font-size="10" font-family="SansSerif" font-style="normal" font-weight="normal">1.5</text>
<polyline fill="none" stroke="#d3d3d3" stroke-width="0.5" stroke-dasharray="4,4,4,4" points="76.5,403.375 76.5,57.625 76.5,57.625"/>
<polyline fill="none" stroke="#d3d3d3" stroke-width="0.5" stroke-dasharray="4,4,4,4" points="153,403.375 153,57.625 153,57.625"/>
<polyline fill="none" stroke="#d3d3d3" stroke-width="0.5" stroke-dasharray="4,4,4,4" points="229.5,403.375 229.5,57.625 229.5,57.625"/>
<polyline fill="none" stroke="#d3d3d3" stroke-width="0.5" stroke-dasharray="4,4,4,4" points="306,403.375 306,57.625 306,57.625"/>
<polyline fill="none" stroke="#d3d3d3" stroke-width="0.5" stroke-dasharray="4,4,4,4" points="382.5,403.375 382.5,57.625 382.5,57.625"/>
<polyline fill="none" stroke="#d3d3d3" stroke-width="0.5" stroke-dasharray="4,4,4,4" points="459,403.375 459,57.625 459,57.625"/>
<polyline fill="none" stroke="#d3d3d3" stroke-width="0.5" stroke-dasharray="4,4,4,4" points="535.5,403.375 535.5,57.625 535.5,57.625"/>
<text fill="#000000" style="stroke:none" x="274" y="49" transform="rotate(0, 274, 49)" font-size="10" font-family="SansSerif" font-style="normal" font-weight="normal">Nyquist plot</text>
<text fill="#000000" style="stroke:none" x="278" y="436" transform="rotate(0, 278, 436)" font-size="10" font-family="SansSerif" font-style="normal" font-weight="normal">Re(h(2i&#x03c0;f))</text>
<text fill="#000000" style="stroke:none" x="38" y="258" transform="rotate(270, 38, 258)" font-size="10" font-family="SansSerif" font-style="normal" font-weight="normal">Im(h(2i&#x03c0;f))</text>
</g>
</svg>
