<?xml version="1.0" encoding="UTF-8" standalone="no"?>
<svg xmlns="http://www.w3.org/2000/svg"
     xmlns:xlink="http://www.w3.org/1999/xlink"
     width="612px" height="461px" viewBox="0 0 612 461"
     style="stroke:none">
<title>Graphic window number 0</title>
<desc>
Creator: GL2PS 1.3.2, (C) 1999-2006 Christophe Geuzaine (geuz@geuz.org)
For: Scilab
CreationDate: Fri Apr 16 10:34:53 2010
</desc>
<defs>
</defs>
<polygon fill="#ffffff" points="0,0 612,0 612,461 0,461"/>
<g>
<polygon fill="#ffffff" points="76.5,403.375 76.5,57.625 76.5,57.625"/>
<polygon fill="#ffffff" points="76.5,403.375 76.5,57.625 76.5,403.375"/>
<polygon fill="#ffffff" points="76.5,403.375 535.5,403.375 535.5,403.375"/>
<polygon fill="#ffffff" points="76.5,403.375 535.5,403.375 76.5,403.375"/>
<polygon fill="#ffffff" points="76.5,403.375 535.5,403.375 535.5,57.625"/>
<polygon fill="#ffffff" points="76.5,403.375 535.5,57.625 76.5,57.625"/>
<polyline fill="none" stroke="#d3d3d3" stroke-width="0.5" stroke-dasharray="4,4,4,4" points="459,230.5 458.962,229.954 458.848,229.409 458.657,228.865 458.391,228.322 458.049,227.782 457.631,227.245 457.139,226.71 456.573,226.18 455.932,225.653 455.218,225.132 454.432,224.616 453.574,224.105 452.646,223.602 451.647,223.105 450.58,222.615 449.444,222.133 448.242,221.66 446.974,221.195 445.643,220.74 444.248,220.294 442.791,219.859 441.274,219.435 439.699,219.021 438.067,218.618 436.38,218.228 434.639,217.85 432.845,217.484 431.002,217.131 429.11,216.792 427.172,216.466 425.189,216.154 423.164,215.857 421.098,215.574 418.994,215.306 416.853,215.054 414.678,214.816 412.471,214.595 410.234,214.389 407.97,214.199 405.68,214.025 403.367,213.868 401.033,213.728 398.681,213.604 396.312,213.497 393.93,213.407 391.537,213.333 389.134,213.278 386.725,213.239 384.312,213.217 381.896,213.213 379.481,213.226 377.07,213.256 374.664,213.303 372.265,213.368 369.877,213.449 367.501,213.548 365.141,213.664 362.797,213.796 360.474,213.944 358.172,214.11 355.895,214.292 353.644,214.49 351.421,214.704 349.23,214.933 347.072,215.178 344.949,215.438 342.864,215.714 340.818,216.004 338.814,216.309 336.853,216.627 334.938,216.96 333.07,217.306 331.251,217.665 329.484,218.037 327.77,218.421 326.109,218.818 324.506,219.226 322.96,219.646 321.473,220.076 320.047,220.516 318.684,220.967 317.384,221.427 316.148,221.896 314.979,222.374 313.878,222.859 312.845,223.353 311.881,223.853 310.988,224.36 310.166,224.873 309.416,225.392 308.738,225.916 308.135,226.444 307.605,226.977 307.15,227.513 306.771,228.052 306.467,228.593 306.238,229.137 306.086,229.682 306.01,230.227 306.01,230.773 306.086,231.318 306.238,231.863 306.467,232.407 306.771,232.948 307.15,233.487 307.605,234.023 308.135,234.556 308.738,235.084 309.416,235.608 310.166,236.127 310.988,236.64 311.881,237.147 312.845,237.647 313.878,238.141 314.979,238.626 316.148,239.104 317.384,239.573 318.684,240.033 320.047,240.484 321.473,240.924 322.96,241.354 324.506,241.774 326.109,242.182 327.77,242.579 329.484,242.963 331.251,243.335 333.07,243.694 334.938,244.04 336.853,244.373 338.814,244.691 340.818,244.996 342.864,245.286 344.949,245.562 347.072,245.822 349.23,246.067 351.421,246.296 353.644,246.51 355.895,246.708 358.172,246.89 360.474,247.056 362.797,247.204 365.141,247.336 367.501,247.452 369.877,247.551 372.265,247.632 374.664,247.697 377.07,247.744 379.481,247.774 381.896,247.787 384.312,247.783 386.725,247.761 389.134,247.722 391.537,247.667 393.93,247.593 396.312,247.503 398.681,247.396 401.033,247.272 403.367,247.132 405.68,246.975 407.97,246.801 410.234,246.611 412.471,246.405 414.678,246.184 416.853,245.946 418.994,245.694 421.098,245.426 423.164,245.143 425.189,244.846 427.172,244.534 429.11,244.208 431.002,243.869 432.845,243.516 434.639,243.15 436.38,242.772 438.067,242.382 439.699,241.979 441.274,241.565 442.791,241.141 444.248,240.706 445.643,240.26 446.974,239.805 448.242,239.34 449.444,238.867 450.58,238.385 451.647,237.895 452.646,237.398 453.574,236.895 454.432,236.384 455.218,235.868 455.932,235.347 456.573,234.82 457.139,234.29 457.631,233.755 458.049,233.218 458.391,232.678 458.657,232.135 458.848,231.591 458.962,231.046 459,230.5"/>
<polyline fill="none" stroke="#d3d3d3" stroke-width="0.5" stroke-dasharray="1,1,1,1,1,1,1,1,1,1" points="470.834,220.519 470.791,219.889 470.659,219.259 470.438,218.631 470.131,218.005 469.736,217.381 469.254,216.76 468.686,216.143 468.032,215.53 467.292,214.923 466.468,214.32 465.56,213.725 464.57,213.135 463.497,212.554 462.344,211.98 461.111,211.415 459.8,210.858 458.412,210.312 456.949,209.775 455.411,209.25 453.8,208.735 452.118,208.232 450.367,207.742 448.548,207.264 446.664,206.799 444.715,206.348 442.705,205.912 440.634,205.489 438.505,205.082 436.321,204.69 434.083,204.314 431.793,203.954 429.455,203.611 427.069,203.284 424.64,202.975 422.167,202.683 419.656,202.409 417.108,202.153 414.525,201.915 411.91,201.696 409.266,201.496 406.595,201.314 403.9,201.152 401.184,201.009 398.449,200.885 395.698,200.781 392.935,200.697 390.16,200.632 387.378,200.587 384.592,200.563 381.803,200.558 379.015,200.573 376.23,200.607 373.452,200.662 370.682,200.737 367.924,200.831 365.181,200.945 362.456,201.078 359.75,201.23 357.066,201.402 354.409,201.593 351.779,201.803 349.18,202.032 346.614,202.279 344.083,202.544 341.591,202.827 339.14,203.127 336.732,203.445 334.37,203.78 332.056,204.132 329.792,204.5 327.58,204.884 325.423,205.284 323.324,205.699 321.283,206.128 319.303,206.572 317.386,207.03 315.534,207.501 313.749,207.985 312.032,208.482 310.386,208.991 308.811,209.511 307.31,210.042 305.884,210.583 304.534,211.135 303.262,211.696 302.069,212.266 300.957,212.844 299.925,213.429 298.976,214.022 298.109,214.621 297.328,215.226 296.63,215.836 296.019,216.451 295.494,217.07 295.056,217.692 294.704,218.317 294.44,218.945 294.265,219.574 294.176,220.204 294.176,220.834 294.265,221.464 294.44,222.093 294.704,222.721 295.056,223.346 295.494,223.968 296.019,224.587 296.63,225.202 297.328,225.812 298.109,226.417 298.976,227.016 299.925,227.609 300.957,228.194 302.069,228.772 303.262,229.342 304.534,229.903 305.884,230.455 307.31,230.996 308.811,231.527 310.386,232.047 312.032,232.556 313.749,233.053 315.534,233.537 317.386,234.008 319.303,234.466 321.283,234.91 323.324,235.339 325.423,235.754 327.58,236.154 329.792,236.538 332.056,236.906 334.37,237.258 336.732,237.593 339.14,237.911 341.591,238.211 344.083,238.494 346.614,238.759 349.18,239.006 351.779,239.235 354.409,239.445 357.066,239.636 359.75,239.808 362.456,239.96 365.181,240.094 367.924,240.208 370.682,240.301 373.452,240.376 376.23,240.431 379.015,240.465 381.803,240.48 384.592,240.476 387.378,240.451 390.16,240.406 392.935,240.341 395.698,240.257 398.449,240.153 401.184,240.029 403.9,239.886 406.595,239.724 409.266,239.542 411.91,239.342 414.525,239.123 417.108,238.885 419.656,238.629 422.167,238.355 424.64,238.063 427.069,237.754 429.455,237.427 431.793,237.084 434.083,236.724 436.321,236.348 438.505,235.956 440.634,235.549 442.705,235.126 444.715,234.69 446.664,234.239 448.548,233.774 450.367,233.296 452.118,232.806 453.8,232.303 455.411,231.789 456.949,231.263 458.412,230.727 459.8,230.18 461.111,229.624 462.344,229.058 463.497,228.484 464.57,227.903 465.56,227.313 466.468,226.718 467.292,226.115 468.032,225.508 468.686,224.895 469.254,224.278 469.736,223.657 470.131,223.034 470.438,222.407 470.659,221.779 470.791,221.149 470.834,220.519"/>
<polyline fill="none" stroke="#d3d3d3" stroke-width="0.5" stroke-dasharray="1,1,1,1,1,1,1,1,1,1" points="490.688,213.212 490.633,212.441 490.472,211.67 490.202,210.9 489.826,210.133 489.342,209.369 488.752,208.608 488.056,207.853 487.254,207.103 486.349,206.358 485.339,205.621 484.228,204.891 483.015,204.169 481.701,203.457 480.289,202.754 478.779,202.062 477.173,201.38 475.473,200.711 473.681,200.054 471.797,199.41 469.824,198.78 467.765,198.164 465.62,197.563 463.392,196.978 461.084,196.409 458.697,195.857 456.235,195.322 453.699,194.805 451.092,194.306 448.417,193.826 445.676,193.366 442.872,192.925 440.007,192.504 437.086,192.104 434.11,191.726 431.083,191.368 428.007,191.032 424.886,190.719 421.722,190.428 418.52,190.159 415.281,189.914 412.01,189.691 408.709,189.493 405.383,189.317 402.034,189.166 398.665,189.039 395.28,188.936 391.882,188.856 388.475,188.802 385.062,188.771 381.646,188.765 378.231,188.783 374.821,188.826 371.418,188.893 368.026,188.984 364.648,189.1 361.289,189.239 357.951,189.402 354.637,189.589 351.35,189.8 348.095,190.034 344.875,190.291 341.691,190.57 338.548,190.873 335.449,191.197 332.397,191.544 329.396,191.912 326.446,192.302 323.553,192.712 320.719,193.143 317.946,193.593 315.237,194.064 312.596,194.553 310.024,195.061 307.524,195.587 305.1,196.131 302.752,196.691 300.484,197.269 298.297,197.862 296.195,198.47 294.179,199.093 292.25,199.73 290.412,200.381 288.665,201.044 287.012,201.72 285.454,202.407 283.993,203.104 282.63,203.812 281.366,204.529 280.204,205.255 279.143,205.989 278.186,206.729 277.332,207.477 276.583,208.23 275.94,208.988 275.403,209.75 274.973,210.516 274.649,211.285 274.434,212.055 274.326,212.827 274.326,213.599 274.434,214.37 274.649,215.14 274.973,215.909 275.403,216.674 275.94,217.437 276.583,218.195 277.332,218.948 278.186,219.695 279.143,220.437 280.204,221.17 281.366,221.896 282.63,222.613 283.993,223.321 285.454,224.019 287.012,224.706 288.665,225.381 290.412,226.044 292.25,226.695 294.179,227.332 296.195,227.955 298.297,228.563 300.484,229.156 302.752,229.733 305.1,230.294 307.524,230.838 310.024,231.364 312.596,231.872 315.237,232.361 317.946,232.832 320.719,233.282 323.553,233.713 326.446,234.124 329.396,234.513 332.397,234.881 335.449,235.228 338.548,235.552 341.691,235.854 344.875,236.135 348.095,236.392 351.35,236.625 354.637,236.836 357.951,237.023 361.289,237.186 364.648,237.326 368.026,237.441 371.418,237.532 374.821,237.599 378.231,237.642 381.646,237.66 385.062,237.654 388.475,237.624 391.882,237.569 395.28,237.49 398.665,237.386 402.034,237.259 405.383,237.107 408.709,236.933 412.01,236.733 415.281,236.511 418.52,236.266 421.722,235.998 424.886,235.706 428.007,235.393 431.083,235.057 434.11,234.7 437.086,234.321 440.007,233.921 442.872,233.5 445.676,233.06 448.417,232.599 451.092,232.119 453.699,231.62 456.235,231.103 458.697,230.568 461.084,230.016 463.392,229.447 465.62,228.862 467.765,228.261 469.824,227.645 471.797,227.015 473.681,226.371 475.473,225.714 477.173,225.044 478.779,224.363 480.289,223.671 481.701,222.968 483.015,222.255 484.228,221.534 485.339,220.804 486.349,220.067 487.254,219.322 488.056,218.572 488.752,217.816 489.342,217.056 489.826,216.292 490.202,215.525 490.472,214.755 490.633,213.984 490.688,213.212"/>
<polyline fill="none" stroke="#d3d3d3" stroke-width="0.5" stroke-dasharray="1,1,1,1,1,1,1,1,1,1" points="535.5,200.557 535.424,199.466 535.195,198.375 534.814,197.287 534.281,196.202 533.597,195.122 532.763,194.046 531.778,192.978 530.645,191.917 529.364,190.864 527.937,189.821 526.365,188.789 524.649,187.769 522.792,186.761 520.794,185.767 518.659,184.788 516.388,183.824 513.984,182.877 511.449,181.948 508.785,181.038 505.995,180.146 503.082,179.275 500.049,178.426 496.899,177.598 493.635,176.793 490.259,176.013 486.777,175.256 483.19,174.525 479.504,173.819 475.72,173.141 471.844,172.489 467.878,171.866 463.828,171.271 459.696,170.706 455.488,170.17 451.206,169.665 446.856,169.189 442.442,168.746 437.969,168.334 433.439,167.955 428.86,167.607 424.234,167.293 419.566,167.012 414.861,166.765 410.125,166.55 405.36,166.37 400.573,166.224 395.768,166.112 390.95,166.035 386.123,165.992 381.292,165.983 376.463,166.009 371.64,166.069 366.828,166.164 362.031,166.293 357.254,166.456 352.503,166.653 347.782,166.884 343.095,167.148 338.448,167.446 333.844,167.777 329.289,168.141 324.787,168.536 320.343,168.964 315.96,169.423 311.644,169.913 307.399,170.434 303.228,170.985 299.136,171.565 295.128,172.174 291.207,172.812 287.376,173.477 283.641,174.169 280.003,174.887 276.469,175.631 273.04,176.4 269.719,177.193 266.512,178.009 263.419,178.848 260.446,179.708 257.595,180.589 254.867,181.49 252.268,182.411 249.797,183.349 247.459,184.304 245.256,185.275 243.19,186.262 241.262,187.263 239.476,188.277 237.831,189.304 236.331,190.341 234.977,191.389 233.77,192.446 232.711,193.511 231.801,194.583 231.042,195.661 230.433,196.744 229.977,197.831 229.671,198.92 229.519,200.011 229.519,201.103 229.671,202.194 229.977,203.284 230.433,204.37 231.042,205.453 231.801,206.531 232.711,207.604 233.77,208.668 234.977,209.725 236.331,210.773 237.831,211.811 239.476,212.837 241.262,213.852 243.19,214.853 245.256,215.839 247.459,216.811 249.797,217.766 252.268,218.704 254.867,219.624 257.595,220.525 260.446,221.406 263.419,222.267 266.512,223.105 269.719,223.921 273.04,224.714 276.469,225.483 280.003,226.227 283.641,226.945 287.376,227.638 291.207,228.303 295.128,228.94 299.136,229.549 303.228,230.129 307.399,230.68 311.644,231.201 315.96,231.691 320.343,232.15 324.787,232.578 329.289,232.974 333.844,233.337 338.448,233.668 343.095,233.966 347.782,234.23 352.503,234.461 357.254,234.658 362.031,234.821 366.828,234.95 371.64,235.045 376.463,235.105 381.292,235.131 386.123,235.123 390.95,235.08 395.768,235.002 400.573,234.89 405.36,234.744 410.125,234.564 414.861,234.35 419.566,234.102 424.234,233.821 428.86,233.507 433.439,233.16 437.969,232.78 442.442,232.368 446.856,231.925 451.206,231.45 455.488,230.944 459.696,230.409 463.828,229.843 467.878,229.248 471.844,228.625 475.72,227.974 479.504,227.295 483.19,226.589 486.777,225.858 490.259,225.102 493.635,224.321 496.899,223.516 500.049,222.688 503.082,221.839 505.995,220.968 508.785,220.077 511.449,219.167 513.984,218.237 516.388,217.29 518.659,216.327 520.794,215.348 522.792,214.354 524.649,213.346 526.365,212.326 527.937,211.293 529.364,210.25 530.645,209.198 531.778,208.137 532.763,207.068 533.597,205.993 534.281,204.912 534.814,203.827 535.195,202.739 535.424,201.648 535.5,200.557"/>
<polyline fill="none" stroke="#d3d3d3" stroke-width="0.5" stroke-dasharray="1,1,1,1,1,1,1,1,1,1" points="535.504,108.844 531.632,108.313 523.501,107.278 515.23,106.302 506.827,105.385 498.3,104.528 489.657,103.732 480.908,102.999 472.06,102.329 463.124,101.721 454.106,101.178 445.018,100.7 435.867,100.286 426.663,99.938 417.415,99.6562 408.132,99.4399 398.823,99.2905 389.499,99.207 380.167,99.1904 370.837,99.2402 361.52,99.3569 352.223,99.5396 342.957,99.7891 333.729,100.104 324.55,100.485 315.43,100.931 306.375,101.442 297.397,102.017 288.504,102.656 279.705,103.358 271.008,104.123 262.421,104.949 253.956,105.836 245.617,106.783 237.416,107.789 229.358,108.853 221.454,109.974 213.71,111.15 206.134,112.382 198.735,113.667 191.518,115.004 184.492,116.392 177.663,117.829 171.038,119.314 164.625,120.846 158.428,122.423 152.454,124.043 146.71,125.705 141.201,127.407 135.933,129.148 130.91,130.925 126.138,132.738 121.622,134.583 117.365,136.46 113.374,138.366 109.649,140.3 106.198,142.259 103.021,144.242 100.124,146.247 97.5073,148.271 95.1753,150.312 93.1294,152.37 91.3721,154.441 89.9053,156.524 88.7295,158.616 87.8472,160.715 87.2583,162.82 86.9634,164.928 86.9634,167.037 87.2583,169.145 87.8472,171.249 88.7295,173.349 89.9053,175.44 91.3721,177.523 93.1294,179.594 95.1753,181.652 97.5073,183.694 100.124,185.718 103.021,187.723 106.198,189.706 109.649,191.665 113.374,193.599 117.365,195.504 121.622,197.381 126.138,199.227 130.91,201.039 135.933,202.816 141.201,204.557 146.71,206.259 152.454,207.921 158.428,209.542 164.625,211.118 171.038,212.65 177.663,214.135 184.492,215.573 191.518,216.96 198.735,218.297 206.134,219.583 213.71,220.814 221.454,221.991 229.358,223.111 237.416,224.176 245.617,225.182 253.956,226.128 262.421,227.016 271.008,227.842 279.705,228.606 288.504,229.309 297.397,229.947 306.375,230.522 315.43,231.034 324.55,231.479 333.729,231.86 342.957,232.175 352.223,232.425 361.52,232.607 370.837,232.724 380.167,232.774 389.499,232.757 398.823,232.674 408.132,232.524 417.415,232.308 426.663,232.026 435.867,231.678 445.018,231.265 454.106,230.786 463.124,230.243 472.06,229.636 480.908,228.965 489.657,228.232 498.3,227.437 506.827,226.58 515.23,225.663 523.501,224.686 531.632,223.651 535.504,223.121"/>
<polyline fill="none" stroke="#d3d3d3" stroke-width="0.5" stroke-dasharray="1,1,1,1,1,1,1,1,1,1" points="86.9268,295.018 87.0742,297.126 87.5156,299.233 88.2515,301.335 89.2808,303.431 90.6021,305.519 92.2148,307.596 94.1167,309.661 96.3057,311.71 98.7803,313.744 101.538,315.758 104.575,317.752 107.89,319.724 111.478,321.67 115.336,323.591 119.461,325.482 123.848,327.344 128.492,329.173 133.39,330.968 138.537,332.727 143.926,334.449 149.553,336.131 155.413,337.772 161.499,339.371 167.805,340.925 174.325,342.434 181.052,343.896 187.98,345.309 195.103,346.671 202.412,347.982 209.901,349.24 217.562,350.445 225.387,351.594 233.368,352.687 241.499,353.722 249.77,354.698 258.173,355.615 266.7,356.472 275.343,357.268 284.092,358.001 292.94,358.671 301.876,359.279 310.894,359.822 319.982,360.3 329.133,360.714 338.337,361.062 347.585,361.344 356.868,361.56 366.177,361.709 375.501,361.793 384.833,361.81 394.163,361.76 403.48,361.643 412.777,361.46 422.043,361.211 431.271,360.896 440.45,360.515 449.57,360.069 458.625,359.558 467.603,358.983 476.496,358.344 485.295,357.642 493.992,356.877 502.579,356.051 511.044,355.164 519.383,354.217 527.584,353.211 535.504,352.166"/>
<polyline fill="none" stroke="#d3d3d3" stroke-width="0.5" stroke-dasharray="1,1,1,1,1,1,1,1,1,1" points="535.504,237.871 527.584,236.824 519.383,235.818 511.044,234.872 502.579,233.984 493.992,233.158 485.295,232.394 476.496,231.691 467.603,231.053 458.625,230.478 449.57,229.966 440.45,229.521 431.271,229.14 422.043,228.825 412.777,228.575 403.48,228.393 394.163,228.276 384.833,228.226 375.501,228.243 366.177,228.326 356.868,228.476 347.585,228.692 338.337,228.974 329.133,229.322 319.982,229.735 310.894,230.214 301.876,230.757 292.94,231.364 284.092,232.035 275.343,232.768 266.7,233.563 258.173,234.42 249.77,235.337 241.499,236.314 233.368,237.349 225.387,238.442 217.562,239.591 209.901,240.795 202.412,242.054 195.103,243.365 187.98,244.727 181.052,246.14 174.325,247.602 167.805,249.11 161.499,250.665 155.413,252.263 149.553,253.905 143.926,255.587 138.537,257.309 133.39,259.068 128.492,260.863 123.848,262.692 119.461,264.553 115.336,266.445 111.478,268.365 107.89,270.312 104.575,272.283 101.538,274.277 98.7803,276.292 96.3057,278.325 94.1167,280.375 92.2148,282.44 90.6021,284.517 89.2808,286.604 88.2515,288.701 87.5156,290.803 87.0742,292.909 86.9268,295.018"/>
<polyline fill="none" stroke="#d3d3d3" stroke-width="0.5" stroke-dasharray="1,1,1,1,1,1,1,1,1,1" points="229.5,260.443 229.576,261.534 229.805,262.625 230.186,263.713 230.719,264.798 231.403,265.878 232.237,266.954 233.222,268.022 234.355,269.083 235.636,270.136 237.063,271.179 238.635,272.211 240.351,273.231 242.208,274.239 244.206,275.233 246.341,276.212 248.612,277.176 251.016,278.123 253.551,279.052 256.215,279.962 259.005,280.854 261.918,281.725 264.951,282.574 268.101,283.402 271.365,284.207 274.741,284.987 278.223,285.744 281.81,286.475 285.496,287.181 289.28,287.859 293.156,288.511 297.122,289.134 301.172,289.729 305.304,290.294 309.512,290.83 313.794,291.335 318.144,291.811 322.558,292.254 327.031,292.666 331.561,293.045 336.14,293.393 340.766,293.707 345.434,293.988 350.139,294.235 354.875,294.45 359.64,294.63 364.427,294.776 369.232,294.888 374.05,294.965 378.877,295.008 383.708,295.017 388.537,294.991 393.36,294.931 398.172,294.836 402.969,294.707 407.746,294.544 412.497,294.347 417.218,294.116 421.905,293.852 426.552,293.554 431.156,293.223 435.711,292.859 440.213,292.464 444.657,292.036 449.04,291.577 453.356,291.087 457.601,290.566 461.772,290.015 465.864,289.435 469.872,288.826 473.793,288.188 477.624,287.523 481.359,286.831 484.997,286.113 488.531,285.369 491.96,284.6 495.281,283.807 498.488,282.991 501.581,282.152 504.554,281.292 507.405,280.411 510.133,279.51 512.732,278.589 515.203,277.651 517.541,276.696 519.744,275.725 521.81,274.738 523.738,273.737 525.524,272.723 527.169,271.696 528.669,270.659 530.023,269.611 531.23,268.554 532.289,267.489 533.199,266.417 533.958,265.339 534.567,264.256 535.023,263.169 535.329,262.08 535.481,260.989 535.481,259.897 535.329,258.806 535.023,257.716 534.567,256.63 533.958,255.547 533.199,254.469 532.289,253.396 531.23,252.332 530.023,251.275 528.669,250.227 527.169,249.189 525.524,248.163 523.738,247.148 521.81,246.147 519.744,245.161 517.541,244.189 515.203,243.234 512.732,242.296 510.133,241.376 507.405,240.475 504.554,239.594 501.581,238.733 498.488,237.895 495.281,237.079 491.96,236.286 488.531,235.517 484.997,234.773 481.359,234.055 477.624,233.362 473.793,232.697 469.872,232.06 465.864,231.451 461.772,230.871 457.601,230.32 453.356,229.799 449.04,229.309 444.657,228.85 440.213,228.422 435.711,228.026 431.156,227.663 426.552,227.332 421.905,227.034 417.218,226.77 412.497,226.539 407.746,226.342 402.969,226.179 398.172,226.05 393.36,225.955 388.537,225.895 383.708,225.869 378.877,225.877 374.05,225.92 369.232,225.998 364.427,226.11 359.64,226.256 354.875,226.436 350.139,226.65 345.434,226.898 340.766,227.179 336.14,227.493 331.561,227.84 327.031,228.22 322.558,228.632 318.144,229.075 313.794,229.55 309.512,230.056 305.304,230.591 301.172,231.157 297.122,231.752 293.156,232.375 289.28,233.026 285.496,233.705 281.81,234.411 278.223,235.142 274.741,235.898 271.365,236.679 268.101,237.484 264.951,238.312 261.918,239.161 259.005,240.032 256.215,240.923 253.551,241.833 251.016,242.763 248.612,243.71 246.341,244.673 244.206,245.652 242.208,246.646 240.351,247.654 238.635,248.674 237.063,249.707 235.636,250.75 234.355,251.802 233.222,252.863 232.237,253.932 231.403,255.007 230.719,256.088 230.186,257.173 229.805,258.261 229.576,259.352 229.5,260.443"/>
<polyline fill="none" stroke="#d3d3d3" stroke-width="0.5" stroke-dasharray="1,1,1,1,1,1,1,1,1,1" points="274.312,247.788 274.367,248.559 274.528,249.33 274.798,250.1 275.174,250.867 275.658,251.631 276.248,252.392 276.944,253.147 277.746,253.897 278.651,254.642 279.661,255.379 280.772,256.109 281.985,256.831 283.299,257.543 284.711,258.246 286.221,258.938 287.827,259.62 289.527,260.289 291.319,260.946 293.203,261.59 295.176,262.22 297.235,262.836 299.38,263.437 301.608,264.022 303.916,264.591 306.303,265.143 308.765,265.678 311.301,266.195 313.908,266.694 316.583,267.174 319.324,267.634 322.128,268.075 324.993,268.496 327.914,268.896 330.89,269.274 333.917,269.632 336.993,269.968 340.114,270.281 343.278,270.572 346.48,270.841 349.719,271.086 352.99,271.309 356.291,271.507 359.617,271.683 362.966,271.834 366.335,271.961 369.72,272.064 373.118,272.144 376.525,272.198 379.938,272.229 383.354,272.235 386.769,272.217 390.179,272.174 393.582,272.107 396.974,272.016 400.352,271.9 403.711,271.761 407.049,271.598 410.363,271.411 413.65,271.2 416.905,270.966 420.125,270.709 423.309,270.43 426.452,270.127 429.551,269.803 432.603,269.456 435.604,269.088 438.554,268.698 441.447,268.288 444.281,267.857 447.054,267.407 449.763,266.936 452.404,266.447 454.976,265.939 457.476,265.413 459.9,264.869 462.248,264.309 464.516,263.731 466.703,263.138 468.805,262.53 470.821,261.907 472.75,261.27 474.588,260.619 476.335,259.956 477.988,259.28 479.546,258.593 481.007,257.896 482.37,257.188 483.634,256.471 484.796,255.745 485.857,255.011 486.814,254.271 487.668,253.523 488.417,252.77 489.06,252.012 489.597,251.25 490.027,250.484 490.351,249.715 490.566,248.945 490.674,248.173 490.674,247.401 490.566,246.63 490.351,245.86 490.027,245.091 489.597,244.326 489.06,243.563 488.417,242.805 487.668,242.052 486.814,241.305 485.857,240.563 484.796,239.83 483.634,239.104 482.37,238.387 481.007,237.679 479.546,236.981 477.988,236.294 476.335,235.619 474.588,234.956 472.75,234.305 470.821,233.668 468.805,233.045 466.703,232.437 464.516,231.844 462.248,231.267 459.9,230.706 457.476,230.162 454.976,229.636 452.404,229.128 449.763,228.639 447.054,228.168 444.281,227.718 441.447,227.287 438.554,226.876 435.604,226.487 432.603,226.119 429.551,225.772 426.452,225.448 423.309,225.146 420.125,224.865 416.905,224.608 413.65,224.375 410.363,224.164 407.049,223.977 403.711,223.814 400.352,223.674 396.974,223.559 393.582,223.468 390.179,223.401 386.769,223.358 383.354,223.34 379.938,223.346 376.525,223.376 373.118,223.431 369.72,223.51 366.335,223.614 362.966,223.741 359.617,223.893 356.291,224.067 352.99,224.267 349.719,224.489 346.48,224.734 343.278,225.002 340.114,225.294 336.993,225.607 333.917,225.943 330.89,226.3 327.914,226.679 324.993,227.079 322.128,227.5 319.324,227.94 316.583,228.401 313.908,228.881 311.301,229.38 308.765,229.897 306.303,230.432 303.916,230.984 301.608,231.553 299.38,232.138 297.235,232.739 295.176,233.355 293.203,233.985 291.319,234.629 289.527,235.286 287.827,235.956 286.221,236.637 284.711,237.329 283.299,238.032 281.985,238.745 280.772,239.466 279.661,240.196 278.651,240.933 277.746,241.678 276.944,242.428 276.248,243.184 275.658,243.944 275.174,244.708 274.798,245.475 274.528,246.245 274.367,247.016 274.312,247.788"/>
<polyline fill="none" stroke="#d3d3d3" stroke-width="0.5" stroke-dasharray="1,1,1,1,1,1,1,1,1,1" points="294.166,240.481 294.209,241.111 294.341,241.741 294.562,242.369 294.869,242.995 295.264,243.619 295.746,244.24 296.314,244.857 296.968,245.47 297.708,246.077 298.532,246.68 299.44,247.275 300.43,247.865 301.503,248.446 302.656,249.02 303.889,249.585 305.2,250.142 306.588,250.688 308.051,251.225 309.589,251.75 311.2,252.265 312.882,252.768 314.633,253.258 316.452,253.736 318.336,254.201 320.285,254.652 322.295,255.088 324.366,255.511 326.495,255.918 328.679,256.31 330.917,256.686 333.207,257.046 335.545,257.389 337.931,257.716 340.36,258.025 342.833,258.317 345.344,258.591 347.892,258.847 350.475,259.085 353.09,259.304 355.734,259.504 358.405,259.686 361.1,259.848 363.816,259.991 366.551,260.115 369.302,260.219 372.065,260.303 374.84,260.368 377.622,260.413 380.408,260.437 383.197,260.442 385.985,260.427 388.77,260.393 391.548,260.338 394.318,260.263 397.076,260.169 399.819,260.055 402.544,259.922 405.25,259.77 407.934,259.598 410.591,259.407 413.221,259.197 415.82,258.968 418.386,258.721 420.917,258.456 423.409,258.173 425.86,257.873 428.268,257.555 430.63,257.22 432.944,256.868 435.208,256.5 437.42,256.116 439.577,255.716 441.676,255.301 443.717,254.872 445.697,254.428 447.614,253.97 449.466,253.499 451.251,253.015 452.968,252.518 454.614,252.009 456.189,251.489 457.69,250.958 459.116,250.417 460.466,249.865 461.738,249.304 462.931,248.734 464.043,248.156 465.075,247.571 466.024,246.978 466.891,246.379 467.672,245.774 468.37,245.164 468.981,244.549 469.506,243.93 469.944,243.308 470.296,242.683 470.56,242.055 470.735,241.426 470.824,240.796 470.824,240.166 470.735,239.536 470.56,238.907 470.296,238.279 469.944,237.654 469.506,237.032 468.981,236.413 468.37,235.798 467.672,235.188 466.891,234.583 466.024,233.984 465.075,233.391 464.043,232.806 462.931,232.228 461.738,231.658 460.466,231.097 459.116,230.545 457.69,230.004 456.189,229.473 454.614,228.953 452.968,228.444 451.251,227.947 449.466,227.463 447.614,226.992 445.697,226.534 443.717,226.09 441.676,225.661 439.577,225.246 437.42,224.846 435.208,224.462 432.944,224.094 430.63,223.742 428.268,223.407 425.86,223.089 423.409,222.789 420.917,222.506 418.386,222.241 415.82,221.994 413.221,221.765 410.591,221.555 407.934,221.364 405.25,221.192 402.544,221.04 399.819,220.906 397.076,220.792 394.318,220.699 391.548,220.624 388.77,220.569 385.985,220.535 383.197,220.52 380.408,220.524 377.622,220.549 374.84,220.594 372.065,220.659 369.302,220.743 366.551,220.847 363.816,220.971 361.1,221.114 358.405,221.276 355.734,221.458 353.09,221.658 350.475,221.877 347.892,222.115 345.344,222.371 342.833,222.645 340.36,222.937 337.931,223.246 335.545,223.573 333.207,223.916 330.917,224.276 328.679,224.652 326.495,225.044 324.366,225.451 322.295,225.874 320.285,226.31 318.336,226.761 316.452,227.226 314.633,227.704 312.882,228.194 311.2,228.697 309.589,229.211 308.051,229.737 306.588,230.273 305.2,230.82 303.889,231.376 302.656,231.942 301.503,232.516 300.43,233.097 299.44,233.687 298.532,234.282 297.708,234.885 296.968,235.492 296.314,236.105 295.746,236.722 295.264,237.343 294.869,237.966 294.562,238.593 294.341,239.221 294.209,239.851 294.166,240.481"/>
<polyline fill="none" stroke="#d3d3d3" stroke-width="0.5" stroke-dasharray="1,1,1,1,1,1,1,1,1,1" points="306,230.5 306.038,231.046 306.152,231.591 306.343,232.135 306.609,232.678 306.951,233.218 307.369,233.755 307.861,234.29 308.427,234.82 309.068,235.347 309.782,235.868 310.568,236.384 311.426,236.895 312.354,237.398 313.353,237.895 314.42,238.385 315.556,238.867 316.758,239.34 318.026,239.805 319.357,240.26 320.752,240.706 322.209,241.141 323.726,241.565 325.301,241.979 326.933,242.382 328.62,242.772 330.361,243.15 332.155,243.516 333.998,243.869 335.89,244.208 337.828,244.534 339.811,244.846 341.836,245.143 343.902,245.426 346.006,245.694 348.147,245.946 350.322,246.184 352.529,246.405 354.766,246.611 357.03,246.801 359.32,246.975 361.633,247.132 363.967,247.272 366.319,247.396 368.688,247.503 371.07,247.593 373.463,247.667 375.866,247.722 378.275,247.761 380.688,247.783 383.104,247.787 385.519,247.774 387.93,247.744 390.336,247.697 392.735,247.632 395.123,247.551 397.499,247.452 399.859,247.336 402.203,247.204 404.526,247.056 406.828,246.89 409.105,246.708 411.356,246.51 413.579,246.296 415.77,246.067 417.928,245.822 420.051,245.562 422.136,245.286 424.182,244.996 426.186,244.691 428.147,244.373 430.062,244.04 431.93,243.694 433.749,243.335 435.516,242.963 437.23,242.579 438.891,242.182 440.494,241.774 442.04,241.354 443.527,240.924 444.953,240.484 446.316,240.033 447.616,239.573 448.852,239.104 450.021,238.626 451.122,238.141 452.155,237.647 453.119,237.147 454.012,236.64 454.834,236.127 455.584,235.608 456.262,235.084 456.865,234.556 457.395,234.023 457.85,233.487 458.229,232.948 458.533,232.407 458.762,231.863 458.914,231.318 458.99,230.773 458.99,230.227 458.914,229.682 458.762,229.137 458.533,228.593 458.229,228.052 457.85,227.513 457.395,226.977 456.865,226.444 456.262,225.916 455.584,225.392 454.834,224.873 454.012,224.36 453.119,223.853 452.155,223.353 451.122,222.859 450.021,222.374 448.852,221.896 447.616,221.427 446.316,220.967 444.953,220.516 443.527,220.076 442.04,219.646 440.494,219.226 438.891,218.818 437.23,218.421 435.516,218.037 433.749,217.665 431.93,217.306 430.062,216.96 428.147,216.627 426.186,216.309 424.182,216.004 422.136,215.714 420.051,215.438 417.928,215.178 415.77,214.933 413.579,214.704 411.356,214.49 409.105,214.292 406.828,214.11 404.526,213.944 402.203,213.796 399.859,213.664 397.499,213.548 395.123,213.449 392.735,213.368 390.336,213.303 387.93,213.256 385.519,213.226 383.104,213.213 380.688,213.217 378.275,213.239 375.866,213.278 373.463,213.333 371.07,213.407 368.688,213.497 366.319,213.604 363.967,213.728 361.633,213.868 359.32,214.025 357.03,214.199 354.766,214.389 352.529,214.595 350.322,214.816 348.147,215.054 346.006,215.306 343.902,215.574 341.836,215.857 339.811,216.154 337.828,216.466 335.89,216.792 333.998,217.131 332.155,217.484 330.361,217.85 328.62,218.228 326.933,218.618 325.301,219.021 323.726,219.435 322.209,219.859 320.752,220.294 319.357,220.74 318.026,221.195 316.758,221.66 315.556,222.133 314.42,222.615 313.353,223.105 312.354,223.602 311.426,224.105 310.568,224.616 309.782,225.132 309.068,225.653 308.427,226.18 307.861,226.71 307.369,227.245 306.951,227.782 306.609,228.322 306.343,228.865 306.152,229.409 306.038,229.954 306,230.5"/>
<polyline fill="none" stroke="#d3d3d3" stroke-width="0.5" stroke-dasharray="1,1,1,1,1,1,1,1,1,1" points="319.909,230.5 319.901,230.39 319.878,230.28 319.84,230.17 319.786,230.06 319.717,229.951 319.633,229.842 319.533,229.734 319.418,229.627 319.289,229.521 319.145,229.416 318.986,229.311 318.813,229.208 318.625,229.106 318.424,229.006 318.208,228.907 317.979,228.81 317.736,228.714 317.479,228.62 317.21,228.528 316.929,228.438 316.635,228.35 316.328,228.265 316.01,228.181 315.68,228.1 315.339,228.021 314.988,227.944 314.625,227.871 314.253,227.799 313.871,227.73 313.479,227.665 313.079,227.602 312.669,227.542 312.252,227.485 311.827,227.431 311.395,227.379 310.955,227.332 310.509,227.287 310.058,227.245 309.6,227.207 309.137,227.172 308.67,227.14 308.199,227.112 307.723,227.086 307.245,227.065 306.764,227.047 306.28,227.032 305.795,227.021 305.308,227.013 304.82,227.009 304.333,227.008 303.845,227.01 303.357,227.017 302.872,227.026 302.387,227.039 301.904,227.056 301.424,227.075 300.948,227.099 300.474,227.125 300.005,227.155 299.54,227.189 299.08,227.226 298.625,227.266 298.176,227.309 297.733,227.355 297.297,227.405 296.869,227.457 296.447,227.513 296.034,227.571 295.629,227.633 295.233,227.697 294.846,227.765 294.469,227.834 294.102,227.907 293.744,227.982 293.398,228.06 293.062,228.14 292.739,228.223 292.426,228.307 292.126,228.394 291.838,228.483 291.562,228.574 291.3,228.667 291.05,228.762 290.814,228.858 290.591,228.957 290.383,229.056 290.188,229.157 290.008,229.26 289.841,229.363 289.69,229.468 289.553,229.574 289.431,229.681 289.324,229.788 289.232,229.896 289.156,230.005 289.094,230.115 289.048,230.225 289.018,230.334 289.002,230.445 289.002,230.555 289.018,230.666 289.048,230.775 289.094,230.885 289.156,230.995 289.232,231.104 289.324,231.212 289.431,231.319 289.553,231.426 289.69,231.532 289.841,231.637 290.008,231.74 290.188,231.843 290.383,231.944 290.591,232.043 290.814,232.142 291.05,232.238 291.3,232.333 291.562,232.426 291.838,232.517 292.126,232.606 292.426,232.693 292.739,232.777 293.062,232.86 293.398,232.94 293.744,233.018 294.102,233.093 294.469,233.166 294.846,233.235 295.233,233.303 295.629,233.367 296.034,233.429 296.447,233.487 296.869,233.543 297.297,233.595 297.733,233.645 298.176,233.691 298.625,233.734 299.08,233.774 299.54,233.811 300.005,233.845 300.474,233.875 300.948,233.901 301.424,233.925 301.904,233.944 302.387,233.961 302.872,233.974 303.357,233.983 303.845,233.99 304.333,233.992 304.82,233.991 305.308,233.987 305.795,233.979 306.28,233.968 306.764,233.953 307.245,233.935 307.723,233.914 308.199,233.888 308.67,233.86 309.137,233.828 309.6,233.793 310.058,233.755 310.509,233.713 310.955,233.668 311.395,233.621 311.827,233.569 312.252,233.515 312.669,233.458 313.079,233.398 313.479,233.335 313.871,233.27 314.253,233.201 314.625,233.129 314.988,233.056 315.339,232.979 315.68,232.9 316.01,232.819 316.328,232.735 316.635,232.65 316.929,232.562 317.21,232.472 317.479,232.38 317.736,232.286 317.979,232.19 318.208,232.093 318.424,231.994 318.625,231.894 318.813,231.792 318.986,231.689 319.145,231.584 319.289,231.479 319.418,231.373 319.533,231.266 319.633,231.158 319.717,231.049 319.786,230.94 319.84,230.83 319.878,230.72 319.901,230.61 319.909,230.5"/>
<polyline fill="none" stroke="#d3d3d3" stroke-width="0.5" stroke-dasharray="1,1,1,1,1,1,1,1,1,1" points="342.759,230.5 342.732,230.117 342.651,229.733 342.518,229.351 342.331,228.97 342.09,228.59 341.797,228.212 341.451,227.837 341.053,227.464 340.603,227.094 340.101,226.728 339.549,226.365 338.946,226.006 338.293,225.652 337.592,225.303 336.841,224.959 336.043,224.621 335.199,224.288 334.308,223.961 333.372,223.642 332.392,223.328 331.368,223.022 330.303,222.724 329.196,222.433 328.049,222.15 326.863,221.876 325.639,221.61 324.379,221.353 323.083,221.105 321.754,220.867 320.392,220.638 318.999,220.419 317.576,220.21 316.124,220.011 314.645,219.823 313.141,219.646 311.612,219.479 310.062,219.323 308.49,219.178 306.898,219.044 305.289,218.923 303.664,218.812 302.024,218.713 300.371,218.626 298.707,218.551 297.032,218.488 295.35,218.437 293.662,218.397 291.969,218.37 290.273,218.355 288.576,218.352 286.879,218.361 285.184,218.382 283.493,218.416 281.808,218.461 280.129,218.518 278.46,218.587 276.801,218.668 275.155,218.761 273.521,218.866 271.904,218.982 270.304,219.11 268.722,219.249 267.16,219.399 265.62,219.561 264.104,219.733 262.612,219.916 261.146,220.109 259.709,220.313 258.301,220.527 256.923,220.751 255.577,220.985 254.264,221.228 252.986,221.48 251.744,221.742 250.54,222.012 249.373,222.291 248.246,222.578 247.159,222.872 246.115,223.174 245.113,223.484 244.154,223.801 243.241,224.124 242.373,224.454 241.552,224.789 240.777,225.13 240.051,225.477 239.374,225.829 238.746,226.185 238.168,226.546 237.642,226.911 237.166,227.279 236.742,227.65 236.37,228.024 236.05,228.401 235.783,228.78 235.569,229.16 235.409,229.542 235.302,229.925 235.248,230.308 235.248,230.692 235.302,231.075 235.409,231.458 235.569,231.84 235.783,232.22 236.05,232.599 236.37,232.976 236.742,233.35 237.166,233.721 237.642,234.089 238.168,234.454 238.746,234.815 239.374,235.171 240.051,235.523 240.777,235.87 241.552,236.211 242.373,236.546 243.241,236.876 244.154,237.199 245.113,237.516 246.115,237.826 247.159,238.128 248.246,238.422 249.373,238.709 250.54,238.988 251.744,239.258 252.986,239.52 254.264,239.772 255.577,240.015 256.923,240.249 258.301,240.473 259.709,240.687 261.146,240.891 262.612,241.084 264.104,241.267 265.62,241.439 267.16,241.601 268.722,241.751 270.304,241.89 271.904,242.018 273.521,242.134 275.155,242.239 276.801,242.332 278.46,242.413 280.129,242.482 281.808,242.539 283.493,242.584 285.184,242.618 286.879,242.639 288.576,242.648 290.273,242.645 291.969,242.63 293.662,242.603 295.35,242.563 297.032,242.512 298.707,242.449 300.371,242.374 302.024,242.287 303.664,242.188 305.289,242.077 306.898,241.956 308.49,241.822 310.062,241.677 311.612,241.521 313.141,241.354 314.645,241.177 316.124,240.989 317.576,240.79 318.999,240.581 320.392,240.362 321.754,240.133 323.083,239.895 324.379,239.647 325.639,239.39 326.863,239.124 328.049,238.85 329.196,238.567 330.303,238.276 331.368,237.978 332.392,237.672 333.372,237.358 334.308,237.039 335.199,236.712 336.043,236.379 336.841,236.041 337.592,235.697 338.293,235.348 338.946,234.994 339.549,234.635 340.101,234.272 340.603,233.906 341.053,233.536 341.451,233.163 341.797,232.788 342.09,232.41 342.331,232.03 342.518,231.649 342.651,231.267 342.732,230.883 342.759,230.5"/>
<polyline fill="none" stroke="#d3d3d3" stroke-width="0.5" stroke-dasharray="1,1,1,1,1,1,1,1,1,1" points="357.081,230.5 357.03,229.77 356.876,229.04 356.622,228.312 356.265,227.585 355.807,226.862 355.249,226.142 354.59,225.427 353.831,224.717 352.974,224.012 352.019,223.314 350.966,222.624 349.818,221.94 348.575,221.266 347.238,220.601 345.809,219.945 344.289,219.3 342.68,218.667 340.983,218.045 339.2,217.435 337.333,216.839 335.383,216.256 333.353,215.688 331.245,215.133 329.06,214.595 326.801,214.072 324.47,213.566 322.069,213.076 319.602,212.604 317.069,212.15 314.475,211.714 311.821,211.297 309.11,210.898 306.344,210.52 303.527,210.162 300.662,209.823 297.75,209.505 294.796,209.208 291.802,208.933 288.771,208.679 285.705,208.446 282.609,208.236 279.485,208.048 276.336,207.882 273.166,207.739 269.977,207.618 266.773,207.521 263.557,207.446 260.332,207.394 257.101,207.365 253.868,207.359 250.636,207.376 247.407,207.417 244.187,207.48 240.976,207.566 237.779,207.676 234.599,207.808 231.439,207.962 228.302,208.139 225.191,208.338 222.11,208.56 219.062,208.803 216.048,209.068 213.074,209.354 210.141,209.662 207.251,209.99 204.41,210.338 201.619,210.707 198.88,211.095 196.197,211.503 193.572,211.93 191.009,212.375 188.508,212.838 186.074,213.319 183.708,213.817 181.413,214.332 179.191,214.862 177.044,215.408 174.975,215.97 172.984,216.545 171.076,217.135 169.25,217.738 167.51,218.354 165.857,218.982 164.292,219.622 162.817,220.271 161.435,220.932 160.144,221.602 158.948,222.281 157.848,222.968 156.844,223.662 155.938,224.364 155.129,225.071 154.421,225.784 153.812,226.501 153.304,227.223 152.896,227.948 152.59,228.675 152.387,229.404 152.285,230.135 152.285,230.865 152.387,231.596 152.59,232.325 152.896,233.052 153.304,233.777 153.812,234.499 154.421,235.216 155.129,235.929 155.938,236.636 156.844,237.338 157.848,238.032 158.948,238.719 160.144,239.398 161.435,240.068 162.817,240.729 164.292,241.378 165.857,242.018 167.51,242.646 169.25,243.262 171.076,243.865 172.984,244.455 174.975,245.03 177.044,245.592 179.191,246.138 181.413,246.668 183.708,247.183 186.074,247.681 188.508,248.162 191.009,248.625 193.572,249.07 196.197,249.497 198.88,249.905 201.619,250.293 204.41,250.662 207.251,251.01 210.141,251.338 213.074,251.646 216.048,251.932 219.062,252.197 222.11,252.44 225.191,252.662 228.302,252.861 231.439,253.038 234.599,253.192 237.779,253.324 240.976,253.434 244.187,253.52 247.407,253.583 250.636,253.624 253.868,253.641 257.101,253.635 260.332,253.606 263.557,253.554 266.773,253.479 269.977,253.382 273.166,253.261 276.336,253.118 279.485,252.952 282.609,252.764 285.705,252.554 288.771,252.321 291.802,252.067 294.796,251.792 297.75,251.495 300.662,251.177 303.527,250.838 306.344,250.48 309.11,250.102 311.821,249.703 314.475,249.286 317.069,248.85 319.602,248.396 322.069,247.924 324.47,247.434 326.801,246.928 329.06,246.405 331.245,245.867 333.353,245.312 335.383,244.744 337.333,244.161 339.2,243.565 340.983,242.955 342.68,242.333 344.289,241.7 345.809,241.055 347.238,240.399 348.575,239.734 349.818,239.06 350.966,238.376 352.019,237.686 352.974,236.988 353.831,236.283 354.59,235.573 355.249,234.858 355.807,234.138 356.265,233.415 356.622,232.688 356.876,231.96 357.03,231.23 357.081,230.5"/>
<polyline fill="none" stroke="#d3d3d3" stroke-width="0.5" stroke-dasharray="1,1,1,1,1,1,1,1,1,1" points="365.19,230.5 365.11,229.356 364.871,228.213 364.471,227.072 363.913,225.935 363.196,224.802 362.321,223.675 361.289,222.554 360.101,221.442 358.758,220.339 357.262,219.246 355.613,218.164 353.815,217.094 351.868,216.037 349.774,214.996 347.536,213.969 345.155,212.959 342.635,211.966 339.978,210.992 337.185,210.038 334.26,209.104 331.207,208.19 328.027,207.3 324.725,206.433 321.303,205.589 317.765,204.771 314.114,203.977 310.354,203.21 306.49,202.471 302.524,201.76 298.46,201.077 294.303,200.423 290.057,199.8 285.726,199.207 281.314,198.646 276.826,198.115 272.266,197.618 267.639,197.153 262.949,196.721 258.201,196.323 253.4,195.959 248.551,195.63 243.658,195.335 238.726,195.076 233.761,194.851 228.766,194.662 223.748,194.509 218.71,194.392 213.66,194.311 208.6,194.266 203.536,194.256 198.474,194.284 193.417,194.347 188.373,194.446 183.344,194.581 178.337,194.752 173.356,194.959 168.407,195.201 163.494,195.478 158.623,195.79 153.797,196.137 149.021,196.518 144.302,196.933 139.643,197.381 135.049,197.862 130.524,198.376 126.074,198.922 121.702,199.5 117.413,200.108 113.211,200.747 109.1,201.415 105.084,202.112 101.168,202.837 97.356,203.59 93.6504,204.371 90.0557,205.176 86.5752,206.008 83.2124,206.863 79.9712,207.743 76.8545,208.645 76.4956,208.755"/>
<polyline fill="none" stroke="#d3d3d3" stroke-width="0.5" stroke-dasharray="1,1,1,1,1,1,1,1,1,1" points="76.4956,252.245 76.8545,252.355 79.9712,253.257 83.2124,254.137 86.5752,254.992 90.0557,255.824 93.6504,256.629 97.356,257.41 101.168,258.163 105.084,258.888 109.1,259.585 113.211,260.253 117.413,260.892 121.702,261.5 126.074,262.078 130.524,262.624 135.049,263.138 139.643,263.619 144.302,264.067 149.021,264.482 153.797,264.863 158.623,265.21 163.494,265.522 168.407,265.799 173.356,266.041 178.337,266.248 183.344,266.419 188.373,266.554 193.417,266.653 198.474,266.716 203.536,266.744 208.6,266.734 213.66,266.689 218.71,266.608 223.748,266.491 228.766,266.338 233.761,266.149 238.726,265.924 243.658,265.665 248.551,265.37 253.4,265.041 258.201,264.677 262.949,264.279 267.639,263.847 272.266,263.382 276.826,262.885 281.314,262.354 285.726,261.793 290.057,261.2 294.303,260.577 298.46,259.923 302.524,259.24 306.49,258.529 310.354,257.79 314.114,257.023 317.765,256.229 321.303,255.411 324.725,254.567 328.027,253.7 331.207,252.81 334.26,251.896 337.185,250.962 339.978,250.008 342.635,249.034 345.155,248.041 347.536,247.031 349.774,246.004 351.868,244.963 353.815,243.906 355.613,242.836 357.262,241.754 358.758,240.661 360.101,239.558 361.289,238.446 362.321,237.325 363.196,236.198 363.913,235.065 364.471,233.928 364.871,232.787 365.11,231.644 365.19,230.5"/>
<polyline fill="none" stroke="#d3d3d3" stroke-width="0.5" stroke-dasharray="1,1,1,1,1,1,1,1,1,1" points="373.731,230.5 373.567,228.151 373.075,225.804 372.255,223.461 371.108,221.126 369.636,218.8 367.84,216.486 365.721,214.186 363.282,211.902 360.524,209.636 357.452,207.392 354.068,205.17 350.375,202.974 346.377,200.804 342.079,198.665 337.483,196.558 332.595,194.483 327.42,192.446 321.963,190.446 316.229,188.486 310.225,186.567 303.955,184.693 297.427,182.864 290.646,181.083 283.62,179.351 276.355,177.67 268.86,176.042 261.141,174.468 253.205,172.95 245.062,171.489 236.718,170.087 228.183,168.745 219.464,167.465 210.571,166.248 201.513,165.094 192.297,164.006 182.935,162.984 173.434,162.03 163.805,161.144 154.056,160.327 144.199,159.579 134.242,158.903 124.195,158.297 114.069,157.765 103.873,157.304 93.6187,156.916 83.3145,156.602 76.4956,156.443"/>
<polyline fill="none" stroke="#d3d3d3" stroke-width="0.5" stroke-dasharray="1,1,1,1,1,1,1,1,1,1" points="76.4956,304.557 83.3145,304.398 93.6187,304.084 103.873,303.696 114.069,303.235 124.195,302.703 134.242,302.097 144.199,301.421 154.056,300.673 163.805,299.856 173.434,298.97 182.935,298.016 192.297,296.994 201.513,295.906 210.571,294.752 219.464,293.535 228.183,292.255 236.718,290.913 245.062,289.511 253.205,288.05 261.141,286.532 268.86,284.958 276.355,283.33 283.62,281.649 290.646,279.917 297.427,278.136 303.955,276.307 310.225,274.433 316.229,272.514 321.963,270.554 327.42,268.554 332.595,266.517 337.483,264.442 342.079,262.335 346.377,260.196 350.375,258.026 354.068,255.83 357.452,253.608 360.524,251.364 363.282,249.098 365.721,246.814 367.84,244.514 369.636,242.2 371.108,239.874 372.255,237.539 373.075,235.196 373.567,232.849 373.731,230.5"/>
<polyline fill="none" stroke="#d3d3d3" stroke-width="0.5" stroke-dasharray="1,1,1,1,1,1,1,1,1,1" points="535.504,168.956 532.526,169.409 524.086,170.781 515.841,172.212 507.801,173.702 499.972,175.248 492.364,176.85 484.983,178.504 477.836,180.211 470.933,181.968 464.277,183.773 457.877,185.625 451.739,187.521 445.87,189.46 440.273,191.441 434.957,193.46 429.925,195.516 425.183,197.607 420.735,199.731 416.586,201.885 412.74,204.068 409.201,206.278 405.972,208.511 403.058,210.767 400.459,213.042 398.18,215.334 396.222,217.642 394.587,219.962 393.277,222.293 392.294,224.632 391.638,226.977 391.31,229.325 391.31,231.675 391.638,234.023 392.294,236.368 393.277,238.707 394.587,241.038 396.222,243.358 398.18,245.666 400.459,247.958 403.058,250.233 405.972,252.489 409.201,254.722 412.74,256.932 416.586,259.115 420.735,261.269 425.183,263.393 429.925,265.484 434.957,267.54 440.273,269.559 445.87,271.54 451.739,273.479 457.877,275.375 464.277,277.227 470.933,279.032 477.836,280.789 484.983,282.496 492.364,284.15 499.972,285.752 507.801,287.298 515.841,288.788 524.086,290.219 532.526,291.591 535.504,292.044"/>
<polyline fill="none" stroke="#d3d3d3" stroke-width="0.5" stroke-dasharray="1,1,1,1,1,1,1,1,1,1" points="535.504,194.692 533.733,194.752 528.753,194.959 523.803,195.201 518.891,195.478 514.019,195.79 509.193,196.137 504.418,196.518 499.699,196.933 495.04,197.381 490.445,197.862 485.921,198.376 481.47,198.922 477.098,199.5 472.809,200.108 468.607,200.747 464.496,201.415 460.481,202.112 456.565,202.837 452.752,203.59 449.046,204.371 445.452,205.176 441.971,206.008 438.609,206.863 435.367,207.743 432.25,208.645 429.261,209.568 426.402,210.513 423.677,211.477 421.087,212.46 418.637,213.462 416.327,214.48 414.161,215.515 412.14,216.564 410.267,217.627 408.543,218.703 406.971,219.791 405.551,220.889 404.286,221.997 403.176,223.114 402.222,224.237 401.426,225.368 400.788,226.503 400.31,227.642 399.99,228.784 399.83,229.928 399.83,231.072 399.99,232.216 400.31,233.358 400.788,234.497 401.426,235.632 402.222,236.763 403.176,237.886 404.286,239.003 405.551,240.111 406.971,241.209 408.543,242.297 410.267,243.373 412.14,244.436 414.161,245.485 416.327,246.52 418.637,247.538 421.087,248.54 423.677,249.523 426.402,250.487 429.261,251.432 432.25,252.355 435.367,253.257 438.609,254.137 441.971,254.992 445.452,255.824 449.046,256.629 452.752,257.41 456.565,258.163 460.481,258.888 464.496,259.585 468.607,260.253 472.809,260.892 477.098,261.5 481.47,262.078 485.921,262.624 490.445,263.138 495.04,263.619 499.699,264.067 504.418,264.482 509.193,264.863 514.019,265.21 518.891,265.522 523.803,265.799 528.753,266.041 533.733,266.248 535.504,266.308"/>
<polyline fill="none" stroke="#d3d3d3" stroke-width="0.5" stroke-dasharray="1,1,1,1,1,1,1,1,1,1" points="535.504,208.07 535.133,208.048 531.984,207.882 528.813,207.739 525.625,207.618 522.42,207.521 519.204,207.446 515.979,207.394 512.749,207.365 509.516,207.359 506.283,207.376 503.055,207.417 499.834,207.48 496.624,207.566 493.427,207.676 490.247,207.808 487.086,207.962 483.95,208.139 480.839,208.338 477.758,208.56 474.709,208.803 471.696,209.068 468.721,209.354 465.788,209.662 462.899,209.99 460.058,210.338 457.266,210.707 454.528,211.095 451.845,211.503 449.22,211.93 446.656,212.375 444.156,212.838 441.722,213.319 439.356,213.817 437.061,214.332 434.838,214.862 432.691,215.408 430.622,215.97 428.632,216.545 426.723,217.135 424.898,217.738 423.158,218.354 421.504,218.982 419.94,219.622 418.465,220.271 417.082,220.932 415.792,221.602 414.596,222.281 413.496,222.968 412.492,223.662 411.585,224.364 410.777,225.071 410.068,225.784 409.459,226.501 408.951,227.223 408.544,227.948 408.238,228.675 408.034,229.404 407.932,230.135 407.932,230.865 408.034,231.596 408.238,232.325 408.544,233.052 408.951,233.777 409.459,234.499 410.068,235.216 410.777,235.929 411.585,236.636 412.492,237.338 413.496,238.032 414.596,238.719 415.792,239.398 417.082,240.068 418.465,240.729 419.94,241.378 421.504,242.018 423.158,242.646 424.898,243.262 426.723,243.865 428.632,244.455 430.622,245.03 432.691,245.592 434.838,246.138 437.061,246.668 439.356,247.183 441.722,247.681 444.156,248.162 446.656,248.625 449.22,249.07 451.845,249.497 454.528,249.905 457.266,250.293 460.058,250.662 462.899,251.01 465.788,251.338 468.721,251.646 471.696,251.932 474.709,252.197 477.758,252.44 480.839,252.662 483.95,252.861 487.086,253.038 490.247,253.192 493.427,253.324 496.624,253.434 499.834,253.52 503.055,253.583 506.283,253.624 509.516,253.641 512.749,253.635 515.979,253.606 519.204,253.554 522.42,253.479 525.625,253.382 528.813,253.261 531.984,253.118 535.133,252.952 535.504,252.93"/>
<polyline fill="none" stroke="#d3d3d3" stroke-width="0.5" stroke-dasharray="1,1,1,1,1,1,1,1,1,1" points="529.759,230.5 529.732,230.117 529.651,229.733 529.518,229.351 529.331,228.97 529.09,228.59 528.797,228.212 528.451,227.837 528.053,227.464 527.603,227.094 527.101,226.728 526.549,226.365 525.946,226.006 525.293,225.652 524.592,225.303 523.841,224.959 523.043,224.621 522.199,224.288 521.308,223.961 520.372,223.642 519.392,223.328 518.368,223.022 517.303,222.724 516.196,222.433 515.049,222.15 513.863,221.876 512.639,221.61 511.379,221.353 510.083,221.105 508.754,220.867 507.392,220.638 505.999,220.419 504.576,220.21 503.124,220.011 501.645,219.823 500.141,219.646 498.612,219.479 497.062,219.323 495.49,219.178 493.898,219.044 492.289,218.923 490.664,218.812 489.024,218.713 487.371,218.626 485.707,218.551 484.032,218.488 482.35,218.437 480.662,218.397 478.969,218.37 477.273,218.355 475.576,218.352 473.879,218.361 472.184,218.382 470.493,218.416 468.808,218.461 467.129,218.518 465.46,218.587 463.801,218.668 462.155,218.761 460.521,218.866 458.904,218.982 457.304,219.11 455.722,219.249 454.16,219.399 452.621,219.561 451.104,219.733 449.612,219.916 448.146,220.109 446.709,220.313 445.301,220.527 443.923,220.751 442.577,220.985 441.264,221.228 439.986,221.48 438.744,221.742 437.54,222.012 436.373,222.291 435.246,222.578 434.159,222.872 433.115,223.174 432.113,223.484 431.154,223.801 430.241,224.124 429.373,224.454 428.552,224.789 427.777,225.13 427.051,225.477 426.374,225.829 425.746,226.185 425.168,226.546 424.642,226.911 424.166,227.279 423.742,227.65 423.37,228.024 423.05,228.401 422.783,228.78 422.569,229.16 422.409,229.542 422.302,229.925 422.248,230.308 422.248,230.692 422.302,231.075 422.409,231.458 422.569,231.84 422.783,232.22 423.05,232.599 423.37,232.976 423.742,233.35 424.166,233.721 424.642,234.089 425.168,234.454 425.746,234.815 426.374,235.171 427.051,235.523 427.777,235.87 428.552,236.211 429.373,236.546 430.241,236.876 431.154,237.199 432.113,237.516 433.115,237.826 434.159,238.128 435.246,238.422 436.373,238.709 437.54,238.988 438.744,239.258 439.986,239.52 441.264,239.772 442.577,240.015 443.923,240.249 445.301,240.473 446.709,240.687 448.146,240.891 449.612,241.084 451.104,241.267 452.621,241.439 454.16,241.601 455.722,241.751 457.304,241.89 458.904,242.018 460.521,242.134 462.155,242.239 463.801,242.332 465.46,242.413 467.129,242.482 468.808,242.539 470.493,242.584 472.184,242.618 473.879,242.639 475.576,242.648 477.273,242.645 478.969,242.63 480.662,242.603 482.35,242.563 484.032,242.512 485.707,242.449 487.371,242.374 489.024,242.287 490.664,242.188 492.289,242.077 493.898,241.956 495.49,241.822 497.062,241.677 498.612,241.521 500.141,241.354 501.645,241.177 503.124,240.989 504.576,240.79 505.999,240.581 507.392,240.362 508.754,240.133 510.083,239.895 511.379,239.647 512.639,239.39 513.863,239.124 515.049,238.85 516.196,238.567 517.303,238.276 518.368,237.978 519.392,237.672 520.372,237.358 521.308,237.039 522.199,236.712 523.043,236.379 523.841,236.041 524.592,235.697 525.293,235.348 525.946,234.994 526.549,234.635 527.101,234.272 527.603,233.906 528.053,233.536 528.451,233.163 528.797,232.788 529.09,232.41 529.331,232.03 529.518,231.649 529.651,231.267 529.732,230.883 529.759,230.5"/>
<polyline fill="none" stroke="#d3d3d3" stroke-width="0.5" stroke-dasharray="1,1,1,1,1,1,1,1,1,1" points="476,230.5 475.992,230.39 475.969,230.28 475.931,230.17 475.877,230.06 475.808,229.951 475.724,229.842 475.624,229.734 475.51,229.627 475.38,229.521 475.236,229.416 475.077,229.311 474.904,229.208 474.716,229.106 474.515,229.006 474.299,228.907 474.069,228.81 473.827,228.714 473.571,228.62 473.301,228.528 473.02,228.438 472.726,228.35 472.419,228.265 472.101,228.181 471.771,228.1 471.43,228.021 471.079,227.944 470.716,227.871 470.344,227.799 469.961,227.73 469.57,227.665 469.169,227.602 468.76,227.542 468.343,227.485 467.918,227.431 467.485,227.379 467.046,227.332 466.6,227.287 466.148,227.245 465.691,227.207 465.228,227.172 464.761,227.14 464.29,227.112 463.814,227.086 463.336,227.065 462.854,227.047 462.371,227.032 461.886,227.021 461.399,227.013 460.912,227.009 460.423,227.008 459.936,227.01 459.448,227.017 458.962,227.026 458.478,227.039 457.996,227.056 457.516,227.075 457.039,227.099 456.565,227.125 456.096,227.155 455.631,227.189 455.17,227.226 454.716,227.266 454.267,227.309 453.824,227.355 453.388,227.405 452.959,227.457 452.538,227.513 452.125,227.571 451.72,227.633 451.324,227.697 450.937,227.765 450.56,227.834 450.192,227.907 449.835,227.982 449.489,228.06 449.153,228.14 448.83,228.223 448.517,228.307 448.217,228.394 447.929,228.483 447.653,228.574 447.391,228.667 447.141,228.762 446.905,228.858 446.683,228.957 446.474,229.056 446.279,229.157 446.099,229.26 445.933,229.363 445.781,229.468 445.644,229.574 445.522,229.681 445.415,229.788 445.323,229.896 445.247,230.005 445.185,230.115 445.139,230.225 445.108,230.334 445.093,230.445 445.093,230.555 445.108,230.666 445.139,230.775 445.185,230.885 445.247,230.995 445.323,231.104 445.415,231.212 445.522,231.319 445.644,231.426 445.781,231.532 445.933,231.637 446.099,231.74 446.279,231.843 446.474,231.944 446.683,232.043 446.905,232.142 447.141,232.238 447.391,232.333 447.653,232.426 447.929,232.517 448.217,232.606 448.517,232.693 448.83,232.777 449.153,232.86 449.489,232.94 449.835,233.018 450.192,233.093 450.56,233.166 450.937,233.235 451.324,233.303 451.72,233.367 452.125,233.429 452.538,233.487 452.959,233.543 453.388,233.595 453.824,233.645 454.267,233.691 454.716,233.734 455.17,233.774 455.631,233.811 456.096,233.845 456.565,233.875 457.039,233.901 457.516,233.925 457.996,233.944 458.478,233.961 458.962,233.974 459.448,233.983 459.936,233.99 460.423,233.992 460.912,233.991 461.399,233.987 461.886,233.979 462.371,233.968 462.854,233.953 463.336,233.935 463.814,233.914 464.29,233.888 464.761,233.86 465.228,233.828 465.691,233.793 466.148,233.755 466.6,233.713 467.046,233.668 467.485,233.621 467.918,233.569 468.343,233.515 468.76,233.458 469.169,233.398 469.57,233.335 469.961,233.27 470.344,233.201 470.716,233.129 471.079,233.056 471.43,232.979 471.771,232.9 472.101,232.819 472.419,232.735 472.726,232.65 473.02,232.562 473.301,232.472 473.571,232.38 473.827,232.286 474.069,232.19 474.299,232.093 474.515,231.994 474.716,231.894 474.904,231.792 475.077,231.689 475.236,231.584 475.38,231.479 475.51,231.373 475.624,231.266 475.724,231.158 475.808,231.049 475.877,230.94 475.931,230.83 475.969,230.72 475.992,230.61 476,230.5"/>
<polyline fill="none" stroke="#000000" stroke-width="0.5" points="439.438,390.44 433.924,388.228 428.633,386.055 423.557,383.921 418.685,381.826 414.008,379.769 409.519,377.747 405.209,375.762 401.072,373.811 397.099,371.895 393.283,370.012 389.619,368.162 386.1,366.344 379.474,362.802 373.362,359.38 367.724,356.072 362.524,352.875 357.729,349.782 353.31,346.791 349.24,343.895 345.492,341.092 342.045,338.378 338.878,335.748 335.972,333.2 333.308,330.73 330.871,328.335 328.645,326.012 326.616,323.757 324.772,321.57 323.102,319.446 321.592,317.384 320.234,315.381 319.019,313.436 316.978,309.707 315.407,306.182 314.25,302.847 313.457,299.689 312.987,296.697 312.802,293.859 312.869,291.166 313.159,288.609 313.644,286.179 314.303,283.868 315.115,281.67 316.061,279.578 317.125,277.586 318.292,275.688 319.548,273.878 322.284,270.506 325.252,267.435 328.386,264.633 331.632,262.073 334.948,259.731 338.299,257.586 341.657,255.619 344.999,253.812 348.306,252.152 351.566,250.624 354.767,249.217 357.899,247.919 360.958,246.721 363.938,245.615 369.65,243.645 375.023,241.954 380.055,240.499 384.755,239.241 389.137,238.151 393.217,237.205 397.013,236.379 400.543,235.658 403.827,235.026 406.881,234.471 409.723,233.982 412.37,233.551 414.835,233.17 417.134,232.833 421.282,232.267 424.907,231.817 428.085,231.459 430.883,231.172 433.354,230.941 435.546,230.755 437.496,230.604 439.236,230.482 440.795,230.383 443.458,230.238 445.63,230.144 447.423,230.085 448.915,230.05 450.167,230.031 451.227,230.024 452.902,230.032 454.146,230.056 455.087,230.087 455.812,230.12 456.825,230.183 457.471,230.238 457.897,230.283 458.187,230.32 458.534,230.375 458.716,230.41 458.818,230.434 458.879,230.45 458.94,230.47 458.968,230.481 458.981,230.487 458.992,230.493 458.996,230.496 458.999,230.498 458.999,230.502 458.996,230.504 458.992,230.507 458.981,230.513 458.968,230.519 458.94,230.53 458.879,230.55 458.818,230.566 458.716,230.59 458.534,230.625 458.187,230.68 457.897,230.717 457.471,230.762 456.825,230.817 455.812,230.88 455.087,230.913 454.146,230.944 452.902,230.968 451.227,230.976 450.167,230.969 448.915,230.95 447.423,230.915 445.63,230.856 443.458,230.762 440.795,230.617 439.236,230.518 437.496,230.396 435.546,230.245 433.354,230.059 430.883,229.828 428.085,229.541 424.907,229.183 421.282,228.733 417.134,228.167 414.835,227.83 412.37,227.449 409.723,227.018 406.881,226.529 403.827,225.974 400.543,225.342 397.013,224.621 393.217,223.795 389.137,222.849 384.755,221.759 380.055,220.501 375.023,219.046 369.65,217.355 363.938,215.385 360.958,214.279 357.899,213.081 354.767,211.783 351.566,210.376 348.306,208.848 344.999,207.188 341.657,205.381 338.299,203.414 334.948,201.269 331.632,198.927 328.386,196.367 325.252,193.565 322.284,190.494 319.548,187.122 318.292,185.312 317.125,183.414 316.061,181.422 315.115,179.33 314.303,177.132 313.644,174.821 313.159,172.391 312.869,169.834 312.802,167.141 312.987,164.303 313.457,161.311 314.25,158.153 315.407,154.818 316.978,151.293 319.019,147.564 320.234,145.619 321.592,143.616 323.102,141.554 324.772,139.43 326.616,137.243 328.645,134.988 330.871,132.665 333.308,130.27 335.972,127.8 338.878,125.252 342.045,122.622 345.492,119.908 349.24,117.105 353.31,114.209 357.729,111.218 362.524,108.125 367.724,104.928 373.362,101.62 379.474,98.1978 386.1,94.6558 389.619,92.8379 393.283,90.9878 397.099,89.105 401.072,87.189 405.209,85.2383 409.519,83.2529 414.008,81.2314 418.685,79.1738 423.557,77.0786 428.633,74.9448 433.924,72.7725 439.438,70.5601"/>
<polygon fill="#000000" points="449.603,390.696 439.236,390.359 446.961,397.281"/>
<polyline fill="none" stroke="#000000" stroke-width="0.5" points="439.438,390.44 439.236,390.359"/>
<polygon fill="#000000" points="389.521,364.362 379.284,362.695 386.055,370.553"/>
<polyline fill="none" stroke="#000000" stroke-width="0.5" points="379.474,362.802 379.284,362.695"/>
<polygon fill="#000000" points="323.101,273.318 328.559,264.497 318.708,267.746"/>
<polyline fill="none" stroke="#000000" stroke-width="0.5" points="328.386,264.633 328.559,264.497"/>
<polygon fill="#000000" points="338.236,199.616 328.386,196.367 333.843,205.188"/>
<polyline fill="none" stroke="#000000" stroke-width="0.5" points="328.559,196.503 328.386,196.367"/>
<polygon fill="#000000" points="372.703,106.055 379.474,98.1978 369.236,99.8643"/>
<polyline fill="none" stroke="#000000" stroke-width="0.5" points="379.284,98.3047 379.474,98.1978"/>
<polygon fill="#000000" points="431.713,77.4819 439.438,70.5601 429.071,70.897"/>
<polyline fill="none" stroke="#000000" stroke-width="0.5" points="439.236,70.6411 439.438,70.5601"/>
<polyline fill="none" stroke="#0000ff" stroke-width="0.5" points="155.381,388.666 162.583,386.024 169.53,383.472 176.233,381.004 182.705,378.616 188.954,376.304 194.991,374.066 200.824,371.896 206.463,369.794 211.916,367.755 217.19,365.776 222.293,363.855 227.232,361.991 236.645,358.417 245.479,355.04 253.778,351.843 261.583,348.811 268.933,345.933 275.861,343.196 282.397,340.591 288.569,338.109 294.405,335.74 299.926,333.478 305.154,331.315 310.109,329.244 314.81,327.261 319.273,325.358 323.513,323.533 327.544,321.779 331.38,320.092 335.033,318.47 338.514,316.907 341.833,315.402 348.022,312.549 353.671,309.889 358.838,307.403 363.576,305.073 367.929,302.886 371.938,300.827 375.635,298.887 379.052,297.054 382.215,295.32 385.148,293.677 387.873,292.118 390.408,290.636 392.769,289.226 394.972,287.881 397.03,286.599 400.759,284.202 404.038,282.004 406.934,279.982 409.503,278.115 411.792,276.385 413.838,274.776 415.674,273.276 417.327,271.875 418.82,270.562 420.173,269.328 421.402,268.167 422.522,267.073 423.545,266.039 424.483,265.061 426.136,263.252 427.542,261.618 428.748,260.132 429.792,258.776 430.702,257.532 431.501,256.387 432.208,255.329 432.837,254.347 433.4,253.435 433.907,252.584 434.366,251.789 434.784,251.043 435.167,250.343 435.519,249.684 436.147,248.475 436.693,247.393 437.175,246.417 437.608,245.532 438.002,244.727 438.365,243.989 438.702,243.312 439.019,242.688 439.319,242.109 439.88,241.074 440.403,240.172 440.898,239.38 441.373,238.678 441.833,238.053 442.28,237.493 443.144,236.531 443.972,235.738 444.769,235.076 445.532,234.518 446.957,233.638 448.241,232.987 449.386,232.497 450.399,232.122 452.07,231.603 453.353,231.277 454.341,231.064 455.108,230.921 456.191,230.75 456.891,230.66 457.365,230.608 457.94,230.556 458.261,230.532 458.496,230.518 458.496,230.482 458.261,230.468 457.94,230.444 457.365,230.392 456.891,230.34 456.191,230.25 455.108,230.079 454.341,229.936 453.353,229.723 452.07,229.397 450.399,228.878 449.386,228.503 448.241,228.013 446.957,227.362 445.532,226.482 444.769,225.924 443.972,225.262 443.144,224.469 442.28,223.507 441.833,222.947 441.373,222.322 440.898,221.62 440.403,220.828 439.88,219.926 439.319,218.891 439.019,218.312 438.702,217.688 438.365,217.011 438.002,216.273 437.608,215.468 437.175,214.583 436.693,213.607 436.147,212.525 435.519,211.316 435.167,210.657 434.784,209.957 434.366,209.211 433.907,208.416 433.4,207.565 432.837,206.653 432.208,205.671 431.501,204.613 430.702,203.468 429.792,202.224 428.748,200.868 427.542,199.382 426.136,197.748 424.483,195.939 423.545,194.961 422.522,193.927 421.402,192.833 420.173,191.672 418.82,190.438 417.327,189.125 415.674,187.724 413.838,186.224 411.792,184.615 409.503,182.885 406.934,181.018 404.038,178.996 400.759,176.798 397.03,174.401 394.972,173.119 392.769,171.774 390.408,170.364 387.873,168.882 385.148,167.323 382.215,165.68 379.052,163.946 375.635,162.113 371.938,160.173 367.929,158.114 363.576,155.927 358.838,153.597 353.671,151.111 348.022,148.451 341.833,145.598 338.514,144.093 335.033,142.53 331.38,140.908 327.544,139.221 323.513,137.467 319.273,135.642 314.81,133.739 310.109,131.756 305.154,129.685 299.926,127.522 294.405,125.26 288.569,122.891 282.397,120.409 275.861,117.804 268.933,115.067 261.583,112.189 253.778,109.157 245.479,105.96 236.645,102.583 227.232,99.0093 222.293,97.1445 217.19,95.2236 211.916,93.2451 206.463,91.2061 200.824,89.1035 194.991,86.9341 188.954,84.6958 182.705,82.3843 176.233,79.9961 169.53,77.5278 162.583,74.9756 155.381,72.3345"/>
<polygon fill="#0000ff" points="147.656,395.277 155.585,388.591 145.213,388.616"/>
<polyline fill="none" stroke="#0000ff" stroke-width="0.5" points="155.381,388.666 155.585,388.591"/>
<polygon fill="#0000ff" points="229.011,365.135 236.848,358.34 226.477,358.508"/>
<polyline fill="none" stroke="#0000ff" stroke-width="0.5" points="236.645,358.417 236.848,358.34"/>
<polygon fill="#0000ff" points="401.312,288.454 407.111,279.854 397.141,282.714"/>
<polyline fill="none" stroke="#0000ff" stroke-width="0.5" points="406.934,279.982 407.111,279.854"/>
<polygon fill="#0000ff" points="416.904,183.878 406.934,181.018 412.732,189.618"/>
<polyline fill="none" stroke="#0000ff" stroke-width="0.5" points="407.111,181.146 406.934,181.018"/>
<polygon fill="#0000ff" points="247.016,102.75 236.645,102.582 244.482,109.377"/>
<polyline fill="none" stroke="#0000ff" stroke-width="0.5" points="236.848,102.66 236.645,102.583"/>
<polygon fill="#0000ff" points="165.754,72.3594 155.381,72.3345 163.311,79.021"/>
<polyline fill="none" stroke="#0000ff" stroke-width="0.5" points="155.585,72.4092 155.381,72.3345"/>
<polygon fill="#ffffff" points="269.15,61.4502 81.7373,92.3501 81.7373,61.4502"/>
<polygon fill="#ffffff" points="269.15,92.3501 81.7373,92.3501 269.15,61.4502"/>
<polyline fill="none" stroke="#000000" stroke-width="0.5" points="81.7373,92.3501 81.7373,61.4502 269.15,61.4502 269.15,92.3501 81.7373,92.3501"/>
<text fill="#000000" style="stroke:none" x="144" y="75" transform="rotate(0, 144, 75)" font-size="10" font-family="SansSerif" font-style="normal" font-weight="normal">Plant</text>
<text fill="#000000" style="stroke:none" x="144" y="87" transform="rotate(0, 144, 87)" font-size="10" font-family="SansSerif" font-style="normal" font-weight="normal">Plant and PID corrector</text>
<polyline fill="none" stroke="#0000ff" stroke-width="0.5" points="87.4751,82.8999 110.425,82.8999 133.375,82.8999"/>
<polyline fill="none" stroke="#000000" stroke-width="0.5" points="87.4751,70.8999 110.425,70.8999 133.375,70.8999"/>
<text fill="#000000" style="stroke:none" x="460" y="228" transform="rotate(0, 460, 228)" font-size="10" font-family="SansSerif" font-style="normal" font-weight="normal">100</text>
<text fill="#000000" style="stroke:none" x="329" y="194" transform="rotate(0, 329, 194)" font-size="10" font-family="SansSerif" font-style="normal" font-weight="normal">-1.43</text>
<text fill="#000000" style="stroke:none" x="329" y="263" transform="rotate(0, 329, 263)" font-size="10" font-family="SansSerif" font-style="normal" font-weight="normal">1.43</text>
<text fill="#000000" style="stroke:none" x="380" y="96" transform="rotate(0, 380, 96)" font-size="10" font-family="SansSerif" font-style="normal" font-weight="normal">-0.596</text>
<text fill="#000000" style="stroke:none" x="380" y="361" transform="rotate(0, 380, 361)" font-size="10" font-family="SansSerif" font-style="normal" font-weight="normal">0.596</text>
<text fill="#000000" style="stroke:none" x="440" y="69" transform="rotate(0, 440, 69)" font-size="10" font-family="SansSerif" font-style="normal" font-weight="normal">-0.5</text>
<text fill="#000000" style="stroke:none" x="440" y="388" transform="rotate(0, 440, 388)" font-size="10" font-family="SansSerif" font-style="normal" font-weight="normal">0.5</text>
<text fill="#0000ff" style="stroke:none" x="459" y="229" transform="rotate(0, 459, 229)" font-size="10" font-family="SansSerif" font-style="normal" font-weight="normal">100</text>
<text fill="#0000ff" style="stroke:none" x="408" y="179" transform="rotate(0, 408, 179)" font-size="10" font-family="SansSerif" font-style="normal" font-weight="normal">-1.43</text>
<text fill="#0000ff" style="stroke:none" x="408" y="278" transform="rotate(0, 408, 278)" font-size="10" font-family="SansSerif" font-style="normal" font-weight="normal">1.43</text>
<text fill="#0000ff" style="stroke:none" x="238" y="101" transform="rotate(0, 238, 101)" font-size="10" font-family="SansSerif" font-style="normal" font-weight="normal">-0.596</text>
<text fill="#0000ff" style="stroke:none" x="238" y="356" transform="rotate(0, 238, 356)" font-size="10" font-family="SansSerif" font-style="normal" font-weight="normal">0.596</text>
<text fill="#0000ff" style="stroke:none" x="156" y="70" transform="rotate(0, 156, 70)" font-size="10" font-family="SansSerif" font-style="normal" font-weight="normal">-0.5</text>
<text fill="#0000ff" style="stroke:none" x="156" y="387" transform="rotate(0, 156, 387)" font-size="10" font-family="SansSerif" font-style="normal" font-weight="normal">0.5</text>
<text fill="#d3d3d3" style="stroke:none" x="475" y="230" transform="rotate(0, 475, 230)" font-size="10" font-family="SansSerif" font-style="normal" font-weight="normal">-20dB</text>
<text fill="#d3d3d3" style="stroke:none" x="524" y="222" transform="rotate(0, 524, 222)" font-size="10" font-family="SansSerif" font-style="normal" font-weight="normal">-10dB</text>
<text fill="#d3d3d3" style="stroke:none" x="331" y="191" transform="rotate(0, 331, 191)" font-size="10" font-family="SansSerif" font-style="normal" font-weight="normal">2dB</text>
<text fill="#d3d3d3" style="stroke:none" x="345" y="247" transform="rotate(0, 345, 247)" font-size="10" font-family="SansSerif" font-style="normal" font-weight="normal">4dB</text>
<text fill="#d3d3d3" style="stroke:none" x="344" y="217" transform="rotate(0, 344, 217)" font-size="10" font-family="SansSerif" font-style="normal" font-weight="normal">6dB</text>
<text fill="#d3d3d3" style="stroke:none" x="337" y="235" transform="rotate(0, 337, 235)" font-size="10" font-family="SansSerif" font-style="normal" font-weight="normal">10dB</text>
<text fill="#d3d3d3" style="stroke:none" x="319" y="227" transform="rotate(0, 319, 227)" font-size="10" font-family="SansSerif" font-style="normal" font-weight="normal">20dB</text>
<text fill="#d3d3d3" style="stroke:none" x="384" y="246" transform="rotate(0, 384, 246)" font-size="10" font-family="SansSerif" font-style="normal" font-weight="normal">-90&#x00b0;</text>
<text fill="#d3d3d3" style="stroke:none" x="384" y="258" transform="rotate(0, 384, 258)" font-size="10" font-family="SansSerif" font-style="normal" font-weight="normal">-60&#x00b0;</text>
<text fill="#d3d3d3" style="stroke:none" x="384" y="270" transform="rotate(0, 384, 270)" font-size="10" font-family="SansSerif" font-style="normal" font-weight="normal">-45&#x00b0;</text>
<text fill="#d3d3d3" style="stroke:none" x="384" y="293" transform="rotate(0, 384, 293)" font-size="10" font-family="SansSerif" font-style="normal" font-weight="normal">-30&#x00b0;</text>
<text fill="#d3d3d3" style="stroke:none" x="384" y="360" transform="rotate(0, 384, 360)" font-size="10" font-family="SansSerif" font-style="normal" font-weight="normal">-15&#x00b0;</text>
<text fill="#d3d3d3" style="stroke:none" x="384" y="97" transform="rotate(0, 384, 97)" font-size="10" font-family="SansSerif" font-style="normal" font-weight="normal">15&#x00b0;</text>
<text fill="#d3d3d3" style="stroke:none" x="384" y="164" transform="rotate(0, 384, 164)" font-size="10" font-family="SansSerif" font-style="normal" font-weight="normal">30&#x00b0;</text>
<text fill="#d3d3d3" style="stroke:none" x="384" y="187" transform="rotate(0, 384, 187)" font-size="10" font-family="SansSerif" font-style="normal" font-weight="normal">45&#x00b0;</text>
<text fill="#d3d3d3" style="stroke:none" x="384" y="199" transform="rotate(0, 384, 199)" font-size="10" font-family="SansSerif" font-style="normal" font-weight="normal">60&#x00b0;</text>
<text fill="#d3d3d3" style="stroke:none" x="384" y="211" transform="rotate(0, 384, 211)" font-size="10" font-family="SansSerif" font-style="normal" font-weight="normal">90&#x00b0;</text>
<polyline fill="none" stroke="#000000" stroke-width="0.5" points="76.5,403.375 76.5,57.625"/>
<polyline fill="none" stroke="#000000" stroke-width="0.5" points="76.5,403.375 69.6152,403.375"/>
<polyline fill="none" stroke="#000000" stroke-width="0.5" points="76.5,368.8 69.6152,368.8"/>
<polyline fill="none" stroke="#000000" stroke-width="0.5" points="76.5,334.225 69.6152,334.225"/>
<polyline fill="none" stroke="#000000" stroke-width="0.5" points="76.5,299.65 69.6152,299.65"/>
<polyline fill="none" stroke="#000000" stroke-width="0.5" points="76.5,265.075 69.6152,265.075"/>
<polyline fill="none" stroke="#000000" stroke-width="0.5" points="76.5,230.5 69.6152,230.5"/>
<polyline fill="none" stroke="#000000" stroke-width="0.5" points="76.5,195.925 69.6152,195.925"/>
<polyline fill="none" stroke="#000000" stroke-width="0.5" points="76.5,161.35 69.6152,161.35"/>
<polyline fill="none" stroke="#000000" stroke-width="0.5" points="76.5,126.775 69.6152,126.775"/>
<polyline fill="none" stroke="#000000" stroke-width="0.5" points="76.5,92.2002 69.6152,92.2002"/>
<polyline fill="none" stroke="#000000" stroke-width="0.5" points="76.5,57.625 69.6152,57.625"/>
<polyline fill="none" stroke="#000000" stroke-width="0.5" points="76.5,386.087 72.3691,386.087"/>
<polyline fill="none" stroke="#000000" stroke-width="0.5" points="76.5,351.513 72.3691,351.513"/>
<polyline fill="none" stroke="#000000" stroke-width="0.5" points="76.5,316.938 72.3691,316.938"/>
<polyline fill="none" stroke="#000000" stroke-width="0.5" points="76.5,282.362 72.3691,282.362"/>
<polyline fill="none" stroke="#000000" stroke-width="0.5" points="76.5,247.788 72.3691,247.788"/>
<polyline fill="none" stroke="#000000" stroke-width="0.5" points="76.5,213.212 72.3691,213.212"/>
<polyline fill="none" stroke="#000000" stroke-width="0.5" points="76.5,178.638 72.3691,178.638"/>
<polyline fill="none" stroke="#000000" stroke-width="0.5" points="76.5,144.062 72.3691,144.062"/>
<polyline fill="none" stroke="#000000" stroke-width="0.5" points="76.5,109.487 72.3691,109.487"/>
<polyline fill="none" stroke="#000000" stroke-width="0.5" points="76.5,74.9126 72.3691,74.9126"/>
<text fill="#000000" style="stroke:none" x="55" y="408" transform="rotate(-0, 55, 408)" font-size="10" font-family="SansSerif" font-style="normal" font-weight="normal">-5</text>
<text fill="#000000" style="stroke:none" x="55" y="374" transform="rotate(-0, 55, 374)" font-size="10" font-family="SansSerif" font-style="normal" font-weight="normal">-4</text>
<text fill="#000000" style="stroke:none" x="55" y="339" transform="rotate(-0, 55, 339)" font-size="10" font-family="SansSerif" font-style="normal" font-weight="normal">-3</text>
<text fill="#000000" style="stroke:none" x="55" y="305" transform="rotate(-0, 55, 305)" font-size="10" font-family="SansSerif" font-style="normal" font-weight="normal">-2</text>
<text fill="#000000" style="stroke:none" x="55" y="270" transform="rotate(-0, 55, 270)" font-size="10" font-family="SansSerif" font-style="normal" font-weight="normal">-1</text>
<text fill="#000000" style="stroke:none" x="60" y="235" transform="rotate(-0, 60, 235)" font-size="10" font-family="SansSerif" font-style="normal" font-weight="normal">0</text>
<text fill="#000000" style="stroke:none" x="62" y="201" transform="rotate(-0, 62, 201)" font-size="10" font-family="SansSerif" font-style="normal" font-weight="normal">1</text>
<text fill="#000000" style="stroke:none" x="61" y="166" transform="rotate(-0, 61, 166)" font-size="10" font-family="SansSerif" font-style="normal" font-weight="normal">2</text>
<text fill="#000000" style="stroke:none" x="61" y="132" transform="rotate(-0, 61, 132)" font-size="10" font-family="SansSerif" font-style="normal" font-weight="normal">3</text>
<text fill="#000000" style="stroke:none" x="60" y="97" transform="rotate(-0, 60, 97)" font-size="10" font-family="SansSerif" font-style="normal" font-weight="normal">4</text>
<text fill="#000000" style="stroke:none" x="62" y="63" transform="rotate(-0, 62, 63)" font-size="10" font-family="SansSerif" font-style="normal" font-weight="normal">5</text>
<polyline fill="none" stroke="#d3d3d3" stroke-width="0.5" stroke-dasharray="4,4,4,4" points="76.5,403.375 535.5,403.375 535.5,403.375"/>
<polyline fill="none" stroke="#d3d3d3" stroke-width="0.5" stroke-dasharray="4,4,4,4" points="76.5,368.8 535.5,368.8 535.5,368.8"/>
<polyline fill="none" stroke="#d3d3d3" stroke-width="0.5" stroke-dasharray="4,4,4,4" points="76.5,334.225 535.5,334.225 535.5,334.225"/>
<polyline fill="none" stroke="#d3d3d3" stroke-width="0.5" stroke-dasharray="4,4,4,4" points="76.5,299.65 535.5,299.65 535.5,299.65"/>
<polyline fill="none" stroke="#d3d3d3" stroke-width="0.5" stroke-dasharray="4,4,4,4" points="76.5,265.075 535.5,265.075 535.5,265.075"/>
<polyline fill="none" stroke="#d3d3d3" stroke-width="0.5" stroke-dasharray="4,4,4,4" points="76.5,230.5 535.5,230.5 535.5,230.5"/>
<polyline fill="none" stroke="#d3d3d3" stroke-width="0.5" stroke-dasharray="4,4,4,4" points="76.5,195.925 535.5,195.925 535.5,195.925"/>
<polyline fill="none" stroke="#d3d3d3" stroke-width="0.5" stroke-dasharray="4,4,4,4" points="76.5,161.35 535.5,161.35 535.5,161.35"/>
<polyline fill="none" stroke="#d3d3d3" stroke-width="0.5" stroke-dasharray="4,4,4,4" points="76.5,126.775 535.5,126.775 535.5,126.775"/>
<polyline fill="none" stroke="#d3d3d3" stroke-width="0.5" stroke-dasharray="4,4,4,4" points="76.5,92.2002 535.5,92.2002 535.5,92.2002"/>
<polyline fill="none" stroke="#d3d3d3" stroke-width="0.5" stroke-dasharray="4,4,4,4" points="76.5,57.625 535.5,57.625 535.5,57.625"/>
<polyline fill="none" stroke="#000000" stroke-width="0.5" points="76.5,403.375 535.5,403.375"/>
<polyline fill="none" stroke="#000000" stroke-width="0.5" points="76.5,403.375 76.5,408.55"/>
<polyline fill="none" stroke="#000000" stroke-width="0.5" points="153,403.375 153,408.55"/>
<polyline fill="none" stroke="#000000" stroke-width="0.5" points="229.5,403.375 229.5,408.55"/>
<polyline fill="none" stroke="#000000" stroke-width="0.5" points="306,403.375 306,408.55"/>
<polyline fill="none" stroke="#000000" stroke-width="0.5" points="382.5,403.375 382.5,408.55"/>
<polyline fill="none" stroke="#000000" stroke-width="0.5" points="459,403.375 459,408.55"/>
<polyline fill="none" stroke="#000000" stroke-width="0.5" points="535.5,403.375 535.5,408.55"/>
<polyline fill="none" stroke="#000000" stroke-width="0.5" points="95.625,403.375 95.625,406.48"/>
<polyline fill="none" stroke="#000000" stroke-width="0.5" points="114.75,403.375 114.75,406.48"/>
<polyline fill="none" stroke="#000000" stroke-width="0.5" points="133.875,403.375 133.875,406.48"/>
<polyline fill="none" stroke="#000000" stroke-width="0.5" points="172.125,403.375 172.125,406.48"/>
<polyline fill="none" stroke="#000000" stroke-width="0.5" points="191.25,403.375 191.25,406.48"/>
<polyline fill="none" stroke="#000000" stroke-width="0.5" points="210.375,403.375 210.375,406.48"/>
<polyline fill="none" stroke="#000000" stroke-width="0.5" points="248.625,403.375 248.625,406.48"/>
<polyline fill="none" stroke="#000000" stroke-width="0.5" points="267.75,403.375 267.75,406.48"/>
<polyline fill="none" stroke="#000000" stroke-width="0.5" points="286.875,403.375 286.875,406.48"/>
<polyline fill="none" stroke="#000000" stroke-width="0.5" points="325.125,403.375 325.125,406.48"/>
<polyline fill="none" stroke="#000000" stroke-width="0.5" points="344.25,403.375 344.25,406.48"/>
<polyline fill="none" stroke="#000000" stroke-width="0.5" points="363.375,403.375 363.375,406.48"/>
<polyline fill="none" stroke="#000000" stroke-width="0.5" points="401.625,403.375 401.625,406.48"/>
<polyline fill="none" stroke="#000000" stroke-width="0.5" points="420.75,403.375 420.75,406.48"/>
<polyline fill="none" stroke="#000000" stroke-width="0.5" points="439.875,403.375 439.875,406.48"/>
<polyline fill="none" stroke="#000000" stroke-width="0.5" points="478.125,403.375 478.125,406.48"/>
<polyline fill="none" stroke="#000000" stroke-width="0.5" points="497.25,403.375 497.25,406.48"/>
<polyline fill="none" stroke="#000000" stroke-width="0.5" points="516.375,403.375 516.375,406.48"/>
<text fill="#000000" style="stroke:none" x="66" y="420" transform="rotate(-0, 66, 420)" font-size="10" font-family="SansSerif" font-style="normal" font-weight="normal">-2.5</text>
<text fill="#000000" style="stroke:none" x="142" y="420" transform="rotate(-0, 142, 420)" font-size="10" font-family="SansSerif" font-style="normal" font-weight="normal">-2.0</text>
<text fill="#000000" style="stroke:none" x="219" y="420" transform="rotate(-0, 219, 420)" font-size="10" font-family="SansSerif" font-style="normal" font-weight="normal">-1.5</text>
<text fill="#000000" style="stroke:none" x="295" y="420" transform="rotate(-0, 295, 420)" font-size="10" font-family="SansSerif" font-style="normal" font-weight="normal">-1.0</text>
<text fill="#000000" style="stroke:none" x="372" y="420" transform="rotate(-0, 372, 420)" font-size="10" font-family="SansSerif" font-style="normal" font-weight="normal">-0.5</text>
<text fill="#000000" style="stroke:none" x="451" y="420" transform="rotate(-0, 451, 420)" font-size="10" font-family="SansSerif" font-style="normal" font-weight="normal">0.0</text>
<text fill="#000000" style="stroke:none" x="528" y="420" transform="rotate(-0, 528, 420)" font-size="10" font-family="SansSerif" font-style="normal" font-weight="normal">0.5</text>
<polyline fill="none" stroke="#d3d3d3" stroke-width="0.5" stroke-dasharray="4,4,4,4" points="76.5,403.375 76.5,57.625 76.5,57.625"/>
<polyline fill="none" stroke="#d3d3d3" stroke-width="0.5" stroke-dasharray="4,4,4,4" points="153,403.375 153,57.625 153,57.625"/>
<polyline fill="none" stroke="#d3d3d3" stroke-width="0.5" stroke-dasharray="4,4,4,4" points="229.5,403.375 229.5,57.625 229.5,57.625"/>
<polyline fill="none" stroke="#d3d3d3" stroke-width="0.5" stroke-dasharray="4,4,4,4" points="306,403.375 306,57.625 306,57.625"/>
<polyline fill="none" stroke="#d3d3d3" stroke-width="0.5" stroke-dasharray="4,4,4,4" points="382.5,403.375 382.5,57.625 382.5,57.625"/>
<polyline fill="none" stroke="#d3d3d3" stroke-width="0.5" stroke-dasharray="4,4,4,4" points="459,403.375 459,57.625 459,57.625"/>
<polyline fill="none" stroke="#d3d3d3" stroke-width="0.5" stroke-dasharray="4,4,4,4" points="535.5,403.375 535.5,57.625 535.5,57.625"/>
<text fill="#000000" style="stroke:none" x="274" y="49" transform="rotate(0, 274, 49)" font-size="10" font-family="SansSerif" font-style="normal" font-weight="normal">Nyquist plot</text>
<text fill="#000000" style="stroke:none" x="278" y="436" transform="rotate(0, 278, 436)" font-size="10" font-family="SansSerif" font-style="normal" font-weight="normal">Re(h(2i&#x03c0;f))</text>
<text fill="#000000" style="stroke:none" x="49" y="258" transform="rotate(270, 49, 258)" font-size="10" font-family="SansSerif" font-style="normal" font-weight="normal">Im(h(2i&#x03c0;f))</text>
</g>
</svg>
