<?xml version="1.0" encoding="UTF-8" standalone="no"?>
<svg xmlns="http://www.w3.org/2000/svg"
     xmlns:xlink="http://www.w3.org/1999/xlink"
     width="612px" height="461px" viewBox="0 0 612 461"
     style="stroke:none">
<title>Graphic window number 0</title>
<desc>
Creator: GL2PS 1.3.2, (C) 1999-2006 Christophe Geuzaine (geuz@geuz.org)
For: Scilab
CreationDate: Thu Apr 15 13:26:37 2010
</desc>
<defs>
</defs>
<polygon fill="#ffffff" points="0,0 612,0 612,461 0,461"/>
<g>
<polygon fill="#ffffff" points="76.5,403.375 76.5,57.625 76.5,57.625"/>
<polygon fill="#ffffff" points="76.5,403.375 76.5,57.625 76.5,403.375"/>
<polygon fill="#ffffff" points="76.5,403.375 535.5,403.375 535.5,403.375"/>
<polygon fill="#ffffff" points="76.5,403.375 535.5,403.375 76.5,403.375"/>
<polygon fill="#ffffff" points="76.5,403.375 535.5,403.375 535.5,57.625"/>
<polygon fill="#ffffff" points="76.5,403.375 535.5,57.625 76.5,57.625"/>
<polyline fill="none" stroke="#87ceff" stroke-width="0.5" stroke-dasharray="1,1,1,1,1,1,1,1,1,1" points="535.5,230.5 76.5,230.5"/>
<polyline fill="none" stroke="#87ceff" stroke-width="0.5" stroke-dasharray="1,1,1,1,1,1,1,1,1,1" points="535.5,230.5 76.5,230.5"/>
<polyline fill="none" stroke="#87ceff" stroke-width="0.5" stroke-dasharray="1,1,1,1,1,1,1,1,1,1" points="535.5,230.5 76.5,126.775"/>
<polyline fill="none" stroke="#87ceff" stroke-width="0.5" stroke-dasharray="1,1,1,1,1,1,1,1,1,1" points="535.5,230.5 76.5,334.225"/>
<polyline fill="none" stroke="#87ceff" stroke-width="0.5" stroke-dasharray="1,1,1,1,1,1,1,1,1,1" points="535.5,230.5 105.188,57.625"/>
<polyline fill="none" stroke="#87ceff" stroke-width="0.5" stroke-dasharray="1,1,1,1,1,1,1,1,1,1" points="535.5,230.5 105.188,403.375"/>
<polyline fill="none" stroke="#87ceff" stroke-width="0.5" stroke-dasharray="1,1,1,1,1,1,1,1,1,1" points="535.5,230.5 285.095,57.625"/>
<polyline fill="none" stroke="#87ceff" stroke-width="0.5" stroke-dasharray="1,1,1,1,1,1,1,1,1,1" points="535.5,230.5 285.095,403.375"/>
<polyline fill="none" stroke="#87ceff" stroke-width="0.5" stroke-dasharray="1,1,1,1,1,1,1,1,1,1" points="535.5,230.5 418.384,57.625"/>
<polyline fill="none" stroke="#87ceff" stroke-width="0.5" stroke-dasharray="1,1,1,1,1,1,1,1,1,1" points="535.5,230.5 418.384,403.375"/>
<polyline fill="none" stroke="#87ceff" stroke-width="0.5" stroke-dasharray="1,1,1,1,1,1,1,1,1,1" points="535.5,230.5 535.5,57.625"/>
<polyline fill="none" stroke="#87ceff" stroke-width="0.5" stroke-dasharray="1,1,1,1,1,1,1,1,1,1" points="535.5,230.5 535.5,403.375"/>
<polyline fill="none" stroke="#00ffff" stroke-width="0.5" stroke-dasharray="1,1,1,1,1,1,1,1,1,1" points="535.5,57.625 526.443,57.6465 517.388,57.7109 508.337,57.8188 499.293,57.9697 490.258,58.1631 481.235,58.3999 472.225,58.6797 463.23,59.002 454.254,59.3672 445.298,59.7749 436.365,60.2251 427.456,60.7178 418.574,61.2529 409.722,61.8301 400.9,62.4492 392.112,63.1108 383.36,63.8135 374.646,64.5581 365.972,65.3438 357.34,66.1704 348.753,67.0386 340.212,67.9473 331.72,68.8965 323.278,69.8857 314.89,70.915 306.556,71.9844 298.28,73.0933 290.062,74.2412 281.906,75.4282 273.813,76.6533 265.785,77.9175 257.825,79.2192 249.934,80.5591 242.113,81.936 234.366,83.3501 226.694,84.8008 219.099,86.2876 211.583,87.8105 204.147,89.3691 196.794,90.9629 189.526,92.5913 182.344,94.2539 175.25,95.9507 168.245,97.6812 161.332,99.4443 154.512,101.241 147.788,103.069 141.159,104.929 134.629,106.82 128.199,108.742 121.871,110.695 115.646,112.677 109.525,114.689 103.51,116.729 97.6035,118.798 91.8057,120.895 86.1187,123.02 80.5435,125.17 76.4956,126.784"/>
<polyline fill="none" stroke="#00ffff" stroke-width="0.5" stroke-dasharray="1,1,1,1,1,1,1,1,1,1" points="76.4956,334.216 80.5435,335.83 86.1187,337.98 91.8057,340.105 97.6035,342.202 103.51,344.271 109.525,346.311 115.646,348.323 121.871,350.305 128.199,352.258 134.629,354.18 141.159,356.071 147.788,357.931 154.512,359.759 161.332,361.556 168.245,363.319 175.25,365.049 182.344,366.746 189.526,368.409 196.794,370.037 204.147,371.631 211.583,373.189 219.099,374.712 226.694,376.199 234.366,377.65 242.113,379.064 249.934,380.441 257.825,381.781 265.785,383.083 273.813,384.347 281.906,385.572 290.062,386.759 298.28,387.907 306.556,389.016 314.89,390.085 323.278,391.114 331.72,392.104 340.212,393.053 348.753,393.961 357.34,394.83 365.972,395.656 374.646,396.442 383.36,397.187 392.112,397.889 400.9,398.551 409.722,399.17 418.574,399.747 427.456,400.282 436.365,400.775 445.298,401.225 454.254,401.633 463.23,401.998 472.225,402.32 481.235,402.6 490.258,402.837 499.293,403.03 508.337,403.181 517.388,403.289 526.443,403.354 535.5,403.375"/>
<polyline fill="none" stroke="#00ffff" stroke-width="0.5" stroke-dasharray="1,1,1,1,1,1,1,1,1,1" points="535.5,83.5562 527.801,83.5747 520.104,83.6294 512.412,83.7212 504.724,83.8491 497.044,84.0137 489.375,84.2148 481.716,84.4526 474.071,84.7266 466.441,85.0371 458.829,85.3838 451.235,85.7661 443.663,86.1851 436.113,86.6401 428.588,87.1309 421.09,87.6572 413.621,88.2192 406.181,88.8164 398.774,89.4492 391.401,90.1172 384.064,90.8198 376.765,91.5576 369.505,92.3301 362.287,93.1367 355.111,93.978 347.981,94.853 340.898,95.7617 333.863,96.7041 326.878,97.6797 319.945,98.689 313.066,99.7305 306.243,100.805 299.476,101.912 292.769,103.05 286.121,104.221 279.536,105.422 273.015,106.656 266.559,107.919 260.17,109.214 253.85,110.539 247.6,111.893 241.422,113.277 235.317,114.691 229.287,116.133 223.333,117.604 217.457,119.103 211.66,120.629 205.944,122.184 200.311,123.765 194.76,125.372 189.294,127.006 183.916,128.666 178.624,130.351 173.421,132.061 168.309,133.795 163.288,135.554 158.36,137.336 153.526,139.142 148.787,140.97 144.145,142.82 139.599,144.692 135.153,146.586 130.807,148.501 126.561,150.436 122.417,152.392 118.376,154.366 114.439,156.359 110.607,158.372 106.881,160.401 103.262,162.449 99.7505,164.513 96.3477,166.594 93.0542,168.691 89.8711,170.803 86.7988,172.93 83.8384,175.072 80.9907,177.227 78.2563,179.396 76.4956,180.861"/>
<polyline fill="none" stroke="#00ffff" stroke-width="0.5" stroke-dasharray="1,1,1,1,1,1,1,1,1,1" points="76.4956,280.139 78.2563,281.604 80.9907,283.773 83.8384,285.928 86.7988,288.07 89.8711,290.197 93.0542,292.309 96.3477,294.406 99.7505,296.487 103.262,298.551 106.881,300.599 110.607,302.628 114.439,304.641 118.376,306.634 122.417,308.608 126.561,310.564 130.807,312.499 135.153,314.414 139.599,316.308 144.145,318.18 148.787,320.03 153.526,321.858 158.36,323.664 163.288,325.446 168.309,327.205 173.421,328.939 178.624,330.649 183.916,332.334 189.294,333.994 194.76,335.628 200.311,337.235 205.944,338.816 211.66,340.371 217.457,341.897 223.333,343.396 229.287,344.867 235.317,346.309 241.422,347.723 247.6,349.107 253.85,350.461 260.17,351.786 266.559,353.081 273.015,354.344 279.536,355.578 286.121,356.779 292.769,357.95 299.476,359.088 306.243,360.195 313.066,361.27 319.945,362.311 326.878,363.32 333.863,364.296 340.898,365.238 347.981,366.147 355.111,367.022 362.287,367.863 369.505,368.67 376.765,369.442 384.064,370.18 391.401,370.883 398.774,371.551 406.181,372.184 413.621,372.781 421.09,373.343 428.588,373.869 436.113,374.36 443.663,374.815 451.235,375.234 458.829,375.616 466.441,375.963 474.071,376.273 481.716,376.547 489.375,376.785 497.044,376.986 504.724,377.151 512.412,377.279 520.104,377.371 527.801,377.425 535.5,377.444"/>
<polyline fill="none" stroke="#00ffff" stroke-width="0.5" stroke-dasharray="1,1,1,1,1,1,1,1,1,1" points="535.5,144.062 530.971,144.073 526.444,144.105 521.918,144.159 517.396,144.235 512.879,144.332 508.367,144.45 503.862,144.59 499.365,144.751 494.877,144.934 490.399,145.137 485.933,145.362 481.478,145.609 477.037,145.876 472.611,146.165 468.2,146.475 463.806,146.805 459.43,147.157 455.073,147.529 450.736,147.922 446.42,148.335 442.126,148.769 437.856,149.224 433.61,149.698 429.389,150.193 425.195,150.708 421.028,151.242 416.89,151.796 412.781,152.371 408.703,152.964 404.657,153.577 400.643,154.208 396.663,154.86 392.717,155.529 388.807,156.218 384.933,156.925 381.097,157.65 377.299,158.394 373.542,159.155 369.824,159.935 366.147,160.731 362.513,161.545 358.922,162.377 355.375,163.226 351.873,164.09 348.416,164.972 345.006,165.87 341.644,166.784 338.33,167.714 335.064,168.66 331.85,169.621 328.686,170.597 325.573,171.588 322.513,172.594 319.505,173.615 316.552,174.649 313.653,175.698 310.809,176.76 308.021,177.835 305.291,178.924 302.617,180.025 300.002,181.139 297.445,182.265 294.947,183.404 292.51,184.554 290.133,185.715 287.817,186.888 285.563,188.071 283.371,189.266 281.242,190.47 279.177,191.685 277.175,192.908 275.238,194.142 273.365,195.384 271.558,196.635 269.817,197.895 268.142,199.163 266.533,200.438 264.992,201.722 263.518,203.012 262.111,204.309 260.773,205.613 259.503,206.922 258.303,208.238 257.171,209.56 256.108,210.886 255.116,212.217 254.192,213.553 253.34,214.894 252.557,216.237 251.845,217.585 251.204,218.936 250.633,220.29 250.134,221.646 249.706,223.004 249.349,224.365 249.063,225.727 248.849,227.089 248.706,228.453 248.634,229.818 248.634,231.182 248.706,232.547 248.849,233.911 249.063,235.273 249.349,236.635 249.706,237.996 250.134,239.354 250.633,240.71 251.204,242.064 251.845,243.415 252.557,244.763 253.34,246.106 254.192,247.447 255.116,248.783 256.108,250.114 257.171,251.44 258.303,252.762 259.503,254.078 260.773,255.387 262.111,256.691 263.518,257.988 264.992,259.278 266.533,260.562 268.142,261.837 269.817,263.105 271.558,264.365 273.365,265.616 275.238,266.858 277.175,268.092 279.177,269.315 281.242,270.53 283.371,271.734 285.563,272.929 287.817,274.112 290.133,275.285 292.51,276.446 294.947,277.596 297.445,278.735 300.002,279.861 302.617,280.975 305.291,282.076 308.021,283.165 310.809,284.24 313.653,285.302 316.552,286.351 319.505,287.385 322.513,288.406 325.573,289.412 328.686,290.403 331.85,291.379 335.064,292.34 338.33,293.286 341.644,294.216 345.006,295.13 348.416,296.028 351.873,296.91 355.375,297.774 358.922,298.623 362.513,299.455 366.147,300.269 369.824,301.065 373.542,301.845 377.299,302.606 381.097,303.35 384.933,304.075 388.807,304.782 392.717,305.471 396.663,306.14 400.643,306.792 404.657,307.423 408.703,308.036 412.781,308.629 416.89,309.204 421.028,309.758 425.195,310.292 429.389,310.807 433.61,311.302 437.856,311.776 442.126,312.231 446.42,312.665 450.736,313.078 455.073,313.471 459.43,313.843 463.806,314.195 468.2,314.525 472.611,314.835 477.037,315.124 481.478,315.391 485.933,315.638 490.399,315.863 494.877,316.066 499.365,316.249 503.862,316.41 508.367,316.55 512.879,316.668 517.396,316.765 521.918,316.841 526.444,316.895 530.971,316.927 535.5,316.938"/>
<polyline fill="none" stroke="#00ffff" stroke-width="0.5" stroke-dasharray="1,1,1,1,1,1,1,1,1,1" points="535.5,178.638 532.783,178.644 530.066,178.664 527.351,178.696 524.638,178.741 521.928,178.799 519.22,178.87 516.518,178.954 513.819,179.051 511.126,179.16 508.439,179.282 505.759,179.417 503.087,179.565 500.422,179.726 497.767,179.899 495.12,180.085 492.484,180.283 489.858,180.494 487.244,180.717 484.642,180.953 482.052,181.201 479.476,181.461 476.914,181.734 474.366,182.019 471.833,182.316 469.317,182.625 466.817,182.945 464.334,183.278 461.869,183.623 459.422,183.979 456.994,184.346 454.585,184.725 452.197,185.116 449.83,185.518 447.484,185.931 445.16,186.355 442.858,186.79 440.58,187.236 438.325,187.693 436.094,188.161 433.888,188.639 431.708,189.127 429.553,189.626 427.425,190.135 425.323,190.654 423.25,191.183 421.204,191.722 419.186,192.271 417.198,192.829 415.239,193.396 413.31,193.973 411.411,194.559 409.543,195.153 407.708,195.757 405.903,196.369 404.131,196.99 402.392,197.619 400.686,198.256 399.013,198.901 397.375,199.554 395.771,200.215 394.201,200.883 392.667,201.559 391.168,202.242 389.706,202.932 388.28,203.629 386.89,204.333 385.538,205.043 384.223,205.759 382.945,206.482 381.706,207.21 380.505,207.945 379.343,208.685 378.219,209.431 377.135,210.181 376.09,210.937 375.085,211.698 374.12,212.463 373.195,213.233 372.311,214.007 371.467,214.785 370.664,215.567 369.902,216.354 369.182,217.143 368.502,217.936 367.865,218.731 367.27,219.53 366.715,220.332 366.204,221.136 365.734,221.942 365.307,222.751 364.922,223.562 364.58,224.374 364.28,225.188 364.023,226.002 363.809,226.819 363.638,227.636 363.509,228.454 363.423,229.272 363.38,230.091 363.38,230.909 363.423,231.728 363.509,232.546 363.638,233.364 363.809,234.181 364.023,234.998 364.28,235.812 364.58,236.626 364.922,237.438 365.307,238.249 365.734,239.058 366.204,239.864 366.715,240.668 367.27,241.47 367.865,242.269 368.502,243.064 369.182,243.857 369.902,244.646 370.664,245.433 371.467,246.215 372.311,246.993 373.195,247.767 374.12,248.537 375.085,249.302 376.09,250.063 377.135,250.819 378.219,251.569 379.343,252.315 380.505,253.055 381.706,253.79 382.945,254.518 384.223,255.241 385.538,255.957 386.89,256.667 388.28,257.371 389.706,258.068 391.168,258.758 392.667,259.441 394.201,260.117 395.771,260.785 397.375,261.446 399.013,262.099 400.686,262.744 402.392,263.381 404.131,264.01 405.903,264.631 407.708,265.243 409.543,265.847 411.411,266.441 413.31,267.027 415.239,267.604 417.198,268.171 419.186,268.729 421.204,269.278 423.25,269.817 425.323,270.346 427.425,270.865 429.553,271.374 431.708,271.873 433.888,272.361 436.094,272.839 438.325,273.307 440.58,273.764 442.858,274.21 445.16,274.645 447.484,275.069 449.83,275.482 452.197,275.884 454.585,276.275 456.994,276.654 459.422,277.021 461.869,277.377 464.334,277.722 466.817,278.055 469.317,278.375 471.833,278.684 474.366,278.981 476.914,279.266 479.476,279.539 482.052,279.799 484.642,280.047 487.244,280.283 489.858,280.506 492.484,280.717 495.12,280.915 497.767,281.101 500.422,281.274 503.087,281.435 505.759,281.583 508.439,281.718 511.126,281.84 513.819,281.949 516.518,282.046 519.22,282.13 521.928,282.201 524.638,282.259 527.351,282.304 530.066,282.336 532.783,282.356 535.5,282.362"/>
<polyline fill="none" stroke="#00ffff" stroke-width="0.5" stroke-dasharray="1,1,1,1,1,1,1,1,1,1" points="535.5,213.212 534.594,213.215 533.689,213.221 532.784,213.232 531.879,213.247 530.976,213.266 530.074,213.29 529.172,213.318 528.273,213.35 527.375,213.387 526.48,213.427 525.586,213.473 524.696,213.522 523.808,213.575 522.922,213.633 522.04,213.695 521.161,213.761 520.286,213.832 519.415,213.906 518.547,213.984 517.684,214.067 516.825,214.154 515.971,214.245 515.122,214.34 514.278,214.438 513.439,214.542 512.605,214.648 511.778,214.759 510.956,214.874 510.141,214.993 509.332,215.115 508.528,215.242 507.732,215.372 506.943,215.506 506.161,215.644 505.387,215.785 504.62,215.93 503.86,216.079 503.108,216.231 502.365,216.387 501.629,216.546 500.902,216.709 500.185,216.875 499.475,217.045 498.774,217.218 498.083,217.395 497.401,217.574 496.729,217.757 496.066,217.943 495.413,218.132 494.77,218.324 494.137,218.52 493.515,218.718 492.902,218.919 492.301,219.123 491.71,219.33 491.13,219.54 490.562,219.752 490.004,219.967 489.458,220.185 488.923,220.405 488.4,220.628 487.889,220.853 487.39,221.081 486.902,221.311 486.427,221.543 485.963,221.777 485.513,222.014 485.074,222.253 484.648,222.494 484.235,222.737 483.835,222.981 483.448,223.229 483.073,223.477 482.711,223.727 482.363,223.979 482.028,224.232 481.707,224.488 481.398,224.744 481.104,225.002 480.822,225.262 480.555,225.522 480.301,225.785 480.061,226.048 479.834,226.312 479.622,226.577 479.423,226.843 479.238,227.111 479.068,227.379 478.912,227.647 478.769,227.917 478.641,228.187 478.527,228.458 478.427,228.729 478.341,229.001 478.27,229.273 478.212,229.545 478.17,229.818 478.141,230.091 478.127,230.364 478.127,230.636 478.141,230.909 478.17,231.182 478.212,231.455 478.27,231.727 478.341,231.999 478.427,232.271 478.527,232.542 478.641,232.813 478.769,233.083 478.912,233.353 479.068,233.621 479.238,233.889 479.423,234.157 479.622,234.423 479.834,234.688 480.061,234.952 480.301,235.215 480.555,235.478 480.822,235.738 481.104,235.998 481.398,236.256 481.707,236.512 482.028,236.768 482.363,237.021 482.711,237.273 483.073,237.523 483.448,237.771 483.835,238.019 484.235,238.263 484.648,238.506 485.074,238.747 485.513,238.986 485.963,239.223 486.427,239.457 486.902,239.689 487.39,239.919 487.889,240.147 488.4,240.372 488.923,240.595 489.458,240.815 490.004,241.033 490.562,241.248 491.13,241.46 491.71,241.67 492.301,241.877 492.902,242.081 493.515,242.282 494.137,242.48 494.77,242.676 495.413,242.868 496.066,243.057 496.729,243.243 497.401,243.426 498.083,243.605 498.774,243.782 499.475,243.955 500.185,244.125 500.902,244.291 501.629,244.454 502.365,244.613 503.108,244.769 503.86,244.921 504.62,245.07 505.387,245.215 506.161,245.356 506.943,245.494 507.732,245.628 508.528,245.758 509.332,245.885 510.141,246.007 510.956,246.126 511.778,246.241 512.605,246.352 513.439,246.458 514.278,246.562 515.122,246.66 515.971,246.755 516.825,246.846 517.684,246.933 518.547,247.016 519.415,247.094 520.286,247.168 521.161,247.239 522.04,247.305 522.922,247.367 523.808,247.425 524.696,247.478 525.586,247.527 526.48,247.573 527.375,247.613 528.273,247.65 529.172,247.682 530.074,247.71 530.976,247.734 531.879,247.753 532.784,247.768 533.689,247.779 534.594,247.785 535.5,247.788"/>
<text fill="#00ffff" style="stroke:none" x="519" y="258" transform="rotate(0, 519, 258)" font-size="10" font-family="SansSerif" font-style="normal" font-weight="normal">0.2</text>
<text fill="#00ffff" style="stroke:none" x="519" y="211" transform="rotate(0, 519, 211)" font-size="10" font-family="SansSerif" font-style="normal" font-weight="normal">0.2</text>
<text fill="#00ffff" style="stroke:none" x="519" y="292" transform="rotate(0, 519, 292)" font-size="10" font-family="SansSerif" font-style="normal" font-weight="normal">0.6</text>
<text fill="#00ffff" style="stroke:none" x="519" y="177" transform="rotate(0, 519, 177)" font-size="10" font-family="SansSerif" font-style="normal" font-weight="normal">0.6</text>
<text fill="#00ffff" style="stroke:none" x="530" y="327" transform="rotate(0, 530, 327)" font-size="10" font-family="SansSerif" font-style="normal" font-weight="normal">1</text>
<text fill="#00ffff" style="stroke:none" x="530" y="142" transform="rotate(0, 530, 142)" font-size="10" font-family="SansSerif" font-style="normal" font-weight="normal">1</text>
<text fill="#00ffff" style="stroke:none" x="519" y="387" transform="rotate(0, 519, 387)" font-size="10" font-family="SansSerif" font-style="normal" font-weight="normal">1.7</text>
<text fill="#00ffff" style="stroke:none" x="519" y="82" transform="rotate(0, 519, 82)" font-size="10" font-family="SansSerif" font-style="normal" font-weight="normal">1.7</text>
<text fill="#87ceff" style="stroke:none" x="528" y="389" transform="rotate(0, 528, 389)" font-size="10" font-family="SansSerif" font-style="normal" font-weight="normal">0</text>
<text fill="#87ceff" style="stroke:none" x="528" y="68" transform="rotate(0, 528, 68)" font-size="10" font-family="SansSerif" font-style="normal" font-weight="normal">0</text>
<text fill="#87ceff" style="stroke:none" x="410" y="389" transform="rotate(0, 410, 389)" font-size="10" font-family="SansSerif" font-style="normal" font-weight="normal">0.2</text>
<text fill="#87ceff" style="stroke:none" x="401" y="68" transform="rotate(0, 401, 68)" font-size="10" font-family="SansSerif" font-style="normal" font-weight="normal">0.2</text>
<text fill="#87ceff" style="stroke:none" x="285" y="389" transform="rotate(0, 285, 389)" font-size="10" font-family="SansSerif" font-style="normal" font-weight="normal">0.4</text>
<text fill="#87ceff" style="stroke:none" x="268" y="68" transform="rotate(0, 268, 68)" font-size="10" font-family="SansSerif" font-style="normal" font-weight="normal">0.4</text>
<text fill="#87ceff" style="stroke:none" x="118" y="389" transform="rotate(0, 118, 389)" font-size="10" font-family="SansSerif" font-style="normal" font-weight="normal">0.6</text>
<text fill="#87ceff" style="stroke:none" x="88" y="68" transform="rotate(0, 88, 68)" font-size="10" font-family="SansSerif" font-style="normal" font-weight="normal">0.6</text>
<text fill="#87ceff" style="stroke:none" x="78" y="332" transform="rotate(0, 78, 332)" font-size="10" font-family="SansSerif" font-style="normal" font-weight="normal">0.8</text>
<text fill="#87ceff" style="stroke:none" x="78" y="125" transform="rotate(0, 78, 125)" font-size="10" font-family="SansSerif" font-style="normal" font-weight="normal">0.8</text>
<text fill="#87ceff" style="stroke:none" x="78" y="229" transform="rotate(0, 78, 229)" font-size="10" font-family="SansSerif" font-style="normal" font-weight="normal">1</text>
<text fill="#87ceff" style="stroke:none" x="78" y="228" transform="rotate(0, 78, 228)" font-size="10" font-family="SansSerif" font-style="normal" font-weight="normal">1</text>
<polyline fill="none" stroke="#000000" stroke-width="0.5" points="76.5,403.375 76.5,57.625"/>
<polyline fill="none" stroke="#000000" stroke-width="0.5" points="76.5,403.375 69.6152,403.375"/>
<polyline fill="none" stroke="#000000" stroke-width="0.5" points="76.5,360.156 69.6152,360.156"/>
<polyline fill="none" stroke="#000000" stroke-width="0.5" points="76.5,316.938 69.6152,316.938"/>
<polyline fill="none" stroke="#000000" stroke-width="0.5" points="76.5,273.719 69.6152,273.719"/>
<polyline fill="none" stroke="#000000" stroke-width="0.5" points="76.5,230.5 69.6152,230.5"/>
<polyline fill="none" stroke="#000000" stroke-width="0.5" points="76.5,187.281 69.6152,187.281"/>
<polyline fill="none" stroke="#000000" stroke-width="0.5" points="76.5,144.062 69.6152,144.062"/>
<polyline fill="none" stroke="#000000" stroke-width="0.5" points="76.5,100.844 69.6152,100.844"/>
<polyline fill="none" stroke="#000000" stroke-width="0.5" points="76.5,57.625 69.6152,57.625"/>
<polyline fill="none" stroke="#000000" stroke-width="0.5" points="76.5,381.766 72.3691,381.766"/>
<polyline fill="none" stroke="#000000" stroke-width="0.5" points="76.5,338.547 72.3691,338.547"/>
<polyline fill="none" stroke="#000000" stroke-width="0.5" points="76.5,295.328 72.3691,295.328"/>
<polyline fill="none" stroke="#000000" stroke-width="0.5" points="76.5,252.109 72.3691,252.109"/>
<polyline fill="none" stroke="#000000" stroke-width="0.5" points="76.5,208.891 72.3691,208.891"/>
<polyline fill="none" stroke="#000000" stroke-width="0.5" points="76.5,165.672 72.3691,165.672"/>
<polyline fill="none" stroke="#000000" stroke-width="0.5" points="76.5,122.453 72.3691,122.453"/>
<polyline fill="none" stroke="#000000" stroke-width="0.5" points="76.5,79.2344 72.3691,79.2344"/>
<text fill="#000000" style="stroke:none" x="46" y="408" transform="rotate(-0, 46, 408)" font-size="10" font-family="SansSerif" font-style="normal" font-weight="normal">-2.0</text>
<text fill="#000000" style="stroke:none" x="46" y="365" transform="rotate(-0, 46, 365)" font-size="10" font-family="SansSerif" font-style="normal" font-weight="normal">-1.5</text>
<text fill="#000000" style="stroke:none" x="46" y="322" transform="rotate(-0, 46, 322)" font-size="10" font-family="SansSerif" font-style="normal" font-weight="normal">-1.0</text>
<text fill="#000000" style="stroke:none" x="46" y="279" transform="rotate(-0, 46, 279)" font-size="10" font-family="SansSerif" font-style="normal" font-weight="normal">-0.5</text>
<text fill="#000000" style="stroke:none" x="51" y="235" transform="rotate(-0, 51, 235)" font-size="10" font-family="SansSerif" font-style="normal" font-weight="normal">0.0</text>
<text fill="#000000" style="stroke:none" x="52" y="192" transform="rotate(-0, 52, 192)" font-size="10" font-family="SansSerif" font-style="normal" font-weight="normal">0.5</text>
<text fill="#000000" style="stroke:none" x="52" y="149" transform="rotate(-0, 52, 149)" font-size="10" font-family="SansSerif" font-style="normal" font-weight="normal">1.0</text>
<text fill="#000000" style="stroke:none" x="53" y="106" transform="rotate(-0, 53, 106)" font-size="10" font-family="SansSerif" font-style="normal" font-weight="normal">1.5</text>
<text fill="#000000" style="stroke:none" x="52" y="63" transform="rotate(-0, 52, 63)" font-size="10" font-family="SansSerif" font-style="normal" font-weight="normal">2.0</text>
<polyline fill="none" stroke="#000000" stroke-width="0.5" points="76.5,403.375 535.5,403.375"/>
<polyline fill="none" stroke="#000000" stroke-width="0.5" points="76.5,403.375 76.5,408.55"/>
<polyline fill="none" stroke="#000000" stroke-width="0.5" points="133.875,403.375 133.875,408.55"/>
<polyline fill="none" stroke="#000000" stroke-width="0.5" points="191.25,403.375 191.25,408.55"/>
<polyline fill="none" stroke="#000000" stroke-width="0.5" points="248.625,403.375 248.625,408.55"/>
<polyline fill="none" stroke="#000000" stroke-width="0.5" points="306,403.375 306,408.55"/>
<polyline fill="none" stroke="#000000" stroke-width="0.5" points="363.375,403.375 363.375,408.55"/>
<polyline fill="none" stroke="#000000" stroke-width="0.5" points="420.75,403.375 420.75,408.55"/>
<polyline fill="none" stroke="#000000" stroke-width="0.5" points="478.125,403.375 478.125,408.55"/>
<polyline fill="none" stroke="#000000" stroke-width="0.5" points="535.5,403.375 535.5,408.55"/>
<polyline fill="none" stroke="#000000" stroke-width="0.5" points="105.188,403.375 105.188,406.48"/>
<polyline fill="none" stroke="#000000" stroke-width="0.5" points="162.562,403.375 162.562,406.48"/>
<polyline fill="none" stroke="#000000" stroke-width="0.5" points="219.938,403.375 219.938,406.48"/>
<polyline fill="none" stroke="#000000" stroke-width="0.5" points="277.312,403.375 277.312,406.48"/>
<polyline fill="none" stroke="#000000" stroke-width="0.5" points="334.688,403.375 334.688,406.48"/>
<polyline fill="none" stroke="#000000" stroke-width="0.5" points="392.062,403.375 392.062,406.48"/>
<polyline fill="none" stroke="#000000" stroke-width="0.5" points="449.438,403.375 449.438,406.48"/>
<polyline fill="none" stroke="#000000" stroke-width="0.5" points="506.812,403.375 506.812,406.48"/>
<text fill="#000000" style="stroke:none" x="66" y="420" transform="rotate(-0, 66, 420)" font-size="10" font-family="SansSerif" font-style="normal" font-weight="normal">-1.6</text>
<text fill="#000000" style="stroke:none" x="123" y="420" transform="rotate(-0, 123, 420)" font-size="10" font-family="SansSerif" font-style="normal" font-weight="normal">-1.4</text>
<text fill="#000000" style="stroke:none" x="180" y="420" transform="rotate(-0, 180, 420)" font-size="10" font-family="SansSerif" font-style="normal" font-weight="normal">-1.2</text>
<text fill="#000000" style="stroke:none" x="238" y="420" transform="rotate(-0, 238, 420)" font-size="10" font-family="SansSerif" font-style="normal" font-weight="normal">-1.0</text>
<text fill="#000000" style="stroke:none" x="295" y="420" transform="rotate(-0, 295, 420)" font-size="10" font-family="SansSerif" font-style="normal" font-weight="normal">-0.8</text>
<text fill="#000000" style="stroke:none" x="352" y="420" transform="rotate(-0, 352, 420)" font-size="10" font-family="SansSerif" font-style="normal" font-weight="normal">-0.6</text>
<text fill="#000000" style="stroke:none" x="410" y="420" transform="rotate(-0, 410, 420)" font-size="10" font-family="SansSerif" font-style="normal" font-weight="normal">-0.4</text>
<text fill="#000000" style="stroke:none" x="467" y="420" transform="rotate(-0, 467, 420)" font-size="10" font-family="SansSerif" font-style="normal" font-weight="normal">-0.2</text>
<text fill="#000000" style="stroke:none" x="525" y="420" transform="rotate(-0, 525, 420)" font-size="10" font-family="SansSerif" font-style="normal" font-weight="normal">-0.0</text>
</g>
</svg>
