<?xml version="1.0" encoding="UTF-8" standalone="no"?>
<svg xmlns="http://www.w3.org/2000/svg"
     xmlns:xlink="http://www.w3.org/1999/xlink"
     width="612px" height="461px" viewBox="0 0 612 461"
     style="stroke:none">
<title>Graphic window number 0</title>
<desc>
Creator: GL2PS 1.3.2, (C) 1999-2006 Christophe Geuzaine (geuz@geuz.org)
For: Scilab
CreationDate: Thu Apr 15 13:26:58 2010
</desc>
<defs>
</defs>
<polygon fill="#ffffff" points="0,0 612,0 612,461 0,461"/>
<g>
<polyline fill="none" stroke="#000000" stroke-width="0.5" points="76.5,403.375 76.5,57.625 76.5,57.625 535.5,57.625 535.5,403.375 535.5,403.375 76.5,403.375"/>
<polyline fill="none" stroke="#000000" stroke-width="0.5" points="535.5,57.625 76.5,57.625"/>
<polyline fill="none" stroke="#000000" stroke-width="0.5" points="535.5,57.625 535.5,403.375"/>
<polyline fill="none" stroke="#000000" stroke-width="0.5" points="535.5,57.625 535.5,57.625"/>
<polygon fill="#ffffff" points="76.5,403.375 76.5,57.625 76.5,57.625"/>
<polygon fill="#ffffff" points="76.5,403.375 76.5,57.625 76.5,403.375"/>
<polygon fill="#ffffff" points="76.5,403.375 535.5,403.375 535.5,403.375"/>
<polygon fill="#ffffff" points="76.5,403.375 535.5,403.375 76.5,403.375"/>
<polygon fill="#ffffff" points="76.5,403.375 535.5,403.375 535.5,57.625"/>
<polygon fill="#ffffff" points="76.5,403.375 535.5,57.625 76.5,57.625"/>
<polyline fill="none" stroke="#87ceff" stroke-width="0.5" stroke-dasharray="1,1,1,1,1,1,1,1,1,1" points="76.5,230.5 109.85,231.08 138.306,232.483 162.576,234.313 183.292,236.296 201.008,238.249 216.197,240.055 229.261,241.645 240.54,242.985 250.316,244.063 258.824,244.883 266.257,245.456 272.777,245.8 278.514,245.935 283.58,245.883 288.062,245.664 292.036,245.297 295.564,244.801 298.696,244.192 301.477,243.486 303.939,242.694 306.115,241.83 308.028,240.903 309.699,239.923 311.146,238.897 312.382,237.834 313.419,236.74 314.269,235.62 314.937,234.48 315.429,233.325 315.75,232.16 315.903,230.988 315.903,230.988 315.75,232.16 315.429,233.325 314.937,234.48 314.269,235.62 313.419,236.74 312.382,237.834 311.146,238.897 309.699,239.923 308.028,240.903 306.115,241.83 303.939,242.694 301.477,243.486 298.696,244.192 295.564,244.801 292.036,245.297 288.062,245.664 283.58,245.883 278.514,245.935 272.777,245.8 266.257,245.456 258.824,244.883 250.316,244.063 240.54,242.985 229.261,241.645 216.197,240.055 201.008,238.249 183.292,236.296 162.576,234.313 138.306,232.483 109.85,231.08 76.5,230.5 109.85,229.92 138.306,228.517 162.576,226.687 183.292,224.704 201.008,222.751 216.197,220.945 229.261,219.355 240.54,218.015 250.316,216.937 258.824,216.117 266.257,215.544 272.777,215.2 278.514,215.065 283.58,215.117 288.062,215.336 292.036,215.703 295.564,216.199 298.696,216.808 301.477,217.514 303.939,218.306 306.115,219.17 308.028,220.097 309.699,221.077 311.146,222.103 312.382,223.166 313.419,224.26 314.269,225.38 314.937,226.52 315.429,227.675 315.75,228.84 315.903,230.012 315.903,230.012 315.75,228.84 315.429,227.675 314.937,226.52 314.269,225.38 313.419,224.26 312.382,223.166 311.146,222.103 309.699,221.077 308.028,220.097 306.115,219.17 303.939,218.306 301.477,217.514 298.696,216.808 295.564,216.199 292.036,215.703 288.062,215.336 283.58,215.117 278.514,215.065 272.777,215.2 266.257,215.544 258.824,216.117 250.316,216.937 240.54,218.015 229.261,219.355 216.197,220.945 201.008,222.751 183.292,224.704 162.576,226.687 138.306,228.517 109.85,229.92 76.5,230.5"/>
<polyline fill="none" stroke="#87ceff" stroke-width="0.5" stroke-dasharray="1,1,1,1,1,1,1,1,1,1" points="120.331,332.113 142.622,320.506 162.861,310.925 181.131,302.98 197.55,296.348 212.257,290.76 225.401,286 237.13,281.892 247.587,278.295 256.905,275.101 265.209,272.219 272.611,269.581 279.21,267.133 285.097,264.834 290.35,262.649 295.037,260.555 299.22,258.531 302.95,256.563 306.273,254.639 309.229,252.749 311.85,250.887 314.167,249.047 316.204,247.225 317.983,245.417 319.522,243.622 320.837,241.836 321.94,240.058 322.841,238.285 323.55,236.518 324.072,234.753 324.413,232.992 324.575,231.232 324.575,231.232 324.413,232.992 324.072,234.753 323.55,236.518 322.841,238.285 321.94,240.058 320.837,241.836 319.522,243.622 317.983,245.417 316.204,247.225 314.167,249.047 311.85,250.887 309.229,252.749 306.273,254.639 302.95,256.563 299.22,258.531 295.037,260.555 290.35,262.649 285.097,264.834 279.21,267.133 272.611,269.581 265.209,272.219 256.905,275.101 247.587,278.295 237.13,281.892 225.401,286 212.257,290.76 197.55,296.348 181.131,302.98 162.861,310.925 142.622,320.506 120.331,332.113"/>
<polyline fill="none" stroke="#87ceff" stroke-width="0.5" stroke-dasharray="1,1,1,1,1,1,1,1,1,1" points="120.331,128.887 142.622,140.494 162.861,150.075 181.131,158.02 197.55,164.652 212.257,170.24 225.401,175 237.13,179.108 247.587,182.705 256.905,185.899 265.209,188.781 272.611,191.419 279.21,193.867 285.097,196.166 290.35,198.351 295.037,200.445 299.22,202.469 302.95,204.437 306.273,206.361 309.229,208.251 311.85,210.113 314.167,211.953 316.204,213.775 317.983,215.583 319.522,217.378 320.837,219.164 321.94,220.942 322.841,222.715 323.55,224.482 324.072,226.247 324.413,228.008 324.575,229.768 324.575,229.768 324.413,228.008 324.072,226.247 323.55,224.482 322.841,222.715 321.94,220.942 320.837,219.164 319.522,217.378 317.983,215.583 316.204,213.775 314.167,211.953 311.85,210.113 309.229,208.251 306.273,206.361 302.95,204.437 299.22,202.469 295.037,200.445 290.35,198.351 285.097,196.166 279.21,193.867 272.611,191.419 265.209,188.781 256.905,185.899 247.587,182.705 237.13,179.108 225.401,175 212.257,170.24 197.55,164.652 181.131,158.02 162.861,150.075 142.622,140.494 120.331,128.887"/>
<polyline fill="none" stroke="#87ceff" stroke-width="0.5" stroke-dasharray="1,1,1,1,1,1,1,1,1,1" points="235.081,394.914 241.925,380.246 248.951,367.122 255.988,355.377 262.905,344.858 269.608,335.421 276.029,326.933 282.125,319.275 287.868,312.343 293.246,306.04 298.255,300.283 302.901,295 307.193,290.128 311.146,285.611 314.773,281.401 318.092,277.458 321.12,273.744 323.875,270.229 326.371,266.886 328.625,263.692 330.651,260.627 332.462,257.673 334.071,254.815 335.488,252.038 336.723,249.331 337.784,246.683 338.679,244.083 339.414,241.524 339.993,238.996 340.421,236.493 340.701,234.006 340.834,231.529 340.834,231.529 340.701,234.006 340.421,236.493 339.993,238.996 339.414,241.524 338.679,244.083 337.784,246.683 336.723,249.331 335.488,252.038 334.071,254.815 332.462,257.673 330.651,260.627 328.625,263.692 326.371,266.886 323.875,270.229 321.12,273.744 318.092,277.458 314.773,281.401 311.146,285.611 307.193,290.128 302.901,295 298.255,300.283 293.246,306.04 287.868,312.343 282.125,319.275 276.029,326.933 269.608,335.421 262.905,344.858 255.988,355.377 248.951,367.122 241.925,380.246 235.081,394.914"/>
<polyline fill="none" stroke="#87ceff" stroke-width="0.5" stroke-dasharray="1,1,1,1,1,1,1,1,1,1" points="235.081,66.0859 241.925,80.7539 248.951,93.8784 255.988,105.623 262.905,116.142 269.608,125.579 276.029,134.067 282.125,141.725 287.868,148.657 293.246,154.96 298.255,160.717 302.901,166 307.193,170.872 311.146,175.389 314.773,179.599 318.092,183.542 321.12,187.256 323.875,190.771 326.371,194.114 328.625,197.308 330.651,200.373 332.462,203.327 334.071,206.185 335.488,208.962 336.723,211.669 337.784,214.317 338.679,216.917 339.414,219.476 339.993,222.004 340.421,224.507 340.701,226.994 340.834,229.471 340.834,229.471 340.701,226.994 340.421,224.507 339.993,222.004 339.414,219.476 338.679,216.917 337.784,214.317 336.723,211.669 335.488,208.962 334.071,206.185 332.462,203.327 330.651,200.373 328.625,197.308 326.371,194.114 323.875,190.771 321.12,187.256 318.092,183.542 314.773,179.599 311.146,175.389 307.193,170.872 302.901,166 298.255,160.717 293.246,154.96 287.868,148.657 282.125,141.725 276.029,134.067 269.608,125.579 262.905,116.142 255.988,105.623 248.951,93.8784 241.925,80.7539 235.081,66.0859"/>
<polyline fill="none" stroke="#87ceff" stroke-width="0.5" stroke-dasharray="1,1,1,1,1,1,1,1,1,1" points="491.669,332.113 486.032,328.866 480.777,325.522 475.892,322.106 471.359,318.636 467.164,315.129 463.289,311.601 459.716,308.065 456.429,304.532 453.409,301.011 450.641,297.51 448.108,294.036 445.794,290.593 443.684,287.185 441.764,283.814 440.021,280.484 438.44,277.193 437.013,273.943 435.727,270.733 434.572,267.562 433.54,264.428 432.621,261.33 431.809,258.265 431.097,255.231 430.479,252.225 429.951,249.244 429.506,246.286 429.142,243.345 428.856,240.421 428.645,237.508 428.507,234.604 428.442,231.705 428.442,231.705 428.507,234.604 428.645,237.508 428.856,240.421 429.142,243.345 429.506,246.286 429.951,249.244 430.479,252.225 431.097,255.231 431.809,258.265 432.621,261.33 433.54,264.428 434.572,267.562 435.727,270.733 437.013,273.943 438.44,277.193 440.021,280.484 441.764,283.814 443.684,287.185 445.794,290.593 448.108,294.036 450.641,297.51 453.409,301.011 456.429,304.532 459.716,308.065 463.289,311.601 467.164,315.129 471.359,318.636 475.892,322.106 480.777,325.522 486.032,328.866 491.669,332.113"/>
<polyline fill="none" stroke="#87ceff" stroke-width="0.5" stroke-dasharray="1,1,1,1,1,1,1,1,1,1" points="491.669,128.887 486.032,132.134 480.777,135.478 475.892,138.894 471.359,142.364 467.164,145.871 463.289,149.399 459.716,152.935 456.429,156.468 453.409,159.989 450.641,163.49 448.108,166.964 445.794,170.407 443.684,173.815 441.764,177.186 440.021,180.516 438.44,183.807 437.013,187.057 435.727,190.267 434.572,193.438 433.54,196.572 432.621,199.67 431.809,202.735 431.097,205.769 430.479,208.775 429.951,211.756 429.506,214.714 429.142,217.655 428.856,220.579 428.645,223.492 428.507,226.396 428.442,229.295 428.442,229.295 428.507,226.396 428.645,223.492 428.856,220.579 429.142,217.655 429.506,214.714 429.951,211.756 430.479,208.775 431.097,205.769 431.809,202.735 432.621,199.67 433.54,196.572 434.572,193.438 435.727,190.267 437.013,187.057 438.44,183.807 440.021,180.516 441.764,177.186 443.684,173.815 445.794,170.407 448.108,166.964 450.641,163.49 453.409,159.989 456.429,156.468 459.716,152.935 463.289,149.399 467.164,145.871 471.359,142.364 475.892,138.894 480.777,135.478 486.032,132.134 491.669,128.887"/>
<polyline fill="none" stroke="#00ffff" stroke-width="0.5" stroke-dasharray="1,1,1,1,1,1,1,1,1,1" points="535.5,230.5 502.139,230.5 473.627,230.5 449.26,230.5 428.436,230.5 410.638,230.5 395.427,230.5 382.428,230.5 371.318,230.5 361.823,230.5 353.708,230.5 346.773,230.5 340.846,230.5 335.781,230.5 331.452,230.5 327.752,230.5 324.59,230.5 321.888,230.5 319.578,230.5 317.604,230.5 315.917,230.5 315.917,230.5 317.604,230.5 319.578,230.5 321.888,230.5 324.59,230.5 327.752,230.5 331.452,230.5 335.781,230.5 340.846,230.5 346.773,230.5 353.708,230.5 361.823,230.5 371.318,230.5 382.428,230.5 395.427,230.5 410.638,230.5 428.436,230.5 449.26,230.5 473.627,230.5 502.139,230.5 535.5,230.5 507.5,216.152 481.336,205.305 457.168,197.417 435.081,192.003 415.091,188.63 397.168,186.918 381.244,186.536 367.22,187.195 354.979,188.651 344.393,190.695 335.323,193.151 327.63,195.875 321.176,198.747 315.826,201.672 311.451,204.575 307.93,207.396 305.149,210.095 303.004,212.638 301.402,215.004 300.255,217.182 300.255,243.818 301.402,245.996 303.004,248.362 305.149,250.905 307.93,253.604 311.451,256.425 315.826,259.328 321.176,262.253 327.63,265.125 335.323,267.849 344.393,270.305 354.979,272.349 367.22,273.805 381.244,274.464 397.168,274.082 415.091,272.37 435.081,268.997 457.168,263.583 481.336,255.695 507.5,244.848 535.5,230.5 513.211,210.782 490.102,194.894 466.83,182.534 443.947,173.374 421.9,167.07 401.04,163.272 381.63,161.636 363.857,161.826 347.839,163.524 333.635,166.434 321.25,170.282 310.65,174.82 301.768,179.828 294.506,185.113 288.75,190.508 284.37,195.875 281.227,201.096 279.181,206.08 278.087,210.756 277.809,215.071 277.809,245.929 278.087,250.244 279.181,254.92 281.227,259.904 284.37,265.125 288.75,270.492 294.506,275.887 301.768,281.172 310.65,286.18 321.25,290.718 333.635,294.566 347.839,297.476 363.857,299.174 381.63,299.364 401.04,297.728 421.9,293.93 443.947,287.626 466.83,278.466 490.102,266.106 513.211,250.218 535.5,230.5 519.294,207.208 500.066,187.206 478.619,170.567 455.71,157.28 432.042,147.257 408.252,140.343 384.906,136.332 362.491,134.973 341.416,135.985 322.01,139.065 304.525,143.897 289.139,150.162 275.96,157.546 265.033,165.747 256.343,174.477 249.83,183.472 245.384,192.494 242.867,201.33 242.107,209.796 242.916,217.743 242.916,243.257 242.107,251.204 242.867,259.67 245.384,268.506 249.83,277.528 256.343,286.523 265.033,295.253 275.96,303.454 289.139,310.838 304.525,317.103 322.01,321.935 341.416,325.015 362.491,326.027 384.906,324.668 408.252,320.657 432.042,313.743 455.71,303.72 478.619,290.433 500.066,273.794 519.294,253.792 535.5,230.5 525.773,204.818 511.394,181.313 492.988,160.413 471.241,142.459 446.875,127.699 420.63,116.292 393.248,108.305 365.451,103.72 337.928,102.44 311.319,104.295 286.204,109.049 263.09,116.412 242.409,126.048 224.504,137.591 209.635,150.649 197.971,164.817 189.596,179.689 184.508,194.869 182.63,209.975 183.811,224.65 183.811,236.35 182.63,251.025 184.508,266.131 189.596,281.311 197.971,296.183 209.635,310.351 224.504,323.409 242.409,334.952 263.09,344.588 286.204,351.951 311.319,356.705 337.928,358.56 365.451,357.28 393.248,352.695 420.63,344.708 446.875,333.301 471.241,318.541 492.988,300.587 511.394,279.687 525.773,256.182 535.5,230.5 532.674,203.457 524.268,177.079 510.486,152.017 491.669,128.887 468.281,108.259 440.896,90.6411 410.191,76.4673 376.919,66.0859 341.902,59.7534 306,57.625 270.098,59.7534 235.081,66.0859 201.809,76.4673 171.104,90.6411 143.719,108.259 120.331,128.887 101.514,152.017 87.7324,177.079 79.3257,203.457 76.5,230.5 76.5,230.5 79.3257,257.543 87.7324,283.921 101.514,308.983 120.331,332.113 143.719,352.741 171.104,370.359 201.809,384.533 235.081,394.914 270.098,401.247 306,403.375 341.902,401.247 376.919,394.914 410.191,384.533 440.896,370.359 468.281,352.741 491.669,332.113 510.486,308.983 524.268,283.921 532.674,257.543 535.5,230.5"/>
<text fill="#00ffff" style="stroke:none" x="307" y="401" transform="rotate(0, 307, 401)" font-size="9" font-family="SansSerif" font-style="normal" font-weight="normal"> 0</text>
<text fill="#00ffff" style="stroke:none" x="312" y="355" transform="rotate(0, 312, 355)" font-size="9" font-family="SansSerif" font-style="normal" font-weight="normal"> 0.2</text>
<text fill="#00ffff" style="stroke:none" x="323" y="320" transform="rotate(0, 323, 320)" font-size="9" font-family="SansSerif" font-style="normal" font-weight="normal"> 0.4</text>
<text fill="#00ffff" style="stroke:none" x="335" y="293" transform="rotate(0, 335, 293)" font-size="9" font-family="SansSerif" font-style="normal" font-weight="normal"> 0.6</text>
<text fill="#00ffff" style="stroke:none" x="345" y="268" transform="rotate(0, 345, 268)" font-size="9" font-family="SansSerif" font-style="normal" font-weight="normal"> 0.8</text>
<text fill="#00ffff" style="stroke:none" x="355" y="228" transform="rotate(0, 355, 228)" font-size="9" font-family="SansSerif" font-style="normal" font-weight="normal"> 1</text>
<text fill="#87ceff" style="stroke:none" x="493" y="127" transform="rotate(0, 493, 127)" font-size="9" font-family="SansSerif" font-style="normal" font-weight="normal">0.2&#x03c0;/dt</text>
<text fill="#87ceff" style="stroke:none" x="493" y="330" transform="rotate(0, 493, 330)" font-size="9" font-family="SansSerif" font-style="normal" font-weight="normal">0.2&#x03c0;/dt</text>
<text fill="#87ceff" style="stroke:none" x="236" y="64" transform="rotate(0, 236, 64)" font-size="9" font-family="SansSerif" font-style="normal" font-weight="normal">0.6&#x03c0;/dt</text>
<text fill="#87ceff" style="stroke:none" x="236" y="393" transform="rotate(0, 236, 393)" font-size="9" font-family="SansSerif" font-style="normal" font-weight="normal">0.6&#x03c0;/dt</text>
<text fill="#87ceff" style="stroke:none" x="121" y="127" transform="rotate(0, 121, 127)" font-size="9" font-family="SansSerif" font-style="normal" font-weight="normal">0.8&#x03c0;/dt</text>
<text fill="#87ceff" style="stroke:none" x="121" y="330" transform="rotate(0, 121, 330)" font-size="9" font-family="SansSerif" font-style="normal" font-weight="normal">0.8&#x03c0;/dt</text>
<text fill="#87ceff" style="stroke:none" x="77" y="228" transform="rotate(0, 77, 228)" font-size="9" font-family="SansSerif" font-style="normal" font-weight="normal">1&#x03c0;/dt</text>
<text fill="#87ceff" style="stroke:none" x="77" y="229" transform="rotate(0, 77, 229)" font-size="9" font-family="SansSerif" font-style="normal" font-weight="normal">1&#x03c0;/dt</text>
<polyline fill="none" stroke="#000000" stroke-width="0.5" points="76.5,403.375 76.5,57.625"/>
<polyline fill="none" stroke="#000000" stroke-width="0.5" points="76.5,403.375 69.6152,403.375"/>
<polyline fill="none" stroke="#000000" stroke-width="0.5" points="76.5,368.8 69.6152,368.8"/>
<polyline fill="none" stroke="#000000" stroke-width="0.5" points="76.5,334.225 69.6152,334.225"/>
<polyline fill="none" stroke="#000000" stroke-width="0.5" points="76.5,299.65 69.6152,299.65"/>
<polyline fill="none" stroke="#000000" stroke-width="0.5" points="76.5,265.075 69.6152,265.075"/>
<polyline fill="none" stroke="#000000" stroke-width="0.5" points="76.5,230.5 69.6152,230.5"/>
<polyline fill="none" stroke="#000000" stroke-width="0.5" points="76.5,195.925 69.6152,195.925"/>
<polyline fill="none" stroke="#000000" stroke-width="0.5" points="76.5,161.35 69.6152,161.35"/>
<polyline fill="none" stroke="#000000" stroke-width="0.5" points="76.5,126.775 69.6152,126.775"/>
<polyline fill="none" stroke="#000000" stroke-width="0.5" points="76.5,92.2002 69.6152,92.2002"/>
<polyline fill="none" stroke="#000000" stroke-width="0.5" points="76.5,57.625 69.6152,57.625"/>
<polyline fill="none" stroke="#000000" stroke-width="0.5" points="76.5,386.087 72.3691,386.087"/>
<polyline fill="none" stroke="#000000" stroke-width="0.5" points="76.5,351.513 72.3691,351.513"/>
<polyline fill="none" stroke="#000000" stroke-width="0.5" points="76.5,316.938 72.3691,316.938"/>
<polyline fill="none" stroke="#000000" stroke-width="0.5" points="76.5,282.362 72.3691,282.362"/>
<polyline fill="none" stroke="#000000" stroke-width="0.5" points="76.5,247.788 72.3691,247.788"/>
<polyline fill="none" stroke="#000000" stroke-width="0.5" points="76.5,213.212 72.3691,213.212"/>
<polyline fill="none" stroke="#000000" stroke-width="0.5" points="76.5,178.638 72.3691,178.638"/>
<polyline fill="none" stroke="#000000" stroke-width="0.5" points="76.5,144.062 72.3691,144.062"/>
<polyline fill="none" stroke="#000000" stroke-width="0.5" points="76.5,109.487 72.3691,109.487"/>
<polyline fill="none" stroke="#000000" stroke-width="0.5" points="76.5,74.9126 72.3691,74.9126"/>
<text fill="#000000" style="stroke:none" x="48" y="408" transform="rotate(-0, 48, 408)" font-size="9" font-family="SansSerif" font-style="normal" font-weight="normal">-1.0</text>
<text fill="#000000" style="stroke:none" x="48" y="373" transform="rotate(-0, 48, 373)" font-size="9" font-family="SansSerif" font-style="normal" font-weight="normal">-0.8</text>
<text fill="#000000" style="stroke:none" x="48" y="339" transform="rotate(-0, 48, 339)" font-size="9" font-family="SansSerif" font-style="normal" font-weight="normal">-0.6</text>
<text fill="#000000" style="stroke:none" x="48" y="304" transform="rotate(-0, 48, 304)" font-size="9" font-family="SansSerif" font-style="normal" font-weight="normal">-0.4</text>
<text fill="#000000" style="stroke:none" x="48" y="270" transform="rotate(-0, 48, 270)" font-size="9" font-family="SansSerif" font-style="normal" font-weight="normal">-0.2</text>
<text fill="#000000" style="stroke:none" x="53" y="235" transform="rotate(-0, 53, 235)" font-size="9" font-family="SansSerif" font-style="normal" font-weight="normal">0.0</text>
<text fill="#000000" style="stroke:none" x="53" y="200" transform="rotate(-0, 53, 200)" font-size="9" font-family="SansSerif" font-style="normal" font-weight="normal">0.2</text>
<text fill="#000000" style="stroke:none" x="53" y="166" transform="rotate(-0, 53, 166)" font-size="9" font-family="SansSerif" font-style="normal" font-weight="normal">0.4</text>
<text fill="#000000" style="stroke:none" x="53" y="131" transform="rotate(-0, 53, 131)" font-size="9" font-family="SansSerif" font-style="normal" font-weight="normal">0.6</text>
<text fill="#000000" style="stroke:none" x="53" y="97" transform="rotate(-0, 53, 97)" font-size="9" font-family="SansSerif" font-style="normal" font-weight="normal">0.8</text>
<text fill="#000000" style="stroke:none" x="53" y="62" transform="rotate(-0, 53, 62)" font-size="9" font-family="SansSerif" font-style="normal" font-weight="normal">1.0</text>
<polyline fill="none" stroke="#000000" stroke-width="0.5" points="76.5,403.375 535.5,403.375"/>
<polyline fill="none" stroke="#000000" stroke-width="0.5" points="76.5,403.375 76.5,408.55"/>
<polyline fill="none" stroke="#000000" stroke-width="0.5" points="122.4,403.375 122.4,408.55"/>
<polyline fill="none" stroke="#000000" stroke-width="0.5" points="168.3,403.375 168.3,408.55"/>
<polyline fill="none" stroke="#000000" stroke-width="0.5" points="214.2,403.375 214.2,408.55"/>
<polyline fill="none" stroke="#000000" stroke-width="0.5" points="260.1,403.375 260.1,408.55"/>
<polyline fill="none" stroke="#000000" stroke-width="0.5" points="306,403.375 306,408.55"/>
<polyline fill="none" stroke="#000000" stroke-width="0.5" points="351.9,403.375 351.9,408.55"/>
<polyline fill="none" stroke="#000000" stroke-width="0.5" points="397.8,403.375 397.8,408.55"/>
<polyline fill="none" stroke="#000000" stroke-width="0.5" points="443.7,403.375 443.7,408.55"/>
<polyline fill="none" stroke="#000000" stroke-width="0.5" points="489.6,403.375 489.6,408.55"/>
<polyline fill="none" stroke="#000000" stroke-width="0.5" points="535.5,403.375 535.5,408.55"/>
<polyline fill="none" stroke="#000000" stroke-width="0.5" points="99.4502,403.375 99.4502,406.48"/>
<polyline fill="none" stroke="#000000" stroke-width="0.5" points="145.35,403.375 145.35,406.48"/>
<polyline fill="none" stroke="#000000" stroke-width="0.5" points="191.25,403.375 191.25,406.48"/>
<polyline fill="none" stroke="#000000" stroke-width="0.5" points="237.15,403.375 237.15,406.48"/>
<polyline fill="none" stroke="#000000" stroke-width="0.5" points="283.05,403.375 283.05,406.48"/>
<polyline fill="none" stroke="#000000" stroke-width="0.5" points="328.95,403.375 328.95,406.48"/>
<polyline fill="none" stroke="#000000" stroke-width="0.5" points="374.85,403.375 374.85,406.48"/>
<polyline fill="none" stroke="#000000" stroke-width="0.5" points="420.75,403.375 420.75,406.48"/>
<polyline fill="none" stroke="#000000" stroke-width="0.5" points="466.65,403.375 466.65,406.48"/>
<polyline fill="none" stroke="#000000" stroke-width="0.5" points="512.55,403.375 512.55,406.48"/>
<text fill="#000000" style="stroke:none" x="67" y="419" transform="rotate(-0, 67, 419)" font-size="9" font-family="SansSerif" font-style="normal" font-weight="normal">-1.0</text>
<text fill="#000000" style="stroke:none" x="113" y="419" transform="rotate(-0, 113, 419)" font-size="9" font-family="SansSerif" font-style="normal" font-weight="normal">-0.8</text>
<text fill="#000000" style="stroke:none" x="158" y="419" transform="rotate(-0, 158, 419)" font-size="9" font-family="SansSerif" font-style="normal" font-weight="normal">-0.6</text>
<text fill="#000000" style="stroke:none" x="204" y="419" transform="rotate(-0, 204, 419)" font-size="9" font-family="SansSerif" font-style="normal" font-weight="normal">-0.4</text>
<text fill="#000000" style="stroke:none" x="250" y="419" transform="rotate(-0, 250, 419)" font-size="9" font-family="SansSerif" font-style="normal" font-weight="normal">-0.2</text>
<text fill="#000000" style="stroke:none" x="298" y="419" transform="rotate(-0, 298, 419)" font-size="9" font-family="SansSerif" font-style="normal" font-weight="normal">0.0</text>
<text fill="#000000" style="stroke:none" x="345" y="419" transform="rotate(-0, 345, 419)" font-size="9" font-family="SansSerif" font-style="normal" font-weight="normal">0.2</text>
<text fill="#000000" style="stroke:none" x="391" y="419" transform="rotate(-0, 391, 419)" font-size="9" font-family="SansSerif" font-style="normal" font-weight="normal">0.4</text>
<text fill="#000000" style="stroke:none" x="437" y="419" transform="rotate(-0, 437, 419)" font-size="9" font-family="SansSerif" font-style="normal" font-weight="normal">0.6</text>
<text fill="#000000" style="stroke:none" x="482" y="419" transform="rotate(-0, 482, 419)" font-size="9" font-family="SansSerif" font-style="normal" font-weight="normal">0.8</text>
<text fill="#000000" style="stroke:none" x="528" y="419" transform="rotate(-0, 528, 419)" font-size="9" font-family="SansSerif" font-style="normal" font-weight="normal">1.0</text>
<text fill="#000000" style="stroke:none" x="148" y="27" transform="rotate(0, 148, 27)" font-size="10" font-family="SansSerif" font-style="normal" font-weight="normal">loci with constant damping and constant natural frequency</text>
<text fill="#000000" style="stroke:none" x="148" y="42" transform="rotate(0, 148, 42)" font-size="10" font-family="SansSerif" font-style="normal" font-weight="normal">in discrete plane</text>
<text fill="#000000" style="stroke:none" x="282" y="432" transform="rotate(0, 282, 432)" font-size="10" font-family="SansSerif" font-style="normal" font-weight="normal">Real Axis</text>
<text fill="#000000" style="stroke:none" x="40" y="270" transform="rotate(270, 40, 270)" font-size="10" font-family="SansSerif" font-style="normal" font-weight="normal">Imaginary Axis</text>
</g>
</svg>
