/* XPM */
static char * scilab_gw_xpm[] = {
"83 59 257 2",
"  	c None",
". 	c #020202",
"+ 	c #424656",
"@ 	c #6A6A7E",
"# 	c #727AB2",
"$ 	c #7E7E92",
"% 	c #AAAABE",
"& 	c #D2D6E2",
"* 	c #E1EAF6",
"= 	c #263278",
"- 	c #E9F2F8",
"; 	c #2A2A32",
"> 	c #3646A2",
", 	c #161E47",
"' 	c #EEF6FE",
") 	c #3E52C2",
"! 	c #6C6E86",
"~ 	c #8286AE",
"{ 	c #B6B6D2",
"] 	c #161A1E",
"^ 	c #EEFAFE",
"/ 	c #767696",
"( 	c #4E62EA",
"_ 	c #0E122C",
": 	c #A2A2B6",
"< 	c #D6DEEE",
"[ 	c #BAC2D6",
"} 	c #F6FAFA",
"| 	c #627EFE",
"1 	c #6672B6",
"2 	c #0A0E23",
"3 	c #FAFAFE",
"4 	c #465AD2",
"5 	c #5A76FE",
"6 	c #9696B2",
"7 	c #2A3682",
"8 	c #60627A",
"9 	c #CAD2E2",
"0 	c #6A7AD2",
"a 	c #D6E6FE",
"b 	c #9EAAFA",
"c 	c #5E6ACA",
"d 	c #0A0A1B",
"e 	c #FAFEFE",
"f 	c #2A2E4A",
"g 	c #A6A6BA",
"h 	c #3E3E4E",
"i 	c #868ECE",
"j 	c #BAC2FA",
"k 	c #EAEEF6",
"l 	c #B6BADA",
"m 	c #566EFE",
"n 	c #3A4AAE",
"o 	c #8E9EFA",
"p 	c #060612",
"q 	c #9296AA",
"r 	c #2E3A8B",
"s 	c #7A8EFA",
"t 	c #5E7AFE",
"u 	c #323652",
"v 	c #C6CADA",
"w 	c #526AFA",
"x 	c #828AEA",
"y 	c #464A6A",
"z 	c #D2D6FB",
"A 	c #4A5EDE",
"B 	c #EEF2F6",
"C 	c #1E265C",
"D 	c #DEDEEE",
"E 	c #323E9A",
"F 	c #BABEDE",
"G 	c #E2E6F2",
"H 	c #4E62EE",
"I 	c #22222E",
"J 	c #3A4276",
"K 	c #3E4672",
"L 	c #8E96DA",
"M 	c #FEFEFE",
"N 	c #727EE6",
"O 	c #E6EAF2",
"P 	c #4252C6",
"Q 	c #EEEEF6",
"R 	c #6A7ADE",
"S 	c #1E2A62",
"T 	c #F2F2F6",
"U 	c #131A3C",
"V 	c #969AAE",
"W 	c #3A4AB3",
"X 	c #DADAEC",
"Y 	c #627AFE",
"Z 	c #B6BAE6",
"` 	c #8286AA",
" .	c #565672",
"..	c #7E8EFA",
"+.	c #5A72FE",
"@.	c #E6E6F2",
"#.	c #3E52BE",
"$.	c #DEE2EE",
"%.	c #8E9AEE",
"&.	c #F2F6FB",
"*.	c #6E7EEA",
"=.	c #BAC2E2",
"-.	c #B2BEFA",
";.	c #4256CA",
">.	c #222A6A",
",.	c #CACEDA",
"'.	c #0A0A0E",
").	c #363A46",
"!.	c #EAEAF2",
"~.	c #1A2254",
"{.	c #BEC6FA",
"].	c #9AA6E2",
"^.	c #F6FEFE",
"/.	c #D6DAEA",
"(.	c #4E66F2",
"_.	c #5E6696",
":.	c #3E4EBE",
"<.	c #7286FC",
"[.	c #06060E",
"}.	c #AAAEC2",
"|.	c #96A2FA",
"1.	c #CAD2FA",
"2.	c #D3D6F5",
"3.	c #3A3E66",
"4.	c #E2E2EE",
"5.	c #BAC2EE",
"6.	c #4A62E6",
"7.	c #F2F2FA",
"8.	c #0E162E",
"9.	c #D8DEFC",
"0.	c #3A4EB6",
"a.	c #EAEAF6",
"b.	c #02020A",
"c.	c #5E76FE",
"d.	c #F6F6FA",
"e.	c #C2CAE6",
"f.	c #2E3E91",
"g.	c #F2FEFE",
"h.	c #ADB6FA",
"i.	c #4656CA",
"j.	c #C5CAFA",
"k.	c #5266F6",
"l.	c #4E4E76",
"m.	c #3E468A",
"n.	c #060A16",
"o.	c #32429C",
"p.	c #CACAE2",
"q.	c #8A8A9F",
"r.	c #C6C6DA",
"s.	c #6F82FB",
"t.	c #BEBED2",
"u.	c #D6DAFA",
"v.	c #E2E6FA",
"w.	c #E6E6FE",
"x.	c #4E4E62",
"y.	c #C6CAE6",
"z.	c #C6C6D6",
"A.	c #36364A",
"B.	c #566AFE",
"C.	c #3646A6",
"D.	c #E6EAFE",
"E.	c #0E1226",
"F.	c #EEF2FE",
"G.	c #2A327C",
"H.	c #D6D6ED",
"I.	c #32323E",
"J.	c #8A8EAE",
"K.	c #0A0E1E",
"L.	c #1A224E",
"M.	c #D8E2F4",
"N.	c #465AD6",
"O.	c #262E5A",
"P.	c #4A5EE6",
"Q.	c #5262DA",
"R.	c #EAEEFE",
"S.	c #EEEEFE",
"T.	c #1A1E4C",
"U.	c #8692FA",
"V.	c #BABEF2",
"W.	c #B2B2C7",
"X.	c #161E42",
"Y.	c #D2D2E4",
"Z.	c #36429F",
"`.	c #222E6E",
" +	c #CACEE5",
".+	c #5A5E86",
"++	c #3646AA",
"@+	c #2E3A86",
"#+	c #8C8EA2",
"$+	c #2A367E",
"%+	c #DEE6F6",
"&+	c #424EAA",
"*+	c #323E94",
"=+	c #CED6E6",
"-+	c #BEC2E6",
";+	c #9FAEF9",
">+	c #02060A",
",+	c #161A42",
"'+	c #8696FA",
")+	c #4E4E6E",
"!+	c #F6FAFE",
"~+	c #CED2E6",
"{+	c #66668A",
"]+	c #424EB6",
"^+	c #DEE2F2",
"/+	c #8092FA",
"(+	c #C6CEE6",
"_+	c #465ADA",
":+	c #020206",
"<+	c #F6F6FE",
"[+	c #222A65",
"}+	c #4256CE",
"|+	c #1E2656",
"1+	c #C2C6E4",
"2+	c #4A5EE2",
"3+	c #526AFE",
"4+	c #96A6FA",
"5+	c #AEBAFA",
"6+	c #5266FA",
"7+	c #262E71",
"8+	c #3A46AE",
"9+	c #BECAFA",
"0+	c #E6E6FA",
"a+	c #EAEAFE",
"b+	c #6E6E82",
"c+	c #969AAA",
"d+	c #262636",
"e+	c #D6DAEF",
"f+	c #768AFA",
"g+	c #121633",
"h+	c #4656D2",
"i+	c #E2E2F2",
"j+	c #C2CAEE",
"k+	c #CACEEA",
"l+	c #CED2EA",
"m+	c #DEDEF2",
"n+	c #E2E6F6",
"o+	c #D2D6EE",
"p+	c #E6EAF6",
"q+	c #4252CA",
"r+	c #868AA6",
"s+	c #B2B2CE",
"t+	c #F2FAFE",
"u+	c #DADEEF",
"v+	c #0E0E26",
"w+	c #667AFE",
"x+	c #3E4EB7",
"y+	c #6276FE",
"z+	c #D2D6EA",
"A+	c #9AA6F8",
"B+	c #4E66F6",
"C+	c #7682E6",
"D+	c #5A5A6A",
"E+	c #BEC6F2",
"F+	c #525262",
"G+	c #8A9AFA",
"H+	c #0A0A16",
"                                                                                                                                                                      ",
"                                                                                                                                                                      ",
"                                                                                                                                                                      ",
"                                                                                                                                                                      ",
"                                                                                                                                                                      ",
"                                                                                                                                                                      ",
"                                                                                                                                                                      ",
"                                                                                                                                                                      ",
"                                                                                                                                                                      ",
"                                                                                                                                                                      ",
"                                                                                                                                                                      ",
"                                                                                                                                                                      ",
"                                                                                                                                                                      ",
"                                                                                                                                                                      ",
"                                                                                                                  j.j.                                                ",
"                                                                                                          9+b s t t c.+.s.A+                                          ",
"                                                                                                      5+s Y Y Y Y t c.5 m ( R                                         ",
"                                                                                                  j s Y Y Y Y +.B+( w m 3+N.8+i                                       ",
"                                                                                                o Y Y Y t (.o.T._ L.r }+2+x+= m.                                      ",
"                                                                                            {.s.t Y t 6+f.8.. . p C Z.}+q+r , O.                                      ",
"                                                                            j.-.h.h.h.-.j b t t t +.:.T.. . . )+1 }+P.( W ~.2 l.                                      ",
"                                                                    h.G+<.t t t t c.c.c.t Y Y t m x+X.. . x.s+V.w+B.m 2+G.E.n.J.                                      ",
"                                                              j.o | Y Y Y Y t t t t t t t Y t m A E ~.U ~     /++.+.B.C.U p f [                                       ",
"                                                            A+Y Y Y Y c.3+N.W f.@+Z.}+B+B.3+H _+}+#.++W x -./+c.5 +.:., >+>+r+                                        ",
"                                                          ..t Y Y m P `._ :+. . . g+= x+4 q+++o.++}+2+6.3+t Y t +.:., . . !                                           ",
"                                                        <.c.t c.A G.g+p :+. ] ).y `.> h+h+Z.C U C o.2+6+m t Y m 8+g+. . @                                             ",
"                                                      U.+.5 +.2+f.S [+r ]+0 ].j+E+Q._+H N.r T.T.= Z.}+6.k.B.( f.E.. . $                                               ",
"                                                    j k.3+m (.}+x+;.6++.+.+.m s.o w 2+H N.n C.( m 6+H 2+_+}+*+g+. '.V                                                 ",
"                                                    %.A (.k.A _+2+w +.c.c.5 m w +.m }+q+;.h+6.+.t +.6+A h+:.= v+H+W.                                                  ",
"                                                    C+_+H P.N.h+}+) x+:._+w 3+2+}+h+r 7+7 ++}+6.( _+}+}+}+W [+g+.+                                                    ",
"          y.        e.                            {.3+k.k.A h+P E |+g+L.r ) _+x+= C ,+K.d _ U , C G.C.) ) *+, _ `                                       e.1+          ",
"                    y.                          -.t 5 +.k.4 }+P Z.`.7+C.:.N.}+f.X.g+{+u n.n.2 ,+= W }+}+C.C d d {                                                     ",
"                    y.                        ;+c.t c.3+W *+> :.P P (.c.m 6+;.$+, J -+5.L c _+6+m m 6+:.C n.. 8                                                       ",
"                    y.                      4+c.c.c.H G._ 2 ,+= #.( m t 5 6+}+o.f.h+s f+| Y Y Y t m #.~.b.. A.                                                        ",
"                    y.                    4+5 c.5 2+[+>+. . n.,+@+h+k.3+(._+;.q+_+m c.t Y Y t +._+$+E.. . h r.                                                        ",
"          y.        y.                  ;++.+.5 2+>.[.. + 6 _.= o.q+N.;.W E f.C.}+k.m 3+( q+*+~.d . . . b+                                                            ",
"                    y.                  y+m +.(.7 2 .  .    |.B+(.( ) @+, K.n.K._ g+g+2 p . . . . :+D+W.                                                              ",
"                    y.                ;+B+B.3+0.T.2 3.Z {.'+t c.+.2+= 2 . . . . . . . . . . I F+#+z.                                                                  ",
"                    (+                *.6.w ( Z.S = N ..Y Y Y c.A >.p . . @ c+q q.q.q.q % v                                                                           ",
"                    e.                i.;.P._+:.W ( t Y Y t B.Z.g+. . I %                                                                                             ",
"          e.        e.                &+E n ) N.( +.t c.w ++, . . . 8 v                                                                                               ",
"          e.1+                        # S ~.[+@+C.x+++7+_ . . . h g                                                                                                   ",
"          =.l                           K K.b.:+:+. . . . . ; #+                                              1+                                                      ",
"                                          / d+. . . . I.b+: t.                                                                                                        ",
"                                              t.}.W.                                                                                                                  ",
"                                                                                                                                                                      ",
"                                                                                                                                                                      ",
"                                y.                                                                                                                                    ",
"                                y.                                                                                                                                    ",
"                                                                                                                                                                      ",
"                                                                                                                                                                      ",
"                                                            1+                                                                                                        ",
"                                                                                                                                                                      ",
"                                                    1+              F                                                                                                 ",
"                                                                                                                                                                      ",
"                                                                                                                                                                      ",
"                                                                                                                                                                      ",
"                                                                                                                                                                      ",
"                                                                                                                                                                      "};
