<?xml version="1.0" encoding="UTF-8" standalone="no"?>
<svg xmlns="http://www.w3.org/2000/svg"
     xmlns:xlink="http://www.w3.org/1999/xlink"
     width="612px" height="458px" viewBox="0 0 612 458"
     style="stroke:none">
<title>Figure n°0</title>
<desc>
Creator: GL2PS 1.3.2, (C) 1999-2006 Christophe Geuzaine (geuz@geuz.org)
For: Scilab
CreationDate: Thu Aug 11 10:54:57 2011
</desc>
<defs>
</defs>
<polygon fill="#ffffff" points="0,0 612,0 612,458 0,458"/>
<g>
<polygon fill="#ffffff" points="76.5,400.75 76.5,57.25 76.5,57.25"/>
<polygon fill="#ffffff" points="76.5,400.75 76.5,57.25 76.5,400.75"/>
<polygon fill="#ffffff" points="76.5,400.75 535.5,400.75 535.5,400.75"/>
<polygon fill="#ffffff" points="76.5,400.75 535.5,400.75 76.5,400.75"/>
<polygon fill="#ffffff" points="76.5,400.75 535.5,400.75 535.5,57.25"/>
<polygon fill="#ffffff" points="76.5,400.75 535.5,57.25 76.5,57.25"/>
<polyline fill="none" stroke="#000000" stroke-width="0.5" points="76.5,400.75 76.5,57.25 76.5,57.25 535.5,57.25 535.5,400.75 535.5,400.75 76.5,400.75"/>
<polyline fill="none" stroke="#000000" stroke-width="0.5" points="535.5,57.25 76.5,57.25"/>
<polyline fill="none" stroke="#000000" stroke-width="0.5" points="535.5,57.25 535.5,400.75"/>
<polyline fill="none" stroke="#000000" stroke-width="0.5" points="535.5,57.25 535.5,57.25"/>
<polyline fill="none" stroke="#0000ff" stroke-width="0.5" points="76.5,88.4771 76.5,88.4771 76.5,88.4771 76.5,88.4771 76.5,88.4771 76.5,88.4771 76.5,88.4771 76.5,88.4771 76.5,88.4771 76.5,88.4771 76.5,88.4771 76.5,88.4771 76.5,88.4771 76.5,88.4771 76.5,88.4771 76.5,88.4771 76.5,88.4771 76.5,88.4771 76.5,88.4771 76.5,88.4771 76.5,88.4771 76.5,88.4771 76.5,88.4771 76.5,88.4771 76.5,88.4771 76.5,88.4771 76.5,88.4771 76.5,88.4771 76.5,88.4771 76.5,88.4771 76.5,88.4771 76.5005,88.4771 76.5005,88.4771 76.501,88.4771 76.5024,88.4771 76.5044,88.4771 76.5088,88.4771 76.5176,88.4775 76.5356,88.4775 76.5713,88.4775 76.6426,88.479 76.7847,88.4834 77.0698,88.502 77.6392,88.5767 78.7788,88.873 79.918,89.3618 81.0571,90.0352 82.1968,90.8823 83.3359,91.8901 84.4751,93.043 85.6147,94.3237 86.7539,95.7144 87.8936,97.1953 89.0327,98.7471 90.1719,100.349 91.3115,101.982 92.4507,103.626 93.5898,105.264 94.7295,106.876 95.8687,108.447 97.0078,109.961 98.1475,111.404 99.2866,112.763 100.426,114.025 101.565,115.182 102.705,116.222 103.844,117.138 104.983,117.923 106.123,118.571 107.262,119.077 108.401,119.436 109.541,119.646 110.68,119.704 111.819,119.609 112.958,119.362 114.098,118.962 115.237,118.413 116.376,117.716 117.516,116.875 118.655,115.897 119.794,114.787 120.934,113.554 122.073,112.206 123.213,110.756 124.352,109.215 125.491,107.599 126.631,105.924 127.77,104.207 128.909,102.469 130.049,100.731 131.188,99.0166 132.327,97.3496 133.467,95.7549 134.606,94.2583 135.745,92.8853 136.885,91.6602 138.024,90.6064 139.164,89.7456 140.303,89.0957 141.442,88.6724 142.582,88.4858 143.721,88.5435 144.86,88.8467 146,89.3921 147.139,90.1719 148.278,91.1733 149.417,92.3789 150.557,93.7681 151.696,95.3164 152.835,96.9971 153.975,98.7822 155.114,100.643 156.253,102.547 157.393,104.468 158.532,106.374 159.671,108.239 160.811,110.036 161.95,111.739 163.089,113.327 164.229,114.776 165.368,116.07 166.507,117.189 167.646,118.118 168.786,118.844 169.925,119.355 171.064,119.642 172.204,119.696 173.343,119.511 174.482,119.083 175.622,118.413 176.761,117.5 177.901,116.35 179.04,114.97 180.179,113.372 181.319,111.573 182.458,109.596 183.597,107.467 184.737,105.223 185.876,102.903 187.015,100.559 187.585,99.3936 188.155,98.2441 188.724,97.1177 189.294,96.0229 189.864,94.9678 190.433,93.9619 191.003,93.0142 191.573,92.1328 192.142,91.3271 192.712,90.6064 193.282,89.978 193.852,89.4502 194.421,89.0303 194.991,88.7246 195.561,88.5386 196.13,88.4775 196.7,88.5439 197.27,88.7407 197.839,89.0684 198.409,89.5269 198.979,90.1138 199.548,90.8262 200.118,91.6592 200.688,92.606 201.257,93.6602 201.827,94.8125 202.396,96.0532 202.966,97.3716 203.536,98.7559 204.105,100.193 204.675,101.672 205.245,103.177 205.814,104.696 206.384,106.214 206.954,107.717 207.523,109.191 208.093,110.623 208.663,111.997 209.232,113.3 210.372,115.641 211.511,117.54 212.65,118.896 213.79,119.614 214.929,119.603 216.068,118.781 216.638,118.045 217.208,117.082 217.777,115.889 218.347,114.462 218.917,112.804 219.486,110.921 220.056,108.827 220.625,106.542 221.195,104.098 221.48,102.829 221.765,101.539 222.05,100.235 222.334,98.9272 222.62,97.626 222.904,96.3442 223.189,95.0957 223.474,93.896 223.759,92.7622 224.043,91.7139 224.329,90.771 224.613,89.9575 224.898,89.2964 225.183,88.8135 225.468,88.5352 225.752,88.4897 226.038,88.7036 226.322,89.2046 226.607,90.019 226.892,91.1709 227.177,92.6826 227.461,94.5728 227.747,96.8555 228.031,99.5405 228.316,102.633 228.601,106.13 228.886,110.025 229.171,114.304 229.456,118.947 229.74,123.931 230.025,129.226 230.31,134.798 230.595,140.612 230.88,146.63 231.165,152.814 231.449,159.125 231.734,165.526 232.019,171.979 232.304,178.453 232.589,184.915 232.874,191.338 233.158,197.696 233.443,203.967 233.728,210.133 234.013,216.179 234.298,222.09 234.583,227.856 234.867,233.471 235.152,238.927 235.437,244.221 235.722,249.35 236.007,254.314 236.292,259.113 236.576,263.748 236.861,268.221 237.146,272.535 237.716,280.7 238.285,288.275 238.855,295.295 239.425,301.797 239.994,307.819 240.564,313.396 241.134,318.564 241.703,323.354 242.273,327.799 242.843,331.925 243.982,339.326 245.122,345.741 246.261,351.322 247.4,356.198 248.54,360.475 249.679,364.24 250.818,367.566 251.958,370.515 253.097,373.138 255.375,377.573 257.654,381.144 259.933,384.049 262.211,386.435 264.49,388.409 269.047,391.44 273.604,393.603 278.162,395.181 282.719,396.354 291.834,397.92 300.949,398.861 319.178,399.834 337.407,400.267 373.866,400.589 446.783,400.722 535.5,400.744"/>
<polyline fill="none" stroke="#ffff00" stroke-width="0.5" points="76.5,88.4771 76.5,88.4771 76.5,88.4771 76.5,88.4771 76.5,88.4771 76.5,88.4771 76.5,88.4771 76.5,88.4771 76.5,88.4771 76.5,88.4771 76.5,88.4771 76.5,88.4771 76.5,88.4771 76.5,88.4771 76.5,88.4771 76.5,88.4771 76.5,88.4771 76.5,88.4771 76.5,88.4771 76.5,88.4771 76.5,88.4771 76.5,88.4771 76.5,88.4771 76.5,88.4771 76.5,88.4771 76.5,88.4771 76.5,88.4771 76.5,88.4771 76.5,88.4771 76.5,88.4771 76.5,88.4771 76.5005,88.4771 76.5005,88.4771 76.501,88.4771 76.5024,88.4771 76.5044,88.4771 76.5088,88.4771 76.5176,88.4771 76.5356,88.4771 76.5713,88.4771 76.6426,88.4771 76.7847,88.4771 77.0698,88.4771 77.6392,88.4771 78.7788,88.4771 81.0571,88.4771 83.3359,88.4771 85.6147,88.4771 87.8936,88.4771 90.1719,88.4771 92.4507,88.4771 94.7295,88.4771 97.0078,88.4771 99.2866,88.4771 101.565,88.4771 103.844,88.4771 106.123,88.4771 108.401,88.4771 110.68,88.4771 112.958,88.4771 115.237,88.4771 117.516,88.4771 119.794,88.4771 122.073,88.4771 124.352,88.4771 126.631,88.4771 128.909,88.4771 131.188,88.4771 133.467,88.4771 135.745,88.4775 138.024,88.4775 140.303,88.4775 142.582,88.4775 144.86,88.4775 147.139,88.4775 149.417,88.4775 151.696,88.4775 153.975,88.478 156.253,88.4785 158.532,88.479 160.811,88.4805 163.089,88.4819 165.368,88.4849 167.646,88.4888 168.786,88.4917 169.925,88.4951 171.064,88.499 172.204,88.5044 173.343,88.5107 174.482,88.5186 175.622,88.5283 176.761,88.5405 177.901,88.5552 179.04,88.5732 180.179,88.5957 181.319,88.623 182.458,88.6572 183.597,88.6987 184.737,88.75 185.876,88.813 187.015,88.8906 188.155,88.9868 189.294,89.105 190.433,89.2505 191.573,89.4302 192.142,89.5356 192.712,89.6523 193.282,89.7827 193.852,89.9272 194.421,90.0884 194.991,90.2676 195.561,90.4668 196.13,90.6885 196.7,90.9355 197.27,91.2104 197.839,91.5166 198.409,91.8579 198.979,92.2383 199.548,92.6621 200.118,93.1343 200.688,93.6611 201.257,94.248 201.827,94.9028 202.396,95.6328 202.966,96.4463 203.536,97.3535 204.105,98.3647 204.675,99.4917 205.245,100.747 205.814,102.146 206.384,103.702 206.954,105.433 207.523,107.356 208.093,109.492 208.663,111.86 209.232,114.483 209.802,117.382 210.372,120.583 210.656,122.302 210.941,124.106 211.226,125.997 211.511,127.977 211.796,130.05 212.081,132.217 212.366,134.483 212.65,136.848 212.935,139.316 213.22,141.888 213.505,144.566 213.79,147.352 214.075,150.247 214.359,153.251 214.644,156.366 214.929,159.591 215.214,162.926 215.499,166.371 215.784,169.923 216.068,173.583 216.353,177.347 216.638,181.213 216.923,185.178 217.208,189.237 217.493,193.388 217.777,197.625 218.062,201.942 218.347,206.336 218.632,210.799 218.917,215.325 219.202,219.908 219.486,224.541 219.771,229.217 220.056,233.927 220.341,238.666 220.625,243.425 220.911,248.196 221.195,252.973 221.48,257.748 221.765,262.513 222.05,267.261 222.334,271.985 222.62,276.68 222.904,281.337 223.189,285.952 223.474,290.519 223.759,295.031 224.043,299.485 224.329,303.876 224.613,308.2 224.898,312.452 225.183,316.63 225.468,320.729 225.752,324.75 226.038,328.687 226.322,332.539 226.892,339.984 227.461,347.076 228.031,353.81 228.601,360.185 229.171,366.204 229.74,371.871 230.31,377.195 230.88,382.185 231.449,386.851 232.019,391.205 232.589,395.258 233.158,399.023 233.728,398.986 234.298,395.758 234.867,392.78 235.437,390.039 236.007,387.522 236.576,385.22 237.146,383.12 237.716,381.211 238.285,379.484 238.855,377.927 239.425,376.533 239.994,375.29 241.134,373.229 242.273,371.682 243.412,370.589 244.552,369.9 245.691,369.568 246.831,369.552 247.97,369.813 249.109,370.319 250.249,371.039 251.388,371.943 252.527,373.009 254.806,375.536 257.084,378.462 259.363,381.66 261.642,385.025 263.92,388.474 266.199,391.937 268.478,395.36 270.756,398.7 273.035,399.576 275.313,396.493 277.592,393.57 279.871,390.818 282.149,388.247 284.428,385.86 286.707,383.658 288.986,381.641 291.264,379.805 293.543,378.145 295.822,376.656 300.379,374.165 304.937,372.275 309.494,370.926 314.051,370.058 318.608,369.612 323.166,369.536 327.723,369.778 332.28,370.294 336.838,371.044 341.395,371.99 345.952,373.1 350.51,374.345 355.067,375.699 359.625,377.14 364.182,378.649 373.296,381.802 382.411,385.045 391.526,388.297 400.64,391.496 409.755,394.598 418.87,397.574 427.984,400.405 437.099,398.42 446.214,395.907 455.328,393.556 464.443,391.366 473.558,389.333 482.672,387.449 491.787,385.709 510.016,382.629 528.246,380.032 535.5,379.119"/>
<polyline fill="none" stroke="#ff0000" stroke-width="0.5" points="76.5,88.4771 76.5,88.4771 76.5,88.4771 76.5,88.4771 76.5,88.4771 76.5,88.4771 76.5,88.4771 76.5,88.4771 76.5,88.4771 76.5,88.4771 76.5,88.4771 76.5,88.4771 76.5,88.4771 76.5,88.4771 76.5,88.4771 76.5,88.4771 76.5,88.4771 76.5,88.4771 76.5,88.4771 76.5,88.4771 76.5,88.4771 76.5,88.4771 76.5,88.4771 76.5,88.4771 76.5,88.4771 76.5,88.4771 76.5,88.4771 76.5,88.4771 76.5,88.4771 76.5,88.4771 76.5,88.4771 76.5005,88.4771 76.5005,88.4771 76.501,88.4771 76.502,88.4771 76.5044,88.4771 76.5088,88.4771 76.5171,88.4771 76.5342,88.4775 76.5684,88.4775 76.6372,88.4775 76.7744,88.478 77.0483,88.481 77.5972,88.4922 78.6938,88.5366 80.8882,88.7134 83.082,89.0068 85.2759,89.4141 87.4697,89.9321 89.6641,90.5566 91.8579,91.2822 94.0518,92.1035 96.2456,93.0142 98.4399,94.0073 100.634,95.0747 102.828,96.208 105.021,97.3999 107.216,98.6406 109.41,99.9214 111.604,101.233 113.798,102.566 115.992,103.912 118.186,105.26 120.379,106.602 124.768,109.227 129.155,111.714 133.543,113.99 137.931,115.982 142.319,117.619 146.707,118.829 151.095,119.542 153.289,119.688 155.483,119.682 157.677,119.515 159.871,119.178 162.065,118.662 164.259,117.958 166.453,117.059 168.647,115.957 170.841,114.649 173.035,113.131 174.132,112.293 175.229,111.404 176.326,110.464 177.423,109.475 178.52,108.437 179.617,107.353 180.714,106.227 181.811,105.062 182.908,103.862 184.005,102.632 185.102,101.38 186.199,100.112 187.296,98.8374 188.393,97.5669 189.49,96.312 190.587,95.0864 191.684,93.9053 192.781,92.7861 193.878,91.7476 194.975,90.8105 196.072,89.998 197.169,89.3335 198.266,88.8428 198.814,88.6699 199.363,88.5503 199.911,88.4873 200.459,88.4829 201.008,88.541 201.557,88.6646 202.105,88.8564 202.654,89.1182 203.202,89.4531 203.75,89.8633 204.299,90.3496 204.848,90.9141 205.396,91.5571 205.945,92.2793 206.493,93.0806 207.042,93.9595 207.59,94.915 208.139,95.9453 208.687,97.0474 209.236,98.2168 209.784,99.4492 210.333,100.739 210.881,102.08 211.43,103.464 211.978,104.882 212.526,106.325 213.075,107.781 213.624,109.236 214.172,110.677 214.721,112.088 215.269,113.452 215.817,114.747 216.366,115.952 216.915,117.042 217.463,117.99 218.012,118.764 218.56,119.331 219.108,119.649 219.657,119.678 220.206,119.367 220.48,119.068 220.754,118.664 221.028,118.146 221.303,117.508 221.577,116.743 221.851,115.842 222.125,114.798 222.399,113.605 222.674,112.257 222.948,110.751 223.222,109.086 223.497,107.264 223.634,106.296 223.771,105.293 223.908,104.257 224.045,103.189 224.182,102.095 224.319,100.978 224.457,99.8438 224.593,98.6978 224.73,97.5488 224.868,96.4053 225.005,95.2773 225.142,94.1777 225.279,93.1206 225.416,92.1211 225.553,91.1982 225.622,90.7715 225.69,90.3711 225.759,90.0005 225.828,89.6626 225.896,89.3604 225.965,89.0967 226.033,88.875 226.102,88.6992 226.17,88.5718 226.239,88.4971 226.308,88.478 226.376,88.5186 226.445,88.6216 226.513,88.791 226.582,89.0298 226.65,89.3408 226.719,89.7275 226.788,90.1919 226.856,90.7363 226.924,91.3633 226.993,92.0737 227.062,92.8687 227.13,93.748 227.199,94.7114 227.268,95.7578 227.336,96.8848 227.404,98.0894 227.473,99.3672 227.542,100.713 227.61,102.12 227.679,103.579 227.747,105.082 227.816,106.615 227.884,108.167 227.953,109.72 228.021,111.257 228.09,112.757 228.159,114.196 228.227,115.546 228.296,116.776 228.364,117.85 228.433,118.725 228.501,119.352 228.57,119.675 228.639,119.628 228.707,119.137 228.742,118.686 228.812,117.314 228.848,116.367 228.918,113.879 228.953,112.313 228.988,110.52 229.023,108.492 229.059,106.234 229.094,103.756 229.129,101.094 229.164,98.3066 229.199,95.4941 229.23,93.0908 229.843,322.482 229.896,343.18 229.931,354.749 229.967,364.87 230.002,373.72 230.037,381.461 230.072,388.234 230.107,394.165 230.143,399.36 230.178,397.587 230.213,393.594 230.249,390.094 230.284,387.025 230.319,384.337 230.39,379.933 230.425,378.142 230.496,375.242 230.531,374.086 230.602,372.264 230.673,370.989 230.743,370.16 230.814,369.694 230.885,369.526 231.026,369.882 231.167,370.914 231.309,372.403 231.451,374.201 231.592,376.201 231.733,378.327 232.016,382.745 232.299,387.167 232.582,391.436 232.865,395.472 233.147,399.238 233.431,398.78 233.713,395.581 233.996,392.655 234.279,389.988 234.562,387.566 234.845,385.37 235.127,383.385 235.693,379.981 236.259,377.236 236.825,375.048 237.391,373.329 237.956,372.007 238.522,371.021 239.088,370.319 239.653,369.858 240.219,369.603 241.351,369.592 242.482,370.092 243.613,370.966 244.745,372.109 247.008,374.917 249.271,378.104 251.534,381.429 253.796,384.752 256.059,387.991 258.322,391.099 260.585,394.049 262.848,396.832 265.111,399.442 267.374,399.616 269.637,397.338 271.899,395.217 276.425,391.411 280.951,388.126 285.477,385.296 290.002,382.859 294.528,380.762 299.054,378.958 303.58,377.407 312.631,374.931 321.683,373.117 330.734,371.804 339.786,370.875 348.837,370.242 366.94,369.612 385.043,369.549 403.146,369.835 421.25,370.335 457.456,371.663 493.662,373.153 529.868,374.644 535.5,374.87"/>
<polyline fill="none" stroke="#00ffff" stroke-width="0.5" points="76.5,88.4771 76.5,88.4771 76.5,88.4771 76.5,88.4771 76.5,88.4771 76.5,88.4771 76.5,88.4771 76.5,88.4771 76.5,88.4771 76.5,88.4771 76.5,88.4771 76.5,88.4771 76.5,88.4771 76.5,88.4771 76.5,88.4771 76.5,88.4771 76.5,88.4771 76.5,88.4771 76.5,88.4771 76.5,88.4771 76.5,88.4771 76.5,88.4771 76.5,88.4771 76.5,88.4771 76.5,88.4771 76.5,88.4771 76.5,88.4771 76.5,88.4771 76.5,88.4771 76.5,88.4771 76.5,88.4771 76.5005,88.4771 76.5005,88.4771 76.501,88.4771 76.5024,88.4771 76.5044,88.4771 76.5088,88.4771 76.5176,88.4771 76.5356,88.4771 76.5713,88.4771 76.6426,88.4771 76.7847,88.4771 77.0698,88.4771 77.6392,88.4771 78.7788,88.4771 79.918,88.4771 81.0571,88.4771 82.1968,88.4771 83.3359,88.4771 84.4751,88.4771 85.6147,88.4771 86.7539,88.4771 87.8936,88.4771 89.0327,88.4771 90.1719,88.4771 91.3115,88.4771 92.4507,88.4771 93.5898,88.4771 94.7295,88.4771 95.8687,88.4771 98.1475,88.4771 100.426,88.4771 101.565,88.4771 102.705,88.4771 103.844,88.4771 104.983,88.4771 106.123,88.4771 107.262,88.4771 108.401,88.4771 109.541,88.4771 110.68,88.4771 111.819,88.4771 112.958,88.4771 114.098,88.4771 115.237,88.4771 116.376,88.4771 117.516,88.4771 118.655,88.4771 119.794,88.4771 120.934,88.4771 122.073,88.4771 123.213,88.4775 124.352,88.4775 125.491,88.4775 126.631,88.4775 127.77,88.4775 128.909,88.4775 130.049,88.4775 131.188,88.4775 132.327,88.4775 133.467,88.4775 134.606,88.4775 135.745,88.4775 136.885,88.4775 138.024,88.4775 139.164,88.478 140.303,88.478 141.442,88.478 142.582,88.4785 143.721,88.479 144.86,88.4795 146,88.48 147.139,88.4805 148.278,88.481 149.417,88.4819 150.557,88.4834 151.696,88.4849 152.835,88.4863 153.975,88.4888 155.114,88.4912 156.253,88.4941 157.393,88.498 158.532,88.5024 159.671,88.5078 160.811,88.5146 161.95,88.522 163.089,88.5312 164.229,88.542 165.368,88.5547 166.507,88.5703 167.646,88.5879 168.786,88.6089 169.925,88.6338 171.064,88.6626 172.204,88.6963 173.343,88.7358 174.482,88.7817 175.622,88.835 176.761,88.897 177.901,88.9688 179.04,89.0518 180.179,89.1475 181.319,89.2578 182.458,89.3848 183.597,89.5303 184.737,89.6978 185.876,89.8892 187.015,90.1079 188.155,90.3574 189.294,90.6416 190.433,90.9644 191.573,91.3311 192.712,91.7466 193.852,92.2168 194.991,92.7471 196.13,93.3452 197.27,94.0176 198.409,94.7725 199.548,95.6187 200.688,96.564 201.827,97.6191 202.966,98.7935 204.105,100.097 205.245,101.542 205.814,102.32 206.384,103.138 206.954,103.996 207.523,104.897 208.093,105.841 208.663,106.83 209.232,107.865 209.802,108.947 210.372,110.079 210.941,111.261 211.511,112.494 212.081,113.779 212.65,115.119 213.22,116.513 213.79,117.963 214.359,119.469 214.929,121.033 215.499,122.654 216.068,124.334 216.638,126.074 217.208,127.872 217.777,129.73 218.347,131.647 218.917,133.624 219.486,135.66 220.056,137.754 220.625,139.907 221.765,144.383 222.904,149.081 224.043,153.989 225.183,159.095 226.322,164.383 227.461,169.836 228.601,175.434 229.74,181.156 230.88,186.98 232.019,192.885 233.158,198.846 234.298,204.841 235.437,210.848 236.576,216.844 237.716,222.81 238.855,228.727 239.994,234.577 241.134,240.343 242.273,246.013 243.412,251.572 244.552,257.012 245.691,262.322 246.831,267.496 247.97,272.526 249.109,277.411 250.249,282.146 251.388,286.728 252.527,291.158 253.667,295.436 254.806,299.562 255.945,303.538 257.084,307.366 258.224,311.05 259.363,314.591 260.502,317.994 261.642,321.263 263.92,327.411 266.199,333.068 268.478,338.269 270.756,343.046 273.035,347.433 275.313,351.458 277.592,355.154 279.871,358.546 282.149,361.662 284.428,364.522 286.707,367.152 291.264,371.792 295.822,375.723 300.379,379.062 304.937,381.904 309.494,384.331 314.051,386.408 318.608,388.191 327.723,391.05 336.838,393.19 345.952,394.808 355.067,396.042 364.182,396.992 382.411,398.306 400.64,399.12 418.87,399.639 455.328,400.203 491.787,400.462 535.5,400.607"/>
<polygon fill="#ffffff" points="529.263,60.4302 394.65,124.89 394.65,60.4302"/>
<polygon fill="#ffffff" points="529.263,124.89 394.65,124.89 529.263,60.4302"/>
<polyline fill="none" stroke="#000000" stroke-width="0.5" points="394.65,124.89 394.65,60.4302 529.263,60.4302 529.263,124.89 394.65,124.89"/>
<text fill="#000000" style="stroke:none" x="456" y="76" transform="rotate(0, 456, 76)" font-size="10" font-family="SansSerif" font-style="normal" font-weight="normal">Chebyshev I</text>
<text fill="#000000" style="stroke:none" x="456" y="90" transform="rotate(0, 456, 90)" font-size="10" font-family="SansSerif" font-style="normal" font-weight="normal">Chebyshev II</text>
<text fill="#000000" style="stroke:none" x="456" y="104" transform="rotate(0, 456, 104)" font-size="10" font-family="SansSerif" font-style="normal" font-weight="normal">Elliptic</text>
<text fill="#000000" style="stroke:none" x="456" y="118" transform="rotate(0, 456, 118)" font-size="10" font-family="SansSerif" font-style="normal" font-weight="normal">Butterworth</text>
<polyline fill="none" stroke="#00ffff" stroke-width="0.5" points="400.388,114.26 423.337,114.26 446.288,114.26"/>
<polyline fill="none" stroke="#ff0000" stroke-width="0.5" points="400.388,99.8599 423.337,99.8599 446.288,99.8599"/>
<polyline fill="none" stroke="#ffff00" stroke-width="0.5" points="400.388,85.46 423.337,85.46 446.288,85.46"/>
<polyline fill="none" stroke="#0000ff" stroke-width="0.5" points="400.388,71.0601 423.337,71.0601 446.288,71.0601"/>
<polyline fill="none" stroke="#000000" stroke-width="0.5" points="76.5,400.75 76.5,57.25"/>
<polyline fill="none" stroke="#000000" stroke-width="0.5" points="76.5,400.75 69.6147,400.75"/>
<polyline fill="none" stroke="#000000" stroke-width="0.5" points="76.5,338.295 69.6147,338.295"/>
<polyline fill="none" stroke="#000000" stroke-width="0.5" points="76.5,275.841 69.6147,275.841"/>
<polyline fill="none" stroke="#000000" stroke-width="0.5" points="76.5,213.386 69.6147,213.386"/>
<polyline fill="none" stroke="#000000" stroke-width="0.5" points="76.5,150.932 69.6147,150.932"/>
<polyline fill="none" stroke="#000000" stroke-width="0.5" points="76.5,88.4775 69.6147,88.4775"/>
<polyline fill="none" stroke="#000000" stroke-width="0.5" points="76.5,369.522 72.3691,369.522"/>
<polyline fill="none" stroke="#000000" stroke-width="0.5" points="76.5,307.068 72.3691,307.068"/>
<polyline fill="none" stroke="#000000" stroke-width="0.5" points="76.5,244.614 72.3691,244.614"/>
<polyline fill="none" stroke="#000000" stroke-width="0.5" points="76.5,182.159 72.3691,182.159"/>
<polyline fill="none" stroke="#000000" stroke-width="0.5" points="76.5,119.705 72.3691,119.705"/>
<polyline fill="none" stroke="#000000" stroke-width="0.5" points="76.5,57.25 72.3691,57.25"/>
<text fill="#000000" style="stroke:none" x="51" y="406" transform="rotate(-0, 51, 406)" font-size="10" font-family="SansSerif" font-style="normal" font-weight="normal">0.0</text>
<text fill="#000000" style="stroke:none" x="52" y="343" transform="rotate(-0, 52, 343)" font-size="10" font-family="SansSerif" font-style="normal" font-weight="normal">0.2</text>
<text fill="#000000" style="stroke:none" x="51" y="281" transform="rotate(-0, 51, 281)" font-size="10" font-family="SansSerif" font-style="normal" font-weight="normal">0.4</text>
<text fill="#000000" style="stroke:none" x="51" y="218" transform="rotate(-0, 51, 218)" font-size="10" font-family="SansSerif" font-style="normal" font-weight="normal">0.6</text>
<text fill="#000000" style="stroke:none" x="51" y="156" transform="rotate(-0, 51, 156)" font-size="10" font-family="SansSerif" font-style="normal" font-weight="normal">0.8</text>
<text fill="#000000" style="stroke:none" x="52" y="93" transform="rotate(-0, 52, 93)" font-size="10" font-family="SansSerif" font-style="normal" font-weight="normal">1.0</text>
<polyline fill="none" stroke="#000000" stroke-width="0.5" stroke-dasharray="4,4,4,4" points="76.5,400.75 535.5,400.75 535.5,400.75"/>
<polyline fill="none" stroke="#000000" stroke-width="0.5" stroke-dasharray="4,4,4,4" points="76.5,338.295 535.5,338.295 535.5,338.295"/>
<polyline fill="none" stroke="#000000" stroke-width="0.5" stroke-dasharray="4,4,4,4" points="76.5,275.841 535.5,275.841 535.5,275.841"/>
<polyline fill="none" stroke="#000000" stroke-width="0.5" stroke-dasharray="4,4,4,4" points="76.5,213.386 535.5,213.386 535.5,213.386"/>
<polyline fill="none" stroke="#000000" stroke-width="0.5" stroke-dasharray="4,4,4,4" points="76.5,150.932 535.5,150.932 535.5,150.932"/>
<polyline fill="none" stroke="#000000" stroke-width="0.5" stroke-dasharray="4,4,4,4" points="76.5,88.4771 535.5,88.4771 535.5,88.4771"/>
<polyline fill="none" stroke="#000000" stroke-width="0.5" points="76.5,400.75 535.5,400.75"/>
<polyline fill="none" stroke="#000000" stroke-width="0.5" points="76.5,400.75 76.5,405.895"/>
<polyline fill="none" stroke="#000000" stroke-width="0.5" points="229.5,400.75 229.5,405.895"/>
<polyline fill="none" stroke="#000000" stroke-width="0.5" points="382.5,400.75 382.5,405.895"/>
<polyline fill="none" stroke="#000000" stroke-width="0.5" points="535.5,400.75 535.5,405.895"/>
<polyline fill="none" stroke="#000000" stroke-width="0.5" points="107.1,400.75 107.1,403.837"/>
<polyline fill="none" stroke="#000000" stroke-width="0.5" points="137.7,400.75 137.7,403.837"/>
<polyline fill="none" stroke="#000000" stroke-width="0.5" points="168.3,400.75 168.3,403.837"/>
<polyline fill="none" stroke="#000000" stroke-width="0.5" points="198.9,400.75 198.9,403.837"/>
<polyline fill="none" stroke="#000000" stroke-width="0.5" points="260.1,400.75 260.1,403.837"/>
<polyline fill="none" stroke="#000000" stroke-width="0.5" points="290.7,400.75 290.7,403.837"/>
<polyline fill="none" stroke="#000000" stroke-width="0.5" points="321.3,400.75 321.3,403.837"/>
<polyline fill="none" stroke="#000000" stroke-width="0.5" points="351.9,400.75 351.9,403.837"/>
<polyline fill="none" stroke="#000000" stroke-width="0.5" points="413.1,400.75 413.1,403.837"/>
<polyline fill="none" stroke="#000000" stroke-width="0.5" points="443.7,400.75 443.7,403.837"/>
<polyline fill="none" stroke="#000000" stroke-width="0.5" points="474.3,400.75 474.3,403.837"/>
<polyline fill="none" stroke="#000000" stroke-width="0.5" points="504.9,400.75 504.9,403.837"/>
<text fill="#000000" style="stroke:none" x="73" y="417" transform="rotate(-0, 73, 417)" font-size="10" font-family="SansSerif" font-style="normal" font-weight="normal">0</text>
<text fill="#000000" style="stroke:none" x="226" y="417" transform="rotate(-0, 226, 417)" font-size="10" font-family="SansSerif" font-style="normal" font-weight="normal">5</text>
<text fill="#000000" style="stroke:none" x="376" y="417" transform="rotate(-0, 376, 417)" font-size="10" font-family="SansSerif" font-style="normal" font-weight="normal">10</text>
<text fill="#000000" style="stroke:none" x="529" y="417" transform="rotate(-0, 529, 417)" font-size="10" font-family="SansSerif" font-style="normal" font-weight="normal">15</text>
<polyline fill="none" stroke="#000000" stroke-width="0.5" stroke-dasharray="4,4,4,4" points="76.5,400.75 76.5,57.25 76.5,57.25"/>
<polyline fill="none" stroke="#000000" stroke-width="0.5" stroke-dasharray="4,4,4,4" points="229.5,400.75 229.5,57.25 229.5,57.25"/>
<polyline fill="none" stroke="#000000" stroke-width="0.5" stroke-dasharray="4,4,4,4" points="382.5,400.75 382.5,57.25 382.5,57.25"/>
<polyline fill="none" stroke="#000000" stroke-width="0.5" stroke-dasharray="4,4,4,4" points="535.5,400.75 535.5,57.25 535.5,57.25"/>
<text fill="#000000" style="stroke:none" x="243" y="48" transform="rotate(0, 243, 48)" font-size="10" font-family="SansSerif" font-style="normal" font-weight="normal">Analog filters of order 7</text>
<text fill="#000000" style="stroke:none" x="265" y="433" transform="rotate(0, 265, 433)" font-size="10" font-family="SansSerif" font-style="normal" font-weight="normal">Frequency (Hz)</text>
<text fill="#000000" style="stroke:none" x="44" y="241" transform="rotate(270, 44, 241)" font-size="10" font-family="SansSerif" font-style="normal" font-weight="normal">Gain</text>
</g>
</svg>
