<?xml version="1.0" encoding="UTF-8" standalone="no"?>
<svg xmlns="http://www.w3.org/2000/svg"
     xmlns:xlink="http://www.w3.org/1999/xlink"
     width="612px" height="381px" viewBox="0 0 612 381"
     style="stroke:none">
<title>Figure n°0</title>
<desc>
Creator: GL2PS 1.3.2, (C) 1999-2006 Christophe Geuzaine (geuz@geuz.org)
For: Scilab
CreationDate: Fri May 27 09:15:26 2011
</desc>
<defs>
</defs>
<polygon fill="#ffffff" points="0,0 612,0 612,381 0,381"/>
<g>
<polygon fill="#ffffff" points="38.25,333.375 38.25,47.625 38.25,47.625"/>
<polygon fill="#ffffff" points="38.25,333.375 38.25,47.625 38.25,333.375"/>
<polygon fill="#ffffff" points="38.25,333.375 267.75,333.375 267.75,333.375"/>
<polygon fill="#ffffff" points="38.25,333.375 267.75,333.375 38.25,333.375"/>
<polygon fill="#ffffff" points="38.25,333.375 267.75,333.375 267.75,47.625"/>
<polygon fill="#ffffff" points="38.25,333.375 267.75,47.625 38.25,47.625"/>
<polyline fill="none" stroke="#000000" stroke-width="0.5" points="38.25,333.375 38.25,47.625 38.25,47.625 267.75,47.625 267.75,333.375 267.75,333.375 38.25,333.375"/>
<polyline fill="none" stroke="#000000" stroke-width="0.5" points="267.75,47.625 38.25,47.625"/>
<polyline fill="none" stroke="#000000" stroke-width="0.5" points="267.75,47.625 267.75,333.375"/>
<polyline fill="none" stroke="#000000" stroke-width="0.5" points="267.75,47.625 267.75,47.625"/>
<polyline fill="none" stroke="#0000ff" stroke-width="0.5" points="39.8892,292.477 41.5288,294.311 43.168,293.658 44.8071,292.93 46.4463,292.124 48.0859,291.234 49.7251,290.257 51.3643,289.189 53.0034,288.026 54.6431,286.764 56.2822,285.4 57.9214,283.93 59.5605,282.353 61.2002,280.664 62.8394,278.862 64.4785,276.945 66.1177,274.911 67.7573,272.758 69.3965,270.487 71.0356,268.097 72.6748,265.587 74.3145,262.959 75.9536,260.214 77.5928,257.353 79.2319,254.377 80.8716,251.292 82.5107,248.098 84.1499,244.8 85.7891,241.403 87.4287,237.911 89.0679,234.329 90.707,230.664 92.3462,226.921 93.9858,223.108 95.625,219.232 97.2642,215.302 98.9038,211.325 100.543,207.31 102.182,203.267 103.821,199.204 105.461,195.132 107.1,191.061 108.739,187.001 110.378,182.963 112.018,178.958 113.657,174.996 115.296,171.089 116.936,167.248 118.575,163.483 120.214,159.805 121.854,156.227 123.493,152.756 125.132,149.406 126.771,146.186 128.411,143.105 130.05,140.175 131.689,137.402 133.329,134.797 134.968,132.369 136.607,130.124 138.247,128.069 139.886,126.212 141.525,124.56 143.164,123.116 144.804,121.886 146.443,120.874 148.082,120.083 149.721,119.517 151.361,119.176 153,119.062 154.639,119.062 156.279,119.176 157.918,119.517 159.557,120.083 161.196,120.874 162.836,121.886 164.475,123.116 166.114,124.56 167.753,126.212 169.393,128.069 171.032,130.124 172.671,132.369 174.311,134.797 175.95,137.402 177.589,140.175 179.229,143.105 180.868,146.186 182.507,149.406 184.146,152.756 185.786,156.227 187.425,159.805 189.064,163.483 190.704,167.248 192.343,171.089 193.982,174.996 195.622,178.958 197.261,182.963 198.9,187.001 200.539,191.061 202.179,195.132 203.818,199.204 205.457,203.267 207.096,207.31 208.736,211.325 210.375,215.302 212.014,219.232 213.654,223.108 215.293,226.921 216.932,230.664 218.571,234.329 220.211,237.911 221.85,241.403 223.489,244.8 225.128,248.098 226.768,251.292 228.407,254.377 230.046,257.353 231.686,260.214 233.325,262.959 234.964,265.587 236.604,268.097 238.243,270.487 239.882,272.758 241.521,274.911 243.161,276.945 244.8,278.862 246.439,280.664 248.079,282.353 249.718,283.93 251.357,285.4 252.997,286.764 254.636,288.026 256.275,289.189 257.914,290.257 259.554,291.234 261.193,292.124 262.832,292.93 264.471,293.658 266.111,294.311 267.75,292.477"/>
<polyline fill="none" stroke="#007f00" stroke-width="0.5" points="39.8892,47.7183 41.5288,250.917 43.168,248.656 44.8071,246.357 46.4463,244.022 48.0859,241.652 49.7251,239.248 51.3643,236.813 53.0034,234.349 54.6431,231.856 56.2822,229.338 57.9214,226.796 59.5605,224.232 61.2002,221.648 62.8394,219.047 64.4785,216.431 66.1177,213.801 67.7573,211.162 69.3965,208.513 71.0356,205.859 72.6748,203.201 74.3145,200.542 75.9536,197.885 77.5928,195.232 79.2319,192.585 80.8716,189.947 82.5107,187.321 84.1499,184.709 85.7891,182.115 87.4287,179.539 89.0679,176.986 90.707,174.457 92.3462,171.956 93.9858,169.484 95.625,167.045 97.2642,164.641 98.9038,162.274 100.543,159.948 102.182,157.664 103.821,155.425 105.461,153.233 107.1,151.091 108.739,149.001 110.378,146.966 112.018,144.987 113.657,143.067 115.296,141.208 116.936,139.412 118.575,137.68 120.214,136.016 121.854,134.42 123.493,132.896 125.132,131.442 126.771,130.063 128.411,128.76 130.05,127.534 131.689,126.386 133.329,125.318 134.968,124.33 136.607,123.425 138.247,122.603 139.886,121.864 141.525,121.21 143.164,120.643 144.804,120.161 146.443,119.766 148.082,119.458 149.721,119.239 151.361,119.106 153,119.062 154.639,119.062 156.279,119.106 157.918,119.239 159.557,119.458 161.196,119.766 162.836,120.161 164.475,120.643 166.114,121.21 167.753,121.864 169.393,122.603 171.032,123.425 172.671,124.33 174.311,125.318 175.95,126.386 177.589,127.534 179.229,128.76 180.868,130.063 182.507,131.442 184.146,132.896 185.786,134.42 187.425,136.016 189.064,137.68 190.704,139.412 192.343,141.208 193.982,143.067 195.622,144.987 197.261,146.966 198.9,149.001 200.539,151.091 202.179,153.233 203.818,155.425 205.457,157.664 207.096,159.948 208.736,162.274 210.375,164.641 212.014,167.045 213.654,169.484 215.293,171.956 216.932,174.457 218.571,176.986 220.211,179.539 221.85,182.115 223.489,184.709 225.128,187.321 226.768,189.947 228.407,192.585 230.046,195.232 231.686,197.885 233.325,200.542 234.964,203.201 236.604,205.859 238.243,208.513 239.882,211.162 241.521,213.801 243.161,216.431 244.8,219.047 246.439,221.648 248.079,224.232 249.718,226.796 251.357,229.338 252.997,231.856 254.636,234.349 256.275,236.813 257.914,239.248 259.554,241.652 261.193,244.022 262.832,246.357 264.471,248.656 266.111,250.917 267.75,47.7183"/>
<polyline fill="none" stroke="#ff0000" stroke-width="0.5" points="39.8892,297.656 41.5288,297.656 43.168,297.656 44.8071,297.656 46.4463,297.656 48.0859,297.656 49.7251,297.656 51.3643,297.656 53.0034,297.656 54.6431,297.656 56.2822,297.656 57.9214,297.656 59.5605,297.656 61.2002,297.656 62.8394,297.656 64.4785,297.656 66.1177,297.656 67.7573,297.656 69.3965,297.656 71.0356,297.656 72.6748,297.656 74.3145,297.656 75.9536,297.656 77.5928,297.656 79.2319,297.656 80.8716,297.656 82.5107,297.656 84.1499,297.656 85.7891,297.656 87.4287,297.656 89.0679,297.656 90.707,297.656 92.3462,297.656 93.9858,297.656 95.625,297.656 97.2642,297.656 98.9038,297.656 100.543,297.656 102.182,297.656 103.821,297.656 105.461,297.655 107.1,297.653 108.739,297.649 110.378,297.641 112.018,297.624 113.657,297.592 115.296,297.532 116.936,297.423 118.575,297.232 120.214,296.906 121.854,296.368 123.493,295.507 125.132,294.175 126.771,292.175 128.411,289.27 130.05,285.183 131.689,279.619 133.329,272.292 134.968,262.967 136.607,251.508 138.247,237.934 139.886,222.458 141.525,205.525 143.164,187.814 144.804,170.21 146.443,153.74 148.082,139.479 149.721,128.442 151.361,121.455 153,119.062 154.639,119.062 156.279,121.455 157.918,128.442 159.557,139.479 161.196,153.74 162.836,170.21 164.475,187.814 166.114,205.525 167.753,222.458 169.393,237.934 171.032,251.508 172.671,262.967 174.311,272.292 175.95,279.619 177.589,285.183 179.229,289.27 180.868,292.175 182.507,294.175 184.146,295.507 185.786,296.368 187.425,296.906 189.064,297.232 190.704,297.423 192.343,297.532 193.982,297.592 195.622,297.624 197.261,297.641 198.9,297.649 200.539,297.653 202.179,297.655 203.818,297.656 205.457,297.656 207.096,297.656 208.736,297.656 210.375,297.656 212.014,297.656 213.654,297.656 215.293,297.656 216.932,297.656 218.571,297.656 220.211,297.656 221.85,297.656 223.489,297.656 225.128,297.656 226.768,297.656 228.407,297.656 230.046,297.656 231.686,297.656 233.325,297.656 234.964,297.656 236.604,297.656 238.243,297.656 239.882,297.656 241.521,297.656 243.161,297.656 244.8,297.656 246.439,297.656 248.079,297.656 249.718,297.656 251.357,297.656 252.997,297.656 254.636,297.656 256.275,297.656 257.914,297.656 259.554,297.656 261.193,297.656 262.832,297.656 264.471,297.656 266.111,297.656 267.75,297.656"/>
<polyline fill="none" stroke="#000000" stroke-width="0.5" points="38.25,333.375 38.25,47.625"/>
<polyline fill="none" stroke="#000000" stroke-width="0.5" points="38.25,333.375 34.8149,333.375"/>
<polyline fill="none" stroke="#000000" stroke-width="0.5" points="38.25,297.656 34.8149,297.656"/>
<polyline fill="none" stroke="#000000" stroke-width="0.5" points="38.25,261.938 34.8149,261.938"/>
<polyline fill="none" stroke="#000000" stroke-width="0.5" points="38.25,226.219 34.8149,226.219"/>
<polyline fill="none" stroke="#000000" stroke-width="0.5" points="38.25,190.5 34.8149,190.5"/>
<polyline fill="none" stroke="#000000" stroke-width="0.5" points="38.25,154.781 34.8149,154.781"/>
<polyline fill="none" stroke="#000000" stroke-width="0.5" points="38.25,119.062 34.8149,119.062"/>
<polyline fill="none" stroke="#000000" stroke-width="0.5" points="38.25,83.3438 34.8149,83.3438"/>
<polyline fill="none" stroke="#000000" stroke-width="0.5" points="38.25,47.625 34.8149,47.625"/>
<polyline fill="none" stroke="#000000" stroke-width="0.5" points="38.25,315.516 36.189,315.516"/>
<polyline fill="none" stroke="#000000" stroke-width="0.5" points="38.25,279.797 36.189,279.797"/>
<polyline fill="none" stroke="#000000" stroke-width="0.5" points="38.25,244.078 36.189,244.078"/>
<polyline fill="none" stroke="#000000" stroke-width="0.5" points="38.25,208.359 36.189,208.359"/>
<polyline fill="none" stroke="#000000" stroke-width="0.5" points="38.25,172.641 36.189,172.641"/>
<polyline fill="none" stroke="#000000" stroke-width="0.5" points="38.25,136.922 36.189,136.922"/>
<polyline fill="none" stroke="#000000" stroke-width="0.5" points="38.25,101.203 36.189,101.203"/>
<polyline fill="none" stroke="#000000" stroke-width="0.5" points="38.25,65.4844 36.189,65.4844"/>
<text fill="#000000" style="stroke:none" x="14" y="338" transform="rotate(-0, 14, 338)" font-size="10" font-family="SansSerif" font-style="normal" font-weight="normal">-0.2</text>
<text fill="#000000" style="stroke:none" x="17" y="303" transform="rotate(-0, 17, 303)" font-size="10" font-family="SansSerif" font-style="normal" font-weight="normal">0.0</text>
<text fill="#000000" style="stroke:none" x="18" y="267" transform="rotate(-0, 18, 267)" font-size="10" font-family="SansSerif" font-style="normal" font-weight="normal">0.2</text>
<text fill="#000000" style="stroke:none" x="17" y="231" transform="rotate(-0, 17, 231)" font-size="10" font-family="SansSerif" font-style="normal" font-weight="normal">0.4</text>
<text fill="#000000" style="stroke:none" x="17" y="195" transform="rotate(-0, 17, 195)" font-size="10" font-family="SansSerif" font-style="normal" font-weight="normal">0.6</text>
<text fill="#000000" style="stroke:none" x="17" y="160" transform="rotate(-0, 17, 160)" font-size="10" font-family="SansSerif" font-style="normal" font-weight="normal">0.8</text>
<text fill="#000000" style="stroke:none" x="18" y="124" transform="rotate(-0, 18, 124)" font-size="10" font-family="SansSerif" font-style="normal" font-weight="normal">1.0</text>
<text fill="#000000" style="stroke:none" x="18" y="88" transform="rotate(-0, 18, 88)" font-size="10" font-family="SansSerif" font-style="normal" font-weight="normal">1.2</text>
<text fill="#000000" style="stroke:none" x="18" y="53" transform="rotate(-0, 18, 53)" font-size="10" font-family="SansSerif" font-style="normal" font-weight="normal">1.4</text>
<polyline fill="none" stroke="#bebebe" stroke-width="0.5" stroke-dasharray="4,4,4,4" points="38.25,333.375 267.75,333.375 267.75,333.375"/>
<polyline fill="none" stroke="#bebebe" stroke-width="0.5" stroke-dasharray="4,4,4,4" points="38.25,297.656 267.75,297.656 267.75,297.656"/>
<polyline fill="none" stroke="#bebebe" stroke-width="0.5" stroke-dasharray="4,4,4,4" points="38.25,261.938 267.75,261.938 267.75,261.938"/>
<polyline fill="none" stroke="#bebebe" stroke-width="0.5" stroke-dasharray="4,4,4,4" points="38.25,226.219 267.75,226.219 267.75,226.219"/>
<polyline fill="none" stroke="#bebebe" stroke-width="0.5" stroke-dasharray="4,4,4,4" points="38.25,190.5 267.75,190.5 267.75,190.5"/>
<polyline fill="none" stroke="#bebebe" stroke-width="0.5" stroke-dasharray="4,4,4,4" points="38.25,154.781 267.75,154.781 267.75,154.781"/>
<polyline fill="none" stroke="#bebebe" stroke-width="0.5" stroke-dasharray="4,4,4,4" points="38.25,119.062 267.75,119.062 267.75,119.062"/>
<polyline fill="none" stroke="#bebebe" stroke-width="0.5" stroke-dasharray="4,4,4,4" points="38.25,83.3438 267.75,83.3438 267.75,83.3438"/>
<polyline fill="none" stroke="#bebebe" stroke-width="0.5" stroke-dasharray="4,4,4,4" points="38.25,47.625 267.75,47.625 267.75,47.625"/>
<polyline fill="none" stroke="#000000" stroke-width="0.5" points="38.25,333.375 267.75,333.375"/>
<polyline fill="none" stroke="#000000" stroke-width="0.5" points="38.25,333.375 38.25,337.65"/>
<polyline fill="none" stroke="#000000" stroke-width="0.5" points="71.0356,333.375 71.0356,337.65"/>
<polyline fill="none" stroke="#000000" stroke-width="0.5" points="103.821,333.375 103.821,337.65"/>
<polyline fill="none" stroke="#000000" stroke-width="0.5" points="136.607,333.375 136.607,337.65"/>
<polyline fill="none" stroke="#000000" stroke-width="0.5" points="169.393,333.375 169.393,337.65"/>
<polyline fill="none" stroke="#000000" stroke-width="0.5" points="202.179,333.375 202.179,337.65"/>
<polyline fill="none" stroke="#000000" stroke-width="0.5" points="234.964,333.375 234.964,337.65"/>
<polyline fill="none" stroke="#000000" stroke-width="0.5" points="267.75,333.375 267.75,337.65"/>
<polyline fill="none" stroke="#000000" stroke-width="0.5" points="54.6431,333.375 54.6431,335.94"/>
<polyline fill="none" stroke="#000000" stroke-width="0.5" points="87.4287,333.375 87.4287,335.94"/>
<polyline fill="none" stroke="#000000" stroke-width="0.5" points="120.214,333.375 120.214,335.94"/>
<polyline fill="none" stroke="#000000" stroke-width="0.5" points="153,333.375 153,335.94"/>
<polyline fill="none" stroke="#000000" stroke-width="0.5" points="185.786,333.375 185.786,335.94"/>
<polyline fill="none" stroke="#000000" stroke-width="0.5" points="218.571,333.375 218.571,335.94"/>
<polyline fill="none" stroke="#000000" stroke-width="0.5" points="251.357,333.375 251.357,335.94"/>
<text fill="#000000" style="stroke:none" x="34" y="349" transform="rotate(-0, 34, 349)" font-size="10" font-family="SansSerif" font-style="normal" font-weight="normal">0</text>
<text fill="#000000" style="stroke:none" x="65" y="349" transform="rotate(-0, 65, 349)" font-size="10" font-family="SansSerif" font-style="normal" font-weight="normal">20</text>
<text fill="#000000" style="stroke:none" x="97" y="349" transform="rotate(-0, 97, 349)" font-size="10" font-family="SansSerif" font-style="normal" font-weight="normal">40</text>
<text fill="#000000" style="stroke:none" x="130" y="349" transform="rotate(-0, 130, 349)" font-size="10" font-family="SansSerif" font-style="normal" font-weight="normal">60</text>
<text fill="#000000" style="stroke:none" x="162" y="349" transform="rotate(-0, 162, 349)" font-size="10" font-family="SansSerif" font-style="normal" font-weight="normal">80</text>
<text fill="#000000" style="stroke:none" x="193" y="349" transform="rotate(-0, 193, 349)" font-size="10" font-family="SansSerif" font-style="normal" font-weight="normal">100</text>
<text fill="#000000" style="stroke:none" x="225" y="349" transform="rotate(-0, 225, 349)" font-size="10" font-family="SansSerif" font-style="normal" font-weight="normal">120</text>
<text fill="#000000" style="stroke:none" x="258" y="349" transform="rotate(-0, 258, 349)" font-size="10" font-family="SansSerif" font-style="normal" font-weight="normal">140</text>
<polyline fill="none" stroke="#bebebe" stroke-width="0.5" stroke-dasharray="4,4,4,4" points="38.25,333.375 38.25,47.625 38.25,47.625"/>
<polyline fill="none" stroke="#bebebe" stroke-width="0.5" stroke-dasharray="4,4,4,4" points="71.0356,333.375 71.0356,47.625 71.0356,47.625"/>
<polyline fill="none" stroke="#bebebe" stroke-width="0.5" stroke-dasharray="4,4,4,4" points="103.821,333.375 103.821,47.625 103.821,47.625"/>
<polyline fill="none" stroke="#bebebe" stroke-width="0.5" stroke-dasharray="4,4,4,4" points="136.607,333.375 136.607,47.625 136.607,47.625"/>
<polyline fill="none" stroke="#bebebe" stroke-width="0.5" stroke-dasharray="4,4,4,4" points="169.393,333.375 169.393,47.625 169.393,47.625"/>
<polyline fill="none" stroke="#bebebe" stroke-width="0.5" stroke-dasharray="4,4,4,4" points="202.179,333.375 202.179,47.625 202.179,47.625"/>
<polyline fill="none" stroke="#bebebe" stroke-width="0.5" stroke-dasharray="4,4,4,4" points="234.964,333.375 234.964,47.625 234.964,47.625"/>
<polyline fill="none" stroke="#bebebe" stroke-width="0.5" stroke-dasharray="4,4,4,4" points="267.75,333.375 267.75,47.625 267.75,47.625"/>
<text fill="#000000" style="stroke:none" x="39" y="39" transform="rotate(0, 39, 39)" font-size="10" font-family="SansSerif" font-style="normal" font-weight="normal">Comparison of Chebychev window profiles</text>
<text fill="#000000" style="stroke:none" x="150" y="359" transform="rotate(0, 150, 359)" font-size="10" font-family="SansSerif" font-style="normal" font-weight="normal">n</text>
<text fill="#000000" style="stroke:none" x="7" y="201" transform="rotate(270, 7, 201)" font-size="10" font-family="SansSerif" font-style="normal" font-weight="normal">w_n</text>
<polygon fill="#ffffff" points="344.25,333.375 344.25,47.625 344.25,47.625"/>
<polygon fill="#ffffff" points="344.25,333.375 344.25,47.625 344.25,333.375"/>
<polygon fill="#ffffff" points="344.25,333.375 573.75,333.375 573.75,333.375"/>
<polygon fill="#ffffff" points="344.25,333.375 573.75,333.375 344.25,333.375"/>
<polygon fill="#ffffff" points="344.25,333.375 573.75,333.375 573.75,47.625"/>
<polygon fill="#ffffff" points="344.25,333.375 573.75,47.625 344.25,47.625"/>
<polyline fill="none" stroke="#000000" stroke-width="0.5" points="344.25,333.375 344.25,47.625 344.25,47.625 573.75,47.625 573.75,333.375 573.75,333.375 344.25,333.375"/>
<polyline fill="none" stroke="#000000" stroke-width="0.5" points="573.75,47.625 344.25,47.625"/>
<polyline fill="none" stroke="#000000" stroke-width="0.5" points="573.75,47.625 573.75,333.375"/>
<polyline fill="none" stroke="#000000" stroke-width="0.5" points="573.75,47.625 573.75,47.625"/>
<polyline fill="none" stroke="#0000ff" stroke-width="0.5" points="344.25,73.147 345.146,73.9526 346.043,76.4043 346.939,80.6099 347.836,86.7803 348.732,95.2935 349.629,106.866 350.525,123.096 351.422,149.606 352.318,175.639 353.215,176.442 354.111,237.824 355.008,227.983 355.904,183.025 356.801,174.081 357.697,178.346 358.594,207.838 359.49,190.492 360.387,191.105 361.283,213.566 362.18,183.392 363.076,180.221 363.973,190.226 364.869,210.467 365.766,189.088 366.662,193.84 367.559,214.549 368.455,187.074 369.352,184.572 370.248,195.964 371.145,207.721 372.041,190.513 372.938,194.643 373.834,227.613 374.73,190.762 375.627,187.228 376.523,197.411 377.42,212.008 378.316,192.219 379.213,194.354 380.109,240.487 381.006,194.654 381.902,189.01 382.799,196.753 383.695,222.613 384.592,194.245 385.488,193.793 386.385,216.317 387.281,199.378 388.178,190.539 389.074,195.427 389.971,267.549 390.867,196.932 391.764,193.426 392.66,207.05 393.557,206.054 394.453,192.271 395.35,194.164 396.246,219.398 397.143,200.803 398.039,193.529 398.936,201.558 399.832,217.863 400.729,194.594 401.625,193.316 402.521,208.339 403.418,206.859 404.314,194.314 405.211,198.029 406.107,265.875 407.004,197.957 407.9,193.078 408.797,202.118 409.693,218.137 410.59,196.01 411.486,195.858 412.383,216.506 413.279,203.1 414.176,193.599 415.072,198.187 415.969,271.644 416.865,198.964 417.762,194.808 418.658,206.079 419.555,211.89 420.451,195.061 421.348,195.764 422.244,216.802 423.141,203.87 424.037,194.819 424.934,200.513 425.83,234.843 426.727,197.755 427.623,194.542 428.52,206.127 429.416,212.622 430.312,195.962 431.209,197.265 432.105,223.132 433.002,202.271 433.898,194.427 434.795,200.429 435.691,236.736 436.588,198.473 437.484,195.58 438.381,208.593 439.277,210.14 440.174,195.461 441.07,197.099 441.967,222.428 442.863,202.927 443.76,195.191 444.656,201.802 445.553,228.713 446.449,197.856 447.346,195.357 448.242,208.279 449.139,210.93 450.035,196.071 450.932,197.983 451.828,226.697 452.725,202.142 453.621,194.93 454.518,201.559 455.414,230.794 456.311,198.404 457.207,195.988 458.104,209.684 459,209.773 459.896,195.78 460.793,197.766 461.689,225.192 462.586,202.724 463.482,195.426 464.379,202.322 465.275,227.632 466.172,198.082 467.068,195.786 467.965,209.151 468.861,210.586 469.758,196.218 470.654,198.268 471.551,227.438 472.447,202.354 473.344,195.239 474.24,201.991 475.137,229.938 476.033,198.528 476.93,196.167 477.826,209.829 478.723,210.098 479.619,196.05 480.516,198.027 481.412,225.541 482.309,202.894 483.205,195.571 484.102,202.359 484.998,228.754 485.895,198.382 486.791,195.985 487.688,209.191 488.584,210.939 489.48,196.383 490.377,198.286 491.273,226.252 492.17,202.779 493.066,195.438 493.963,201.991 494.859,231.426 495.756,198.767 496.652,196.207 497.549,209.391 498.445,210.871 499.342,196.3 500.238,198.044 501.135,224.334 502.031,203.297 502.928,195.665 503.824,202.107 504.721,231.54 505.617,198.744 506.514,196.049 507.41,208.729 508.307,211.748 509.203,196.565 510.1,198.146 510.996,224.115 511.893,203.36 512.789,195.578 513.686,201.735 514.582,234.832 515.479,199.089 516.375,196.169 517.271,208.627 518.168,211.989 519.064,196.549 519.961,197.919 520.857,222.378 521.754,203.866 522.65,195.735 523.547,201.688 524.443,236.235 525.34,199.16 526.236,196.039 527.133,207.99 528.029,212.907 528.926,196.768 529.822,197.919 530.719,221.679 531.615,204.068 532.512,195.689 533.408,201.338 534.305,240.711 535.201,199.477 536.098,196.09 536.994,207.707 537.891,213.406 538.787,196.808 539.684,197.716 540.58,220.193 541.477,204.563 542.373,195.798 543.27,201.187 544.166,244.165 545.062,199.624 545.959,195.991 546.855,207.125 547.752,214.365 548.648,196.991 549.545,197.649 550.441,219.28 551.338,204.882 552.234,195.791 553.131,200.872 554.027,251.728 554.924,199.915 555.82,195.993 556.717,206.735 557.613,215.104 558.51,197.08 559.406,197.479 560.303,218.054 561.199,205.361 562.096,195.861 562.992,200.655 563.889,262.097 564.785,200.127 565.682,195.928 566.578,206.229 567.475,216.091 568.371,197.231 569.268,197.363 570.164,217.069 571.061,205.78 571.957,195.891 572.854,200.387"/>
<polyline fill="none" stroke="#007f00" stroke-width="0.5" points="344.25,66.6665 345.146,68.2007 346.043,73.0581 346.939,82.2832 347.836,99.6997 348.732,134.79 349.629,113.908 350.525,126.943 351.422,130.747 352.318,119.639 353.215,128.483 354.111,142.455 355.008,123.081 355.904,125.48 356.801,163.759 357.697,128.838 358.594,124.383 359.49,136.535 360.387,140.548 361.283,125.589 362.18,128.274 363.076,165.564 363.973,131.109 364.869,125.799 365.766,135.694 366.662,146.411 367.559,127.38 368.455,127.992 369.352,150.677 370.248,134.798 371.145,126.411 372.041,132.624 372.938,163.141 373.834,129.644 374.73,127.188 375.627,140.929 376.523,141.162 377.42,127.371 378.316,129.821 379.213,162.164 380.109,133.255 381.006,126.85 381.902,134.674 382.799,154.698 383.695,129.3 384.592,127.934 385.488,143.797 386.385,139.46 387.281,127.41 388.178,130.645 389.074,170.231 389.971,132.794 390.867,127.128 391.764,135.679 392.66,152.205 393.557,129.193 394.453,128.255 395.35,144.993 396.246,138.984 397.143,127.503 398.039,131.021 398.936,174.502 399.832,132.681 400.729,127.25 401.625,135.996 402.521,151.767 403.418,129.25 404.314,128.398 405.211,145.291 406.107,138.98 407.004,127.573 407.9,131.088 408.797,174.033 409.693,132.808 410.59,127.324 411.486,135.973 412.383,152.199 413.279,129.361 414.176,128.401 415.072,144.94 415.969,139.325 416.865,127.668 417.762,131.011 418.658,171.221 419.555,133.047 420.451,127.347 421.348,135.701 422.244,153.352 423.141,129.543 424.037,128.351 424.934,144.282 425.83,139.861 426.727,127.762 427.623,130.821 428.52,167.38 429.416,133.403 430.312,127.363 431.209,135.314 432.105,155.014 433.002,129.759 433.898,128.25 434.795,143.403 435.691,140.594 436.588,127.88 437.484,130.586 438.381,163.665 439.277,133.829 440.174,127.366 441.07,134.838 441.967,157.303 442.863,130.026 443.76,128.14 444.656,142.451 445.553,141.467 446.449,128.008 447.346,130.311 448.242,160.191 449.139,134.339 450.035,127.379 450.932,134.333 451.828,160.258 452.725,130.325 453.621,128.015 454.518,141.448 455.414,142.507 456.311,128.164 457.207,130.029 458.104,157.127 459,134.911 459.896,127.396 460.793,133.803 461.689,164.24 462.586,130.668 463.482,127.897 464.379,140.458 465.275,143.694 466.172,128.336 467.068,129.739 467.965,154.379 468.861,135.56 469.758,127.429 470.654,133.279 471.551,169.798 472.447,131.045 473.344,127.783 474.24,139.482 475.137,145.063 476.033,128.537 476.93,129.459 477.826,151.954 478.723,136.273 479.619,127.475 480.516,132.759 481.412,178.785 482.309,131.466 483.205,127.683 484.102,138.548 484.998,146.62 485.895,128.759 486.791,129.187 487.688,149.773 488.584,137.065 489.48,127.542 490.377,132.26 491.273,201.09 492.17,131.924 493.066,127.595 493.963,137.65 494.859,148.416 495.756,129.011 496.652,128.931 497.549,147.826 498.445,137.933 499.342,127.625 500.238,131.777 501.135,190.213 502.031,132.428 502.928,127.525 503.824,136.802 504.721,150.488 505.617,129.288 506.514,128.69 507.41,146.06 508.307,138.89 509.203,127.731 510.1,131.321 510.996,174.796 511.893,132.973 512.789,127.472 513.686,135.997 514.582,152.93 515.479,129.596 516.375,128.469 517.271,144.465 518.168,139.938 519.064,127.858 519.961,130.887 520.857,166.864 521.754,133.567 522.65,127.439 523.547,135.241 524.443,155.851 525.34,129.932 526.236,128.267 527.133,143.008 528.029,141.096 528.926,128.009 529.822,130.481 530.719,161.5 531.615,134.209 532.512,127.425 533.408,134.528 534.305,159.471 535.201,130.3 536.098,128.087 536.994,141.679 537.891,142.371 538.787,128.182 539.684,130.101 540.58,157.438 541.477,134.905 542.373,127.433 543.27,133.861 544.166,164.171 545.062,130.7 545.959,127.928 546.855,140.458 547.752,143.787 548.648,128.379 549.545,129.749 550.441,154.182 551.338,135.657 552.234,127.46 553.131,133.236 554.027,170.843 554.924,131.134 555.82,127.791 556.717,139.338 557.613,145.365 558.51,128.602 559.406,129.422 560.303,151.468 561.199,136.472 562.096,127.51 562.992,132.653 563.889,182.285 564.785,131.604 565.682,127.675 566.578,138.305 567.475,147.139 568.371,128.849 569.268,129.123 570.164,149.152 571.061,137.352 571.957,127.582 572.854,132.109"/>
<polyline fill="none" stroke="#ff0000" stroke-width="0.5" points="344.25,96.7583 345.146,96.8071 346.043,96.9541 346.939,97.1992 347.836,97.5425 348.732,97.9839 349.629,98.5239 350.525,99.1626 351.422,99.9009 352.318,100.738 353.215,101.676 354.111,102.714 355.008,103.854 355.904,105.096 356.801,106.44 357.697,107.889 358.594,109.443 359.49,111.103 360.387,112.872 361.283,114.751 362.18,116.743 363.076,118.851 363.973,121.078 364.869,123.427 365.766,125.905 366.662,128.518 367.559,131.272 368.455,134.18 369.352,137.251 370.248,140.505 371.145,143.963 372.041,147.654 372.938,151.622 373.834,155.927 374.73,160.665 375.627,165.985 376.523,172.159 377.42,179.73 378.316,190.094 379.213,209.413 380.109,214.747 381.006,197.594 381.902,191.083 382.799,187.58 383.695,185.517 384.592,184.296 385.488,183.622 386.385,183.325 387.281,183.298 388.178,183.469 389.074,183.788 389.971,184.217 390.867,184.727 391.764,185.296 392.66,185.909 393.557,186.55 394.453,187.209 395.35,187.88 396.246,188.554 397.143,189.229 398.039,189.898 398.936,190.562 399.832,191.216 400.729,191.86 401.625,192.494 402.521,193.116 403.418,193.728 404.314,194.327 405.211,194.916 406.107,195.494 407.004,196.061 407.9,196.618 408.797,197.166 409.693,197.703 410.59,198.232 411.486,198.752 412.383,199.264 413.279,199.768 414.176,200.263 415.072,200.752 415.969,201.233 416.865,201.708 417.762,202.176 418.658,202.638 419.555,203.094 420.451,203.544 421.348,203.988 422.244,204.427 423.141,204.86 424.037,205.289 424.934,205.712 425.83,206.131 426.727,206.545 427.623,206.955 428.52,207.36 429.416,207.761 430.312,208.158 431.209,208.551 432.105,208.939 433.002,209.325 433.898,209.707 434.795,210.085 435.691,210.46 436.588,210.832 437.484,211.2 438.381,211.565 439.277,211.927 440.174,212.287 441.07,212.643 441.967,212.997 442.863,213.348 443.76,213.696 444.656,214.042 445.553,214.385 446.449,214.726 447.346,215.065 448.242,215.401 449.139,215.735 450.035,216.067 450.932,216.397 451.828,216.726 452.725,217.052 453.621,217.376 454.518,217.698 455.414,218.019 456.311,218.338 457.207,218.655 458.104,218.971 459,219.285 459.896,219.598 460.793,219.909 461.689,220.219 462.586,220.528 463.482,220.835 464.379,221.141 465.275,221.446 466.172,221.75 467.068,222.053 467.965,222.354 468.861,222.656 469.758,222.956 470.654,223.254 471.551,223.553 472.447,223.85 473.344,224.147 474.24,224.443 475.137,224.738 476.033,225.033 476.93,225.327 477.826,225.621 478.723,225.915 479.619,226.208 480.516,226.5 481.412,226.792 482.309,227.084 483.205,227.376 484.102,227.668 484.998,227.96 485.895,228.251 486.791,228.543 487.688,228.835 488.584,229.127 489.48,229.419 490.377,229.711 491.273,230.004 492.17,230.296 493.066,230.59 493.963,230.884 494.859,231.178 495.756,231.473 496.652,231.769 497.549,232.065 498.445,232.362 499.342,232.66 500.238,232.958 501.135,233.258 502.031,233.559 502.928,233.861 503.824,234.165 504.721,234.469 505.617,234.775 506.514,235.082 507.41,235.391 508.307,235.702 509.203,236.014 510.1,236.328 510.996,236.644 511.893,236.962 512.789,237.282 513.686,237.605 514.582,237.93 515.479,238.257 516.375,238.587 517.271,238.919 518.168,239.255 519.064,239.594 519.961,239.936 520.857,240.281 521.754,240.629 522.65,240.981 523.547,241.337 524.443,241.698 525.34,242.062 526.236,242.431 527.133,242.805 528.029,243.183 528.926,243.567 529.822,243.956 530.719,244.351 531.615,244.751 532.512,245.158 533.408,245.572 534.305,245.993 535.201,246.421 536.098,246.857 536.994,247.301 537.891,247.753 538.787,248.216 539.684,248.688 540.58,249.169 541.477,249.663 542.373,250.167 543.27,250.684 544.166,251.214 545.062,251.759 545.959,252.318 546.855,252.894 547.752,253.486 548.648,254.098 549.545,254.729 550.441,255.382 551.338,256.059 552.234,256.76 553.131,257.49 554.027,258.25 554.924,259.042 555.82,259.872 556.717,260.741 557.613,261.655 558.51,262.62 559.406,263.641 560.303,264.725 561.199,265.882 562.096,267.123 562.992,268.46 563.889,269.913 564.785,271.501 565.682,273.254 566.578,275.212 567.475,277.43 568.371,279.987 569.268,283.01 570.164,286.707 571.061,291.471 571.957,298.183 572.854,309.654"/>
<polygon fill="#ffffff" points="570.138,50.8501 424.25,99.75 424.25,50.8501"/>
<polygon fill="#ffffff" points="570.138,99.75 424.25,99.75 570.138,50.8501"/>
<polyline fill="none" stroke="#000000" stroke-width="0.5" points="424.25,99.75 424.25,50.8501 570.138,50.8501 570.138,99.75 424.25,99.75"/>
<text fill="#000000" style="stroke:none" x="456" y="66" transform="rotate(0, 456, 66)" font-size="10" font-family="SansSerif" font-style="normal" font-weight="normal">Chebychef dp=0.001</text>
<text fill="#000000" style="stroke:none" x="456" y="80" transform="rotate(0, 456, 80)" font-size="10" font-family="SansSerif" font-style="normal" font-weight="normal">Chebychef dp=0.05</text>
<text fill="#000000" style="stroke:none" x="456" y="95" transform="rotate(0, 456, 95)" font-size="10" font-family="SansSerif" font-style="normal" font-weight="normal">Chebychef df=0.4</text>
<polyline fill="none" stroke="#ff0000" stroke-width="0.5" points="427.112,89.7002 438.562,89.7002 450.013,89.7002"/>
<polyline fill="none" stroke="#007f00" stroke-width="0.5" points="427.112,75.2998 438.562,75.2998 450.013,75.2998"/>
<polyline fill="none" stroke="#0000ff" stroke-width="0.5" points="427.112,60.8999 438.562,60.8999 450.013,60.8999"/>
<polyline fill="none" stroke="#000000" stroke-width="0.5" points="344.25,333.375 344.25,47.625"/>
<polyline fill="none" stroke="#000000" stroke-width="0.5" points="344.25,333.375 340.815,333.375"/>
<polyline fill="none" stroke="#000000" stroke-width="0.5" points="344.25,238.125 340.815,238.125"/>
<polyline fill="none" stroke="#000000" stroke-width="0.5" points="344.25,142.875 340.815,142.875"/>
<polyline fill="none" stroke="#000000" stroke-width="0.5" points="344.25,47.625 340.815,47.625"/>
<polyline fill="none" stroke="#000000" stroke-width="0.5" points="344.25,314.325 342.189,314.325"/>
<polyline fill="none" stroke="#000000" stroke-width="0.5" points="344.25,295.275 342.189,295.275"/>
<polyline fill="none" stroke="#000000" stroke-width="0.5" points="344.25,276.225 342.189,276.225"/>
<polyline fill="none" stroke="#000000" stroke-width="0.5" points="344.25,257.175 342.189,257.175"/>
<polyline fill="none" stroke="#000000" stroke-width="0.5" points="344.25,219.075 342.189,219.075"/>
<polyline fill="none" stroke="#000000" stroke-width="0.5" points="344.25,200.025 342.189,200.025"/>
<polyline fill="none" stroke="#000000" stroke-width="0.5" points="344.25,180.975 342.189,180.975"/>
<polyline fill="none" stroke="#000000" stroke-width="0.5" points="344.25,161.925 342.189,161.925"/>
<polyline fill="none" stroke="#000000" stroke-width="0.5" points="344.25,123.825 342.189,123.825"/>
<polyline fill="none" stroke="#000000" stroke-width="0.5" points="344.25,104.775 342.189,104.775"/>
<polyline fill="none" stroke="#000000" stroke-width="0.5" points="344.25,85.7251 342.189,85.7251"/>
<polyline fill="none" stroke="#000000" stroke-width="0.5" points="344.25,66.6748 342.189,66.6748"/>
<text fill="#000000" style="stroke:none" x="316" y="338" transform="rotate(-0, 316, 338)" font-size="10" font-family="SansSerif" font-style="normal" font-weight="normal">-100</text>
<text fill="#000000" style="stroke:none" x="322" y="243" transform="rotate(-0, 322, 243)" font-size="10" font-family="SansSerif" font-style="normal" font-weight="normal">-50</text>
<text fill="#000000" style="stroke:none" x="332" y="148" transform="rotate(-0, 332, 148)" font-size="10" font-family="SansSerif" font-style="normal" font-weight="normal">0</text>
<text fill="#000000" style="stroke:none" x="327" y="53" transform="rotate(-0, 327, 53)" font-size="10" font-family="SansSerif" font-style="normal" font-weight="normal">50</text>
<polyline fill="none" stroke="#bebebe" stroke-width="0.5" stroke-dasharray="4,4,4,4" points="344.25,333.375 573.75,333.375 573.75,333.375"/>
<polyline fill="none" stroke="#bebebe" stroke-width="0.5" stroke-dasharray="4,4,4,4" points="344.25,238.125 573.75,238.125 573.75,238.125"/>
<polyline fill="none" stroke="#bebebe" stroke-width="0.5" stroke-dasharray="4,4,4,4" points="344.25,142.875 573.75,142.875 573.75,142.875"/>
<polyline fill="none" stroke="#bebebe" stroke-width="0.5" stroke-dasharray="4,4,4,4" points="344.25,47.625 573.75,47.625 573.75,47.625"/>
<polyline fill="none" stroke="#000000" stroke-width="0.5" points="344.25,333.375 573.75,333.375"/>
<polyline fill="none" stroke="#000000" stroke-width="0.5" points="344.25,333.375 344.25,337.65"/>
<polyline fill="none" stroke="#000000" stroke-width="0.5" points="390.15,333.375 390.15,337.65"/>
<polyline fill="none" stroke="#000000" stroke-width="0.5" points="436.05,333.375 436.05,337.65"/>
<polyline fill="none" stroke="#000000" stroke-width="0.5" points="481.95,333.375 481.95,337.65"/>
<polyline fill="none" stroke="#000000" stroke-width="0.5" points="527.85,333.375 527.85,337.65"/>
<polyline fill="none" stroke="#000000" stroke-width="0.5" points="573.75,333.375 573.75,337.65"/>
<polyline fill="none" stroke="#000000" stroke-width="0.5" points="353.43,333.375 353.43,335.94"/>
<polyline fill="none" stroke="#000000" stroke-width="0.5" points="362.61,333.375 362.61,335.94"/>
<polyline fill="none" stroke="#000000" stroke-width="0.5" points="371.79,333.375 371.79,335.94"/>
<polyline fill="none" stroke="#000000" stroke-width="0.5" points="380.97,333.375 380.97,335.94"/>
<polyline fill="none" stroke="#000000" stroke-width="0.5" points="399.33,333.375 399.33,335.94"/>
<polyline fill="none" stroke="#000000" stroke-width="0.5" points="408.51,333.375 408.51,335.94"/>
<polyline fill="none" stroke="#000000" stroke-width="0.5" points="417.69,333.375 417.69,335.94"/>
<polyline fill="none" stroke="#000000" stroke-width="0.5" points="426.87,333.375 426.87,335.94"/>
<polyline fill="none" stroke="#000000" stroke-width="0.5" points="445.23,333.375 445.23,335.94"/>
<polyline fill="none" stroke="#000000" stroke-width="0.5" points="454.41,333.375 454.41,335.94"/>
<polyline fill="none" stroke="#000000" stroke-width="0.5" points="463.59,333.375 463.59,335.94"/>
<polyline fill="none" stroke="#000000" stroke-width="0.5" points="472.77,333.375 472.77,335.94"/>
<polyline fill="none" stroke="#000000" stroke-width="0.5" points="491.13,333.375 491.13,335.94"/>
<polyline fill="none" stroke="#000000" stroke-width="0.5" points="500.31,333.375 500.31,335.94"/>
<polyline fill="none" stroke="#000000" stroke-width="0.5" points="509.49,333.375 509.49,335.94"/>
<polyline fill="none" stroke="#000000" stroke-width="0.5" points="518.67,333.375 518.67,335.94"/>
<polyline fill="none" stroke="#000000" stroke-width="0.5" points="537.03,333.375 537.03,335.94"/>
<polyline fill="none" stroke="#000000" stroke-width="0.5" points="546.21,333.375 546.21,335.94"/>
<polyline fill="none" stroke="#000000" stroke-width="0.5" points="555.39,333.375 555.39,335.94"/>
<polyline fill="none" stroke="#000000" stroke-width="0.5" points="564.57,333.375 564.57,335.94"/>
<text fill="#000000" style="stroke:none" x="336" y="349" transform="rotate(-0, 336, 349)" font-size="10" font-family="SansSerif" font-style="normal" font-weight="normal">0.0</text>
<text fill="#000000" style="stroke:none" x="382" y="349" transform="rotate(-0, 382, 349)" font-size="10" font-family="SansSerif" font-style="normal" font-weight="normal">0.1</text>
<text fill="#000000" style="stroke:none" x="428" y="349" transform="rotate(-0, 428, 349)" font-size="10" font-family="SansSerif" font-style="normal" font-weight="normal">0.2</text>
<text fill="#000000" style="stroke:none" x="474" y="349" transform="rotate(-0, 474, 349)" font-size="10" font-family="SansSerif" font-style="normal" font-weight="normal">0.3</text>
<text fill="#000000" style="stroke:none" x="519" y="349" transform="rotate(-0, 519, 349)" font-size="10" font-family="SansSerif" font-style="normal" font-weight="normal">0.4</text>
<text fill="#000000" style="stroke:none" x="566" y="349" transform="rotate(-0, 566, 349)" font-size="10" font-family="SansSerif" font-style="normal" font-weight="normal">0.5</text>
<polyline fill="none" stroke="#bebebe" stroke-width="0.5" stroke-dasharray="4,4,4,4" points="344.25,333.375 344.25,47.625 344.25,47.625"/>
<polyline fill="none" stroke="#bebebe" stroke-width="0.5" stroke-dasharray="4,4,4,4" points="390.15,333.375 390.15,47.625 390.15,47.625"/>
<polyline fill="none" stroke="#bebebe" stroke-width="0.5" stroke-dasharray="4,4,4,4" points="436.05,333.375 436.05,47.625 436.05,47.625"/>
<polyline fill="none" stroke="#bebebe" stroke-width="0.5" stroke-dasharray="4,4,4,4" points="481.95,333.375 481.95,47.625 481.95,47.625"/>
<polyline fill="none" stroke="#bebebe" stroke-width="0.5" stroke-dasharray="4,4,4,4" points="527.85,333.375 527.85,47.625 527.85,47.625"/>
<polyline fill="none" stroke="#bebebe" stroke-width="0.5" stroke-dasharray="4,4,4,4" points="573.75,333.375 573.75,47.625 573.75,47.625"/>
<text fill="#000000" style="stroke:none" x="365" y="39" transform="rotate(0, 365, 39)" font-size="10" font-family="SansSerif" font-style="normal" font-weight="normal">Chebychev window Magnitude plot</text>
<text fill="#000000" style="stroke:none" x="419" y="363" transform="rotate(0, 419, 363)" font-size="10" font-family="SansSerif" font-style="normal" font-weight="normal">Pulsation (rd/s)</text>
<text fill="#000000" style="stroke:none" x="308" y="231" transform="rotate(270, 308, 231)" font-size="10" font-family="SansSerif" font-style="normal" font-weight="normal">Magnitude (dB)</text>
</g>
</svg>
