<?xml version="1.0" encoding="UTF-8" standalone="no"?>
<svg xmlns="http://www.w3.org/2000/svg"
     xmlns:xlink="http://www.w3.org/1999/xlink"
     width="612px" height="381px" viewBox="0 0 612 381"
     style="stroke:none">
<title>Figure n°0</title>
<desc>
Creator: GL2PS 1.3.2, (C) 1999-2006 Christophe Geuzaine (geuz@geuz.org)
For: Scilab
CreationDate: Fri May 27 09:14:46 2011
</desc>
<defs>
</defs>
<polygon fill="#ffffff" points="0,0 612,0 612,381 0,381"/>
<g>
<polygon fill="#ffffff" points="76.5,333.375 76.5,47.625 76.5,47.625"/>
<polygon fill="#ffffff" points="76.5,333.375 76.5,47.625 76.5,333.375"/>
<polygon fill="#ffffff" points="76.5,333.375 535.5,333.375 535.5,333.375"/>
<polygon fill="#ffffff" points="76.5,333.375 535.5,333.375 76.5,333.375"/>
<polygon fill="#ffffff" points="76.5,333.375 535.5,333.375 535.5,47.625"/>
<polygon fill="#ffffff" points="76.5,333.375 535.5,47.625 76.5,47.625"/>
<polyline fill="none" stroke="#000000" stroke-width="0.5" points="76.5,333.375 76.5,47.625 76.5,47.625 535.5,47.625 535.5,333.375 535.5,333.375 76.5,333.375"/>
<polyline fill="none" stroke="#000000" stroke-width="0.5" points="535.5,47.625 76.5,47.625"/>
<polyline fill="none" stroke="#000000" stroke-width="0.5" points="535.5,47.625 535.5,333.375"/>
<polyline fill="none" stroke="#000000" stroke-width="0.5" points="535.5,47.625 535.5,47.625"/>
<polyline fill="none" stroke="#0000ff" stroke-width="0.5" points="79.7788,107.676 83.0571,106.061 86.3359,104.464 89.6143,102.885 92.8931,101.324 96.1714,99.7812 99.4502,98.2573 102.729,96.7524 106.007,95.2666 109.286,93.8003 112.564,92.353 115.843,90.9263 119.122,89.519 122.4,88.1323 125.679,86.7656 128.957,85.4194 132.236,84.0942 135.514,82.7905 138.793,81.5073 142.071,80.2456 145.35,79.0059 148.628,77.7876 151.907,76.5913 155.186,75.417 158.464,74.2651 161.743,73.1353 165.021,72.0283 168.3,70.9443 171.579,69.8833 174.857,68.8452 178.136,67.8301 181.414,66.8389 184.693,65.8711 187.972,64.9268 191.25,64.0063 194.529,63.1099 197.807,62.2378 201.086,61.3896 204.364,60.5659 207.643,59.7666 210.921,58.9922 214.2,58.2422 217.479,57.5171 220.757,56.8169 224.036,56.1416 227.314,55.4917 230.593,54.8667 233.872,54.2676 237.15,53.6934 240.429,53.145 243.707,52.6221 246.986,52.125 250.264,51.6533 253.543,51.2075 256.821,50.7876 260.1,50.394 263.378,50.0259 266.657,49.6841 269.936,49.3682 273.214,49.0786 276.493,48.8154 279.771,48.5781 283.05,48.3672 286.329,48.1826 289.607,48.0244 292.886,47.8921 296.164,47.7866 299.443,47.7075 302.721,47.6548 306,47.6284 309.279,47.6284 312.557,47.6548 315.836,47.7075 319.114,47.7866 322.393,47.8921 325.671,48.0244 328.95,48.1826 332.229,48.3672 335.507,48.5781 338.786,48.8154 342.064,49.0786 345.343,49.3682 348.622,49.6841 351.9,50.0259 355.179,50.394 358.457,50.7876 361.736,51.2075 365.014,51.6533 368.293,52.125 371.571,52.6221 374.85,53.145 378.128,53.6934 381.407,54.2676 384.686,54.8667 387.964,55.4917 391.243,56.1416 394.521,56.8169 397.8,57.5171 401.079,58.2422 404.357,58.9922 407.636,59.7666 410.914,60.5659 414.193,61.3896 417.471,62.2378 420.75,63.1099 424.029,64.0063 427.307,64.9268 430.586,65.8711 433.864,66.8389 437.143,67.8301 440.421,68.8452 443.7,69.8833 446.979,70.9443 450.257,72.0283 453.536,73.1353 456.814,74.2651 460.093,75.417 463.372,76.5913 466.65,77.7876 469.929,79.0059 473.207,80.2456 476.486,81.5073 479.764,82.7905 483.043,84.0942 486.321,85.4194 489.6,86.7656 492.878,88.1323 496.157,89.519 499.436,90.9263 502.714,92.353 505.993,93.8003 509.271,95.2666 512.55,96.7524 515.829,98.2573 519.107,99.7812 522.386,101.324 525.665,102.885 528.943,104.464 532.221,106.061 535.5,107.676"/>
<polyline fill="none" stroke="#007f00" stroke-width="0.5" points="79.7788,208.023 83.0571,204.417 86.3359,200.811 89.6143,197.209 92.8931,193.613 96.1714,190.023 99.4502,186.443 102.729,182.873 106.007,179.315 109.286,175.771 112.564,172.243 115.843,168.733 119.122,165.242 122.4,161.772 125.679,158.326 128.957,154.903 132.236,151.507 135.514,148.139 138.793,144.801 142.071,141.495 145.35,138.221 148.628,134.982 151.907,131.78 155.186,128.616 158.464,125.492 161.743,122.41 165.021,119.37 168.3,116.375 171.579,113.426 174.857,110.524 178.136,107.672 181.414,104.871 184.693,102.122 187.972,99.4263 191.25,96.7856 194.529,94.2012 197.807,91.6748 201.086,89.207 204.364,86.8003 207.643,84.4546 210.921,82.1724 214.2,79.9541 217.479,77.8008 220.757,75.7144 224.036,73.6948 227.314,71.7446 230.593,69.8638 233.872,68.0532 237.15,66.3149 240.429,64.6484 243.707,63.0562 246.986,61.5376 250.264,60.0942 253.543,58.7271 256.821,57.436 260.1,56.2227 263.378,55.0869 266.657,54.0298 269.936,53.0518 273.214,52.1538 276.493,51.3354 279.771,50.5977 283.05,49.9409 286.329,49.3657 289.607,48.8721 292.886,48.46 296.164,48.1304 299.443,47.8828 302.721,47.7178 306,47.6353 309.279,47.6353 312.557,47.7178 315.836,47.8828 319.114,48.1304 322.393,48.46 325.671,48.8721 328.95,49.3657 332.229,49.9409 335.507,50.5977 338.786,51.3354 342.064,52.1538 345.343,53.0518 348.622,54.0298 351.9,55.0869 355.179,56.2227 358.457,57.436 361.736,58.7271 365.014,60.0942 368.293,61.5376 371.571,63.0562 374.85,64.6484 378.128,66.3149 381.407,68.0532 384.686,69.8638 387.964,71.7446 391.243,73.6948 394.521,75.7144 397.8,77.8008 401.079,79.9541 404.357,82.1724 407.636,84.4546 410.914,86.8003 414.193,89.207 417.471,91.6748 420.75,94.2012 424.029,96.7856 427.307,99.4263 430.586,102.122 433.864,104.871 437.143,107.672 440.421,110.524 443.7,113.426 446.979,116.375 450.257,119.37 453.536,122.41 456.814,125.492 460.093,128.616 463.372,131.78 466.65,134.982 469.929,138.221 473.207,141.495 476.486,144.801 479.764,148.139 483.043,151.507 486.321,154.903 489.6,158.326 492.878,161.772 496.157,165.242 499.436,168.733 502.714,172.243 505.993,175.771 509.271,179.315 512.55,182.873 515.829,186.443 519.107,190.023 522.386,193.613 525.665,197.209 528.943,200.811 532.221,204.417 535.5,208.023"/>
<polyline fill="none" stroke="#ff0000" stroke-width="0.5" points="79.7788,308.092 83.0571,305.119 86.3359,302.021 89.6143,298.8 92.8931,295.457 96.1714,291.994 99.4502,288.412 102.729,284.714 106.007,280.904 109.286,276.982 112.564,272.953 115.843,268.82 119.122,264.586 122.4,260.256 125.679,255.833 128.957,251.322 132.236,246.728 135.514,242.054 138.793,237.307 142.071,232.492 145.35,227.613 148.628,222.677 151.907,217.689 155.186,212.657 158.464,207.584 161.743,202.479 165.021,197.348 168.3,192.197 171.579,187.033 174.857,181.863 178.136,176.694 181.414,171.533 184.693,166.387 187.972,161.263 191.25,156.169 194.529,151.111 197.807,146.098 201.086,141.136 204.364,136.232 207.643,131.395 210.921,126.63 214.2,121.945 217.479,117.348 220.757,112.844 224.036,108.442 227.314,104.147 230.593,99.9673 233.872,95.9077 237.15,91.9751 240.429,88.1763 243.707,84.5161 246.986,81.0015 250.264,77.6372 253.543,74.4287 256.821,71.3813 260.1,68.5 263.378,65.7891 266.657,63.2529 269.936,60.8955 273.214,58.7212 276.493,56.7329 279.771,54.9346 283.05,53.3281 286.329,51.917 289.607,50.7031 292.886,49.6885 296.164,48.8745 299.443,48.2632 302.721,47.855 306,47.6504 309.279,47.6504 312.557,47.855 315.836,48.2632 319.114,48.8745 322.393,49.6885 325.671,50.7031 328.95,51.917 332.229,53.3281 335.507,54.9346 338.786,56.7329 342.064,58.7212 345.343,60.8955 348.622,63.2529 351.9,65.7891 355.179,68.5 358.457,71.3813 361.736,74.4287 365.014,77.6372 368.293,81.0015 371.571,84.5161 374.85,88.1763 378.128,91.9751 381.407,95.9077 384.686,99.9673 387.964,104.147 391.243,108.442 394.521,112.844 397.8,117.348 401.079,121.945 404.357,126.63 407.636,131.395 410.914,136.232 414.193,141.136 417.471,146.098 420.75,151.111 424.029,156.169 427.307,161.263 430.586,166.387 433.864,171.533 437.143,176.694 440.421,181.863 443.7,187.033 446.979,192.197 450.257,197.348 453.536,202.479 456.814,207.584 460.093,212.657 463.372,217.689 466.65,222.677 469.929,227.613 473.207,232.492 476.486,237.307 479.764,242.054 483.043,246.728 486.321,251.322 489.6,255.833 492.878,260.256 496.157,264.586 499.436,268.82 502.714,272.953 505.993,276.982 509.271,280.904 512.55,284.714 515.829,288.412 519.107,291.994 522.386,295.457 525.665,298.8 528.943,302.021 532.221,305.119 535.5,308.092"/>
<polyline fill="none" stroke="#00bfbf" stroke-width="0.5" points="79.7788,332.707 83.0571,332.364 86.3359,331.948 89.6143,331.448 92.8931,330.857 96.1714,330.167 99.4502,329.367 102.729,328.448 106.007,327.402 109.286,326.219 112.564,324.89 115.843,323.406 119.122,321.757 122.4,319.936 125.679,317.933 128.957,315.741 132.236,313.352 135.514,310.758 138.793,307.955 142.071,304.936 145.35,301.696 148.628,298.231 151.907,294.538 155.186,290.614 158.464,286.459 161.743,282.073 165.021,277.457 168.3,272.611 171.579,267.542 174.857,262.252 178.136,256.748 181.414,251.038 184.693,245.128 187.972,239.031 191.25,232.756 194.529,226.316 197.807,219.726 201.086,212.998 204.364,206.15 207.643,199.199 210.921,192.163 214.2,185.061 217.479,177.913 220.757,170.739 224.036,163.562 227.314,156.405 230.593,149.288 233.872,142.236 237.15,135.272 240.429,128.421 243.707,121.704 246.986,115.146 250.264,108.772 253.543,102.603 256.821,96.6616 260.1,90.9717 263.378,85.5532 266.657,80.4272 269.936,75.6138 273.214,71.1313 276.493,66.9976 279.771,63.228 283.05,59.8389 286.329,56.8423 289.607,54.2515 292.886,52.0757 296.164,50.3247 299.443,49.0054 302.721,48.1226 306,47.6802 309.279,47.6802 312.557,48.1226 315.836,49.0054 319.114,50.3247 322.393,52.0757 325.671,54.2515 328.95,56.8423 332.229,59.8389 335.507,63.228 338.786,66.9976 342.064,71.1313 345.343,75.6138 348.622,80.4272 351.9,85.5532 355.179,90.9717 358.457,96.6616 361.736,102.603 365.014,108.772 368.293,115.146 371.571,121.704 374.85,128.421 378.128,135.272 381.407,142.236 384.686,149.288 387.964,156.405 391.243,163.562 394.521,170.739 397.8,177.913 401.079,185.061 404.357,192.163 407.636,199.199 410.914,206.15 414.193,212.998 417.471,219.726 420.75,226.316 424.029,232.756 427.307,239.031 430.586,245.128 433.864,251.038 437.143,256.748 440.421,262.252 443.7,267.542 446.979,272.611 450.257,277.457 453.536,282.073 456.814,286.459 460.093,290.614 463.372,294.538 466.65,298.231 469.929,301.696 473.207,304.936 476.486,307.955 479.764,310.758 483.043,313.352 486.321,315.741 489.6,317.933 492.878,319.936 496.157,321.757 499.436,323.406 502.714,324.89 505.993,326.219 509.271,327.402 512.55,328.448 515.829,329.367 519.107,330.167 522.386,330.857 525.665,331.448 528.943,331.948 532.221,332.364 535.5,332.707"/>
<polyline fill="none" stroke="#bf00bf" stroke-width="0.5" points="79.7788,333.375 83.0571,333.374 86.3359,333.372 89.6143,333.369 92.8931,333.363 96.1714,333.354 99.4502,333.341 102.729,333.321 106.007,333.293 109.286,333.253 112.564,333.199 115.843,333.126 119.122,333.029 122.4,332.903 125.679,332.74 128.957,332.533 132.236,332.273 135.514,331.948 138.793,331.548 142.071,331.06 145.35,330.469 148.628,329.759 151.907,328.914 155.186,327.914 158.464,326.74 161.743,325.373 165.021,323.79 168.3,321.968 171.579,319.887 174.857,317.521 178.136,314.851 181.414,311.851 184.693,308.502 187.972,304.783 191.25,300.676 194.529,296.164 197.807,291.234 201.086,285.875 204.364,280.079 207.643,273.843 210.921,267.167 214.2,260.057 217.479,252.523 220.757,244.58 224.036,236.248 227.314,227.554 230.593,218.529 233.872,209.211 237.15,199.641 240.429,189.866 243.707,179.94 246.986,169.919 250.264,159.863 253.543,149.837 256.821,139.909 260.1,130.146 263.378,120.619 266.657,111.4 269.936,102.56 273.214,94.167 276.493,86.29 279.771,78.9937 283.05,72.3389 286.329,66.3823 289.607,61.1758 292.886,56.7642 296.164,53.187 299.443,50.4756 302.721,48.6543 306,47.7397 309.279,47.7397 312.557,48.6543 315.836,50.4756 319.114,53.187 322.393,56.7642 325.671,61.1758 328.95,66.3823 332.229,72.3389 335.507,78.9937 338.786,86.29 342.064,94.167 345.343,102.56 348.622,111.4 351.9,120.619 355.179,130.146 358.457,139.909 361.736,149.837 365.014,159.863 368.293,169.919 371.571,179.94 374.85,189.866 378.128,199.641 381.407,209.211 384.686,218.529 387.964,227.554 391.243,236.248 394.521,244.58 397.8,252.523 401.079,260.057 404.357,267.167 407.636,273.843 410.914,280.079 414.193,285.875 417.471,291.234 420.75,296.164 424.029,300.676 427.307,304.783 430.586,308.502 433.864,311.851 437.143,314.851 440.421,317.521 443.7,319.887 446.979,321.968 450.257,323.79 453.536,325.373 456.814,326.74 460.093,327.914 463.372,328.914 466.65,329.759 469.929,330.469 473.207,331.06 476.486,331.548 479.764,331.948 483.043,332.273 486.321,332.533 489.6,332.74 492.878,332.903 496.157,333.029 499.436,333.126 502.714,333.199 505.993,333.253 509.271,333.293 512.55,333.321 515.829,333.341 519.107,333.354 522.386,333.363 525.665,333.369 528.943,333.372 532.221,333.374 535.5,333.375"/>
<polygon fill="#ffffff" points="351.013,247 256,318.7 256,247"/>
<polygon fill="#ffffff" points="351.013,318.7 256,318.7 351.013,247"/>
<polyline fill="none" stroke="#000000" stroke-width="0.5" points="256,318.7 256,247 351.013,247 351.013,318.7 256,318.7"/>
<g fill="#000000" stroke="black" transform="rotate(0,318,261) translate(318,261)"><!--Generated by the Batik Graphics2D SVG Generator--><defs id="genericDefs"
  /><g
  ><g transform="matrix(1,0,0,1,0,-13) scale(10,10) translate(0.1,0.8944)" style="font-size:1; text-rendering:geometricPrecision; color-rendering:optimizeQuality; image-rendering:optimizeQuality; font-family:&apos;jlm_cmmi10&apos;; color-interpolation:linearRGB;"
    ><path style="stroke:none;" d="M0.0312 0.1719 L0.1875 -0.4375 Q0.2031 -0.5469 0.2969 -0.625 Q0.375 -0.7031 0.4531 -0.7031 Q0.5312 -0.7031 0.5781 -0.6406 Q0.5938 -0.6094 0.5938 -0.5781 Q0.5938 -0.5 0.5312 -0.4375 Q0.5 -0.4219 0.4844 -0.4062 Q0.5469 -0.3594 0.5469 -0.2656 Q0.5469 -0.1562 0.4688 -0.0781 Q0.3906 0 0.2969 0.0156 L0.2812 0.0156 Q0.1875 0.0156 0.1406 -0.0625 Q0.125 -0.0781 0.125 -0.1094 L0.0469 0.1875 L0.0469 0.1875 Q0.0469 0.1875 0.0312 0.1875 Q0.0312 0.1875 0.0312 0.1875 Q0.0312 0.1875 0.0312 0.1719 ZM0.3281 -0.4062 Q0.3438 -0.3906 0.375 -0.3906 Q0.4062 -0.3906 0.4219 -0.4062 Q0.4062 -0.4062 0.375 -0.4062 Q0.3438 -0.4062 0.3281 -0.4062 ZM0.4531 -0.4219 Q0.5156 -0.4688 0.5312 -0.5781 L0.5312 -0.5781 L0.5312 -0.5781 Q0.5312 -0.5938 0.5312 -0.6094 Q0.5312 -0.6719 0.4688 -0.6875 Q0.4688 -0.6875 0.4531 -0.6875 Q0.375 -0.6875 0.2969 -0.6094 Q0.2344 -0.5312 0.2031 -0.4219 L0.1562 -0.2344 Q0.1406 -0.1719 0.1406 -0.1562 Q0.1406 -0.0781 0.2031 -0.0312 Q0.2344 -0.0156 0.2812 -0.0156 Q0.3594 -0.0156 0.4219 -0.0938 Q0.4219 -0.1094 0.4219 -0.1094 Q0.4688 -0.1719 0.4688 -0.2812 Q0.4688 -0.2969 0.4688 -0.2969 Q0.4688 -0.3594 0.4531 -0.3906 Q0.4062 -0.375 0.375 -0.375 Q0.2969 -0.375 0.2969 -0.4062 Q0.2969 -0.4375 0.375 -0.4375 Q0.4219 -0.4375 0.4531 -0.4219 Z"
    /></g
    ><g transform="matrix(10,0,0,10,0,-13) translate(0.9434,0.8944)" style="font-size:1; text-rendering:geometricPrecision; color-rendering:optimizeQuality; image-rendering:optimizeQuality; font-family:&apos;jlm_cmr10&apos;; color-interpolation:linearRGB;"
    ><path style="stroke:none;" d="M0.6875 -0.3281 L0.0938 -0.3281 Q0.0625 -0.3281 0.0625 -0.3438 Q0.0625 -0.3594 0.0938 -0.3594 L0.6875 -0.3594 Q0.7188 -0.3594 0.7188 -0.3438 Q0.7188 -0.3281 0.6875 -0.3281 ZM0.6875 -0.1406 L0.0938 -0.1406 Q0.0625 -0.1406 0.0625 -0.1562 Q0.0625 -0.1719 0.0938 -0.1719 L0.6875 -0.1719 Q0.7188 -0.1719 0.7188 -0.1562 Q0.7188 -0.1406 0.6875 -0.1406 Z"
    /></g
    ><g transform="matrix(10,0,0,10,0,-13) translate(1.999,0.8944)" style="font-size:1; text-rendering:geometricPrecision; color-rendering:optimizeQuality; image-rendering:optimizeQuality; font-family:&apos;jlm_cmr10&apos;; color-interpolation:linearRGB;"
    ><path style="stroke:none;" d="M0.2969 -0.6406 L0.2969 -0.0781 Q0.2969 -0.0469 0.3125 -0.0469 Q0.3281 -0.0312 0.3906 -0.0312 L0.4219 -0.0312 L0.4219 0 Q0.3906 0 0.25 0 Q0.125 0 0.0938 0 L0.0938 -0.0312 L0.125 -0.0312 Q0.2031 -0.0312 0.2188 -0.0469 L0.2188 -0.0469 Q0.2188 -0.0625 0.2188 -0.0781 L0.2188 -0.5938 Q0.1719 -0.5781 0.0938 -0.5781 L0.0938 -0.6094 Q0.2031 -0.6094 0.2656 -0.6719 Q0.2969 -0.6719 0.2969 -0.6562 L0.2969 -0.6562 L0.2969 -0.6562 Q0.2969 -0.6562 0.2969 -0.6406 Z"
    /></g
  ></g
></g>
<g fill="#000000" stroke="black" transform="rotate(0,318,274) translate(318,274)"><!--Generated by the Batik Graphics2D SVG Generator--><defs id="genericDefs"
  /><g
  ><g transform="matrix(1,0,0,1,0,-13) scale(10,10) translate(0.1,0.8944)" style="font-size:1; text-rendering:geometricPrecision; color-rendering:optimizeQuality; image-rendering:optimizeQuality; font-family:&apos;jlm_cmmi10&apos;; color-interpolation:linearRGB;"
    ><path style="stroke:none;" d="M0.0312 0.1719 L0.1875 -0.4375 Q0.2031 -0.5469 0.2969 -0.625 Q0.375 -0.7031 0.4531 -0.7031 Q0.5312 -0.7031 0.5781 -0.6406 Q0.5938 -0.6094 0.5938 -0.5781 Q0.5938 -0.5 0.5312 -0.4375 Q0.5 -0.4219 0.4844 -0.4062 Q0.5469 -0.3594 0.5469 -0.2656 Q0.5469 -0.1562 0.4688 -0.0781 Q0.3906 0 0.2969 0.0156 L0.2812 0.0156 Q0.1875 0.0156 0.1406 -0.0625 Q0.125 -0.0781 0.125 -0.1094 L0.0469 0.1875 L0.0469 0.1875 Q0.0469 0.1875 0.0312 0.1875 Q0.0312 0.1875 0.0312 0.1875 Q0.0312 0.1875 0.0312 0.1719 ZM0.3281 -0.4062 Q0.3438 -0.3906 0.375 -0.3906 Q0.4062 -0.3906 0.4219 -0.4062 Q0.4062 -0.4062 0.375 -0.4062 Q0.3438 -0.4062 0.3281 -0.4062 ZM0.4531 -0.4219 Q0.5156 -0.4688 0.5312 -0.5781 L0.5312 -0.5781 L0.5312 -0.5781 Q0.5312 -0.5938 0.5312 -0.6094 Q0.5312 -0.6719 0.4688 -0.6875 Q0.4688 -0.6875 0.4531 -0.6875 Q0.375 -0.6875 0.2969 -0.6094 Q0.2344 -0.5312 0.2031 -0.4219 L0.1562 -0.2344 Q0.1406 -0.1719 0.1406 -0.1562 Q0.1406 -0.0781 0.2031 -0.0312 Q0.2344 -0.0156 0.2812 -0.0156 Q0.3594 -0.0156 0.4219 -0.0938 Q0.4219 -0.1094 0.4219 -0.1094 Q0.4688 -0.1719 0.4688 -0.2812 Q0.4688 -0.2969 0.4688 -0.2969 Q0.4688 -0.3594 0.4531 -0.3906 Q0.4062 -0.375 0.375 -0.375 Q0.2969 -0.375 0.2969 -0.4062 Q0.2969 -0.4375 0.375 -0.4375 Q0.4219 -0.4375 0.4531 -0.4219 Z"
    /></g
    ><g transform="matrix(10,0,0,10,0,-13) translate(0.9434,0.8944)" style="font-size:1; text-rendering:geometricPrecision; color-rendering:optimizeQuality; image-rendering:optimizeQuality; font-family:&apos;jlm_cmr10&apos;; color-interpolation:linearRGB;"
    ><path style="stroke:none;" d="M0.6875 -0.3281 L0.0938 -0.3281 Q0.0625 -0.3281 0.0625 -0.3438 Q0.0625 -0.3594 0.0938 -0.3594 L0.6875 -0.3594 Q0.7188 -0.3594 0.7188 -0.3438 Q0.7188 -0.3281 0.6875 -0.3281 ZM0.6875 -0.1406 L0.0938 -0.1406 Q0.0625 -0.1406 0.0625 -0.1562 Q0.0625 -0.1719 0.0938 -0.1719 L0.6875 -0.1719 Q0.7188 -0.1719 0.7188 -0.1562 Q0.7188 -0.1406 0.6875 -0.1406 Z"
    /></g
    ><g transform="matrix(10,0,0,10,0,-13) translate(1.999,0.8944)" style="font-size:1; text-rendering:geometricPrecision; color-rendering:optimizeQuality; image-rendering:optimizeQuality; font-family:&apos;jlm_cmr10&apos;; color-interpolation:linearRGB;"
    ><path style="stroke:none;" d="M0.4531 -0.1719 L0.4531 -0.1719 L0.4219 0 L0.0469 0 Q0.0469 -0.0312 0.0625 -0.0312 L0.0625 -0.0312 L0.25 -0.25 Q0.3594 -0.375 0.3594 -0.4688 Q0.3594 -0.5625 0.2969 -0.6094 L0.2969 -0.6094 L0.2969 -0.6094 Q0.2656 -0.6406 0.2188 -0.6406 Q0.1562 -0.6406 0.1094 -0.5781 Q0.0938 -0.5625 0.0938 -0.5312 Q0.0938 -0.5312 0.1094 -0.5312 Q0.1406 -0.5312 0.1562 -0.5 L0.1562 -0.5 Q0.1562 -0.4844 0.1562 -0.4844 Q0.1562 -0.4375 0.1094 -0.4375 Q0.1094 -0.4219 0.1094 -0.4219 Q0.0625 -0.4219 0.0469 -0.4531 Q0.0469 -0.4688 0.0469 -0.4844 Q0.0469 -0.5625 0.1094 -0.6094 Q0.1562 -0.6719 0.2344 -0.6719 Q0.3438 -0.6719 0.4062 -0.5938 Q0.4375 -0.5469 0.4531 -0.4844 Q0.4531 -0.4844 0.4531 -0.4688 Q0.4531 -0.4062 0.3906 -0.3281 Q0.3594 -0.2969 0.2969 -0.25 L0.25 -0.1875 L0.2344 -0.1875 L0.125 -0.0781 L0.3125 -0.0781 Q0.3906 -0.0781 0.4062 -0.0781 Q0.4062 -0.0938 0.4219 -0.1719 L0.4531 -0.1719 Z"
    /></g
  ></g
></g>
<g fill="#000000" stroke="black" transform="rotate(0,318,287) translate(318,287)"><!--Generated by the Batik Graphics2D SVG Generator--><defs id="genericDefs"
  /><g
  ><g transform="matrix(1,0,0,1,0,-13) scale(10,10) translate(0.1,0.8944)" style="font-size:1; text-rendering:geometricPrecision; color-rendering:optimizeQuality; image-rendering:optimizeQuality; font-family:&apos;jlm_cmmi10&apos;; color-interpolation:linearRGB;"
    ><path style="stroke:none;" d="M0.0312 0.1719 L0.1875 -0.4375 Q0.2031 -0.5469 0.2969 -0.625 Q0.375 -0.7031 0.4531 -0.7031 Q0.5312 -0.7031 0.5781 -0.6406 Q0.5938 -0.6094 0.5938 -0.5781 Q0.5938 -0.5 0.5312 -0.4375 Q0.5 -0.4219 0.4844 -0.4062 Q0.5469 -0.3594 0.5469 -0.2656 Q0.5469 -0.1562 0.4688 -0.0781 Q0.3906 0 0.2969 0.0156 L0.2812 0.0156 Q0.1875 0.0156 0.1406 -0.0625 Q0.125 -0.0781 0.125 -0.1094 L0.0469 0.1875 L0.0469 0.1875 Q0.0469 0.1875 0.0312 0.1875 Q0.0312 0.1875 0.0312 0.1875 Q0.0312 0.1875 0.0312 0.1719 ZM0.3281 -0.4062 Q0.3438 -0.3906 0.375 -0.3906 Q0.4062 -0.3906 0.4219 -0.4062 Q0.4062 -0.4062 0.375 -0.4062 Q0.3438 -0.4062 0.3281 -0.4062 ZM0.4531 -0.4219 Q0.5156 -0.4688 0.5312 -0.5781 L0.5312 -0.5781 L0.5312 -0.5781 Q0.5312 -0.5938 0.5312 -0.6094 Q0.5312 -0.6719 0.4688 -0.6875 Q0.4688 -0.6875 0.4531 -0.6875 Q0.375 -0.6875 0.2969 -0.6094 Q0.2344 -0.5312 0.2031 -0.4219 L0.1562 -0.2344 Q0.1406 -0.1719 0.1406 -0.1562 Q0.1406 -0.0781 0.2031 -0.0312 Q0.2344 -0.0156 0.2812 -0.0156 Q0.3594 -0.0156 0.4219 -0.0938 Q0.4219 -0.1094 0.4219 -0.1094 Q0.4688 -0.1719 0.4688 -0.2812 Q0.4688 -0.2969 0.4688 -0.2969 Q0.4688 -0.3594 0.4531 -0.3906 Q0.4062 -0.375 0.375 -0.375 Q0.2969 -0.375 0.2969 -0.4062 Q0.2969 -0.4375 0.375 -0.4375 Q0.4219 -0.4375 0.4531 -0.4219 Z"
    /></g
    ><g transform="matrix(10,0,0,10,0,-13) translate(0.9434,0.8944)" style="font-size:1; text-rendering:geometricPrecision; color-rendering:optimizeQuality; image-rendering:optimizeQuality; font-family:&apos;jlm_cmr10&apos;; color-interpolation:linearRGB;"
    ><path style="stroke:none;" d="M0.6875 -0.3281 L0.0938 -0.3281 Q0.0625 -0.3281 0.0625 -0.3438 Q0.0625 -0.3594 0.0938 -0.3594 L0.6875 -0.3594 Q0.7188 -0.3594 0.7188 -0.3438 Q0.7188 -0.3281 0.6875 -0.3281 ZM0.6875 -0.1406 L0.0938 -0.1406 Q0.0625 -0.1406 0.0625 -0.1562 Q0.0625 -0.1719 0.0938 -0.1719 L0.6875 -0.1719 Q0.7188 -0.1719 0.7188 -0.1562 Q0.7188 -0.1406 0.6875 -0.1406 Z"
    /></g
    ><g transform="matrix(10,0,0,10,0,-13) translate(1.999,0.8944)" style="font-size:1; text-rendering:geometricPrecision; color-rendering:optimizeQuality; image-rendering:optimizeQuality; font-family:&apos;jlm_cmr10&apos;; color-interpolation:linearRGB;"
    ><path style="stroke:none;" d="M0.0312 -0.1719 L0.0312 -0.2031 L0.3281 -0.6719 Q0.3438 -0.6719 0.3594 -0.6719 Q0.375 -0.6719 0.375 -0.6719 L0.375 -0.6562 L0.375 -0.2031 L0.4688 -0.2031 L0.4688 -0.1719 L0.375 -0.1719 L0.375 -0.0781 Q0.375 -0.0469 0.3906 -0.0469 Q0.3906 -0.0312 0.4531 -0.0312 L0.4688 -0.0312 L0.4688 0 Q0.4219 0 0.3281 0 Q0.2344 0 0.2031 0 L0.2031 -0.0312 L0.2188 -0.0312 Q0.2812 -0.0312 0.2969 -0.0469 Q0.2969 -0.0625 0.2969 -0.0781 L0.2969 -0.1719 L0.0312 -0.1719 ZM0.2969 -0.2031 L0.2969 -0.5625 L0.0625 -0.2031 L0.2969 -0.2031 Z"
    /></g
  ></g
></g>
<g fill="#000000" stroke="black" transform="rotate(0,318,301) translate(318,301)"><!--Generated by the Batik Graphics2D SVG Generator--><defs id="genericDefs"
  /><g
  ><g transform="matrix(1,0,0,1,0,-13) scale(10,10) translate(0.1,0.8944)" style="font-size:1; text-rendering:geometricPrecision; color-rendering:optimizeQuality; image-rendering:optimizeQuality; font-family:&apos;jlm_cmmi10&apos;; color-interpolation:linearRGB;"
    ><path style="stroke:none;" d="M0.0312 0.1719 L0.1875 -0.4375 Q0.2031 -0.5469 0.2969 -0.625 Q0.375 -0.7031 0.4531 -0.7031 Q0.5312 -0.7031 0.5781 -0.6406 Q0.5938 -0.6094 0.5938 -0.5781 Q0.5938 -0.5 0.5312 -0.4375 Q0.5 -0.4219 0.4844 -0.4062 Q0.5469 -0.3594 0.5469 -0.2656 Q0.5469 -0.1562 0.4688 -0.0781 Q0.3906 0 0.2969 0.0156 L0.2812 0.0156 Q0.1875 0.0156 0.1406 -0.0625 Q0.125 -0.0781 0.125 -0.1094 L0.0469 0.1875 L0.0469 0.1875 Q0.0469 0.1875 0.0312 0.1875 Q0.0312 0.1875 0.0312 0.1875 Q0.0312 0.1875 0.0312 0.1719 ZM0.3281 -0.4062 Q0.3438 -0.3906 0.375 -0.3906 Q0.4062 -0.3906 0.4219 -0.4062 Q0.4062 -0.4062 0.375 -0.4062 Q0.3438 -0.4062 0.3281 -0.4062 ZM0.4531 -0.4219 Q0.5156 -0.4688 0.5312 -0.5781 L0.5312 -0.5781 L0.5312 -0.5781 Q0.5312 -0.5938 0.5312 -0.6094 Q0.5312 -0.6719 0.4688 -0.6875 Q0.4688 -0.6875 0.4531 -0.6875 Q0.375 -0.6875 0.2969 -0.6094 Q0.2344 -0.5312 0.2031 -0.4219 L0.1562 -0.2344 Q0.1406 -0.1719 0.1406 -0.1562 Q0.1406 -0.0781 0.2031 -0.0312 Q0.2344 -0.0156 0.2812 -0.0156 Q0.3594 -0.0156 0.4219 -0.0938 Q0.4219 -0.1094 0.4219 -0.1094 Q0.4688 -0.1719 0.4688 -0.2812 Q0.4688 -0.2969 0.4688 -0.2969 Q0.4688 -0.3594 0.4531 -0.3906 Q0.4062 -0.375 0.375 -0.375 Q0.2969 -0.375 0.2969 -0.4062 Q0.2969 -0.4375 0.375 -0.4375 Q0.4219 -0.4375 0.4531 -0.4219 Z"
    /></g
    ><g transform="matrix(10,0,0,10,0,-13) translate(0.9434,0.8944)" style="font-size:1; text-rendering:geometricPrecision; color-rendering:optimizeQuality; image-rendering:optimizeQuality; font-family:&apos;jlm_cmr10&apos;; color-interpolation:linearRGB;"
    ><path style="stroke:none;" d="M0.6875 -0.3281 L0.0938 -0.3281 Q0.0625 -0.3281 0.0625 -0.3438 Q0.0625 -0.3594 0.0938 -0.3594 L0.6875 -0.3594 Q0.7188 -0.3594 0.7188 -0.3438 Q0.7188 -0.3281 0.6875 -0.3281 ZM0.6875 -0.1406 L0.0938 -0.1406 Q0.0625 -0.1406 0.0625 -0.1562 Q0.0625 -0.1719 0.0938 -0.1719 L0.6875 -0.1719 Q0.7188 -0.1719 0.7188 -0.1562 Q0.7188 -0.1406 0.6875 -0.1406 Z"
    /></g
    ><g transform="matrix(10,0,0,10,0,-13) translate(1.999,0.8944)" style="font-size:1; text-rendering:geometricPrecision; color-rendering:optimizeQuality; image-rendering:optimizeQuality; font-family:&apos;jlm_cmr10&apos;; color-interpolation:linearRGB;"
    ><path style="stroke:none;" d="M0.1562 -0.4531 L0.2812 -0.375 Q0.3906 -0.4375 0.3906 -0.5156 Q0.3906 -0.5781 0.3281 -0.625 Q0.2969 -0.6406 0.25 -0.6406 Q0.1719 -0.6406 0.1406 -0.5938 L0.1406 -0.5938 L0.1406 -0.5938 Q0.1094 -0.5625 0.1094 -0.5312 Q0.1094 -0.4844 0.1562 -0.4531 ZM0.3125 -0.3594 L0.3125 -0.3594 Q0.3906 -0.3125 0.4062 -0.2969 Q0.4062 -0.2969 0.4062 -0.2969 Q0.4531 -0.2344 0.4531 -0.1719 Q0.4531 -0.0781 0.3906 -0.0156 Q0.3281 0.0156 0.25 0.0156 Q0.1562 0.0156 0.0938 -0.0312 Q0.0469 -0.0781 0.0469 -0.1562 Q0.0469 -0.2656 0.1875 -0.3281 Q0.125 -0.375 0.1094 -0.3906 Q0.0625 -0.4375 0.0625 -0.5 Q0.0625 -0.5781 0.1406 -0.625 Q0.1875 -0.6719 0.25 -0.6719 Q0.3438 -0.6719 0.3906 -0.6094 Q0.4375 -0.5781 0.4375 -0.5156 Q0.4375 -0.4219 0.3125 -0.3594 ZM0.2031 -0.3125 L0.2031 -0.3125 Q0.0938 -0.25 0.0938 -0.1562 Q0.0938 -0.0781 0.1562 -0.0312 Q0.2031 0 0.25 0 Q0.3281 0 0.375 -0.0625 Q0.4062 -0.0938 0.4062 -0.125 Q0.4062 -0.1875 0.3438 -0.2344 Q0.3438 -0.2344 0.3281 -0.2344 L0.2031 -0.3125 Z"
    /></g
  ></g
></g>
<g fill="#000000" stroke="black" transform="rotate(0,318,314) translate(318,314)"><!--Generated by the Batik Graphics2D SVG Generator--><defs id="genericDefs"
  /><g
  ><g transform="matrix(1,0,0,1,0,-13) scale(10,10) translate(0.1,0.8944)" style="font-size:1; text-rendering:geometricPrecision; color-rendering:optimizeQuality; image-rendering:optimizeQuality; font-family:&apos;jlm_cmmi10&apos;; color-interpolation:linearRGB;"
    ><path style="stroke:none;" d="M0.0312 0.1719 L0.1875 -0.4375 Q0.2031 -0.5469 0.2969 -0.625 Q0.375 -0.7031 0.4531 -0.7031 Q0.5312 -0.7031 0.5781 -0.6406 Q0.5938 -0.6094 0.5938 -0.5781 Q0.5938 -0.5 0.5312 -0.4375 Q0.5 -0.4219 0.4844 -0.4062 Q0.5469 -0.3594 0.5469 -0.2656 Q0.5469 -0.1562 0.4688 -0.0781 Q0.3906 0 0.2969 0.0156 L0.2812 0.0156 Q0.1875 0.0156 0.1406 -0.0625 Q0.125 -0.0781 0.125 -0.1094 L0.0469 0.1875 L0.0469 0.1875 Q0.0469 0.1875 0.0312 0.1875 Q0.0312 0.1875 0.0312 0.1875 Q0.0312 0.1875 0.0312 0.1719 ZM0.3281 -0.4062 Q0.3438 -0.3906 0.375 -0.3906 Q0.4062 -0.3906 0.4219 -0.4062 Q0.4062 -0.4062 0.375 -0.4062 Q0.3438 -0.4062 0.3281 -0.4062 ZM0.4531 -0.4219 Q0.5156 -0.4688 0.5312 -0.5781 L0.5312 -0.5781 L0.5312 -0.5781 Q0.5312 -0.5938 0.5312 -0.6094 Q0.5312 -0.6719 0.4688 -0.6875 Q0.4688 -0.6875 0.4531 -0.6875 Q0.375 -0.6875 0.2969 -0.6094 Q0.2344 -0.5312 0.2031 -0.4219 L0.1562 -0.2344 Q0.1406 -0.1719 0.1406 -0.1562 Q0.1406 -0.0781 0.2031 -0.0312 Q0.2344 -0.0156 0.2812 -0.0156 Q0.3594 -0.0156 0.4219 -0.0938 Q0.4219 -0.1094 0.4219 -0.1094 Q0.4688 -0.1719 0.4688 -0.2812 Q0.4688 -0.2969 0.4688 -0.2969 Q0.4688 -0.3594 0.4531 -0.3906 Q0.4062 -0.375 0.375 -0.375 Q0.2969 -0.375 0.2969 -0.4062 Q0.2969 -0.4375 0.375 -0.4375 Q0.4219 -0.4375 0.4531 -0.4219 Z"
    /></g
    ><g transform="matrix(10,0,0,10,0,-13) translate(0.9434,0.8944)" style="font-size:1; text-rendering:geometricPrecision; color-rendering:optimizeQuality; image-rendering:optimizeQuality; font-family:&apos;jlm_cmr10&apos;; color-interpolation:linearRGB;"
    ><path style="stroke:none;" d="M0.6875 -0.3281 L0.0938 -0.3281 Q0.0625 -0.3281 0.0625 -0.3438 Q0.0625 -0.3594 0.0938 -0.3594 L0.6875 -0.3594 Q0.7188 -0.3594 0.7188 -0.3438 Q0.7188 -0.3281 0.6875 -0.3281 ZM0.6875 -0.1406 L0.0938 -0.1406 Q0.0625 -0.1406 0.0625 -0.1562 Q0.0625 -0.1719 0.0938 -0.1719 L0.6875 -0.1719 Q0.7188 -0.1719 0.7188 -0.1562 Q0.7188 -0.1406 0.6875 -0.1406 Z"
    /></g
    ><g transform="matrix(10,0,0,10,0,-13) translate(1.999,0.8944)" style="font-size:1; text-rendering:geometricPrecision; color-rendering:optimizeQuality; image-rendering:optimizeQuality; font-family:&apos;jlm_cmr10&apos;; color-interpolation:linearRGB;"
    ><path style="stroke:none;" d="M0.2969 -0.6406 L0.2969 -0.0781 Q0.2969 -0.0469 0.3125 -0.0469 Q0.3281 -0.0312 0.3906 -0.0312 L0.4219 -0.0312 L0.4219 0 Q0.3906 0 0.25 0 Q0.125 0 0.0938 0 L0.0938 -0.0312 L0.125 -0.0312 Q0.2031 -0.0312 0.2188 -0.0469 L0.2188 -0.0469 Q0.2188 -0.0625 0.2188 -0.0781 L0.2188 -0.5938 Q0.1719 -0.5781 0.0938 -0.5781 L0.0938 -0.6094 Q0.2031 -0.6094 0.2656 -0.6719 Q0.2969 -0.6719 0.2969 -0.6562 L0.2969 -0.6562 L0.2969 -0.6562 Q0.2969 -0.6562 0.2969 -0.6406 Z"
    /></g
    ><g transform="matrix(10,0,0,10,0,-13) translate(2.499,0.8944)" style="font-size:1; text-rendering:geometricPrecision; color-rendering:optimizeQuality; image-rendering:optimizeQuality; font-family:&apos;jlm_cmr10&apos;; color-interpolation:linearRGB;"
    ><path style="stroke:none;" d="M0.125 -0.3281 L0.125 -0.3281 Q0.1719 -0.4219 0.25 -0.4219 Q0.3438 -0.4219 0.4062 -0.3438 Q0.4375 -0.3125 0.4531 -0.25 Q0.4531 -0.2344 0.4531 -0.2031 Q0.4531 -0.0938 0.375 -0.0312 Q0.3281 0.0156 0.25 0.0156 Q0.1562 0.0156 0.0938 -0.0781 Q0.0469 -0.1562 0.0469 -0.3125 Q0.0469 -0.4844 0.1406 -0.5938 Q0.2188 -0.6719 0.3125 -0.6719 Q0.3906 -0.6719 0.4219 -0.6094 Q0.4375 -0.5781 0.4375 -0.5625 Q0.4375 -0.5156 0.3906 -0.5156 Q0.3906 -0.5156 0.3906 -0.5156 Q0.3594 -0.5156 0.3438 -0.5312 Q0.3438 -0.5469 0.3438 -0.5625 Q0.3438 -0.5938 0.3906 -0.5938 Q0.375 -0.6406 0.3125 -0.6406 Q0.2344 -0.6406 0.1875 -0.5781 Q0.125 -0.5 0.125 -0.3594 L0.125 -0.3281 ZM0.25 0 L0.25 0 Q0.3125 0 0.3438 -0.0781 Q0.3594 -0.1094 0.3594 -0.2031 Q0.3594 -0.3125 0.3438 -0.3438 Q0.3125 -0.4062 0.25 -0.4062 Q0.1719 -0.4062 0.1406 -0.3125 Q0.1406 -0.2656 0.1406 -0.2188 Q0.1406 -0.125 0.1562 -0.0781 Q0.1719 -0.0312 0.2188 -0.0156 Q0.2344 0 0.25 0 Z"
    /></g
  ></g
></g>
<polyline fill="none" stroke="#bf00bf" stroke-width="0.5" points="261.737,309.25 284.688,309.25 307.638,309.25"/>
<polyline fill="none" stroke="#00bfbf" stroke-width="0.5" points="261.737,296.05 284.688,296.05 307.638,296.05"/>
<polyline fill="none" stroke="#ff0000" stroke-width="0.5" points="261.737,282.85 284.688,282.85 307.638,282.85"/>
<polyline fill="none" stroke="#007f00" stroke-width="0.5" points="261.737,269.65 284.688,269.65 307.638,269.65"/>
<polyline fill="none" stroke="#0000ff" stroke-width="0.5" points="261.737,256.45 284.688,256.45 307.638,256.45"/>
<polyline fill="none" stroke="#000000" stroke-width="0.5" points="76.5,333.375 76.5,47.625"/>
<polyline fill="none" stroke="#000000" stroke-width="0.5" points="76.5,333.375 69.6147,333.375"/>
<polyline fill="none" stroke="#000000" stroke-width="0.5" points="76.5,304.8 69.6147,304.8"/>
<polyline fill="none" stroke="#000000" stroke-width="0.5" points="76.5,276.225 69.6147,276.225"/>
<polyline fill="none" stroke="#000000" stroke-width="0.5" points="76.5,247.65 69.6147,247.65"/>
<polyline fill="none" stroke="#000000" stroke-width="0.5" points="76.5,219.075 69.6147,219.075"/>
<polyline fill="none" stroke="#000000" stroke-width="0.5" points="76.5,190.5 69.6147,190.5"/>
<polyline fill="none" stroke="#000000" stroke-width="0.5" points="76.5,161.925 69.6147,161.925"/>
<polyline fill="none" stroke="#000000" stroke-width="0.5" points="76.5,133.35 69.6147,133.35"/>
<polyline fill="none" stroke="#000000" stroke-width="0.5" points="76.5,104.775 69.6147,104.775"/>
<polyline fill="none" stroke="#000000" stroke-width="0.5" points="76.5,76.2002 69.6147,76.2002"/>
<polyline fill="none" stroke="#000000" stroke-width="0.5" points="76.5,47.625 69.6147,47.625"/>
<polyline fill="none" stroke="#000000" stroke-width="0.5" points="76.5,319.087 72.3691,319.087"/>
<polyline fill="none" stroke="#000000" stroke-width="0.5" points="76.5,290.513 72.3691,290.513"/>
<polyline fill="none" stroke="#000000" stroke-width="0.5" points="76.5,261.938 72.3691,261.938"/>
<polyline fill="none" stroke="#000000" stroke-width="0.5" points="76.5,233.362 72.3691,233.362"/>
<polyline fill="none" stroke="#000000" stroke-width="0.5" points="76.5,204.788 72.3691,204.788"/>
<polyline fill="none" stroke="#000000" stroke-width="0.5" points="76.5,176.212 72.3691,176.212"/>
<polyline fill="none" stroke="#000000" stroke-width="0.5" points="76.5,147.638 72.3691,147.638"/>
<polyline fill="none" stroke="#000000" stroke-width="0.5" points="76.5,119.062 72.3691,119.062"/>
<polyline fill="none" stroke="#000000" stroke-width="0.5" points="76.5,90.4873 72.3691,90.4873"/>
<polyline fill="none" stroke="#000000" stroke-width="0.5" points="76.5,61.9126 72.3691,61.9126"/>
<text fill="#000000" style="stroke:none" x="51" y="338" transform="rotate(-0, 51, 338)" font-size="10" font-family="SansSerif" font-style="normal" font-weight="normal">0.0</text>
<text fill="#000000" style="stroke:none" x="52" y="310" transform="rotate(-0, 52, 310)" font-size="10" font-family="SansSerif" font-style="normal" font-weight="normal">0.1</text>
<text fill="#000000" style="stroke:none" x="52" y="281" transform="rotate(-0, 52, 281)" font-size="10" font-family="SansSerif" font-style="normal" font-weight="normal">0.2</text>
<text fill="#000000" style="stroke:none" x="52" y="253" transform="rotate(-0, 52, 253)" font-size="10" font-family="SansSerif" font-style="normal" font-weight="normal">0.3</text>
<text fill="#000000" style="stroke:none" x="51" y="224" transform="rotate(-0, 51, 224)" font-size="10" font-family="SansSerif" font-style="normal" font-weight="normal">0.4</text>
<text fill="#000000" style="stroke:none" x="52" y="195" transform="rotate(-0, 52, 195)" font-size="10" font-family="SansSerif" font-style="normal" font-weight="normal">0.5</text>
<text fill="#000000" style="stroke:none" x="51" y="167" transform="rotate(-0, 51, 167)" font-size="10" font-family="SansSerif" font-style="normal" font-weight="normal">0.6</text>
<text fill="#000000" style="stroke:none" x="52" y="138" transform="rotate(-0, 52, 138)" font-size="10" font-family="SansSerif" font-style="normal" font-weight="normal">0.7</text>
<text fill="#000000" style="stroke:none" x="51" y="110" transform="rotate(-0, 51, 110)" font-size="10" font-family="SansSerif" font-style="normal" font-weight="normal">0.8</text>
<text fill="#000000" style="stroke:none" x="52" y="81" transform="rotate(-0, 52, 81)" font-size="10" font-family="SansSerif" font-style="normal" font-weight="normal">0.9</text>
<text fill="#000000" style="stroke:none" x="52" y="53" transform="rotate(-0, 52, 53)" font-size="10" font-family="SansSerif" font-style="normal" font-weight="normal">1.0</text>
<polyline fill="none" stroke="#bebebe" stroke-width="0.5" stroke-dasharray="4,4,4,4" points="76.5,333.375 535.5,333.375 535.5,333.375"/>
<polyline fill="none" stroke="#bebebe" stroke-width="0.5" stroke-dasharray="4,4,4,4" points="76.5,304.8 535.5,304.8 535.5,304.8"/>
<polyline fill="none" stroke="#bebebe" stroke-width="0.5" stroke-dasharray="4,4,4,4" points="76.5,276.225 535.5,276.225 535.5,276.225"/>
<polyline fill="none" stroke="#bebebe" stroke-width="0.5" stroke-dasharray="4,4,4,4" points="76.5,247.65 535.5,247.65 535.5,247.65"/>
<polyline fill="none" stroke="#bebebe" stroke-width="0.5" stroke-dasharray="4,4,4,4" points="76.5,219.075 535.5,219.075 535.5,219.075"/>
<polyline fill="none" stroke="#bebebe" stroke-width="0.5" stroke-dasharray="4,4,4,4" points="76.5,190.5 535.5,190.5 535.5,190.5"/>
<polyline fill="none" stroke="#bebebe" stroke-width="0.5" stroke-dasharray="4,4,4,4" points="76.5,161.925 535.5,161.925 535.5,161.925"/>
<polyline fill="none" stroke="#bebebe" stroke-width="0.5" stroke-dasharray="4,4,4,4" points="76.5,133.35 535.5,133.35 535.5,133.35"/>
<polyline fill="none" stroke="#bebebe" stroke-width="0.5" stroke-dasharray="4,4,4,4" points="76.5,104.775 535.5,104.775 535.5,104.775"/>
<polyline fill="none" stroke="#bebebe" stroke-width="0.5" stroke-dasharray="4,4,4,4" points="76.5,76.2002 535.5,76.2002 535.5,76.2002"/>
<polyline fill="none" stroke="#bebebe" stroke-width="0.5" stroke-dasharray="4,4,4,4" points="76.5,47.625 535.5,47.625 535.5,47.625"/>
<polyline fill="none" stroke="#000000" stroke-width="0.5" points="76.5,333.375 535.5,333.375"/>
<polyline fill="none" stroke="#000000" stroke-width="0.5" points="76.5,333.375 76.5,337.65"/>
<polyline fill="none" stroke="#000000" stroke-width="0.5" points="142.071,333.375 142.071,337.65"/>
<polyline fill="none" stroke="#000000" stroke-width="0.5" points="207.643,333.375 207.643,337.65"/>
<polyline fill="none" stroke="#000000" stroke-width="0.5" points="273.214,333.375 273.214,337.65"/>
<polyline fill="none" stroke="#000000" stroke-width="0.5" points="338.786,333.375 338.786,337.65"/>
<polyline fill="none" stroke="#000000" stroke-width="0.5" points="404.357,333.375 404.357,337.65"/>
<polyline fill="none" stroke="#000000" stroke-width="0.5" points="469.929,333.375 469.929,337.65"/>
<polyline fill="none" stroke="#000000" stroke-width="0.5" points="535.5,333.375 535.5,337.65"/>
<polyline fill="none" stroke="#000000" stroke-width="0.5" points="109.286,333.375 109.286,335.94"/>
<polyline fill="none" stroke="#000000" stroke-width="0.5" points="174.857,333.375 174.857,335.94"/>
<polyline fill="none" stroke="#000000" stroke-width="0.5" points="240.429,333.375 240.429,335.94"/>
<polyline fill="none" stroke="#000000" stroke-width="0.5" points="306,333.375 306,335.94"/>
<polyline fill="none" stroke="#000000" stroke-width="0.5" points="371.571,333.375 371.571,335.94"/>
<polyline fill="none" stroke="#000000" stroke-width="0.5" points="437.143,333.375 437.143,335.94"/>
<polyline fill="none" stroke="#000000" stroke-width="0.5" points="502.714,333.375 502.714,335.94"/>
<text fill="#000000" style="stroke:none" x="73" y="349" transform="rotate(-0, 73, 349)" font-size="10" font-family="SansSerif" font-style="normal" font-weight="normal">0</text>
<text fill="#000000" style="stroke:none" x="136" y="349" transform="rotate(-0, 136, 349)" font-size="10" font-family="SansSerif" font-style="normal" font-weight="normal">20</text>
<text fill="#000000" style="stroke:none" x="201" y="349" transform="rotate(-0, 201, 349)" font-size="10" font-family="SansSerif" font-style="normal" font-weight="normal">40</text>
<text fill="#000000" style="stroke:none" x="267" y="349" transform="rotate(-0, 267, 349)" font-size="10" font-family="SansSerif" font-style="normal" font-weight="normal">60</text>
<text fill="#000000" style="stroke:none" x="332" y="349" transform="rotate(-0, 332, 349)" font-size="10" font-family="SansSerif" font-style="normal" font-weight="normal">80</text>
<text fill="#000000" style="stroke:none" x="395" y="349" transform="rotate(-0, 395, 349)" font-size="10" font-family="SansSerif" font-style="normal" font-weight="normal">100</text>
<text fill="#000000" style="stroke:none" x="460" y="349" transform="rotate(-0, 460, 349)" font-size="10" font-family="SansSerif" font-style="normal" font-weight="normal">120</text>
<text fill="#000000" style="stroke:none" x="526" y="349" transform="rotate(-0, 526, 349)" font-size="10" font-family="SansSerif" font-style="normal" font-weight="normal">140</text>
<polyline fill="none" stroke="#bebebe" stroke-width="0.5" stroke-dasharray="4,4,4,4" points="76.5,333.375 76.5,47.625 76.5,47.625"/>
<polyline fill="none" stroke="#bebebe" stroke-width="0.5" stroke-dasharray="4,4,4,4" points="142.071,333.375 142.071,47.625 142.071,47.625"/>
<polyline fill="none" stroke="#bebebe" stroke-width="0.5" stroke-dasharray="4,4,4,4" points="207.643,333.375 207.643,47.625 207.643,47.625"/>
<polyline fill="none" stroke="#bebebe" stroke-width="0.5" stroke-dasharray="4,4,4,4" points="273.214,333.375 273.214,47.625 273.214,47.625"/>
<polyline fill="none" stroke="#bebebe" stroke-width="0.5" stroke-dasharray="4,4,4,4" points="338.786,333.375 338.786,47.625 338.786,47.625"/>
<polyline fill="none" stroke="#bebebe" stroke-width="0.5" stroke-dasharray="4,4,4,4" points="404.357,333.375 404.357,47.625 404.357,47.625"/>
<polyline fill="none" stroke="#bebebe" stroke-width="0.5" stroke-dasharray="4,4,4,4" points="469.929,333.375 469.929,47.625 469.929,47.625"/>
<polyline fill="none" stroke="#bebebe" stroke-width="0.5" stroke-dasharray="4,4,4,4" points="535.5,333.375 535.5,47.625 535.5,47.625"/>
<text fill="#000000" style="stroke:none" x="205" y="39" transform="rotate(0, 205, 39)" font-size="10" font-family="SansSerif" font-style="normal" font-weight="normal">Comparison of Kaiser window profiles</text>
<text fill="#000000" style="stroke:none" x="303" y="359" transform="rotate(0, 303, 359)" font-size="10" font-family="SansSerif" font-style="normal" font-weight="normal">n</text>
<text fill="#000000" style="stroke:none" x="44" y="201" transform="rotate(270, 44, 201)" font-size="10" font-family="SansSerif" font-style="normal" font-weight="normal">w_n</text>
</g>
</svg>
