<?xml version="1.0" encoding="UTF-8" standalone="no"?>
<svg xmlns="http://www.w3.org/2000/svg"
     xmlns:xlink="http://www.w3.org/1999/xlink"
     width="612px" height="458px" viewBox="0 0 612 458"
     style="stroke:none">
<title>Figure n°0</title>
<desc>
Creator: GL2PS 1.3.2, (C) 1999-2006 Christophe Geuzaine (geuz@geuz.org)
For: Scilab
CreationDate: Fri May 27 09:14:14 2011
</desc>
<defs>
</defs>
<polygon fill="#ffffff" points="0,0 612,0 612,458 0,458"/>
<g>
<polygon fill="#ffffff" points="38.25,400.75 38.25,57.25 38.25,57.25"/>
<polygon fill="#ffffff" points="38.25,400.75 38.25,57.25 38.25,400.75"/>
<polygon fill="#ffffff" points="38.25,400.75 267.75,400.75 267.75,400.75"/>
<polygon fill="#ffffff" points="38.25,400.75 267.75,400.75 38.25,400.75"/>
<polygon fill="#ffffff" points="38.25,400.75 267.75,400.75 267.75,57.25"/>
<polygon fill="#ffffff" points="38.25,400.75 267.75,57.25 38.25,57.25"/>
<polyline fill="none" stroke="#000000" stroke-width="0.5" points="38.25,400.75 38.25,57.25 38.25,57.25 267.75,57.25 267.75,400.75 267.75,400.75 38.25,400.75"/>
<polyline fill="none" stroke="#000000" stroke-width="0.5" points="267.75,57.25 38.25,57.25"/>
<polyline fill="none" stroke="#000000" stroke-width="0.5" points="267.75,57.25 267.75,400.75"/>
<polyline fill="none" stroke="#000000" stroke-width="0.5" points="267.75,57.25 267.75,57.25"/>
<polyline fill="none" stroke="#0000ff" stroke-width="0.5" points="47.4302,373.27 56.6099,367.411 65.79,350.267 74.9702,323.11 84.1499,287.955 93.3301,247.408 102.51,204.477 111.69,162.346 120.87,124.139 130.05,92.6899 139.23,70.3315 148.41,58.7217 157.59,58.7217 166.77,70.3315 175.95,92.6899 185.13,124.139 194.31,162.346 203.49,204.477 212.67,247.408 221.85,287.955 231.03,323.11 240.21,350.267 249.39,367.411 258.57,373.27"/>
<polyline fill="none" stroke="#007f00" stroke-width="0.5" points="47.4302,395.641 56.6099,384.605 65.79,366.625 74.9702,340.906 84.1499,307.547 93.3301,267.699 102.51,223.584 111.69,178.329 120.87,135.639 130.05,99.3516 139.23,72.9375 148.41,59.0234 157.59,59.0234 166.77,72.9375 175.95,99.3516 185.13,135.639 194.31,178.329 203.49,223.584 212.67,267.699 221.85,307.547 231.03,340.906 240.21,366.625 249.39,384.605 258.57,395.641"/>
<polyline fill="none" stroke="#ff0000" stroke-width="0.5" points="47.4302,371.179 56.6099,353.792 65.79,327.638 74.9702,295.605 84.1499,258.767 93.3301,218.884 102.51,178.296 111.69,139.719 120.87,105.973 130.05,79.6826 139.23,62.979 148.41,57.25 157.59,57.25 166.77,62.979 175.95,79.6826 185.13,105.973 194.31,139.719 203.49,178.296 212.67,218.884 221.85,258.767 231.03,295.605 240.21,327.638 249.39,353.792 258.57,371.179"/>
<polyline fill="none" stroke="#000000" stroke-width="0.5" points="38.25,400.75 38.25,57.25"/>
<polyline fill="none" stroke="#000000" stroke-width="0.5" points="38.25,400.75 34.8149,400.75"/>
<polyline fill="none" stroke="#000000" stroke-width="0.5" points="38.25,366.4 34.8149,366.4"/>
<polyline fill="none" stroke="#000000" stroke-width="0.5" points="38.25,332.05 34.8149,332.05"/>
<polyline fill="none" stroke="#000000" stroke-width="0.5" points="38.25,297.7 34.8149,297.7"/>
<polyline fill="none" stroke="#000000" stroke-width="0.5" points="38.25,263.35 34.8149,263.35"/>
<polyline fill="none" stroke="#000000" stroke-width="0.5" points="38.25,229 34.8149,229"/>
<polyline fill="none" stroke="#000000" stroke-width="0.5" points="38.25,194.65 34.8149,194.65"/>
<polyline fill="none" stroke="#000000" stroke-width="0.5" points="38.25,160.3 34.8149,160.3"/>
<polyline fill="none" stroke="#000000" stroke-width="0.5" points="38.25,125.95 34.8149,125.95"/>
<polyline fill="none" stroke="#000000" stroke-width="0.5" points="38.25,91.6001 34.8149,91.6001"/>
<polyline fill="none" stroke="#000000" stroke-width="0.5" points="38.25,57.25 34.8149,57.25"/>
<polyline fill="none" stroke="#000000" stroke-width="0.5" points="38.25,383.575 36.189,383.575"/>
<polyline fill="none" stroke="#000000" stroke-width="0.5" points="38.25,349.225 36.189,349.225"/>
<polyline fill="none" stroke="#000000" stroke-width="0.5" points="38.25,314.875 36.189,314.875"/>
<polyline fill="none" stroke="#000000" stroke-width="0.5" points="38.25,280.525 36.189,280.525"/>
<polyline fill="none" stroke="#000000" stroke-width="0.5" points="38.25,246.175 36.189,246.175"/>
<polyline fill="none" stroke="#000000" stroke-width="0.5" points="38.25,211.825 36.189,211.825"/>
<polyline fill="none" stroke="#000000" stroke-width="0.5" points="38.25,177.475 36.189,177.475"/>
<polyline fill="none" stroke="#000000" stroke-width="0.5" points="38.25,143.125 36.189,143.125"/>
<polyline fill="none" stroke="#000000" stroke-width="0.5" points="38.25,108.775 36.189,108.775"/>
<polyline fill="none" stroke="#000000" stroke-width="0.5" points="38.25,74.4248 36.189,74.4248"/>
<text fill="#000000" style="stroke:none" x="17" y="406" transform="rotate(-0, 17, 406)" font-size="10" font-family="SansSerif" font-style="normal" font-weight="normal">0.0</text>
<text fill="#000000" style="stroke:none" x="18" y="371" transform="rotate(-0, 18, 371)" font-size="10" font-family="SansSerif" font-style="normal" font-weight="normal">0.1</text>
<text fill="#000000" style="stroke:none" x="18" y="337" transform="rotate(-0, 18, 337)" font-size="10" font-family="SansSerif" font-style="normal" font-weight="normal">0.2</text>
<text fill="#000000" style="stroke:none" x="18" y="303" transform="rotate(-0, 18, 303)" font-size="10" font-family="SansSerif" font-style="normal" font-weight="normal">0.3</text>
<text fill="#000000" style="stroke:none" x="17" y="268" transform="rotate(-0, 17, 268)" font-size="10" font-family="SansSerif" font-style="normal" font-weight="normal">0.4</text>
<text fill="#000000" style="stroke:none" x="18" y="234" transform="rotate(-0, 18, 234)" font-size="10" font-family="SansSerif" font-style="normal" font-weight="normal">0.5</text>
<text fill="#000000" style="stroke:none" x="17" y="200" transform="rotate(-0, 17, 200)" font-size="10" font-family="SansSerif" font-style="normal" font-weight="normal">0.6</text>
<text fill="#000000" style="stroke:none" x="18" y="165" transform="rotate(-0, 18, 165)" font-size="10" font-family="SansSerif" font-style="normal" font-weight="normal">0.7</text>
<text fill="#000000" style="stroke:none" x="17" y="131" transform="rotate(-0, 17, 131)" font-size="10" font-family="SansSerif" font-style="normal" font-weight="normal">0.8</text>
<text fill="#000000" style="stroke:none" x="18" y="97" transform="rotate(-0, 18, 97)" font-size="10" font-family="SansSerif" font-style="normal" font-weight="normal">0.9</text>
<text fill="#000000" style="stroke:none" x="18" y="62" transform="rotate(-0, 18, 62)" font-size="10" font-family="SansSerif" font-style="normal" font-weight="normal">1.0</text>
<polyline fill="none" stroke="#bebebe" stroke-width="0.5" stroke-dasharray="4,4,4,4" points="38.25,400.75 267.75,400.75 267.75,400.75"/>
<polyline fill="none" stroke="#bebebe" stroke-width="0.5" stroke-dasharray="4,4,4,4" points="38.25,366.4 267.75,366.4 267.75,366.4"/>
<polyline fill="none" stroke="#bebebe" stroke-width="0.5" stroke-dasharray="4,4,4,4" points="38.25,332.05 267.75,332.05 267.75,332.05"/>
<polyline fill="none" stroke="#bebebe" stroke-width="0.5" stroke-dasharray="4,4,4,4" points="38.25,297.7 267.75,297.7 267.75,297.7"/>
<polyline fill="none" stroke="#bebebe" stroke-width="0.5" stroke-dasharray="4,4,4,4" points="38.25,263.35 267.75,263.35 267.75,263.35"/>
<polyline fill="none" stroke="#bebebe" stroke-width="0.5" stroke-dasharray="4,4,4,4" points="38.25,229 267.75,229 267.75,229"/>
<polyline fill="none" stroke="#bebebe" stroke-width="0.5" stroke-dasharray="4,4,4,4" points="38.25,194.65 267.75,194.65 267.75,194.65"/>
<polyline fill="none" stroke="#bebebe" stroke-width="0.5" stroke-dasharray="4,4,4,4" points="38.25,160.3 267.75,160.3 267.75,160.3"/>
<polyline fill="none" stroke="#bebebe" stroke-width="0.5" stroke-dasharray="4,4,4,4" points="38.25,125.95 267.75,125.95 267.75,125.95"/>
<polyline fill="none" stroke="#bebebe" stroke-width="0.5" stroke-dasharray="4,4,4,4" points="38.25,91.6001 267.75,91.6001 267.75,91.6001"/>
<polyline fill="none" stroke="#bebebe" stroke-width="0.5" stroke-dasharray="4,4,4,4" points="38.25,57.25 267.75,57.25 267.75,57.25"/>
<polyline fill="none" stroke="#000000" stroke-width="0.5" points="38.25,400.75 267.75,400.75"/>
<polyline fill="none" stroke="#000000" stroke-width="0.5" points="38.25,400.75 38.25,405.895"/>
<polyline fill="none" stroke="#000000" stroke-width="0.5" points="84.1499,400.75 84.1499,405.895"/>
<polyline fill="none" stroke="#000000" stroke-width="0.5" points="130.05,400.75 130.05,405.895"/>
<polyline fill="none" stroke="#000000" stroke-width="0.5" points="175.95,400.75 175.95,405.895"/>
<polyline fill="none" stroke="#000000" stroke-width="0.5" points="221.85,400.75 221.85,405.895"/>
<polyline fill="none" stroke="#000000" stroke-width="0.5" points="267.75,400.75 267.75,405.895"/>
<polyline fill="none" stroke="#000000" stroke-width="0.5" points="47.4302,400.75 47.4302,403.837"/>
<polyline fill="none" stroke="#000000" stroke-width="0.5" points="56.6099,400.75 56.6099,403.837"/>
<polyline fill="none" stroke="#000000" stroke-width="0.5" points="65.79,400.75 65.79,403.837"/>
<polyline fill="none" stroke="#000000" stroke-width="0.5" points="74.9702,400.75 74.9702,403.837"/>
<polyline fill="none" stroke="#000000" stroke-width="0.5" points="93.3301,400.75 93.3301,403.837"/>
<polyline fill="none" stroke="#000000" stroke-width="0.5" points="102.51,400.75 102.51,403.837"/>
<polyline fill="none" stroke="#000000" stroke-width="0.5" points="111.69,400.75 111.69,403.837"/>
<polyline fill="none" stroke="#000000" stroke-width="0.5" points="120.87,400.75 120.87,403.837"/>
<polyline fill="none" stroke="#000000" stroke-width="0.5" points="139.23,400.75 139.23,403.837"/>
<polyline fill="none" stroke="#000000" stroke-width="0.5" points="148.41,400.75 148.41,403.837"/>
<polyline fill="none" stroke="#000000" stroke-width="0.5" points="157.59,400.75 157.59,403.837"/>
<polyline fill="none" stroke="#000000" stroke-width="0.5" points="166.77,400.75 166.77,403.837"/>
<polyline fill="none" stroke="#000000" stroke-width="0.5" points="185.13,400.75 185.13,403.837"/>
<polyline fill="none" stroke="#000000" stroke-width="0.5" points="194.31,400.75 194.31,403.837"/>
<polyline fill="none" stroke="#000000" stroke-width="0.5" points="203.49,400.75 203.49,403.837"/>
<polyline fill="none" stroke="#000000" stroke-width="0.5" points="212.67,400.75 212.67,403.837"/>
<polyline fill="none" stroke="#000000" stroke-width="0.5" points="231.03,400.75 231.03,403.837"/>
<polyline fill="none" stroke="#000000" stroke-width="0.5" points="240.21,400.75 240.21,403.837"/>
<polyline fill="none" stroke="#000000" stroke-width="0.5" points="249.39,400.75 249.39,403.837"/>
<polyline fill="none" stroke="#000000" stroke-width="0.5" points="258.57,400.75 258.57,403.837"/>
<text fill="#000000" style="stroke:none" x="34" y="417" transform="rotate(-0, 34, 417)" font-size="10" font-family="SansSerif" font-style="normal" font-weight="normal">0</text>
<text fill="#000000" style="stroke:none" x="81" y="417" transform="rotate(-0, 81, 417)" font-size="10" font-family="SansSerif" font-style="normal" font-weight="normal">5</text>
<text fill="#000000" style="stroke:none" x="124" y="417" transform="rotate(-0, 124, 417)" font-size="10" font-family="SansSerif" font-style="normal" font-weight="normal">10</text>
<text fill="#000000" style="stroke:none" x="169" y="417" transform="rotate(-0, 169, 417)" font-size="10" font-family="SansSerif" font-style="normal" font-weight="normal">15</text>
<text fill="#000000" style="stroke:none" x="215" y="417" transform="rotate(-0, 215, 417)" font-size="10" font-family="SansSerif" font-style="normal" font-weight="normal">20</text>
<text fill="#000000" style="stroke:none" x="261" y="417" transform="rotate(-0, 261, 417)" font-size="10" font-family="SansSerif" font-style="normal" font-weight="normal">25</text>
<polyline fill="none" stroke="#bebebe" stroke-width="0.5" stroke-dasharray="4,4,4,4" points="38.25,400.75 38.25,57.25 38.25,57.25"/>
<polyline fill="none" stroke="#bebebe" stroke-width="0.5" stroke-dasharray="4,4,4,4" points="84.1499,400.75 84.1499,57.25 84.1499,57.25"/>
<polyline fill="none" stroke="#bebebe" stroke-width="0.5" stroke-dasharray="4,4,4,4" points="130.05,400.75 130.05,57.25 130.05,57.25"/>
<polyline fill="none" stroke="#bebebe" stroke-width="0.5" stroke-dasharray="4,4,4,4" points="175.95,400.75 175.95,57.25 175.95,57.25"/>
<polyline fill="none" stroke="#bebebe" stroke-width="0.5" stroke-dasharray="4,4,4,4" points="221.85,400.75 221.85,57.25 221.85,57.25"/>
<polyline fill="none" stroke="#bebebe" stroke-width="0.5" stroke-dasharray="4,4,4,4" points="267.75,400.75 267.75,57.25 267.75,57.25"/>
<text fill="#000000" style="stroke:none" x="124" y="48" transform="rotate(0, 124, 48)" font-size="10" font-family="SansSerif" font-style="normal" font-weight="normal">Profile plot</text>
<text fill="#000000" style="stroke:none" x="150" y="428" transform="rotate(0, 150, 428)" font-size="10" font-family="SansSerif" font-style="normal" font-weight="normal">n</text>
<text fill="#000000" style="stroke:none" x="11" y="240" transform="rotate(270, 11, 240)" font-size="10" font-family="SansSerif" font-style="normal" font-weight="normal">w_n</text>
<polygon fill="#ffffff" points="344.25,400.75 344.25,57.25 344.25,57.25"/>
<polygon fill="#ffffff" points="344.25,400.75 344.25,57.25 344.25,400.75"/>
<polygon fill="#ffffff" points="344.25,400.75 573.75,400.75 573.75,400.75"/>
<polygon fill="#ffffff" points="344.25,400.75 573.75,400.75 344.25,400.75"/>
<polygon fill="#ffffff" points="344.25,400.75 573.75,400.75 573.75,57.25"/>
<polygon fill="#ffffff" points="344.25,400.75 573.75,57.25 344.25,57.25"/>
<polyline fill="none" stroke="#000000" stroke-width="0.5" points="344.25,400.75 344.25,57.25 344.25,57.25 573.75,57.25 573.75,400.75 573.75,400.75 344.25,400.75"/>
<polyline fill="none" stroke="#000000" stroke-width="0.5" points="573.75,57.25 344.25,57.25"/>
<polyline fill="none" stroke="#000000" stroke-width="0.5" points="573.75,57.25 573.75,400.75"/>
<polyline fill="none" stroke="#000000" stroke-width="0.5" points="573.75,57.25 573.75,57.25"/>
<polyline fill="none" stroke="#0000ff" stroke-width="0.5" points="344.25,101.566 345.146,101.601 346.043,101.707 346.939,101.884 347.836,102.131 348.732,102.451 349.629,102.842 350.525,103.305 351.422,103.842 352.318,104.452 353.215,105.138 354.111,105.899 355.008,106.737 355.904,107.654 356.801,108.651 357.697,109.729 358.594,110.892 359.49,112.139 360.387,113.475 361.283,114.901 362.18,116.42 363.076,118.037 363.973,119.752 364.869,121.572 365.766,123.499 366.662,125.54 367.559,127.698 368.455,129.981 369.352,132.395 370.248,134.947 371.145,137.648 372.041,140.506 372.938,143.534 373.834,146.745 374.73,150.156 375.627,153.786 376.523,157.659 377.42,161.805 378.316,166.259 379.213,171.071 380.109,176.304 381.006,182.049 381.902,188.436 382.799,195.674 383.695,204.121 384.592,214.492 385.488,228.606 386.385,254.521 387.281,261.789 388.178,241.03 389.074,233.899 389.971,230.679 390.867,229.307 391.764,228.919 392.66,229.006 393.557,229.195 394.453,229.187 395.35,228.76 396.246,227.795 397.143,226.286 398.039,224.32 398.936,222.043 399.832,219.609 400.729,217.155 401.625,214.788 402.521,212.584 403.418,210.599 404.314,208.866 405.211,207.409 406.107,206.244 407.004,205.386 407.9,204.849 408.797,204.648 409.693,204.805 410.59,205.349 411.486,206.322 412.383,207.785 413.279,209.829 414.176,212.598 415.072,216.33 415.969,221.467 416.865,228.964 417.762,241.608 418.658,280.749 419.555,249.371 420.451,232.346 421.348,223.205 422.244,217.099 423.141,212.669 424.037,209.344 424.934,206.832 425.83,204.963 426.727,203.64 427.623,202.801 428.52,202.411 429.416,202.457 430.312,202.94 431.209,203.884 432.105,205.331 433.002,207.355 433.898,210.078 434.795,213.706 435.691,218.612 436.588,225.576 437.484,236.671 438.381,262.431 439.277,255.859 440.174,234.634 441.07,224.521 441.967,218.04 442.863,213.45 443.76,210.066 444.656,207.551 445.553,205.715 446.449,204.447 447.346,203.682 448.242,203.38 449.139,203.528 450.035,204.129 450.932,205.207 451.828,206.812 452.725,209.026 453.621,211.988 454.518,215.939 455.414,221.327 456.311,229.139 457.207,242.313 458.104,286.001 459,248.735 459.896,232.465 460.793,223.688 461.689,217.862 462.586,213.683 463.482,210.596 464.379,208.315 465.275,206.68 466.172,205.593 467.068,204.998 467.965,204.866 468.861,205.187 469.758,205.973 470.654,207.256 471.551,209.099 472.447,211.604 473.344,214.947 474.24,219.435 475.137,225.683 476.033,235.189 476.93,253.671 477.826,273.563 478.723,241.505 479.619,229.554 480.516,222.3 481.412,217.279 482.309,213.618 483.205,210.905 484.102,208.92 484.998,207.534 485.895,206.67 486.791,206.283 487.688,206.355 488.584,206.886 489.48,207.897 490.377,209.433 491.273,211.575 492.17,214.455 493.066,218.303 493.963,223.546 494.859,231.11 495.756,243.665 496.652,280.159 497.549,253.213 498.445,235.886 499.342,226.788 500.238,220.799 501.135,216.517 502.031,213.356 502.928,211.02 503.824,209.338 504.721,208.214 505.617,207.586 506.514,207.425 507.41,207.722 508.307,208.487 509.203,209.754 510.1,211.585 510.996,214.084 511.893,217.428 512.789,221.932 513.686,228.227 514.582,237.858 515.479,256.881 516.375,273.555 517.271,243.209 518.168,231.466 519.064,224.284 519.961,219.295 520.857,215.649 521.754,212.944 522.65,210.962 523.547,209.577 524.443,208.713 525.34,208.328 526.236,208.402 527.133,208.939 528.029,209.96 528.926,211.513 529.822,213.682 530.719,216.605 531.615,220.523 532.512,225.892 533.408,233.708 534.305,246.97 535.201,292.568 536.098,252.683 536.994,236.573 537.891,227.821 538.787,221.992 539.684,217.8 540.58,214.697 541.477,212.399 542.373,210.747 543.27,209.646 544.166,209.039 545.062,208.898 545.959,209.216 546.855,210.007 547.752,211.306 548.648,213.178 549.545,215.735 550.441,219.167 551.338,223.81 552.234,230.357 553.131,240.563 554.027,262.033 554.924,267.947 555.82,242.532 556.717,231.547 557.613,224.67 558.51,219.844 559.406,216.298 560.303,213.661 561.199,211.729 562.096,210.384 562.992,209.554 563.889,209.2 564.785,209.305 565.682,209.875 566.578,210.934 567.475,212.535 568.371,214.766 569.268,217.776 570.164,221.826 571.061,227.415 571.957,235.672 572.854,250.215"/>
<polyline fill="none" stroke="#007f00" stroke-width="0.5" points="344.25,103.321 345.146,103.351 346.043,103.44 346.939,103.588 347.836,103.797 348.732,104.065 349.629,104.393 350.525,104.782 351.422,105.233 352.318,105.745 353.215,106.32 354.111,106.958 355.008,107.66 355.904,108.428 356.801,109.262 357.697,110.164 358.594,111.135 359.49,112.176 360.387,113.291 361.283,114.479 362.18,115.744 363.076,117.088 363.973,118.514 364.869,120.024 365.766,121.622 366.662,123.312 367.559,125.097 368.455,126.983 369.352,128.975 370.248,131.078 371.145,133.3 372.041,135.649 372.938,138.135 373.834,140.768 374.73,143.56 375.627,146.529 376.523,149.692 377.42,153.073 378.316,156.703 379.213,160.618 380.109,164.87 381.006,169.526 381.902,174.687 382.799,180.499 383.695,187.202 384.592,195.226 385.488,205.473 386.385,220.478 387.281,256.558 388.178,237.648 389.074,222.423 389.971,215.995 390.867,212.85 391.764,211.549 392.66,211.526 393.557,212.527 394.453,214.458 395.35,217.332 396.246,221.274 397.143,226.589 398.039,233.95 398.936,245.138 399.832,268.123 400.729,273.042 401.625,249.491 402.521,239.802 403.418,234.205 404.314,230.703 405.211,228.546 406.107,227.377 407.004,227.009 407.9,227.347 408.797,228.352 409.693,230.029 410.59,232.437 411.486,235.695 412.383,240.037 413.279,245.919 414.176,254.367 415.072,268.541 415.969,321.47 416.865,273.803 417.762,258.885 418.658,251.021 419.555,246.046 420.451,242.725 421.348,240.529 422.244,239.19 423.141,238.56 424.037,238.558 424.934,239.148 425.83,240.332 426.727,242.144 427.623,244.664 428.52,248.041 429.416,252.545 430.312,258.711 431.209,267.792 432.105,284.062 433.002,329.022 433.898,280.353 434.795,267.442 435.691,260.141 436.588,255.358 437.484,252.078 438.381,249.842 439.277,248.41 440.174,247.65 441.07,247.487 441.967,247.888 442.863,248.85 443.76,250.402 444.656,252.612 445.553,255.603 446.449,259.594 447.346,265.003 448.242,272.73 449.139,285.356 450.035,320.241 450.932,296.684 451.828,279.311 452.725,270.486 453.621,264.859 454.518,260.994 455.414,258.295 456.311,256.464 457.207,255.336 458.104,254.819 459,254.863 459.896,255.452 460.793,256.599 461.689,258.349 462.586,260.788 463.482,264.072 464.379,268.479 465.275,274.555 466.172,283.586 467.068,300.021 467.965,339.867 468.861,294.898 469.758,282.031 470.654,274.624 471.551,269.691 472.447,266.237 473.344,263.811 474.24,262.177 475.137,261.202 476.033,260.811 476.93,260.966 477.826,261.662 478.723,262.92 479.619,264.796 480.516,267.393 481.412,270.89 482.309,275.618 483.205,282.246 484.102,292.471 484.998,313.434 485.895,322.293 486.791,296.013 487.688,285.118 488.584,278.468 489.48,273.934 490.377,270.727 491.273,268.471 492.17,266.963 493.066,266.088 493.963,265.784 494.859,266.021 495.756,266.8 496.652,268.15 497.549,270.138 498.445,272.88 499.342,276.583 500.238,281.634 501.135,288.847 502.031,300.454 502.928,328.762 503.824,316.871 504.721,297.191 505.617,287.623 506.514,281.543 507.41,277.328 508.307,274.327 509.203,272.217 510.1,270.823 510.996,270.044 511.893,269.828 512.789,270.151 513.686,271.023 514.582,272.481 515.479,274.602 516.375,277.521 517.271,281.481 518.168,286.945 519.064,294.942 519.961,308.618 520.857,360.31 521.754,313.054 522.65,297.57 523.547,289.157 524.443,283.624 525.34,279.73 526.236,276.945 527.133,274.997 528.029,273.734 528.926,273.07 529.822,272.961 530.719,273.396 531.615,274.389 532.512,275.989 533.408,278.29 534.305,281.452 535.201,285.77 536.098,291.827 536.994,301.023 537.891,318.484 538.787,345.511 539.684,309.243 540.58,296.901 541.477,289.577 542.373,284.603 543.27,281.058 544.166,278.517 545.062,276.757 545.959,275.651 546.855,275.128 547.752,275.157 548.648,275.733 549.545,276.884 550.441,278.672 551.338,281.211 552.234,284.703 553.131,289.521 554.027,296.449 554.924,307.598 555.82,333.909 556.717,325.996 557.613,305.178 558.51,295.227 559.406,288.895 560.303,284.474 561.199,281.291 562.096,279.013 562.992,277.461 563.889,276.533 564.785,276.173 565.682,276.362 566.578,277.107 567.475,278.45 568.371,280.469 569.268,283.308 570.164,287.223 571.061,292.71 571.957,300.896 572.854,315.397"/>
<polyline fill="none" stroke="#ff0000" stroke-width="0.5" points="344.25,99.5557 345.146,99.5947 346.043,99.7119 346.939,99.9077 347.836,100.183 348.732,100.537 349.629,100.971 350.525,101.487 351.422,102.085 352.318,102.767 353.215,103.535 354.111,104.39 355.008,105.334 355.904,106.371 356.801,107.503 357.697,108.733 358.594,110.064 359.49,111.503 360.387,113.052 361.283,114.719 362.18,116.509 363.076,118.43 363.973,120.49 364.869,122.702 365.766,125.077 366.662,127.63 367.559,130.38 368.455,133.35 369.352,136.569 370.248,140.075 371.145,143.918 372.041,148.167 372.938,152.921 373.834,158.329 374.73,164.635 375.627,172.28 376.523,182.203 377.42,197.088 378.316,236.029 379.213,211.115 380.109,196.087 381.006,189.273 381.902,185.581 382.799,183.625 383.695,182.838 384.592,182.941 385.488,183.792 386.385,185.322 387.281,187.518 388.178,190.413 389.074,194.094 389.971,198.729 390.867,204.634 391.764,212.447 392.66,223.745 393.557,244.756 394.453,261.912 395.35,234.314 396.246,224.914 397.143,220.28 398.039,218.168 398.936,217.866 399.832,219.188 400.729,222.305 401.625,227.904 402.521,238.139 403.418,265.35 404.314,252.108 405.211,231.492 406.107,221.015 407.004,214.069 407.9,209.018 408.797,205.193 409.693,202.26 410.59,200.023 411.486,198.365 412.383,197.21 413.279,196.508 414.176,196.231 415.072,196.364 415.969,196.907 416.865,197.871 417.762,199.285 418.658,201.196 419.555,203.683 420.451,206.866 421.348,210.952 422.244,216.308 423.141,223.688 424.037,235.076 424.934,260.026 425.83,257.602 426.727,235.986 427.623,226.312 428.52,220.439 429.416,216.556 430.312,213.966 431.209,212.339 432.105,211.503 433.002,211.375 433.898,211.931 434.795,213.197 435.691,215.259 436.588,218.294 437.484,222.641 438.381,229.023 439.277,239.344 440.174,262.545 441.07,261.689 441.967,238.417 442.863,227.681 443.76,220.807 444.656,215.912 445.553,212.266 446.449,209.511 447.346,207.448 448.242,205.959 449.139,204.969 450.035,204.434 450.932,204.33 451.828,204.649 452.725,205.402 453.621,206.613 454.518,208.33 455.414,210.633 456.311,213.65 457.207,217.599 458.104,222.874 459,230.312 459.896,242.203 460.793,271.55 461.689,257.877 462.586,238.701 463.482,229.319 464.379,223.363 465.275,219.245 466.172,216.326 467.068,214.292 467.965,212.97 468.861,212.266 469.758,212.132 470.654,212.554 471.551,213.551 472.447,215.177 473.344,217.538 474.24,220.822 475.137,225.38 476.033,231.94 476.93,242.404 477.826,265.665 478.723,265.169 479.619,241.928 480.516,231.274 481.412,224.484 482.309,219.668 483.205,216.098 484.102,213.417 484.998,211.427 485.895,210.013 486.791,209.101 487.688,208.651 488.584,208.643 489.48,209.073 490.377,209.958 491.273,211.336 492.17,213.269 493.066,215.862 493.963,219.292 494.859,223.872 495.756,230.218 496.652,239.838 497.549,258.507 498.445,277.935 499.342,246.294 500.238,234.495 501.135,227.376 502.031,222.496 502.928,218.984 503.824,216.435 504.721,214.632 505.617,213.45 506.514,212.818 507.41,212.702 508.307,213.091 509.203,214.005 510.1,215.488 510.996,217.627 511.893,220.573 512.789,224.589 513.686,230.19 514.582,238.559 515.479,253.587 516.375,316.575 517.271,251.389 518.168,237.309 519.064,229.184 519.961,223.645 520.857,219.613 521.754,216.605 522.65,214.367 523.547,212.752 524.443,211.673 525.34,211.078 526.236,210.938 527.133,211.25 528.029,212.024 528.926,213.295 529.822,215.125 530.719,217.616 531.615,220.943 532.512,225.414 533.408,231.64 534.305,241.104 535.201,259.436 536.098,280.267 536.994,247.689 537.891,235.687 538.787,228.424 539.684,223.414 540.58,219.773 541.477,217.092 542.373,215.149 543.27,213.817 544.166,213.021 545.062,212.719 545.959,212.898 546.855,213.564 547.752,214.748 548.648,216.511 549.545,218.96 550.441,222.276 551.338,226.784 552.234,233.144 553.131,242.998 554.027,263.11 554.924,274.211 555.82,246.524 556.717,235.134 557.613,228.072 558.51,223.134 559.406,219.51 560.303,216.813 561.199,214.833 562.096,213.449 562.992,212.585 563.889,212.203 564.785,212.284 565.682,212.833 566.578,213.874 567.475,215.459 568.371,217.677 569.268,220.677 570.164,224.718 571.061,230.301 571.957,238.554 572.854,253.094"/>
<polygon fill="#ffffff" points="570.138,60.4302 384.65,110.49 384.65,60.4302"/>
<polygon fill="#ffffff" points="570.138,110.49 384.65,110.49 570.138,60.4302"/>
<polyline fill="none" stroke="#000000" stroke-width="0.5" points="384.65,110.49 384.65,60.4302 570.138,60.4302 570.138,110.49 384.65,110.49"/>
<text fill="#000000" style="stroke:none" x="416" y="76" transform="rotate(0, 416, 76)" font-size="10" font-family="SansSerif" font-style="normal" font-weight="normal">Hamming N=24</text>
<text fill="#000000" style="stroke:none" x="416" y="90" transform="rotate(0, 416, 90)" font-size="10" font-family="SansSerif" font-style="normal" font-weight="normal">Kaiser N=24, Beta=6</text>
<text fill="#000000" style="stroke:none" x="416" y="105" transform="rotate(0, 416, 105)" font-size="10" font-family="SansSerif" font-style="normal" font-weight="normal">Chebychev N=24, dp=0.005</text>
<polyline fill="none" stroke="#ff0000" stroke-width="0.5" points="387.513,99.8599 398.962,99.8599 410.413,99.8599"/>
<polyline fill="none" stroke="#007f00" stroke-width="0.5" points="387.513,85.46 398.962,85.46 410.413,85.46"/>
<polyline fill="none" stroke="#0000ff" stroke-width="0.5" points="387.513,71.0601 398.962,71.0601 410.413,71.0601"/>
<polyline fill="none" stroke="#000000" stroke-width="0.5" points="344.25,400.75 344.25,57.25"/>
<polyline fill="none" stroke="#000000" stroke-width="0.5" points="344.25,400.75 340.815,400.75"/>
<polyline fill="none" stroke="#000000" stroke-width="0.5" points="344.25,351.679 340.815,351.679"/>
<polyline fill="none" stroke="#000000" stroke-width="0.5" points="344.25,302.607 340.815,302.607"/>
<polyline fill="none" stroke="#000000" stroke-width="0.5" points="344.25,253.536 340.815,253.536"/>
<polyline fill="none" stroke="#000000" stroke-width="0.5" points="344.25,204.464 340.815,204.464"/>
<polyline fill="none" stroke="#000000" stroke-width="0.5" points="344.25,155.393 340.815,155.393"/>
<polyline fill="none" stroke="#000000" stroke-width="0.5" points="344.25,106.321 340.815,106.321"/>
<polyline fill="none" stroke="#000000" stroke-width="0.5" points="344.25,57.25 340.815,57.25"/>
<polyline fill="none" stroke="#000000" stroke-width="0.5" points="344.25,376.214 342.189,376.214"/>
<polyline fill="none" stroke="#000000" stroke-width="0.5" points="344.25,327.143 342.189,327.143"/>
<polyline fill="none" stroke="#000000" stroke-width="0.5" points="344.25,278.071 342.189,278.071"/>
<polyline fill="none" stroke="#000000" stroke-width="0.5" points="344.25,229 342.189,229"/>
<polyline fill="none" stroke="#000000" stroke-width="0.5" points="344.25,179.929 342.189,179.929"/>
<polyline fill="none" stroke="#000000" stroke-width="0.5" points="344.25,130.857 342.189,130.857"/>
<polyline fill="none" stroke="#000000" stroke-width="0.5" points="344.25,81.7856 342.189,81.7856"/>
<text fill="#000000" style="stroke:none" x="316" y="406" transform="rotate(-0, 316, 406)" font-size="10" font-family="SansSerif" font-style="normal" font-weight="normal">-100</text>
<text fill="#000000" style="stroke:none" x="322" y="357" transform="rotate(-0, 322, 357)" font-size="10" font-family="SansSerif" font-style="normal" font-weight="normal">-80</text>
<text fill="#000000" style="stroke:none" x="322" y="308" transform="rotate(-0, 322, 308)" font-size="10" font-family="SansSerif" font-style="normal" font-weight="normal">-60</text>
<text fill="#000000" style="stroke:none" x="322" y="259" transform="rotate(-0, 322, 259)" font-size="10" font-family="SansSerif" font-style="normal" font-weight="normal">-40</text>
<text fill="#000000" style="stroke:none" x="322" y="209" transform="rotate(-0, 322, 209)" font-size="10" font-family="SansSerif" font-style="normal" font-weight="normal">-20</text>
<text fill="#000000" style="stroke:none" x="332" y="160" transform="rotate(-0, 332, 160)" font-size="10" font-family="SansSerif" font-style="normal" font-weight="normal">0</text>
<text fill="#000000" style="stroke:none" x="327" y="111" transform="rotate(-0, 327, 111)" font-size="10" font-family="SansSerif" font-style="normal" font-weight="normal">20</text>
<text fill="#000000" style="stroke:none" x="326" y="62" transform="rotate(-0, 326, 62)" font-size="10" font-family="SansSerif" font-style="normal" font-weight="normal">40</text>
<polyline fill="none" stroke="#bebebe" stroke-width="0.5" stroke-dasharray="4,4,4,4" points="344.25,400.75 573.75,400.75 573.75,400.75"/>
<polyline fill="none" stroke="#bebebe" stroke-width="0.5" stroke-dasharray="4,4,4,4" points="344.25,351.679 573.75,351.679 573.75,351.679"/>
<polyline fill="none" stroke="#bebebe" stroke-width="0.5" stroke-dasharray="4,4,4,4" points="344.25,302.607 573.75,302.607 573.75,302.607"/>
<polyline fill="none" stroke="#bebebe" stroke-width="0.5" stroke-dasharray="4,4,4,4" points="344.25,253.536 573.75,253.536 573.75,253.536"/>
<polyline fill="none" stroke="#bebebe" stroke-width="0.5" stroke-dasharray="4,4,4,4" points="344.25,204.464 573.75,204.464 573.75,204.464"/>
<polyline fill="none" stroke="#bebebe" stroke-width="0.5" stroke-dasharray="4,4,4,4" points="344.25,155.393 573.75,155.393 573.75,155.393"/>
<polyline fill="none" stroke="#bebebe" stroke-width="0.5" stroke-dasharray="4,4,4,4" points="344.25,106.321 573.75,106.321 573.75,106.321"/>
<polyline fill="none" stroke="#bebebe" stroke-width="0.5" stroke-dasharray="4,4,4,4" points="344.25,57.25 573.75,57.25 573.75,57.25"/>
<polyline fill="none" stroke="#000000" stroke-width="0.5" points="344.25,400.75 573.75,400.75"/>
<polyline fill="none" stroke="#000000" stroke-width="0.5" points="344.25,400.75 344.25,405.895"/>
<polyline fill="none" stroke="#000000" stroke-width="0.5" points="390.15,400.75 390.15,405.895"/>
<polyline fill="none" stroke="#000000" stroke-width="0.5" points="436.05,400.75 436.05,405.895"/>
<polyline fill="none" stroke="#000000" stroke-width="0.5" points="481.95,400.75 481.95,405.895"/>
<polyline fill="none" stroke="#000000" stroke-width="0.5" points="527.85,400.75 527.85,405.895"/>
<polyline fill="none" stroke="#000000" stroke-width="0.5" points="573.75,400.75 573.75,405.895"/>
<polyline fill="none" stroke="#000000" stroke-width="0.5" points="353.43,400.75 353.43,403.837"/>
<polyline fill="none" stroke="#000000" stroke-width="0.5" points="362.61,400.75 362.61,403.837"/>
<polyline fill="none" stroke="#000000" stroke-width="0.5" points="371.79,400.75 371.79,403.837"/>
<polyline fill="none" stroke="#000000" stroke-width="0.5" points="380.97,400.75 380.97,403.837"/>
<polyline fill="none" stroke="#000000" stroke-width="0.5" points="399.33,400.75 399.33,403.837"/>
<polyline fill="none" stroke="#000000" stroke-width="0.5" points="408.51,400.75 408.51,403.837"/>
<polyline fill="none" stroke="#000000" stroke-width="0.5" points="417.69,400.75 417.69,403.837"/>
<polyline fill="none" stroke="#000000" stroke-width="0.5" points="426.87,400.75 426.87,403.837"/>
<polyline fill="none" stroke="#000000" stroke-width="0.5" points="445.23,400.75 445.23,403.837"/>
<polyline fill="none" stroke="#000000" stroke-width="0.5" points="454.41,400.75 454.41,403.837"/>
<polyline fill="none" stroke="#000000" stroke-width="0.5" points="463.59,400.75 463.59,403.837"/>
<polyline fill="none" stroke="#000000" stroke-width="0.5" points="472.77,400.75 472.77,403.837"/>
<polyline fill="none" stroke="#000000" stroke-width="0.5" points="491.13,400.75 491.13,403.837"/>
<polyline fill="none" stroke="#000000" stroke-width="0.5" points="500.31,400.75 500.31,403.837"/>
<polyline fill="none" stroke="#000000" stroke-width="0.5" points="509.49,400.75 509.49,403.837"/>
<polyline fill="none" stroke="#000000" stroke-width="0.5" points="518.67,400.75 518.67,403.837"/>
<polyline fill="none" stroke="#000000" stroke-width="0.5" points="537.03,400.75 537.03,403.837"/>
<polyline fill="none" stroke="#000000" stroke-width="0.5" points="546.21,400.75 546.21,403.837"/>
<polyline fill="none" stroke="#000000" stroke-width="0.5" points="555.39,400.75 555.39,403.837"/>
<polyline fill="none" stroke="#000000" stroke-width="0.5" points="564.57,400.75 564.57,403.837"/>
<text fill="#000000" style="stroke:none" x="336" y="417" transform="rotate(-0, 336, 417)" font-size="10" font-family="SansSerif" font-style="normal" font-weight="normal">0.0</text>
<text fill="#000000" style="stroke:none" x="382" y="417" transform="rotate(-0, 382, 417)" font-size="10" font-family="SansSerif" font-style="normal" font-weight="normal">0.1</text>
<text fill="#000000" style="stroke:none" x="428" y="417" transform="rotate(-0, 428, 417)" font-size="10" font-family="SansSerif" font-style="normal" font-weight="normal">0.2</text>
<text fill="#000000" style="stroke:none" x="474" y="417" transform="rotate(-0, 474, 417)" font-size="10" font-family="SansSerif" font-style="normal" font-weight="normal">0.3</text>
<text fill="#000000" style="stroke:none" x="519" y="417" transform="rotate(-0, 519, 417)" font-size="10" font-family="SansSerif" font-style="normal" font-weight="normal">0.4</text>
<text fill="#000000" style="stroke:none" x="566" y="417" transform="rotate(-0, 566, 417)" font-size="10" font-family="SansSerif" font-style="normal" font-weight="normal">0.5</text>
<polyline fill="none" stroke="#bebebe" stroke-width="0.5" stroke-dasharray="4,4,4,4" points="344.25,400.75 344.25,57.25 344.25,57.25"/>
<polyline fill="none" stroke="#bebebe" stroke-width="0.5" stroke-dasharray="4,4,4,4" points="390.15,400.75 390.15,57.25 390.15,57.25"/>
<polyline fill="none" stroke="#bebebe" stroke-width="0.5" stroke-dasharray="4,4,4,4" points="436.05,400.75 436.05,57.25 436.05,57.25"/>
<polyline fill="none" stroke="#bebebe" stroke-width="0.5" stroke-dasharray="4,4,4,4" points="481.95,400.75 481.95,57.25 481.95,57.25"/>
<polyline fill="none" stroke="#bebebe" stroke-width="0.5" stroke-dasharray="4,4,4,4" points="527.85,400.75 527.85,57.25 527.85,57.25"/>
<polyline fill="none" stroke="#bebebe" stroke-width="0.5" stroke-dasharray="4,4,4,4" points="573.75,400.75 573.75,57.25 573.75,57.25"/>
<text fill="#000000" style="stroke:none" x="419" y="48" transform="rotate(0, 419, 48)" font-size="10" font-family="SansSerif" font-style="normal" font-weight="normal">Magnitude plot</text>
<text fill="#000000" style="stroke:none" x="419" y="432" transform="rotate(0, 419, 432)" font-size="10" font-family="SansSerif" font-style="normal" font-weight="normal">Pulsation (rd/s)</text>
<text fill="#000000" style="stroke:none" x="308" y="270" transform="rotate(270, 308, 270)" font-size="10" font-family="SansSerif" font-style="normal" font-weight="normal">Magnitude (dB)</text>
</g>
</svg>
