<?xml version="1.0" encoding="UTF-8" standalone="no"?>
<svg xmlns="http://www.w3.org/2000/svg"
     xmlns:xlink="http://www.w3.org/1999/xlink"
     width="448px" height="279px" viewBox="0 0 448 279"
     style="stroke:none">
<title>Figure n°2</title>
<desc>
Creator: GL2PS 1.3.2, (C) 1999-2006 Christophe Geuzaine (geuz@geuz.org)
For: Scilab
CreationDate: Wed Nov 30 18:04:55 2011
</desc>
<defs>
</defs>
<polygon fill="#ffffff" points="0,0 448,0 448,279 0,279"/>
<g>
<polygon fill="#ffffff" points="56,244.125 56,34.875 56,34.875"/>
<polygon fill="#ffffff" points="56,244.125 56,34.875 56,244.125"/>
<polygon fill="#ffffff" points="56,244.125 392,244.125 392,244.125"/>
<polygon fill="#ffffff" points="56,244.125 392,244.125 56,244.125"/>
<polygon fill="#ffffff" points="56,244.125 392,244.125 392,34.875"/>
<polygon fill="#ffffff" points="56,244.125 392,34.875 56,34.875"/>
<polyline fill="none" stroke="#000000" stroke-width="0.5" points="56.0005,160.375 56.7021,160.617 57.4038,161.365 58.105,162.698 58.8066,164.792 59.5078,168.027 60.2095,173.43 60.9106,185.904 61.6123,184.822 62.314,172.6 63.0151,166.958 63.7168,163.404 64.418,160.952 65.1196,159.225 65.8213,158.044 66.5225,157.318 67.2241,157.004 67.9253,157.091 68.627,157.602 69.3286,158.593 70.0298,160.183 70.7314,162.607 71.4326,166.401 72.1343,173.194 72.8354,198.582 73.5371,175.25 74.2388,166.543 74.9399,161.713 75.6416,158.459 76.3428,156.108 77.0444,154.375 77.7461,153.114 78.4473,152.245 79.1489,151.725 79.8501,151.537 80.5518,151.681 81.2534,152.18 81.9546,153.083 82.6562,154.477 83.3574,156.529 84.0591,159.578 84.7603,164.463 85.4619,174.543 86.1636,182.067 86.8647,166.234 87.5664,159.853 88.2676,155.88 88.9692,153.087 89.6709,151.029 90.3721,149.498 91.0737,148.382 91.7749,147.617 92.4766,147.171 93.1782,147.028 93.8794,147.19 94.5811,147.677 95.2822,148.53 95.9839,149.823 96.6851,151.688 97.3867,154.382 98.0884,158.484 98.7896,165.818 99.4912,203.212 100.192,166.316 100.894,158.191 101.596,153.583 102.297,150.452 102.999,148.175 103.7,146.481 104.401,145.23 105.103,144.343 105.804,143.776 106.506,143.505 107.207,143.524 107.909,143.843 108.61,144.485 109.312,145.501 110.013,146.976 110.714,149.064 111.416,152.071 112.117,156.728 112.819,165.667 113.521,181.358 114.222,160.865 114.923,154.002 115.625,149.871 116.326,147.009 117.027,144.916 117.729,143.359 118.431,142.219 119.132,141.425 119.833,140.938 120.535,140.737 121.236,140.818 121.938,141.189 122.639,141.876 123.341,142.925 124.042,144.417 124.744,146.498 125.445,149.448 126.146,153.922 126.848,162.123 127.549,188.621 128.251,159.997 128.952,152.668 129.654,148.396 130.355,145.481 131.057,143.368 131.758,141.806 132.459,140.666 133.161,139.871 133.863,139.377 134.564,139.158 135.266,139.204 135.967,139.513 136.668,140.099 137.37,140.987 138.071,142.221 138.773,143.876 139.474,146.085 140.176,149.095 140.877,153.456 141.579,160.846 142.28,188.586 142.981,163.381 143.683,155.224 144.384,150.823 145.086,147.943 145.788,145.917 146.489,144.449 147.19,143.382 147.892,142.615 148.593,142.076 149.294,141.707 149.996,141.454 150.698,141.266 151.399,141.09 152.101,140.875 152.802,140.574 153.503,140.146 154.205,139.567 154.906,138.833 155.608,137.958 156.309,136.976 157.011,135.93 157.712,134.871 158.414,133.853 159.115,132.929 159.816,132.153 160.518,131.586 161.219,131.302 161.921,131.402 162.623,132.048 163.324,133.54 164.025,136.565 164.727,143.478 165.428,163.423 166.13,137.165 166.831,128.376 167.533,122.479 168.234,117.864 168.936,113.994 169.637,110.619 170.338,107.604 171.04,104.866 171.741,102.351 172.443,100.022 173.144,97.8506 173.846,95.8169 174.547,93.9043 175.249,92.0996 175.95,90.3931 176.651,88.7759 177.353,87.2412 178.055,85.7827 178.756,84.395 179.458,83.0737 180.159,81.8145 180.86,80.6143 181.562,79.4697 182.263,78.3779 182.965,77.3369 183.666,76.3438 184.368,75.3965 185.069,74.4932 185.771,73.6323 186.472,72.812 187.173,72.0308 187.875,71.2871 188.576,70.5796 189.278,69.9072 189.979,69.269 190.681,68.6631 191.382,68.0889 192.083,67.5454 192.785,67.0312 193.486,66.5459 194.188,66.0884 194.89,65.6572 195.591,65.252 196.292,64.8716 196.994,64.5156 197.695,64.1831 198.397,63.8726 199.098,63.5835 199.8,63.3154 200.501,63.0674 201.203,62.8389 201.904,62.6279 202.605,62.4351 203.307,62.2588 204.008,62.0981 204.71,61.9526 205.411,61.8213 206.113,61.7036 206.814,61.5986 207.516,61.5054 208.217,61.4229 208.918,61.3511 209.62,61.2881 210.322,61.2344 211.023,61.1885 211.725,61.1494 212.426,61.1167 213.127,61.0903 213.829,61.0684 214.53,61.0508 215.232,61.0376 215.933,61.0269 216.635,61.019 217.336,61.0137 218.038,61.0098 218.739,61.0068 219.44,61.0049 220.142,61.0034 220.843,61.0024 221.545,61.0015 222.247,61.0005 222.948,60.999 223.649,60.9976 224.351,60.9956 225.052,60.9937 225.753,60.9917 226.455,60.9893 227.157,60.9873 227.858,60.9858 228.56,60.9854 229.261,60.9854 229.962,60.9868 230.664,60.9902 231.365,60.9961 232.067,61.0044 232.768,61.0161 233.47,61.0312 234.171,61.0508 234.873,61.0752 235.574,61.105 236.275,61.1406 236.977,61.1831 237.678,61.2324 238.38,61.29 239.082,61.3564 239.783,61.4321 240.484,61.5181 241.186,61.6147 241.887,61.7227 242.589,61.8428 243.29,61.9761 243.992,62.123 244.693,62.2847 245.395,62.4614 246.096,62.6543 246.797,62.8638 247.499,63.0913 248.2,63.3374 248.902,63.6025 249.603,63.8882 250.305,64.1943 251.006,64.5229 251.708,64.874 252.409,65.249 253.11,65.6489 253.812,66.0742 254.514,66.5259 255.215,67.0054 255.917,67.5137 256.618,68.0518 257.319,68.6206 258.021,69.2217 258.722,69.8564 259.424,70.5254 260.125,71.231 260.827,71.9736 261.528,72.7559 262.229,73.5786 262.931,74.4438 263.632,75.3535 264.334,76.3096 265.035,77.3145 265.737,78.3706 266.438,79.4805 267.14,80.6465 267.841,81.8726 268.542,83.1611 269.244,84.5171 269.945,85.9443 270.647,87.4478 271.349,89.0327 272.05,90.7046 272.751,92.4717 273.453,94.3408 274.154,96.3223 274.856,98.4263 275.557,100.666 276.259,103.057 276.96,105.617 277.662,108.37 278.363,111.343 279.064,114.573 279.766,118.107 280.467,122.007 281.169,126.357 281.87,131.281 282.572,136.958 283.273,143.67 283.975,151.862 284.676,162.148 285.377,173.812 286.079,176.855 286.781,169.784 287.482,163.751 288.184,160.223 288.885,158.881 289.586,159.871 290.288,164.798 290.989,210.579 291.691,160.927 292.392,151.431 293.094,145.553 293.795,141.281 294.497,137.971 295.198,135.331 295.899,133.198 296.601,131.477 297.302,130.104 298.004,129.038 298.706,128.252 299.407,127.731 300.108,127.467 300.81,127.462 301.511,127.726 302.212,128.281 302.914,129.167 303.616,130.448 304.317,132.235 305.019,134.731 305.72,138.36 306.421,144.271 307.123,158.535 307.824,153.469 308.526,142.475 309.227,137.125 309.929,133.68 310.63,131.243 311.332,129.459 312.033,128.151 312.734,127.225 313.436,126.622 314.137,126.311 314.839,126.279 315.541,126.523 316.242,127.059 316.943,127.913 317.645,129.139 318.346,130.829 319.048,133.146 319.749,136.42 320.451,141.454 321.152,151.338 321.854,161.477 322.555,144.618 323.256,138.276 323.958,134.433 324.659,131.788 325.361,129.88 326.062,128.492 326.764,127.509 327.465,126.865 328.167,126.522 328.868,126.462 329.569,126.681 330.271,127.188 330.973,128.012 331.674,129.2 332.375,130.838 333.077,133.078 333.778,136.22 334.479,140.974 335.181,149.854 335.883,167.824 336.584,146.014 337.286,139.173 337.987,135.138 338.688,132.391 339.39,130.417 340.091,128.984 340.793,127.966 341.494,127.292 342.196,126.925 342.897,126.841 343.599,127.038 344.3,127.523 345.001,128.322 345.703,129.481 346.404,131.084 347.106,133.275 347.808,136.342 348.509,140.948 349.21,149.355 349.912,173.695 350.613,147.018 351.315,139.863 352.016,135.708 352.718,132.896 353.419,130.879 354.121,129.413 354.822,128.369 355.523,127.673 356.225,127.285 356.926,127.183 357.628,127.361 358.329,127.827 359.031,128.605 359.732,129.742 360.434,131.318 361.135,133.474 361.836,136.487 362.538,140.996 363.24,149.112 363.941,180.075 364.643,147.753 365.344,140.37 366.045,136.129 366.747,133.268 367.448,131.219 368.15,129.727 368.851,128.662 369.553,127.948 370.254,127.542 370.956,127.424 371.657,127.585 372.358,128.035 373.06,128.796 373.761,129.914 374.463,131.467 375.165,133.594 375.866,136.566 376.567,141 377.269,148.905 377.97,189.138 378.672,148.285 379.373,140.716 380.075,136.406 380.776,133.505 381.478,131.428 382.179,129.915 382.88,128.831 383.582,128.101 384.283,127.68 384.985,127.547 385.686,127.694 386.388,128.128 387.089,128.874 387.791,129.974 388.492,131.506 389.193,133.608 389.895,136.543 390.596,140.912 391.298,148.641 392,227.561"/>
<polyline fill="none" stroke="#000000" stroke-width="0.5" points="56,244.125 56,34.875"/>
<polyline fill="none" stroke="#000000" stroke-width="0.5" points="56,244.125 50.96,244.125"/>
<polyline fill="none" stroke="#000000" stroke-width="0.5" points="56,217.969 50.96,217.969"/>
<polyline fill="none" stroke="#000000" stroke-width="0.5" points="56,191.812 50.96,191.812"/>
<polyline fill="none" stroke="#000000" stroke-width="0.5" points="56,165.656 50.96,165.656"/>
<polyline fill="none" stroke="#000000" stroke-width="0.5" points="56,139.5 50.96,139.5"/>
<polyline fill="none" stroke="#000000" stroke-width="0.5" points="56,113.344 50.96,113.344"/>
<polyline fill="none" stroke="#000000" stroke-width="0.5" points="56,87.1875 50.96,87.1875"/>
<polyline fill="none" stroke="#000000" stroke-width="0.5" points="56,61.0312 50.96,61.0312"/>
<polyline fill="none" stroke="#000000" stroke-width="0.5" points="56,34.875 50.96,34.875"/>
<polyline fill="none" stroke="#000000" stroke-width="0.5" points="56,231.047 52.9761,231.047"/>
<polyline fill="none" stroke="#000000" stroke-width="0.5" points="56,204.891 52.9761,204.891"/>
<polyline fill="none" stroke="#000000" stroke-width="0.5" points="56,178.734 52.9761,178.734"/>
<polyline fill="none" stroke="#000000" stroke-width="0.5" points="56,152.578 52.9761,152.578"/>
<polyline fill="none" stroke="#000000" stroke-width="0.5" points="56,126.422 52.9761,126.422"/>
<polyline fill="none" stroke="#000000" stroke-width="0.5" points="56,100.266 52.9761,100.266"/>
<polyline fill="none" stroke="#000000" stroke-width="0.5" points="56,74.1094 52.9761,74.1094"/>
<polyline fill="none" stroke="#000000" stroke-width="0.5" points="56,47.9531 52.9761,47.9531"/>
<text fill="#000000" style="stroke:none" x="25" y="249" transform="rotate(-0, 25, 249)" font-size="10" font-family="SansSerif" font-style="normal" font-weight="normal">-140</text>
<text fill="#000000" style="stroke:none" x="25" y="223" transform="rotate(-0, 25, 223)" font-size="10" font-family="SansSerif" font-style="normal" font-weight="normal">-120</text>
<text fill="#000000" style="stroke:none" x="25" y="197" transform="rotate(-0, 25, 197)" font-size="10" font-family="SansSerif" font-style="normal" font-weight="normal">-100</text>
<text fill="#000000" style="stroke:none" x="31" y="171" transform="rotate(-0, 31, 171)" font-size="10" font-family="SansSerif" font-style="normal" font-weight="normal">-80</text>
<text fill="#000000" style="stroke:none" x="31" y="145" transform="rotate(-0, 31, 145)" font-size="10" font-family="SansSerif" font-style="normal" font-weight="normal">-60</text>
<text fill="#000000" style="stroke:none" x="31" y="118" transform="rotate(-0, 31, 118)" font-size="10" font-family="SansSerif" font-style="normal" font-weight="normal">-40</text>
<text fill="#000000" style="stroke:none" x="31" y="92" transform="rotate(-0, 31, 92)" font-size="10" font-family="SansSerif" font-style="normal" font-weight="normal">-20</text>
<text fill="#000000" style="stroke:none" x="42" y="66" transform="rotate(-0, 42, 66)" font-size="10" font-family="SansSerif" font-style="normal" font-weight="normal">0</text>
<text fill="#000000" style="stroke:none" x="37" y="40" transform="rotate(-0, 37, 40)" font-size="10" font-family="SansSerif" font-style="normal" font-weight="normal">20</text>
<polyline fill="none" stroke="#bebebe" stroke-width="0.5" stroke-dasharray="4,4,4,4" points="56,244.125 392,244.125 392,244.125"/>
<polyline fill="none" stroke="#bebebe" stroke-width="0.5" stroke-dasharray="4,4,4,4" points="56,217.969 392,217.969 392,217.969"/>
<polyline fill="none" stroke="#bebebe" stroke-width="0.5" stroke-dasharray="4,4,4,4" points="56,191.812 392,191.812 392,191.812"/>
<polyline fill="none" stroke="#bebebe" stroke-width="0.5" stroke-dasharray="4,4,4,4" points="56,165.656 392,165.656 392,165.656"/>
<polyline fill="none" stroke="#bebebe" stroke-width="0.5" stroke-dasharray="4,4,4,4" points="56,139.5 392,139.5 392,139.5"/>
<polyline fill="none" stroke="#bebebe" stroke-width="0.5" stroke-dasharray="4,4,4,4" points="56,113.344 392,113.344 392,113.344"/>
<polyline fill="none" stroke="#bebebe" stroke-width="0.5" stroke-dasharray="4,4,4,4" points="56,87.1875 392,87.1875 392,87.1875"/>
<polyline fill="none" stroke="#bebebe" stroke-width="0.5" stroke-dasharray="4,4,4,4" points="56,61.0312 392,61.0312 392,61.0312"/>
<polyline fill="none" stroke="#bebebe" stroke-width="0.5" stroke-dasharray="4,4,4,4" points="56,34.875 392,34.875 392,34.875"/>
<polyline fill="none" stroke="#000000" stroke-width="0.5" points="56,244.125 392,244.125"/>
<polyline fill="none" stroke="#000000" stroke-width="0.5" points="56,244.125 56,247.26"/>
<polyline fill="none" stroke="#000000" stroke-width="0.5" points="89.6001,244.125 89.6001,247.26"/>
<polyline fill="none" stroke="#000000" stroke-width="0.5" points="123.2,244.125 123.2,247.26"/>
<polyline fill="none" stroke="#000000" stroke-width="0.5" points="156.8,244.125 156.8,247.26"/>
<polyline fill="none" stroke="#000000" stroke-width="0.5" points="190.4,244.125 190.4,247.26"/>
<polyline fill="none" stroke="#000000" stroke-width="0.5" points="224,244.125 224,247.26"/>
<polyline fill="none" stroke="#000000" stroke-width="0.5" points="257.6,244.125 257.6,247.26"/>
<polyline fill="none" stroke="#000000" stroke-width="0.5" points="291.2,244.125 291.2,247.26"/>
<polyline fill="none" stroke="#000000" stroke-width="0.5" points="324.8,244.125 324.8,247.26"/>
<polyline fill="none" stroke="#000000" stroke-width="0.5" points="358.4,244.125 358.4,247.26"/>
<polyline fill="none" stroke="#000000" stroke-width="0.5" points="392,244.125 392,247.26"/>
<text fill="#000000" style="stroke:none" x="48" y="258" transform="rotate(-0, 48, 258)" font-size="10" font-family="SansSerif" font-style="normal" font-weight="normal">0.0</text>
<text fill="#000000" style="stroke:none" x="82" y="258" transform="rotate(-0, 82, 258)" font-size="10" font-family="SansSerif" font-style="normal" font-weight="normal">0.5</text>
<text fill="#000000" style="stroke:none" x="115" y="258" transform="rotate(-0, 115, 258)" font-size="10" font-family="SansSerif" font-style="normal" font-weight="normal">1.0</text>
<text fill="#000000" style="stroke:none" x="149" y="258" transform="rotate(-0, 149, 258)" font-size="10" font-family="SansSerif" font-style="normal" font-weight="normal">1.5</text>
<text fill="#000000" style="stroke:none" x="182" y="258" transform="rotate(-0, 182, 258)" font-size="10" font-family="SansSerif" font-style="normal" font-weight="normal">2.0</text>
<text fill="#000000" style="stroke:none" x="216" y="258" transform="rotate(-0, 216, 258)" font-size="10" font-family="SansSerif" font-style="normal" font-weight="normal">2.5</text>
<text fill="#000000" style="stroke:none" x="250" y="258" transform="rotate(-0, 250, 258)" font-size="10" font-family="SansSerif" font-style="normal" font-weight="normal">3.0</text>
<text fill="#000000" style="stroke:none" x="283" y="258" transform="rotate(-0, 283, 258)" font-size="10" font-family="SansSerif" font-style="normal" font-weight="normal">3.5</text>
<text fill="#000000" style="stroke:none" x="316" y="258" transform="rotate(-0, 316, 258)" font-size="10" font-family="SansSerif" font-style="normal" font-weight="normal">4.0</text>
<text fill="#000000" style="stroke:none" x="350" y="258" transform="rotate(-0, 350, 258)" font-size="10" font-family="SansSerif" font-style="normal" font-weight="normal">4.5</text>
<text fill="#000000" style="stroke:none" x="384" y="258" transform="rotate(-0, 384, 258)" font-size="10" font-family="SansSerif" font-style="normal" font-weight="normal">5.0</text>
<polyline fill="none" stroke="#bebebe" stroke-width="0.5" stroke-dasharray="4,4,4,4" points="56,244.125 56,34.875 56,34.875"/>
<polyline fill="none" stroke="#bebebe" stroke-width="0.5" stroke-dasharray="4,4,4,4" points="89.6001,244.125 89.6001,34.875 89.6001,34.875"/>
<polyline fill="none" stroke="#bebebe" stroke-width="0.5" stroke-dasharray="4,4,4,4" points="123.2,244.125 123.2,34.875 123.2,34.875"/>
<polyline fill="none" stroke="#bebebe" stroke-width="0.5" stroke-dasharray="4,4,4,4" points="156.8,244.125 156.8,34.875 156.8,34.875"/>
<polyline fill="none" stroke="#bebebe" stroke-width="0.5" stroke-dasharray="4,4,4,4" points="190.4,244.125 190.4,34.875 190.4,34.875"/>
<polyline fill="none" stroke="#bebebe" stroke-width="0.5" stroke-dasharray="4,4,4,4" points="224,244.125 224,34.875 224,34.875"/>
<polyline fill="none" stroke="#bebebe" stroke-width="0.5" stroke-dasharray="4,4,4,4" points="257.6,244.125 257.6,34.875 257.6,34.875"/>
<polyline fill="none" stroke="#bebebe" stroke-width="0.5" stroke-dasharray="4,4,4,4" points="291.2,244.125 291.2,34.875 291.2,34.875"/>
<polyline fill="none" stroke="#bebebe" stroke-width="0.5" stroke-dasharray="4,4,4,4" points="324.8,244.125 324.8,34.875 324.8,34.875"/>
<polyline fill="none" stroke="#bebebe" stroke-width="0.5" stroke-dasharray="4,4,4,4" points="358.4,244.125 358.4,34.875 358.4,34.875"/>
<polyline fill="none" stroke="#bebebe" stroke-width="0.5" stroke-dasharray="4,4,4,4" points="392,244.125 392,34.875 392,34.875"/>
<text fill="#000000" style="stroke:none" x="185" y="273" transform="rotate(0, 185, 273)" font-size="10" font-family="SansSerif" font-style="normal" font-weight="normal">frequency (Hz)</text>
<text fill="#000000" style="stroke:none" x="16" y="179" transform="rotate(270, 16, 179)" font-size="10" font-family="SansSerif" font-style="normal" font-weight="normal">Magnitude (dB)</text>
</g>
</svg>
