<?xml version="1.0" encoding="UTF-8" standalone="no"?>
<!-- Created with Inkscape (http://www.inkscape.org/) -->

<svg
   xmlns:svg="http://www.w3.org/2000/svg"
   xmlns="http://www.w3.org/2000/svg"
   version="1.0"
   width="40"
   height="77.848526"
   id="svg2">
  <defs
     id="defs4" />
  <g
     transform="translate(-30,14)"
     id="layer1">
    <path
       d="m 50,45 c 0,14.4 0,18 0,18"
       id="path3059"
       style="fill:#cc0000;fill-opacity:1;stroke:#cc0000;stroke-width:1.69705629;stroke-linecap:butt;stroke-linejoin:miter;stroke-opacity:1" />
    <path
       d="m 60.128295,6.3780511 0,-19.5063461"
       id="path3061"
       style="fill:#cc0000;fill-opacity:1;stroke:#cc0000;stroke-width:1.74340975;stroke-linecap:butt;stroke-linejoin:miter;stroke-opacity:1" />
    <path
       d="m 39.871705,7.1282951 0,-20.2565901"
       id="path3944"
       style="fill:#cc0000;fill-opacity:1;stroke:#cc0000;stroke-width:1.74340975;stroke-linecap:butt;stroke-linejoin:miter;stroke-opacity:1" />
    <path
       d="M 70,5 68.571429,5 31.428571,5 30,5 30,6.428571 30,25.47619 c 0,11.267908 9.000045,20 20,20 10.999955,0 20,-8.732091 20,-20 0,0 0,0 0,-19.047619 L 70,5 z m -2.857143,2.857143 c 0,7.977121 0,13.061225 0,15.238095 0,1.190476 0,1.785714 0,2.083333 0,0.14881 0,0.230656 0,0.267858 0,0.0186 0,0.02511 0,0.02976 0,9.760663 -7.639955,16.666667 -17.142857,16.666667 -9.502902,0 -17.142857,-7.382195 -17.142857,-17.142857 l 0,-17.142857 34.285714,0 z"
       id="path2884"
       style="font-size:medium;font-style:normal;font-variant:normal;font-weight:normal;font-stretch:normal;text-indent:0pt;text-align:start;text-decoration:none;line-height:normal;letter-spacing:normal;word-spacing:normal;text-transform:none;direction:ltr;text-anchor:start;fill:#cc0000;fill-opacity:1;stroke:none;stroke-width:3;marker:none;visibility:visible;display:inline;overflow:visible;font-family:Bitstream Vera Sans" />
  </g>
</svg>
