<?xml version="1.0" encoding="UTF-8" standalone="no"?>
<!-- Created with Inkscape (http://www.inkscape.org/) -->

<svg
   xmlns:svg="http://www.w3.org/2000/svg"
   xmlns="http://www.w3.org/2000/svg"
   version="1.0"
   width="44"
   height="80"
   id="svg2">
  <defs
     id="defs10" />
  <g
     transform="translate(-28,15.075736)"
     id="layer1"
     style="fill:#cc0000">
    <path
       d="M 50,45 V 63"
       id="path3059"
       style="stroke:#cc0000;stroke-width:1.69705629;stroke-linecap:butt;stroke-linejoin:miter" />
    <path
       d="m 60.128,6.3781 0,-19.506"
       id="path3061"
       style="stroke:#cc0000;stroke-width:1.74340975;stroke-linecap:butt;stroke-linejoin:miter" />
    <path
       d="m 39.872,7.1283 0,-20.257"
       id="path3944"
       style="stroke:#cc0000;stroke-width:1.74340975;stroke-linecap:butt;stroke-linejoin:miter" />
    <path
       d="M 70,5 68.571,5 31.429,5 30,5 30,6.4286 30,25.476 c 0,11.268 9,20 20,20 11,0 20,-8.7321 20,-20 L 70,6.428 70,5 z m -2.8571,2.8571 0,17.58916 0,0.02976 c 0,9.7607 -7.64,16.667 -17.143,16.667 -9.5029,0 -17.143,-7.3822 -17.143,-17.143 l 0,-17.143 34.286,0 0,8e-5 z"
       id="path2884"
       style="text-indent:0pt;text-align:start;text-transform:none;direction:ltr" />
  </g>
</svg>
