<?xml version="1.0" encoding="UTF-8" standalone="no"?>
<!-- Created with Inkscape (http://www.inkscape.org/) -->

<svg
   xmlns:svg="http://www.w3.org/2000/svg"
   xmlns="http://www.w3.org/2000/svg"
   xmlns:xlink="http://www.w3.org/1999/xlink"
   version="1.1"
   width="41.061924"
   height="44.821644"
   id="svg11300">
  <title
     id="title3289">base scilan</title>
  <defs
     id="defs3">
    <linearGradient
       id="linearGradient11520">
      <stop
         id="stop11522"
         style="stop-color:#ffffff;stop-opacity:1"
         offset="0" />
      <stop
         id="stop11524"
         style="stop-color:#dcdcdc;stop-opacity:1"
         offset="1" />
    </linearGradient>
    <radialGradient
       cx="24.44569"
       cy="35.87817"
       r="20.530962"
       fx="24.44569"
       fy="35.87817"
       id="radialGradient28495"
       xlink:href="#linearGradient11520"
       gradientUnits="userSpaceOnUse"
       gradientTransform="matrix(1.995058,0,0,1.995058,-24.32488,-35.70087)" />
    <linearGradient
       x1="8.8207808"
       y1="12.53757"
       x2="12.499243"
       y2="24.238262"
       id="linearGradient28301"
       xlink:href="#linearGradient2180"
       gradientUnits="userSpaceOnUse"
       gradientTransform="matrix(3.5473248,0,0,1.750325,101.1836,-36.807468)" />
    <radialGradient
       cx="23.994133"
       cy="32.266911"
       r="19.088932"
       fx="23.994133"
       fy="32.266911"
       id="radialGradient28299"
       xlink:href="#linearGradient2222"
       gradientUnits="userSpaceOnUse"
       gradientTransform="matrix(1.5662092,0,0,1.2283508,100.82265,-33.298382)" />
    <radialGradient
       cx="24.44569"
       cy="35.87817"
       r="20.530962"
       fx="24.44569"
       fy="35.87817"
       id="radialGradient28297"
       xlink:href="#linearGradient11520-0"
       gradientUnits="userSpaceOnUse"
       gradientTransform="matrix(2.928002,0,0,2.928002,-98.061297,-61.812787)" />
    <linearGradient
       id="linearGradient2222">
      <stop
         id="stop2224"
         style="stop-color:#5187d6;stop-opacity:1"
         offset="0" />
      <stop
         id="stop2227"
         style="stop-color:#1e4580;stop-opacity:1"
         offset="1" />
    </linearGradient>
    <linearGradient
       id="linearGradient2180">
      <stop
         id="stop2182"
         style="stop-color:#ffffff;stop-opacity:1"
         offset="0" />
      <stop
         id="stop2184"
         style="stop-color:#ffffff;stop-opacity:0"
         offset="1" />
    </linearGradient>
    <linearGradient
       id="linearGradient11520-0">
      <stop
         id="stop11522-3"
         style="stop-color:#ffffff;stop-opacity:1"
         offset="0" />
      <stop
         id="stop11524-2"
         style="stop-color:#dcdcdc;stop-opacity:1"
         offset="1" />
    </linearGradient>
    <linearGradient
       x1="8.8207808"
       y1="12.53757"
       x2="12.499243"
       y2="24.238262"
       id="linearGradient20862"
       xlink:href="#linearGradient2180"
       gradientUnits="userSpaceOnUse"
       gradientTransform="matrix(0,-5.2061514,2.5688251,0,-29.704096,74.916646)" />
    <radialGradient
       cx="23.994133"
       cy="32.266911"
       r="19.088932"
       fx="23.994133"
       fy="32.266911"
       id="radialGradient20865"
       xlink:href="#linearGradient2222"
       gradientUnits="userSpaceOnUse"
       gradientTransform="matrix(2.2986117,0,0,1.8027614,-75.446386,-24.554065)" />
    <radialGradient
       cx="24.44569"
       cy="35.87817"
       r="20.530962"
       fx="24.44569"
       fy="35.87817"
       id="radialGradient20897"
       xlink:href="#linearGradient11520-0"
       gradientUnits="userSpaceOnUse"
       gradientTransform="matrix(2.928002,0,0,2.928002,-98.061297,-61.812787)" />
    <radialGradient
       cx="23.994133"
       cy="32.266911"
       r="19.088932"
       fx="23.994133"
       fy="32.266911"
       id="radialGradient20899"
       xlink:href="#linearGradient2222"
       gradientUnits="userSpaceOnUse"
       gradientTransform="matrix(2.2986117,0,0,1.8027614,-75.446386,-24.554065)" />
    <linearGradient
       x1="8.8207808"
       y1="12.53757"
       x2="12.499243"
       y2="24.238262"
       id="linearGradient20901"
       xlink:href="#linearGradient2180"
       gradientUnits="userSpaceOnUse"
       gradientTransform="matrix(0,-5.2061514,2.5688251,0,-29.704096,74.916646)" />
    <linearGradient
       x1="8.8207808"
       y1="12.53757"
       x2="12.499243"
       y2="24.238262"
       id="linearGradient2854"
       xlink:href="#linearGradient2180"
       gradientUnits="userSpaceOnUse"
       gradientTransform="matrix(0,-5.2061514,2.5688251,0,-79.265723,164.6207)" />
  </defs>
  <g
     transform="translate(-2.8842799e-7,-3.1783548)"
     id="layer1">
    <g
       transform="matrix(0,0.68137179,-0.68137179,0,39.302853,7.826163)"
       id="layer1-0">
      <g
         transform="translate(-2.0023665,2.2530854)"
         id="g9544">
        <g
           transform="translate(0.34662852,-1.7289484)"
           id="g9570">
          <g
             transform="translate(2.3098495,0.12996954)"
             id="g28489">
            <g
               transform="translate(51.47752,-82.884097)"
               id="g20882">
              <rect
                 width="48.318596"
                 height="37.631134"
                 rx="2.2024963"
                 ry="2.2024968"
                 x="-44.452534"
                 y="2.4453804"
                 transform="matrix(0,-0.99999997,0.99999997,0,-49.042742,89.574337)"
                 id="rect1314"
                 style="fill:url(#radialGradient20899);fill-opacity:1;fill-rule:evenodd;stroke:#173562;stroke-width:1.46762753;stroke-linecap:round;stroke-linejoin:round;stroke-miterlimit:4;stroke-opacity:1;stroke-dasharray:none;stroke-dashoffset:0" />
              <path
                 d="M 8.6381867,35.758452 C 36.195153,35.585137 36.541782,35.585137 36.541782,35.585137 l 0,0 0.173313,-33.9695929 0,0"
                 transform="translate(-49.042742,89.574337)"
                 id="path28138"
                 style="fill:none;stroke:#000000;stroke-width:1.46762753px;stroke-linecap:round;stroke-linejoin:round;stroke-opacity:1" />
              <path
                 d="m -45.86848,133.4018 12.953754,0 c 1.009884,-5.01531 1.584931,-10.57591 1.584931,-16.44198 0,-12.21102 -2.443321,-23.146566 -6.278761,-30.4497 l -8.259924,0 0,46.89168 z"
                 id="rect2178"
                 style="opacity:0.43181817;fill:url(#linearGradient2854);fill-opacity:1;fill-rule:evenodd;stroke:none" />
              <path
                 d="m -27.782124,121.73352 -0.571487,-0.2893 -0.566619,-0.28848 -0.559522,-0.28909 -0.552215,-0.2893 -1.073798,-0.57777 -0.519961,-0.2893 -0.506366,-0.28828 -0.492167,-0.28929 -0.47533,-0.28849 -0.459704,-0.28929 -0.440637,-0.2893 -0.421565,-0.28909 -0.400269,-0.28848 -0.379571,-0.2893 -0.357258,-0.28929 -0.333722,-0.28848 -0.309787,-0.2893 -0.285235,-0.28828 -0.25927,-0.28929 -0.232897,-0.2893 -0.206119,-0.28848 -0.179133,-0.2893 -0.15053,-0.28909 -0.122739,-0.28848 -0.09433,-0.28929 -0.06513,-0.2893 -0.03713,-0.28848 -0.0071,-0.2893 0.0213,-0.28909 0.05072,-0.28848 0.07932,-0.2893 0.107723,-0.28929 0.136331,-0.28848 0.164733,-0.2891 0.191916,-0.28929 0.219505,-0.28849 0.24568,-0.28929 0.271848,-0.28929 0.296192,-0.28849 0.321752,-0.28909 0.345692,-0.28929 0.367607,-0.28849 0.390728,-0.28929 0.410408,-0.28909 0.431101,-0.28849 0.449365,-0.2893 0.467619,-0.28929 0.483439,-0.28848 0.499269,-0.2893 0.512674,-0.28828 0.526232,-0.28929 0.537203,-0.2893 0.546739,-0.28929 0.555662,-0.28849 0.563377,-0.28909 0.569052,-0.28848 0.572908,-0.28929 0.576155,-0.2893 0.577576,-0.28848 0.577781,-0.2893 0.576963,-0.28909 0.572913,-0.28848 0.569052,-0.2893 0.563372,-0.28929 0.556275,-0.28849 0.547752,-0.2891 0.537208,-0.28929 0.526246,-0.28848 0.513468,-0.2893 0.499269,-0.28929 0.48486,-0.28849 0.467619,-0.28909 0.450173,-0.28929 0.431914,-0.28849 0.411216,-0.289289 0.390733,-0.2893 0.369228,-0.28827 0.345487,-0.2893 0.322566,-0.28848 0.298022,-0.2893 0.272656,-0.28929 0.246488,-0.28909 0.220318,-0.28849 0.193337,-0.28929 0.164734,-0.2893 0.137951,-0.28848 0.108536,-0.28909 0.08075,-0.28849 0.05152,-0.28929 0.02229,-0.28929 -0.0065,-0.2893 -0.03551,-0.28849 -0.06431,-0.28908 -0.09352,-0.28849 -0.121114,-0.2893 -0.150734,-0.28929"
                 id="path18808"
                 style="fill:none;stroke:#ef2929;stroke-width:2.93525505;stroke-linecap:round;stroke-linejoin:round;stroke-miterlimit:4;stroke-dasharray:none" />
            </g>
          </g>
        </g>
      </g>
    </g>
  </g>
</svg>
