<?xml version="1.0" encoding="UTF-8" standalone="no"?>
<!-- Created with Inkscape (http://www.inkscape.org/) -->
<svg id="svg11300" xmlns="http://www.w3.org/2000/svg" height="44.822" width="41.062" version="1.1" xmlns:xlink="http://www.w3.org/1999/xlink">
 <title id="title3289">base scilan</title>
 <defs id="defs3">
  <radialGradient id="radialGradient20899" gradientUnits="userSpaceOnUse" cy="32.267" cx="23.994" gradientTransform="matrix(2.2986117,0,0,1.8027614,-75.446386,-24.554065)" r="19.089">
   <stop id="stop2224" stop-color="#5187d6" offset="0"/>
   <stop id="stop2227" stop-color="#1e4580" offset="1"/>
  </radialGradient>
  <linearGradient id="linearGradient2854" y2="24.238" gradientUnits="userSpaceOnUse" x2="12.499" gradientTransform="matrix(0,-5.2061514,2.5688251,0,-79.265723,164.6207)" y1="12.538" x1="8.8208">
   <stop id="stop2182" stop-color="#FFF" offset="0"/>
   <stop id="stop2184" stop-color="#FFF" stop-opacity="0" offset="1"/>
  </linearGradient>
 </defs>
 <g id="layer1" transform="translate(-2.8842799e-7,-3.1783548)">
  <g id="layer1-0" transform="matrix(0,0.68137179,-0.68137179,0,39.302853,7.826163)">
   <g id="g9544" transform="translate(-2.0023665,2.2530854)">
    <g id="g9570" transform="translate(0.34662852,-1.7289484)">
     <g id="g28489" transform="translate(2.3098495,0.12996954)">
      <g id="g20882" transform="translate(51.47752,-82.884097)">
       <rect id="rect1314" stroke-linejoin="round" style="stroke-dasharray:none;" transform="matrix(0,-0.99999997,0.99999997,0,-49.042742,89.574337)" fill-rule="evenodd" stroke-dashoffset="0" rx="2.2025" ry="2.2025" height="37.631" width="48.319" stroke="#173562" stroke-linecap="round" stroke-miterlimit="4" y="2.4454" x="-44.453" stroke-width="1.4676" fill="url(#radialGradient20899)"/>
       <path id="path28138" stroke-linejoin="round" d="M8.6382,35.758c27.557-0.173,27.904-0.173,27.904-0.173l0.17331-33.97" transform="translate(-49.042742,89.574337)" stroke="#000" stroke-linecap="round" stroke-width="1.46762753px" fill="none"/>
       <path id="rect2178" opacity="0.43181817" d="m-45.868,133.4,12.954,0c1.0099-5.0153,1.5849-10.576,1.5849-16.442,0-12.211-2.4433-23.147-6.2788-30.45h-8.2599v46.892z" fill-rule="evenodd" fill="url(#linearGradient2854)"/>
       <path id="path18808" stroke-linejoin="round" style="stroke-dasharray:none;" d="m-27.782,121.73-0.57149-0.2893-0.56662-0.28848-0.55952-0.28909-0.55222-0.2893-1.0738-0.57777-0.51996-0.2893-0.50637-0.28828-0.49217-0.28929-0.47533-0.28849-0.4597-0.28929-0.44064-0.2893-0.42156-0.28909-0.40027-0.28848-0.37957-0.2893-0.35726-0.28929-0.33372-0.28848-0.30979-0.2893-0.28524-0.28828-0.25927-0.28929-0.2329-0.2893-0.20612-0.28848-0.17913-0.2893-0.15053-0.28909-0.12274-0.28848-0.09433-0.28929-0.06513-0.2893-0.03713-0.28848-0.0071-0.2893,0.0213-0.28909,0.05072-0.28848,0.07932-0.2893,0.10772-0.28929,0.13633-0.28848,0.16473-0.2891,0.19192-0.28929,0.2195-0.28849,0.24568-0.28929,0.27185-0.28929,0.29619-0.28849,0.32175-0.28909,0.34569-0.28929,0.36761-0.28849,0.39073-0.28929,0.41041-0.28909,0.4311-0.28849,0.44936-0.2893,0.46762-0.28929,0.48344-0.28848,0.49927-0.2893,0.51267-0.28828,0.52623-0.28929,0.5372-0.2893,0.54674-0.28929,0.55566-0.28849,0.56338-0.28909,0.56905-0.28848,0.57291-0.28929,0.57616-0.2893,0.57758-0.28848,0.57778-0.2893,0.57696-0.28909,0.57291-0.28848,0.56905-0.2893,0.56337-0.28929,0.55628-0.28849,0.54775-0.2891,0.53721-0.28929,0.52625-0.28848,0.51347-0.2893,0.49927-0.28929,0.48486-0.28849,0.46762-0.28909,0.45017-0.28929,0.43191-0.28849,0.41122-0.28929,0.39073-0.2893,0.36923-0.28827,0.34549-0.2893,0.32257-0.28848,0.29802-0.2893,0.27266-0.28929,0.24649-0.28909,0.22032-0.28849,0.19334-0.28929,0.16473-0.2893,0.13795-0.28848,0.10854-0.28909,0.08075-0.28849,0.05152-0.28929,0.02229-0.28929-0.0065-0.2893-0.03551-0.28849-0.06431-0.28908-0.09352-0.28849-0.12111-0.2893-0.15073-0.28929" stroke="#ef2929" stroke-linecap="round" stroke-miterlimit="4" stroke-width="2.93525505" fill="none"/>
      </g>
     </g>
    </g>
   </g>
  </g>
 </g>
</svg>
