<?xml version="1.0" encoding="UTF-8" standalone="no"?>
<!-- Created with Inkscape (http://www.inkscape.org/) -->
<svg id="svg2855" xmlns="http://www.w3.org/2000/svg" height="28.462" width="16.614" version="1.1">
 <g id="layer1" transform="translate(-366.69289,-518.13104)">
  <g id="layer1-0" transform="matrix(0,0.68137179,-0.68137179,0,392.99674,515.6967)">
   <g id="g9544" transform="translate(2.4634854,6.2067135)">
    <g id="g9534" stroke="#2e3436" stroke-miterlimit="4" transform="translate(-1.3123521,4.360673)">
     <path id="path9523" stroke-linejoin="round" style="stroke-dasharray:none;" d="m-37.907-2.0708a5.5503,5.5503,0,1,1,-11.101,0,5.5503,5.5503,0,1,1,11.101,0z" transform="matrix(0,-0.9977947,0.9977947,0,11.023636,-27.516685)" stroke-linecap="round" stroke-width="2" fill="#eeeeec"/>
     <rect id="rect9525" stroke-linejoin="round" style="stroke-dasharray:none;" transform="matrix(0,-1,1,0,0,0)" height="6.0094" width="22.388" stroke-linecap="round" y="18.855" x="-27.039" stroke-width="1.9956" fill="#eeeeec"/>
     <path id="path9531" stroke-linejoin="miter" style="stroke-dasharray:none;" d="M25.74,17.271,29.303,13.707,32.867,17.271,36.43,13.707l3.5636,3.5635s2.9853-3.5213,3.202-4.3607" stroke-linecap="butt" stroke-width="1.99558938" fill="none"/>
    </g>
   </g>
  </g>
 </g>
</svg>
