<?xml version="1.0" encoding="UTF-8" standalone="no"?>
<!-- Created with Inkscape (http://www.inkscape.org/) -->

<svg
   xmlns:svg="http://www.w3.org/2000/svg"
   xmlns="http://www.w3.org/2000/svg"
   version="1.1"
   width="16.614216"
   height="28.462269"
   id="svg2855">
  <defs
     id="defs2857" />
  <g
     transform="translate(-366.69289,-518.13104)"
     id="layer1">
    <g
       transform="matrix(0,0.68137179,-0.68137179,0,392.99674,515.6967)"
       id="layer1-0">
      <g
         transform="translate(2.4634854,6.2067135)"
         id="g9544">
        <g
           transform="translate(-1.3123521,4.360673)"
           id="g9534">
          <path
             d="m -37.907355,-2.0707734 a 5.5502982,5.5502982 0 1 1 -11.100596,0 5.5502982,5.5502982 0 1 1 11.100596,0 z"
             transform="matrix(0,-0.9977947,0.9977947,0,11.023636,-27.516685)"
             id="path9523"
             style="fill:#eeeeec;fill-opacity:1;stroke:#2e3436;stroke-width:2;stroke-linecap:round;stroke-linejoin:round;stroke-miterlimit:4;stroke-opacity:1;stroke-dasharray:none" />
          <rect
             width="22.387892"
             height="6.0093818"
             x="-27.039076"
             y="18.855234"
             transform="matrix(0,-1,1,0,0,0)"
             id="rect9525"
             style="fill:#eeeeec;fill-opacity:1;stroke:#2e3436;stroke-width:1.99558938;stroke-linecap:round;stroke-linejoin:round;stroke-miterlimit:4;stroke-opacity:1;stroke-dasharray:none" />
          <path
             d="M 25.739535,17.270548 29.303088,13.707 32.86664,17.270548 36.430193,13.707 l 3.563552,3.563548 c 0,0 2.985336,-3.521338 3.202045,-4.360673"
             id="path9531"
             style="fill:none;stroke:#2e3436;stroke-width:1.99558938;stroke-linecap:butt;stroke-linejoin:miter;stroke-miterlimit:4;stroke-opacity:1;stroke-dasharray:none" />
        </g>
      </g>
    </g>
  </g>
</svg>
