<?xml version="1.0" encoding="UTF-8" standalone="no"?>
<!-- Created with Inkscape (http://www.inkscape.org/) -->
<svg id="svg2855" xmlns="http://www.w3.org/2000/svg" height="33.259" width="33.259" version="1.1">
 <g id="layer1" transform="translate(-358.3703,-515.73248)">
  <g id="g31086" stroke="#000" stroke-linecap="round" stroke-miterlimit="4" transform="matrix(0,0.68137177,-0.68137177,0,390.03482,516.42453)">
   <path id="path35549-4" stroke-linejoin="round" style="stroke-dasharray:none;" d="m31.161,16.911a14.911,14.911,0,1,1,-29.821,0,14.911,14.911,0,1,1,29.821,0z" stroke-dashoffset="0" transform="matrix(1.5876104,0,0,1.5876104,-2.4081283,-4.7821171)" stroke-width="0.92442554" fill="none"/>
   <path id="path34778" stroke-linejoin="round" style="stroke-dasharray:none;" d="m16.406,17.281a1.2188,1.2188,0,1,1,-2.4375,0,1.2188,1.2188,0,1,1,2.4375,0z" fill-rule="evenodd" transform="matrix(2.073295,0,0,2.073295,-7.310224,-13.13682)" stroke-dashoffset="0" stroke-width="0.70787203" fill="#000"/>
   <path id="path35559" stroke-linejoin="miter" style="stroke-dasharray:none;" d="M22.177,20.718,13.156,13.14" stroke-width="2.93525505" fill="none"/>
   <path id="path35561" stroke-linejoin="miter" style="stroke-dasharray:none;" d="m19.409,29.777,2.96-4.4933" stroke-width="2.93525505" fill="none"/>
  </g>
 </g>
</svg>
