<?xml version="1.0" encoding="UTF-8" standalone="no"?>
<!-- Created with Inkscape (http://www.inkscape.org/) -->
<svg id="svg2" xmlns:rdf="http://www.w3.org/1999/02/22-rdf-syntax-ns#" xmlns="http://www.w3.org/2000/svg" height="385" width="240" version="1.0" xmlns:cc="http://web.resource.org/cc/" xmlns:dc="http://purl.org/dc/elements/1.1/">
 <metadata id="metadata7">
  <rdf:RDF>
   <cc:Work rdf:about="">
    <dc:format>image/svg+xml</dc:format>
    <dc:type rdf:resource="http://purl.org/dc/dcmitype/StillImage"/>
   </cc:Work>
  </rdf:RDF>
 </metadata>
 <defs id="defs5"></defs>
 <path id="path1873" d="M137,156.68c2-28,9.75-78.68,10.25-82.43s3.5-19.75,13.25-31.75,25.75-16.25,25.75-16.25c0.25,0-4,0.75-4,11.5s12.75,18.25,20.75,18.25,22-7,22-19-16.5-19-23-19-17,0-26,3.5-29.38,16.5-37.88,33.5-13.12,37-17.62,67-9.5,77.37-11.5,105.37-11.25,80.5-11.75,84.25-3.5,19.75-13.25,31.75-25.75,16.25-25.75,16.25c-0.25,0,4-0.75,4-11.5s-12.75-18.25-20.75-18.25-22,7-22,19,16.5,19,23,19,17,0,26-3.5,29.375-16.5,37.88-33.5c8.5-17,13.12-37,17.62-67,2.02-13.5,11-85.19,13-107.19z" fill-rule="evenodd" fill="#000"/>
</svg>
