<?xml version="1.0" encoding="UTF-8" standalone="no"?>
<!-- Created with Inkscape (http://www.inkscape.org/) -->

<svg
   xmlns:dc="http://purl.org/dc/elements/1.1/"
   xmlns:cc="http://creativecommons.org/ns#"
   xmlns:rdf="http://www.w3.org/1999/02/22-rdf-syntax-ns#"
   xmlns:svg="http://www.w3.org/2000/svg"
   xmlns="http://www.w3.org/2000/svg"
   xmlns:xlink="http://www.w3.org/1999/xlink"
   xmlns:sodipodi="http://sodipodi.sourceforge.net/DTD/sodipodi-0.dtd"
   xmlns:inkscape="http://www.inkscape.org/namespaces/inkscape"
   id="svg11300"
   height="46.82"
   width="42.060001"
   version="1.1"
   inkscape:version="0.48.4 r9939"
   sodipodi:docname="CSCOPE(4).svg">
  <metadata
     id="metadata23">
    <rdf:RDF>
      <cc:Work
         rdf:about="">
        <dc:format>image/svg+xml</dc:format>
        <dc:type
           rdf:resource="http://purl.org/dc/dcmitype/StillImage" />
        <dc:title>base scilan</dc:title>
      </cc:Work>
    </rdf:RDF>
  </metadata>
  <sodipodi:namedview
     pagecolor="#ffffff"
     bordercolor="#666666"
     borderopacity="1"
     objecttolerance="10"
     gridtolerance="10"
     guidetolerance="10"
     inkscape:pageopacity="0"
     inkscape:pageshadow="2"
     inkscape:window-width="1280"
     inkscape:window-height="968"
     id="namedview21"
     showgrid="false"
     inkscape:zoom="2.0644596"
     inkscape:cx="20.531"
     inkscape:cy="32.782928"
     inkscape:window-x="-4"
     inkscape:window-y="-4"
     inkscape:window-maximized="1"
     inkscape:current-layer="g20882"
     inkscape:snap-global="false" />
  <title
     id="title3289">base scilan</title>
  <defs
     id="defs3">
    <radialGradient
       id="radialGradient20899"
       gradientUnits="userSpaceOnUse"
       cy="32.266998"
       cx="23.993999"
       gradientTransform="matrix(2.2986116,0,0,1.8027613,-165.02072,-73.515408)"
       r="19.089001">
      <stop
         id="stop2224"
         stop-color="#5187d6"
         offset="0" />
      <stop
         id="stop2227"
         stop-color="#1e4580"
         offset="1" />
    </radialGradient>
    <linearGradient
       id="linearGradient2854"
       y2="24.238001"
       gradientUnits="userSpaceOnUse"
       x2="12.499"
       gradientTransform="matrix(0,-5.2949447,2.66303,0,-81.023673,165.50863)"
       y1="12.538"
       x1="8.8207998">
      <stop
         id="stop2182"
         stop-color="#FFF"
         offset="0" />
      <stop
         id="stop2184"
         stop-color="#FFF"
         stop-opacity="0"
         offset="1" />
    </linearGradient>
    <linearGradient
       inkscape:collect="always"
       xlink:href="#linearGradient2854"
       id="linearGradient3787"
       gradientUnits="userSpaceOnUse"
       gradientTransform="matrix(0,-5.2949447,2.66303,0,-81.023673,165.50863)"
       x1="8.8207998"
       y1="12.538"
       x2="12.499"
       y2="24.238001" />
    <radialGradient
       inkscape:collect="always"
       xlink:href="#radialGradient20899"
       id="radialGradient3797"
       gradientUnits="userSpaceOnUse"
       gradientTransform="matrix(2.2974068,0,0,1.5938144,-164.9918,-76.107651)"
       cx="23.993999"
       cy="32.266998"
       r="19.089001" />
    <linearGradient
       inkscape:collect="always"
       xlink:href="#linearGradient2854"
       id="linearGradient3799"
       gradientUnits="userSpaceOnUse"
       gradientTransform="matrix(0,-5.2878278,3.0292811,0,-91.4686,165.43384)"
       x1="8.8207998"
       y1="12.538"
       x2="12.499"
       y2="24.238001" />
    <radialGradient
       inkscape:collect="always"
       xlink:href="#radialGradient20899"
       id="radialGradient3810"
       gradientUnits="userSpaceOnUse"
       gradientTransform="matrix(2.2974068,0,0,1.5938144,-164.9918,-76.107651)"
       cx="23.993999"
       cy="32.266998"
       r="19.089001" />
    <linearGradient
       inkscape:collect="always"
       xlink:href="#linearGradient2854"
       id="linearGradient3812"
       gradientUnits="userSpaceOnUse"
       gradientTransform="matrix(0,-5.2878278,3.0292811,0,-91.4686,165.43384)"
       x1="8.8207998"
       y1="12.538"
       x2="12.499"
       y2="24.238001" />
  </defs>
  <g
     id="layer1"
     transform="translate(-2.8842799e-7,-1.1803534)">
    <g
       id="layer1-0"
       transform="matrix(0,0.68137179,-0.68137179,0,39.302853,7.826163)">
      <g
         id="g9544"
         transform="translate(-2.0023665,2.2530854)">
        <g
           id="g9570"
           transform="translate(0.34662852,-1.7289484)">
          <g
             id="g28489"
             transform="translate(2.3098495,0.12996954)">
            <g
               id="g20882"
               transform="translate(51.47752,-82.884097)">
              <g
                 id="g3801"
                 transform="translate(-4.1060094e-7,1.5314042e-6)">
                <g
                   id="g3789">
                  <rect
                     id="rect1314"
                     style="fill:url(#radialGradient3810);fill-rule:evenodd;stroke:#173562;stroke-width:0.31592739;stroke-linecap:round;stroke-linejoin:round;stroke-miterlimit:4;stroke-dasharray:none;stroke-dashoffset:0"
                     transform="matrix(0,-1,1,0,0,0)"
                     rx="2.2013454"
                     ry="1.9472218"
                     height="33.269424"
                     width="48.293674"
                     stroke-miterlimit="4"
                     y="-52.23753"
                     x="-134.01468" />
                  <g
                     id="g3778"
                     transform="matrix(1.1375317,0,0,0.99865592,-1.3232844,-0.70816988)">
                    <path
                       style="fill:none;stroke:#000000;stroke-width:1.60812891px;stroke-linecap:round;stroke-linejoin:round"
                       inkscape:connector-curvature="0"
                       d="m -40.53312,128.84479 c 19.420253,-0.18362 19.664793,-0.18362 19.664793,-0.18362 l 0.122138,-36.056331"
                       id="path28138" />
                  </g>
                  <path
                     id="rect2178"
                     d="m -52.084412,133.72334 15.275975,0 c 1.190922,-5.09399 1.86899,-10.74193 1.86899,-16.69995 0,-12.40257 -2.881256,-23.510144 -7.404261,-30.927715 h -9.740468 v 47.627665 z"
                     style="opacity:0.43181817;fill:url(#linearGradient3812);fill-rule:evenodd"
                     inkscape:connector-curvature="0" />
                  <path
                     id="path18808"
                     style="fill:none;stroke:#ef2929;stroke-width:3.42799807;stroke-linecap:round;stroke-linejoin:round;stroke-miterlimit:4;stroke-dasharray:none"
                     d="m -37.998149,124.7242 -0.458136,-0.30667 -0.454233,-0.30578 -0.448541,-0.30643 -0.44269,-0.30665 -0.860815,-0.61243 -0.416826,-0.30666 -0.405933,-0.30557 -0.394551,-0.30664 -0.38105,-0.3058 -0.368518,-0.30665 -0.353243,-0.30665 -0.337942,-0.30643 -0.320878,-0.30579 -0.304286,-0.30666 -0.286397,-0.30665 -0.267528,-0.30577 -0.248343,-0.30666 -0.228664,-0.30557 -0.207845,-0.30665 -0.186703,-0.30665 -0.165239,-0.30579 -0.1436,-0.30665 -0.120668,-0.30644 -0.0984,-0.30579 -0.07562,-0.30663 -0.05221,-0.30667 -0.02976,-0.30578 -0.0057,-0.30666 0.01708,-0.30643 0.04066,-0.30578 0.06359,-0.30666 0.08635,-0.30665 0.109283,-0.30578 0.132058,-0.30644 0.153852,-0.30665 0.175963,-0.30579 0.196951,-0.30665 0.217928,-0.30664 0.237443,-0.30579 0.257929,-0.30644 0.277126,-0.30666 0.294696,-0.30579 0.313229,-0.30664 0.329006,-0.30643 0.345593,-0.3058 0.360231,-0.30666 0.37487,-0.30663 0.387549,-0.30578 0.400242,-0.30667 0.410985,-0.30557 0.421853,-0.30664 0.430647,-0.30666 0.438297,-0.30665 0.445447,-0.30579 0.451634,-0.30644 0.456181,-0.30577 0.459275,-0.30665 0.461881,-0.30666 0.463019,-0.30579 0.463179,-0.30664 0.462522,-0.30645 0.459274,-0.30578 0.456181,-0.30665 0.451626,-0.30665 0.445945,-0.30579 0.439105,-0.30645 0.430657,-0.30665 0.421869,-0.30578 0.411626,-0.30665 0.400241,-0.30665 0.388689,-0.3058 0.374869,-0.30643 0.360881,-0.30664 0.346241,-0.3058 0.329655,-0.30664 0.313231,-0.30666 0.295995,-0.30557 0.276963,-0.30664 0.258588,-0.30579 0.238909,-0.306654 0.218579,-0.306643 0.1976,-0.306431 0.176621,-0.305799 0.154991,-0.306645 0.132055,-0.306655 0.11059,-0.305785 0.08701,-0.306433 0.06474,-0.305797 0.0413,-0.306645 0.01786,-0.306644 -0.0051,-0.306655 -0.02846,-0.305797 -0.05155,-0.306421 -0.07496,-0.305797 -0.09709,-0.306655 -0.120837,-0.306644"
                     stroke-miterlimit="4"
                     inkscape:connector-curvature="0" />
                  <rect
                     x="-133.95796"
                     y="-22.43655"
                     stroke-miterlimit="4"
                     width="48.191029"
                     height="21.494463"
                     ry="1.258047"
                     rx="2.196667"
                     transform="matrix(0,-1,1,0,0,0)"
                     style="fill:#e6e6e6;fill-rule:evenodd;stroke:#173562;stroke-width:0.45349243;stroke-linecap:round;stroke-linejoin:round;stroke-miterlimit:4;stroke-dasharray:none;stroke-dashoffset:0"
                     id="rect3004" />
                </g>
              </g>
              <text
                 xml:space="preserve"
                 style="font-size:28.15645981px;font-style:normal;font-variant:normal;font-weight:normal;font-stretch:normal;text-indent:0;text-align:start;text-decoration:none;line-height:125%;letter-spacing:0px;word-spacing:0px;text-transform:none;direction:ltr;block-progression:tb;writing-mode:lr-tb;text-anchor:start;baseline-shift:baseline;color:#000000;fill:#000000;fill-opacity:1;fill-rule:evenodd;stroke:#000000;stroke-width:0;stroke-linecap:butt;stroke-linejoin:miter;stroke-miterlimit:4;stroke-opacity:1;stroke-dasharray:none;stroke-dashoffset:0;marker:none;visibility:visible;display:inline;overflow:visible;enable-background:accumulate;font-family:Arial;-inkscape-font-specification:Sans"
                 x="-140.6993"
                 y="-6.3139634"
                 id="text3000"
                 sodipodi:linespacing="125%"
                 transform="matrix(0,-0.93697107,1.0672688,0,0,0)"><tspan
                   sodipodi:role="line"
                   id="tspan3002"
                   x="-140.6993"
                   y="-6.3139634"
                   style="font-size:11.73185921px;fill:#000000;stroke-width:0">SCALED</tspan></text>
            </g>
          </g>
        </g>
      </g>
    </g>
  </g>
</svg>
