STARTFONT 2.1
FONT -Adobe-Times-Bold-I-Normal--24-240-75-75-P-128-ISO8859-1
SIZE 24 75 75
FONTBOUNDINGBOX 31 28 -5 -6
COMMENT $XConsortium: timBI24.bdf,v 1.14 95/01/26 18:06:33 gildea Exp $
COMMENT 
COMMENT +
COMMENT  Copyright 1984-1989, 1994 Adobe Systems Incorporated.
COMMENT  Copyright 1988, 1994 Digital Equipment Corporation.
COMMENT
COMMENT  Adobe is a trademark of Adobe Systems Incorporated which may be
COMMENT  registered in certain jurisdictions.
COMMENT  Permission to use these trademarks is hereby granted only in
COMMENT  association with the images described in this file.
COMMENT
COMMENT  Permission to use, copy, modify, distribute and sell this software
COMMENT  and its documentation for any purpose and without fee is hereby
COMMENT  granted, provided that the above copyright notices appear in all
COMMENT  copies and that both those copyright notices and this permission
COMMENT  notice appear in supporting documentation, and that the names of
COMMENT  Adobe Systems and Digital Equipment Corporation not be used in
COMMENT  advertising or publicity pertaining to distribution of the software
COMMENT  without specific, written prior permission.  Adobe Systems and
COMMENT  Digital Equipment Corporation make no representations about the
COMMENT  suitability of this software for any purpose.  It is provided "as
COMMENT  is" without express or implied warranty.
COMMENT -
STARTPROPERTIES 28
FOUNDRY "Adobe"
FAMILY_NAME "Times"
WEIGHT_NAME "Bold"
SLANT "I"
SETWIDTH_NAME "Normal"
ADD_STYLE_NAME ""
PIXEL_SIZE 24
POINT_SIZE 240
RESOLUTION_X 75
RESOLUTION_Y 75
SPACING "P"
AVERAGE_WIDTH 128
CHARSET_REGISTRY "ISO8859"
CHARSET_ENCODING "1"
CAP_HEIGHT 17
X_HEIGHT 11
FONT_ASCENT 20
FONT_DESCENT 5
FACE_NAME "Times Bold Italic"
COPYRIGHT "Copyright (c) 1984, 1987 Adobe Systems Incorporated. All Rights Reserved. Copyright (c) 1988, 1991 Digital Equipment Corporation. All Rights Reserved."
NOTICE "Times is a trademark of Linotype-Hell AG and/or its subsidiaries."
_DEC_DEVICE_FONTNAMES "PS=Times-BoldItalic"
_DEC_PRODUCTINFO "DECwindows Fonts V2.2, 07-Nov-1991"
DEFAULT_CHAR 32
RELATIVE_SETWIDTH 50
RELATIVE_WEIGHT 70
CHARSET_COLLECTIONS "ASCII ISO8859-1 ADOBE-STANDARD"
FULL_NAME "Times Bold Italic"
ENDPROPERTIES
CHARS 229
STARTCHAR space
ENCODING 32
SWIDTH 250 0
DWIDTH 6 0
BBX 1 1 0 0
BITMAP
00
ENDCHAR
STARTCHAR exclam
ENCODING 33
SWIDTH 389 0
DWIDTH 10 0
BBX 8 17 1 0
BITMAP
06
0F
0F
0E
1E
1C
1C
1C
18
38
30
30
00
00
E0
E0
E0
ENDCHAR
STARTCHAR quotedbl
ENCODING 34
SWIDTH 555 0
DWIDTH 14 0
BBX 8 6 4 11
BITMAP
63
E7
E7
C6
C6
84
ENDCHAR
STARTCHAR numbersign
ENCODING 35
SWIDTH 500 0
DWIDTH 15 0
BBX 15 17 0 0
BITMAP
0318
0318
0318
0630
0630
3FFE
3FFE
0630
0C60
0C60
FFF8
FFF8
18C0
18C0
3180
3180
3180
ENDCHAR
STARTCHAR dollar
ENCODING 36
SWIDTH 500 0
DWIDTH 12 0
BBX 12 20 0 -2
BITMAP
0040
0040
07E0
1CB0
1930
3920
3900
3D00
1F00
0F80
07C0
03E0
05E0
44E0
48E0
C9C0
EB80
7E00
1000
1000
ENDCHAR
STARTCHAR percent
ENCODING 37
SWIDTH 833 0
DWIDTH 20 0
BBX 17 17 1 0
BITMAP
0E0C00
3FF800
791800
713000
F13000
E36000
E26000
C6C700
ECDF80
79BC80
01B880
037880
037180
067100
066300
0C7600
0C3C00
ENDCHAR
STARTCHAR ampersand
ENCODING 38
SWIDTH 778 0
DWIDTH 19 0
BBX 17 17 1 0
BITMAP
01F000
039800
071800
071800
073000
07E000
03C000
078000
1F8F00
3DC600
79C400
F1EC00
F0F800
F0F000
F87180
7FFF00
3F1E00
ENDCHAR
STARTCHAR quoteright
ENCODING 39
SWIDTH 333 0
DWIDTH 8 0
BBX 4 6 3 11
BITMAP
70
70
70
30
60
C0
ENDCHAR
STARTCHAR parenleft
ENCODING 40
SWIDTH 333 0
DWIDTH 8 0
BBX 9 22 0 -5
BITMAP
0180
0300
0600
0C00
1800
3800
3000
7000
7000
6000
E000
E000
E000
E000
E000
E000
E000
6000
6000
3000
3000
1800
ENDCHAR
STARTCHAR parenright
ENCODING 41
SWIDTH 333 0
DWIDTH 8 0
BBX 9 22 -1 -5
BITMAP
0C00
0600
0600
0300
0300
0380
0380
0380
0380
0380
0380
0380
0300
0700
0700
0600
0E00
0C00
1800
3000
6000
C000
ENDCHAR
STARTCHAR asterisk
ENCODING 42
SWIDTH 500 0
DWIDTH 12 0
BBX 10 11 1 6
BITMAP
0C00
0C00
4C80
EDC0
7F80
1E00
7F80
EDC0
4C80
0C00
0C00
ENDCHAR
STARTCHAR plus
ENCODING 43
SWIDTH 570 0
DWIDTH 14 0
BBX 12 12 1 0
BITMAP
0600
0600
0600
0600
0600
FFF0
FFF0
0600
0600
0600
0600
0600
ENDCHAR
STARTCHAR comma
ENCODING 44
SWIDTH 250 0
DWIDTH 7 0
BBX 4 6 0 -3
BITMAP
70
70
70
30
60
C0
ENDCHAR
STARTCHAR minus
ENCODING 45
SWIDTH 606 0
DWIDTH 15 0
BBX 11 2 2 5
BITMAP
FFE0
FFE0
ENDCHAR
STARTCHAR period
ENCODING 46
SWIDTH 250 0
DWIDTH 7 0
BBX 3 3 1 0
BITMAP
E0
E0
E0
ENDCHAR
STARTCHAR slash
ENCODING 47
SWIDTH 278 0
DWIDTH 8 0
BBX 9 18 -1 -1
BITMAP
0180
0300
0300
0300
0600
0600
0600
0C00
0C00
0C00
1800
1800
3000
3000
3000
6000
6000
C000
ENDCHAR
STARTCHAR zero
ENCODING 48
SWIDTH 500 0
DWIDTH 12 0
BBX 12 17 0 0
BITMAP
03C0
0F60
1C60
3C70
3870
7870
7070
70F0
70E0
F0E0
E0E0
E1E0
E1C0
E3C0
6380
6F00
3E00
ENDCHAR
STARTCHAR one
ENCODING 49
SWIDTH 500 0
DWIDTH 12 0
BBX 10 17 0 0
BITMAP
01C0
0FC0
07C0
0380
0380
0780
0700
0700
0F00
0F00
0E00
0E00
1E00
1C00
1C00
3E00
FF00
ENDCHAR
STARTCHAR two
ENCODING 50
SWIDTH 500 0
DWIDTH 12 0
BBX 12 17 -1 0
BITMAP
03E0
0FF0
18F0
1070
0070
0070
0060
00E0
00C0
0180
0300
0600
0C00
1820
3FE0
7FC0
FF80
ENDCHAR
STARTCHAR three
ENCODING 51
SWIDTH 500 0
DWIDTH 12 0
BBX 12 17 0 0
BITMAP
07C0
1DE0
10E0
00F0
00E0
01E0
0780
1F00
1FC0
03E0
01E0
01E0
00E0
41C0
E1C0
F380
7E00
ENDCHAR
STARTCHAR four
ENCODING 52
SWIDTH 500 0
DWIDTH 12 0
BBX 12 17 0 0
BITMAP
0030
0070
00E0
01E0
03E0
06E0
0DC0
19C0
33C0
6380
6380
FFC0
FFC0
0700
0700
0F00
0F00
ENDCHAR
STARTCHAR five
ENCODING 53
SWIDTH 500 0
DWIDTH 12 0
BBX 12 17 0 0
BITMAP
07F0
0FE0
0FE0
1800
3000
3E00
7F80
7F80
07C0
03C0
01C0
01C0
01C0
4380
E300
F700
7C00
ENDCHAR
STARTCHAR six
ENCODING 54
SWIDTH 500 0
DWIDTH 12 0
BBX 12 17 1 0
BITMAP
0070
01C0
0780
0F00
1E00
3C00
3F00
7D80
71C0
F0C0
E1C0
E1C0
E1C0
E3C0
6780
7F00
1E00
ENDCHAR
STARTCHAR seven
ENCODING 55
SWIDTH 500 0
DWIDTH 12 0
BBX 12 17 1 0
BITMAP
3FF0
3FF0
7FE0
40E0
00C0
0180
0380
0300
0600
0E00
0C00
1800
3800
3000
7000
E000
E000
ENDCHAR
STARTCHAR eight
ENCODING 56
SWIDTH 500 0
DWIDTH 12 0
BBX 11 17 1 0
BITMAP
0F80
1CC0
3860
3860
3860
3CC0
1F80
0F00
1F00
3780
63C0
C3C0
C1C0
C1C0
C380
E780
3E00
ENDCHAR
STARTCHAR nine
ENCODING 57
SWIDTH 500 0
DWIDTH 12 0
BBX 12 17 0 0
BITMAP
07C0
1EE0
1C70
3870
3870
3870
3870
3870
18F0
0FE0
03E0
01C0
03C0
0780
0F00
3C00
E000
ENDCHAR
STARTCHAR colon
ENCODING 58
SWIDTH 333 0
DWIDTH 8 0
BBX 5 11 1 0
BITMAP
38
38
38
00
00
00
00
00
E0
E0
E0
ENDCHAR
STARTCHAR semicolon
ENCODING 59
SWIDTH 333 0
DWIDTH 8 0
BBX 6 14 0 -3
BITMAP
1C
1C
1C
00
00
00
00
00
70
70
70
30
60
C0
ENDCHAR
STARTCHAR less
ENCODING 60
SWIDTH 570 0
DWIDTH 13 0
BBX 11 12 1 0
BITMAP
0060
01E0
0780
1E00
7800
E000
E000
7800
1E00
0780
01E0
0060
ENDCHAR
STARTCHAR equal
ENCODING 61
SWIDTH 570 0
DWIDTH 13 0
BBX 11 6 1 3
BITMAP
FFE0
FFE0
0000
0000
FFE0
FFE0
ENDCHAR
STARTCHAR greater
ENCODING 62
SWIDTH 570 0
DWIDTH 13 0
BBX 11 12 1 0
BITMAP
C000
F000
3C00
0F00
03C0
00E0
00E0
03C0
0F00
3C00
F000
C000
ENDCHAR
STARTCHAR question
ENCODING 63
SWIDTH 500 0
DWIDTH 12 0
BBX 10 17 2 0
BITMAP
1F00
3380
71C0
71C0
01C0
01C0
0380
0700
0E00
1800
3000
2000
0000
0000
E000
E000
E000
ENDCHAR
STARTCHAR at
ENCODING 64
SWIDTH 832 0
DWIDTH 23 0
BBX 21 21 1 -4
BITMAP
007F00
01C1C0
070060
0E0030
1C1D90
387F98
70F388
61C708
E38708
C38708
C70E18
C70E10
C70E30
C79C60
E3FEC0
61E700
700000
300000
1C0000
0F0300
03FC00
ENDCHAR
STARTCHAR A
ENCODING 65
SWIDTH 667 0
DWIDTH 16 0
BBX 17 17 -2 0
BITMAP
000700
000F00
001F00
003700
002700
006F00
00C700
018F00
030700
030F00
060700
0FFF00
180700
380F00
700700
F00F00
F81F80
ENDCHAR
STARTCHAR B
ENCODING 66
SWIDTH 667 0
DWIDTH 16 0
BBX 15 17 0 0
BITMAP
0FF8
079C
070E
070E
0F0E
0F0E
0E1C
1FF8
1E70
1C38
3C1C
3C1C
383C
783C
7878
F9F0
FFC0
ENDCHAR
STARTCHAR C
ENCODING 67
SWIDTH 667 0
DWIDTH 16 0
BBX 16 17 0 0
BITMAP
03FB
0F9F
1E07
3C01
3801
7800
7000
F000
F000
F000
F000
F000
F000
7806
7C1C
3FF8
0FE0
ENDCHAR
STARTCHAR D
ENCODING 68
SWIDTH 722 0
DWIDTH 19 0
BBX 18 17 0 0
BITMAP
0FF800
07BF00
078780
070780
0F03C0
0F03C0
0E03C0
1E03C0
1E03C0
1C03C0
3C0780
3C0780
380F00
781E00
783C00
70F800
FFC000
ENDCHAR
STARTCHAR E
ENCODING 69
SWIDTH 667 0
DWIDTH 16 0
BBX 17 17 0 0
BITMAP
0FFF80
078380
078100
070100
0F0000
0F0800
0E1800
1E3000
1FF000
1C7000
3C2000
3C2000
380200
780600
780E00
703C00
FFFC00
ENDCHAR
STARTCHAR F
ENCODING 70
SWIDTH 667 0
DWIDTH 16 0
BBX 17 17 0 0
BITMAP
0FFF80
078380
078100
070100
0F0000
0F0800
0E1800
1E3000
1FF000
1C7000
3C2000
3C2000
380000
780000
780000
700000
FC0000
ENDCHAR
STARTCHAR G
ENCODING 71
SWIDTH 722 0
DWIDTH 18 0
BBX 17 17 1 0
BITMAP
03FB00
0F9F00
1E0700
3C0100
380100
780000
700000
F00000
F00000
F03F80
F00F00
F00E00
F00E00
781E00
7C1C00
3E7C00
0FF000
ENDCHAR
STARTCHAR H
ENCODING 72
SWIDTH 778 0
DWIDTH 19 0
BBX 20 17 0 0
BITMAP
0FC7F0
0781C0
0783C0
0703C0
0F0380
0F0780
0E0780
1E0700
1FFF00
1C0F00
3C0E00
3C1E00
381E00
781C00
781C00
703C00
F87E00
ENDCHAR
STARTCHAR I
ENCODING 73
SWIDTH 389 0
DWIDTH 10 0
BBX 10 17 0 0
BITMAP
0FC0
0780
0780
0700
0F00
0F00
0E00
1E00
1E00
1C00
3C00
3C00
3800
7800
7800
7000
F800
ENDCHAR
STARTCHAR J
ENCODING 74
SWIDTH 500 0
DWIDTH 13 0
BBX 14 19 -1 -2
BITMAP
00FC
0078
0078
0070
00F0
00F0
00E0
01E0
01E0
01C0
03C0
03C0
0380
0780
4780
E700
E700
FE00
7C00
ENDCHAR
STARTCHAR K
ENCODING 75
SWIDTH 667 0
DWIDTH 17 0
BBX 18 17 0 0
BITMAP
0FCFC0
078780
078E00
071C00
0F3800
0F6000
0EC000
1F8000
1FC000
1FC000
3DE000
3DE000
38F000
78F000
787800
707C00
F8FF00
ENDCHAR
STARTCHAR L
ENCODING 76
SWIDTH 611 0
DWIDTH 15 0
BBX 14 17 0 0
BITMAP
0FC0
0780
0780
0700
0F00
0F00
0E00
1E00
1E00
1C00
3C00
3C00
3804
780C
781C
7C78
FFF8
ENDCHAR
STARTCHAR M
ENCODING 77
SWIDTH 889 0
DWIDTH 22 0
BBX 22 17 0 0
BITMAP
0F807C
0780F8
0780F8
0781F0
0F83F0
0FC3F0
0BC6E0
0BCCE0
1BC9E0
13D9E0
11F1C0
11F3C0
31E3C0
31C3C0
21C380
7087C0
FC9FE0
ENDCHAR
STARTCHAR N
ENCODING 78
SWIDTH 722 0
DWIDTH 18 0
BBX 21 17 -1 0
BITMAP
0FC0F8
03C070
03C060
03E060
07E040
05F040
04F0C0
04F880
0C7880
0C7D80
083D00
183F00
181F00
101F00
300F00
700E00
FC0600
ENDCHAR
STARTCHAR O
ENCODING 79
SWIDTH 722 0
DWIDTH 18 0
BBX 17 17 1 0
BITMAP
00FC00
03DE00
0F0700
1E0780
1C0780
3C0780
780780
780780
F00780
F00F00
F00F00
F01E00
F01E00
F03C00
707800
3DF000
1FC000
ENDCHAR
STARTCHAR P
ENCODING 80
SWIDTH 611 0
DWIDTH 15 0
BBX 16 17 0 0
BITMAP
0FF8
079E
078F
070F
0F0F
0F0F
0E1E
1E3C
1FF0
1C00
3C00
3C00
3800
7800
7800
7000
F800
ENDCHAR
STARTCHAR Q
ENCODING 81
SWIDTH 722 0
DWIDTH 18 0
BBX 17 22 0 -5
BITMAP
00FC00
03DE00
0F0700
1E0780
1C0780
3C0780
780780
780780
F00780
F00F00
F00F00
F01E00
F01E00
F03C00
707800
3DF000
1FC000
0C0000
180180
3FC700
7FFE00
E1F800
ENDCHAR
STARTCHAR R
ENCODING 82
SWIDTH 667 0
DWIDTH 17 0
BBX 16 17 0 0
BITMAP
0FF8
079E
078F
070F
0F0F
0F0F
0E1E
1E3C
1FF0
1CE0
3CF0
3CF0
3870
7878
7838
703C
F83E
ENDCHAR
STARTCHAR S
ENCODING 83
SWIDTH 556 0
DWIDTH 14 0
BBX 14 17 -1 0
BITMAP
03EC
07BC
0E0C
0E04
0E04
0F00
0F80
07C0
03E0
01F0
00F8
1078
3038
3038
7870
7DF0
EFC0
ENDCHAR
STARTCHAR T
ENCODING 84
SWIDTH 611 0
DWIDTH 16 0
BBX 15 17 2 0
BITMAP
7FFE
E3CE
C3C6
8384
0780
0780
0700
0F00
0F00
0E00
1E00
1E00
1C00
3C00
3C00
3800
FF00
ENDCHAR
STARTCHAR U
ENCODING 85
SWIDTH 722 0
DWIDTH 18 0
BBX 19 17 1 0
BITMAP
3F07E0
1E0180
1E0180
1C0300
3C0300
3C0200
380600
780600
780600
700C00
F00C00
F00C00
F01800
F01800
703000
7CF000
1FC000
ENDCHAR
STARTCHAR V
ENCODING 86
SWIDTH 667 0
DWIDTH 17 0
BBX 17 17 1 0
BITMAP
FC0F80
780700
380600
380C00
380C00
3C1800
1C3000
1C3000
1C6000
1CE000
1CC000
1D8000
1F8000
0F0000
0E0000
0E0000
0C0000
ENDCHAR
STARTCHAR W
ENCODING 87
SWIDTH 889 0
DWIDTH 21 0
BBX 23 17 1 0
BITMAP
FC7C7E
78381C
383818
383830
387830
3C7C60
1CDC60
1CDCC0
1C9C80
1D9D80
1D1D00
1F1F00
1E1E00
0E0E00
0E0E00
0C0C00
0C0C00
ENDCHAR
STARTCHAR X
ENCODING 88
SWIDTH 667 0
DWIDTH 17 0
BBX 18 17 0 0
BITMAP
3FC7C0
0F0380
070700
070E00
079C00
03B800
03F000
01E000
01E000
01E000
03F000
077000
0E7800
1C7800
383C00
783C00
FCFF00
ENDCHAR
STARTCHAR Y
ENCODING 89
SWIDTH 611 0
DWIDTH 14 0
BBX 14 17 2 0
BITMAP
FC7C
7838
7830
3820
3C60
3CC0
1C80
1D80
1F00
0F00
0E00
1E00
1E00
1C00
3C00
3E00
FF00
ENDCHAR
STARTCHAR Z
ENCODING 90
SWIDTH 611 0
DWIDTH 15 0
BBX 16 17 -1 0
BITMAP
0FFF
1E1F
181E
303C
0078
00F0
01E0
01E0
03C0
0780
0F00
1E00
3E06
3C0C
781C
F0F8
FFF8
ENDCHAR
STARTCHAR bracketleft
ENCODING 91
SWIDTH 333 0
DWIDTH 10 0
BBX 10 21 1 -4
BITMAP
0FC0
0E00
0E00
0E00
1E00
1C00
1C00
1C00
1C00
3C00
3800
3800
3800
7800
7000
7000
7000
7000
F000
E000
FC00
ENDCHAR
STARTCHAR backslash
ENCODING 92
SWIDTH 278 0
DWIDTH 9 0
BBX 7 17 1 0
BITMAP
C0
C0
C0
60
60
60
30
30
30
18
18
18
0C
0C
0C
06
06
ENDCHAR
STARTCHAR bracketright
ENCODING 93
SWIDTH 333 0
DWIDTH 10 0
BBX 11 21 -1 -4
BITMAP
07E0
01E0
01C0
01C0
01C0
03C0
0380
0380
0380
0700
0700
0700
0700
0F00
0E00
0E00
0E00
0C00
1C00
1C00
FC00
ENDCHAR
STARTCHAR asciicircum
ENCODING 94
SWIDTH 570 0
DWIDTH 14 0
BBX 10 9 2 8
BITMAP
0E00
0E00
1F00
1B00
3300
7380
6180
E1C0
C1C0
ENDCHAR
STARTCHAR underscore
ENCODING 95
SWIDTH 500 0
DWIDTH 13 0
BBX 13 2 0 -4
BITMAP
FFF8
FFF8
ENDCHAR
STARTCHAR quoteleft
ENCODING 96
SWIDTH 333 0
DWIDTH 8 0
BBX 4 6 4 11
BITMAP
30
60
C0
E0
E0
E0
ENDCHAR
STARTCHAR a
ENCODING 97
SWIDTH 500 0
DWIDTH 13 0
BBX 13 11 0 0
BITMAP
07B0
1EF0
3C70
38F0
70E0
71E0
E1C0
E3C0
E7C8
FDF0
79E0
ENDCHAR
STARTCHAR b
ENCODING 98
SWIDTH 500 0
DWIDTH 12 0
BBX 11 17 0 0
BITMAP
1E00
0E00
0E00
1C00
1C00
1800
39C0
3BE0
3CE0
78E0
70E0
70E0
F1C0
E1C0
E380
E700
7E00
ENDCHAR
STARTCHAR c
ENCODING 99
SWIDTH 444 0
DWIDTH 10 0
BBX 10 11 0 0
BITMAP
0F80
3DC0
79C0
7000
F000
E000
E000
E000
E180
7700
3E00
ENDCHAR
STARTCHAR d
ENCODING 100
SWIDTH 500 0
DWIDTH 13 0
BBX 13 17 0 0
BITMAP
0078
0038
0038
0070
0070
0070
0770
1CE0
38E0
70E0
71C0
E1C0
E1C0
E3C0
F7C0
7DD0
38E0
ENDCHAR
STARTCHAR e
ENCODING 101
SWIDTH 444 0
DWIDTH 10 0
BBX 10 11 0 0
BITMAP
0780
1FC0
39C0
7180
7700
FC00
F000
E000
F180
7F00
3C00
ENDCHAR
STARTCHAR f
ENCODING 102
SWIDTH 333 0
DWIDTH 8 0
BBX 16 22 -4 -5
BITMAP
001E
0077
0067
00E0
00E0
00E0
07F8
07F8
01C0
01C0
01C0
0380
0380
0380
0380
0700
0700
0700
0E00
EE00
EC00
7800
ENDCHAR
STARTCHAR g
ENCODING 103
SWIDTH 500 0
DWIDTH 11 0
BBX 13 16 -1 -5
BITMAP
07C0
1EF8
1C70
3870
38F0
38E0
1DC0
0F80
3800
3E00
1F80
77C0
E1E0
E0E0
F1E0
3F80
ENDCHAR
STARTCHAR h
ENCODING 104
SWIDTH 556 0
DWIDTH 13 0
BBX 12 17 0 0
BITMAP
1E00
0E00
0E00
1C00
1C00
1C00
39C0
3BE0
3EE0
78E0
70E0
71C0
71C0
E1C0
E390
E3E0
E1C0
ENDCHAR
STARTCHAR i
ENCODING 105
SWIDTH 278 0
DWIDTH 7 0
BBX 7 17 0 0
BITMAP
0E
0E
0C
00
00
00
3C
1C
1C
38
38
38
70
70
F4
F8
70
ENDCHAR
STARTCHAR j
ENCODING 106
SWIDTH 278 0
DWIDTH 7 0
BBX 10 22 -3 -5
BITMAP
01C0
01C0
0180
0000
0000
0000
0780
0380
0380
0300
0700
0700
0700
0700
0600
0E00
0E00
0E00
0C00
DC00
F800
7000
ENDCHAR
STARTCHAR k
ENCODING 107
SWIDTH 500 0
DWIDTH 13 0
BBX 13 17 0 0
BITMAP
0F00
0700
0700
0E00
0E00
0E00
1CF8
1C60
38C0
3B80
3F00
7F00
7380
7390
E1F0
E1E0
E0C0
ENDCHAR
STARTCHAR l
ENCODING 108
SWIDTH 278 0
DWIDTH 7 0
BBX 7 17 0 0
BITMAP
1E
0E
0E
1C
1C
1C
38
38
38
70
70
70
70
E0
E4
F8
70
ENDCHAR
STARTCHAR m
ENCODING 109
SWIDTH 778 0
DWIDTH 19 0
BBX 19 11 0 0
BITMAP
79C700
3BEF80
3AEB80
3CF380
38E380
70C380
70C300
71C700
E1C720
E1C7C0
E1C380
ENDCHAR
STARTCHAR n
ENCODING 110
SWIDTH 556 0
DWIDTH 13 0
BBX 12 11 0 0
BITMAP
79C0
3BE0
3AE0
3CE0
38E0
71C0
71C0
71C0
E390
E3E0
E1C0
ENDCHAR
STARTCHAR o
ENCODING 111
SWIDTH 500 0
DWIDTH 12 0
BBX 11 11 0 0
BITMAP
0F80
3DC0
78E0
70E0
E0E0
E0E0
E0E0
E1C0
E3C0
7780
3E00
ENDCHAR
STARTCHAR p
ENCODING 112
SWIDTH 500 0
DWIDTH 13 0
BBX 14 16 -2 -5
BITMAP
0F38
077C
079C
0F1C
0E1C
0E1C
0E18
1C38
1E30
1FE0
3BC0
3800
3800
7000
7000
F800
ENDCHAR
STARTCHAR q
ENCODING 113
SWIDTH 500 0
DWIDTH 12 0
BBX 11 16 0 -5
BITMAP
0EE0
1FE0
38E0
71C0
71C0
E1C0
E380
E380
E780
FB80
7300
0700
0700
0600
0E00
1F00
ENDCHAR
STARTCHAR r
ENCODING 114
SWIDTH 389 0
DWIDTH 10 0
BBX 10 11 0 0
BITMAP
7980
3BC0
37C0
3CC0
3800
7800
7000
7000
E000
E000
E000
ENDCHAR
STARTCHAR s
ENCODING 115
SWIDTH 389 0
DWIDTH 10 0
BBX 9 11 0 0
BITMAP
1F80
3980
3180
3800
3C00
1E00
0F00
C700
C700
EF00
BC00
ENDCHAR
STARTCHAR t
ENCODING 116
SWIDTH 278 0
DWIDTH 8 0
BBX 8 14 1 0
BITMAP
0C
1C
38
7F
FE
38
38
70
70
70
E0
E4
F8
70
ENDCHAR
STARTCHAR u
ENCODING 117
SWIDTH 556 0
DWIDTH 13 0
BBX 12 11 0 0
BITMAP
3C70
1C70
38E0
38E0
71E0
73C0
72C0
E6C0
ED90
F9E0
71C0
ENDCHAR
STARTCHAR v
ENCODING 118
SWIDTH 444 0
DWIDTH 11 0
BBX 10 11 0 0
BITMAP
F180
73C0
71C0
78C0
3980
3980
3B00
3E00
3C00
3800
3000
ENDCHAR
STARTCHAR w
ENCODING 119
SWIDTH 667 0
DWIDTH 16 0
BBX 16 11 0 0
BITMAP
F18E
718F
71C7
71C7
3BC6
3BCC
3EE8
3CF8
38F0
38E0
30C0
ENDCHAR
STARTCHAR x
ENCODING 120
SWIDTH 500 0
DWIDTH 12 0
BBX 12 11 -1 0
BITMAP
3E70
0E70
0E60
06C0
0780
0700
0700
0F80
DB90
F3E0
E1C0
ENDCHAR
STARTCHAR y
ENCODING 121
SWIDTH 444 0
DWIDTH 11 0
BBX 12 16 -2 -5
BITMAP
3C70
1C70
1C30
1C60
0E60
0EC0
0F80
0780
0700
0700
0700
0600
E600
EC00
F800
7000
ENDCHAR
STARTCHAR z
ENCODING 122
SWIDTH 389 0
DWIDTH 9 0
BBX 10 13 -1 -2
BITMAP
3FC0
3FC0
6180
4300
0600
0C00
1800
3000
6000
F000
F980
0D80
0700
ENDCHAR
STARTCHAR braceleft
ENCODING 123
SWIDTH 348 0
DWIDTH 7 0
BBX 9 21 0 -4
BITMAP
0380
0600
0C00
1C00
1C00
1C00
1800
3800
7000
C000
6000
7000
7000
7000
7000
E000
E000
E000
6000
3000
1C00
ENDCHAR
STARTCHAR bar
ENCODING 124
SWIDTH 220 0
DWIDTH 6 0
BBX 2 17 2 0
BITMAP
C0
C0
C0
C0
C0
C0
C0
C0
C0
C0
C0
C0
C0
C0
C0
C0
C0
ENDCHAR
STARTCHAR braceright
ENCODING 125
SWIDTH 348 0
DWIDTH 10 0
BBX 9 21 0 -4
BITMAP
1C00
0600
0700
0700
0700
0E00
0E00
0E00
0700
0180
0700
0E00
1C00
1C00
1C00
1C00
1800
3800
3000
6000
C000
ENDCHAR
STARTCHAR asciitilde
ENCODING 126
SWIDTH 570 0
DWIDTH 14 0
BBX 12 4 1 4
BITMAP
3C30
7E70
E7E0
C3C0
ENDCHAR
STARTCHAR space
ENCODING 160
SWIDTH 250 0
DWIDTH 6 0
BBX 1 1 0 0
BITMAP
00
ENDCHAR
STARTCHAR exclamdown
ENCODING 161
SWIDTH 389 0
DWIDTH 10 0
BBX 9 17 -1 -6
BITMAP
0380
0380
0380
0000
0000
0600
0E00
0E00
0C00
1C00
1C00
3800
7800
7800
7000
F000
6000
ENDCHAR
STARTCHAR cent
ENCODING 162
SWIDTH 500 0
DWIDTH 13 0
BBX 10 16 1 -3
BITMAP
0080
0080
0780
1D80
3AC0
72C0
7400
E400
E800
E800
F080
7F00
3E00
2000
4000
4000
ENDCHAR
STARTCHAR sterling
ENCODING 163
SWIDTH 500 0
DWIDTH 13 0
BBX 13 17 0 0
BITMAP
01F0
03B8
0738
0710
0700
0F00
0E00
3FC0
7F80
0E00
0E00
0E00
6C00
FC10
9FF0
FFE0
73C0
ENDCHAR
STARTCHAR currency
ENCODING 164
SWIDTH 500 0
DWIDTH 12 0
BBX 10 10 1 2
BITMAP
C0C0
FFC0
7F80
7380
6180
6180
7380
7F80
FFC0
C0C0
ENDCHAR
STARTCHAR yen
ENCODING 165
SWIDTH 500 0
DWIDTH 13 0
BBX 14 17 2 0
BITMAP
FE7C
7830
3860
3CC0
3CC0
1D80
1F00
0F00
7FC0
0E00
1E00
FF80
1C00
3C00
3C00
3800
FE00
ENDCHAR
STARTCHAR brokenbar
ENCODING 166
SWIDTH 220 0
DWIDTH 6 0
BBX 2 17 2 0
BITMAP
C0
C0
C0
C0
C0
C0
C0
00
00
00
C0
C0
C0
C0
C0
C0
C0
ENDCHAR
STARTCHAR section
ENCODING 167
SWIDTH 500 0
DWIDTH 12 0
BBX 12 21 0 -4
BITMAP
07C0
0CE0
1C70
1C70
1E00
0F00
1F80
23C0
61C0
60E0
7060
3860
3C60
1E40
0F80
0780
0380
E180
E180
7300
3E00
ENDCHAR
STARTCHAR dieresis
ENCODING 168
SWIDTH 333 0
DWIDTH 9 0
BBX 7 2 3 13
BITMAP
C6
C6
ENDCHAR
STARTCHAR copyright
ENCODING 169
SWIDTH 747 0
DWIDTH 19 0
BBX 17 17 1 0
BITMAP
03E000
0FF800
3C1E00
300600
61F300
633300
C61180
C60180
C60180
C60180
C60180
633300
61E300
300600
3C1E00
0FF800
03E000
ENDCHAR
STARTCHAR ordfeminine
ENCODING 170
SWIDTH 266 0
DWIDTH 8 0
BBX 8 9 1 8
BITMAP
1D
3F
66
C6
CC
FD
76
00
FC
ENDCHAR
STARTCHAR guillemotleft
ENCODING 171
SWIDTH 500 0
DWIDTH 13 0
BBX 11 10 1 0
BITMAP
0660
0EE0
1DC0
3B80
7700
EE00
6600
7700
3300
3B80
ENDCHAR
STARTCHAR logicalnot
ENCODING 172
SWIDTH 606 0
DWIDTH 15 0
BBX 11 7 2 2
BITMAP
FFE0
FFE0
0060
0060
0060
0060
0060
ENDCHAR
STARTCHAR hyphen
ENCODING 173
SWIDTH 333 0
DWIDTH 8 0
BBX 6 3 1 4
BITMAP
FC
FC
FC
ENDCHAR
STARTCHAR registered
ENCODING 174
SWIDTH 747 0
DWIDTH 19 0
BBX 17 17 1 0
BITMAP
03E000
0FF800
3C1E00
300600
67E300
633300
C33180
C33180
C3E180
C36180
C33180
633300
67BB00
300600
3C1E00
0FF800
03E000
ENDCHAR
STARTCHAR macron
ENCODING 175
SWIDTH 333 0
DWIDTH 8 0
BBX 7 2 2 14
BITMAP
FE
FE
ENDCHAR
STARTCHAR degree
ENCODING 176
SWIDTH 400 0
DWIDTH 9 0
BBX 8 7 1 10
BITMAP
3C
66
C3
C3
C3
66
3C
ENDCHAR
STARTCHAR plusminus
ENCODING 177
SWIDTH 570 0
DWIDTH 14 0
BBX 12 13 1 0
BITMAP
0600
0600
0600
0600
FFF0
FFF0
0600
0600
0600
0600
0000
FFF0
FFF0
ENDCHAR
STARTCHAR twosuperior
ENCODING 178
SWIDTH 300 0
DWIDTH 7 0
BBX 8 11 -1 6
BITMAP
1E
27
43
03
06
04
08
10
22
7E
FC
ENDCHAR
STARTCHAR threesuperior
ENCODING 179
SWIDTH 300 0
DWIDTH 7 0
BBX 8 11 -1 6
BITMAP
1E
27
43
03
06
1C
06
06
06
8C
78
ENDCHAR
STARTCHAR acute
ENCODING 180
SWIDTH 333 0
DWIDTH 7 0
BBX 7 4 2 13
BITMAP
1E
3C
70
C0
ENDCHAR
STARTCHAR mu
ENCODING 181
SWIDTH 576 0
DWIDTH 13 0
BBX 14 16 -2 -5
BITMAP
0F1C
071C
0E38
0E38
1C78
1CF0
1CB0
39B0
3B64
3E78
7C70
6000
4000
E000
F000
6000
ENDCHAR
STARTCHAR paragraph
ENCODING 182
SWIDTH 500 0
DWIDTH 12 0
BBX 13 22 0 -5
BITMAP
07F8
1FF0
3E60
7EE0
7EC0
7CC0
7D80
7D80
3D80
1980
1B00
1B00
3300
3600
3600
2600
6C00
6C00
6C00
C800
D800
D800
ENDCHAR
STARTCHAR periodcentered
ENCODING 183
SWIDTH 250 0
DWIDTH 7 0
BBX 3 3 2 5
BITMAP
E0
E0
E0
ENDCHAR
STARTCHAR cedilla
ENCODING 184
SWIDTH 333 0
DWIDTH 8 0
BBX 7 5 -1 -5
BITMAP
18
1C
8E
CE
7C
ENDCHAR
STARTCHAR onesuperior
ENCODING 185
SWIDTH 300 0
DWIDTH 7 0
BBX 6 11 0 6
BITMAP
04
1C
0C
0C
08
18
18
10
30
30
FC
ENDCHAR
STARTCHAR ordmasculine
ENCODING 186
SWIDTH 300 0
DWIDTH 8 0
BBX 7 9 1 8
BITMAP
1C
3A
72
66
4E
5C
38
00
FC
ENDCHAR
STARTCHAR guillemotright
ENCODING 187
SWIDTH 500 0
DWIDTH 13 0
BBX 11 10 1 0
BITMAP
3B80
1980
1DC0
0DC0
0EE0
1DC0
3B80
7700
EE00
CC00
ENDCHAR
STARTCHAR onequarter
ENCODING 188
SWIDTH 750 0
DWIDTH 18 0
BBX 16 17 0 0
BITMAP
0418
1C18
0C30
0C30
0860
1860
18C0
10C3
3187
318B
FF12
0326
0646
06CC
0CFF
0C0C
180C
ENDCHAR
STARTCHAR onehalf
ENCODING 189
SWIDTH 750 0
DWIDTH 18 0
BBX 17 17 0 0
BITMAP
041800
1C1800
0C3000
0C3000
086000
186000
18CF00
109380
31A180
318180
FF0300
030200
060400
060800
0C1100
0C3F00
187E00
ENDCHAR
STARTCHAR threequarters
ENCODING 190
SWIDTH 750 0
DWIDTH 18 0
BBX 17 17 -1 0
BITMAP
1E0C00
270C00
431800
031800
063000
1C3000
066000
066180
06C380
8CC580
798900
019300
032300
036600
067F80
060600
0C0600
ENDCHAR
STARTCHAR questiondown
ENCODING 191
SWIDTH 500 0
DWIDTH 12 0
BBX 10 16 -1 -5
BITMAP
01C0
01C0
01C0
0000
0000
0100
0300
0600
1C00
3800
7000
E000
E000
E380
7380
3F00
ENDCHAR
STARTCHAR Agrave
ENCODING 192
SWIDTH 667 0
DWIDTH 16 0
BBX 17 22 -2 0
BITMAP
007000
007800
001C00
000600
000000
000700
000F00
001F00
003700
002700
006F00
00C700
018F00
030700
030F00
060700
0FFF00
180700
380F00
700700
F00F00
F81F80
ENDCHAR
STARTCHAR Aacute
ENCODING 193
SWIDTH 667 0
DWIDTH 16 0
BBX 19 22 -2 0
BITMAP
0000E0
0001E0
000380
000600
000000
000700
000F00
001F00
003700
002700
006F00
00C700
018F00
030700
030F00
060700
0FFF00
180700
380F00
700700
F00F00
F81F80
ENDCHAR
STARTCHAR Acircumflex
ENCODING 194
SWIDTH 667 0
DWIDTH 16 0
BBX 19 22 -2 0
BITMAP
000300
000780
001DC0
003060
000000
000700
000F00
001F00
003700
002700
006F00
00C700
018F00
030700
030F00
060700
0FFF00
180700
380F00
700700
F00F00
F81F80
ENDCHAR
STARTCHAR Atilde
ENCODING 195
SWIDTH 667 0
DWIDTH 16 0
BBX 20 22 -2 0
BITMAP
000E10
001FE0
0021C0
000000
000000
000700
000F00
001F00
003700
002700
006F00
00C700
018F00
030700
030F00
060700
0FFF00
180700
380F00
700700
F00F00
F81F80
ENDCHAR
STARTCHAR Adieresis
ENCODING 196
SWIDTH 667 0
DWIDTH 16 0
BBX 19 21 -2 0
BITMAP
000C60
000C60
000000
000000
000700
000F00
001F00
003700
002700
006F00
00C700
018F00
030700
030F00
060700
0FFF00
180700
380F00
700700
F00F00
F81F80
ENDCHAR
STARTCHAR Aring
ENCODING 197
SWIDTH 667 0
DWIDTH 16 0
BBX 17 22 -2 0
BITMAP
000700
000D80
000880
000D80
000700
000000
000F00
001F00
003700
002700
006F00
00C700
018F00
030700
030F00
060700
0FFF00
180700
380F00
700700
F00F00
F81F80
ENDCHAR
STARTCHAR AE
ENCODING 198
SWIDTH 944 0
DWIDTH 22 0
BBX 25 17 -2 0
BITMAP
00FFFF80
003F8380
00378100
00670100
004F0000
00CF0800
018E1800
011E3000
021FF000
061C7000
043C2000
0FFC2000
18380200
10780600
30780E00
70703C00
F8FFFC00
ENDCHAR
STARTCHAR Ccedilla
ENCODING 199
SWIDTH 667 0
DWIDTH 16 0
BBX 16 22 0 -5
BITMAP
03FB
0F8F
1E06
3C02
3802
7800
7000
F000
F000
F000
F000
F000
F000
7806
7C1C
3FF8
0FE0
0180
01C0
08E0
0CE0
07C0
ENDCHAR
STARTCHAR Egrave
ENCODING 200
SWIDTH 667 0
DWIDTH 16 0
BBX 17 22 0 0
BITMAP
00E000
00F000
003800
000C00
000000
0FFF80
078380
078100
070100
0F0000
0F0800
0E1800
1E3000
1FF000
1C7000
3C2000
3C2000
380200
780600
780E00
703C00
FFFC00
ENDCHAR
STARTCHAR Eacute
ENCODING 201
SWIDTH 667 0
DWIDTH 16 0
BBX 17 22 0 0
BITMAP
000E00
001E00
003800
006000
000000
0FFF80
078380
078100
070100
0F0000
0F0800
0E1800
1E3000
1FF000
1C7000
3C2000
3C2000
380200
780600
780E00
703C00
FFFC00
ENDCHAR
STARTCHAR Ecircumflex
ENCODING 202
SWIDTH 667 0
DWIDTH 16 0
BBX 17 22 0 0
BITMAP
001800
003C00
00EE00
018300
000000
0FFF80
078380
078100
070100
0F0000
0F0800
0E1800
1E3000
1FF000
1C7000
3C2000
3C2000
380200
780600
780E00
703C00
FFFC00
ENDCHAR
STARTCHAR Edieresis
ENCODING 203
SWIDTH 667 0
DWIDTH 16 0
BBX 17 21 0 0
BITMAP
00C600
00C600
000000
000000
0FFF80
078380
078100
070100
0F0000
0F0800
0E1800
1E3000
1FF000
1C7000
3C2000
3C2000
380200
780600
780E00
703C00
FFFC00
ENDCHAR
STARTCHAR Igrave
ENCODING 204
SWIDTH 389 0
DWIDTH 10 0
BBX 10 22 0 0
BITMAP
1C00
1E00
0700
0180
0000
0FC0
0780
0780
0700
0F00
0F00
0E00
1E00
1E00
1C00
3C00
3C00
3800
7800
7800
7000
F800
ENDCHAR
STARTCHAR Iacute
ENCODING 205
SWIDTH 389 0
DWIDTH 10 0
BBX 12 22 0 0
BITMAP
0070
00F0
01C0
0300
0000
0FC0
0780
0780
0700
0F00
0F00
0E00
1E00
1E00
1C00
3C00
3C00
3800
7800
7800
7000
F800
ENDCHAR
STARTCHAR Icircumflex
ENCODING 206
SWIDTH 389 0
DWIDTH 10 0
BBX 12 22 0 0
BITMAP
0180
03C0
0EE0
1830
0000
0FC0
0780
0780
0700
0F00
0F00
0E00
1E00
1E00
1C00
3C00
3C00
3800
7800
7800
7000
F800
ENDCHAR
STARTCHAR Idieresis
ENCODING 207
SWIDTH 389 0
DWIDTH 10 0
BBX 12 21 0 0
BITMAP
0630
0630
0000
0000
0FC0
0780
0780
0700
0F00
0F00
0E00
1E00
1E00
1C00
3C00
3C00
3800
7800
7800
7000
F800
ENDCHAR
STARTCHAR Eth
ENCODING 208
SWIDTH 722 0
DWIDTH 19 0
BBX 18 17 0 0
BITMAP
0FF800
07BF00
078780
070780
0F03C0
0F03C0
0E03C0
FFC3C0
FFC3C0
1C03C0
3C0780
3C0780
380F00
781E00
783C00
70F800
FFC000
ENDCHAR
STARTCHAR Ntilde
ENCODING 209
SWIDTH 722 0
DWIDTH 18 0
BBX 21 22 -1 0
BITMAP
001C20
003FC0
004380
000000
000000
0FC0F8
03C070
03C060
03E060
07E040
05F040
04F0C0
04F880
0C7880
0C7D80
083D00
183F00
181F00
101F00
300F00
700E00
FC0600
ENDCHAR
STARTCHAR Ograve
ENCODING 210
SWIDTH 722 0
DWIDTH 18 0
BBX 17 22 1 0
BITMAP
00F000
007800
001C00
000600
000000
00FC00
03DE00
0F0700
1E0780
1C0780
3C0780
780780
780780
F00780
F00F00
F00F00
F01E00
F01E00
F03C00
707800
3DF000
1FC000
ENDCHAR
STARTCHAR Oacute
ENCODING 211
SWIDTH 722 0
DWIDTH 18 0
BBX 18 22 1 0
BITMAP
0003C0
000780
000E00
001800
000000
00FC00
03DE00
0F0700
1E0780
1C0780
3C0780
780780
780780
F00780
F00F00
F00F00
F01E00
F01E00
F03C00
707800
3DF000
1FC000
ENDCHAR
STARTCHAR Ocircumflex
ENCODING 212
SWIDTH 722 0
DWIDTH 18 0
BBX 17 22 1 0
BITMAP
001800
003C00
00EE00
018300
000000
00FC00
03DE00
0F0700
1E0780
1C0780
3C0780
780780
780780
F00780
F00F00
F00F00
F01E00
F01E00
F03C00
707800
3DF000
1FC000
ENDCHAR
STARTCHAR Otilde
ENCODING 213
SWIDTH 722 0
DWIDTH 18 0
BBX 17 22 1 0
BITMAP
007080
00FF00
010E00
000000
000000
00FC00
03DE00
0F0700
1E0780
1C0780
3C0780
780780
780780
F00780
F00F00
F00F00
F01E00
F01E00
F03C00
707800
3DF000
1FC000
ENDCHAR
STARTCHAR Odieresis
ENCODING 214
SWIDTH 722 0
DWIDTH 18 0
BBX 17 21 1 0
BITMAP
00C600
00C600
000000
000000
00FC00
03DE00
0F0700
1E0780
1C0780
3C0780
780780
780780
F00780
F00F00
F00F00
F01E00
F01E00
F03C00
707800
3DF000
1FC000
ENDCHAR
STARTCHAR multiply
ENCODING 215
SWIDTH 570 0
DWIDTH 13 0
BBX 11 11 1 0
BITMAP
C060
E0E0
71C0
3B80
1F00
0E00
1F00
3B80
71C0
E0E0
C060
ENDCHAR
STARTCHAR Oslash
ENCODING 216
SWIDTH 722 0
DWIDTH 18 0
BBX 17 19 1 -1
BITMAP
000300
00FE00
03DE00
0F0F00
1E1F80
1C3780
3C6780
786780
78C780
F18780
F18F00
F30F00
F61E00
F61E00
FC3C00
787800
3DF000
3FC000
600000
ENDCHAR
STARTCHAR Ugrave
ENCODING 217
SWIDTH 722 0
DWIDTH 18 0
BBX 19 22 1 0
BITMAP
00E000
00F000
003800
000C00
000000
3F07E0
1E0180
1E0180
1C0300
3C0300
3C0200
380600
780600
780600
700C00
F00C00
F00C00
F01800
F01800
703000
7CF000
1FC000
ENDCHAR
STARTCHAR Uacute
ENCODING 218
SWIDTH 722 0
DWIDTH 18 0
BBX 19 22 1 0
BITMAP
000700
000F00
001C00
003000
000000
3F07E0
1E0180
1E0180
1C0300
3C0300
3C0200
380600
780600
780600
700C00
F00C00
F00C00
F01800
F01800
703000
7CF000
1FC000
ENDCHAR
STARTCHAR Ucircumflex
ENCODING 219
SWIDTH 722 0
DWIDTH 18 0
BBX 19 22 1 0
BITMAP
001800
003C00
00EE00
018300
000000
3F07E0
1E0180
1E0180
1C0300
3C0300
3C0200
380600
780600
780600
700C00
F00C00
F00C00
F01800
F01800
703000
7CF000
1FC000
ENDCHAR
STARTCHAR Udieresis
ENCODING 220
SWIDTH 722 0
DWIDTH 18 0
BBX 19 21 1 0
BITMAP
00C600
00C600
000000
000000
3F07E0
1E0180
1E0180
1C0300
3C0300
3C0200
380600
780600
780600
700C00
F00C00
F00C00
F01800
F01800
703000
7CF000
1FC000
ENDCHAR
STARTCHAR Yacute
ENCODING 221
SWIDTH 611 0
DWIDTH 14 0
BBX 14 22 2 0
BITMAP
0070
00F0
01C0
0300
0000
FC7C
7838
7830
3820
3C60
3CC0
1C80
1D80
1F00
0F00
0E00
1E00
1E00
1C00
3C00
3E00
FF00
ENDCHAR
STARTCHAR Thorn
ENCODING 222
SWIDTH 611 0
DWIDTH 15 0
BBX 14 17 0 0
BITMAP
0FC0
0780
0780
0700
0FE0
0E78
0E3C
1E3C
1E3C
1C3C
3C78
3CF0
3FC0
7800
7800
7000
F800
ENDCHAR
STARTCHAR germandbls
ENCODING 223
SWIDTH 500 0
DWIDTH 13 0
BBX 18 22 -5 -5
BITMAP
000F00
003980
0071C0
0061C0
00E1C0
00E3C0
00E380
01CE00
01C700
01C380
038380
038380
038380
038780
030700
071E00
077C00
070000
060000
E60000
EC0000
780000
ENDCHAR
STARTCHAR agrave
ENCODING 224
SWIDTH 500 0
DWIDTH 13 0
BBX 13 17 0 0
BITMAP
0700
0780
01C0
0060
0020
0000
07B0
1EF0
3C70
38F0
70E0
71E0
E1C0
E3C0
E7C8
FDF0
79E0
ENDCHAR
STARTCHAR aacute
ENCODING 225
SWIDTH 500 0
DWIDTH 13 0
BBX 14 17 0 0
BITMAP
003C
0078
00E0
0180
0000
0000
07B0
1EF0
3C70
38F0
70E0
71E0
E1C0
E3C0
E7C8
FDF0
79E0
ENDCHAR
STARTCHAR acircumflex
ENCODING 226
SWIDTH 500 0
DWIDTH 13 0
BBX 13 16 0 0
BITMAP
00C0
01E0
0770
0C18
0000
07B0
1EF0
3C70
38F0
70E0
71E0
E1C0
E3C0
E7C8
FDF0
79E0
ENDCHAR
STARTCHAR atilde
ENCODING 227
SWIDTH 500 0
DWIDTH 13 0
BBX 14 16 0 0
BITMAP
0384
07F8
0870
0000
0000
07B0
1EF0
3C70
38F0
70E0
71E0
E1C0
E3C0
E7C8
FDF0
79E0
ENDCHAR
STARTCHAR adieresis
ENCODING 228
SWIDTH 500 0
DWIDTH 13 0
BBX 13 15 0 0
BITMAP
0630
0630
0000
0000
07B0
1EF0
3C70
38F0
70E0
71E0
E1C0
E3C0
E7C8
FDF0
79E0
ENDCHAR
STARTCHAR aring
ENCODING 229
SWIDTH 500 0
DWIDTH 13 0
BBX 13 17 0 0
BITMAP
01C0
0360
0220
0360
01C0
0000
07B0
1EF0
3C70
38F0
70E0
71E0
E1C0
E3C0
E7C8
FDF0
79E0
ENDCHAR
STARTCHAR ae
ENCODING 230
SWIDTH 722 0
DWIDTH 17 0
BBX 17 11 0 0
BITMAP
078F00
1EFF80
3C7380
38E300
70EE00
71F800
E1E000
E3C000
E7E300
FCFE00
787800
ENDCHAR
STARTCHAR ccedilla
ENCODING 231
SWIDTH 444 0
DWIDTH 11 0
BBX 10 16 0 -5
BITMAP
0F80
3DC0
79C0
7000
F000
E000
E000
E000
E180
7700
3E00
1800
1C00
8E00
CE00
7C00
ENDCHAR
STARTCHAR egrave
ENCODING 232
SWIDTH 444 0
DWIDTH 11 0
BBX 10 17 1 0
BITMAP
3800
3C00
1E00
0700
0100
0000
0780
1FC0
39C0
7180
7700
FC00
F000
E000
F180
7F00
3C00
ENDCHAR
STARTCHAR eacute
ENCODING 233
SWIDTH 444 0
DWIDTH 11 0
BBX 11 17 1 0
BITMAP
00E0
01E0
03C0
0700
0400
0000
0780
1FC0
39C0
7180
7700
FC00
F000
E000
F180
7F00
3C00
ENDCHAR
STARTCHAR ecircumflex
ENCODING 234
SWIDTH 444 0
DWIDTH 11 0
BBX 11 16 1 0
BITMAP
0300
0780
1DC0
3060
0000
0780
1FC0
39C0
7180
7700
FC00
F000
E000
F180
7F00
3C00
ENDCHAR
STARTCHAR edieresis
ENCODING 235
SWIDTH 444 0
DWIDTH 11 0
BBX 10 15 1 0
BITMAP
18C0
18C0
0000
0000
0780
1FC0
39C0
7180
7700
FC00
F000
E000
F180
7F00
3C00
ENDCHAR
STARTCHAR igrave
ENCODING 236
SWIDTH 278 0
DWIDTH 7 0
BBX 6 17 0 0
BITMAP
E0
F0
78
1C
04
00
3C
1C
1C
38
38
38
70
70
F4
F8
70
ENDCHAR
STARTCHAR iacute
ENCODING 237
SWIDTH 278 0
DWIDTH 7 0
BBX 10 17 0 0
BITMAP
01C0
03C0
0780
0E00
0800
0000
3C00
1C00
1C00
3800
3800
3800
7000
7000
F400
F800
7000
ENDCHAR
STARTCHAR icircumflex
ENCODING 238
SWIDTH 278 0
DWIDTH 7 0
BBX 9 16 0 0
BITMAP
0C00
1E00
3300
6180
0000
3C00
1C00
1C00
3800
3800
3800
7000
7000
F400
F800
7000
ENDCHAR
STARTCHAR idieresis
ENCODING 239
SWIDTH 278 0
DWIDTH 7 0
BBX 8 15 0 0
BITMAP
33
33
00
00
3C
1C
1C
38
38
38
70
70
F4
F8
70
ENDCHAR
STARTCHAR eth
ENCODING 240
SWIDTH 500 0
DWIDTH 12 0
BBX 11 16 0 0
BITMAP
30C0
1DC0
0F00
3F00
3180
0FC0
3DC0
78E0
70E0
E0E0
E0E0
E0E0
E1C0
E3C0
7780
3E00
ENDCHAR
STARTCHAR ntilde
ENCODING 241
SWIDTH 556 0
DWIDTH 13 0
BBX 12 16 0 0
BITMAP
0E10
1FE0
21C0
0000
0000
79C0
3BE0
3AE0
3CE0
38E0
71C0
71C0
71C0
E390
E3E0
E1C0
ENDCHAR
STARTCHAR ograve
ENCODING 242
SWIDTH 500 0
DWIDTH 12 0
BBX 11 17 0 0
BITMAP
3800
3C00
1E00
0700
0100
0000
0F80
3DC0
78E0
70E0
E0E0
E0E0
E0E0
E1C0
E3C0
7780
3E00
ENDCHAR
STARTCHAR oacute
ENCODING 243
SWIDTH 500 0
DWIDTH 12 0
BBX 12 17 0 0
BITMAP
0070
00F0
01E0
0380
0200
0000
0F80
3DC0
78E0
70E0
E0E0
E0E0
E0E0
E1C0
E3C0
7780
3E00
ENDCHAR
STARTCHAR ocircumflex
ENCODING 244
SWIDTH 500 0
DWIDTH 12 0
BBX 12 16 0 0
BITMAP
0180
03C0
0EE0
1830
0000
0F80
3DC0
78E0
70E0
E0E0
E0E0
E0E0
E1C0
E3C0
7780
3E00
ENDCHAR
STARTCHAR otilde
ENCODING 245
SWIDTH 500 0
DWIDTH 12 0
BBX 12 16 0 0
BITMAP
0E10
1FE0
21C0
0000
0000
0F80
3DC0
78E0
70E0
E0E0
E0E0
E0E0
E1C0
E3C0
7780
3E00
ENDCHAR
STARTCHAR odieresis
ENCODING 246
SWIDTH 500 0
DWIDTH 12 0
BBX 11 15 0 0
BITMAP
0C60
0C60
0000
0000
0F80
3DC0
78E0
70E0
E0E0
E0E0
E0E0
E1C0
E3C0
7780
3E00
ENDCHAR
STARTCHAR divide
ENCODING 247
SWIDTH 570 0
DWIDTH 13 0
BBX 12 10 0 1
BITMAP
0600
0F00
0600
0000
FFF0
FFF0
0000
0600
0F00
0600
ENDCHAR
STARTCHAR oslash
ENCODING 248
SWIDTH 500 0
DWIDTH 13 0
BBX 11 16 1 -3
BITMAP
0040
00C0
0F80
3DC0
7BE0
7360
E6E0
E6E0
ECE0
D9C0
FBC0
7780
3E00
7000
6000
4000
ENDCHAR
STARTCHAR ugrave
ENCODING 249
SWIDTH 556 0
DWIDTH 14 0
BBX 12 17 1 0
BITMAP
1C00
1E00
0F00
0380
0080
0000
3C70
1C70
38E0
38E0
71E0
73C0
72C0
E6C0
EDB0
F9E0
71C0
ENDCHAR
STARTCHAR uacute
ENCODING 250
SWIDTH 556 0
DWIDTH 14 0
BBX 12 17 1 0
BITMAP
0070
00F0
01E0
0380
0200
0000
3C70
1C70
38E0
38E0
71E0
73C0
72C0
E6C0
EDB0
F9E0
71C0
ENDCHAR
STARTCHAR ucircumflex
ENCODING 251
SWIDTH 556 0
DWIDTH 14 0
BBX 13 16 1 0
BITMAP
00C0
01E0
0770
0C18
0000
3C70
1C70
38E0
38E0
71E0
73C0
72C0
E6C0
EDB0
F9E0
71C0
ENDCHAR
STARTCHAR udieresis
ENCODING 252
SWIDTH 556 0
DWIDTH 14 0
BBX 12 15 1 0
BITMAP
0630
0630
0000
0000
3C70
1C70
38E0
38E0
71E0
73C0
72C0
E6C0
EDB0
F9E0
71C0
ENDCHAR
STARTCHAR yacute
ENCODING 253
SWIDTH 444 0
DWIDTH 11 0
BBX 13 22 -2 -5
BITMAP
0038
0078
00F0
01C0
0100
0000
3C70
1C70
1C70
1C60
0EE0
0EC0
0F80
0780
0700
0700
0600
0E00
0C00
DC00
F800
7000
ENDCHAR
STARTCHAR thorn
ENCODING 254
SWIDTH 500 0
DWIDTH 13 0
BBX 15 22 -3 -5
BITMAP
03C0
01C0
01C0
0380
0380
0380
0738
077C
079E
0F0E
0E0E
0E0E
0E0C
1C1C
1E18
1F70
39C0
3800
3800
7000
7000
F800
ENDCHAR
STARTCHAR ydieresis
ENCODING 255
SWIDTH 444 0
DWIDTH 11 0
BBX 12 20 -1 -5
BITMAP
0C60
0C60
0000
0000
3C70
1C70
1C70
1C60
0EE0
0EC0
0F80
0780
0700
0700
0600
0E00
0C00
DC00
F800
7000
ENDCHAR
STARTCHAR Lslash
ENCODING -1
SWIDTH 611 0
DWIDTH 15 0
BBX 14 17 0 0
BITMAP
0FC0
0780
0780
0700
0F60
0FC0
0F80
3E00
7E00
DC00
3C00
3C00
3804
780C
781C
7C78
FFF8
ENDCHAR
STARTCHAR OE
ENCODING -1
SWIDTH 944 0
DWIDTH 24 0
BBX 25 17 0 0
BITMAP
00FBFF80
03DF8380
0F078100
1E0F0100
1C0F0000
3C0F0800
781E1800
781E3000
F01FF000
F03C7000
F03C2000
F03C2000
F0380200
F0780600
70780E00
3DF03C00
1FBFFC00
ENDCHAR
STARTCHAR Scaron
ENCODING -1
SWIDTH 556 0
DWIDTH 14 0
BBX 14 22 -1 0
BITMAP
060C
03B8
01F0
00E0
0000
03EC
07BC
0E0C
0E04
0E04
0F00
0F80
07C0
03E0
01F0
00F8
1078
3038
3038
7870
7DF0
EFC0
ENDCHAR
STARTCHAR Ydieresis
ENCODING -1
SWIDTH 611 0
DWIDTH 14 0
BBX 14 21 2 0
BITMAP
0C60
0C60
0000
0000
FC7C
7838
7830
3820
3C60
3CC0
1C80
1D80
1F00
0F00
0E00
1E00
1E00
1C00
3C00
3E00
FF00
ENDCHAR
STARTCHAR Zcaron
ENCODING -1
SWIDTH 611 0
DWIDTH 15 0
BBX 16 22 0 0
BITMAP
0306
01DC
00F8
0070
0000
0FFF
1E1F
181E
303C
0078
00F0
01E0
01E0
03C0
0780
0F00
1E00
3E06
3C0C
781C
F0F8
FFF8
ENDCHAR
STARTCHAR breve
ENCODING -1
SWIDTH 333 0
DWIDTH 9 0
BBX 8 4 2 13
BITMAP
81
C3
7E
3C
ENDCHAR
STARTCHAR bullet
ENCODING -1
SWIDTH 350 0
DWIDTH 9 0
BBX 6 6 1 5
BITMAP
78
FC
FC
FC
FC
78
ENDCHAR
STARTCHAR caron
ENCODING -1
SWIDTH 333 0
DWIDTH 9 0
BBX 8 4 2 12
BITMAP
C3
6E
78
30
ENDCHAR
STARTCHAR circumflex
ENCODING -1
SWIDTH 333 0
DWIDTH 8 0
BBX 9 4 1 12
BITMAP
0C00
1E00
7700
C180
ENDCHAR
STARTCHAR dagger
ENCODING -1
SWIDTH 500 0
DWIDTH 12 0
BBX 12 21 0 -3
BITMAP
0100
0380
0380
0300
0300
7260
FFF0
64E0
0E00
0E00
0C00
0C00
1800
1800
1800
1800
1000
3000
2000
2000
2000
ENDCHAR
STARTCHAR daggerdbl
ENCODING -1
SWIDTH 500 0
DWIDTH 12 0
BBX 14 21 -2 -3
BITMAP
0040
00E0
00E0
00C0
0080
1C98
3FFC
1938
0100
0300
0300
0300
0200
7260
FFF0
64E0
0400
0C00
1C00
1C00
0800
ENDCHAR
STARTCHAR dotaccent
ENCODING -1
SWIDTH 333 0
DWIDTH 6 0
BBX 2 2 4 13
BITMAP
C0
C0
ENDCHAR
STARTCHAR dotlessi
ENCODING -1
SWIDTH 278 0
DWIDTH 7 0
BBX 6 11 0 0
BITMAP
3C
1C
1C
38
38
38
70
70
F4
F8
70
ENDCHAR
STARTCHAR ellipsis
ENCODING -1
SWIDTH 1000 0
DWIDTH 25 0
BBX 19 3 2 0
BITMAP
E0E0E0
E0E0E0
E0E0E0
ENDCHAR
STARTCHAR emdash
ENCODING -1
SWIDTH 1000 0
DWIDTH 25 0
BBX 25 2 0 5
BITMAP
FFFFFF80
FFFFFF80
ENDCHAR
STARTCHAR endash
ENCODING -1
SWIDTH 500 0
DWIDTH 13 0
BBX 13 2 0 5
BITMAP
FFF8
FFF8
ENDCHAR
STARTCHAR fi
ENCODING -1
SWIDTH 556 0
DWIDTH 14 0
BBX 17 22 -4 -5
BITMAP
000F00
003F80
007380
006000
00E000
00E000
07FF80
01C780
01C700
01C700
038700
038F00
038E00
038E00
031E80
071F00
070E00
070000
060000
E60000
EC0000
780000
ENDCHAR
STARTCHAR fl
ENCODING -1
SWIDTH 556 0
DWIDTH 14 0
BBX 18 22 -4 -5
BITMAP
000FC0
003FC0
0073C0
006380
00E380
00E380
07FF00
01C700
01C700
01CF00
038E00
038E00
039E00
039C00
031C80
071F00
070E00
070000
060000
E60000
EC0000
780000
ENDCHAR
STARTCHAR florin
ENCODING -1
SWIDTH 500 0
DWIDTH 13 0
BBX 14 21 -1 -4
BITMAP
0078
00DC
019C
0180
0380
0380
1FF0
0380
0380
0380
0380
0700
0700
0700
0700
0700
0700
0600
E600
EC00
7800
ENDCHAR
STARTCHAR fraction
ENCODING -1
SWIDTH 167 0
DWIDTH 6 0
BBX 10 17 -2 0
BITMAP
00C0
00C0
0180
0180
0300
0300
0600
0600
0C00
0C00
1800
1800
3000
3000
6000
6000
C000
ENDCHAR
STARTCHAR grave
ENCODING -1
SWIDTH 333 0
DWIDTH 7 0
BBX 6 5 2 12
BITMAP
E0
F0
38
1C
04
ENDCHAR
STARTCHAR guilsinglleft
ENCODING -1
SWIDTH 333 0
DWIDTH 9 0
BBX 7 10 1 0
BITMAP
06
0E
1C
38
70
E0
60
70
30
38
ENDCHAR
STARTCHAR guilsinglright
ENCODING -1
SWIDTH 333 0
DWIDTH 9 0
BBX 7 10 1 0
BITMAP
38
18
1C
0C
0E
1C
38
70
E0
C0
ENDCHAR
STARTCHAR hungarumlaut
ENCODING -1
SWIDTH 333 0
DWIDTH 9 0
BBX 7 4 2 13
BITMAP
66
66
CC
CC
ENDCHAR
STARTCHAR lslash
ENCODING -1
SWIDTH 278 0
DWIDTH 7 0
BBX 9 17 0 0
BITMAP
0F00
0700
0700
0E00
0E80
0F80
1F00
1C00
7C00
F800
B800
3800
3800
7000
7200
7C00
3800
ENDCHAR
STARTCHAR oe
ENCODING -1
SWIDTH 722 0
DWIDTH 17 0
BBX 17 11 0 0
BITMAP
0F8F00
3DFF80
78F380
70E300
E0EE00
E0F800
E0E000
E1C000
E1E300
77FE00
3E7800
ENDCHAR
STARTCHAR ogonek
ENCODING -1
SWIDTH 333 0
DWIDTH 9 0
BBX 8 5 0 -5
BITMAP
30
60
E3
FE
78
ENDCHAR
STARTCHAR perthousand
ENCODING -1
SWIDTH 1000 0
DWIDTH 27 0
BBX 25 18 1 0
BITMAP
00060000
0E0C0000
3FFC0000
73180000
71300000
E3700000
E2600000
E6C00000
FCC00000
798E0700
033F1F80
037B3D80
06713880
06E37180
0CE27100
18E67300
18FC7E00
30783C00
ENDCHAR
STARTCHAR quotedblbase
ENCODING -1
SWIDTH 500 0
DWIDTH 11 0
BBX 9 6 -1 -3
BITMAP
7380
7380
7380
3180
6300
C600
ENDCHAR
STARTCHAR quotedblleft
ENCODING -1
SWIDTH 500 0
DWIDTH 13 0
BBX 9 6 4 11
BITMAP
3180
6300
C600
E700
E700
E700
ENDCHAR
STARTCHAR quotedblright
ENCODING -1
SWIDTH 500 0
DWIDTH 12 0
BBX 9 6 3 11
BITMAP
7380
7380
7380
3180
6300
C600
ENDCHAR
STARTCHAR quotesinglbase
ENCODING -1
SWIDTH 333 0
DWIDTH 6 0
BBX 4 6 -1 -3
BITMAP
70
70
70
30
60
C0
ENDCHAR
STARTCHAR quotesingle
ENCODING -1
SWIDTH 278 0
DWIDTH 7 0
BBX 4 6 3 11
BITMAP
F0
E0
E0
C0
C0
80
ENDCHAR
STARTCHAR ring
ENCODING -1
SWIDTH 333 0
DWIDTH 7 0
BBX 5 5 3 12
BITMAP
70
D8
88
D8
70
ENDCHAR
STARTCHAR scaron
ENCODING -1
SWIDTH 389 0
DWIDTH 10 0
BBX 11 16 0 0
BITMAP
3060
1DC0
0F80
0700
0000
1F80
3980
3180
3800
3C00
1E00
0F00
C700
C700
EF00
BC00
ENDCHAR
STARTCHAR tilde
ENCODING -1
SWIDTH 333 0
DWIDTH 8 0
BBX 10 3 1 13
BITMAP
3840
7F80
8700
ENDCHAR
STARTCHAR trademark
ENCODING -1
SWIDTH 1000 0
DWIDTH 25 0
BBX 23 10 2 7
BITMAP
FFDC0E
CCCE1C
8C4E1C
0C0F3C
0C0B2C
0C0BEC
0C09CC
0C09CC
0C088C
1E1C9E
ENDCHAR
STARTCHAR zcaron
ENCODING -1
SWIDTH 389 0
DWIDTH 9 0
BBX 11 18 -1 -2
BITMAP
3060
1DC0
0F80
0700
0000
3FC0
3FC0
6180
4300
0600
0C00
1800
3000
6000
F000
F980
0D80
0700
ENDCHAR
ENDFONT
