STARTFONT 2.1
FONT -Adobe-Times-Medium-I-Normal--14-140-75-75-P-73-ISO8859-1
SIZE 14 75 75
FONTBOUNDINGBOX 17 18 -3 -4
COMMENT $XConsortium: timI14.bdf,v 1.14 95/01/26 18:06:52 gildea Exp $
COMMENT 
COMMENT +
COMMENT  Copyright 1984-1989, 1994 Adobe Systems Incorporated.
COMMENT  Copyright 1988, 1994 Digital Equipment Corporation.
COMMENT
COMMENT  Adobe is a trademark of Adobe Systems Incorporated which may be
COMMENT  registered in certain jurisdictions.
COMMENT  Permission to use these trademarks is hereby granted only in
COMMENT  association with the images described in this file.
COMMENT
COMMENT  Permission to use, copy, modify, distribute and sell this software
COMMENT  and its documentation for any purpose and without fee is hereby
COMMENT  granted, provided that the above copyright notices appear in all
COMMENT  copies and that both those copyright notices and this permission
COMMENT  notice appear in supporting documentation, and that the names of
COMMENT  Adobe Systems and Digital Equipment Corporation not be used in
COMMENT  advertising or publicity pertaining to distribution of the software
COMMENT  without specific, written prior permission.  Adobe Systems and
COMMENT  Digital Equipment Corporation make no representations about the
COMMENT  suitability of this software for any purpose.  It is provided "as
COMMENT  is" without express or implied warranty.
COMMENT -
STARTPROPERTIES 28
FOUNDRY "Adobe"
FAMILY_NAME "Times"
WEIGHT_NAME "Medium"
SLANT "I"
SETWIDTH_NAME "Normal"
ADD_STYLE_NAME ""
PIXEL_SIZE 14
POINT_SIZE 140
RESOLUTION_X 75
RESOLUTION_Y 75
SPACING "P"
AVERAGE_WIDTH 73
CHARSET_REGISTRY "ISO8859"
CHARSET_ENCODING "1"
CAP_HEIGHT 10
X_HEIGHT 7
FONT_ASCENT 12
FONT_DESCENT 3
FACE_NAME "Times Italic"
COPYRIGHT "Copyright (c) 1984, 1987 Adobe Systems Incorporated. All Rights Reserved. Copyright (c) 1988, 1991 Digital Equipment Corporation. All Rights Reserved."
NOTICE "Times is a trademark of Linotype-Hell AG and/or its subsidiaries."
_DEC_DEVICE_FONTNAMES "PS=Times-Italic"
_DEC_PRODUCTINFO "DECwindows Fonts V2.2, 07-Nov-1991"
DEFAULT_CHAR 32
RELATIVE_SETWIDTH 50
RELATIVE_WEIGHT 50
CHARSET_COLLECTIONS "ASCII ISO8859-1 ADOBE-STANDARD"
FULL_NAME "Times Italic"
ENDPROPERTIES
CHARS 229
STARTCHAR space
ENCODING 32
SWIDTH 250 0
DWIDTH 3 0
BBX 1 1 0 0
BITMAP
00
ENDCHAR
STARTCHAR exclam
ENCODING 33
SWIDTH 333 0
DWIDTH 5 0
BBX 4 10 1 0
BITMAP
10
10
10
20
20
20
40
40
00
80
ENDCHAR
STARTCHAR quotedbl
ENCODING 34
SWIDTH 420 0
DWIDTH 6 0
BBX 7 4 0 6
BITMAP
36
6C
48
90
ENDCHAR
STARTCHAR numbersign
ENCODING 35
SWIDTH 500 0
DWIDTH 7 0
BBX 7 10 0 0
BITMAP
14
14
14
7E
28
28
FC
50
50
50
ENDCHAR
STARTCHAR dollar
ENCODING 36
SWIDTH 500 0
DWIDTH 7 0
BBX 7 12 0 -1
BITMAP
04
1C
2A
2A
28
18
14
14
A4
A8
78
20
ENDCHAR
STARTCHAR percent
ENCODING 37
SWIDTH 833 0
DWIDTH 12 0
BBX 11 10 0 0
BITMAP
3880
4F80
8900
9200
6400
04C0
0920
1220
1240
2180
ENDCHAR
STARTCHAR ampersand
ENCODING 38
SWIDTH 778 0
DWIDTH 11 0
BBX 9 10 0 0
BITMAP
0C00
1200
1200
1C00
3980
4900
8A00
8400
8E80
7300
ENDCHAR
STARTCHAR quoteright
ENCODING 39
SWIDTH 333 0
DWIDTH 5 0
BBX 2 3 2 7
BITMAP
C0
40
80
ENDCHAR
STARTCHAR parenleft
ENCODING 40
SWIDTH 333 0
DWIDTH 5 0
BBX 4 13 0 -3
BITMAP
10
20
20
40
40
40
80
80
80
80
80
80
40
ENDCHAR
STARTCHAR parenright
ENCODING 41
SWIDTH 333 0
DWIDTH 5 0
BBX 4 13 0 -3
BITMAP
20
10
10
10
10
10
10
20
20
20
40
40
80
ENDCHAR
STARTCHAR asterisk
ENCODING 42
SWIDTH 500 0
DWIDTH 7 0
BBX 5 5 1 5
BITMAP
20
A8
70
A8
20
ENDCHAR
STARTCHAR plus
ENCODING 43
SWIDTH 675 0
DWIDTH 10 0
BBX 7 7 1 0
BITMAP
10
10
10
FE
10
10
10
ENDCHAR
STARTCHAR comma
ENCODING 44
SWIDTH 250 0
DWIDTH 4 0
BBX 2 3 0 -1
BITMAP
C0
40
80
ENDCHAR
STARTCHAR minus
ENCODING 45
SWIDTH 675 0
DWIDTH 9 0
BBX 6 1 1 3
BITMAP
FC
ENDCHAR
STARTCHAR period
ENCODING 46
SWIDTH 250 0
DWIDTH 3 0
BBX 1 2 0 0
BITMAP
80
80
ENDCHAR
STARTCHAR slash
ENCODING 47
SWIDTH 278 0
DWIDTH 4 0
BBX 5 10 -1 0
BITMAP
08
08
10
10
20
20
40
40
80
80
ENDCHAR
STARTCHAR zero
ENCODING 48
SWIDTH 500 0
DWIDTH 7 0
BBX 6 10 0 0
BITMAP
18
24
44
44
84
84
88
88
90
60
ENDCHAR
STARTCHAR one
ENCODING 49
SWIDTH 500 0
DWIDTH 7 0
BBX 4 10 1 0
BITMAP
30
10
10
20
20
20
40
40
40
E0
ENDCHAR
STARTCHAR two
ENCODING 50
SWIDTH 500 0
DWIDTH 7 0
BBX 6 10 0 0
BITMAP
38
44
04
04
08
10
20
40
88
F8
ENDCHAR
STARTCHAR three
ENCODING 51
SWIDTH 500 0
DWIDTH 7 0
BBX 6 10 0 0
BITMAP
18
24
04
08
30
08
08
08
90
60
ENDCHAR
STARTCHAR four
ENCODING 52
SWIDTH 500 0
DWIDTH 7 0
BBX 6 10 0 0
BITMAP
04
0C
14
28
48
90
FC
10
20
20
ENDCHAR
STARTCHAR five
ENCODING 53
SWIDTH 500 0
DWIDTH 7 0
BBX 6 10 0 0
BITMAP
3C
40
40
70
18
08
08
08
90
E0
ENDCHAR
STARTCHAR six
ENCODING 54
SWIDTH 500 0
DWIDTH 7 0
BBX 6 10 0 0
BITMAP
0C
30
40
40
F0
88
88
88
D0
60
ENDCHAR
STARTCHAR seven
ENCODING 55
SWIDTH 500 0
DWIDTH 7 0
BBX 6 10 1 0
BITMAP
7C
84
08
08
10
20
20
40
80
80
ENDCHAR
STARTCHAR eight
ENCODING 56
SWIDTH 500 0
DWIDTH 7 0
BBX 6 10 0 0
BITMAP
18
24
44
28
30
50
88
88
90
60
ENDCHAR
STARTCHAR nine
ENCODING 57
SWIDTH 500 0
DWIDTH 7 0
BBX 6 10 0 0
BITMAP
18
2C
44
44
4C
34
08
08
30
C0
ENDCHAR
STARTCHAR colon
ENCODING 58
SWIDTH 333 0
DWIDTH 4 0
BBX 2 7 1 0
BITMAP
40
40
00
00
00
80
80
ENDCHAR
STARTCHAR semicolon
ENCODING 59
SWIDTH 333 0
DWIDTH 4 0
BBX 3 8 0 -1
BITMAP
20
20
00
00
00
C0
40
80
ENDCHAR
STARTCHAR less
ENCODING 60
SWIDTH 675 0
DWIDTH 10 0
BBX 7 7 1 0
BITMAP
06
18
20
C0
20
18
06
ENDCHAR
STARTCHAR equal
ENCODING 61
SWIDTH 675 0
DWIDTH 10 0
BBX 7 3 1 2
BITMAP
FE
00
FE
ENDCHAR
STARTCHAR greater
ENCODING 62
SWIDTH 675 0
DWIDTH 10 0
BBX 7 7 2 0
BITMAP
C0
30
08
06
08
30
C0
ENDCHAR
STARTCHAR question
ENCODING 63
SWIDTH 500 0
DWIDTH 7 0
BBX 4 10 2 0
BITMAP
60
90
90
10
20
40
80
80
00
80
ENDCHAR
STARTCHAR at
ENCODING 64
SWIDTH 920 0
DWIDTH 13 0
BBX 12 13 0 -3
BITMAP
0780
1860
2020
4390
4C90
8890
9110
9310
9520
48C0
4000
3040
0F80
ENDCHAR
STARTCHAR A
ENCODING 65
SWIDTH 611 0
DWIDTH 9 0
BBX 9 10 -1 0
BITMAP
0100
0300
0500
0900
0900
1100
3F00
2100
4100
E380
ENDCHAR
STARTCHAR B
ENCODING 66
SWIDTH 611 0
DWIDTH 8 0
BBX 9 10 -1 0
BITMAP
3F00
1080
1080
2100
3E00
2300
4100
4100
4200
FC00
ENDCHAR
STARTCHAR C
ENCODING 67
SWIDTH 667 0
DWIDTH 9 0
BBX 9 10 1 0
BITMAP
1E80
3100
4100
4000
8000
8000
8000
8000
C400
7800
ENDCHAR
STARTCHAR D
ENCODING 68
SWIDTH 722 0
DWIDTH 10 0
BBX 9 10 0 0
BITMAP
3F00
1180
1080
2080
2080
2080
4100
4100
4600
F800
ENDCHAR
STARTCHAR E
ENCODING 69
SWIDTH 611 0
DWIDTH 9 0
BBX 9 10 0 0
BITMAP
3F80
1080
1000
2200
3E00
2400
4000
4000
4100
FE00
ENDCHAR
STARTCHAR F
ENCODING 70
SWIDTH 611 0
DWIDTH 9 0
BBX 9 10 0 0
BITMAP
3F80
1080
1000
2200
3E00
2400
4000
4000
4000
E000
ENDCHAR
STARTCHAR G
ENCODING 71
SWIDTH 722 0
DWIDTH 10 0
BBX 9 10 1 0
BITMAP
1E80
3100
4100
4000
8000
8700
8200
8200
C400
7800
ENDCHAR
STARTCHAR H
ENCODING 72
SWIDTH 722 0
DWIDTH 10 0
BBX 10 10 0 0
BITMAP
39C0
1080
1080
2100
3F00
2100
4200
4200
4200
E700
ENDCHAR
STARTCHAR I
ENCODING 73
SWIDTH 333 0
DWIDTH 5 0
BBX 5 10 0 0
BITMAP
38
10
10
20
20
20
40
40
40
E0
ENDCHAR
STARTCHAR J
ENCODING 74
SWIDTH 444 0
DWIDTH 6 0
BBX 6 10 0 0
BITMAP
1C
08
08
10
10
10
20
20
A0
C0
ENDCHAR
STARTCHAR K
ENCODING 75
SWIDTH 667 0
DWIDTH 10 0
BBX 10 10 0 0
BITMAP
39C0
1100
1200
2400
3800
2800
4400
4200
4100
E380
ENDCHAR
STARTCHAR L
ENCODING 76
SWIDTH 556 0
DWIDTH 8 0
BBX 7 10 0 0
BITMAP
38
10
10
20
20
20
40
40
42
FC
ENDCHAR
STARTCHAR M
ENCODING 77
SWIDTH 833 0
DWIDTH 12 0
BBX 12 10 0 0
BITMAP
3070
1060
18A0
2940
2940
2A40
4A80
4C80
4880
E9C0
ENDCHAR
STARTCHAR N
ENCODING 78
SWIDTH 667 0
DWIDTH 11 0
BBX 11 10 0 0
BITMAP
30E0
1040
1040
2880
2880
2480
4500
4500
4300
E100
ENDCHAR
STARTCHAR O
ENCODING 79
SWIDTH 722 0
DWIDTH 10 0
BBX 9 10 0 0
BITMAP
0E00
3100
6080
4080
C080
8180
8100
8300
4600
3800
ENDCHAR
STARTCHAR P
ENCODING 80
SWIDTH 611 0
DWIDTH 9 0
BBX 9 10 0 0
BITMAP
3F00
1080
1080
2100
3E00
2000
4000
4000
4000
E000
ENDCHAR
STARTCHAR Q
ENCODING 81
SWIDTH 722 0
DWIDTH 10 0
BBX 9 13 0 -3
BITMAP
0E00
3100
6080
4080
C080
8180
8100
8300
4600
3800
2000
4100
FE00
ENDCHAR
STARTCHAR R
ENCODING 82
SWIDTH 611 0
DWIDTH 9 0
BBX 9 10 0 0
BITMAP
3F00
1080
1080
2100
3E00
2800
4400
4400
4200
E300
ENDCHAR
STARTCHAR S
ENCODING 83
SWIDTH 500 0
DWIDTH 7 0
BBX 7 10 0 0
BITMAP
1A
26
22
20
10
08
04
84
C4
B8
ENDCHAR
STARTCHAR T
ENCODING 84
SWIDTH 556 0
DWIDTH 8 0
BBX 7 10 1 0
BITMAP
FE
92
10
20
20
20
40
40
40
E0
ENDCHAR
STARTCHAR U
ENCODING 85
SWIDTH 722 0
DWIDTH 10 0
BBX 10 10 1 0
BITMAP
79C0
2080
2100
4100
4100
4200
8200
8200
8400
7800
ENDCHAR
STARTCHAR V
ENCODING 86
SWIDTH 611 0
DWIDTH 9 0
BBX 9 10 1 0
BITMAP
E380
4100
4200
4200
4400
4800
4800
5000
6000
4000
ENDCHAR
STARTCHAR W
ENCODING 87
SWIDTH 833 0
DWIDTH 11 0
BBX 12 10 0 0
BITMAP
EE70
4420
4440
4440
4440
2A80
2A80
3300
3300
2200
ENDCHAR
STARTCHAR X
ENCODING 88
SWIDTH 611 0
DWIDTH 9 0
BBX 9 10 0 0
BITMAP
7380
2100
1200
1400
0800
0800
1400
2400
4200
E700
ENDCHAR
STARTCHAR Y
ENCODING 89
SWIDTH 556 0
DWIDTH 8 0
BBX 9 10 0 0
BITMAP
E380
4100
2200
1400
1800
1000
1000
2000
2000
7000
ENDCHAR
STARTCHAR Z
ENCODING 90
SWIDTH 556 0
DWIDTH 8 0
BBX 8 10 0 0
BITMAP
7F
41
02
04
08
10
20
40
82
FE
ENDCHAR
STARTCHAR bracketleft
ENCODING 91
SWIDTH 389 0
DWIDTH 6 0
BBX 6 13 0 -3
BITMAP
1C
10
10
20
20
20
40
40
40
80
80
80
E0
ENDCHAR
STARTCHAR backslash
ENCODING 92
SWIDTH 278 0
DWIDTH 4 0
BBX 4 10 0 0
BITMAP
80
80
80
40
40
20
20
10
10
10
ENDCHAR
STARTCHAR bracketright
ENCODING 93
SWIDTH 389 0
DWIDTH 6 0
BBX 6 13 -1 -3
BITMAP
1C
04
04
08
08
08
10
10
10
20
20
20
E0
ENDCHAR
STARTCHAR asciicircum
ENCODING 94
SWIDTH 422 0
DWIDTH 6 0
BBX 5 5 1 5
BITMAP
20
70
50
88
88
ENDCHAR
STARTCHAR underscore
ENCODING 95
SWIDTH 500 0
DWIDTH 7 0
BBX 8 1 -2 -4
BITMAP
FF
ENDCHAR
STARTCHAR quoteleft
ENCODING 96
SWIDTH 333 0
DWIDTH 5 0
BBX 2 3 2 7
BITMAP
40
80
C0
ENDCHAR
STARTCHAR a
ENCODING 97
SWIDTH 500 0
DWIDTH 7 0
BBX 7 7 0 0
BITMAP
1A
6C
44
88
98
AA
4C
ENDCHAR
STARTCHAR b
ENCODING 98
SWIDTH 500 0
DWIDTH 7 0
BBX 6 10 0 0
BITMAP
30
10
20
28
74
44
44
88
D8
60
ENDCHAR
STARTCHAR c
ENCODING 99
SWIDTH 444 0
DWIDTH 6 0
BBX 6 7 0 0
BITMAP
1C
64
40
80
80
C8
70
ENDCHAR
STARTCHAR d
ENCODING 100
SWIDTH 500 0
DWIDTH 7 0
BBX 7 10 0 0
BITMAP
06
02
04
34
4C
88
88
90
B4
58
ENDCHAR
STARTCHAR e
ENCODING 101
SWIDTH 444 0
DWIDTH 7 0
BBX 6 7 0 0
BITMAP
18
64
4C
F0
80
C8
70
ENDCHAR
STARTCHAR f
ENCODING 102
SWIDTH 278 0
DWIDTH 5 0
BBX 8 13 -2 -3
BITMAP
03
05
04
1E
08
08
10
10
10
20
20
A0
C0
ENDCHAR
STARTCHAR g
ENCODING 103
SWIDTH 500 0
DWIDTH 6 0
BBX 7 10 -1 -3
BITMAP
1E
24
44
48
30
40
70
88
88
70
ENDCHAR
STARTCHAR h
ENCODING 104
SWIDTH 500 0
DWIDTH 7 0
BBX 6 10 0 0
BITMAP
30
10
10
2C
34
64
48
48
94
88
ENDCHAR
STARTCHAR i
ENCODING 105
SWIDTH 278 0
DWIDTH 4 0
BBX 4 10 0 0
BITMAP
10
00
00
60
20
40
40
80
A0
40
ENDCHAR
STARTCHAR j
ENCODING 106
SWIDTH 278 0
DWIDTH 4 0
BBX 6 13 -2 -3
BITMAP
04
00
00
18
08
08
10
10
10
20
20
A0
C0
ENDCHAR
STARTCHAR k
ENCODING 107
SWIDTH 444 0
DWIDTH 7 0
BBX 7 10 0 0
BITMAP
30
10
10
26
24
78
50
50
94
88
ENDCHAR
STARTCHAR l
ENCODING 108
SWIDTH 278 0
DWIDTH 4 0
BBX 4 10 0 0
BITMAP
30
10
20
20
40
40
40
80
A0
40
ENDCHAR
STARTCHAR m
ENCODING 109
SWIDTH 722 0
DWIDTH 10 0
BBX 9 7 0 0
BITMAP
ED80
3680
6480
4900
4900
9280
9100
ENDCHAR
STARTCHAR n
ENCODING 110
SWIDTH 500 0
DWIDTH 7 0
BBX 6 7 0 0
BITMAP
6C
34
64
48
48
94
88
ENDCHAR
STARTCHAR o
ENCODING 111
SWIDTH 500 0
DWIDTH 7 0
BBX 6 7 0 0
BITMAP
18
6C
44
84
88
D8
60
ENDCHAR
STARTCHAR p
ENCODING 112
SWIDTH 500 0
DWIDTH 7 0
BBX 8 10 -2 -3
BITMAP
36
19
11
11
22
26
38
40
40
E0
ENDCHAR
STARTCHAR q
ENCODING 113
SWIDTH 500 0
DWIDTH 7 0
BBX 7 10 0 -3
BITMAP
1A
24
44
48
88
90
70
10
20
70
ENDCHAR
STARTCHAR r
ENCODING 114
SWIDTH 389 0
DWIDTH 5 0
BBX 5 7 0 0
BITMAP
58
20
40
40
80
80
80
ENDCHAR
STARTCHAR s
ENCODING 115
SWIDTH 389 0
DWIDTH 6 0
BBX 5 7 0 0
BITMAP
38
48
40
20
10
90
E0
ENDCHAR
STARTCHAR t
ENCODING 116
SWIDTH 278 0
DWIDTH 5 0
BBX 5 9 0 0
BITMAP
10
10
78
20
40
40
80
A0
C0
ENDCHAR
STARTCHAR u
ENCODING 117
SWIDTH 500 0
DWIDTH 7 0
BBX 6 7 0 0
BITMAP
64
24
48
48
90
B4
D8
ENDCHAR
STARTCHAR v
ENCODING 118
SWIDTH 444 0
DWIDTH 6 0
BBX 6 7 0 0
BITMAP
CC
44
48
48
50
60
40
ENDCHAR
STARTCHAR w
ENCODING 119
SWIDTH 667 0
DWIDTH 9 0
BBX 9 7 0 0
BITMAP
C980
4900
4900
4A00
5A00
6C00
4800
ENDCHAR
STARTCHAR x
ENCODING 120
SWIDTH 444 0
DWIDTH 7 0
BBX 7 7 -1 0
BITMAP
66
24
18
10
28
4A
C4
ENDCHAR
STARTCHAR y
ENCODING 121
SWIDTH 444 0
DWIDTH 7 0
BBX 7 10 -1 -3
BITMAP
66
22
22
24
24
28
10
10
A0
C0
ENDCHAR
STARTCHAR z
ENCODING 122
SWIDTH 389 0
DWIDTH 6 0
BBX 6 7 0 0
BITMAP
7C
48
10
20
40
88
F8
ENDCHAR
STARTCHAR braceleft
ENCODING 123
SWIDTH 400 0
DWIDTH 6 0
BBX 6 13 0 -3
BITMAP
0C
10
10
20
20
20
C0
40
40
80
80
80
60
ENDCHAR
STARTCHAR bar
ENCODING 124
SWIDTH 275 0
DWIDTH 4 0
BBX 4 13 0 -3
BITMAP
10
10
10
20
20
20
40
40
40
40
80
80
80
ENDCHAR
STARTCHAR braceright
ENCODING 125
SWIDTH 400 0
DWIDTH 6 0
BBX 6 13 -1 -3
BITMAP
18
04
04
04
08
08
0C
10
10
10
20
20
C0
ENDCHAR
STARTCHAR asciitilde
ENCODING 126
SWIDTH 541 0
DWIDTH 8 0
BBX 6 2 1 3
BITMAP
64
98
ENDCHAR
STARTCHAR space
ENCODING 160
SWIDTH 250 0
DWIDTH 3 0
BBX 1 1 0 0
BITMAP
00
ENDCHAR
STARTCHAR exclamdown
ENCODING 161
SWIDTH 389 0
DWIDTH 6 0
BBX 4 10 1 -3
BITMAP
10
00
20
20
40
40
40
80
80
80
ENDCHAR
STARTCHAR cent
ENCODING 162
SWIDTH 500 0
DWIDTH 7 0
BBX 6 11 0 -2
BITMAP
08
08
38
54
90
90
A0
A8
70
40
40
ENDCHAR
STARTCHAR sterling
ENCODING 163
SWIDTH 500 0
DWIDTH 7 0
BBX 7 10 0 0
BITMAP
0E
12
10
10
7C
10
20
20
C2
BC
ENDCHAR
STARTCHAR currency
ENCODING 164
SWIDTH 500 0
DWIDTH 7 0
BBX 5 6 1 2
BITMAP
88
70
88
88
70
88
ENDCHAR
STARTCHAR yen
ENCODING 165
SWIDTH 500 0
DWIDTH 7 0
BBX 9 10 0 0
BITMAP
E380
4100
2200
1400
3C00
1000
7800
2000
2000
7000
ENDCHAR
STARTCHAR brokenbar
ENCODING 166
SWIDTH 275 0
DWIDTH 4 0
BBX 4 13 0 -3
BITMAP
10
10
10
20
20
00
00
40
40
40
80
80
80
ENDCHAR
STARTCHAR section
ENCODING 167
SWIDTH 500 0
DWIDTH 7 0
BBX 7 13 0 -2
BITMAP
1C
36
26
30
68
4C
44
64
2C
18
C8
D8
70
ENDCHAR
STARTCHAR dieresis
ENCODING 168
SWIDTH 333 0
DWIDTH 5 0
BBX 3 2 2 8
BITMAP
A0
A0
ENDCHAR
STARTCHAR copyright
ENCODING 169
SWIDTH 760 0
DWIDTH 12 0
BBX 10 10 1 0
BITMAP
1E00
6180
4E80
9240
9040
9040
9240
4C80
6180
1E00
ENDCHAR
STARTCHAR ordfeminine
ENCODING 170
SWIDTH 276 0
DWIDTH 5 0
BBX 5 6 0 4
BITMAP
38
48
50
68
00
F0
ENDCHAR
STARTCHAR guillemotleft
ENCODING 171
SWIDTH 500 0
DWIDTH 7 0
BBX 5 5 1 1
BITMAP
28
50
A0
A0
50
ENDCHAR
STARTCHAR logicalnot
ENCODING 172
SWIDTH 675 0
DWIDTH 9 0
BBX 7 4 1 1
BITMAP
FE
02
02
02
ENDCHAR
STARTCHAR hyphen
ENCODING 173
SWIDTH 333 0
DWIDTH 5 0
BBX 3 1 1 3
BITMAP
E0
ENDCHAR
STARTCHAR registered
ENCODING 174
SWIDTH 760 0
DWIDTH 12 0
BBX 10 10 1 0
BITMAP
1E00
6180
5C80
9240
9C40
9440
9240
5280
6180
1E00
ENDCHAR
STARTCHAR macron
ENCODING 175
SWIDTH 333 0
DWIDTH 5 0
BBX 4 1 2 9
BITMAP
F0
ENDCHAR
STARTCHAR degree
ENCODING 176
SWIDTH 400 0
DWIDTH 6 0
BBX 4 4 1 6
BITMAP
60
90
90
60
ENDCHAR
STARTCHAR plusminus
ENCODING 177
SWIDTH 675 0
DWIDTH 10 0
BBX 7 9 1 0
BITMAP
10
10
10
FE
10
10
10
00
FE
ENDCHAR
STARTCHAR twosuperior
ENCODING 178
SWIDTH 300 0
DWIDTH 4 0
BBX 4 6 0 4
BITMAP
60
90
20
40
80
E0
ENDCHAR
STARTCHAR threesuperior
ENCODING 179
SWIDTH 300 0
DWIDTH 4 0
BBX 5 6 -1 4
BITMAP
38
48
30
10
90
60
ENDCHAR
STARTCHAR acute
ENCODING 180
SWIDTH 333 0
DWIDTH 4 0
BBX 3 3 2 8
BITMAP
20
60
80
ENDCHAR
STARTCHAR mu
ENCODING 181
SWIDTH 500 0
DWIDTH 7 0
BBX 7 10 -1 -3
BITMAP
32
12
24
24
48
5A
6C
80
80
C0
ENDCHAR
STARTCHAR paragraph
ENCODING 182
SWIDTH 523 0
DWIDTH 8 0
BBX 8 13 0 -3
BITMAP
3F
7A
FA
F4
F4
74
28
28
28
28
50
50
50
ENDCHAR
STARTCHAR periodcentered
ENCODING 183
SWIDTH 250 0
DWIDTH 4 0
BBX 1 2 1 3
BITMAP
80
80
ENDCHAR
STARTCHAR cedilla
ENCODING 184
SWIDTH 333 0
DWIDTH 5 0
BBX 4 3 -1 -3
BITMAP
20
90
60
ENDCHAR
STARTCHAR onesuperior
ENCODING 185
SWIDTH 300 0
DWIDTH 4 0
BBX 3 6 0 4
BITMAP
20
60
20
40
40
E0
ENDCHAR
STARTCHAR ordmasculine
ENCODING 186
SWIDTH 310 0
DWIDTH 5 0
BBX 5 6 0 4
BITMAP
38
48
48
70
00
F0
ENDCHAR
STARTCHAR guillemotright
ENCODING 187
SWIDTH 500 0
DWIDTH 7 0
BBX 5 5 1 1
BITMAP
50
28
28
50
A0
ENDCHAR
STARTCHAR onequarter
ENCODING 188
SWIDTH 750 0
DWIDTH 10 0
BBX 8 10 0 0
BITMAP
21
62
22
44
49
EB
15
2A
2F
42
ENDCHAR
STARTCHAR onehalf
ENCODING 189
SWIDTH 750 0
DWIDTH 10 0
BBX 9 10 0 0
BITMAP
2100
6200
2200
4400
4B00
EC80
1100
2200
2400
4700
ENDCHAR
STARTCHAR threequarters
ENCODING 190
SWIDTH 750 0
DWIDTH 10 0
BBX 9 10 -1 0
BITMAP
3880
4900
3100
1200
9480
6580
0A80
1500
1780
2100
ENDCHAR
STARTCHAR questiondown
ENCODING 191
SWIDTH 500 0
DWIDTH 7 0
BBX 4 10 1 -3
BITMAP
10
00
10
10
20
40
80
B0
90
60
ENDCHAR
STARTCHAR Agrave
ENCODING 192
SWIDTH 611 0
DWIDTH 9 0
BBX 9 14 -1 0
BITMAP
0400
0600
0100
0000
0100
0300
0500
0900
0900
1100
3F00
2100
4100
E380
ENDCHAR
STARTCHAR Aacute
ENCODING 193
SWIDTH 611 0
DWIDTH 9 0
BBX 10 14 -1 0
BITMAP
0040
00C0
0100
0000
0100
0300
0500
0900
0900
1100
3F00
2100
4100
E380
ENDCHAR
STARTCHAR Acircumflex
ENCODING 194
SWIDTH 611 0
DWIDTH 9 0
BBX 9 14 -1 0
BITMAP
0100
0300
0480
0000
0100
0300
0500
0900
0900
1100
3F00
2100
4100
E380
ENDCHAR
STARTCHAR Atilde
ENCODING 195
SWIDTH 611 0
DWIDTH 9 0
BBX 10 13 -1 0
BITMAP
0340
0580
0000
0100
0300
0500
0900
0900
1100
3F00
2100
4100
E380
ENDCHAR
STARTCHAR Adieresis
ENCODING 196
SWIDTH 611 0
DWIDTH 9 0
BBX 10 13 -1 0
BITMAP
0240
0240
0000
0100
0300
0500
0900
0900
1100
3F00
2100
4100
E380
ENDCHAR
STARTCHAR Aring
ENCODING 197
SWIDTH 611 0
DWIDTH 9 0
BBX 10 14 -1 0
BITMAP
0180
0240
0180
0000
0100
0300
0500
0900
0900
1100
3F00
2100
4100
E380
ENDCHAR
STARTCHAR AE
ENCODING 198
SWIDTH 889 0
DWIDTH 13 0
BBX 14 10 -1 0
BITMAP
07FC
0284
0480
0910
09F0
1120
3E00
2200
4208
E7F0
ENDCHAR
STARTCHAR Ccedilla
ENCODING 199
SWIDTH 667 0
DWIDTH 9 0
BBX 9 13 1 -3
BITMAP
1E80
3100
4100
4000
8000
8000
8000
8000
C400
7C00
2000
9000
6000
ENDCHAR
STARTCHAR Egrave
ENCODING 200
SWIDTH 611 0
DWIDTH 9 0
BBX 9 14 0 0
BITMAP
1000
1800
0400
0000
3F80
1080
1000
2200
3E00
2400
4000
4000
4100
FE00
ENDCHAR
STARTCHAR Eacute
ENCODING 201
SWIDTH 611 0
DWIDTH 9 0
BBX 9 14 0 0
BITMAP
0100
0300
0400
0000
3F80
1080
1000
2200
3E00
2400
4000
4000
4100
FE00
ENDCHAR
STARTCHAR Ecircumflex
ENCODING 202
SWIDTH 611 0
DWIDTH 9 0
BBX 9 14 0 0
BITMAP
0200
0600
0900
0000
3F80
1080
1000
2200
3E00
2400
4000
4000
4100
FE00
ENDCHAR
STARTCHAR Edieresis
ENCODING 203
SWIDTH 611 0
DWIDTH 9 0
BBX 9 13 0 0
BITMAP
0900
0900
0000
3F80
1080
1000
2200
3E00
2400
4000
4000
4100
FE00
ENDCHAR
STARTCHAR Igrave
ENCODING 204
SWIDTH 333 0
DWIDTH 5 0
BBX 5 14 0 0
BITMAP
20
30
08
00
38
10
10
20
20
20
40
40
40
E0
ENDCHAR
STARTCHAR Iacute
ENCODING 205
SWIDTH 333 0
DWIDTH 5 0
BBX 6 14 0 0
BITMAP
04
0C
10
00
38
10
10
20
20
20
40
40
40
E0
ENDCHAR
STARTCHAR Icircumflex
ENCODING 206
SWIDTH 333 0
DWIDTH 5 0
BBX 6 14 0 0
BITMAP
08
18
24
00
38
10
10
20
20
20
40
40
40
E0
ENDCHAR
STARTCHAR Idieresis
ENCODING 207
SWIDTH 333 0
DWIDTH 5 0
BBX 6 13 0 0
BITMAP
24
24
00
38
10
10
20
20
20
40
40
40
E0
ENDCHAR
STARTCHAR Eth
ENCODING 208
SWIDTH 722 0
DWIDTH 10 0
BBX 9 10 0 0
BITMAP
3F00
1180
1080
1080
7880
2080
2100
4100
4600
F800
ENDCHAR
STARTCHAR Ntilde
ENCODING 209
SWIDTH 667 0
DWIDTH 11 0
BBX 11 13 0 0
BITMAP
0680
0B00
0000
30E0
1040
1040
2880
2880
2480
4500
4500
4300
E100
ENDCHAR
STARTCHAR Ograve
ENCODING 210
SWIDTH 722 0
DWIDTH 10 0
BBX 9 14 0 0
BITMAP
1000
1800
0400
0000
0E00
3100
6080
4080
C080
8180
8100
8300
4600
3800
ENDCHAR
STARTCHAR Oacute
ENCODING 211
SWIDTH 722 0
DWIDTH 10 0
BBX 9 14 0 0
BITMAP
0100
0300
0400
0000
0E00
3100
6080
4080
C080
8180
8100
8300
4600
3800
ENDCHAR
STARTCHAR Ocircumflex
ENCODING 212
SWIDTH 722 0
DWIDTH 10 0
BBX 9 14 0 0
BITMAP
0200
0600
0900
0000
0E00
3100
6080
4080
C080
8180
8100
8300
4600
3800
ENDCHAR
STARTCHAR Otilde
ENCODING 213
SWIDTH 722 0
DWIDTH 10 0
BBX 9 13 0 0
BITMAP
0D00
1600
0000
0E00
3100
6080
4080
C080
8180
8100
8300
4600
3800
ENDCHAR
STARTCHAR Odieresis
ENCODING 214
SWIDTH 722 0
DWIDTH 10 0
BBX 9 13 0 0
BITMAP
0900
0900
0000
0E00
3100
6080
4080
C080
8180
8100
8300
4600
3800
ENDCHAR
STARTCHAR multiply
ENCODING 215
SWIDTH 675 0
DWIDTH 10 0
BBX 7 7 1 0
BITMAP
82
44
28
10
28
44
82
ENDCHAR
STARTCHAR Oslash
ENCODING 216
SWIDTH 722 0
DWIDTH 10 0
BBX 11 12 -1 -1
BITMAP
0020
0740
1880
3140
2240
6440
44C0
4880
5180
2300
5C00
8000
ENDCHAR
STARTCHAR Ugrave
ENCODING 217
SWIDTH 722 0
DWIDTH 10 0
BBX 10 14 1 0
BITMAP
0800
0C00
0200
0000
79C0
2080
2100
4100
4100
4200
8200
8200
8400
7800
ENDCHAR
STARTCHAR Uacute
ENCODING 218
SWIDTH 722 0
DWIDTH 10 0
BBX 10 14 1 0
BITMAP
0100
0300
0400
0000
79C0
2080
2100
4100
4100
4200
8200
8200
8400
7800
ENDCHAR
STARTCHAR Ucircumflex
ENCODING 219
SWIDTH 722 0
DWIDTH 10 0
BBX 10 14 1 0
BITMAP
0200
0600
0900
0000
79C0
2080
2100
4100
4100
4200
8200
8200
8400
7800
ENDCHAR
STARTCHAR Udieresis
ENCODING 220
SWIDTH 722 0
DWIDTH 10 0
BBX 10 13 1 0
BITMAP
0900
0900
0000
79C0
2080
2100
4100
4100
4200
8200
8200
8400
7800
ENDCHAR
STARTCHAR Yacute
ENCODING 221
SWIDTH 556 0
DWIDTH 8 0
BBX 9 14 0 0
BITMAP
0200
0600
0800
0000
E380
4100
2200
1400
1800
1000
1000
2000
2000
7000
ENDCHAR
STARTCHAR Thorn
ENCODING 222
SWIDTH 611 0
DWIDTH 9 0
BBX 8 10 0 0
BITMAP
38
10
1E
21
21
22
7C
40
40
E0
ENDCHAR
STARTCHAR germandbls
ENCODING 223
SWIDTH 500 0
DWIDTH 7 0
BBX 9 13 -3 -3
BITMAP
0300
0480
0480
0900
0B00
0880
1080
1080
1100
1600
2000
A000
C000
ENDCHAR
STARTCHAR agrave
ENCODING 224
SWIDTH 500 0
DWIDTH 7 0
BBX 7 11 0 0
BITMAP
20
30
08
00
1A
6C
44
88
98
AA
4C
ENDCHAR
STARTCHAR aacute
ENCODING 225
SWIDTH 500 0
DWIDTH 7 0
BBX 7 11 0 0
BITMAP
02
06
08
00
1A
6C
44
88
98
AA
4C
ENDCHAR
STARTCHAR acircumflex
ENCODING 226
SWIDTH 500 0
DWIDTH 7 0
BBX 7 11 0 0
BITMAP
04
0C
12
00
1A
6C
44
88
98
AA
4C
ENDCHAR
STARTCHAR atilde
ENCODING 227
SWIDTH 500 0
DWIDTH 7 0
BBX 8 10 0 0
BITMAP
0D
16
00
1A
6C
44
88
98
AA
4C
ENDCHAR
STARTCHAR adieresis
ENCODING 228
SWIDTH 500 0
DWIDTH 7 0
BBX 7 10 0 0
BITMAP
14
14
00
1A
6C
44
88
98
AA
4C
ENDCHAR
STARTCHAR aring
ENCODING 229
SWIDTH 500 0
DWIDTH 7 0
BBX 7 11 0 0
BITMAP
18
24
18
00
1A
6C
44
88
98
AA
4C
ENDCHAR
STARTCHAR ae
ENCODING 230
SWIDTH 667 0
DWIDTH 10 0
BBX 10 7 0 0
BITMAP
1980
6E40
44C0
8F00
9800
AC80
4700
ENDCHAR
STARTCHAR ccedilla
ENCODING 231
SWIDTH 444 0
DWIDTH 6 0
BBX 6 10 0 -3
BITMAP
1C
64
40
80
80
C8
78
20
90
60
ENDCHAR
STARTCHAR egrave
ENCODING 232
SWIDTH 444 0
DWIDTH 7 0
BBX 6 11 0 0
BITMAP
20
30
08
00
18
64
4C
F0
80
C8
70
ENDCHAR
STARTCHAR eacute
ENCODING 233
SWIDTH 444 0
DWIDTH 7 0
BBX 7 11 0 0
BITMAP
02
06
08
00
18
64
4C
F0
80
C8
70
ENDCHAR
STARTCHAR ecircumflex
ENCODING 234
SWIDTH 444 0
DWIDTH 7 0
BBX 6 11 0 0
BITMAP
08
18
24
00
18
64
4C
F0
80
C8
70
ENDCHAR
STARTCHAR edieresis
ENCODING 235
SWIDTH 444 0
DWIDTH 7 0
BBX 6 10 0 0
BITMAP
28
28
00
18
64
4C
F0
80
C8
70
ENDCHAR
STARTCHAR igrave
ENCODING 236
SWIDTH 278 0
DWIDTH 4 0
BBX 3 11 0 0
BITMAP
80
C0
20
00
60
20
40
40
80
A0
C0
ENDCHAR
STARTCHAR iacute
ENCODING 237
SWIDTH 278 0
DWIDTH 4 0
BBX 5 11 0 0
BITMAP
08
18
20
00
60
20
40
40
80
A0
C0
ENDCHAR
STARTCHAR icircumflex
ENCODING 238
SWIDTH 278 0
DWIDTH 4 0
BBX 5 11 0 0
BITMAP
10
30
48
00
60
20
40
40
80
A0
C0
ENDCHAR
STARTCHAR idieresis
ENCODING 239
SWIDTH 278 0
DWIDTH 4 0
BBX 4 10 0 0
BITMAP
50
50
00
60
20
40
40
80
A0
C0
ENDCHAR
STARTCHAR eth
ENCODING 240
SWIDTH 500 0
DWIDTH 7 0
BBX 6 10 0 0
BITMAP
6C
30
58
18
6C
44
84
88
D8
60
ENDCHAR
STARTCHAR ntilde
ENCODING 241
SWIDTH 500 0
DWIDTH 7 0
BBX 7 10 0 0
BITMAP
1A
2C
00
6C
34
64
48
48
94
88
ENDCHAR
STARTCHAR ograve
ENCODING 242
SWIDTH 500 0
DWIDTH 7 0
BBX 6 11 0 0
BITMAP
40
60
10
00
18
6C
44
84
88
D8
60
ENDCHAR
STARTCHAR oacute
ENCODING 243
SWIDTH 500 0
DWIDTH 7 0
BBX 7 11 0 0
BITMAP
02
06
08
00
18
6C
44
84
88
D8
60
ENDCHAR
STARTCHAR ocircumflex
ENCODING 244
SWIDTH 500 0
DWIDTH 7 0
BBX 6 11 0 0
BITMAP
08
18
24
00
18
6C
44
84
88
D8
60
ENDCHAR
STARTCHAR otilde
ENCODING 245
SWIDTH 500 0
DWIDTH 7 0
BBX 7 10 0 0
BITMAP
1A
2C
00
18
6C
44
84
88
D8
60
ENDCHAR
STARTCHAR odieresis
ENCODING 246
SWIDTH 500 0
DWIDTH 7 0
BBX 6 10 0 0
BITMAP
14
14
00
18
6C
44
84
88
D8
60
ENDCHAR
STARTCHAR divide
ENCODING 247
SWIDTH 675 0
DWIDTH 10 0
BBX 7 7 1 0
BITMAP
10
10
00
FE
00
10
10
ENDCHAR
STARTCHAR oslash
ENCODING 248
SWIDTH 500 0
DWIDTH 7 0
BBX 6 9 0 -1
BITMAP
04
18
6C
44
84
88
D8
60
80
ENDCHAR
STARTCHAR ugrave
ENCODING 249
SWIDTH 500 0
DWIDTH 7 0
BBX 6 11 0 0
BITMAP
20
30
08
00
64
24
48
48
90
B4
D8
ENDCHAR
STARTCHAR uacute
ENCODING 250
SWIDTH 500 0
DWIDTH 7 0
BBX 7 11 0 0
BITMAP
02
06
08
00
64
24
48
48
90
B4
D8
ENDCHAR
STARTCHAR ucircumflex
ENCODING 251
SWIDTH 500 0
DWIDTH 7 0
BBX 7 11 0 0
BITMAP
04
0C
12
00
64
24
48
48
90
B4
D8
ENDCHAR
STARTCHAR udieresis
ENCODING 252
SWIDTH 500 0
DWIDTH 7 0
BBX 6 10 0 0
BITMAP
14
14
00
64
24
48
48
90
B4
D8
ENDCHAR
STARTCHAR yacute
ENCODING 253
SWIDTH 444 0
DWIDTH 7 0
BBX 7 14 -1 -3
BITMAP
02
06
08
00
66
22
22
24
24
28
10
10
A0
C0
ENDCHAR
STARTCHAR thorn
ENCODING 254
SWIDTH 500 0
DWIDTH 7 0
BBX 8 13 -2 -3
BITMAP
0C
04
08
0E
19
11
11
22
26
38
40
40
E0
ENDCHAR
STARTCHAR ydieresis
ENCODING 255
SWIDTH 444 0
DWIDTH 7 0
BBX 7 13 -1 -3
BITMAP
14
14
00
66
22
22
24
24
28
10
10
A0
C0
ENDCHAR
STARTCHAR Lslash
ENCODING -1
SWIDTH 556 0
DWIDTH 8 0
BBX 7 10 0 0
BITMAP
38
10
14
38
30
60
A0
40
42
FC
ENDCHAR
STARTCHAR OE
ENCODING -1
SWIDTH 944 0
DWIDTH 14 0
BBX 14 10 0 0
BITMAP
0EFC
3184
6100
4110
C1F0
8220
8200
8200
4608
3BF0
ENDCHAR
STARTCHAR Scaron
ENCODING -1
SWIDTH 500 0
DWIDTH 7 0
BBX 7 14 0 0
BITMAP
12
0C
08
00
1A
26
22
20
10
08
04
84
C4
B8
ENDCHAR
STARTCHAR Ydieresis
ENCODING -1
SWIDTH 556 0
DWIDTH 8 0
BBX 9 13 0 0
BITMAP
1200
1200
0000
E380
4100
2200
1400
1800
1000
1000
2000
2000
7000
ENDCHAR
STARTCHAR Zcaron
ENCODING -1
SWIDTH 556 0
DWIDTH 8 0
BBX 8 14 0 0
BITMAP
12
0C
08
00
7F
41
02
04
08
10
20
40
82
FE
ENDCHAR
STARTCHAR breve
ENCODING -1
SWIDTH 333 0
DWIDTH 5 0
BBX 4 2 1 8
BITMAP
90
E0
ENDCHAR
STARTCHAR bullet
ENCODING -1
SWIDTH 350 0
DWIDTH 5 0
BBX 4 4 0 2
BITMAP
60
F0
F0
60
ENDCHAR
STARTCHAR caron
ENCODING -1
SWIDTH 333 0
DWIDTH 5 0
BBX 4 3 1 8
BITMAP
90
60
40
ENDCHAR
STARTCHAR circumflex
ENCODING -1
SWIDTH 333 0
DWIDTH 5 0
BBX 4 3 1 8
BITMAP
20
60
90
ENDCHAR
STARTCHAR dagger
ENCODING -1
SWIDTH 500 0
DWIDTH 7 0
BBX 7 13 0 -2
BITMAP
04
04
08
7E
10
10
20
20
40
40
40
80
80
ENDCHAR
STARTCHAR daggerdbl
ENCODING -1
SWIDTH 500 0
DWIDTH 8 0
BBX 8 13 0 -2
BITMAP
02
02
04
3F
08
08
10
10
FC
20
20
40
40
ENDCHAR
STARTCHAR dotaccent
ENCODING -1
SWIDTH 333 0
DWIDTH 4 0
BBX 1 2 2 8
BITMAP
80
80
ENDCHAR
STARTCHAR dotlessi
ENCODING -1
SWIDTH 278 0
DWIDTH 4 0
BBX 3 7 0 0
BITMAP
60
20
40
40
80
A0
40
ENDCHAR
STARTCHAR ellipsis
ENCODING -1
SWIDTH 889 0
DWIDTH 13 0
BBX 11 2 0 0
BITMAP
8420
8420
ENDCHAR
STARTCHAR emdash
ENCODING -1
SWIDTH 889 0
DWIDTH 13 0
BBX 15 1 -1 3
BITMAP
FFFE
ENDCHAR
STARTCHAR endash
ENCODING -1
SWIDTH 500 0
DWIDTH 7 0
BBX 8 1 0 3
BITMAP
FF
ENDCHAR
STARTCHAR fi
ENCODING -1
SWIDTH 500 0
DWIDTH 8 0
BBX 9 13 -2 -3
BITMAP
0380
0480
0400
1F80
0880
0900
1100
1200
1280
2300
2000
A000
C000
ENDCHAR
STARTCHAR fl
ENCODING -1
SWIDTH 500 0
DWIDTH 8 0
BBX 10 13 -2 -3
BITMAP
03C0
0440
0480
1F80
0900
0900
1100
1200
1280
2100
2000
A000
C000
ENDCHAR
STARTCHAR florin
ENCODING -1
SWIDTH 500 0
DWIDTH 7 0
BBX 7 13 -1 -3
BITMAP
06
0A
08
08
3C
10
10
10
30
20
20
A0
C0
ENDCHAR
STARTCHAR fraction
ENCODING -1
SWIDTH 167 0
DWIDTH 3 0
BBX 7 10 -2 0
BITMAP
02
04
04
08
10
10
20
40
40
80
ENDCHAR
STARTCHAR grave
ENCODING -1
SWIDTH 333 0
DWIDTH 5 0
BBX 3 3 1 8
BITMAP
80
C0
20
ENDCHAR
STARTCHAR guilsinglleft
ENCODING -1
SWIDTH 333 0
DWIDTH 5 0
BBX 3 5 1 1
BITMAP
20
40
80
80
40
ENDCHAR
STARTCHAR guilsinglright
ENCODING -1
SWIDTH 333 0
DWIDTH 5 0
BBX 3 5 1 1
BITMAP
40
20
20
40
80
ENDCHAR
STARTCHAR hungarumlaut
ENCODING -1
SWIDTH 333 0
DWIDTH 5 0
BBX 5 3 1 8
BITMAP
28
50
A0
ENDCHAR
STARTCHAR lslash
ENCODING -1
SWIDTH 278 0
DWIDTH 4 0
BBX 4 10 0 0
BITMAP
30
10
20
30
60
C0
40
80
A0
40
ENDCHAR
STARTCHAR oe
ENCODING -1
SWIDTH 667 0
DWIDTH 10 0
BBX 10 7 0 0
BITMAP
1980
6E40
44C0
8700
8800
DC80
6700
ENDCHAR
STARTCHAR ogonek
ENCODING -1
SWIDTH 333 0
DWIDTH 4 0
BBX 4 3 -1 -3
BITMAP
40
90
60
ENDCHAR
STARTCHAR perthousand
ENCODING -1
SWIDTH 1000 0
DWIDTH 15 0
BBX 14 10 0 0
BITMAP
7100
9F00
9200
E400
0800
0800
139C
24A4
24A4
4738
ENDCHAR
STARTCHAR quotedblbase
ENCODING -1
SWIDTH 556 0
DWIDTH 8 0
BBX 5 3 1 -2
BITMAP
D8
48
90
ENDCHAR
STARTCHAR quotedblleft
ENCODING -1
SWIDTH 556 0
DWIDTH 8 0
BBX 5 3 2 7
BITMAP
48
90
D8
ENDCHAR
STARTCHAR quotedblright
ENCODING -1
SWIDTH 556 0
DWIDTH 8 0
BBX 5 3 2 7
BITMAP
D8
48
90
ENDCHAR
STARTCHAR quotesinglbase
ENCODING -1
SWIDTH 333 0
DWIDTH 5 0
BBX 2 3 0 -2
BITMAP
C0
40
80
ENDCHAR
STARTCHAR quotesingle
ENCODING -1
SWIDTH 214 0
DWIDTH 3 0
BBX 4 4 0 6
BITMAP
30
60
40
80
ENDCHAR
STARTCHAR ring
ENCODING -1
SWIDTH 333 0
DWIDTH 5 0
BBX 4 3 1 8
BITMAP
60
90
60
ENDCHAR
STARTCHAR scaron
ENCODING -1
SWIDTH 389 0
DWIDTH 6 0
BBX 6 11 0 0
BITMAP
24
18
10
00
38
48
40
20
10
90
E0
ENDCHAR
STARTCHAR tilde
ENCODING -1
SWIDTH 333 0
DWIDTH 5 0
BBX 5 2 1 8
BITMAP
68
B0
ENDCHAR
STARTCHAR trademark
ENCODING -1
SWIDTH 980 0
DWIDTH 15 0
BBX 13 6 1 4
BITMAP
FB18
A9B0
21B0
2150
2150
7358
ENDCHAR
STARTCHAR zcaron
ENCODING -1
SWIDTH 389 0
DWIDTH 6 0
BBX 6 11 0 0
BITMAP
24
18
10
00
7C
48
10
20
40
88
F8
ENDCHAR
ENDFONT
