STARTFONT 2.1
FONT -Adobe-Times-Medium-R-Normal--18-180-75-75-P-94-ISO8859-1
SIZE 18 75 75
FONTBOUNDINGBOX 20 21 -1 -4
COMMENT $XConsortium: timR18.bdf,v 1.15 95/01/26 18:07:27 gildea Exp $
COMMENT 
COMMENT +
COMMENT  Copyright 1984-1989, 1994 Adobe Systems Incorporated.
COMMENT  Copyright 1988, 1994 Digital Equipment Corporation.
COMMENT
COMMENT  Adobe is a trademark of Adobe Systems Incorporated which may be
COMMENT  registered in certain jurisdictions.
COMMENT  Permission to use these trademarks is hereby granted only in
COMMENT  association with the images described in this file.
COMMENT
COMMENT  Permission to use, copy, modify, distribute and sell this software
COMMENT  and its documentation for any purpose and without fee is hereby
COMMENT  granted, provided that the above copyright notices appear in all
COMMENT  copies and that both those copyright notices and this permission
COMMENT  notice appear in supporting documentation, and that the names of
COMMENT  Adobe Systems and Digital Equipment Corporation not be used in
COMMENT  advertising or publicity pertaining to distribution of the software
COMMENT  without specific, written prior permission.  Adobe Systems and
COMMENT  Digital Equipment Corporation make no representations about the
COMMENT  suitability of this software for any purpose.  It is provided "as
COMMENT  is" without express or implied warranty.
COMMENT -
STARTPROPERTIES 28
FOUNDRY "Adobe"
FAMILY_NAME "Times"
WEIGHT_NAME "Medium"
SLANT "R"
SETWIDTH_NAME "Normal"
ADD_STYLE_NAME ""
PIXEL_SIZE 18
POINT_SIZE 180
RESOLUTION_X 75
RESOLUTION_Y 75
SPACING "P"
AVERAGE_WIDTH 94
CHARSET_REGISTRY "ISO8859"
CHARSET_ENCODING "1"
CAP_HEIGHT 13
X_HEIGHT 9
FONT_ASCENT 15
FONT_DESCENT 4
FACE_NAME "Times Roman"
COPYRIGHT "Copyright (c) 1984, 1987 Adobe Systems Incorporated. All Rights Reserved. Copyright (c) 1988, 1991 Digital Equipment Corporation. All Rights Reserved."
NOTICE "Times is a trademark of Linotype-Hell AG and/or its subsidiaries."
_DEC_DEVICE_FONTNAMES "PS=Times-Roman"
_DEC_PRODUCTINFO "DECwindows Fonts V2.2-1, 22-Nov-1991"
DEFAULT_CHAR 32
RELATIVE_SETWIDTH 50
RELATIVE_WEIGHT 50
CHARSET_COLLECTIONS "ASCII ISO8859-1 ADOBE-STANDARD"
FULL_NAME "Times Roman"
ENDPROPERTIES
CHARS 229
STARTCHAR space
ENCODING 32
SWIDTH 250 0
DWIDTH 4 0
BBX 1 1 1 0
BITMAP
00
ENDCHAR
STARTCHAR exclam
ENCODING 33
SWIDTH 333 0
DWIDTH 4 0
BBX 2 13 1 0
BITMAP
C0
C0
C0
C0
C0
C0
40
40
40
00
00
C0
C0
ENDCHAR
STARTCHAR quotedbl
ENCODING 34
SWIDTH 408 0
DWIDTH 8 0
BBX 6 4 1 9
BITMAP
CC
CC
CC
88
ENDCHAR
STARTCHAR numbersign
ENCODING 35
SWIDTH 500 0
DWIDTH 10 0
BBX 11 13 -1 0
BITMAP
0D80
0D80
0D80
0D80
7FE0
1B00
1B00
1B00
FFC0
3600
3600
3600
3600
ENDCHAR
STARTCHAR dollar
ENCODING 36
SWIDTH 500 0
DWIDTH 9 0
BBX 7 16 1 -2
BITMAP
10
7C
D6
D2
D0
F0
78
3C
1C
16
16
96
D6
7C
10
10
ENDCHAR
STARTCHAR percent
ENCODING 37
SWIDTH 833 0
DWIDTH 15 0
BBX 13 13 1 0
BITMAP
3830
6FE0
C440
C480
CD80
FB00
7270
06D8
0D88
0988
1998
31F0
20E0
ENDCHAR
STARTCHAR ampersand
ENCODING 38
SWIDTH 778 0
DWIDTH 14 0
BBX 12 13 1 0
BITMAP
1C00
3200
3200
3200
3400
19E0
38C0
6D80
CF00
C700
C780
EDF0
78E0
ENDCHAR
STARTCHAR quoteright
ENCODING 39
SWIDTH 333 0
DWIDTH 5 0
BBX 3 4 1 9
BITMAP
C0
E0
20
40
ENDCHAR
STARTCHAR parenleft
ENCODING 40
SWIDTH 333 0
DWIDTH 7 0
BBX 5 17 1 -4
BITMAP
18
30
60
60
40
C0
C0
C0
C0
C0
C0
C0
40
60
60
30
18
ENDCHAR
STARTCHAR parenright
ENCODING 41
SWIDTH 333 0
DWIDTH 7 0
BBX 5 17 1 -4
BITMAP
C0
60
30
30
10
18
18
18
18
18
18
18
10
30
30
60
C0
ENDCHAR
STARTCHAR asterisk
ENCODING 42
SWIDTH 500 0
DWIDTH 9 0
BBX 7 8 1 6
BITMAP
10
10
D6
54
38
D6
92
10
ENDCHAR
STARTCHAR plus
ENCODING 43
SWIDTH 564 0
DWIDTH 10 0
BBX 9 9 1 0
BITMAP
0800
0800
0800
0800
FF80
0800
0800
0800
0800
ENDCHAR
STARTCHAR comma
ENCODING 44
SWIDTH 250 0
DWIDTH 4 0
BBX 3 5 0 -3
BITMAP
60
60
20
60
C0
ENDCHAR
STARTCHAR minus
ENCODING 45
SWIDTH 564 0
DWIDTH 10 0
BBX 8 1 1 4
BITMAP
FF
ENDCHAR
STARTCHAR period
ENCODING 46
SWIDTH 250 0
DWIDTH 4 0
BBX 2 2 1 0
BITMAP
C0
C0
ENDCHAR
STARTCHAR slash
ENCODING 47
SWIDTH 278 0
DWIDTH 5 0
BBX 5 15 0 -2
BITMAP
08
08
18
10
10
30
20
20
60
40
40
C0
80
80
80
ENDCHAR
STARTCHAR zero
ENCODING 48
SWIDTH 500 0
DWIDTH 9 0
BBX 8 13 0 0
BITMAP
3C
66
42
C3
C3
C3
C3
C3
C3
C3
42
66
3C
ENDCHAR
STARTCHAR one
ENCODING 49
SWIDTH 500 0
DWIDTH 9 0
BBX 6 13 2 0
BITMAP
30
70
F0
30
30
30
30
30
30
30
30
78
FC
ENDCHAR
STARTCHAR two
ENCODING 50
SWIDTH 500 0
DWIDTH 9 0
BBX 7 13 1 0
BITMAP
3C
7E
CE
86
06
06
0C
0C
18
30
62
FE
FE
ENDCHAR
STARTCHAR three
ENCODING 51
SWIDTH 500 0
DWIDTH 9 0
BBX 7 13 1 0
BITMAP
7C
CE
86
06
0C
38
3C
0E
06
06
06
CC
F8
ENDCHAR
STARTCHAR four
ENCODING 52
SWIDTH 500 0
DWIDTH 9 0
BBX 8 13 0 0
BITMAP
06
0E
0E
16
26
66
46
86
FF
FF
06
06
06
ENDCHAR
STARTCHAR five
ENCODING 53
SWIDTH 500 0
DWIDTH 9 0
BBX 7 13 1 0
BITMAP
7E
7C
C0
C0
F0
3C
0C
0E
06
06
0C
DC
F0
ENDCHAR
STARTCHAR six
ENCODING 54
SWIDTH 500 0
DWIDTH 9 0
BBX 8 13 0 0
BITMAP
07
1C
30
60
60
FC
C6
C3
C3
C3
E3
76
3C
ENDCHAR
STARTCHAR seven
ENCODING 55
SWIDTH 500 0
DWIDTH 9 0
BBX 7 13 1 0
BITMAP
FE
FE
84
0C
08
18
18
10
30
30
20
60
60
ENDCHAR
STARTCHAR eight
ENCODING 56
SWIDTH 500 0
DWIDTH 9 0
BBX 8 13 0 0
BITMAP
3C
66
62
62
74
3C
3C
6E
C7
C3
C3
66
3C
ENDCHAR
STARTCHAR nine
ENCODING 57
SWIDTH 500 0
DWIDTH 9 0
BBX 8 13 0 0
BITMAP
3C
6E
C6
C3
C3
C3
E3
7F
06
06
0C
38
E0
ENDCHAR
STARTCHAR colon
ENCODING 58
SWIDTH 278 0
DWIDTH 4 0
BBX 2 9 1 0
BITMAP
C0
C0
00
00
00
00
00
C0
C0
ENDCHAR
STARTCHAR semicolon
ENCODING 59
SWIDTH 278 0
DWIDTH 4 0
BBX 3 12 0 -3
BITMAP
60
60
00
00
00
00
00
60
60
20
60
C0
ENDCHAR
STARTCHAR less
ENCODING 60
SWIDTH 564 0
DWIDTH 11 0
BBX 9 9 1 0
BITMAP
0180
0700
1C00
7000
C000
7000
1C00
0700
0180
ENDCHAR
STARTCHAR equal
ENCODING 61
SWIDTH 564 0
DWIDTH 10 0
BBX 8 3 1 3
BITMAP
FF
00
FF
ENDCHAR
STARTCHAR greater
ENCODING 62
SWIDTH 564 0
DWIDTH 11 0
BBX 9 9 1 0
BITMAP
C000
7000
1C00
0700
0180
0700
1C00
7000
C000
ENDCHAR
STARTCHAR question
ENCODING 63
SWIDTH 444 0
DWIDTH 8 0
BBX 6 13 1 0
BITMAP
78
8C
C4
CC
0C
18
18
30
20
20
00
30
30
ENDCHAR
STARTCHAR at
ENCODING 64
SWIDTH 921 0
DWIDTH 17 0
BBX 14 16 1 -3
BITMAP
07E0
0E30
3818
3008
63EC
67E4
C664
CC64
CCCC
CCC8
CDD8
6770
6000
3000
1C30
07E0
ENDCHAR
STARTCHAR A
ENCODING 65
SWIDTH 722 0
DWIDTH 15 0
BBX 13 13 1 0
BITMAP
0200
0700
0700
0500
0D80
0980
19C0
10C0
1FC0
30E0
2060
6070
F0F8
ENDCHAR
STARTCHAR B
ENCODING 66
SWIDTH 667 0
DWIDTH 12 0
BBX 10 13 1 0
BITMAP
FF00
6380
6180
6180
6180
6300
7F80
61C0
60C0
60C0
60C0
6180
FF00
ENDCHAR
STARTCHAR C
ENCODING 67
SWIDTH 667 0
DWIDTH 12 0
BBX 11 13 1 0
BITMAP
0F20
30E0
6060
6020
C000
C000
C000
C000
C000
6000
6060
38C0
0F00
ENDCHAR
STARTCHAR D
ENCODING 68
SWIDTH 722 0
DWIDTH 13 0
BBX 11 13 1 0
BITMAP
FF00
6380
60C0
60C0
6060
6060
6060
6060
6060
60C0
60C0
6380
FF00
ENDCHAR
STARTCHAR E
ENCODING 69
SWIDTH 611 0
DWIDTH 11 0
BBX 9 13 1 0
BITMAP
FF80
6180
6080
6000
6000
6100
7F00
6100
6000
6000
6080
6180
FF80
ENDCHAR
STARTCHAR F
ENCODING 70
SWIDTH 556 0
DWIDTH 11 0
BBX 9 13 1 0
BITMAP
FF80
6180
6080
6000
6000
6100
7F00
6100
6000
6000
6000
6000
F000
ENDCHAR
STARTCHAR G
ENCODING 71
SWIDTH 722 0
DWIDTH 14 0
BBX 12 13 1 0
BITMAP
0F20
30E0
6060
6020
C000
C000
C0F0
C060
C060
6060
6060
39C0
0F00
ENDCHAR
STARTCHAR H
ENCODING 72
SWIDTH 722 0
DWIDTH 13 0
BBX 11 13 1 0
BITMAP
F1E0
60C0
60C0
60C0
60C0
60C0
7FC0
60C0
60C0
60C0
60C0
60C0
F1E0
ENDCHAR
STARTCHAR I
ENCODING 73
SWIDTH 333 0
DWIDTH 6 0
BBX 4 13 1 0
BITMAP
F0
60
60
60
60
60
60
60
60
60
60
60
F0
ENDCHAR
STARTCHAR J
ENCODING 74
SWIDTH 389 0
DWIDTH 7 0
BBX 6 13 0 0
BITMAP
3C
18
18
18
18
18
18
18
18
18
18
D8
F0
ENDCHAR
STARTCHAR K
ENCODING 75
SWIDTH 722 0
DWIDTH 13 0
BBX 11 13 1 0
BITMAP
F3C0
6180
6300
6600
6C00
7800
7800
6C00
6600
6300
6380
61C0
F0E0
ENDCHAR
STARTCHAR L
ENCODING 76
SWIDTH 611 0
DWIDTH 11 0
BBX 10 13 1 0
BITMAP
F000
6000
6000
6000
6000
6000
6000
6000
6000
6000
6040
60C0
FFC0
ENDCHAR
STARTCHAR M
ENCODING 77
SWIDTH 889 0
DWIDTH 16 0
BBX 14 13 1 0
BITMAP
E01C
7038
7038
7878
5858
58D8
5CD8
4C98
4D98
4718
4718
4218
E23C
ENDCHAR
STARTCHAR N
ENCODING 78
SWIDTH 722 0
DWIDTH 13 0
BBX 11 13 1 0
BITMAP
E0E0
6040
7040
7840
5840
4C40
4E40
4740
4340
41C0
41C0
40C0
E040
ENDCHAR
STARTCHAR O
ENCODING 79
SWIDTH 722 0
DWIDTH 14 0
BBX 12 13 1 0
BITMAP
0F00
30C0
6060
6060
C030
C030
C030
C030
C030
6060
6060
30C0
0F00
ENDCHAR
STARTCHAR P
ENCODING 80
SWIDTH 556 0
DWIDTH 10 0
BBX 9 13 1 0
BITMAP
FF00
6380
6180
6180
6180
6300
7E00
6000
6000
6000
6000
6000
F000
ENDCHAR
STARTCHAR Q
ENCODING 81
SWIDTH 722 0
DWIDTH 14 0
BBX 12 17 1 -4
BITMAP
0F00
30C0
6060
6060
C030
C030
C030
C030
C030
6060
6060
30C0
0F00
0600
0300
01C0
00F0
ENDCHAR
STARTCHAR R
ENCODING 82
SWIDTH 667 0
DWIDTH 12 0
BBX 11 13 1 0
BITMAP
FF00
6380
6180
6180
6180
6300
7E00
6600
6300
6180
6180
60C0
F0E0
ENDCHAR
STARTCHAR S
ENCODING 83
SWIDTH 556 0
DWIDTH 10 0
BBX 8 13 1 0
BITMAP
3A
66
C2
C0
E0
78
3C
0E
07
03
83
C6
BC
ENDCHAR
STARTCHAR T
ENCODING 84
SWIDTH 611 0
DWIDTH 12 0
BBX 10 13 1 0
BITMAP
FFC0
CCC0
8C40
0C00
0C00
0C00
0C00
0C00
0C00
0C00
0C00
0C00
1E00
ENDCHAR
STARTCHAR U
ENCODING 85
SWIDTH 722 0
DWIDTH 13 0
BBX 11 13 1 0
BITMAP
F0E0
6040
6040
6040
6040
6040
6040
6040
6040
6040
70C0
3980
1F00
ENDCHAR
STARTCHAR V
ENCODING 86
SWIDTH 722 0
DWIDTH 13 0
BBX 13 13 0 0
BITMAP
F878
7030
3020
3820
1860
1840
1C40
0CC0
0E80
0680
0780
0300
0300
ENDCHAR
STARTCHAR W
ENCODING 87
SWIDTH 944 0
DWIDTH 18 0
BBX 18 13 0 0
BITMAP
F9E3C0
30C180
30C100
18C100
186300
186200
1CE200
0CA600
0CB400
0D3400
073C00
061800
061800
ENDCHAR
STARTCHAR X
ENCODING 88
SWIDTH 722 0
DWIDTH 12 0
BBX 12 13 0 0
BITMAP
F070
7060
38C0
1980
0D00
0E00
0600
0F00
1B00
1180
31C0
60E0
F0F0
ENDCHAR
STARTCHAR Y
ENCODING 89
SWIDTH 722 0
DWIDTH 12 0
BBX 12 13 0 0
BITMAP
F0F0
7060
30C0
1880
1900
0F00
0600
0600
0600
0600
0600
0600
0F00
ENDCHAR
STARTCHAR Z
ENCODING 90
SWIDTH 611 0
DWIDTH 12 0
BBX 10 13 1 0
BITMAP
7FC0
61C0
4180
0380
0700
0600
0E00
1C00
3800
3000
7040
E0C0
FFC0
ENDCHAR
STARTCHAR bracketleft
ENCODING 91
SWIDTH 333 0
DWIDTH 6 0
BBX 4 16 2 -3
BITMAP
F0
C0
C0
C0
C0
C0
C0
C0
C0
C0
C0
C0
C0
C0
C0
F0
ENDCHAR
STARTCHAR backslash
ENCODING 92
SWIDTH 278 0
DWIDTH 5 0
BBX 5 13 0 0
BITMAP
80
80
C0
40
60
60
20
30
30
10
18
08
08
ENDCHAR
STARTCHAR bracketright
ENCODING 93
SWIDTH 333 0
DWIDTH 6 0
BBX 4 16 0 -3
BITMAP
F0
30
30
30
30
30
30
30
30
30
30
30
30
30
30
F0
ENDCHAR
STARTCHAR asciicircum
ENCODING 94
SWIDTH 469 0
DWIDTH 9 0
BBX 7 7 1 6
BITMAP
10
38
28
6C
44
C6
82
ENDCHAR
STARTCHAR underscore
ENCODING 95
SWIDTH 500 0
DWIDTH 9 0
BBX 9 1 0 -4
BITMAP
FF80
ENDCHAR
STARTCHAR quoteleft
ENCODING 96
SWIDTH 333 0
DWIDTH 5 0
BBX 3 4 1 9
BITMAP
40
80
E0
60
ENDCHAR
STARTCHAR a
ENCODING 97
SWIDTH 444 0
DWIDTH 8 0
BBX 7 9 0 0
BITMAP
78
CC
CC
1C
6C
CC
CC
FC
66
ENDCHAR
STARTCHAR b
ENCODING 98
SWIDTH 500 0
DWIDTH 9 0
BBX 8 13 0 0
BITMAP
E0
60
60
60
6E
77
63
63
63
63
63
76
3C
ENDCHAR
STARTCHAR c
ENCODING 99
SWIDTH 444 0
DWIDTH 8 0
BBX 7 9 0 0
BITMAP
3C
66
C6
C0
C0
C0
C0
62
3C
ENDCHAR
STARTCHAR d
ENCODING 100
SWIDTH 500 0
DWIDTH 9 0
BBX 8 13 0 0
BITMAP
0E
06
06
06
3E
66
C6
C6
C6
C6
C6
66
3F
ENDCHAR
STARTCHAR e
ENCODING 101
SWIDTH 444 0
DWIDTH 8 0
BBX 8 9 0 0
BITMAP
3C
66
C3
FF
C0
C0
E1
76
3C
ENDCHAR
STARTCHAR f
ENCODING 102
SWIDTH 333 0
DWIDTH 6 0
BBX 6 13 0 0
BITMAP
1C
34
20
60
F8
60
60
60
60
60
60
60
F0
ENDCHAR
STARTCHAR g
ENCODING 103
SWIDTH 500 0
DWIDTH 8 0
BBX 8 13 0 -4
BITMAP
3E
CC
C4
C4
CC
78
40
7C
7F
83
C1
E2
7C
ENDCHAR
STARTCHAR h
ENCODING 104
SWIDTH 500 0
DWIDTH 10 0
BBX 9 13 0 0
BITMAP
E000
6000
6000
6000
6600
6F00
7300
6300
6300
6300
6300
6300
F380
ENDCHAR
STARTCHAR i
ENCODING 105
SWIDTH 278 0
DWIDTH 5 0
BBX 4 13 0 0
BITMAP
60
60
00
00
E0
60
60
60
60
60
60
60
F0
ENDCHAR
STARTCHAR j
ENCODING 106
SWIDTH 278 0
DWIDTH 5 0
BBX 4 17 -1 -4
BITMAP
30
30
00
00
70
30
30
30
30
30
30
30
30
30
30
E0
C0
ENDCHAR
STARTCHAR k
ENCODING 107
SWIDTH 500 0
DWIDTH 9 0
BBX 9 13 0 0
BITMAP
E000
6000
6000
6000
6700
6200
6400
6800
7800
6C00
6600
6300
E380
ENDCHAR
STARTCHAR l
ENCODING 108
SWIDTH 278 0
DWIDTH 5 0
BBX 4 13 0 0
BITMAP
E0
60
60
60
60
60
60
60
60
60
60
60
F0
ENDCHAR
STARTCHAR m
ENCODING 109
SWIDTH 778 0
DWIDTH 15 0
BBX 14 9 0 0
BITMAP
E630
6F78
7398
6318
6318
6318
6318
6318
F7BC
ENDCHAR
STARTCHAR n
ENCODING 110
SWIDTH 500 0
DWIDTH 10 0
BBX 9 9 0 0
BITMAP
E600
6F00
7300
6300
6300
6300
6300
6300
F380
ENDCHAR
STARTCHAR o
ENCODING 111
SWIDTH 500 0
DWIDTH 9 0
BBX 8 9 0 0
BITMAP
3C
66
C3
C3
C3
C3
C3
66
3C
ENDCHAR
STARTCHAR p
ENCODING 112
SWIDTH 500 0
DWIDTH 9 0
BBX 8 13 0 -4
BITMAP
EE
77
63
63
63
63
63
76
6C
60
60
60
F0
ENDCHAR
STARTCHAR q
ENCODING 113
SWIDTH 500 0
DWIDTH 9 0
BBX 8 13 0 -4
BITMAP
3E
66
C6
C6
C6
C6
C6
66
3E
06
06
06
0F
ENDCHAR
STARTCHAR r
ENCODING 114
SWIDTH 333 0
DWIDTH 7 0
BBX 6 9 0 0
BITMAP
EC
6C
70
60
60
60
60
60
F0
ENDCHAR
STARTCHAR s
ENCODING 115
SWIDTH 389 0
DWIDTH 7 0
BBX 5 9 0 0
BITMAP
68
D8
C8
E0
70
38
98
D8
B0
ENDCHAR
STARTCHAR t
ENCODING 116
SWIDTH 278 0
DWIDTH 6 0
BBX 6 11 0 0
BITMAP
20
60
F8
60
60
60
60
60
60
74
38
ENDCHAR
STARTCHAR u
ENCODING 117
SWIDTH 500 0
DWIDTH 9 0
BBX 9 9 -1 0
BITMAP
E700
6300
6300
6300
6300
6300
6300
7700
3B80
ENDCHAR
STARTCHAR v
ENCODING 118
SWIDTH 500 0
DWIDTH 9 0
BBX 9 9 -1 0
BITMAP
F380
6300
6200
3200
3600
1400
1C00
0800
0800
ENDCHAR
STARTCHAR w
ENCODING 119
SWIDTH 722 0
DWIDTH 12 0
BBX 13 9 -1 0
BITMAP
E738
6630
6260
3660
3760
1D40
1DC0
0880
0880
ENDCHAR
STARTCHAR x
ENCODING 120
SWIDTH 500 0
DWIDTH 9 0
BBX 9 9 0 0
BITMAP
E380
6300
3600
1C00
0C00
1C00
3600
6300
E380
ENDCHAR
STARTCHAR y
ENCODING 121
SWIDTH 500 0
DWIDTH 8 0
BBX 9 13 -1 -4
BITMAP
F380
6100
7300
3200
3600
1C00
1C00
0C00
1800
1800
1000
F000
E000
ENDCHAR
STARTCHAR z
ENCODING 122
SWIDTH 444 0
DWIDTH 8 0
BBX 7 9 0 0
BITMAP
FE
CE
8C
18
30
30
62
E6
FE
ENDCHAR
STARTCHAR braceleft
ENCODING 123
SWIDTH 480 0
DWIDTH 9 0
BBX 7 17 1 -4
BITMAP
0E
18
30
30
30
30
30
60
C0
60
30
30
30
30
30
18
0E
ENDCHAR
STARTCHAR bar
ENCODING 124
SWIDTH 200 0
DWIDTH 3 0
BBX 1 13 1 0
BITMAP
80
80
80
80
80
80
80
80
80
80
80
80
80
ENDCHAR
STARTCHAR braceright
ENCODING 125
SWIDTH 480 0
DWIDTH 9 0
BBX 7 17 1 -4
BITMAP
E0
30
18
18
18
18
18
0C
06
0C
18
18
18
18
18
30
E0
ENDCHAR
STARTCHAR asciitilde
ENCODING 126
SWIDTH 541 0
DWIDTH 11 0
BBX 9 2 1 4
BITMAP
7980
CF00
ENDCHAR
STARTCHAR space
ENCODING 160
SWIDTH 250 0
DWIDTH 4 0
BBX 1 1 1 0
BITMAP
00
ENDCHAR
STARTCHAR exclamdown
ENCODING 161
SWIDTH 333 0
DWIDTH 4 0
BBX 2 13 1 -4
BITMAP
C0
C0
00
00
80
80
80
C0
C0
C0
C0
C0
C0
ENDCHAR
STARTCHAR cent
ENCODING 162
SWIDTH 500 0
DWIDTH 9 0
BBX 8 13 1 -2
BITMAP
06
04
3E
6B
CB
C8
D8
D0
D0
72
7C
40
C0
ENDCHAR
STARTCHAR sterling
ENCODING 163
SWIDTH 500 0
DWIDTH 11 0
BBX 10 13 0 0
BITMAP
0F00
1980
1980
1800
1800
1800
7E00
1800
1800
1000
7840
BFC0
E780
ENDCHAR
STARTCHAR currency
ENCODING 164
SWIDTH 500 0
DWIDTH 11 0
BBX 9 7 1 3
BITMAP
DD80
F780
6300
4100
6300
F780
DD80
ENDCHAR
STARTCHAR yen
ENCODING 165
SWIDTH 500 0
DWIDTH 9 0
BBX 8 13 0 0
BITMAP
F7
62
62
76
34
34
7E
18
7E
18
18
18
7E
ENDCHAR
STARTCHAR brokenbar
ENCODING 166
SWIDTH 200 0
DWIDTH 3 0
BBX 1 13 1 0
BITMAP
80
80
80
80
80
00
00
00
80
80
80
80
80
ENDCHAR
STARTCHAR section
ENCODING 167
SWIDTH 500 0
DWIDTH 10 0
BBX 8 16 1 -3
BITMAP
3C
66
66
70
38
7C
8E
C7
E3
71
3E
1C
0E
66
66
3C
ENDCHAR
STARTCHAR dieresis
ENCODING 168
SWIDTH 333 0
DWIDTH 5 0
BBX 5 2 0 10
BITMAP
D8
D8
ENDCHAR
STARTCHAR copyright
ENCODING 169
SWIDTH 760 0
DWIDTH 15 0
BBX 13 13 1 0
BITMAP
0F80
3060
4010
4790
8888
9008
9008
9008
8888
4710
4010
3060
0F80
ENDCHAR
STARTCHAR ordfeminine
ENCODING 170
SWIDTH 276 0
DWIDTH 5 0
BBX 5 8 0 5
BITMAP
60
90
10
70
90
E8
00
F8
ENDCHAR
STARTCHAR guillemotleft
ENCODING 171
SWIDTH 500 0
DWIDTH 10 0
BBX 8 7 1 1
BITMAP
11
33
66
CC
66
33
11
ENDCHAR
STARTCHAR logicalnot
ENCODING 172
SWIDTH 564 0
DWIDTH 11 0
BBX 9 5 1 1
BITMAP
FF80
0080
0080
0080
0080
ENDCHAR
STARTCHAR hyphen
ENCODING 173
SWIDTH 333 0
DWIDTH 6 0
BBX 5 2 0 4
BITMAP
F8
F8
ENDCHAR
STARTCHAR registered
ENCODING 174
SWIDTH 760 0
DWIDTH 15 0
BBX 13 13 1 0
BITMAP
0F80
3060
4010
5F10
8888
8888
8F08
8908
8888
5CD0
4010
3060
0F80
ENDCHAR
STARTCHAR macron
ENCODING 175
SWIDTH 333 0
DWIDTH 5 0
BBX 5 1 0 11
BITMAP
F8
ENDCHAR
STARTCHAR degree
ENCODING 176
SWIDTH 400 0
DWIDTH 7 0
BBX 5 5 1 8
BITMAP
70
88
88
88
70
ENDCHAR
STARTCHAR plusminus
ENCODING 177
SWIDTH 564 0
DWIDTH 10 0
BBX 9 10 1 0
BITMAP
0800
0800
0800
0800
FF80
0800
0800
0800
0000
FF80
ENDCHAR
STARTCHAR twosuperior
ENCODING 178
SWIDTH 300 0
DWIDTH 5 0
BBX 5 8 0 5
BITMAP
70
98
18
10
20
20
40
F8
ENDCHAR
STARTCHAR threesuperior
ENCODING 179
SWIDTH 300 0
DWIDTH 5 0
BBX 5 8 0 5
BITMAP
70
88
18
70
18
08
88
70
ENDCHAR
STARTCHAR acute
ENCODING 180
SWIDTH 333 0
DWIDTH 4 0
BBX 4 3 0 10
BITMAP
30
60
80
ENDCHAR
STARTCHAR mu
ENCODING 181
SWIDTH 500 0
DWIDTH 9 0
BBX 9 13 0 -4
BITMAP
E700
6300
6300
6300
6300
6300
6300
7700
7B80
4000
4000
6000
6000
ENDCHAR
STARTCHAR paragraph
ENCODING 182
SWIDTH 453 0
DWIDTH 8 0
BBX 7 17 1 -4
BITMAP
3E
74
F4
F4
F4
F4
F4
74
14
14
14
14
14
14
14
14
14
ENDCHAR
STARTCHAR periodcentered
ENCODING 183
SWIDTH 250 0
DWIDTH 4 0
BBX 2 2 1 4
BITMAP
C0
C0
ENDCHAR
STARTCHAR cedilla
ENCODING 184
SWIDTH 333 0
DWIDTH 6 0
BBX 4 5 1 -4
BITMAP
20
20
10
B0
60
ENDCHAR
STARTCHAR onesuperior
ENCODING 185
SWIDTH 300 0
DWIDTH 5 0
BBX 3 8 1 5
BITMAP
40
C0
40
40
40
40
40
E0
ENDCHAR
STARTCHAR ordmasculine
ENCODING 186
SWIDTH 310 0
DWIDTH 6 0
BBX 5 8 0 5
BITMAP
70
D8
88
88
D8
70
00
F8
ENDCHAR
STARTCHAR guillemotright
ENCODING 187
SWIDTH 500 0
DWIDTH 10 0
BBX 8 7 1 1
BITMAP
88
CC
66
33
66
CC
88
ENDCHAR
STARTCHAR onequarter
ENCODING 188
SWIDTH 750 0
DWIDTH 13 0
BBX 11 13 1 0
BITMAP
4080
C180
4100
4300
4600
4440
4CC0
E940
1B40
3240
27E0
6040
4040
ENDCHAR
STARTCHAR onehalf
ENCODING 189
SWIDTH 750 0
DWIDTH 13 0
BBX 11 13 1 0
BITMAP
4080
C180
4100
4300
4600
45C0
4E60
E860
1840
3080
2080
6100
43E0
ENDCHAR
STARTCHAR threequarters
ENCODING 190
SWIDTH 750 0
DWIDTH 13 0
BBX 13 13 -1 0
BITMAP
7020
8860
1840
70C0
1980
0910
8B30
7250
06D0
0C90
09F8
1810
1010
ENDCHAR
STARTCHAR questiondown
ENCODING 191
SWIDTH 444 0
DWIDTH 8 0
BBX 6 13 1 -4
BITMAP
30
30
00
10
10
30
60
60
C0
CC
8C
C4
78
ENDCHAR
STARTCHAR Agrave
ENCODING 192
SWIDTH 722 0
DWIDTH 15 0
BBX 13 17 1 0
BITMAP
0C00
0600
0100
0000
0200
0700
0700
0500
0D80
0980
19C0
10C0
1FC0
30E0
2060
6070
F0F8
ENDCHAR
STARTCHAR Aacute
ENCODING 193
SWIDTH 722 0
DWIDTH 15 0
BBX 13 17 1 0
BITMAP
00C0
0180
0200
0000
0200
0700
0700
0500
0D80
0980
19C0
10C0
1FC0
30E0
2060
6070
F0F8
ENDCHAR
STARTCHAR Acircumflex
ENCODING 194
SWIDTH 722 0
DWIDTH 15 0
BBX 13 17 1 0
BITMAP
0200
0700
0880
0000
0200
0700
0700
0500
0D80
0980
19C0
10C0
1FC0
30E0
2060
6070
F0F8
ENDCHAR
STARTCHAR Atilde
ENCODING 195
SWIDTH 722 0
DWIDTH 15 0
BBX 13 16 1 0
BITMAP
0740
0B80
0000
0200
0700
0700
0500
0D80
0980
19C0
10C0
1FC0
30E0
2060
6070
F0F8
ENDCHAR
STARTCHAR Adieresis
ENCODING 196
SWIDTH 722 0
DWIDTH 15 0
BBX 13 16 1 0
BITMAP
0D80
0D80
0000
0200
0700
0700
0500
0D80
0980
19C0
10C0
1FC0
30E0
2060
6070
F0F8
ENDCHAR
STARTCHAR Aring
ENCODING 197
SWIDTH 722 0
DWIDTH 15 0
BBX 13 17 1 0
BITMAP
0300
0480
0480
0300
0200
0700
0700
0500
0D80
0980
19C0
10C0
1FC0
30E0
2060
6070
F0F8
ENDCHAR
STARTCHAR AE
ENCODING 198
SWIDTH 889 0
DWIDTH 17 0
BBX 15 13 1 0
BITMAP
0FFC
078C
0584
0580
0D80
0988
19F8
1F88
1180
3180
2182
6186
F7FE
ENDCHAR
STARTCHAR Ccedilla
ENCODING 199
SWIDTH 667 0
DWIDTH 12 0
BBX 11 17 1 -4
BITMAP
0F20
30E0
6060
6020
C000
C000
C000
C000
C000
6000
6060
38C0
0F00
0400
0200
1600
0C00
ENDCHAR
STARTCHAR Egrave
ENCODING 200
SWIDTH 611 0
DWIDTH 11 0
BBX 9 17 1 0
BITMAP
3000
1800
0400
0000
FF80
6180
6080
6000
6000
6100
7F00
6100
6000
6000
6080
6180
FF80
ENDCHAR
STARTCHAR Eacute
ENCODING 201
SWIDTH 611 0
DWIDTH 11 0
BBX 9 17 1 0
BITMAP
0600
0C00
1000
0000
FF80
6180
6080
6000
6000
6100
7F00
6100
6000
6000
6080
6180
FF80
ENDCHAR
STARTCHAR Ecircumflex
ENCODING 202
SWIDTH 611 0
DWIDTH 11 0
BBX 9 17 1 0
BITMAP
0800
1C00
2200
0000
FF80
6180
6080
6000
6000
6100
7F00
6100
6000
6000
6080
6180
FF80
ENDCHAR
STARTCHAR Edieresis
ENCODING 203
SWIDTH 611 0
DWIDTH 11 0
BBX 9 16 1 0
BITMAP
3300
3300
0000
FF80
6180
6080
6000
6000
6100
7F00
6100
6000
6000
6080
6180
FF80
ENDCHAR
STARTCHAR Igrave
ENCODING 204
SWIDTH 333 0
DWIDTH 6 0
BBX 4 17 1 0
BITMAP
C0
60
10
00
F0
60
60
60
60
60
60
60
60
60
60
60
F0
ENDCHAR
STARTCHAR Iacute
ENCODING 205
SWIDTH 333 0
DWIDTH 6 0
BBX 4 17 1 0
BITMAP
30
60
80
00
F0
60
60
60
60
60
60
60
60
60
60
60
F0
ENDCHAR
STARTCHAR Icircumflex
ENCODING 206
SWIDTH 333 0
DWIDTH 6 0
BBX 5 17 1 0
BITMAP
20
70
88
00
F0
60
60
60
60
60
60
60
60
60
60
60
F0
ENDCHAR
STARTCHAR Idieresis
ENCODING 207
SWIDTH 333 0
DWIDTH 6 0
BBX 6 16 0 0
BITMAP
CC
CC
00
78
30
30
30
30
30
30
30
30
30
30
30
78
ENDCHAR
STARTCHAR Eth
ENCODING 208
SWIDTH 722 0
DWIDTH 13 0
BBX 12 13 0 0
BITMAP
7F80
31C0
3060
3060
3030
3030
FC30
3030
3030
3060
3060
31C0
7F80
ENDCHAR
STARTCHAR Ntilde
ENCODING 209
SWIDTH 722 0
DWIDTH 13 0
BBX 11 16 1 0
BITMAP
0E80
1700
0000
E0E0
6040
7040
7840
5840
4C40
4E40
4740
4340
41C0
41C0
40C0
E040
ENDCHAR
STARTCHAR Ograve
ENCODING 210
SWIDTH 722 0
DWIDTH 14 0
BBX 12 17 1 0
BITMAP
1800
0C00
0200
0000
0F00
30C0
6060
6060
C030
C030
C030
C030
C030
6060
6060
30C0
0F00
ENDCHAR
STARTCHAR Oacute
ENCODING 211
SWIDTH 722 0
DWIDTH 14 0
BBX 12 17 1 0
BITMAP
00C0
0180
0200
0000
0F00
30C0
6060
6060
C030
C030
C030
C030
C030
6060
6060
30C0
0F00
ENDCHAR
STARTCHAR Ocircumflex
ENCODING 212
SWIDTH 722 0
DWIDTH 14 0
BBX 12 17 1 0
BITMAP
0200
0700
0880
0000
0F00
30C0
6060
6060
C030
C030
C030
C030
C030
6060
6060
30C0
0F00
ENDCHAR
STARTCHAR Otilde
ENCODING 213
SWIDTH 722 0
DWIDTH 14 0
BBX 12 16 1 0
BITMAP
0E80
1700
0000
0F00
30C0
6060
6060
C030
C030
C030
C030
C030
6060
6060
30C0
0F00
ENDCHAR
STARTCHAR Odieresis
ENCODING 214
SWIDTH 722 0
DWIDTH 14 0
BBX 12 16 1 0
BITMAP
1980
1980
0000
0F00
30C0
6060
6060
C030
C030
C030
C030
C030
6060
6060
30C0
0F00
ENDCHAR
STARTCHAR multiply
ENCODING 215
SWIDTH 564 0
DWIDTH 10 0
BBX 8 7 1 1
BITMAP
C3
66
3C
18
3C
66
C3
ENDCHAR
STARTCHAR Oslash
ENCODING 216
SWIDTH 722 0
DWIDTH 14 0
BBX 12 15 1 -1
BITMAP
0030
0F60
30C0
60E0
61A0
C330
C330
C630
CC30
CC30
5860
7060
30C0
6F00
C000
ENDCHAR
STARTCHAR Ugrave
ENCODING 217
SWIDTH 722 0
DWIDTH 13 0
BBX 11 17 1 0
BITMAP
1800
0C00
0200
0000
F0E0
6040
6040
6040
6040
6040
6040
6040
6040
6040
70C0
3980
1F00
ENDCHAR
STARTCHAR Uacute
ENCODING 218
SWIDTH 722 0
DWIDTH 13 0
BBX 11 17 1 0
BITMAP
0180
0300
0400
0000
F0E0
6040
6040
6040
6040
6040
6040
6040
6040
6040
70C0
3980
1F00
ENDCHAR
STARTCHAR Ucircumflex
ENCODING 219
SWIDTH 722 0
DWIDTH 13 0
BBX 11 17 1 0
BITMAP
0400
0E00
1100
0000
F0E0
6040
6040
6040
6040
6040
6040
6040
6040
6040
70C0
3980
1F00
ENDCHAR
STARTCHAR Udieresis
ENCODING 220
SWIDTH 722 0
DWIDTH 13 0
BBX 11 16 1 0
BITMAP
1980
1980
0000
F0E0
6040
6040
6040
6040
6040
6040
6040
6040
6040
70C0
3980
1F00
ENDCHAR
STARTCHAR Yacute
ENCODING 221
SWIDTH 722 0
DWIDTH 12 0
BBX 12 17 0 0
BITMAP
0180
0300
0400
0000
F0F0
7060
30C0
1880
1900
0F00
0600
0600
0600
0600
0600
0600
0F00
ENDCHAR
STARTCHAR Thorn
ENCODING 222
SWIDTH 556 0
DWIDTH 10 0
BBX 9 13 1 0
BITMAP
F000
6000
6000
7F00
6380
6180
6180
6180
6300
7E00
6000
6000
F000
ENDCHAR
STARTCHAR germandbls
ENCODING 223
SWIDTH 500 0
DWIDTH 9 0
BBX 8 13 0 0
BITMAP
1C
36
23
63
63
66
7C
66
63
63
6B
6B
EE
ENDCHAR
STARTCHAR agrave
ENCODING 224
SWIDTH 444 0
DWIDTH 9 0
BBX 7 13 1 0
BITMAP
C0
60
10
00
78
C8
CC
1C
6C
CC
CC
FC
66
ENDCHAR
STARTCHAR aacute
ENCODING 225
SWIDTH 444 0
DWIDTH 9 0
BBX 7 13 1 0
BITMAP
0C
18
20
00
78
C8
CC
1C
6C
CC
CC
FC
66
ENDCHAR
STARTCHAR acircumflex
ENCODING 226
SWIDTH 444 0
DWIDTH 9 0
BBX 7 13 1 0
BITMAP
10
38
44
00
78
C8
CC
1C
6C
CC
CC
FC
66
ENDCHAR
STARTCHAR atilde
ENCODING 227
SWIDTH 444 0
DWIDTH 9 0
BBX 7 12 1 0
BITMAP
34
58
00
78
C8
CC
1C
6C
CC
CC
FC
66
ENDCHAR
STARTCHAR adieresis
ENCODING 228
SWIDTH 444 0
DWIDTH 9 0
BBX 7 12 1 0
BITMAP
6C
6C
00
78
C8
CC
1C
6C
CC
CC
FC
66
ENDCHAR
STARTCHAR aring
ENCODING 229
SWIDTH 444 0
DWIDTH 9 0
BBX 7 13 1 0
BITMAP
30
48
48
30
78
C8
CC
1C
6C
CC
CC
FC
66
ENDCHAR
STARTCHAR ae
ENCODING 230
SWIDTH 667 0
DWIDTH 12 0
BBX 11 9 0 0
BITMAP
7BC0
CE60
CC20
1FE0
6C00
CC00
CC00
FE60
63C0
ENDCHAR
STARTCHAR ccedilla
ENCODING 231
SWIDTH 444 0
DWIDTH 8 0
BBX 7 13 0 -4
BITMAP
3C
66
C0
C0
C0
C0
C0
66
3C
10
08
58
30
ENDCHAR
STARTCHAR egrave
ENCODING 232
SWIDTH 444 0
DWIDTH 8 0
BBX 7 13 0 0
BITMAP
60
30
08
00
3C
66
C2
FE
C0
C0
C0
66
3C
ENDCHAR
STARTCHAR eacute
ENCODING 233
SWIDTH 444 0
DWIDTH 8 0
BBX 7 13 0 0
BITMAP
06
0C
10
00
3C
66
C2
FE
C0
C0
C0
66
3C
ENDCHAR
STARTCHAR ecircumflex
ENCODING 234
SWIDTH 444 0
DWIDTH 8 0
BBX 7 13 0 0
BITMAP
10
38
44
00
3C
66
C2
FE
C0
C0
C0
66
3C
ENDCHAR
STARTCHAR edieresis
ENCODING 235
SWIDTH 444 0
DWIDTH 8 0
BBX 7 12 0 0
BITMAP
6C
6C
00
3C
66
C2
FE
C0
C0
C0
66
3C
ENDCHAR
STARTCHAR igrave
ENCODING 236
SWIDTH 278 0
DWIDTH 5 0
BBX 4 13 0 0
BITMAP
C0
60
10
00
E0
60
60
60
60
60
60
60
F0
ENDCHAR
STARTCHAR iacute
ENCODING 237
SWIDTH 278 0
DWIDTH 5 0
BBX 4 13 0 0
BITMAP
30
60
80
00
E0
60
60
60
60
60
60
60
F0
ENDCHAR
STARTCHAR icircumflex
ENCODING 238
SWIDTH 278 0
DWIDTH 5 0
BBX 5 13 0 0
BITMAP
20
70
88
00
E0
60
60
60
60
60
60
60
F0
ENDCHAR
STARTCHAR idieresis
ENCODING 239
SWIDTH 278 0
DWIDTH 5 0
BBX 5 12 0 0
BITMAP
D8
D8
00
E0
60
60
60
60
60
60
60
F0
ENDCHAR
STARTCHAR eth
ENCODING 240
SWIDTH 500 0
DWIDTH 9 0
BBX 8 13 0 0
BITMAP
60
36
38
4C
3E
66
C3
C3
C3
C3
C3
66
3C
ENDCHAR
STARTCHAR ntilde
ENCODING 241
SWIDTH 500 0
DWIDTH 10 0
BBX 9 12 0 0
BITMAP
3A00
5C00
0000
E600
6F00
7300
6300
6300
6300
6300
6300
F380
ENDCHAR
STARTCHAR ograve
ENCODING 242
SWIDTH 500 0
DWIDTH 9 0
BBX 8 13 0 0
BITMAP
60
30
08
00
3C
66
C3
C3
C3
C3
C3
66
3C
ENDCHAR
STARTCHAR oacute
ENCODING 243
SWIDTH 500 0
DWIDTH 9 0
BBX 8 13 0 0
BITMAP
06
0C
10
00
3C
66
C3
C3
C3
C3
C3
66
3C
ENDCHAR
STARTCHAR ocircumflex
ENCODING 244
SWIDTH 500 0
DWIDTH 9 0
BBX 8 13 0 0
BITMAP
10
38
44
00
3C
66
C3
C3
C3
C3
C3
66
3C
ENDCHAR
STARTCHAR otilde
ENCODING 245
SWIDTH 500 0
DWIDTH 9 0
BBX 8 12 0 0
BITMAP
1A
2C
00
3C
66
C3
C3
C3
C3
C3
66
3C
ENDCHAR
STARTCHAR odieresis
ENCODING 246
SWIDTH 500 0
DWIDTH 9 0
BBX 8 12 0 0
BITMAP
6C
6C
00
3C
66
C3
C3
C3
C3
C3
66
3C
ENDCHAR
STARTCHAR divide
ENCODING 247
SWIDTH 564 0
DWIDTH 10 0
BBX 8 7 1 1
BITMAP
18
18
00
FF
00
18
18
ENDCHAR
STARTCHAR oslash
ENCODING 248
SWIDTH 500 0
DWIDTH 9 0
BBX 8 11 0 -1
BITMAP
01
3F
66
CF
CB
DB
D3
F3
66
7C
C0
ENDCHAR
STARTCHAR ugrave
ENCODING 249
SWIDTH 500 0
DWIDTH 9 0
BBX 9 13 0 0
BITMAP
3000
1800
0400
0000
E700
6300
6300
6300
6300
6300
6300
7700
3B80
ENDCHAR
STARTCHAR uacute
ENCODING 250
SWIDTH 500 0
DWIDTH 9 0
BBX 9 13 0 0
BITMAP
0600
0C00
1000
0000
E700
6300
6300
6300
6300
6300
6300
7700
3B80
ENDCHAR
STARTCHAR ucircumflex
ENCODING 251
SWIDTH 500 0
DWIDTH 9 0
BBX 9 13 0 0
BITMAP
0800
1C00
2200
0000
E700
6300
6300
6300
6300
6300
6300
7700
3B80
ENDCHAR
STARTCHAR udieresis
ENCODING 252
SWIDTH 500 0
DWIDTH 9 0
BBX 9 12 0 0
BITMAP
3600
3600
0000
E700
6300
6300
6300
6300
6300
6300
7700
3B80
ENDCHAR
STARTCHAR yacute
ENCODING 253
SWIDTH 500 0
DWIDTH 8 0
BBX 8 17 -1 -4
BITMAP
03
06
08
00
F3
63
72
32
36
1C
1C
0C
08
18
10
F0
E0
ENDCHAR
STARTCHAR thorn
ENCODING 254
SWIDTH 500 0
DWIDTH 9 0
BBX 8 17 0 -4
BITMAP
E0
60
60
60
6E
77
63
63
63
63
63
76
7C
60
60
60
F0
ENDCHAR
STARTCHAR ydieresis
ENCODING 255
SWIDTH 500 0
DWIDTH 8 0
BBX 8 16 -1 -4
BITMAP
36
36
00
F3
63
72
32
36
1C
1C
0C
08
18
10
F0
E0
ENDCHAR
STARTCHAR Lslash
ENCODING -1
SWIDTH 611 0
DWIDTH 11 0
BBX 11 13 0 0
BITMAP
7800
3000
3000
3400
3800
3000
7000
B000
3000
3000
3020
3060
7FE0
ENDCHAR
STARTCHAR OE
ENCODING -1
SWIDTH 889 0
DWIDTH 17 0
BBX 15 13 1 0
BITMAP
0FFE
3186
6182
6180
C180
C184
C1FC
C184
C180
6180
6182
3186
0FFE
ENDCHAR
STARTCHAR Scaron
ENCODING -1
SWIDTH 556 0
DWIDTH 10 0
BBX 8 17 1 0
BITMAP
44
38
10
00
3A
66
C2
C0
E0
78
3C
0E
07
03
83
C6
BC
ENDCHAR
STARTCHAR Ydieresis
ENCODING -1
SWIDTH 722 0
DWIDTH 12 0
BBX 12 16 0 0
BITMAP
1980
1980
0000
F0F0
7060
30C0
1880
1900
0F00
0600
0600
0600
0600
0600
0600
0F00
ENDCHAR
STARTCHAR Zcaron
ENCODING -1
SWIDTH 611 0
DWIDTH 12 0
BBX 10 17 1 0
BITMAP
1100
0E00
0400
0000
7FC0
61C0
4180
0380
0700
0600
0E00
1C00
3800
3000
7040
E0C0
FFC0
ENDCHAR
STARTCHAR breve
ENCODING -1
SWIDTH 333 0
DWIDTH 6 0
BBX 5 3 0 10
BITMAP
88
D8
70
ENDCHAR
STARTCHAR bullet
ENCODING -1
SWIDTH 350 0
DWIDTH 6 0
BBX 4 5 1 3
BITMAP
60
F0
F0
F0
60
ENDCHAR
STARTCHAR caron
ENCODING -1
SWIDTH 333 0
DWIDTH 6 0
BBX 5 3 0 10
BITMAP
88
70
20
ENDCHAR
STARTCHAR circumflex
ENCODING -1
SWIDTH 333 0
DWIDTH 5 0
BBX 5 3 0 10
BITMAP
20
70
88
ENDCHAR
STARTCHAR dagger
ENCODING -1
SWIDTH 500 0
DWIDTH 8 0
BBX 6 16 1 -2
BITMAP
30
30
30
30
FC
30
30
30
30
30
30
30
30
30
30
30
ENDCHAR
STARTCHAR daggerdbl
ENCODING -1
SWIDTH 500 0
DWIDTH 8 0
BBX 6 16 1 -2
BITMAP
30
30
30
30
FC
30
30
30
30
30
30
FC
30
30
30
30
ENDCHAR
STARTCHAR dotaccent
ENCODING -1
SWIDTH 333 0
DWIDTH 6 0
BBX 2 2 2 10
BITMAP
C0
C0
ENDCHAR
STARTCHAR dotlessi
ENCODING -1
SWIDTH 278 0
DWIDTH 5 0
BBX 4 9 0 0
BITMAP
E0
60
60
60
60
60
60
60
F0
ENDCHAR
STARTCHAR ellipsis
ENCODING -1
SWIDTH 1000 0
DWIDTH 18 0
BBX 14 2 2 0
BITMAP
C30C
C30C
ENDCHAR
STARTCHAR emdash
ENCODING -1
SWIDTH 1000 0
DWIDTH 18 0
BBX 18 1 0 4
BITMAP
FFFFC0
ENDCHAR
STARTCHAR endash
ENCODING -1
SWIDTH 500 0
DWIDTH 9 0
BBX 9 1 0 4
BITMAP
FF80
ENDCHAR
STARTCHAR fi
ENCODING -1
SWIDTH 556 0
DWIDTH 9 0
BBX 8 13 0 0
BITMAP
1E
36
20
60
FE
66
66
66
66
66
66
66
FF
ENDCHAR
STARTCHAR fl
ENCODING -1
SWIDTH 556 0
DWIDTH 9 0
BBX 8 13 0 0
BITMAP
1E
36
26
66
FE
66
66
66
66
66
66
66
FF
ENDCHAR
STARTCHAR florin
ENCODING -1
SWIDTH 500 0
DWIDTH 9 0
BBX 9 17 -1 -4
BITMAP
0380
0780
0C00
0C00
0C00
3F00
0C00
0C00
0C00
0C00
1800
1800
1800
1800
1800
F000
E000
ENDCHAR
STARTCHAR fraction
ENCODING -1
SWIDTH 167 0
DWIDTH 6 0
BBX 8 13 -1 0
BITMAP
01
03
02
06
0C
08
18
10
30
60
40
C0
80
ENDCHAR
STARTCHAR grave
ENCODING -1
SWIDTH 333 0
DWIDTH 4 0
BBX 4 3 0 10
BITMAP
C0
60
10
ENDCHAR
STARTCHAR guilsinglleft
ENCODING -1
SWIDTH 333 0
DWIDTH 6 0
BBX 4 7 1 1
BITMAP
10
30
60
C0
60
30
10
ENDCHAR
STARTCHAR guilsinglright
ENCODING -1
SWIDTH 333 0
DWIDTH 6 0
BBX 4 7 1 1
BITMAP
80
C0
60
30
60
C0
80
ENDCHAR
STARTCHAR hungarumlaut
ENCODING -1
SWIDTH 333 0
DWIDTH 6 0
BBX 6 3 0 10
BITMAP
6C
48
90
ENDCHAR
STARTCHAR lslash
ENCODING -1
SWIDTH 278 0
DWIDTH 5 0
BBX 6 13 -1 0
BITMAP
70
30
30
34
38
30
30
70
B0
30
30
30
78
ENDCHAR
STARTCHAR oe
ENCODING -1
SWIDTH 722 0
DWIDTH 13 0
BBX 12 9 0 0
BITMAP
39E0
6730
C610
C7F0
C600
C600
C610
6730
39E0
ENDCHAR
STARTCHAR ogonek
ENCODING -1
SWIDTH 333 0
DWIDTH 6 0
BBX 4 5 1 -4
BITMAP
60
C0
C0
F0
60
ENDCHAR
STARTCHAR perthousand
ENCODING -1
SWIDTH 1000 0
DWIDTH 19 0
BBX 20 13 -1 0
BITMAP
383000
6FE000
C44000
C48000
E98000
730000
020000
0670E0
0CD9B0
098B10
198B10
31D3A0
20E1C0
ENDCHAR
STARTCHAR quotedblbase
ENCODING -1
SWIDTH 444 0
DWIDTH 9 0
BBX 7 4 1 -2
BITMAP
CC
EE
22
44
ENDCHAR
STARTCHAR quotedblleft
ENCODING -1
SWIDTH 444 0
DWIDTH 9 0
BBX 7 4 1 9
BITMAP
44
88
EE
66
ENDCHAR
STARTCHAR quotedblright
ENCODING -1
SWIDTH 444 0
DWIDTH 9 0
BBX 7 4 1 9
BITMAP
CC
EE
22
44
ENDCHAR
STARTCHAR quotesinglbase
ENCODING -1
SWIDTH 333 0
DWIDTH 5 0
BBX 3 4 1 -2
BITMAP
C0
E0
20
40
ENDCHAR
STARTCHAR quotesingle
ENCODING -1
SWIDTH 180 0
DWIDTH 4 0
BBX 2 4 1 9
BITMAP
C0
C0
C0
80
ENDCHAR
STARTCHAR ring
ENCODING -1
SWIDTH 333 0
DWIDTH 6 0
BBX 4 4 1 9
BITMAP
60
90
90
60
ENDCHAR
STARTCHAR scaron
ENCODING -1
SWIDTH 389 0
DWIDTH 6 0
BBX 5 13 0 0
BITMAP
88
70
20
00
68
98
C8
E0
70
38
98
C8
B0
ENDCHAR
STARTCHAR tilde
ENCODING -1
SWIDTH 333 0
DWIDTH 6 0
BBX 5 2 0 10
BITMAP
68
B0
ENDCHAR
STARTCHAR trademark
ENCODING -1
SWIDTH 980 0
DWIDTH 17 0
BBX 15 7 1 6
BITMAP
FB8E
A98C
2154
2154
2174
2124
73AE
ENDCHAR
STARTCHAR zcaron
ENCODING -1
SWIDTH 444 0
DWIDTH 8 0
BBX 7 13 0 0
BITMAP
44
38
10
00
FE
CE
8C
18
30
30
62
E6
FE
ENDCHAR
ENDFONT
