STARTFONT 2.1
FONT -Adobe-Times-Medium-R-Normal--14-140-75-75-P-74-ISO8859-1
SIZE 14 75 75
FONTBOUNDINGBOX 15 17 -1 -3
COMMENT $XConsortium: timR14.bdf,v 1.14 95/01/26 18:07:23 gildea Exp $
COMMENT 
COMMENT +
COMMENT  Copyright 1984-1989, 1994 Adobe Systems Incorporated.
COMMENT  Copyright 1988, 1994 Digital Equipment Corporation.
COMMENT
COMMENT  Adobe is a trademark of Adobe Systems Incorporated which may be
COMMENT  registered in certain jurisdictions.
COMMENT  Permission to use these trademarks is hereby granted only in
COMMENT  association with the images described in this file.
COMMENT
COMMENT  Permission to use, copy, modify, distribute and sell this software
COMMENT  and its documentation for any purpose and without fee is hereby
COMMENT  granted, provided that the above copyright notices appear in all
COMMENT  copies and that both those copyright notices and this permission
COMMENT  notice appear in supporting documentation, and that the names of
COMMENT  Adobe Systems and Digital Equipment Corporation not be used in
COMMENT  advertising or publicity pertaining to distribution of the software
COMMENT  without specific, written prior permission.  Adobe Systems and
COMMENT  Digital Equipment Corporation make no representations about the
COMMENT  suitability of this software for any purpose.  It is provided "as
COMMENT  is" without express or implied warranty.
COMMENT -
STARTPROPERTIES 28
FOUNDRY "Adobe"
FAMILY_NAME "Times"
WEIGHT_NAME "Medium"
SLANT "R"
SETWIDTH_NAME "Normal"
ADD_STYLE_NAME ""
PIXEL_SIZE 14
POINT_SIZE 140
RESOLUTION_X 75
RESOLUTION_Y 75
SPACING "P"
AVERAGE_WIDTH 74
CHARSET_REGISTRY "ISO8859"
CHARSET_ENCODING "1"
CAP_HEIGHT 10
X_HEIGHT 7
FONT_ASCENT 12
FONT_DESCENT 3
FACE_NAME "Times Roman"
COPYRIGHT "Copyright (c) 1984, 1987 Adobe Systems Incorporated. All Rights Reserved. Copyright (c) 1988, 1991 Digital Equipment Corporation. All Rights Reserved."
NOTICE "Times is a trademark of Linotype-Hell AG and/or its subsidiaries."
_DEC_DEVICE_FONTNAMES "PS=Times-Roman"
_DEC_PRODUCTINFO "DECwindows Fonts V2.2-1, 22-Nov-1991"
DEFAULT_CHAR 32
RELATIVE_SETWIDTH 50
RELATIVE_WEIGHT 50
CHARSET_COLLECTIONS "ASCII ISO8859-1 ADOBE-STANDARD"
FULL_NAME "Times Roman"
ENDPROPERTIES
CHARS 229
STARTCHAR space
ENCODING 32
SWIDTH 250 0
DWIDTH 3 0
BBX 1 1 0 0
BITMAP
00
ENDCHAR
STARTCHAR exclam
ENCODING 33
SWIDTH 333 0
DWIDTH 5 0
BBX 1 10 2 0
BITMAP
80
80
80
80
80
80
80
00
80
80
ENDCHAR
STARTCHAR quotedbl
ENCODING 34
SWIDTH 408 0
DWIDTH 6 0
BBX 3 3 1 7
BITMAP
A0
A0
A0
ENDCHAR
STARTCHAR numbersign
ENCODING 35
SWIDTH 500 0
DWIDTH 7 0
BBX 7 10 0 0
BITMAP
14
14
7E
28
28
28
FC
50
50
50
ENDCHAR
STARTCHAR dollar
ENCODING 36
SWIDTH 500 0
DWIDTH 7 0
BBX 5 12 1 -1
BITMAP
20
78
A8
A0
A0
70
28
28
28
A8
F0
20
ENDCHAR
STARTCHAR percent
ENCODING 37
SWIDTH 833 0
DWIDTH 12 0
BBX 9 10 1 0
BITMAP
7180
DF00
9200
9400
6C00
0B00
1680
2480
6480
4300
ENDCHAR
STARTCHAR ampersand
ENCODING 38
SWIDTH 778 0
DWIDTH 11 0
BBX 10 10 1 0
BITMAP
1800
2400
2400
3800
1380
7900
CA00
8400
CE40
7380
ENDCHAR
STARTCHAR quoteright
ENCODING 39
SWIDTH 333 0
DWIDTH 4 0
BBX 2 3 1 7
BITMAP
C0
40
80
ENDCHAR
STARTCHAR parenleft
ENCODING 40
SWIDTH 333 0
DWIDTH 5 0
BBX 3 13 1 -3
BITMAP
20
20
40
40
80
80
80
80
80
40
40
20
20
ENDCHAR
STARTCHAR parenright
ENCODING 41
SWIDTH 333 0
DWIDTH 5 0
BBX 3 13 1 -3
BITMAP
80
80
40
40
20
20
20
20
20
40
40
80
80
ENDCHAR
STARTCHAR asterisk
ENCODING 42
SWIDTH 500 0
DWIDTH 7 0
BBX 5 6 1 4
BITMAP
20
A8
70
70
A8
20
ENDCHAR
STARTCHAR plus
ENCODING 43
SWIDTH 564 0
DWIDTH 8 0
BBX 7 7 0 0
BITMAP
10
10
10
FE
10
10
10
ENDCHAR
STARTCHAR comma
ENCODING 44
SWIDTH 250 0
DWIDTH 3 0
BBX 2 4 0 -2
BITMAP
40
40
40
80
ENDCHAR
STARTCHAR minus
ENCODING 45
SWIDTH 564 0
DWIDTH 9 0
BBX 7 1 1 3
BITMAP
FE
ENDCHAR
STARTCHAR period
ENCODING 46
SWIDTH 250 0
DWIDTH 3 0
BBX 1 2 1 0
BITMAP
80
80
ENDCHAR
STARTCHAR slash
ENCODING 47
SWIDTH 278 0
DWIDTH 4 0
BBX 5 12 -1 -2
BITMAP
08
08
10
10
10
20
20
20
40
40
80
80
ENDCHAR
STARTCHAR zero
ENCODING 48
SWIDTH 500 0
DWIDTH 7 0
BBX 6 10 0 0
BITMAP
78
CC
84
84
84
84
84
84
CC
78
ENDCHAR
STARTCHAR one
ENCODING 49
SWIDTH 500 0
DWIDTH 7 0
BBX 5 10 1 0
BITMAP
20
E0
20
20
20
20
20
20
20
F8
ENDCHAR
STARTCHAR two
ENCODING 50
SWIDTH 500 0
DWIDTH 7 0
BBX 6 10 0 0
BITMAP
70
D8
88
08
18
10
20
40
C4
FC
ENDCHAR
STARTCHAR three
ENCODING 51
SWIDTH 500 0
DWIDTH 7 0
BBX 6 10 0 0
BITMAP
78
CC
84
08
30
08
04
04
CC
78
ENDCHAR
STARTCHAR four
ENCODING 52
SWIDTH 500 0
DWIDTH 7 0
BBX 6 10 0 0
BITMAP
08
18
18
28
68
48
88
FC
08
08
ENDCHAR
STARTCHAR five
ENCODING 53
SWIDTH 500 0
DWIDTH 7 0
BBX 5 10 1 0
BITMAP
78
70
80
E0
B0
18
08
08
90
E0
ENDCHAR
STARTCHAR six
ENCODING 54
SWIDTH 500 0
DWIDTH 7 0
BBX 6 10 0 0
BITMAP
0C
18
20
40
78
CC
84
84
CC
78
ENDCHAR
STARTCHAR seven
ENCODING 55
SWIDTH 500 0
DWIDTH 7 0
BBX 6 10 0 0
BITMAP
FC
84
08
08
10
10
20
20
40
40
ENDCHAR
STARTCHAR eight
ENCODING 56
SWIDTH 500 0
DWIDTH 7 0
BBX 5 10 1 0
BITMAP
70
D8
88
C8
70
98
88
88
D8
70
ENDCHAR
STARTCHAR nine
ENCODING 57
SWIDTH 500 0
DWIDTH 7 0
BBX 6 10 0 0
BITMAP
78
CC
84
84
CC
78
08
10
60
C0
ENDCHAR
STARTCHAR colon
ENCODING 58
SWIDTH 278 0
DWIDTH 4 0
BBX 1 7 1 0
BITMAP
80
80
00
00
00
80
80
ENDCHAR
STARTCHAR semicolon
ENCODING 59
SWIDTH 278 0
DWIDTH 4 0
BBX 2 9 0 -2
BITMAP
40
40
00
00
00
40
40
40
80
ENDCHAR
STARTCHAR less
ENCODING 60
SWIDTH 564 0
DWIDTH 8 0
BBX 7 7 0 0
BITMAP
06
18
60
C0
60
18
06
ENDCHAR
STARTCHAR equal
ENCODING 61
SWIDTH 564 0
DWIDTH 8 0
BBX 7 3 0 2
BITMAP
FE
00
FE
ENDCHAR
STARTCHAR greater
ENCODING 62
SWIDTH 564 0
DWIDTH 8 0
BBX 7 7 0 0
BITMAP
C0
30
0C
06
0C
30
C0
ENDCHAR
STARTCHAR question
ENCODING 63
SWIDTH 444 0
DWIDTH 6 0
BBX 5 10 0 0
BITMAP
70
88
88
08
10
20
20
00
20
20
ENDCHAR
STARTCHAR at
ENCODING 64
SWIDTH 921 0
DWIDTH 13 0
BBX 12 12 0 -2
BITMAP
0F80
3060
6020
4690
8910
9110
9110
9320
CDC0
4000
30C0
0F00
ENDCHAR
STARTCHAR A
ENCODING 65
SWIDTH 722 0
DWIDTH 11 0
BBX 9 10 1 0
BITMAP
0800
0800
1400
1400
2200
2200
3E00
4100
4100
E380
ENDCHAR
STARTCHAR B
ENCODING 66
SWIDTH 667 0
DWIDTH 9 0
BBX 7 10 1 0
BITMAP
FC
46
42
46
7C
46
42
42
46
FC
ENDCHAR
STARTCHAR C
ENCODING 67
SWIDTH 667 0
DWIDTH 10 0
BBX 8 10 1 0
BITMAP
3D
63
C1
81
80
80
80
C1
62
3C
ENDCHAR
STARTCHAR D
ENCODING 68
SWIDTH 722 0
DWIDTH 10 0
BBX 9 10 0 0
BITMAP
FE00
2300
2100
2080
2080
2080
2080
2100
2300
FE00
ENDCHAR
STARTCHAR E
ENCODING 69
SWIDTH 611 0
DWIDTH 9 0
BBX 7 10 1 0
BITMAP
FE
42
40
44
7C
44
40
40
42
FE
ENDCHAR
STARTCHAR F
ENCODING 70
SWIDTH 556 0
DWIDTH 8 0
BBX 7 10 1 0
BITMAP
FE
42
40
44
7C
44
40
40
40
E0
ENDCHAR
STARTCHAR G
ENCODING 71
SWIDTH 722 0
DWIDTH 11 0
BBX 9 10 1 0
BITMAP
3D00
6300
4100
8100
8000
8780
8100
C100
6300
3E00
ENDCHAR
STARTCHAR H
ENCODING 72
SWIDTH 722 0
DWIDTH 10 0
BBX 8 10 1 0
BITMAP
E7
42
42
42
7E
42
42
42
42
E7
ENDCHAR
STARTCHAR I
ENCODING 73
SWIDTH 333 0
DWIDTH 5 0
BBX 3 10 1 0
BITMAP
E0
40
40
40
40
40
40
40
40
E0
ENDCHAR
STARTCHAR J
ENCODING 74
SWIDTH 389 0
DWIDTH 6 0
BBX 4 10 1 0
BITMAP
70
20
20
20
20
20
20
20
A0
C0
ENDCHAR
STARTCHAR K
ENCODING 75
SWIDTH 722 0
DWIDTH 10 0
BBX 8 10 2 0
BITMAP
EE
44
48
50
60
50
48
44
42
E7
ENDCHAR
STARTCHAR L
ENCODING 76
SWIDTH 611 0
DWIDTH 9 0
BBX 7 10 1 0
BITMAP
E0
40
40
40
40
40
40
40
42
FE
ENDCHAR
STARTCHAR M
ENCODING 77
SWIDTH 889 0
DWIDTH 13 0
BBX 11 10 1 0
BITMAP
E0E0
60C0
5140
5140
5B40
4A40
4A40
4440
4440
E4E0
ENDCHAR
STARTCHAR N
ENCODING 78
SWIDTH 722 0
DWIDTH 11 0
BBX 9 10 1 0
BITMAP
E380
6100
5100
5900
4900
4D00
4500
4500
4300
E100
ENDCHAR
STARTCHAR O
ENCODING 79
SWIDTH 722 0
DWIDTH 10 0
BBX 8 10 1 0
BITMAP
3C
66
42
81
81
81
81
42
66
3C
ENDCHAR
STARTCHAR P
ENCODING 80
SWIDTH 556 0
DWIDTH 8 0
BBX 6 10 1 0
BITMAP
F8
4C
44
44
4C
78
40
40
40
E0
ENDCHAR
STARTCHAR Q
ENCODING 81
SWIDTH 722 0
DWIDTH 10 0
BBX 8 13 1 -3
BITMAP
3C
66
42
81
81
81
81
42
66
3C
08
06
03
ENDCHAR
STARTCHAR R
ENCODING 82
SWIDTH 667 0
DWIDTH 9 0
BBX 9 10 0 0
BITMAP
FC00
2600
2200
2200
2600
3C00
2400
2200
2300
F180
ENDCHAR
STARTCHAR S
ENCODING 83
SWIDTH 556 0
DWIDTH 8 0
BBX 6 10 1 0
BITMAP
74
CC
84
C0
70
18
04
84
CC
B8
ENDCHAR
STARTCHAR T
ENCODING 84
SWIDTH 611 0
DWIDTH 9 0
BBX 7 10 1 0
BITMAP
FE
92
92
10
10
10
10
10
10
38
ENDCHAR
STARTCHAR U
ENCODING 85
SWIDTH 722 0
DWIDTH 10 0
BBX 8 10 1 0
BITMAP
E7
42
42
42
42
42
42
42
66
3C
ENDCHAR
STARTCHAR V
ENCODING 86
SWIDTH 722 0
DWIDTH 9 0
BBX 9 10 0 0
BITMAP
E380
4100
6300
2200
2200
3600
1400
1C00
0800
0800
ENDCHAR
STARTCHAR W
ENCODING 87
SWIDTH 944 0
DWIDTH 13 0
BBX 13 10 0 0
BITMAP
E738
4210
6230
2220
2220
3560
1540
18C0
18C0
0880
ENDCHAR
STARTCHAR X
ENCODING 88
SWIDTH 722 0
DWIDTH 10 0
BBX 10 10 0 0
BITMAP
F3C0
2100
3200
1200
0C00
0C00
1200
2300
6180
F3C0
ENDCHAR
STARTCHAR Y
ENCODING 89
SWIDTH 722 0
DWIDTH 9 0
BBX 9 10 0 0
BITMAP
E380
4100
2200
3200
1400
0800
0800
0800
0800
1C00
ENDCHAR
STARTCHAR Z
ENCODING 90
SWIDTH 611 0
DWIDTH 8 0
BBX 8 10 0 0
BITMAP
7F
43
46
04
08
18
30
60
C1
FF
ENDCHAR
STARTCHAR bracketleft
ENCODING 91
SWIDTH 333 0
DWIDTH 5 0
BBX 3 13 1 -3
BITMAP
E0
80
80
80
80
80
80
80
80
80
80
80
E0
ENDCHAR
STARTCHAR backslash
ENCODING 92
SWIDTH 278 0
DWIDTH 4 0
BBX 4 10 0 0
BITMAP
80
80
40
40
40
20
20
20
10
10
ENDCHAR
STARTCHAR bracketright
ENCODING 93
SWIDTH 333 0
DWIDTH 5 0
BBX 3 13 0 -3
BITMAP
E0
20
20
20
20
20
20
20
20
20
20
20
E0
ENDCHAR
STARTCHAR asciicircum
ENCODING 94
SWIDTH 469 0
DWIDTH 7 0
BBX 5 5 1 5
BITMAP
20
50
50
88
88
ENDCHAR
STARTCHAR underscore
ENCODING 95
SWIDTH 500 0
DWIDTH 7 0
BBX 7 1 0 -3
BITMAP
FE
ENDCHAR
STARTCHAR quoteleft
ENCODING 96
SWIDTH 333 0
DWIDTH 4 0
BBX 2 3 1 7
BITMAP
40
80
C0
ENDCHAR
STARTCHAR a
ENCODING 97
SWIDTH 444 0
DWIDTH 7 0
BBX 6 7 1 0
BITMAP
70
C8
18
68
88
C8
74
ENDCHAR
STARTCHAR b
ENCODING 98
SWIDTH 500 0
DWIDTH 7 0
BBX 6 10 0 0
BITMAP
C0
40
40
58
6C
44
44
44
4C
78
ENDCHAR
STARTCHAR c
ENCODING 99
SWIDTH 444 0
DWIDTH 7 0
BBX 6 7 1 0
BITMAP
78
C8
80
80
80
C4
78
ENDCHAR
STARTCHAR d
ENCODING 100
SWIDTH 500 0
DWIDTH 7 0
BBX 6 10 1 0
BITMAP
18
08
08
78
C8
88
88
88
D8
74
ENDCHAR
STARTCHAR e
ENCODING 101
SWIDTH 444 0
DWIDTH 7 0
BBX 6 7 1 0
BITMAP
70
88
F8
80
80
C4
78
ENDCHAR
STARTCHAR f
ENCODING 102
SWIDTH 333 0
DWIDTH 4 0
BBX 4 10 0 0
BITMAP
30
50
40
F0
40
40
40
40
40
F0
ENDCHAR
STARTCHAR g
ENCODING 103
SWIDTH 500 0
DWIDTH 7 0
BBX 6 10 1 -3
BITMAP
78
D0
88
C8
70
40
78
84
CC
70
ENDCHAR
STARTCHAR h
ENCODING 104
SWIDTH 500 0
DWIDTH 7 0
BBX 7 10 0 0
BITMAP
C0
40
40
58
6C
44
44
44
44
EE
ENDCHAR
STARTCHAR i
ENCODING 105
SWIDTH 278 0
DWIDTH 3 0
BBX 3 10 0 0
BITMAP
40
40
00
C0
40
40
40
40
40
E0
ENDCHAR
STARTCHAR j
ENCODING 106
SWIDTH 278 0
DWIDTH 4 0
BBX 3 13 0 -3
BITMAP
20
20
00
60
20
20
20
20
20
20
20
A0
C0
ENDCHAR
STARTCHAR k
ENCODING 107
SWIDTH 500 0
DWIDTH 7 0
BBX 7 10 0 0
BITMAP
C0
40
40
4C
48
70
50
48
4C
E6
ENDCHAR
STARTCHAR l
ENCODING 108
SWIDTH 278 0
DWIDTH 3 0
BBX 3 10 0 0
BITMAP
C0
40
40
40
40
40
40
40
40
E0
ENDCHAR
STARTCHAR m
ENCODING 109
SWIDTH 778 0
DWIDTH 11 0
BBX 11 7 0 0
BITMAP
DB80
6EC0
4440
4440
4440
4440
EEE0
ENDCHAR
STARTCHAR n
ENCODING 110
SWIDTH 500 0
DWIDTH 7 0
BBX 7 7 0 0
BITMAP
D8
6C
44
44
44
44
EE
ENDCHAR
STARTCHAR o
ENCODING 111
SWIDTH 500 0
DWIDTH 7 0
BBX 5 7 1 0
BITMAP
70
D8
88
88
88
D8
70
ENDCHAR
STARTCHAR p
ENCODING 112
SWIDTH 500 0
DWIDTH 7 0
BBX 6 10 0 -3
BITMAP
D8
6C
44
44
44
6C
58
40
40
E0
ENDCHAR
STARTCHAR q
ENCODING 113
SWIDTH 500 0
DWIDTH 7 0
BBX 6 10 1 -3
BITMAP
78
C8
88
88
88
D8
68
08
08
1C
ENDCHAR
STARTCHAR r
ENCODING 114
SWIDTH 333 0
DWIDTH 5 0
BBX 5 7 0 0
BITMAP
B8
68
40
40
40
40
E0
ENDCHAR
STARTCHAR s
ENCODING 115
SWIDTH 389 0
DWIDTH 6 0
BBX 4 7 1 0
BITMAP
70
90
C0
60
30
90
E0
ENDCHAR
STARTCHAR t
ENCODING 116
SWIDTH 278 0
DWIDTH 4 0
BBX 4 9 0 0
BITMAP
40
40
F0
40
40
40
40
40
30
ENDCHAR
STARTCHAR u
ENCODING 117
SWIDTH 500 0
DWIDTH 7 0
BBX 7 7 0 0
BITMAP
CC
44
44
44
44
6C
36
ENDCHAR
STARTCHAR v
ENCODING 118
SWIDTH 500 0
DWIDTH 7 0
BBX 7 7 0 0
BITMAP
EE
44
44
28
28
10
10
ENDCHAR
STARTCHAR w
ENCODING 119
SWIDTH 722 0
DWIDTH 11 0
BBX 11 7 0 0
BITMAP
EEE0
4440
4440
2480
3B80
1100
1100
ENDCHAR
STARTCHAR x
ENCODING 120
SWIDTH 500 0
DWIDTH 7 0
BBX 7 7 0 0
BITMAP
EE
44
38
10
38
44
EE
ENDCHAR
STARTCHAR y
ENCODING 121
SWIDTH 500 0
DWIDTH 7 0
BBX 7 10 0 -3
BITMAP
EE
44
44
28
28
10
30
20
A0
C0
ENDCHAR
STARTCHAR z
ENCODING 122
SWIDTH 444 0
DWIDTH 6 0
BBX 6 7 0 0
BITMAP
FC
88
18
30
60
C4
FC
ENDCHAR
STARTCHAR braceleft
ENCODING 123
SWIDTH 480 0
DWIDTH 7 0
BBX 5 13 1 -3
BITMAP
18
20
20
20
20
40
80
40
20
20
20
20
18
ENDCHAR
STARTCHAR bar
ENCODING 124
SWIDTH 200 0
DWIDTH 3 0
BBX 1 10 1 0
BITMAP
80
80
80
80
80
80
80
80
80
80
ENDCHAR
STARTCHAR braceright
ENCODING 125
SWIDTH 480 0
DWIDTH 7 0
BBX 5 13 1 -3
BITMAP
C0
20
20
20
20
10
08
10
20
20
20
20
C0
ENDCHAR
STARTCHAR asciitilde
ENCODING 126
SWIDTH 541 0
DWIDTH 8 0
BBX 7 2 0 3
BITMAP
62
9C
ENDCHAR
STARTCHAR space
ENCODING 160
SWIDTH 250 0
DWIDTH 3 0
BBX 1 1 0 0
BITMAP
00
ENDCHAR
STARTCHAR exclamdown
ENCODING 161
SWIDTH 333 0
DWIDTH 5 0
BBX 1 10 2 -3
BITMAP
80
80
00
80
80
80
80
80
80
80
ENDCHAR
STARTCHAR cent
ENCODING 162
SWIDTH 500 0
DWIDTH 7 0
BBX 6 9 0 -1
BITMAP
04
7C
CC
90
90
A0
E4
78
80
ENDCHAR
STARTCHAR sterling
ENCODING 163
SWIDTH 500 0
DWIDTH 8 0
BBX 7 10 0 0
BITMAP
1C
34
20
20
F8
20
20
20
E2
BC
ENDCHAR
STARTCHAR currency
ENCODING 164
SWIDTH 500 0
DWIDTH 7 0
BBX 5 7 1 1
BITMAP
88
70
88
88
88
70
88
ENDCHAR
STARTCHAR yen
ENCODING 165
SWIDTH 500 0
DWIDTH 7 0
BBX 7 10 0 0
BITMAP
EE
44
6C
28
7C
10
7C
10
10
38
ENDCHAR
STARTCHAR brokenbar
ENCODING 166
SWIDTH 200 0
DWIDTH 3 0
BBX 1 10 1 0
BITMAP
80
80
80
80
00
00
80
80
80
80
ENDCHAR
STARTCHAR section
ENCODING 167
SWIDTH 500 0
DWIDTH 7 0
BBX 5 13 1 -3
BITMAP
38
58
40
60
70
98
88
C8
70
30
10
D0
E0
ENDCHAR
STARTCHAR dieresis
ENCODING 168
SWIDTH 333 0
DWIDTH 5 0
BBX 3 2 1 8
BITMAP
A0
A0
ENDCHAR
STARTCHAR copyright
ENCODING 169
SWIDTH 760 0
DWIDTH 12 0
BBX 10 10 1 0
BITMAP
1E00
6180
4E80
9240
9040
9040
9240
4C80
6180
1E00
ENDCHAR
STARTCHAR ordfeminine
ENCODING 170
SWIDTH 276 0
DWIDTH 4 0
BBX 3 6 0 4
BITMAP
E0
20
A0
E0
00
E0
ENDCHAR
STARTCHAR guillemotleft
ENCODING 171
SWIDTH 500 0
DWIDTH 7 0
BBX 6 6 0 0
BITMAP
24
48
90
90
48
24
ENDCHAR
STARTCHAR logicalnot
ENCODING 172
SWIDTH 564 0
DWIDTH 9 0
BBX 7 4 1 1
BITMAP
FE
02
02
02
ENDCHAR
STARTCHAR hyphen
ENCODING 173
SWIDTH 333 0
DWIDTH 5 0
BBX 4 1 0 2
BITMAP
F0
ENDCHAR
STARTCHAR registered
ENCODING 174
SWIDTH 760 0
DWIDTH 12 0
BBX 10 10 1 0
BITMAP
1E00
6180
5C80
9240
9C40
9440
9240
5280
6180
1E00
ENDCHAR
STARTCHAR macron
ENCODING 175
SWIDTH 333 0
DWIDTH 4 0
BBX 4 1 0 8
BITMAP
F0
ENDCHAR
STARTCHAR degree
ENCODING 176
SWIDTH 400 0
DWIDTH 6 0
BBX 4 4 1 6
BITMAP
60
90
90
60
ENDCHAR
STARTCHAR plusminus
ENCODING 177
SWIDTH 564 0
DWIDTH 8 0
BBX 7 7 0 0
BITMAP
10
10
FE
10
10
00
FE
ENDCHAR
STARTCHAR twosuperior
ENCODING 178
SWIDTH 300 0
DWIDTH 4 0
BBX 4 6 0 4
BITMAP
60
90
10
20
40
F0
ENDCHAR
STARTCHAR threesuperior
ENCODING 179
SWIDTH 300 0
DWIDTH 4 0
BBX 4 6 0 4
BITMAP
60
90
20
10
90
60
ENDCHAR
STARTCHAR acute
ENCODING 180
SWIDTH 333 0
DWIDTH 5 0
BBX 3 3 1 8
BITMAP
20
60
80
ENDCHAR
STARTCHAR mu
ENCODING 181
SWIDTH 500 0
DWIDTH 7 0
BBX 7 10 0 -3
BITMAP
CC
44
44
44
44
6C
76
40
40
60
ENDCHAR
STARTCHAR paragraph
ENCODING 182
SWIDTH 453 0
DWIDTH 7 0
BBX 7 13 0 -3
BITMAP
3E
74
F4
F4
F4
74
34
14
14
14
14
14
14
ENDCHAR
STARTCHAR periodcentered
ENCODING 183
SWIDTH 250 0
DWIDTH 4 0
BBX 1 2 1 3
BITMAP
80
80
ENDCHAR
STARTCHAR cedilla
ENCODING 184
SWIDTH 333 0
DWIDTH 5 0
BBX 3 3 1 -3
BITMAP
40
20
C0
ENDCHAR
STARTCHAR onesuperior
ENCODING 185
SWIDTH 300 0
DWIDTH 4 0
BBX 3 6 0 4
BITMAP
40
C0
40
40
40
E0
ENDCHAR
STARTCHAR ordmasculine
ENCODING 186
SWIDTH 310 0
DWIDTH 5 0
BBX 4 6 0 4
BITMAP
60
90
90
60
00
F0
ENDCHAR
STARTCHAR guillemotright
ENCODING 187
SWIDTH 500 0
DWIDTH 7 0
BBX 6 6 1 0
BITMAP
90
48
24
24
48
90
ENDCHAR
STARTCHAR onequarter
ENCODING 188
SWIDTH 750 0
DWIDTH 10 0
BBX 10 10 0 0
BITMAP
4100
C200
4200
4400
4480
E980
0A80
1480
17C0
2080
ENDCHAR
STARTCHAR onehalf
ENCODING 189
SWIDTH 750 0
DWIDTH 10 0
BBX 10 10 0 0
BITMAP
4100
C200
4200
4400
4580
EA40
0840
1080
1100
23C0
ENDCHAR
STARTCHAR threequarters
ENCODING 190
SWIDTH 750 0
DWIDTH 10 0
BBX 10 10 0 0
BITMAP
6100
9200
2200
1400
9480
6980
0A80
1480
17C0
2080
ENDCHAR
STARTCHAR questiondown
ENCODING 191
SWIDTH 444 0
DWIDTH 6 0
BBX 5 10 0 -3
BITMAP
20
20
00
20
20
40
80
88
88
70
ENDCHAR
STARTCHAR Agrave
ENCODING 192
SWIDTH 722 0
DWIDTH 11 0
BBX 9 14 1 0
BITMAP
2000
3000
0800
0000
0800
0800
1400
1400
2200
2200
3E00
4100
4100
E380
ENDCHAR
STARTCHAR Aacute
ENCODING 193
SWIDTH 722 0
DWIDTH 11 0
BBX 9 14 1 0
BITMAP
0200
0600
0800
0000
0800
0800
1400
1400
2200
2200
3E00
4100
4100
E380
ENDCHAR
STARTCHAR Acircumflex
ENCODING 194
SWIDTH 722 0
DWIDTH 11 0
BBX 9 14 1 0
BITMAP
0800
1C00
2200
0000
0800
0800
1400
1400
2200
2200
3E00
4100
4100
E380
ENDCHAR
STARTCHAR Atilde
ENCODING 195
SWIDTH 722 0
DWIDTH 11 0
BBX 9 13 1 0
BITMAP
1A00
2C00
0000
0800
0800
1400
1400
2200
2200
3E00
4100
4100
E380
ENDCHAR
STARTCHAR Adieresis
ENCODING 196
SWIDTH 722 0
DWIDTH 11 0
BBX 9 13 1 0
BITMAP
2400
2400
0000
0800
0800
1400
1400
2200
2200
3E00
4100
4100
E380
ENDCHAR
STARTCHAR Aring
ENCODING 197
SWIDTH 722 0
DWIDTH 11 0
BBX 9 14 1 0
BITMAP
0800
1400
0800
0000
0800
0800
1400
1400
2200
2200
3E00
4100
4100
E380
ENDCHAR
STARTCHAR AE
ENCODING 198
SWIDTH 889 0
DWIDTH 13 0
BBX 11 10 1 0
BITMAP
1FE0
0C20
1400
1440
27C0
2440
3C00
4420
4420
EFE0
ENDCHAR
STARTCHAR Ccedilla
ENCODING 199
SWIDTH 667 0
DWIDTH 10 0
BBX 8 13 1 -3
BITMAP
3D
63
41
81
80
80
80
C1
62
3C
10
08
30
ENDCHAR
STARTCHAR Egrave
ENCODING 200
SWIDTH 611 0
DWIDTH 9 0
BBX 7 14 1 0
BITMAP
20
30
08
00
FE
42
40
44
7C
44
40
40
42
FE
ENDCHAR
STARTCHAR Eacute
ENCODING 201
SWIDTH 611 0
DWIDTH 9 0
BBX 7 14 1 0
BITMAP
04
0C
10
00
FE
42
40
44
7C
44
40
40
42
FE
ENDCHAR
STARTCHAR Ecircumflex
ENCODING 202
SWIDTH 611 0
DWIDTH 9 0
BBX 7 14 1 0
BITMAP
10
38
44
00
FE
42
40
44
7C
44
40
40
42
FE
ENDCHAR
STARTCHAR Edieresis
ENCODING 203
SWIDTH 611 0
DWIDTH 9 0
BBX 7 13 1 0
BITMAP
24
24
00
FE
42
40
44
7C
44
40
40
42
FE
ENDCHAR
STARTCHAR Igrave
ENCODING 204
SWIDTH 333 0
DWIDTH 5 0
BBX 3 14 1 0
BITMAP
80
C0
20
00
E0
40
40
40
40
40
40
40
40
E0
ENDCHAR
STARTCHAR Iacute
ENCODING 205
SWIDTH 333 0
DWIDTH 5 0
BBX 4 14 1 0
BITMAP
10
30
40
00
E0
40
40
40
40
40
40
40
40
E0
ENDCHAR
STARTCHAR Icircumflex
ENCODING 206
SWIDTH 333 0
DWIDTH 5 0
BBX 5 14 0 0
BITMAP
20
70
88
00
70
20
20
20
20
20
20
20
20
70
ENDCHAR
STARTCHAR Idieresis
ENCODING 207
SWIDTH 333 0
DWIDTH 5 0
BBX 3 13 1 0
BITMAP
A0
A0
00
E0
40
40
40
40
40
40
40
40
E0
ENDCHAR
STARTCHAR Eth
ENCODING 208
SWIDTH 722 0
DWIDTH 10 0
BBX 9 10 0 0
BITMAP
FE00
2300
2100
2080
F880
2080
2080
2100
2300
FE00
ENDCHAR
STARTCHAR Ntilde
ENCODING 209
SWIDTH 722 0
DWIDTH 11 0
BBX 9 13 1 0
BITMAP
1A00
2C00
0000
E380
6100
5100
5900
4900
4D00
4500
4500
4300
E100
ENDCHAR
STARTCHAR Ograve
ENCODING 210
SWIDTH 722 0
DWIDTH 10 0
BBX 8 14 1 0
BITMAP
20
30
08
00
3C
66
42
81
81
81
81
42
66
3C
ENDCHAR
STARTCHAR Oacute
ENCODING 211
SWIDTH 722 0
DWIDTH 10 0
BBX 8 14 1 0
BITMAP
02
06
08
00
3C
66
42
81
81
81
81
42
66
3C
ENDCHAR
STARTCHAR Ocircumflex
ENCODING 212
SWIDTH 722 0
DWIDTH 10 0
BBX 8 14 1 0
BITMAP
10
38
44
00
3C
66
42
81
81
81
81
42
66
3C
ENDCHAR
STARTCHAR Otilde
ENCODING 213
SWIDTH 722 0
DWIDTH 10 0
BBX 8 13 1 0
BITMAP
1A
2C
00
3C
66
42
81
81
81
81
42
66
3C
ENDCHAR
STARTCHAR Odieresis
ENCODING 214
SWIDTH 722 0
DWIDTH 10 0
BBX 8 13 1 0
BITMAP
24
24
00
3C
66
42
81
81
81
81
42
66
3C
ENDCHAR
STARTCHAR multiply
ENCODING 215
SWIDTH 564 0
DWIDTH 8 0
BBX 7 7 0 0
BITMAP
82
44
28
10
28
44
82
ENDCHAR
STARTCHAR Oslash
ENCODING 216
SWIDTH 722 0
DWIDTH 10 0
BBX 9 12 0 -1
BITMAP
0080
1F00
3100
2300
4480
4C80
4880
5080
3100
6300
5E00
8000
ENDCHAR
STARTCHAR Ugrave
ENCODING 217
SWIDTH 722 0
DWIDTH 10 0
BBX 8 14 1 0
BITMAP
20
30
08
00
E7
42
42
42
42
42
42
42
66
3C
ENDCHAR
STARTCHAR Uacute
ENCODING 218
SWIDTH 722 0
DWIDTH 10 0
BBX 8 14 1 0
BITMAP
04
0C
10
00
E7
42
42
42
42
42
42
42
66
3C
ENDCHAR
STARTCHAR Ucircumflex
ENCODING 219
SWIDTH 722 0
DWIDTH 10 0
BBX 8 14 1 0
BITMAP
08
1C
22
00
E7
42
42
42
42
42
42
42
66
3C
ENDCHAR
STARTCHAR Udieresis
ENCODING 220
SWIDTH 722 0
DWIDTH 10 0
BBX 8 13 1 0
BITMAP
24
24
00
E7
42
42
42
42
42
42
42
66
3C
ENDCHAR
STARTCHAR Yacute
ENCODING 221
SWIDTH 722 0
DWIDTH 9 0
BBX 9 14 0 0
BITMAP
0200
0600
0800
0000
E380
4100
2200
3200
1400
0800
0800
0800
0800
1C00
ENDCHAR
STARTCHAR Thorn
ENCODING 222
SWIDTH 556 0
DWIDTH 8 0
BBX 6 10 1 0
BITMAP
E0
40
78
4C
44
44
4C
78
40
E0
ENDCHAR
STARTCHAR germandbls
ENCODING 223
SWIDTH 500 0
DWIDTH 7 0
BBX 6 10 0 0
BITMAP
38
6C
44
48
70
58
4C
44
54
D8
ENDCHAR
STARTCHAR agrave
ENCODING 224
SWIDTH 444 0
DWIDTH 7 0
BBX 6 11 1 0
BITMAP
40
60
10
00
70
C8
18
68
88
C8
74
ENDCHAR
STARTCHAR aacute
ENCODING 225
SWIDTH 444 0
DWIDTH 7 0
BBX 6 11 1 0
BITMAP
08
18
20
00
70
C8
18
68
88
C8
74
ENDCHAR
STARTCHAR acircumflex
ENCODING 226
SWIDTH 444 0
DWIDTH 7 0
BBX 6 11 1 0
BITMAP
20
70
88
00
70
C8
18
68
88
C8
74
ENDCHAR
STARTCHAR atilde
ENCODING 227
SWIDTH 444 0
DWIDTH 7 0
BBX 6 10 1 0
BITMAP
68
B0
00
70
C8
18
68
88
C8
74
ENDCHAR
STARTCHAR adieresis
ENCODING 228
SWIDTH 444 0
DWIDTH 7 0
BBX 6 10 1 0
BITMAP
50
50
00
70
C8
18
68
88
C8
74
ENDCHAR
STARTCHAR aring
ENCODING 229
SWIDTH 444 0
DWIDTH 7 0
BBX 6 11 1 0
BITMAP
20
50
20
00
70
C8
18
68
88
C8
74
ENDCHAR
STARTCHAR ae
ENCODING 230
SWIDTH 667 0
DWIDTH 11 0
BBX 9 7 1 0
BITMAP
7F00
C980
1F00
6800
8800
CC80
7700
ENDCHAR
STARTCHAR ccedilla
ENCODING 231
SWIDTH 444 0
DWIDTH 7 0
BBX 6 10 1 -3
BITMAP
70
C8
80
80
80
C4
78
20
10
60
ENDCHAR
STARTCHAR egrave
ENCODING 232
SWIDTH 444 0
DWIDTH 7 0
BBX 6 11 1 0
BITMAP
40
60
10
00
70
98
F0
80
80
C4
78
ENDCHAR
STARTCHAR eacute
ENCODING 233
SWIDTH 444 0
DWIDTH 7 0
BBX 6 11 1 0
BITMAP
10
30
40
00
70
98
F0
80
80
C4
78
ENDCHAR
STARTCHAR ecircumflex
ENCODING 234
SWIDTH 444 0
DWIDTH 7 0
BBX 6 11 1 0
BITMAP
20
70
88
00
70
98
F0
80
80
C4
78
ENDCHAR
STARTCHAR edieresis
ENCODING 235
SWIDTH 444 0
DWIDTH 7 0
BBX 6 10 1 0
BITMAP
50
50
00
70
98
F0
80
80
C4
78
ENDCHAR
STARTCHAR igrave
ENCODING 236
SWIDTH 278 0
DWIDTH 3 0
BBX 3 11 0 0
BITMAP
80
C0
20
00
C0
40
40
40
40
40
E0
ENDCHAR
STARTCHAR iacute
ENCODING 237
SWIDTH 278 0
DWIDTH 3 0
BBX 3 11 0 0
BITMAP
20
60
80
00
C0
40
40
40
40
40
E0
ENDCHAR
STARTCHAR icircumflex
ENCODING 238
SWIDTH 278 0
DWIDTH 3 0
BBX 5 11 -1 0
BITMAP
20
70
88
00
60
20
20
20
20
20
70
ENDCHAR
STARTCHAR idieresis
ENCODING 239
SWIDTH 278 0
DWIDTH 3 0
BBX 3 10 0 0
BITMAP
A0
A0
00
C0
40
40
40
40
40
E0
ENDCHAR
STARTCHAR eth
ENCODING 240
SWIDTH 500 0
DWIDTH 7 0
BBX 5 10 1 0
BITMAP
D8
60
90
78
D8
88
88
88
D8
70
ENDCHAR
STARTCHAR ntilde
ENCODING 241
SWIDTH 500 0
DWIDTH 7 0
BBX 7 10 0 0
BITMAP
34
58
00
D8
6C
44
44
44
44
EE
ENDCHAR
STARTCHAR ograve
ENCODING 242
SWIDTH 500 0
DWIDTH 7 0
BBX 5 11 1 0
BITMAP
40
60
10
00
70
D8
88
88
88
D8
70
ENDCHAR
STARTCHAR oacute
ENCODING 243
SWIDTH 500 0
DWIDTH 7 0
BBX 5 11 1 0
BITMAP
10
30
40
00
70
D8
88
88
88
D8
70
ENDCHAR
STARTCHAR ocircumflex
ENCODING 244
SWIDTH 500 0
DWIDTH 7 0
BBX 5 11 1 0
BITMAP
20
70
88
00
70
D8
88
88
88
D8
70
ENDCHAR
STARTCHAR otilde
ENCODING 245
SWIDTH 500 0
DWIDTH 7 0
BBX 5 10 1 0
BITMAP
68
B0
00
70
D8
88
88
88
D8
70
ENDCHAR
STARTCHAR odieresis
ENCODING 246
SWIDTH 500 0
DWIDTH 7 0
BBX 5 10 1 0
BITMAP
50
50
00
70
D8
88
88
88
D8
70
ENDCHAR
STARTCHAR divide
ENCODING 247
SWIDTH 564 0
DWIDTH 8 0
BBX 7 7 0 0
BITMAP
10
10
00
FE
00
10
10
ENDCHAR
STARTCHAR oslash
ENCODING 248
SWIDTH 500 0
DWIDTH 7 0
BBX 7 9 0 -1
BITMAP
02
3C
6C
44
44
44
6C
78
80
ENDCHAR
STARTCHAR ugrave
ENCODING 249
SWIDTH 500 0
DWIDTH 7 0
BBX 7 11 0 0
BITMAP
20
30
08
00
CC
44
44
44
44
6C
36
ENDCHAR
STARTCHAR uacute
ENCODING 250
SWIDTH 500 0
DWIDTH 7 0
BBX 7 11 0 0
BITMAP
08
18
20
00
CC
44
44
44
44
6C
36
ENDCHAR
STARTCHAR ucircumflex
ENCODING 251
SWIDTH 500 0
DWIDTH 7 0
BBX 7 11 0 0
BITMAP
10
38
44
00
CC
44
44
44
44
6C
36
ENDCHAR
STARTCHAR udieresis
ENCODING 252
SWIDTH 500 0
DWIDTH 7 0
BBX 7 10 0 0
BITMAP
28
28
00
CC
44
44
44
44
6C
36
ENDCHAR
STARTCHAR yacute
ENCODING 253
SWIDTH 500 0
DWIDTH 7 0
BBX 7 14 0 -3
BITMAP
04
0C
10
00
EE
44
44
28
28
10
30
20
A0
C0
ENDCHAR
STARTCHAR thorn
ENCODING 254
SWIDTH 500 0
DWIDTH 7 0
BBX 6 13 0 -3
BITMAP
C0
40
40
58
6C
44
44
44
6C
58
40
40
E0
ENDCHAR
STARTCHAR ydieresis
ENCODING 255
SWIDTH 500 0
DWIDTH 7 0
BBX 7 13 0 -3
BITMAP
28
28
00
EE
44
44
28
28
10
30
20
A0
C0
ENDCHAR
STARTCHAR Lslash
ENCODING -1
SWIDTH 611 0
DWIDTH 9 0
BBX 7 10 1 0
BITMAP
E0
40
40
40
60
C0
40
40
42
FE
ENDCHAR
STARTCHAR OE
ENCODING -1
SWIDTH 889 0
DWIDTH 13 0
BBX 11 10 1 0
BITMAP
1FE0
6420
4400
8440
87C0
8440
8400
4420
6420
1FE0
ENDCHAR
STARTCHAR Scaron
ENCODING -1
SWIDTH 556 0
DWIDTH 8 0
BBX 6 14 1 0
BITMAP
44
38
10
00
74
CC
84
C0
70
18
04
84
CC
B8
ENDCHAR
STARTCHAR Ydieresis
ENCODING -1
SWIDTH 722 0
DWIDTH 9 0
BBX 9 13 0 0
BITMAP
1200
1200
0000
E380
4100
2200
3200
1400
0800
0800
0800
0800
1C00
ENDCHAR
STARTCHAR Zcaron
ENCODING -1
SWIDTH 611 0
DWIDTH 8 0
BBX 8 14 0 0
BITMAP
22
1C
08
00
7F
43
46
04
08
18
30
60
C1
FF
ENDCHAR
STARTCHAR breve
ENCODING -1
SWIDTH 333 0
DWIDTH 4 0
BBX 4 3 0 8
BITMAP
90
90
60
ENDCHAR
STARTCHAR bullet
ENCODING -1
SWIDTH 350 0
DWIDTH 5 0
BBX 3 4 1 2
BITMAP
40
E0
E0
40
ENDCHAR
STARTCHAR caron
ENCODING -1
SWIDTH 333 0
DWIDTH 5 0
BBX 5 3 0 8
BITMAP
88
70
20
ENDCHAR
STARTCHAR circumflex
ENCODING -1
SWIDTH 333 0
DWIDTH 5 0
BBX 5 3 0 8
BITMAP
20
70
88
ENDCHAR
STARTCHAR dagger
ENCODING -1
SWIDTH 500 0
DWIDTH 7 0
BBX 5 12 1 -2
BITMAP
20
20
20
F8
20
20
20
20
20
20
20
20
ENDCHAR
STARTCHAR daggerdbl
ENCODING -1
SWIDTH 500 0
DWIDTH 7 0
BBX 5 12 1 -2
BITMAP
20
20
20
F8
20
20
20
F8
20
20
20
20
ENDCHAR
STARTCHAR dotaccent
ENCODING -1
SWIDTH 333 0
DWIDTH 5 0
BBX 1 2 2 8
BITMAP
80
80
ENDCHAR
STARTCHAR dotlessi
ENCODING -1
SWIDTH 278 0
DWIDTH 3 0
BBX 3 7 0 0
BITMAP
C0
40
40
40
40
40
E0
ENDCHAR
STARTCHAR ellipsis
ENCODING -1
SWIDTH 1000 0
DWIDTH 15 0
BBX 11 2 2 0
BITMAP
8420
8420
ENDCHAR
STARTCHAR emdash
ENCODING -1
SWIDTH 1000 0
DWIDTH 15 0
BBX 13 1 0 3
BITMAP
FFF8
ENDCHAR
STARTCHAR endash
ENCODING -1
SWIDTH 500 0
DWIDTH 7 0
BBX 7 1 0 3
BITMAP
FE
ENDCHAR
STARTCHAR fi
ENCODING -1
SWIDTH 556 0
DWIDTH 7 0
BBX 7 10 0 0
BITMAP
3C
64
40
FC
44
44
44
44
44
EE
ENDCHAR
STARTCHAR fl
ENCODING -1
SWIDTH 556 0
DWIDTH 7 0
BBX 7 10 0 0
BITMAP
3C
64
44
FC
44
44
44
44
44
EE
ENDCHAR
STARTCHAR florin
ENCODING -1
SWIDTH 500 0
DWIDTH 7 0
BBX 7 13 -1 -3
BITMAP
06
0A
08
08
3C
10
10
10
30
20
20
A0
C0
ENDCHAR
STARTCHAR fraction
ENCODING -1
SWIDTH 167 0
DWIDTH 5 0
BBX 6 10 0 0
BITMAP
0C
08
18
10
30
20
60
40
C0
80
ENDCHAR
STARTCHAR grave
ENCODING -1
SWIDTH 333 0
DWIDTH 5 0
BBX 3 3 1 8
BITMAP
80
C0
20
ENDCHAR
STARTCHAR guilsinglleft
ENCODING -1
SWIDTH 333 0
DWIDTH 5 0
BBX 3 6 1 0
BITMAP
20
40
80
80
40
20
ENDCHAR
STARTCHAR guilsinglright
ENCODING -1
SWIDTH 333 0
DWIDTH 5 0
BBX 3 6 1 0
BITMAP
80
40
20
20
40
80
ENDCHAR
STARTCHAR hungarumlaut
ENCODING -1
SWIDTH 333 0
DWIDTH 6 0
BBX 6 3 0 8
BITMAP
24
6C
90
ENDCHAR
STARTCHAR lslash
ENCODING -1
SWIDTH 278 0
DWIDTH 3 0
BBX 3 10 0 0
BITMAP
C0
40
40
40
60
C0
40
40
40
E0
ENDCHAR
STARTCHAR oe
ENCODING -1
SWIDTH 722 0
DWIDTH 11 0
BBX 10 7 1 0
BITMAP
7700
D980
8F00
8800
8800
DC40
7780
ENDCHAR
STARTCHAR ogonek
ENCODING -1
SWIDTH 333 0
DWIDTH 5 0
BBX 4 3 2 -3
BITMAP
40
90
60
ENDCHAR
STARTCHAR perthousand
ENCODING -1
SWIDTH 1000 0
DWIDTH 14 0
BBX 13 10 0 0
BITMAP
7180
DF00
9200
9600
6C00
0B30
16E8
34C8
64C8
4330
ENDCHAR
STARTCHAR quotedblbase
ENCODING -1
SWIDTH 444 0
DWIDTH 7 0
BBX 5 3 1 -2
BITMAP
D8
48
90
ENDCHAR
STARTCHAR quotedblleft
ENCODING -1
SWIDTH 444 0
DWIDTH 7 0
BBX 5 3 1 7
BITMAP
48
90
D8
ENDCHAR
STARTCHAR quotedblright
ENCODING -1
SWIDTH 444 0
DWIDTH 7 0
BBX 5 3 1 7
BITMAP
D8
48
90
ENDCHAR
STARTCHAR quotesinglbase
ENCODING -1
SWIDTH 333 0
DWIDTH 5 0
BBX 2 3 1 -2
BITMAP
C0
40
80
ENDCHAR
STARTCHAR quotesingle
ENCODING -1
SWIDTH 180 0
DWIDTH 3 0
BBX 1 3 1 7
BITMAP
80
80
80
ENDCHAR
STARTCHAR ring
ENCODING -1
SWIDTH 333 0
DWIDTH 4 0
BBX 3 3 0 8
BITMAP
40
A0
40
ENDCHAR
STARTCHAR scaron
ENCODING -1
SWIDTH 389 0
DWIDTH 6 0
BBX 5 11 1 0
BITMAP
88
70
20
00
70
90
C0
60
30
90
E0
ENDCHAR
STARTCHAR tilde
ENCODING -1
SWIDTH 333 0
DWIDTH 5 0
BBX 5 2 0 8
BITMAP
68
B0
ENDCHAR
STARTCHAR trademark
ENCODING -1
SWIDTH 980 0
DWIDTH 15 0
BBX 13 6 1 4
BITMAP
FB18
A9B0
21B0
2150
2150
7358
ENDCHAR
STARTCHAR zcaron
ENCODING -1
SWIDTH 444 0
DWIDTH 6 0
BBX 6 11 0 0
BITMAP
88
70
20
00
FC
88
18
30
60
C4
FC
ENDCHAR
ENDFONT
