/* XPM */
static char * enter_xpm[] = {
"12 11 3 1",
" 	c None",
".	c black",
"X	c white",
"        ... ",
"        ...X",
"        ...X",
"   .    ...X",
"  ..    ...X",
" ..........X",
"...........X",
"X.........X ",
" X..XXXXXX  ",
"  X.X       ",
"   XX       "};
