<?xml version="1.0" encoding="UTF-8" standalone="no"?>
<svg xmlns="http://www.w3.org/2000/svg"
     xmlns:xlink="http://www.w3.org/1999/xlink"
     width="612px" height="381px" viewBox="0 0 612 381"
     style="stroke:none">
<title>Figure n°0</title>
<desc>
Creator: GL2PS 1.3.2, (C) 1999-2006 Christophe Geuzaine (geuz@geuz.org)
For: Scilab
CreationDate: Wed Apr 27 11:52:33 2011
</desc>
<defs>
</defs>
<polygon fill="#ffffff" points="0,0 612,0 612,381 0,381"/>
<g>
<polygon fill="#ffffff" points="76.5,333.375 76.5,47.625 76.5,47.625"/>
<polygon fill="#ffffff" points="76.5,333.375 76.5,47.625 76.5,333.375"/>
<polygon fill="#ffffff" points="76.5,333.375 535.5,333.375 535.5,333.375"/>
<polygon fill="#ffffff" points="76.5,333.375 535.5,333.375 76.5,333.375"/>
<polygon fill="#ffffff" points="76.5,333.375 535.5,333.375 535.5,47.625"/>
<polygon fill="#ffffff" points="76.5,333.375 535.5,47.625 76.5,47.625"/>
<polyline fill="none" stroke="#000000" stroke-width="0.5" points="76.5,333.375 76.5,47.625 76.5,47.625 535.5,47.625 535.5,333.375 535.5,333.375 76.5,333.375"/>
<polyline fill="none" stroke="#000000" stroke-width="0.5" points="535.5,47.625 76.5,47.625"/>
<polyline fill="none" stroke="#000000" stroke-width="0.5" points="535.5,47.625 535.5,333.375"/>
<polyline fill="none" stroke="#000000" stroke-width="0.5" points="535.5,47.625 535.5,47.625"/>
<polyline fill="none" stroke="#0000ff" stroke-width="0.5" points="260.1,190.5 260.102,190.405 260.107,190.31 260.117,190.214 260.129,190.119 260.146,190.024 260.166,189.929 260.19,189.834 260.218,189.74 260.249,189.646 260.284,189.551 260.322,189.458 260.364,189.364 260.41,189.271 260.459,189.178 260.512,189.086 260.569,188.994 260.629,188.902 260.693,188.812 260.76,188.721 260.831,188.631 260.905,188.542 260.983,188.453 261.064,188.365 261.149,188.277 261.238,188.19 261.33,188.104 261.425,188.019 261.523,187.935 261.625,187.851 261.731,187.768 261.84,187.686 261.952,187.604 262.067,187.524 262.186,187.444 262.308,187.366 262.433,187.288 262.562,187.211 262.693,187.136 262.828,187.062 262.965,186.988 263.106,186.916 263.25,186.844 263.397,186.774 263.547,186.705 263.701,186.637 263.856,186.571 264.016,186.506 264.177,186.441 264.342,186.379 264.51,186.317 264.68,186.257 264.853,186.199 265.029,186.141 265.207,186.085 265.388,186.031 265.572,185.978 265.758,185.926 265.947,185.876 266.138,185.828 266.332,185.78 266.528,185.735 266.727,185.691 266.927,185.648 267.13,185.608 267.336,185.569 267.543,185.531 267.753,185.496 267.965,185.461 268.179,185.429 268.395,185.398 268.613,185.37 268.833,185.342 269.054,185.317 269.278,185.293 269.503,185.271 269.73,185.251 269.959,185.233 270.189,185.217 270.421,185.203 270.655,185.19 270.891,185.18 271.127,185.171 271.365,185.164 271.604,185.159 271.845,185.156 272.087,185.156 272.33,185.157 272.574,185.16 272.819,185.165 273.066,185.172 273.313,185.181 273.562,185.192 273.811,185.206 274.061,185.221 274.312,185.238 274.563,185.258 274.815,185.279 275.068,185.303 275.321,185.329 275.575,185.356 275.829,185.387 276.083,185.418 276.338,185.453 276.594,185.489 276.849,185.528 277.104,185.568 277.36,185.611 277.616,185.656 277.872,185.704 278.127,185.753 278.382,185.805 278.638,185.858 278.893,185.914 279.147,185.972 279.401,186.033 279.655,186.095 279.908,186.16 280.161,186.227 280.414,186.296 280.665,186.367 280.916,186.44 281.166,186.516 281.415,186.594 281.663,186.674 281.91,186.756 282.156,186.84 282.401,186.927 282.646,187.016 282.888,187.107 283.129,187.2 283.37,187.295 283.608,187.393 283.846,187.492 284.082,187.594 284.316,187.698 284.548,187.804 284.779,187.912 285.008,188.022 285.236,188.135 285.461,188.25 285.685,188.366 285.907,188.485 286.126,188.606 286.344,188.729 286.559,188.854 286.772,188.981 286.983,189.11 287.191,189.241 287.398,189.375 287.602,189.51 287.803,189.647 288.001,189.786 288.197,189.927 288.391,190.07 288.581,190.216 288.769,190.363 288.954,190.512 289.136,190.663 289.315,190.815 289.491,190.97 289.665,191.126 289.834,191.285 290.001,191.445 290.165,191.607 290.325,191.771 290.482,191.936 290.636,192.104 290.786,192.272 290.933,192.443 291.076,192.616 291.215,192.79 291.352,192.966 291.484,193.143 291.612,193.322 291.737,193.503 291.858,193.685 291.975,193.869 292.088,194.054 292.197,194.241 292.302,194.429 292.403,194.619 292.5,194.811 292.593,195.003 292.682,195.197 292.766,195.393 292.846,195.589 292.922,195.787 292.993,195.987 293.06,196.188 293.122,196.389 293.18,196.592 293.233,196.796 293.282,197.002 293.327,197.208 293.366,197.416 293.401,197.625 293.431,197.835 293.456,198.045 293.477,198.257 293.492,198.47 293.503,198.684 293.509,198.898 293.509,199.114 293.505,199.331 293.496,199.547 293.482,199.766 293.463,199.984 293.438,200.204 293.409,200.424 293.374,200.645 293.334,200.866 293.289,201.088 293.239,201.311 293.183,201.534 293.122,201.757 293.056,201.981 292.984,202.206 292.907,202.431 292.825,202.656 292.737,202.882 292.644,203.107 292.545,203.334 292.441,203.56 292.331,203.787 292.216,204.014 292.095,204.241 291.969,204.467 291.837,204.694 291.699,204.921 291.556,205.148 291.408,205.375 291.253,205.603 291.093,205.83 290.928,206.056 290.756,206.283 290.58,206.509 290.397,206.735 290.208,206.96 290.015,207.186 289.815,207.411 289.61,207.635 289.399,207.859 289.182,208.083 288.959,208.306 288.731,208.529 288.498,208.751 288.258,208.972 288.013,209.193 287.762,209.413 287.505,209.632 287.243,209.851 286.975,210.068 286.701,210.285 286.421,210.5 286.136,210.716 285.846,210.93 285.549,211.143 285.247,211.354 284.939,211.565 284.626,211.775 284.307,211.984 283.982,212.191 283.652,212.397 283.316,212.603 282.975,212.806 282.628,213.008 282.276,213.209 281.918,213.409 281.555,213.607 281.186,213.803 280.812,213.999 280.432,214.192 280.047,214.384 279.656,214.574 279.261,214.763 278.859,214.95 278.453,215.135 278.042,215.318 277.625,215.5 277.202,215.679 276.775,215.857 276.342,216.033 275.905,216.207 275.462,216.378 275.015,216.548 274.562,216.716 274.104,216.882 273.641,217.045 273.173,217.207 272.701,217.366 272.224,217.523 271.742,217.678 271.255,217.83 270.763,217.98 270.267,218.128 269.766,218.273 269.26,218.416 268.75,218.556 268.236,218.694 267.717,218.829 267.193,218.962 266.666,219.092 266.133,219.22 265.597,219.344 265.057,219.466 264.512,219.586 263.963,219.702 263.41,219.816 262.853,219.927 262.292,220.035 261.728,220.14 261.159,220.243 260.586,220.342 260.011,220.438 259.431,220.532 258.847,220.622 258.26,220.709 257.67,220.793 257.076,220.875 256.479,220.953 255.878,221.027 255.274,221.099 254.667,221.167 254.058,221.232 253.444,221.294 252.828,221.353 252.209,221.408 251.587,221.46 250.962,221.508 250.335,221.553 249.705,221.595 249.072,221.633 248.437,221.668 247.8,221.699 247.16,221.727 246.517,221.751 245.873,221.772 245.226,221.789 244.577,221.803 243.927,221.812 243.274,221.819 242.619,221.822 241.963,221.821 241.305,221.816 240.646,221.808 239.984,221.795 239.321,221.779 238.657,221.76 237.992,221.736 237.325,221.709 236.657,221.678 235.988,221.644 235.318,221.604 234.648,221.562 233.976,221.516 233.304,221.466 232.631,221.412 231.957,221.354 231.283,221.292 230.608,221.226 229.933,221.156 229.258,221.082 228.583,221.004 227.907,220.923 227.232,220.837 226.557,220.748 225.881,220.654 225.207,220.557 224.532,220.455 223.858,220.35 223.184,220.24 222.511,220.126 221.839,220.009 221.167,219.887 220.497,219.762 219.827,219.632 219.158,219.499 218.491,219.361 217.824,219.219 217.159,219.073 216.496,218.923 215.833,218.77 215.173,218.612 214.514,218.45 213.857,218.284 213.202,218.114 212.548,217.94 211.897,217.762 211.248,217.58 210.601,217.394 209.957,217.204 209.314,217.009 208.674,216.811 208.037,216.609 207.403,216.403 206.771,216.193 206.142,215.979 205.516,215.761 204.893,215.539 204.273,215.313 203.656,215.083 203.042,214.849 202.433,214.612 201.826,214.37 201.223,214.125 200.624,213.875 200.028,213.622 199.436,213.365 198.848,213.104 198.265,212.839 197.685,212.571 197.109,212.298 196.538,212.022 195.971,211.743 195.408,211.459 194.85,211.172 194.297,210.881 193.748,210.586 193.204,210.288 192.665,209.986 192.131,209.68 191.602,209.371 191.079,209.058 190.56,208.742 190.046,208.422 189.539,208.099 189.036,207.771 188.539,207.441 188.048,207.107 187.562,206.771 187.083,206.43 186.609,206.086 186.141,205.739 185.679,205.388 185.224,205.034 184.774,204.677 184.331,204.317 183.894,203.954 183.464,203.587 183.04,203.217 182.623,202.844 182.212,202.469 181.809,202.09 181.412,201.708 181.021,201.323 180.639,200.935 180.263,200.544 179.894,200.151 179.532,199.754 179.178,199.355 178.831,198.953 178.491,198.549 178.159,198.141 177.834,197.731 177.518,197.319 177.208,196.904 176.907,196.486 176.613,196.066 176.328,195.643 176.05,195.218 175.78,194.791 175.519,194.361 175.265,193.929 175.02,193.495 174.783,193.058 174.554,192.62 174.334,192.179 174.122,191.736 173.919,191.291 173.724,190.844 173.538,190.396 173.361,189.945 173.192,189.492 173.032,189.038 172.881,188.582 172.739,188.124 172.605,187.665 172.481,187.204 172.366,186.741 172.26,186.276 172.163,185.811 172.076,185.344 171.997,184.875 171.928,184.405 171.868,183.934 171.817,183.462 171.776,182.988 171.745,182.514 171.722,182.038 171.709,181.561 171.707,181.083 171.713,180.605 171.729,180.125 171.755,179.645 171.79,179.164 171.835,178.682 171.891,178.199 171.955,177.716 172.03,177.232 172.114,176.749 172.208,176.264 172.312,175.779 172.427,175.293 172.551,174.808 172.685,174.322 172.829,173.836 172.983,173.35 173.147,172.863 173.321,172.377 173.506,171.891 173.7,171.405 173.904,170.919 174.119,170.433 174.344,169.947 174.578,169.462 174.823,168.978 175.078,168.493 175.344,168.009 175.619,167.526 175.905,167.043 176.2,166.562 176.506,166.08 176.822,165.6 177.149,165.12 177.485,164.641 177.832,164.164 178.189,163.687 178.556,163.211 178.933,162.736 179.32,162.263 179.718,161.791 180.125,161.32 180.543,160.851 180.971,160.382 181.409,159.916 181.857,159.451 182.315,158.987 182.783,158.526 183.262,158.065 183.75,157.607 184.248,157.151 184.756,156.696 185.275,156.244 185.803,155.793 186.341,155.344 186.889,154.898 187.446,154.454 188.014,154.012 188.591,153.572 189.179,153.134 189.775,152.699 190.382,152.267 190.999,151.836 191.624,151.409 192.26,150.984 192.905,150.562 193.559,150.143 194.223,149.726 194.896,149.312 195.579,148.902 196.271,148.494 196.973,148.089 197.683,147.687 198.403,147.289 199.132,146.893 199.87,146.501 200.617,146.112 201.373,145.727 202.138,145.345 202.912,144.966 203.694,144.591 204.486,144.219 205.286,143.852 206.095,143.487 206.912,143.127 207.738,142.77 208.572,142.417 209.415,142.068 210.266,141.723 211.125,141.382 211.992,141.045 212.868,140.712 213.751,140.383 214.643,140.059 215.542,139.739 216.449,139.423 217.364,139.111 218.287,138.804 219.217,138.501 220.154,138.203 221.099,137.909 222.052,137.62 223.011,137.335 223.979,137.055 224.952,136.78 225.933,136.509 226.921,136.244 227.916,135.983 228.917,135.727 229.925,135.477 230.94,135.23 231.961,134.99 232.988,134.754 234.022,134.523 235.062,134.297 236.108,134.077 237.16,133.862 238.218,133.652 239.282,133.448 240.352,133.249 241.427,133.055 242.507,132.867 243.593,132.684 244.685,132.507 245.781,132.335 246.882,132.169 247.989,132.008 249.1,131.854 250.216,131.705 251.337,131.561 252.462,131.423 253.592,131.292 254.727,131.166 255.865,131.045 257.007,130.931 258.154,130.822 259.304,130.72 260.458,130.624 261.616,130.533 262.777,130.448 263.941,130.37 265.109,130.298 266.28,130.231 267.455,130.171 268.632,130.118 269.812,130.07 270.994,130.028 272.179,129.993 273.367,129.964 274.557,129.941 275.749,129.925 276.943,129.915 278.139,129.912 279.337,129.914 280.537,129.923 281.738,129.938 282.941,129.96 284.145,129.989 285.35,130.023 286.557,130.064 287.764,130.112 288.972,130.167 290.181,130.227 291.39,130.294 292.6,130.368 293.81,130.448 295.02,130.535 296.23,130.628 297.44,130.728 298.65,130.834 299.859,130.948 301.068,131.067 302.276,131.194 303.484,131.327 304.69,131.466 305.896,131.612 307.101,131.765 308.304,131.924 309.505,132.09 310.705,132.263 311.904,132.442 313.1,132.628 314.294,132.82 315.487,133.019 316.677,133.225 317.865,133.437 319.05,133.656 320.232,133.881 321.412,134.113 322.589,134.352 323.763,134.597 324.933,134.849 326.1,135.107 327.264,135.373 328.424,135.644 329.58,135.922 330.732,136.207 331.881,136.498 333.025,136.795 334.165,137.099 335.301,137.409 336.432,137.727 337.558,138.05 338.679,138.379 339.795,138.716 340.907,139.058 342.013,139.407 343.113,139.762 344.208,140.124 345.298,140.492 346.382,140.866 347.459,141.246 348.531,141.633 349.597,142.026 350.656,142.425 351.709,142.83 352.755,143.241 353.794,143.659 354.827,144.082 355.853,144.511 356.872,144.947 357.883,145.388 358.887,145.836 359.884,146.289 360.873,146.748 361.854,147.213 362.827,147.684 363.792,148.161 364.75,148.643 365.699,149.131 366.64,149.625 367.572,150.125 368.496,150.629 369.41,151.14 370.316,151.656 371.213,152.177 372.101,152.705 372.98,153.237 373.849,153.774 374.709,154.317 375.56,154.866 376.4,155.419 377.231,155.978 378.052,156.542 378.863,157.11 379.664,157.684 380.454,158.263 381.234,158.847 382.004,159.435 382.763,160.029 383.511,160.627 384.249,161.229 384.975,161.837 385.691,162.45 386.395,163.066 387.088,163.688 387.771,164.313 388.441,164.943 389.1,165.578 389.747,166.217 390.382,166.86 391.006,167.507 391.618,168.158 392.218,168.813 392.805,169.473 393.38,170.136 393.943,170.803 394.494,171.474 395.032,172.149 395.558,172.827 396.071,173.509 396.571,174.195 397.058,174.884 397.533,175.576 397.994,176.272 398.442,176.971 398.877,177.674 399.299,178.379 399.707,179.088 400.102,179.799 400.484,180.514 400.852,181.231 401.206,181.952 401.547,182.675 401.874,183.401 402.187,184.129 402.485,184.86 402.771,185.593 403.042,186.329 403.298,187.067 403.542,187.808 403.77,188.55 403.984,189.295 404.184,190.042 404.369,190.79 404.54,191.541 404.697,192.293 404.838,193.047 404.966,193.803 405.078,194.56 405.176,195.319 405.259,196.079 405.327,196.84 405.38,197.603 405.419,198.367 405.442,199.132 405.451,199.898 405.444,200.666 405.423,201.434 405.386,202.202 405.334,202.972 405.268,203.742 405.186,204.512 405.088,205.284 404.976,206.055 404.848,206.827 404.705,207.599 404.546,208.371 404.373,209.143 404.184,209.916 403.979,210.688 403.76,211.459 403.524,212.231 403.274,213.003 403.008,213.773 402.727,214.544 402.43,215.314 402.117,216.083 401.79,216.852 401.446,217.619 401.088,218.386 400.714,219.151 400.324,219.916 399.919,220.679 399.499,221.441 399.063,222.202 398.612,222.961 398.146,223.719 397.664,224.475 397.167,225.229 396.654,225.982 396.125,226.733 395.583,227.482 395.024,228.229 394.45,228.974 393.861,229.717 393.257,230.457 392.637,231.195 392.002,231.931 391.353,232.664 390.688,233.395 390.008,234.122 389.313,234.847 388.604,235.569 387.878,236.289 387.139,237.005 386.384,237.718 385.615,238.428 384.831,239.135 384.032,239.838 383.218,240.538 382.39,241.234 381.548,241.927 380.69,242.616 379.819,243.302 378.933,243.983 378.033,244.661 377.118,245.334 376.189,246.004 375.247,246.669 374.29,247.331 373.319,247.987 372.334,248.64 371.335,249.288 370.323,249.931 369.297,250.57 368.257,251.204 367.204,251.833 366.137,252.458 365.057,253.077 363.963,253.691 362.857,254.301 361.737,254.905 360.604,255.504 359.458,256.098 358.3,256.686 357.129,257.269 355.945,257.846 354.749,258.417 353.54,258.983 352.318,259.544 351.084,260.098 349.838,260.646 348.581,261.189 347.311,261.726 346.029,262.256 344.736,262.78 343.431,263.298 342.114,263.809 340.787,264.314 339.447,264.813 338.097,265.305 336.735,265.791 335.363,266.27 333.98,266.742 332.586,267.208 331.182,267.666 329.767,268.118 328.341,268.562 326.906,269 325.461,269.431 324.005,269.854 322.54,270.271 321.065,270.68 319.581,271.081 318.087,271.475 316.584,271.862 315.072,272.241 313.551,272.613 312.021,272.977 310.482,273.333 308.935,273.682 307.379,274.023 305.815,274.356 304.244,274.682 302.664,274.999 301.076,275.308 299.48,275.609 297.877,275.902 296.267,276.188 294.649,276.464 293.025,276.733 291.393,276.993 289.755,277.246 288.11,277.489 286.458,277.725 284.801,277.951 283.137,278.169 281.467,278.379 279.792,278.581 278.111,278.773 276.424,278.958 274.732,279.133 273.035,279.299 271.333,279.457 269.626,279.606 267.915,279.747 266.199,279.878 264.479,280 262.755,280.114 261.027,280.219 259.295,280.314 257.559,280.401 255.82,280.479 254.078,280.547 252.333,280.606 250.584,280.657 248.833,280.698 247.08,280.73 245.324,280.753 243.566,280.767 241.806,280.771 240.044,280.767 238.281,280.752 236.516,280.729 234.75,280.696 232.982,280.654 231.214,280.603 229.445,280.542 227.675,280.473 225.905,280.393 224.135,280.304 222.365,280.207 220.595,280.099 218.825,279.982 217.056,279.855 215.288,279.72 213.521,279.575 211.754,279.42 209.99,279.256 208.226,279.083 206.464,278.9 204.705,278.708 202.947,278.506 201.191,278.294 199.438,278.074 197.688,277.844 195.94,277.604 194.195,277.355 192.454,277.098 190.715,276.83 188.98,276.553 187.25,276.267 185.523,275.971 183.8,275.666 182.082,275.351 180.367,275.027 178.658,274.694 176.954,274.352 175.254,274 173.56,273.64 171.871,273.27 170.188,272.89 168.511,272.501 166.839,272.104 165.174,271.697 163.516,271.281 161.863,270.856 160.218,270.421"/>
<polyline fill="none" stroke="#007f00" stroke-width="0.5" points="260.1,190.5 260.103,190.357 260.111,190.214 260.125,190.071 260.144,189.929 260.169,189.787 260.199,189.646 260.235,189.504 260.276,189.364 260.323,189.225 260.375,189.086 260.433,188.948 260.497,188.812 260.565,188.676 260.639,188.542 260.719,188.409 260.803,188.277 260.894,188.147 260.989,188.019 261.09,187.893 261.196,187.768 261.308,187.645 261.425,187.524 261.547,187.405 261.674,187.288 261.807,187.173 261.944,187.062 262.087,186.952 262.235,186.844 262.388,186.739 262.546,186.637 262.709,186.538 262.877,186.441 263.051,186.348 263.229,186.257 263.412,186.17 263.6,186.085 263.792,186.004 263.989,185.926 264.191,185.852 264.398,185.78 264.609,185.713 264.826,185.648 265.046,185.588 265.271,185.531 265.501,185.478 265.735,185.429 265.973,185.384 266.216,185.342 266.463,185.305 266.714,185.271 266.97,185.242 267.229,185.217 267.493,185.196 267.761,185.18 268.032,185.167 268.308,185.159 268.587,185.156 268.87,185.157 269.157,185.162 269.448,185.172 269.742,185.187 270.04,185.206 270.341,185.229 270.646,185.258 270.954,185.291 271.265,185.329 271.58,185.371 271.897,185.418 272.218,185.471 272.542,185.528 272.869,185.59 273.199,185.656 273.531,185.728 273.867,185.805 274.205,185.886 274.545,185.972 274.889,186.063 275.234,186.16 275.583,186.261 275.933,186.367 276.286,186.478 276.641,186.594 276.998,186.715 277.356,186.84 277.717,186.971 278.08,187.107 278.445,187.247 278.812,187.393 279.179,187.543 279.549,187.698 279.92,187.858 280.292,188.022 280.666,188.192 281.041,188.366 281.417,188.545 281.794,188.729 282.172,188.917 282.552,189.11 282.932,189.308 283.312,189.51 283.693,189.716 284.075,189.927 284.458,190.143 284.84,190.363 285.224,190.587 285.607,190.815 285.99,191.048 286.374,191.285 286.757,191.526 287.14,191.771 287.523,192.02 287.906,192.272 288.289,192.529 288.67,192.79 289.052,193.054 289.433,193.322 289.812,193.594 290.192,193.869 290.57,194.147 290.947,194.429 291.323,194.715 291.698,195.003 292.072,195.294 292.444,195.589 292.815,195.887 293.185,196.188 293.552,196.491 293.918,196.796 294.282,197.105 294.644,197.416 295.004,197.73 295.363,198.045 295.719,198.364 296.072,198.684 296.424,199.006 296.772,199.331 297.119,199.656 297.463,199.984 297.804,200.313 298.142,200.645 298.478,200.977 298.81,201.311 299.139,201.646 299.466,201.981 299.789,202.318 300.108,202.656 300.425,202.995 300.737,203.334 301.046,203.673 301.352,204.014 301.654,204.354 301.952,204.694 302.246,205.035 302.536,205.375 302.822,205.716 303.104,206.056 303.381,206.396 303.654,206.735 303.923,207.073 304.187,207.411 304.447,207.748 304.702,208.083 304.952,208.417 305.197,208.751 305.438,209.083 305.673,209.413 305.904,209.741 306.129,210.068 306.349,210.393 306.564,210.716 306.773,211.036 306.977,211.354 307.176,211.67 307.368,211.984 307.556,212.294 307.737,212.603 307.913,212.907 308.082,213.209 308.246,213.508 308.403,213.803 308.555,214.095 308.701,214.384 308.84,214.668 308.973,214.95 309.099,215.227 309.219,215.5 309.333,215.769 309.439,216.033 309.54,216.293 309.633,216.548 309.72,216.799 309.8,217.045 309.874,217.287 309.939,217.523 309.999,217.754 310.051,217.98 310.096,218.201 310.134,218.416 310.165,218.625 310.188,218.829 310.204,219.027 310.213,219.22 310.214,219.406 310.208,219.586 310.194,219.76 310.173,219.927 310.144,220.088 310.107,220.243 310.063,220.391 310.011,220.532 309.952,220.666 309.884,220.793 309.808,220.914 309.725,221.027 309.633,221.134 309.534,221.232 309.426,221.324 309.311,221.408 309.187,221.484 309.056,221.553 308.916,221.615 308.768,221.668 308.611,221.714 308.447,221.751 308.273,221.781 308.092,221.803 307.903,221.816 307.705,221.822 307.499,221.819 307.284,221.808 307.062,221.788 306.83,221.76 306.59,221.723 306.342,221.678 306.084,221.625 305.819,221.562 305.545,221.491 305.263,221.412 304.972,221.323 304.673,221.226 304.365,221.12 304.048,221.004 303.723,220.881 303.39,220.748 303.047,220.606 302.696,220.455 302.337,220.295 301.969,220.126 301.593,219.949 301.208,219.762 300.814,219.566 300.412,219.361 300.001,219.146 299.582,218.923 299.155,218.691 298.718,218.45 298.274,218.199 297.821,217.94 297.359,217.671 296.889,217.394 296.411,217.107 295.924,216.811 295.428,216.506 294.925,216.193 294.413,215.871 293.893,215.539 293.364,215.199 292.827,214.849 292.282,214.491 291.729,214.125 291.167,213.749 290.598,213.365 290.021,212.972 289.435,212.571 288.841,212.161 288.239,211.743 287.63,211.316 287.012,210.881 286.387,210.437 285.753,209.986 285.112,209.526 284.464,209.058 283.807,208.582 283.143,208.099 282.472,207.607 281.792,207.107 281.106,206.601 280.412,206.086 279.71,205.564 279.001,205.034 278.286,204.498 277.562,203.954 276.832,203.402 276.095,202.844 275.35,202.279 274.599,201.708 273.84,201.129 273.075,200.544 272.304,199.953 271.525,199.355 270.74,198.751 269.948,198.141 269.15,197.525 268.346,196.904 267.535,196.276 266.718,195.643 265.895,195.005 265.065,194.361 264.23,193.712 263.389,193.058 262.542,192.399 261.688,191.736 260.83,191.068 259.966,190.396 259.096,189.719 258.221,189.038 257.341,188.353 256.455,187.665 255.564,186.972 254.668,186.276 253.768,185.578 252.862,184.875 251.952,184.17 251.036,183.462 250.117,182.751 249.192,182.038 248.264,181.322 247.331,180.605 246.394,179.885 245.453,179.164 244.508,178.441 243.559,177.716 242.606,176.991 241.649,176.264 240.689,175.536 239.726,174.808 238.759,174.079 237.789,173.35 236.816,172.62 235.84,171.891 234.861,171.162 233.879,170.433 232.895,169.705 231.907,168.978 230.918,168.251 229.926,167.526 228.932,166.802 227.936,166.08 226.938,165.36 225.938,164.641 224.936,163.925 223.933,163.211 222.928,162.5 221.922,161.791 220.914,161.085 219.906,160.382 218.896,159.683 217.886,158.987 216.875,158.295 215.862,157.607 214.85,156.923 213.837,156.244 212.824,155.568 211.811,154.898 210.798,154.232 209.785,153.572 208.772,152.917 207.76,152.267 206.748,151.623 205.737,150.984 204.726,150.352 203.717,149.726 202.708,149.106 201.701,148.494 200.695,147.888 199.69,147.289 198.688,146.697 197.686,146.112 196.687,145.535 195.689,144.966 194.694,144.405 193.701,143.852 192.709,143.307 191.721,142.77 190.736,142.242 189.753,141.723 188.773,141.213 187.796,140.712 186.822,140.221 185.852,139.739 184.885,139.266 183.921,138.804 182.961,138.351 182.006,137.909 181.054,137.477 180.106,137.055 179.163,136.644 178.224,136.244 177.289,135.854 176.359,135.477 175.434,135.109 174.514,134.754 173.599,134.41 172.689,134.077 171.785,133.757 170.886,133.448 169.992,133.151 169.104,132.867 168.223,132.595 167.347,132.335 166.477,132.088 165.614,131.854 164.756,131.632 163.906,131.423 163.062,131.228 162.225,131.045 161.395,130.876 160.572,130.72 159.756,130.578 158.948,130.448 158.147,130.333 157.354,130.231 156.567,130.144 155.79,130.07 155.02,130.01 154.258,129.964 153.504,129.933 152.759,129.915 152.022,129.912 151.294,129.923 150.574,129.949 149.863,129.989 149.162,130.043 148.469,130.112 147.786,130.196 147.111,130.294 146.447,130.407 145.792,130.535 145.146,130.677 144.51,130.834 143.884,131.007 143.269,131.194 142.663,131.396 142.067,131.612 141.482,131.844 140.908,132.09 140.344,132.352 139.791,132.628 139.249,132.919 138.717,133.225 138.196,133.546 137.687,133.881 137.189,134.232 136.702,134.597 136.227,134.978 135.763,135.373 135.311,135.782 134.87,136.207 134.442,136.646 134.025,137.099 133.621,137.567 133.228,138.05 132.848,138.547 132.48,139.058 132.125,139.584 131.781,140.124 131.451,140.678 131.133,141.246 130.828,141.829 130.536,142.425 130.257,143.035 129.991,143.659 129.738,144.296 129.498,144.947 129.271,145.611 129.058,146.289 128.858,146.98 128.672,147.684 128.5,148.401 128.34,149.131 128.195,149.874 128.063,150.629 127.946,151.397 127.842,152.177 127.752,152.97 127.676,153.774 127.614,154.591 127.567,155.419 127.533,156.259 127.514,157.11 127.51,157.973 127.52,158.847 127.543,159.731 127.582,160.627 127.635,161.533 127.703,162.45 127.786,163.376 127.883,164.313 127.995,165.26 128.121,166.217 128.263,167.183 128.419,168.158 128.59,169.143 128.776,170.136 128.978,171.138 129.193,172.149 129.425,173.168 129.671,174.195 129.932,175.229 130.208,176.272 130.5,177.322 130.807,178.379 131.128,179.443 131.465,180.514 131.817,181.591 132.185,182.675 132.567,183.765 132.965,184.86 133.378,185.961 133.807,187.067 134.25,188.179 134.709,189.295 135.184,190.416 135.673,191.541 136.178,192.67 136.698,193.803 137.233,194.939 137.784,196.079 138.35,197.222 138.93,198.367 139.527,199.515 140.138,200.666 140.765,201.818 141.407,202.972 142.063,204.127 142.736,205.284 143.423,206.441 144.125,207.599 144.842,208.757 145.575,209.916 146.322,211.074 147.084,212.231 147.862,213.388 148.654,214.544 149.461,215.699 150.283,216.852 151.12,218.002 151.971,219.151 152.837,220.297 153.718,221.441 154.613,222.582 155.523,223.719 156.448,224.853 157.386,225.982 158.339,227.108 159.307,228.229 160.289,229.346 161.285,230.457 162.294,231.563 163.319,232.664 164.357,233.759 165.409,234.847 166.475,235.929 167.555,237.005 168.648,238.073 169.755,239.135 170.875,240.188 172.01,241.234 173.157,242.272 174.318,243.302 175.492,244.322 176.679,245.334 177.879,246.337 179.092,247.331 180.318,248.314 181.557,249.288 182.808,250.251 184.072,251.204 185.348,252.146 186.637,253.077 187.938,253.997 189.251,254.905 190.577,255.802 191.914,256.686 193.263,257.558 194.624,258.417 195.996,259.264 197.38,260.098 198.775,260.918 200.182,261.726 201.599,262.519 203.028,263.298 204.467,264.062 205.917,264.813 207.378,265.549 208.85,266.27 210.332,266.976 211.824,267.666 213.326,268.341 214.838,269 216.36,269.644 217.892,270.271 219.433,270.881 220.983,271.475 222.543,272.053 224.112,272.613 225.69,273.156 227.277,273.682 228.873,274.191 230.478,274.682 232.09,275.154 233.711,275.609 235.34,276.046 236.977,276.464 238.621,276.864 240.273,277.246 241.933,277.608 243.601,277.951 245.274,278.275 246.956,278.581 248.644,278.867 250.338,279.133 252.04,279.379 253.747,279.606 255.461,279.813 257.18,280 258.906,280.167 260.637,280.314 262.374,280.441 264.115,280.547 265.862,280.633 267.614,280.698 269.371,280.743 271.132,280.767 272.897,280.77 274.667,280.752 276.441,280.714 278.219,280.654 280,280.574 281.785,280.473 283.573,280.35 285.365,280.207 287.159,280.042 288.956,279.855 290.755,279.648 292.558,279.42 294.361,279.17 296.167,278.9 297.976,278.608 299.785,278.294 301.596,277.96 303.408,277.604 305.221,277.228 307.035,276.83 308.85,276.411 310.665,275.971 312.479,275.51 314.295,275.027 316.11,274.524 317.925,274 319.739,273.456 321.552,272.89 323.365,272.304 325.176,271.697 326.986,271.069 328.794,270.421 330.601,269.753 332.405,269.065 334.208,268.356 336.008,267.627 337.805,266.879 339.6,266.11 341.392,265.322 343.18,264.515 344.965,263.688 346.747,262.841 348.525,261.976 350.299,261.091 352.068,260.188 353.833,259.266 355.594,258.325 357.35,257.366 359.101,256.388 360.846,255.393 362.586,254.38 364.32,253.349 366.049,252.301 367.771,251.235 369.488,250.153 371.198,249.053 372.901,247.937 374.597,246.805 376.287,245.656 377.969,244.491 379.643,243.31 381.31,242.114 382.969,240.903 384.62,239.676 386.263,238.435 387.897,237.179 389.522,235.909 391.139,234.625 392.747,233.326 394.345,232.015 395.934,230.69 397.513,229.352 399.083,228.001 400.642,226.638 402.191,225.263 403.729,223.876 405.257,222.477 406.774,221.067 408.281,219.646 409.775,218.214 411.259,216.772 412.731,215.32 414.191,213.858 415.639,212.387 417.075,210.907 418.499,209.417 419.91,207.92 421.308,206.414 422.693,204.9 424.065,203.379 425.424,201.851 426.77,200.315 428.102,198.773 429.42,197.226 430.724,195.672 432.014,194.113 433.289,192.549 434.55,190.98 435.796,189.406 437.028,187.829 438.244,186.248 439.445,184.664 440.631,183.076 441.801,181.486 442.956,179.894 444.094,178.299 445.217,176.704 446.323,175.107 447.413,173.509 448.486,171.912 449.543,170.313 450.583,168.716 451.605,167.119 452.611,165.523 453.6,163.928 454.57,162.335 455.523,160.745 456.459,159.157 457.377,157.572 458.276,155.991 459.158,154.413 460.021,152.839 460.865,151.27 461.691,149.706 462.499,148.146 463.287,146.593 464.056,145.045 464.806,143.503 465.537,141.969 466.249,140.441 466.941,138.921 467.613,137.409 468.266,135.905 468.898,134.41 469.511,132.923 470.104,131.446 470.676,129.979 471.228,128.521 471.759,127.074 472.27,125.638 472.76,124.213 473.23,122.799 473.678,121.398 474.106,120.008 474.513,118.631 474.898,117.268 475.262,115.917 475.604,114.58 475.926,113.256 476.226,111.948 476.504,110.653 476.76,109.375 476.995,108.11 477.208,106.862 477.398,105.63 477.567,104.414 477.714,103.215 477.838,102.032 477.941,100.867 478.021,99.7197 478.079,98.5898 478.114,97.4785 478.126,96.3853 478.117,95.311 478.084,94.2563 478.03,93.2207 477.952,92.2046 477.852,91.2085 477.729,90.2324 477.583,89.2773 477.414,88.3428 477.222,87.4292 477.007,86.5371 476.77,85.6665 476.509,84.8174 476.226,83.9907 475.919,83.1865 475.589,82.4048 475.237,81.6455 474.861,80.9097 474.462,80.1968 474.04,79.5078 473.594,78.8423 473.126,78.2007 472.634,77.583 472.12,76.9897 471.582,76.4209 471.021,75.877 470.437,75.3579 469.829,74.8638 469.198,74.395 468.545,73.9517 467.868,73.5337 467.168,73.1416 466.445,72.7754 465.7,72.4351 464.931,72.1211 464.139,71.8335 463.324,71.5723 462.486,71.3374 461.625,71.1294 460.741,70.9482 459.835,70.7939 458.906,70.6665 457.954,70.5664 456.979,70.4932 455.982,70.4473 454.962,70.4287 453.92,70.438 452.855,70.4741 451.768,70.5381 450.658,70.6294 449.526,70.7485 448.373,70.895 447.196,71.0693 445.998,71.2715 444.778,71.5015 443.536,71.7588 442.271,72.0439 440.986,72.3569 439.679,72.6978 438.35,73.0659 436.999,73.4624 435.627,73.8857 434.234,74.3374 432.82,74.8164 431.385,75.3228 429.928,75.8569 428.451,76.418 426.953,77.0068 425.435,77.623 423.895,78.2661 422.335,78.9365 420.756,79.6338 419.156,80.3584 417.536,81.1094 415.896,81.8872 414.235,82.6919 412.556,83.5229 410.856,84.3799 409.138,85.2632 407.4,86.1729 405.643,87.1084 403.867,88.0693 402.072,89.0562 400.259,90.0684 398.427,91.1055 396.577,92.168 394.708,93.2554 392.821,94.3672 390.917,95.5034 388.994,96.6641 387.054,97.8486 385.096,99.0571 383.122,100.29 381.129,101.545 379.121,102.823 377.095,104.125 375.053,105.449 372.995,106.795 370.92,108.164 368.829,109.554 366.722,110.966 364.6,112.4 362.462,113.854 360.309,115.329 358.141,116.825 355.958,118.34 353.76,119.875 351.548,121.431 349.321,123.005 347.081,124.598 344.826,126.209 342.558,127.839 340.276,129.487 337.981,131.152 335.673,132.835 333.353,134.534 331.02,136.25 328.673,137.982 326.315,139.729 323.945,141.493 321.564,143.271 319.17,145.064 316.766,146.871 314.351,148.692 311.924,150.526 309.487,152.374 307.04,154.234 304.582,156.107 302.115,157.991 299.638,159.887 297.151,161.794 294.656,163.712 292.151,165.64 289.638,167.578 287.116,169.525 284.586,171.481 282.048,173.446 279.503,175.419 276.95,177.399 274.39,179.387 271.823,181.381 269.249,183.382 266.669,185.389 264.083,187.401 261.49,189.418 258.892,191.44 256.289,193.466 253.68,195.495 251.067,197.528 248.449,199.563 245.827,201.601 243.2,203.64 240.57,205.681 237.936,207.722 235.299,209.764 232.659,211.806 230.016,213.847 227.371,215.887 224.723,217.925 222.074,219.962 219.423,221.996 216.771,224.028 214.117,226.056 211.462,228.08 208.808,230.099 206.152,232.114 203.498,234.124 200.842,236.127 198.188,238.125 195.535,240.116 192.882,242.1 190.231,244.076 187.582,246.044 184.935,248.003 182.29,249.954 179.647,251.894 177.007,253.825 174.37,255.745 171.737,257.655 169.107,259.553 166.481,261.439 163.86,263.313 161.243,265.174 158.63,267.022 156.023,268.856 153.421,270.677 150.825,272.482 148.234,274.273 145.65,276.048 143.072,277.808 140.501,279.55 137.937,281.277 135.38,282.986 132.831,284.678 130.29,286.351 127.757,288.006 125.232,289.642 122.716,291.259 120.209,292.856 117.711,294.434 115.223,295.99 112.745,297.526 110.276,299.041"/>
<polyline fill="none" stroke="#000000" stroke-width="0.5" points="127.995,165.26 127.995,165.261"/>
<polygon fill="#ffffee" points="124,161 124,169 132,169"/>
<polygon fill="#ffffee" points="124,161 132,169 132,161"/>
<polyline fill="none" stroke="#007f00" stroke-width="0.5" points="124,161 124,169 132,169 132,161 124,161"/>
<polygon fill="#ffffee" points="124,161 124,169 132,169"/>
<polygon fill="#ffffee" points="124,161 132,169 132,161"/>
<polyline fill="none" stroke="#007f00" stroke-width="0.5" points="124,161 124,169 132,169 132,161 124,161"/>
<polyline fill="none" stroke="#000000" stroke-width="0.5" points="362.462,113.854 362.461,113.855"/>
<polygon fill="#ffffee" points="358,110 358,118 366,118"/>
<polygon fill="#ffffee" points="358,110 366,118 366,110"/>
<polyline fill="none" stroke="#007f00" stroke-width="0.5" points="358,110 358,118 366,118 366,110 358,110"/>
<polygon fill="#ffffee" points="358,110 358,118 366,118"/>
<polygon fill="#ffffee" points="358,110 366,118 366,110"/>
<polyline fill="none" stroke="#007f00" stroke-width="0.5" points="358,110 358,118 366,118 366,110 358,110"/>
<polygon fill="#0000ff" points="381.317,161.987 389.101,165.579 385.447,157.824"/>
<polyline fill="none" stroke="#0000ff" stroke-width="0.5" points="389.1,165.578 389.101,165.579"/>
<polygon fill="#ffffee" points="131.5,137.5 131.5,161.5 169.5,161.5"/>
<polygon fill="#ffffee" points="131.5,137.5 169.5,161.5 169.5,137.5"/>
<polyline fill="none" stroke="#bebebe" stroke-width="0.5" points="131.5,137.5 131.5,161.5 169.5,161.5 169.5,137.5 131.5,137.5"/>
<text fill="#000000" style="stroke:none" x="132" y="147" transform="rotate(0, 132, 147)" font-size="10" font-family="SansSerif" font-style="normal" font-weight="normal">curve</text>
<text fill="#000000" style="stroke:none" x="132" y="160" transform="rotate(0, 132, 160)" font-size="10" font-family="SansSerif" font-style="normal" font-weight="normal">t=4.99</text>
<polygon fill="#ffffee" points="328.5,85.5 328.5,109.5 359.5,109.5"/>
<polygon fill="#ffffee" points="328.5,85.5 359.5,109.5 359.5,85.5"/>
<polyline fill="none" stroke="#bebebe" stroke-width="0.5" points="328.5,85.5 328.5,109.5 359.5,109.5 359.5,85.5 328.5,85.5"/>
<text fill="#000000" style="stroke:none" x="329" y="95" transform="rotate(0, 329, 95)" font-size="10" font-family="SansSerif" font-style="normal" font-weight="normal">curve</text>
<text fill="#000000" style="stroke:none" x="329" y="108" transform="rotate(0, 329, 108)" font-size="10" font-family="SansSerif" font-style="normal" font-weight="normal">t=9</text>
<text fill="#0000ff" style="stroke:none" x="390" y="149" transform="rotate(0, 390, 149)" font-size="10" font-family="SansSerif" font-style="normal" font-weight="normal">spiral</text>
<text fill="#0000ff" style="stroke:none" x="390" y="163" transform="rotate(0, 390, 163)" font-size="10" font-family="SansSerif" font-style="normal" font-weight="normal">t=7.5</text>
<polyline fill="none" stroke="#000000" stroke-width="0.5" points="76.5,333.375 76.5,47.625"/>
<polyline fill="none" stroke="#000000" stroke-width="0.5" points="76.5,333.375 69.6147,333.375"/>
<polyline fill="none" stroke="#000000" stroke-width="0.5" points="76.5,285.75 69.6147,285.75"/>
<polyline fill="none" stroke="#000000" stroke-width="0.5" points="76.5,238.125 69.6147,238.125"/>
<polyline fill="none" stroke="#000000" stroke-width="0.5" points="76.5,190.5 69.6147,190.5"/>
<polyline fill="none" stroke="#000000" stroke-width="0.5" points="76.5,142.875 69.6147,142.875"/>
<polyline fill="none" stroke="#000000" stroke-width="0.5" points="76.5,95.25 69.6147,95.25"/>
<polyline fill="none" stroke="#000000" stroke-width="0.5" points="76.5,47.625 69.6147,47.625"/>
<text fill="#000000" style="stroke:none" x="51" y="338" transform="rotate(-0, 51, 338)" font-size="10" font-family="SansSerif" font-style="normal" font-weight="normal">-15</text>
<text fill="#000000" style="stroke:none" x="50" y="291" transform="rotate(-0, 50, 291)" font-size="10" font-family="SansSerif" font-style="normal" font-weight="normal">-10</text>
<text fill="#000000" style="stroke:none" x="57" y="243" transform="rotate(-0, 57, 243)" font-size="10" font-family="SansSerif" font-style="normal" font-weight="normal">-5</text>
<text fill="#000000" style="stroke:none" x="60" y="195" transform="rotate(-0, 60, 195)" font-size="10" font-family="SansSerif" font-style="normal" font-weight="normal">0</text>
<text fill="#000000" style="stroke:none" x="61" y="148" transform="rotate(-0, 61, 148)" font-size="10" font-family="SansSerif" font-style="normal" font-weight="normal">5</text>
<text fill="#000000" style="stroke:none" x="55" y="100" transform="rotate(-0, 55, 100)" font-size="10" font-family="SansSerif" font-style="normal" font-weight="normal">10</text>
<text fill="#000000" style="stroke:none" x="55" y="53" transform="rotate(-0, 55, 53)" font-size="10" font-family="SansSerif" font-style="normal" font-weight="normal">15</text>
<polyline fill="none" stroke="#000000" stroke-width="0.5" points="76.5,333.375 535.5,333.375"/>
<polyline fill="none" stroke="#000000" stroke-width="0.5" points="76.5,333.375 76.5,337.65"/>
<polyline fill="none" stroke="#000000" stroke-width="0.5" points="168.3,333.375 168.3,337.65"/>
<polyline fill="none" stroke="#000000" stroke-width="0.5" points="260.1,333.375 260.1,337.65"/>
<polyline fill="none" stroke="#000000" stroke-width="0.5" points="351.9,333.375 351.9,337.65"/>
<polyline fill="none" stroke="#000000" stroke-width="0.5" points="443.7,333.375 443.7,337.65"/>
<polyline fill="none" stroke="#000000" stroke-width="0.5" points="535.5,333.375 535.5,337.65"/>
<polyline fill="none" stroke="#000000" stroke-width="0.5" points="94.8599,333.375 94.8599,335.94"/>
<polyline fill="none" stroke="#000000" stroke-width="0.5" points="113.22,333.375 113.22,335.94"/>
<polyline fill="none" stroke="#000000" stroke-width="0.5" points="131.58,333.375 131.58,335.94"/>
<polyline fill="none" stroke="#000000" stroke-width="0.5" points="149.94,333.375 149.94,335.94"/>
<polyline fill="none" stroke="#000000" stroke-width="0.5" points="186.66,333.375 186.66,335.94"/>
<polyline fill="none" stroke="#000000" stroke-width="0.5" points="205.02,333.375 205.02,335.94"/>
<polyline fill="none" stroke="#000000" stroke-width="0.5" points="223.38,333.375 223.38,335.94"/>
<polyline fill="none" stroke="#000000" stroke-width="0.5" points="241.74,333.375 241.74,335.94"/>
<polyline fill="none" stroke="#000000" stroke-width="0.5" points="278.46,333.375 278.46,335.94"/>
<polyline fill="none" stroke="#000000" stroke-width="0.5" points="296.82,333.375 296.82,335.94"/>
<polyline fill="none" stroke="#000000" stroke-width="0.5" points="315.18,333.375 315.18,335.94"/>
<polyline fill="none" stroke="#000000" stroke-width="0.5" points="333.54,333.375 333.54,335.94"/>
<polyline fill="none" stroke="#000000" stroke-width="0.5" points="370.26,333.375 370.26,335.94"/>
<polyline fill="none" stroke="#000000" stroke-width="0.5" points="388.62,333.375 388.62,335.94"/>
<polyline fill="none" stroke="#000000" stroke-width="0.5" points="406.98,333.375 406.98,335.94"/>
<polyline fill="none" stroke="#000000" stroke-width="0.5" points="425.34,333.375 425.34,335.94"/>
<polyline fill="none" stroke="#000000" stroke-width="0.5" points="462.06,333.375 462.06,335.94"/>
<polyline fill="none" stroke="#000000" stroke-width="0.5" points="480.42,333.375 480.42,335.94"/>
<polyline fill="none" stroke="#000000" stroke-width="0.5" points="498.78,333.375 498.78,335.94"/>
<polyline fill="none" stroke="#000000" stroke-width="0.5" points="517.14,333.375 517.14,335.94"/>
<text fill="#000000" style="stroke:none" x="67" y="349" transform="rotate(-0, 67, 349)" font-size="10" font-family="SansSerif" font-style="normal" font-weight="normal">-10</text>
<text fill="#000000" style="stroke:none" x="163" y="349" transform="rotate(-0, 163, 349)" font-size="10" font-family="SansSerif" font-style="normal" font-weight="normal">-5</text>
<text fill="#000000" style="stroke:none" x="256" y="349" transform="rotate(-0, 256, 349)" font-size="10" font-family="SansSerif" font-style="normal" font-weight="normal">0</text>
<text fill="#000000" style="stroke:none" x="348" y="349" transform="rotate(-0, 348, 349)" font-size="10" font-family="SansSerif" font-style="normal" font-weight="normal">5</text>
<text fill="#000000" style="stroke:none" x="437" y="349" transform="rotate(-0, 437, 349)" font-size="10" font-family="SansSerif" font-style="normal" font-weight="normal">10</text>
<text fill="#000000" style="stroke:none" x="529" y="349" transform="rotate(-0, 529, 349)" font-size="10" font-family="SansSerif" font-style="normal" font-weight="normal">15</text>
</g>
</svg>
