<?xml version="1.0" encoding="UTF-8" standalone="no"?>
<svg xmlns="http://www.w3.org/2000/svg"
     xmlns:xlink="http://www.w3.org/1999/xlink"
     width="612px" height="381px" viewBox="0 0 612 381"
     style="stroke:none">
<title>Figure n°0</title>
<desc>
Creator: GL2PS 1.3.2, (C) 1999-2006 Christophe Geuzaine (geuz@geuz.org)
For: Scilab
CreationDate: Wed Apr 27 17:49:42 2011
</desc>
<defs>
</defs>
<polygon fill="#ffffff" points="0,0 612,0 612,381 0,381"/>
<g>
<polygon fill="#ffffff" points="76.5,333.375 76.5,47.625 76.5,47.625"/>
<polygon fill="#ffffff" points="76.5,333.375 76.5,47.625 76.5,333.375"/>
<polygon fill="#ffffff" points="76.5,333.375 535.5,333.375 535.5,333.375"/>
<polygon fill="#ffffff" points="76.5,333.375 535.5,333.375 76.5,333.375"/>
<polygon fill="#ffffff" points="76.5,333.375 535.5,333.375 535.5,47.625"/>
<polygon fill="#ffffff" points="76.5,333.375 535.5,47.625 76.5,47.625"/>
<polyline fill="none" stroke="#000000" stroke-width="0.5" points="76.5,333.375 76.5,47.625 76.5,47.625 535.5,47.625 535.5,333.375 535.5,333.375 76.5,333.375"/>
<polyline fill="none" stroke="#000000" stroke-width="0.5" points="535.5,47.625 76.5,47.625"/>
<polyline fill="none" stroke="#000000" stroke-width="0.5" points="535.5,47.625 535.5,333.375"/>
<polyline fill="none" stroke="#000000" stroke-width="0.5" points="535.5,47.625 535.5,47.625"/>
<polyline fill="none" stroke="#0000ff" stroke-width="0.5" points="76.5,242.415 76.9595,242.571 77.4189,242.742 77.8784,242.929 78.3379,243.13 78.7974,243.346 79.2568,243.576 79.7163,243.82 80.1758,244.078 80.6353,244.349 81.0947,244.633 81.5542,244.93 82.0137,245.239 82.4731,245.56 82.9326,245.892 83.3921,246.234 83.8516,246.587 84.311,246.95 84.7705,247.321 85.2295,247.702 85.689,248.09 86.1484,248.486 86.6079,248.889 87.0674,249.298 87.5269,249.713 87.9863,250.133 88.4458,250.557 88.9053,250.984 89.3647,251.415 89.8242,251.848 90.2837,252.283 90.7432,252.719 91.2026,253.155 91.6621,253.59 92.1216,254.025 92.5811,254.458 93.0405,254.888 93.5,255.314 93.9595,255.737 94.4189,256.156 94.8784,256.569 95.3379,256.976 95.7974,257.377 96.2568,257.77 96.7163,258.155 97.1758,258.532 97.6353,258.899 98.0947,259.257 98.5542,259.604 99.0137,259.939 99.4731,260.264 99.9326,260.576 100.392,260.875 100.852,261.161 101.311,261.432 101.77,261.69 102.229,261.933 102.689,262.16 103.148,262.372 103.608,262.567 104.067,262.746 104.527,262.908 104.986,263.053 105.446,263.181 105.905,263.29 106.365,263.382 106.824,263.455 107.284,263.51 107.743,263.546 108.203,263.563 108.662,263.562 109.122,263.541 109.581,263.501 110.041,263.442 110.5,263.364 110.959,263.267 111.419,263.151 111.878,263.016 112.338,262.862 112.797,262.69 113.257,262.5 113.716,262.291 114.176,262.063 114.635,261.819 115.095,261.557 115.554,261.278 116.014,260.982 116.473,260.67 116.933,260.342 117.392,259.999 117.852,259.641 118.311,259.268 118.77,258.881 119.229,258.481 119.689,258.068 120.148,257.644 120.608,257.207 121.067,256.759 121.527,256.301 121.986,255.833 122.446,255.357 122.905,254.872 123.365,254.38 123.824,253.881 124.284,253.376 124.743,252.866 125.203,252.351 125.662,251.833 126.122,251.312 126.581,250.789 127.041,250.265 127.5,249.74 127.959,249.216 128.419,248.693 128.878,248.173 129.338,247.655 129.797,247.142 130.257,246.633 130.716,246.129 131.176,245.632 131.635,245.143 132.095,244.661 132.554,244.188 133.014,243.724 133.473,243.271 133.933,242.829 134.392,242.399 134.852,241.982 135.311,241.578 135.77,241.188 136.229,240.813 136.689,240.454 137.148,240.111 137.608,239.785 138.067,239.476 138.527,239.185 138.986,238.913 139.446,238.659 139.905,238.426 140.365,238.212 140.824,238.019 141.284,237.847 141.743,237.696 142.203,237.567 142.662,237.46 143.122,237.376 143.581,237.314 144.041,237.275 144.5,237.259 144.959,237.266 145.419,237.296 145.878,237.35 146.338,237.427 146.797,237.527 147.257,237.651 147.716,237.799 148.176,237.97 148.635,238.163 149.095,238.38 149.554,238.62 150.014,238.881 150.473,239.166 150.933,239.472 151.392,239.799 151.852,240.148 152.311,240.517 152.77,240.907 153.229,241.316 153.689,241.745 154.148,242.192 154.608,242.657 155.067,243.14 155.527,243.64 155.986,244.155 156.446,244.686 156.905,245.232 157.365,245.791 157.824,246.363 158.284,246.948 158.743,247.544 159.203,248.15 159.662,248.766 160.122,249.391 160.581,250.023 161.041,250.662 161.5,251.307 161.959,251.957 162.419,252.61 162.878,253.267 163.338,253.924 163.797,254.583 164.257,255.242 164.716,255.898 165.176,256.553 165.635,257.205 166.095,257.851 166.554,258.492 167.014,259.126 167.473,259.753 167.933,260.371 168.392,260.979 168.852,261.577 169.311,262.163 169.77,262.735 170.229,263.294 170.689,263.838 171.148,264.367 171.608,264.878 172.067,265.373 172.527,265.848 172.986,266.304 173.446,266.74 173.905,267.155 174.365,267.548 174.824,267.918 175.284,268.265 175.743,268.587 176.203,268.885 176.662,269.157 177.122,269.403 177.581,269.623 178.041,269.815 178.5,269.979 178.959,270.116 179.419,270.224 179.878,270.302 180.338,270.352 180.797,270.372 181.257,270.362 181.716,270.322 182.176,270.252 182.635,270.151 183.095,270.021 183.554,269.859 184.014,269.667 184.473,269.446 184.933,269.193 185.392,268.911 185.852,268.6 186.311,268.258 186.771,267.887 187.229,267.488 187.689,267.06 188.148,266.604 188.608,266.12 189.067,265.609 189.527,265.073 189.986,264.51 190.446,263.922 190.905,263.311 191.365,262.675 191.824,262.017 192.284,261.337 192.743,260.636 193.203,259.915 193.662,259.174 194.122,258.416 194.581,257.641 195.041,256.85 195.5,256.044 195.959,255.224 196.419,254.392 196.878,253.549 197.338,252.695 197.797,251.833 198.257,250.963 198.716,250.087 199.176,249.206 199.635,248.322 200.095,247.435 200.554,246.547 201.014,245.661 201.473,244.776 201.933,243.895 202.392,243.018 202.852,242.147 203.311,241.284 203.771,240.431 204.229,239.587 204.689,238.756 205.148,237.938 205.608,237.135 206.067,236.348 206.527,235.578 206.986,234.827 207.446,234.096 207.905,233.387 208.365,232.701 208.824,232.039 209.284,231.402 209.743,230.792 210.203,230.21 210.662,229.658 211.122,229.135 211.581,228.644 212.041,228.184 212.5,227.759 212.959,227.367 213.419,227.012 213.878,226.692 214.338,226.41 214.797,226.165 215.257,225.959 215.716,225.793 216.176,225.667 216.635,225.581 217.095,225.537 217.554,225.534 218.014,225.574 218.473,225.656 218.933,225.781 219.392,225.949 219.852,226.161 220.311,226.416 220.771,226.714 221.229,227.057 221.689,227.442 222.148,227.871 222.608,228.343 223.067,228.858 223.527,229.416 223.986,230.016 224.446,230.658 224.905,231.341 225.365,232.064 225.824,232.828 226.284,233.631 226.743,234.473 227.203,235.352 227.662,236.267 228.122,237.219 228.581,238.205 229.041,239.225 229.5,240.277 229.959,241.36 230.419,242.474 230.878,243.616 231.338,244.785 231.797,245.979 232.257,247.198 232.716,248.44 233.176,249.702 233.635,250.984 234.095,252.283 234.554,253.598 235.014,254.928 235.473,256.269 235.933,257.621 236.392,258.98 236.852,260.347 237.311,261.717 237.771,263.09 238.229,264.464 238.689,265.835 239.148,267.203 239.608,268.564 240.067,269.918 240.527,271.261 240.986,272.591 241.446,273.907 241.905,275.206 242.365,276.485 242.824,277.744 243.284,278.979 243.743,280.188 244.203,281.369 244.662,282.519 245.122,283.638 245.581,284.722 246.041,285.769 246.5,286.777 246.959,287.745 247.419,288.669 247.878,289.549 248.338,290.381 248.797,291.165 249.257,291.897 249.716,292.576 250.176,293.201 250.635,293.769 251.095,294.278 251.554,294.727 252.014,295.114 252.473,295.438 252.933,295.697 253.392,295.889 253.852,296.014 254.311,296.068 254.771,296.052 255.229,295.964 255.689,295.803 256.148,295.568 256.608,295.257 257.067,294.871 257.527,294.407 257.986,293.865 258.446,293.244 258.905,292.544 259.365,291.764 259.824,290.904 260.284,289.963 260.743,288.941 261.203,287.838 261.662,286.654 262.122,285.388 262.581,284.041 263.041,282.613 263.5,281.104 263.959,279.514 264.419,277.844 264.878,276.095 265.338,274.266 265.797,272.359 266.257,270.375 266.716,268.313 267.176,266.177 267.635,263.965 268.095,261.681 268.554,259.324 269.014,256.896 269.473,254.398 269.933,251.833 270.392,249.201 270.852,246.505 271.311,243.745 271.771,240.925 272.229,238.045 272.689,235.108 273.148,232.117 273.608,229.071 274.067,225.976 274.527,222.832 274.986,219.641 275.446,216.407 275.905,213.132 276.365,209.818 276.824,206.467 277.284,203.083 277.743,199.669 278.203,196.227 278.662,192.759 279.122,189.269 279.581,185.759 280.041,182.232 280.5,178.692 280.959,175.142 281.419,171.583 281.878,168.021 282.338,164.456 282.797,160.893 283.257,157.334 283.716,153.784 284.176,150.244 284.635,146.718 285.095,143.209 285.554,139.72 286.014,136.254 286.473,132.815 286.933,129.406 287.392,126.029 287.852,122.687 288.311,119.384 288.771,116.123 289.229,112.906 289.689,109.737 290.148,106.619 290.608,103.554 291.067,100.545 291.527,97.5952 291.986,94.707 292.446,91.8833 292.905,89.127 293.365,86.4399 293.824,83.8252 294.284,81.2847 294.743,78.8218 295.203,76.438 295.662,74.1357 296.122,71.917 296.581,69.7847 297.041,67.7397 297.5,65.7852 297.959,63.9219 298.419,62.1523 298.878,60.4775 299.338,58.8999 299.797,57.4204 300.257,56.0405 300.716,54.7617 301.176,53.585 301.635,52.5117 302.095,51.5425 302.554,50.6787 303.014,49.9214 303.473,49.271 303.933,48.7275 304.392,48.2925 304.852,47.9658 305.311,47.7476 305.771,47.6387 306.229,47.6387 306.689,47.7476 307.148,47.9658 307.608,48.2925 308.067,48.7275 308.527,49.271 308.986,49.9214 309.446,50.6787 309.905,51.5425 310.365,52.5117 310.824,53.585 311.284,54.7617 311.743,56.0405 312.203,57.4204 312.662,58.8999 313.122,60.4775 313.581,62.1523 314.041,63.9219 314.5,65.7852 314.959,67.7397 315.419,69.7847 315.878,71.917 316.338,74.1357 316.797,76.438 317.257,78.8218 317.716,81.2847 318.176,83.8252 318.635,86.4399 319.095,89.127 319.554,91.8833 320.014,94.707 320.473,97.5952 320.933,100.545 321.392,103.554 321.852,106.619 322.311,109.737 322.771,112.906 323.229,116.123 323.689,119.384 324.148,122.687 324.608,126.029 325.067,129.406 325.527,132.815 325.986,136.254 326.446,139.72 326.905,143.209 327.365,146.718 327.824,150.244 328.284,153.784 328.743,157.334 329.203,160.893 329.662,164.456 330.122,168.021 330.581,171.583 331.041,175.142 331.5,178.692 331.959,182.232 332.419,185.759 332.878,189.269 333.338,192.759 333.797,196.227 334.257,199.669 334.716,203.083 335.176,206.467 335.635,209.818 336.095,213.132 336.554,216.407 337.014,219.641 337.473,222.832 337.933,225.976 338.392,229.071 338.852,232.117 339.311,235.108 339.771,238.045 340.229,240.925 340.689,243.745 341.148,246.505 341.608,249.201 342.067,251.833 342.527,254.398 342.986,256.896 343.446,259.324 343.905,261.681 344.365,263.965 344.824,266.177 345.284,268.313 345.743,270.375 346.203,272.359 346.662,274.266 347.122,276.095 347.581,277.844 348.041,279.514 348.5,281.104 348.959,282.613 349.419,284.041 349.878,285.388 350.338,286.654 350.797,287.838 351.257,288.941 351.716,289.963 352.176,290.904 352.635,291.764 353.095,292.544 353.554,293.244 354.014,293.865 354.473,294.407 354.933,294.871 355.392,295.257 355.852,295.568 356.311,295.803 356.771,295.964 357.229,296.052 357.689,296.068 358.148,296.014 358.608,295.889 359.067,295.697 359.527,295.438 359.986,295.114 360.446,294.727 360.905,294.278 361.365,293.769 361.824,293.201 362.284,292.576 362.743,291.897 363.203,291.165 363.662,290.381 364.122,289.549 364.581,288.669 365.041,287.745 365.5,286.777 365.959,285.769 366.419,284.722 366.878,283.638 367.338,282.519 367.797,281.369 368.257,280.188 368.716,278.979 369.176,277.744 369.635,276.485 370.095,275.206 370.554,273.907 371.014,272.591 371.473,271.261 371.933,269.918 372.392,268.564 372.852,267.203 373.311,265.835 373.771,264.464 374.229,263.09 374.689,261.717 375.148,260.347 375.608,258.98 376.067,257.621 376.527,256.269 376.986,254.928 377.446,253.598 377.905,252.283 378.365,250.984 378.824,249.702 379.284,248.44 379.743,247.198 380.203,245.979 380.662,244.785 381.122,243.616 381.581,242.474 382.041,241.36 382.5,240.277 382.959,239.225 383.419,238.205 383.878,237.219 384.338,236.267 384.797,235.352 385.257,234.473 385.716,233.631 386.176,232.828 386.635,232.064 387.095,231.341 387.554,230.658 388.014,230.016 388.473,229.416 388.933,228.858 389.392,228.343 389.852,227.871 390.311,227.442 390.771,227.057 391.229,226.714 391.689,226.416 392.148,226.161 392.608,225.949 393.067,225.781 393.527,225.656 393.986,225.574 394.446,225.534 394.905,225.537 395.365,225.581 395.824,225.667 396.284,225.793 396.743,225.959 397.203,226.165 397.662,226.41 398.122,226.692 398.581,227.012 399.041,227.367 399.5,227.759 399.959,228.184 400.419,228.644 400.878,229.135 401.338,229.658 401.797,230.21 402.257,230.792 402.716,231.402 403.176,232.039 403.635,232.701 404.095,233.387 404.554,234.096 405.014,234.827 405.473,235.578 405.933,236.348 406.392,237.135 406.852,237.938 407.311,238.756 407.771,239.587 408.229,240.431 408.689,241.284 409.148,242.147 409.608,243.018 410.067,243.895 410.527,244.776 410.986,245.661 411.446,246.547 411.905,247.435 412.365,248.322 412.824,249.206 413.284,250.087 413.743,250.963 414.203,251.833 414.662,252.695 415.122,253.549 415.581,254.392 416.041,255.224 416.5,256.044 416.959,256.85 417.419,257.641 417.878,258.416 418.338,259.174 418.797,259.915 419.257,260.636 419.716,261.337 420.176,262.017 420.635,262.675 421.095,263.311 421.554,263.922 422.014,264.51 422.473,265.073 422.933,265.609 423.392,266.12 423.852,266.604 424.311,267.06 424.771,267.488 425.229,267.887 425.689,268.258 426.148,268.6 426.608,268.911 427.067,269.193 427.527,269.446 427.986,269.667 428.446,269.859 428.905,270.021 429.365,270.151 429.824,270.252 430.284,270.322 430.743,270.362 431.203,270.372 431.662,270.352 432.122,270.302 432.581,270.224 433.041,270.116 433.5,269.979 433.959,269.815 434.419,269.623 434.878,269.403 435.338,269.157 435.797,268.885 436.257,268.587 436.716,268.265 437.176,267.918 437.635,267.548 438.095,267.155 438.554,266.74 439.014,266.304 439.473,265.848 439.933,265.373 440.392,264.878 440.852,264.367 441.311,263.838 441.771,263.294 442.23,262.735 442.689,262.163 443.148,261.577 443.608,260.979 444.067,260.371 444.527,259.753 444.986,259.126 445.446,258.492 445.905,257.851 446.365,257.205 446.824,256.553 447.284,255.898 447.743,255.242 448.203,254.583 448.662,253.924 449.122,253.267 449.581,252.61 450.041,251.957 450.5,251.307 450.959,250.662 451.419,250.023 451.878,249.391 452.338,248.766 452.797,248.15 453.257,247.544 453.716,246.948 454.176,246.363 454.635,245.791 455.095,245.232 455.554,244.686 456.014,244.155 456.473,243.64 456.933,243.14 457.392,242.657 457.852,242.192 458.311,241.745 458.771,241.316 459.23,240.907 459.689,240.517 460.148,240.148 460.608,239.799 461.067,239.472 461.527,239.166 461.986,238.881 462.446,238.62 462.905,238.38 463.365,238.163 463.824,237.97 464.284,237.799 464.743,237.651 465.203,237.527 465.662,237.427 466.122,237.35 466.581,237.296 467.041,237.266 467.5,237.259 467.959,237.275 468.419,237.314 468.878,237.376 469.338,237.46 469.797,237.567 470.257,237.696 470.716,237.847 471.176,238.019 471.635,238.212 472.095,238.426 472.554,238.659 473.014,238.913 473.473,239.185 473.933,239.476 474.392,239.785 474.852,240.111 475.311,240.454 475.771,240.813 476.23,241.188 476.689,241.578 477.148,241.982 477.608,242.399 478.067,242.829 478.527,243.271 478.986,243.724 479.446,244.188 479.905,244.661 480.365,245.143 480.824,245.632 481.284,246.129 481.743,246.633 482.203,247.142 482.662,247.655 483.122,248.173 483.581,248.693 484.041,249.216 484.5,249.74 484.959,250.265 485.419,250.789 485.878,251.312 486.338,251.833 486.797,252.351 487.257,252.866 487.716,253.376 488.176,253.881 488.635,254.38 489.095,254.872 489.554,255.357 490.014,255.833 490.473,256.301 490.933,256.759 491.392,257.207 491.852,257.644 492.311,258.068 492.771,258.481 493.23,258.881 493.689,259.268 494.148,259.641 494.608,259.999 495.067,260.342 495.527,260.67 495.986,260.982 496.446,261.278 496.905,261.557 497.365,261.819 497.824,262.063 498.284,262.291 498.743,262.5 499.203,262.69 499.662,262.862 500.122,263.016 500.581,263.151 501.041,263.267 501.5,263.364 501.959,263.442 502.419,263.501 502.878,263.541 503.338,263.562 503.797,263.563 504.257,263.546 504.716,263.51 505.176,263.455 505.635,263.382 506.095,263.29 506.554,263.181 507.014,263.053 507.473,262.908 507.933,262.746 508.392,262.567 508.852,262.372 509.311,262.16 509.771,261.933 510.23,261.69 510.689,261.432 511.148,261.161 511.608,260.875 512.067,260.576 512.527,260.264 512.986,259.939 513.446,259.604 513.905,259.257 514.365,258.899 514.824,258.532 515.284,258.155 515.743,257.77 516.203,257.377 516.662,256.976 517.122,256.569 517.581,256.156 518.041,255.737 518.5,255.314 518.959,254.888 519.419,254.458 519.878,254.025 520.338,253.59 520.797,253.155 521.257,252.719 521.716,252.283 522.176,251.848 522.635,251.415 523.095,250.984 523.554,250.557 524.014,250.133 524.473,249.713 524.933,249.298 525.392,248.889 525.852,248.486 526.311,248.09 526.771,247.702 527.229,247.321 527.689,246.95 528.148,246.587 528.608,246.234 529.067,245.892 529.527,245.56 529.986,245.239 530.446,244.93 530.905,244.633 531.365,244.349 531.824,244.078 532.284,243.82 532.743,243.576 533.203,243.346 533.662,243.13 534.122,242.929 534.581,242.742 535.041,242.571 535.5,242.415"/>
<polyline fill="none" stroke="#007f00" stroke-width="0.5" points="76.5,252.167 76.9595,251.45 77.4189,251.31 77.8784,252.037 78.3379,252.145 78.7974,251.41 79.2568,251.326 79.7163,252.066 80.1758,252.136 80.6353,251.391 81.0947,251.326 81.5542,252.075 82.0137,252.145 82.4731,251.393 82.9326,251.309 83.3921,252.062 83.8516,252.17 84.311,251.417 84.7705,251.275 85.2295,252.025 85.689,252.21 86.1484,251.469 86.6079,251.23 87.0674,251.958 87.5269,252.257 87.9863,251.554 88.4458,251.185 88.9053,251.854 89.3647,252.298 89.8242,251.676 90.2837,251.155 90.7432,251.713 91.2026,252.312 91.6621,251.834 92.1216,251.163 92.5811,251.54 93.0405,252.274 93.5,252.019 93.9595,251.236 94.4189,251.353 94.8784,252.161 95.3379,252.198 95.7974,251.394 96.2568,251.191 96.7163,251.957 97.1758,252.327 97.6353,251.641 98.0947,251.111 98.5542,251.675 99.0137,252.345 99.4731,251.944 99.9326,251.169 100.392,251.368 100.852,252.201 101.311,252.229 101.77,251.401 102.229,251.134 102.689,251.888 103.148,252.383 103.608,251.777 104.067,251.09 104.527,251.479 104.986,252.296 105.446,252.177 105.905,251.315 106.365,251.139 106.824,251.942 107.284,252.407 107.743,251.769 108.203,251.065 108.662,251.442 109.122,252.293 109.581,252.245 110.041,251.372 110.5,251.068 110.959,251.823 111.419,252.439 111.878,251.941 112.338,251.108 112.797,251.249 113.257,252.147 113.716,252.406 114.176,251.621 114.635,251 115.095,251.502 115.554,252.361 116.014,252.267 116.473,251.358 116.933,251.008 117.392,251.748 117.852,252.47 118.311,252.095 118.77,251.175 119.229,251.074 119.689,251.945 120.148,252.51 120.608,251.94 121.067,251.062 121.527,251.149 121.986,252.082 122.446,252.519 122.905,251.831 123.365,250.996 123.824,251.201 124.284,252.16 124.743,252.525 125.203,251.78 125.662,250.961 126.122,251.208 126.581,252.184 127.041,252.545 127.5,251.793 127.959,250.951 128.419,251.164 128.878,252.149 129.338,252.581 129.797,251.876 130.257,250.973 130.716,251.071 131.176,252.046 131.635,252.616 132.095,252.031 132.554,251.049 133.014,250.947 133.473,251.86 133.933,252.617 134.392,252.246 134.852,251.215 135.311,250.832 135.77,251.583 136.229,252.529 136.689,252.485 137.148,251.501 137.608,250.794 138.067,251.239 138.527,252.293 138.986,252.672 139.446,251.91 139.905,250.925 140.365,250.904 140.824,251.876 141.284,252.686 141.743,252.371 142.203,251.298 142.662,250.725 143.122,251.325 143.581,252.405 144.041,252.716 144.5,251.896 144.959,250.879 145.419,250.827 145.878,251.801 146.338,252.708 146.797,252.527 147.257,251.456 147.716,250.681 148.176,251.062 148.635,252.184 149.095,252.823 149.554,252.28 150.014,251.138 150.473,250.625 150.933,251.294 151.392,252.438 151.852,252.844 152.311,252.082 152.77,250.945 153.229,250.618 153.689,251.445 154.148,252.577 154.608,252.853 155.067,251.987 155.527,250.853 155.986,250.595 156.446,251.477 156.905,252.623 157.365,252.896 157.824,252.022 158.284,250.854 158.743,250.532 159.203,251.372 159.662,252.569 160.122,252.975 160.581,252.198 161.041,250.971 161.5,250.449 161.959,251.126 162.419,252.376 162.878,253.042 163.338,252.507 163.797,251.256 164.257,250.425 164.716,250.77 165.176,251.985 165.635,252.988 166.095,252.884 166.554,251.76 167.014,250.599 167.473,250.416 167.933,251.375 168.392,252.652 168.852,253.155 169.311,252.449 169.77,251.128 170.229,250.301 170.689,250.663 171.148,251.918 171.608,253.035 172.067,253.093 172.527,252.042 172.986,250.727 173.446,250.208 173.905,250.903 174.365,252.267 174.824,253.224 175.284,253.02 175.743,251.808 176.203,250.523 176.662,250.155 177.122,250.989 177.581,252.398 178.041,253.32 178.5,253.062 178.959,251.81 179.419,250.485 179.878,250.062 180.338,250.853 180.797,252.292 181.257,253.345 181.716,253.257 182.176,252.084 182.635,250.649 183.095,249.955 183.554,250.49 184.014,251.889 184.473,253.198 184.933,253.524 185.392,252.642 185.852,251.138 186.311,250.011 186.771,250.01 187.229,251.141 187.689,252.672 188.148,253.614 188.608,253.357 189.067,252.06 189.527,250.538 189.986,249.748 190.446,250.187 190.905,251.589 191.365,253.098 191.824,253.792 192.284,253.248 192.743,251.785 193.203,250.271 193.662,249.603 194.122,250.177 194.581,251.666 195.041,253.212 195.5,253.93 195.959,253.406 196.419,251.928 196.878,250.321 197.338,249.477 197.797,249.866 198.257,251.281 198.716,252.961 199.176,254.002 199.635,253.845 200.095,252.566 200.554,250.832 201.014,249.542 201.473,249.366 201.933,250.4 202.392,252.126 202.852,253.678 203.311,254.28 203.771,253.628 204.229,252.035 204.689,250.272 205.148,249.188 205.608,249.307 206.067,250.578 206.527,252.411 206.986,253.954 207.446,254.494 207.905,253.776 208.365,252.12 208.824,250.265 209.284,249.036 209.743,248.979 210.203,250.127 210.662,251.989 211.122,253.769 211.581,254.708 212.041,254.407 212.5,252.982 212.959,251.018 213.419,249.316 213.878,248.569 214.338,249.083 214.797,250.661 215.257,252.687 215.716,254.372 216.176,255.063 216.635,254.488 217.095,252.857 217.554,250.778 218.014,249.019 218.473,248.23 218.933,248.706 219.392,250.282 219.852,252.402 220.311,254.321 220.771,255.366 221.229,255.17 221.689,253.793 222.148,251.693 222.608,249.569 223.067,248.128 223.527,247.845 223.986,248.821 224.446,250.75 224.905,253.025 225.365,254.935 225.824,255.881 226.284,255.568 226.743,254.082 227.203,251.862 227.662,249.562 228.122,247.859 228.581,247.251 229.041,247.919 229.5,249.685 229.959,252.058 230.419,254.385 230.878,256.029 231.338,256.539 231.797,255.771 232.257,253.918 232.716,251.458 233.176,249.021 233.635,247.227 234.095,246.534 234.554,247.122 235.014,248.855 235.473,251.322 235.933,253.937 236.392,256.084 236.852,257.257 237.311,257.18 237.771,255.86 238.229,253.585 238.689,250.851 239.148,248.251 239.608,246.348 240.067,245.552 240.527,246.038 240.986,247.715 241.446,250.251 241.905,253.142 242.365,255.816 242.824,257.75 243.284,258.562 243.743,258.092 244.203,256.415 244.662,253.832 245.122,250.806 245.581,247.875 246.041,245.56 246.5,244.267 246.959,244.227 247.419,245.457 247.878,247.764 248.338,250.779 248.797,254.023 249.257,256.982 249.716,259.193 250.176,260.309 250.635,260.151 251.095,258.732 251.554,256.249 252.014,253.047 252.473,249.575 252.933,246.312 253.392,243.707 253.852,242.115 254.311,241.757 254.771,242.691 255.229,244.81 255.689,247.86 256.148,251.475 256.608,255.224 257.067,258.664 257.527,261.391 257.986,263.087 258.446,263.552 258.905,262.721 259.365,260.671 259.824,257.606 260.284,253.834 260.743,249.729 261.203,245.697 261.662,242.132 262.122,239.379 262.581,237.706 263.041,237.277 263.5,238.145 263.959,240.247 264.419,243.419 264.878,247.406 265.338,251.889 265.797,256.516 266.257,260.925 266.716,264.776 267.176,267.774 267.635,269.689 268.095,270.372 268.554,269.759 269.014,267.875 269.473,264.83 269.933,260.803 270.392,256.036 270.852,250.81 271.311,245.429 271.771,240.204 272.229,235.431 272.689,231.378 273.148,228.271 273.608,226.285 274.067,225.535 274.527,226.076 274.986,227.902 275.446,230.949 275.905,235.1 276.365,240.195 276.824,246.038 277.284,252.406 277.743,259.06 278.203,265.758 278.662,272.258 279.122,278.331 279.581,283.767 280.041,288.38 280.5,292.014 280.959,294.542 281.419,295.873 281.878,295.946 282.338,294.738 282.797,292.251 283.257,288.519 283.716,283.599 284.176,277.57 284.635,270.529 285.095,262.587 285.554,253.863 286.014,244.485 286.473,234.581 286.933,224.28 287.392,213.71 287.852,202.99 288.311,192.234 288.771,181.548 289.229,171.026 289.689,160.752 290.148,150.801 290.608,141.235 291.067,132.104 291.527,123.452 291.986,115.306 292.446,107.688 292.905,100.612 293.365,94.0811 293.824,88.0923 294.284,82.6372 294.743,77.7007 295.203,73.2651 295.662,69.3071 296.122,65.8013 296.581,62.7202 297.041,60.0342 297.5,57.7139 297.959,55.7271 298.419,54.0444 298.878,52.6343 299.338,51.4683 299.797,50.5166 300.257,49.7529 300.716,49.1509 301.176,48.686 301.635,48.3364 302.095,48.0811 302.554,47.9014 303.014,47.7812 303.473,47.7051 303.933,47.6606 304.392,47.6382 304.852,47.6284 305.311,47.6255 305.771,47.625 306.229,47.625 306.689,47.6255 307.148,47.6284 307.608,47.6382 308.067,47.6606 308.527,47.7051 308.986,47.7812 309.446,47.9014 309.905,48.0811 310.365,48.3364 310.824,48.686 311.284,49.1509 311.743,49.7529 312.203,50.5166 312.662,51.4683 313.122,52.6343 313.581,54.0444 314.041,55.7271 314.5,57.7139 314.959,60.0342 315.419,62.7202 315.878,65.8013 316.338,69.3071 316.797,73.2651 317.257,77.7007 317.716,82.6372 318.176,88.0923 318.635,94.0811 319.095,100.612 319.554,107.688 320.014,115.306 320.473,123.452 320.933,132.104 321.392,141.235 321.852,150.801 322.311,160.752 322.771,171.026 323.229,181.548 323.689,192.234 324.148,202.99 324.608,213.71 325.067,224.28 325.527,234.581 325.986,244.485 326.446,253.863 326.905,262.587 327.365,270.529 327.824,277.57 328.284,283.599 328.743,288.519 329.203,292.251 329.662,294.738 330.122,295.946 330.581,295.873 331.041,294.542 331.5,292.014 331.959,288.38 332.419,283.767 332.878,278.331 333.338,272.258 333.797,265.758 334.257,259.06 334.716,252.406 335.176,246.038 335.635,240.195 336.095,235.1 336.554,230.949 337.014,227.902 337.473,226.076 337.933,225.535 338.392,226.285 338.852,228.271 339.311,231.378 339.771,235.431 340.229,240.204 340.689,245.429 341.148,250.81 341.608,256.036 342.067,260.803 342.527,264.83 342.986,267.875 343.446,269.759 343.905,270.372 344.365,269.689 344.824,267.774 345.284,264.776 345.743,260.925 346.203,256.516 346.662,251.889 347.122,247.406 347.581,243.419 348.041,240.247 348.5,238.145 348.959,237.277 349.419,237.706 349.878,239.379 350.338,242.132 350.797,245.697 351.257,249.729 351.716,253.834 352.176,257.606 352.635,260.671 353.095,262.721 353.554,263.552 354.014,263.087 354.473,261.391 354.933,258.664 355.392,255.224 355.852,251.475 356.311,247.86 356.771,244.81 357.229,242.691 357.689,241.757 358.148,242.115 358.608,243.707 359.067,246.312 359.527,249.575 359.986,253.047 360.446,256.249 360.905,258.732 361.365,260.151 361.824,260.309 362.284,259.193 362.743,256.982 363.203,254.023 363.662,250.779 364.122,247.764 364.581,245.457 365.041,244.227 365.5,244.267 365.959,245.56 366.419,247.875 366.878,250.806 367.338,253.832 367.797,256.415 368.257,258.092 368.716,258.562 369.176,257.75 369.635,255.816 370.095,253.142 370.554,250.251 371.014,247.715 371.473,246.038 371.933,245.552 372.392,246.348 372.852,248.251 373.311,250.851 373.771,253.585 374.229,255.86 374.689,257.18 375.148,257.257 375.608,256.084 376.067,253.937 376.527,251.322 376.986,248.855 377.446,247.122 377.905,246.534 378.365,247.227 378.824,249.021 379.284,251.458 379.743,253.918 380.203,255.771 380.662,256.539 381.122,256.029 381.581,254.385 382.041,252.058 382.5,249.685 382.959,247.919 383.419,247.251 383.878,247.859 384.338,249.562 384.797,251.862 385.257,254.082 385.716,255.568 386.176,255.881 386.635,254.935 387.095,253.025 387.554,250.75 388.014,248.821 388.473,247.845 388.933,248.128 389.392,249.569 389.852,251.693 390.311,253.793 390.771,255.17 391.229,255.366 391.689,254.321 392.148,252.402 392.608,250.282 393.067,248.706 393.527,248.23 393.986,249.019 394.446,250.778 394.905,252.857 395.365,254.488 395.824,255.063 396.284,254.372 396.743,252.687 397.203,250.661 397.662,249.083 398.122,248.569 398.581,249.316 399.041,251.018 399.5,252.982 399.959,254.407 400.419,254.708 400.878,253.769 401.338,251.989 401.797,250.127 402.257,248.979 402.716,249.036 403.176,250.265 403.635,252.12 404.095,253.776 404.554,254.494 405.014,253.954 405.473,252.411 405.933,250.578 406.392,249.307 406.852,249.188 407.311,250.272 407.771,252.035 408.229,253.628 408.689,254.28 409.148,253.678 409.608,252.126 410.067,250.4 410.527,249.366 410.986,249.542 411.446,250.832 411.905,252.566 412.365,253.845 412.824,254.002 413.284,252.961 413.743,251.281 414.203,249.866 414.662,249.477 415.122,250.321 415.581,251.928 416.041,253.406 416.5,253.93 416.959,253.212 417.419,251.666 417.878,250.177 418.338,249.603 418.797,250.271 419.257,251.785 419.716,253.248 420.176,253.792 420.635,253.098 421.095,251.589 421.554,250.187 422.014,249.748 422.473,250.538 422.933,252.06 423.392,253.357 423.852,253.614 424.311,252.672 424.771,251.141 425.229,250.01 425.689,250.011 426.148,251.138 426.608,252.642 427.067,253.524 427.527,253.198 427.986,251.889 428.446,250.49 428.905,249.955 429.365,250.649 429.824,252.084 430.284,253.257 430.743,253.345 431.203,252.292 431.662,250.853 432.122,250.062 432.581,250.485 433.041,251.81 433.5,253.062 433.959,253.32 434.419,252.398 434.878,250.989 435.338,250.155 435.797,250.523 436.257,251.808 436.716,253.02 437.176,253.224 437.635,252.267 438.095,250.903 438.554,250.208 439.014,250.727 439.473,252.042 439.933,253.093 440.392,253.035 440.852,251.918 441.311,250.663 441.771,250.301 442.23,251.128 442.689,252.449 443.148,253.155 443.608,252.652 444.067,251.375 444.527,250.416 444.986,250.599 445.446,251.76 445.905,252.884 446.365,252.988 446.824,251.985 447.284,250.77 447.743,250.425 448.203,251.256 448.662,252.507 449.122,253.042 449.581,252.376 450.041,251.126 450.5,250.449 450.959,250.971 451.419,252.198 451.878,252.975 452.338,252.569 452.797,251.372 453.257,250.532 453.716,250.854 454.176,252.022 454.635,252.896 455.095,252.623 455.554,251.477 456.014,250.595 456.473,250.853 456.933,251.987 457.392,252.853 457.852,252.577 458.311,251.445 458.771,250.618 459.23,250.945 459.689,252.082 460.148,252.844 460.608,252.438 461.067,251.294 461.527,250.625 461.986,251.138 462.446,252.28 462.905,252.823 463.365,252.184 463.824,251.062 464.284,250.681 464.743,251.456 465.203,252.527 465.662,252.708 466.122,251.801 466.581,250.827 467.041,250.879 467.5,251.896 467.959,252.716 468.419,252.405 468.878,251.325 469.338,250.725 469.797,251.298 470.257,252.371 470.716,252.686 471.176,251.876 471.635,250.904 472.095,250.925 472.554,251.91 473.014,252.672 473.473,252.293 473.933,251.239 474.392,250.794 474.852,251.501 475.311,252.485 475.771,252.529 476.23,251.583 476.689,250.832 477.148,251.215 477.608,252.246 478.067,252.617 478.527,251.86 478.986,250.947 479.446,251.049 479.905,252.031 480.365,252.616 480.824,252.046 481.284,251.071 481.743,250.973 482.203,251.876 482.662,252.581 483.122,252.149 483.581,251.164 484.041,250.951 484.5,251.793 484.959,252.545 485.419,252.184 485.878,251.208 486.338,250.961 486.797,251.78 487.257,252.525 487.716,252.16 488.176,251.201 488.635,250.996 489.095,251.831 489.554,252.519 490.014,252.082 490.473,251.149 490.933,251.062 491.392,251.94 491.852,252.51 492.311,251.945 492.771,251.074 493.23,251.175 493.689,252.095 494.148,252.47 494.608,251.748 495.067,251.008 495.527,251.358 495.986,252.267 496.446,252.361 496.905,251.502 497.365,251 497.824,251.621 498.284,252.406 498.743,252.147 499.203,251.249 499.662,251.108 500.122,251.941 500.581,252.439 501.041,251.823 501.5,251.068 501.959,251.372 502.419,252.245 502.878,252.293 503.338,251.442 503.797,251.065 504.257,251.769 504.716,252.407 505.176,251.942 505.635,251.139 506.095,251.315 506.554,252.177 507.014,252.296 507.473,251.479 507.933,251.09 508.392,251.777 508.852,252.383 509.311,251.888 509.771,251.134 510.23,251.401 510.689,252.229 511.148,252.201 511.608,251.368 512.067,251.169 512.527,251.944 512.986,252.345 513.446,251.675 513.905,251.111 514.365,251.641 514.824,252.327 515.284,251.957 515.743,251.191 516.203,251.394 516.662,252.198 517.122,252.161 517.581,251.353 518.041,251.236 518.5,252.019 518.959,252.274 519.419,251.54 519.878,251.163 520.338,251.834 520.797,252.312 521.257,251.713 521.716,251.155 522.176,251.676 522.635,252.298 523.095,251.854 523.554,251.185 524.014,251.554 524.473,252.257 524.933,251.958 525.392,251.23 525.852,251.469 526.311,252.21 526.771,252.025 527.229,251.275 527.689,251.417 528.148,252.17 528.608,252.062 529.067,251.309 529.527,251.393 529.986,252.145 530.446,252.075 530.905,251.326 531.365,251.391 531.824,252.136 532.284,252.066 532.743,251.326 533.203,251.41 533.662,252.145 534.122,252.037 534.581,251.31 535.041,251.45 535.5,252.167"/>
<polygon fill="#007f00" points="320.875,195.083 324.149,203.006 326.734,194.833"/>
<polyline fill="none" stroke="#007f00" stroke-width="0.5" points="324.148,202.99 324.149,203.006"/>
<polyline fill="none" stroke="#000000" stroke-width="0.5" points="167.933,260.371 167.934,260.373"/>
<polygon fill="#ffffee" points="164,256 164,264 172,264"/>
<polygon fill="#ffffee" points="164,256 172,264 172,256"/>
<polyline fill="none" stroke="#0000ff" stroke-width="0.5" points="164,256 164,264 172,264 172,256 164,256"/>
<polygon fill="#ffffee" points="164,256 164,264 172,264"/>
<polygon fill="#ffffee" points="164,256 172,264 172,256"/>
<polyline fill="none" stroke="#0000ff" stroke-width="0.5" points="164,256 164,264 172,264 172,256 164,256"/>
<text fill="#007f00" style="stroke:none" x="308" y="213" transform="rotate(0, 308, 213)" font-size="10" font-family="SansSerif" font-style="normal" font-weight="normal">1.6</text>
<polygon fill="#ffffee" points="114.5,263.5 114.5,287.5 164.5,287.5"/>
<polygon fill="#ffffee" points="114.5,263.5 164.5,287.5 164.5,263.5"/>
<polyline fill="none" stroke="#bebebe" stroke-width="0.5" points="114.5,263.5 114.5,287.5 164.5,287.5 164.5,263.5 114.5,263.5"/>
<text fill="#000000" style="stroke:none" x="115" y="274" transform="rotate(0, 115, 274)" font-size="10" font-family="SansSerif" font-style="normal" font-weight="normal">X: -12</text>
<text fill="#000000" style="stroke:none" x="115" y="286" transform="rotate(0, 115, 286)" font-size="10" font-family="SansSerif" font-style="normal" font-weight="normal">Y: -0.042</text>
<polyline fill="none" stroke="#000000" stroke-width="0.5" points="76.5,333.375 76.5,47.625"/>
<polyline fill="none" stroke="#000000" stroke-width="0.5" points="76.5,333.375 69.6147,333.375"/>
<polyline fill="none" stroke="#000000" stroke-width="0.5" points="76.5,292.554 69.6147,292.554"/>
<polyline fill="none" stroke="#000000" stroke-width="0.5" points="76.5,251.732 69.6147,251.732"/>
<polyline fill="none" stroke="#000000" stroke-width="0.5" points="76.5,210.911 69.6147,210.911"/>
<polyline fill="none" stroke="#000000" stroke-width="0.5" points="76.5,170.089 69.6147,170.089"/>
<polyline fill="none" stroke="#000000" stroke-width="0.5" points="76.5,129.268 69.6147,129.268"/>
<polyline fill="none" stroke="#000000" stroke-width="0.5" points="76.5,88.4463 69.6147,88.4463"/>
<polyline fill="none" stroke="#000000" stroke-width="0.5" points="76.5,47.625 69.6147,47.625"/>
<polyline fill="none" stroke="#000000" stroke-width="0.5" points="76.5,312.964 72.3691,312.964"/>
<polyline fill="none" stroke="#000000" stroke-width="0.5" points="76.5,272.143 72.3691,272.143"/>
<polyline fill="none" stroke="#000000" stroke-width="0.5" points="76.5,231.321 72.3691,231.321"/>
<polyline fill="none" stroke="#000000" stroke-width="0.5" points="76.5,190.5 72.3691,190.5"/>
<polyline fill="none" stroke="#000000" stroke-width="0.5" points="76.5,149.679 72.3691,149.679"/>
<polyline fill="none" stroke="#000000" stroke-width="0.5" points="76.5,108.857 72.3691,108.857"/>
<polyline fill="none" stroke="#000000" stroke-width="0.5" points="76.5,68.0356 72.3691,68.0356"/>
<text fill="#000000" style="stroke:none" x="47" y="338" transform="rotate(-0, 47, 338)" font-size="10" font-family="SansSerif" font-style="normal" font-weight="normal">-0.4</text>
<text fill="#000000" style="stroke:none" x="48" y="298" transform="rotate(-0, 48, 298)" font-size="10" font-family="SansSerif" font-style="normal" font-weight="normal">-0.2</text>
<text fill="#000000" style="stroke:none" x="51" y="257" transform="rotate(-0, 51, 257)" font-size="10" font-family="SansSerif" font-style="normal" font-weight="normal">0.0</text>
<text fill="#000000" style="stroke:none" x="52" y="216" transform="rotate(-0, 52, 216)" font-size="10" font-family="SansSerif" font-style="normal" font-weight="normal">0.2</text>
<text fill="#000000" style="stroke:none" x="51" y="175" transform="rotate(-0, 51, 175)" font-size="10" font-family="SansSerif" font-style="normal" font-weight="normal">0.4</text>
<text fill="#000000" style="stroke:none" x="51" y="134" transform="rotate(-0, 51, 134)" font-size="10" font-family="SansSerif" font-style="normal" font-weight="normal">0.6</text>
<text fill="#000000" style="stroke:none" x="51" y="93" transform="rotate(-0, 51, 93)" font-size="10" font-family="SansSerif" font-style="normal" font-weight="normal">0.8</text>
<text fill="#000000" style="stroke:none" x="52" y="53" transform="rotate(-0, 52, 53)" font-size="10" font-family="SansSerif" font-style="normal" font-weight="normal">1.0</text>
<polyline fill="none" stroke="#000000" stroke-width="0.5" points="76.5,333.375 535.5,333.375"/>
<polyline fill="none" stroke="#000000" stroke-width="0.5" points="76.5,333.375 76.5,337.65"/>
<polyline fill="none" stroke="#000000" stroke-width="0.5" points="133.875,333.375 133.875,337.65"/>
<polyline fill="none" stroke="#000000" stroke-width="0.5" points="191.25,333.375 191.25,337.65"/>
<polyline fill="none" stroke="#000000" stroke-width="0.5" points="248.625,333.375 248.625,337.65"/>
<polyline fill="none" stroke="#000000" stroke-width="0.5" points="306,333.375 306,337.65"/>
<polyline fill="none" stroke="#000000" stroke-width="0.5" points="363.375,333.375 363.375,337.65"/>
<polyline fill="none" stroke="#000000" stroke-width="0.5" points="420.75,333.375 420.75,337.65"/>
<polyline fill="none" stroke="#000000" stroke-width="0.5" points="478.125,333.375 478.125,337.65"/>
<polyline fill="none" stroke="#000000" stroke-width="0.5" points="535.5,333.375 535.5,337.65"/>
<text fill="#000000" style="stroke:none" x="67" y="349" transform="rotate(-0, 67, 349)" font-size="10" font-family="SansSerif" font-style="normal" font-weight="normal">-20</text>
<text fill="#000000" style="stroke:none" x="125" y="349" transform="rotate(-0, 125, 349)" font-size="10" font-family="SansSerif" font-style="normal" font-weight="normal">-15</text>
<text fill="#000000" style="stroke:none" x="182" y="349" transform="rotate(-0, 182, 349)" font-size="10" font-family="SansSerif" font-style="normal" font-weight="normal">-10</text>
<text fill="#000000" style="stroke:none" x="243" y="349" transform="rotate(-0, 243, 349)" font-size="10" font-family="SansSerif" font-style="normal" font-weight="normal">-5</text>
<text fill="#000000" style="stroke:none" x="302" y="349" transform="rotate(-0, 302, 349)" font-size="10" font-family="SansSerif" font-style="normal" font-weight="normal">0</text>
<text fill="#000000" style="stroke:none" x="360" y="349" transform="rotate(-0, 360, 349)" font-size="10" font-family="SansSerif" font-style="normal" font-weight="normal">5</text>
<text fill="#000000" style="stroke:none" x="414" y="349" transform="rotate(-0, 414, 349)" font-size="10" font-family="SansSerif" font-style="normal" font-weight="normal">10</text>
<text fill="#000000" style="stroke:none" x="472" y="349" transform="rotate(-0, 472, 349)" font-size="10" font-family="SansSerif" font-style="normal" font-weight="normal">15</text>
<text fill="#000000" style="stroke:none" x="529" y="349" transform="rotate(-0, 529, 349)" font-size="10" font-family="SansSerif" font-style="normal" font-weight="normal">20</text>
</g>
</svg>
