<?xml version="1.0" encoding="UTF-8" standalone="no"?>
<svg xmlns="http://www.w3.org/2000/svg"
     xmlns:xlink="http://www.w3.org/1999/xlink"
     width="612px" height="381px" viewBox="0 0 612 381"
     style="stroke:none">
<title>Figure n°0</title>
<desc>
Creator: GL2PS 1.3.2, (C) 1999-2006 Christophe Geuzaine (geuz@geuz.org)
For: Scilab
CreationDate: Wed Apr 27 17:52:53 2011
</desc>
<defs>
</defs>
<polygon fill="#ffffff" points="0,0 612,0 612,381 0,381"/>
<g>
<polygon fill="#ffffff" points="76.5,333.375 76.5,47.625 76.5,47.625"/>
<polygon fill="#ffffff" points="76.5,333.375 76.5,47.625 76.5,333.375"/>
<polygon fill="#ffffff" points="76.5,333.375 535.5,333.375 535.5,333.375"/>
<polygon fill="#ffffff" points="76.5,333.375 535.5,333.375 76.5,333.375"/>
<polygon fill="#ffffff" points="76.5,333.375 535.5,333.375 535.5,47.625"/>
<polygon fill="#ffffff" points="76.5,333.375 535.5,47.625 76.5,47.625"/>
<polyline fill="none" stroke="#000000" stroke-width="0.5" points="76.5,333.375 76.5,47.625 76.5,47.625 535.5,47.625 535.5,333.375 535.5,333.375 76.5,333.375"/>
<polyline fill="none" stroke="#000000" stroke-width="0.5" points="535.5,47.625 76.5,47.625"/>
<polyline fill="none" stroke="#000000" stroke-width="0.5" points="535.5,47.625 535.5,333.375"/>
<polyline fill="none" stroke="#000000" stroke-width="0.5" points="535.5,47.625 535.5,47.625"/>
<polyline fill="none" stroke="#0000ff" stroke-width="0.5" points="76.5,251.732 81.1362,251.732 85.7729,251.73 90.4092,251.727 95.0454,251.719 99.6816,251.706 104.318,251.687 108.955,251.66 113.591,251.625 118.227,251.579 122.864,251.522 127.5,251.452 132.136,251.369 136.773,251.27 141.409,251.155 146.045,251.022 150.682,250.871 155.318,250.699 159.955,250.505 164.591,250.29 169.227,250.049 173.864,249.784 178.5,249.492 183.136,249.173 187.773,248.824 192.409,248.445 197.045,248.035 201.682,247.592 206.318,247.114 210.955,246.602 215.591,246.053 220.227,245.465 224.864,244.839 229.5,244.173 234.136,243.464 238.773,242.713 243.409,241.918 248.045,241.077 252.682,240.189 257.318,239.254 261.955,238.27 266.591,237.234 271.227,236.147 275.864,235.007 280.5,233.813 285.136,232.563 289.773,231.257 294.409,229.893 299.045,228.469 303.682,226.984 308.318,225.438 312.955,223.828 317.591,222.155 322.227,220.415 326.864,218.609 331.5,216.734 336.136,214.791 340.773,212.776 345.409,210.689 350.045,208.53 354.682,206.295 359.318,203.985 363.955,201.599 368.591,199.133 373.227,196.589 377.864,193.963 382.5,191.256 387.136,188.465 391.773,185.59 396.409,182.628 401.045,179.581 405.682,176.444 410.318,173.218 414.955,169.9 419.591,166.491 424.227,162.989 428.864,159.392 433.5,155.698 438.136,151.908 442.773,148.019 447.409,144.03 452.045,139.941 456.682,135.749 461.318,131.454 465.955,127.054 470.591,122.548 475.227,117.935 479.864,113.213 484.5,108.381 489.136,103.438 493.773,98.3833 498.409,93.2148 503.045,87.9312 507.682,82.5317 512.318,77.0146 516.955,71.3789 521.591,65.6235 526.227,59.7471 530.864,53.7476 535.5,47.625"/>
<polyline fill="none" stroke="#007f00" stroke-width="0.5" points="76.5,47.625 81.1362,47.9717 85.7729,49.0107 90.4092,50.7344 95.0454,53.1333 99.6816,56.1924 104.318,59.8926 108.955,64.2119 113.591,69.1245 118.227,74.5996 122.864,80.6055 127.5,87.105 132.136,94.0596 136.773,101.428 141.409,109.167 146.045,117.23 150.682,125.571 155.318,134.141 159.955,142.891 164.591,151.771 169.227,160.731 173.864,169.722 178.5,178.692 183.136,187.596 187.773,196.384 192.409,205.01 197.045,213.431 201.682,221.604 206.318,229.49 210.955,237.05 215.591,244.251 220.227,251.062 224.864,257.454 229.5,263.401 234.136,268.883 238.773,273.882 243.409,278.384 248.045,282.378 252.682,285.858 257.318,288.82 261.955,291.266 266.591,293.199 271.227,294.627 275.864,295.562 280.5,296.018 285.136,296.012 289.773,295.564 294.409,294.698 299.045,293.44 303.682,291.816 308.318,289.857 312.955,287.594 317.591,285.059 322.227,282.287 326.864,279.311 331.5,276.167 336.136,272.892 340.773,269.519 345.409,266.084 350.045,262.622 354.682,259.167 359.318,255.75 363.955,252.402 368.591,249.154 373.227,246.034 377.864,243.067 382.5,240.277 387.136,237.685 391.773,235.311 396.409,233.17 401.045,231.277 405.682,229.643 410.318,228.276 414.955,227.183 419.591,226.366 424.227,225.826 428.864,225.561 433.5,225.566 438.136,225.834 442.773,226.356 447.409,227.121 452.045,228.114 456.682,229.321 461.318,230.725 465.955,232.307 470.591,234.047 475.227,235.925 479.864,237.919 484.5,240.008 489.136,242.167 493.773,244.375 498.409,246.608 503.045,248.845 507.682,251.062 512.318,253.239 516.955,255.355 521.591,257.391 526.227,259.327 530.864,261.147 535.5,262.836"/>
<polygon fill="#ffffee" points="300,288 300,296 308,296"/>
<polygon fill="#ffffee" points="300,288 308,296 308,288"/>
<polyline fill="none" stroke="#007f00" stroke-width="0.5" points="300,288 300,296 308,296 308,288 300,288"/>
<polygon fill="#ffffee" points="174,175 174,183 182,183"/>
<polygon fill="#ffffee" points="174,175 182,183 182,175"/>
<polyline fill="none" stroke="#007f00" stroke-width="0.5" points="174,175 174,183 182,183 182,175 174,175"/>
<polyline fill="none" stroke="#000000" stroke-width="0.5" points="122.864,251.522 122.91,251.521"/>
<polygon fill="#ffffee" points="119,248 119,256 127,256"/>
<polygon fill="#ffffee" points="119,248 127,256 127,248"/>
<polyline fill="none" stroke="#0000ff" stroke-width="0.5" points="119,248 119,256 127,256 127,248 119,248"/>
<polygon fill="#ffffee" points="119,248 119,256 127,256"/>
<polygon fill="#ffffee" points="119,248 127,256 127,248"/>
<polyline fill="none" stroke="#0000ff" stroke-width="0.5" points="119,248 119,256 127,256 127,248 119,248"/>
<polyline fill="none" stroke="#000000" stroke-width="0.5" points="424.227,162.989 424.25,162.971"/>
<polygon fill="#ffffee" points="420,159 420,167 428,167"/>
<polygon fill="#ffffee" points="420,159 428,167 428,159"/>
<polyline fill="none" stroke="#0000ff" stroke-width="0.5" points="420,159 420,167 428,167 428,159 420,159"/>
<polygon fill="#ffffee" points="420,159 420,167 428,167"/>
<polygon fill="#ffffee" points="420,159 428,167 428,159"/>
<polyline fill="none" stroke="#0000ff" stroke-width="0.5" points="420,159 420,167 428,167 428,159 420,159"/>
<polygon fill="#ffffee" points="307.5,294.5 307.5,333.5 377.5,333.5"/>
<polygon fill="#ffffee" points="307.5,294.5 377.5,333.5 377.5,294.5"/>
<polyline fill="none" stroke="#bebebe" stroke-width="0.5" points="307.5,294.5 307.5,333.5 377.5,333.5 377.5,294.5 307.5,294.5"/>
<text fill="#000000" style="stroke:none" x="308" y="305" transform="rotate(0, 308, 305)" font-size="10" font-family="SansSerif" font-style="normal" font-weight="normal">sinc</text>
<text fill="#000000" style="stroke:none" x="308" y="319" transform="rotate(0, 308, 319)" font-size="10" font-family="SansSerif" font-style="normal" font-weight="normal">[0.5,-0.2;sinc</text>
<text fill="#000000" style="stroke:none" x="308" y="332" transform="rotate(0, 308, 332)" font-size="10" font-family="SansSerif" font-style="normal" font-weight="normal">0.5,-0.2]</text>
<polygon fill="#ffffee" points="109.5,181.5 109.5,220.5 175.5,220.5"/>
<polygon fill="#ffffee" points="109.5,181.5 175.5,220.5 175.5,181.5"/>
<polyline fill="none" stroke="#bebebe" stroke-width="0.5" points="109.5,181.5 109.5,220.5 175.5,220.5 175.5,181.5 109.5,181.5"/>
<text fill="#000000" style="stroke:none" x="110" y="192" transform="rotate(0, 110, 192)" font-size="10" font-family="SansSerif" font-style="normal" font-weight="normal">sinc</text>
<text fill="#000000" style="stroke:none" x="110" y="206" transform="rotate(0, 110, 206)" font-size="10" font-family="SansSerif" font-style="normal" font-weight="normal">[0.2,0.4;sinc</text>
<text fill="#000000" style="stroke:none" x="110" y="219" transform="rotate(0, 110, 219)" font-size="10" font-family="SansSerif" font-style="normal" font-weight="normal">0.2,0.4]</text>
<polygon fill="#ffffee" points="126.5,254.5 126.5,278.5 172.5,278.5"/>
<polygon fill="#ffffee" points="126.5,254.5 172.5,278.5 172.5,254.5"/>
<polyline fill="none" stroke="#bebebe" stroke-width="0.5" points="126.5,254.5 126.5,278.5 172.5,278.5 172.5,254.5 126.5,254.5"/>
<text fill="#000000" style="stroke:none" x="127" y="265" transform="rotate(0, 127, 265)" font-size="10" font-family="SansSerif" font-style="normal" font-weight="normal">X: 0.1</text>
<text fill="#000000" style="stroke:none" x="127" y="277" transform="rotate(0, 127, 277)" font-size="10" font-family="SansSerif" font-style="normal" font-weight="normal">Y: 0.001</text>
<polygon fill="#ffffee" points="381.5,134.5 381.5,158.5 420.5,158.5"/>
<polygon fill="#ffffee" points="381.5,134.5 420.5,158.5 420.5,134.5"/>
<polyline fill="none" stroke="#bebebe" stroke-width="0.5" points="381.5,134.5 381.5,158.5 420.5,158.5 420.5,134.5 381.5,134.5"/>
<text fill="#000000" style="stroke:none" x="382" y="145" transform="rotate(0, 382, 145)" font-size="10" font-family="SansSerif" font-style="normal" font-weight="normal">X: 0.76</text>
<text fill="#000000" style="stroke:none" x="382" y="157" transform="rotate(0, 382, 157)" font-size="10" font-family="SansSerif" font-style="normal" font-weight="normal">Y: 0.43</text>
<polyline fill="none" stroke="#000000" stroke-width="0.5" points="76.5,333.375 76.5,47.625"/>
<polyline fill="none" stroke="#000000" stroke-width="0.5" points="76.5,333.375 69.6147,333.375"/>
<polyline fill="none" stroke="#000000" stroke-width="0.5" points="76.5,292.554 69.6147,292.554"/>
<polyline fill="none" stroke="#000000" stroke-width="0.5" points="76.5,251.732 69.6147,251.732"/>
<polyline fill="none" stroke="#000000" stroke-width="0.5" points="76.5,210.911 69.6147,210.911"/>
<polyline fill="none" stroke="#000000" stroke-width="0.5" points="76.5,170.089 69.6147,170.089"/>
<polyline fill="none" stroke="#000000" stroke-width="0.5" points="76.5,129.268 69.6147,129.268"/>
<polyline fill="none" stroke="#000000" stroke-width="0.5" points="76.5,88.4463 69.6147,88.4463"/>
<polyline fill="none" stroke="#000000" stroke-width="0.5" points="76.5,47.625 69.6147,47.625"/>
<polyline fill="none" stroke="#000000" stroke-width="0.5" points="76.5,312.964 72.3691,312.964"/>
<polyline fill="none" stroke="#000000" stroke-width="0.5" points="76.5,272.143 72.3691,272.143"/>
<polyline fill="none" stroke="#000000" stroke-width="0.5" points="76.5,231.321 72.3691,231.321"/>
<polyline fill="none" stroke="#000000" stroke-width="0.5" points="76.5,190.5 72.3691,190.5"/>
<polyline fill="none" stroke="#000000" stroke-width="0.5" points="76.5,149.679 72.3691,149.679"/>
<polyline fill="none" stroke="#000000" stroke-width="0.5" points="76.5,108.857 72.3691,108.857"/>
<polyline fill="none" stroke="#000000" stroke-width="0.5" points="76.5,68.0356 72.3691,68.0356"/>
<text fill="#000000" style="stroke:none" x="47" y="338" transform="rotate(-0, 47, 338)" font-size="10" font-family="SansSerif" font-style="normal" font-weight="normal">-0.4</text>
<text fill="#000000" style="stroke:none" x="48" y="298" transform="rotate(-0, 48, 298)" font-size="10" font-family="SansSerif" font-style="normal" font-weight="normal">-0.2</text>
<text fill="#000000" style="stroke:none" x="51" y="257" transform="rotate(-0, 51, 257)" font-size="10" font-family="SansSerif" font-style="normal" font-weight="normal">0.0</text>
<text fill="#000000" style="stroke:none" x="52" y="216" transform="rotate(-0, 52, 216)" font-size="10" font-family="SansSerif" font-style="normal" font-weight="normal">0.2</text>
<text fill="#000000" style="stroke:none" x="51" y="175" transform="rotate(-0, 51, 175)" font-size="10" font-family="SansSerif" font-style="normal" font-weight="normal">0.4</text>
<text fill="#000000" style="stroke:none" x="51" y="134" transform="rotate(-0, 51, 134)" font-size="10" font-family="SansSerif" font-style="normal" font-weight="normal">0.6</text>
<text fill="#000000" style="stroke:none" x="51" y="93" transform="rotate(-0, 51, 93)" font-size="10" font-family="SansSerif" font-style="normal" font-weight="normal">0.8</text>
<text fill="#000000" style="stroke:none" x="52" y="53" transform="rotate(-0, 52, 53)" font-size="10" font-family="SansSerif" font-style="normal" font-weight="normal">1.0</text>
<polyline fill="none" stroke="#000000" stroke-width="0.5" points="76.5,333.375 535.5,333.375"/>
<polyline fill="none" stroke="#000000" stroke-width="0.5" points="76.5,333.375 76.5,337.65"/>
<polyline fill="none" stroke="#000000" stroke-width="0.5" points="122.4,333.375 122.4,337.65"/>
<polyline fill="none" stroke="#000000" stroke-width="0.5" points="168.3,333.375 168.3,337.65"/>
<polyline fill="none" stroke="#000000" stroke-width="0.5" points="214.2,333.375 214.2,337.65"/>
<polyline fill="none" stroke="#000000" stroke-width="0.5" points="260.1,333.375 260.1,337.65"/>
<polyline fill="none" stroke="#000000" stroke-width="0.5" points="306,333.375 306,337.65"/>
<polyline fill="none" stroke="#000000" stroke-width="0.5" points="351.9,333.375 351.9,337.65"/>
<polyline fill="none" stroke="#000000" stroke-width="0.5" points="397.8,333.375 397.8,337.65"/>
<polyline fill="none" stroke="#000000" stroke-width="0.5" points="443.7,333.375 443.7,337.65"/>
<polyline fill="none" stroke="#000000" stroke-width="0.5" points="489.6,333.375 489.6,337.65"/>
<polyline fill="none" stroke="#000000" stroke-width="0.5" points="535.5,333.375 535.5,337.65"/>
<polyline fill="none" stroke="#000000" stroke-width="0.5" points="99.4502,333.375 99.4502,335.94"/>
<polyline fill="none" stroke="#000000" stroke-width="0.5" points="145.35,333.375 145.35,335.94"/>
<polyline fill="none" stroke="#000000" stroke-width="0.5" points="191.25,333.375 191.25,335.94"/>
<polyline fill="none" stroke="#000000" stroke-width="0.5" points="237.15,333.375 237.15,335.94"/>
<polyline fill="none" stroke="#000000" stroke-width="0.5" points="283.05,333.375 283.05,335.94"/>
<polyline fill="none" stroke="#000000" stroke-width="0.5" points="328.95,333.375 328.95,335.94"/>
<polyline fill="none" stroke="#000000" stroke-width="0.5" points="374.85,333.375 374.85,335.94"/>
<polyline fill="none" stroke="#000000" stroke-width="0.5" points="420.75,333.375 420.75,335.94"/>
<polyline fill="none" stroke="#000000" stroke-width="0.5" points="466.65,333.375 466.65,335.94"/>
<polyline fill="none" stroke="#000000" stroke-width="0.5" points="512.55,333.375 512.55,335.94"/>
<text fill="#000000" style="stroke:none" x="68" y="349" transform="rotate(-0, 68, 349)" font-size="10" font-family="SansSerif" font-style="normal" font-weight="normal">0.0</text>
<text fill="#000000" style="stroke:none" x="114" y="349" transform="rotate(-0, 114, 349)" font-size="10" font-family="SansSerif" font-style="normal" font-weight="normal">0.1</text>
<text fill="#000000" style="stroke:none" x="160" y="349" transform="rotate(-0, 160, 349)" font-size="10" font-family="SansSerif" font-style="normal" font-weight="normal">0.2</text>
<text fill="#000000" style="stroke:none" x="206" y="349" transform="rotate(-0, 206, 349)" font-size="10" font-family="SansSerif" font-style="normal" font-weight="normal">0.3</text>
<text fill="#000000" style="stroke:none" x="252" y="349" transform="rotate(-0, 252, 349)" font-size="10" font-family="SansSerif" font-style="normal" font-weight="normal">0.4</text>
<text fill="#000000" style="stroke:none" x="298" y="349" transform="rotate(-0, 298, 349)" font-size="10" font-family="SansSerif" font-style="normal" font-weight="normal">0.5</text>
<text fill="#000000" style="stroke:none" x="343" y="349" transform="rotate(-0, 343, 349)" font-size="10" font-family="SansSerif" font-style="normal" font-weight="normal">0.6</text>
<text fill="#000000" style="stroke:none" x="390" y="349" transform="rotate(-0, 390, 349)" font-size="10" font-family="SansSerif" font-style="normal" font-weight="normal">0.7</text>
<text fill="#000000" style="stroke:none" x="435" y="349" transform="rotate(-0, 435, 349)" font-size="10" font-family="SansSerif" font-style="normal" font-weight="normal">0.8</text>
<text fill="#000000" style="stroke:none" x="482" y="349" transform="rotate(-0, 482, 349)" font-size="10" font-family="SansSerif" font-style="normal" font-weight="normal">0.9</text>
<text fill="#000000" style="stroke:none" x="528" y="349" transform="rotate(-0, 528, 349)" font-size="10" font-family="SansSerif" font-style="normal" font-weight="normal">1.0</text>
</g>
</svg>
