<?xml version="1.0" encoding="UTF-8" standalone="no"?>
<svg xmlns="http://www.w3.org/2000/svg"
     xmlns:xlink="http://www.w3.org/1999/xlink"
     width="475px" height="292px" viewBox="0 0 475 292"
     style="stroke:none">
<title>Graphic window number 0</title>
<desc>
Creator: GL2PS 1.3.2, (C) 1999-2006 Christophe Geuzaine (geuz@geuz.org)
For: Scilab
CreationDate: Tue Apr 27 13:42:23 2010
</desc>
<defs>
</defs>
<polygon fill="#ffffff" points="0,0 475,0 475,292 0,292"/>
<g>
<polyline fill="none" stroke="#000000" stroke-width="0.5" points="59.375,255.5 59.375,36.5 59.375,36.5 415.625,36.5 415.625,255.5 415.625,255.5 59.375,255.5"/>
<polyline fill="none" stroke="#000000" stroke-width="0.5" points="415.625,36.5 59.375,36.5"/>
<polyline fill="none" stroke="#000000" stroke-width="0.5" points="415.625,36.5 415.625,255.5"/>
<polyline fill="none" stroke="#000000" stroke-width="0.5" points="415.625,36.5 415.625,36.5"/>
<polygon fill="#ffffff" points="59.375,255.5 59.375,36.5 59.375,36.5"/>
<polygon fill="#ffffff" points="59.375,255.5 59.375,36.5 59.375,255.5"/>
<polygon fill="#ffffff" points="59.375,255.5 415.625,255.5 415.625,255.5"/>
<polygon fill="#ffffff" points="59.375,255.5 415.625,255.5 59.375,255.5"/>
<polygon fill="#ffffff" points="59.375,255.5 415.625,255.5 415.625,36.5"/>
<polygon fill="#ffffff" points="59.375,255.5 415.625,36.5 59.375,36.5"/>
<polyline fill="none" stroke="#0000ff" stroke-width="0.5" points="59.375,192.929 62.9736,192.928 66.5718,192.927 70.1704,192.924 73.769,192.918 77.3672,192.908 80.9658,192.894 84.5645,192.873 88.1631,192.846 91.7612,192.811 95.3599,192.768 98.9585,192.714 102.557,192.65 106.155,192.574 109.754,192.486 113.352,192.384 116.951,192.268 120.549,192.137 124.148,191.988 127.746,191.823 131.345,191.639 134.943,191.436 138.542,191.212 142.14,190.967 145.739,190.7 149.337,190.41 152.936,190.095 156.534,189.755 160.133,189.39 163.731,188.997 167.33,188.576 170.928,188.126 174.526,187.646 178.125,187.135 181.724,186.592 185.322,186.017 188.92,185.407 192.519,184.763 196.117,184.083 199.716,183.365 203.314,182.611 206.913,181.817 210.511,180.984 214.11,180.111 217.708,179.195 221.307,178.238 224.905,177.236 228.504,176.19 232.102,175.099 235.701,173.961 239.299,172.776 242.898,171.543 246.496,170.26 250.095,168.927 253.693,167.542 257.292,166.106 260.89,164.616 264.489,163.072 268.087,161.473 271.686,159.818 275.284,158.106 278.883,156.335 282.481,154.506 286.08,152.617 289.678,150.667 293.276,148.654 296.875,146.58 300.474,144.44 304.072,142.237 307.67,139.967 311.269,137.631 314.867,135.227 318.466,132.755 322.064,130.212 325.663,127.6 329.261,124.915 332.86,122.158 336.458,119.328 340.057,116.423 343.655,113.442 347.254,110.386 350.852,107.251 354.451,104.039 358.049,100.747 361.648,97.3745 365.246,93.9214 368.845,90.3857 372.443,86.7666 376.042,83.064 379.64,79.2759 383.239,75.4014 386.837,71.4404 390.436,67.3911 394.034,63.2524 397.633,59.0244 401.231,54.7051 404.83,50.2944 408.428,45.7905 412.026,41.1924 415.625,36.5"/>
<polyline fill="none" stroke="#007f00" stroke-width="0.5" points="59.375,36.5 62.9736,36.7661 66.5718,37.562 70.1704,38.8833 73.769,40.7217 77.3672,43.0659 80.9658,45.9019 84.5645,49.2124 88.1631,52.9771 91.7612,57.1738 95.3599,61.7764 98.9585,66.7573 102.557,72.0874 106.155,77.7349 109.754,83.666 113.352,89.8457 116.951,96.2378 120.549,102.806 124.148,109.512 127.746,116.318 131.345,123.185 134.943,130.075 138.542,136.951 142.14,143.774 145.739,150.509 149.337,157.121 152.936,163.575 156.534,169.838 160.133,175.882 163.731,181.676 167.33,187.195 170.928,192.415 174.526,197.313 178.125,201.872 181.724,206.073 185.322,209.904 188.92,213.355 192.519,216.416 196.117,219.083 199.716,221.353 203.314,223.227 206.913,224.709 210.511,225.804 214.11,226.52 217.708,226.869 221.307,226.864 224.905,226.521 228.504,225.858 232.102,224.894 235.701,223.649 239.299,222.148 242.898,220.413 246.496,218.47 250.095,216.346 253.693,214.065 257.292,211.656 260.89,209.146 264.489,206.561 268.087,203.928 271.686,201.275 275.284,198.626 278.883,196.007 282.481,193.442 286.08,190.953 289.678,188.562 293.276,186.288 296.875,184.149 300.474,182.163 304.072,180.343 307.67,178.703 311.269,177.252 314.867,176 318.466,174.952 322.064,174.114 325.663,173.488 329.261,173.074 332.86,172.871 336.458,172.875 340.057,173.08 343.655,173.48 347.254,174.066 350.852,174.828 354.451,175.753 358.049,176.829 361.648,178.041 365.246,179.375 368.845,180.814 372.443,182.342 376.042,183.943 379.64,185.598 383.239,187.29 386.837,189.001 390.436,190.716 394.034,192.415 397.633,194.083 401.231,195.706 404.83,197.266 408.428,198.75 412.026,200.145 415.625,201.438"/>
<polygon fill="#ffffee" points="232,220 232,228 240,228"/>
<polygon fill="#ffffee" points="232,220 240,228 240,220"/>
<polyline fill="none" stroke="#007f00" stroke-width="0.5" points="232,220 232,228 240,228 240,220 232,220"/>
<polygon fill="#ffffee" points="135,133 135,141 143,141"/>
<polygon fill="#ffffee" points="135,133 143,141 143,133"/>
<polyline fill="none" stroke="#007f00" stroke-width="0.5" points="135,133 135,141 143,141 143,133 135,133"/>
<polygon fill="#ffffee" points="91,189 91,197 99,197"/>
<polygon fill="#ffffee" points="91,189 99,197 99,189"/>
<polyline fill="none" stroke="#0000ff" stroke-width="0.5" points="91,189 91,197 99,197 99,189 91,189"/>
<polygon fill="#ffffee" points="325,121 325,129 333,129"/>
<polygon fill="#ffffee" points="325,121 333,129 333,121"/>
<polyline fill="none" stroke="#0000ff" stroke-width="0.5" points="325,121 325,129 333,129 333,121 325,121"/>
<polygon fill="#ffffee" points="238.5,212.5 238.5,240.5 288.5,240.5"/>
<polygon fill="#ffffee" points="238.5,212.5 288.5,240.5 288.5,212.5"/>
<polyline fill="none" stroke="#bebebe" stroke-width="0.5" points="238.5,212.5 238.5,240.5 288.5,240.5 288.5,212.5 238.5,212.5"/>
<text fill="#000000" style="stroke:none" x="239" y="223" transform="rotate(0, 239, 223)" font-size="10" font-family="SansSerif" font-style="normal" font-weight="normal">sinc</text>
<text fill="#000000" style="stroke:none" x="239" y="239" transform="rotate(0, 239, 239)" font-size="10" font-family="SansSerif" font-style="normal" font-weight="normal">[0.5,-0.2]</text>
<polygon fill="#ffffee" points="141.5,106.5 141.5,134.5 185.5,134.5"/>
<polygon fill="#ffffee" points="141.5,106.5 185.5,134.5 185.5,106.5"/>
<polyline fill="none" stroke="#bebebe" stroke-width="0.5" points="141.5,106.5 141.5,134.5 185.5,134.5 185.5,106.5 141.5,106.5"/>
<text fill="#000000" style="stroke:none" x="142" y="117" transform="rotate(0, 142, 117)" font-size="10" font-family="SansSerif" font-style="normal" font-weight="normal">sinc</text>
<text fill="#000000" style="stroke:none" x="142" y="133" transform="rotate(0, 142, 133)" font-size="10" font-family="SansSerif" font-style="normal" font-weight="normal">[0.2,0.4]</text>
<polygon fill="#ffffee" points="98.5,166.5 98.5,190.5 143.5,190.5"/>
<polygon fill="#ffffee" points="98.5,166.5 143.5,190.5 143.5,166.5"/>
<polyline fill="none" stroke="#bebebe" stroke-width="0.5" points="98.5,166.5 98.5,190.5 143.5,190.5 143.5,166.5 98.5,166.5"/>
<text fill="#000000" style="stroke:none" x="99" y="177" transform="rotate(0, 99, 177)" font-size="10" font-family="SansSerif" font-style="normal" font-weight="normal">X: 0.1</text>
<text fill="#000000" style="stroke:none" x="99" y="189" transform="rotate(0, 99, 189)" font-size="10" font-family="SansSerif" font-style="normal" font-weight="normal">Y: 0.001</text>
<polygon fill="#ffffee" points="296.5,98.5 296.5,122.5 334.5,122.5"/>
<polygon fill="#ffffee" points="296.5,98.5 334.5,122.5 334.5,98.5"/>
<polyline fill="none" stroke="#bebebe" stroke-width="0.5" points="296.5,98.5 296.5,122.5 334.5,122.5 334.5,98.5 296.5,98.5"/>
<text fill="#000000" style="stroke:none" x="297" y="109" transform="rotate(0, 297, 109)" font-size="10" font-family="SansSerif" font-style="normal" font-weight="normal">X: 0.76</text>
<text fill="#000000" style="stroke:none" x="297" y="121" transform="rotate(0, 297, 121)" font-size="10" font-family="SansSerif" font-style="normal" font-weight="normal">Y: 0.43</text>
<polyline fill="none" stroke="#000000" stroke-width="0.5" points="59.375,255.5 59.375,36.5"/>
<polyline fill="none" stroke="#000000" stroke-width="0.5" points="59.375,255.5 54.0352,255.5"/>
<polyline fill="none" stroke="#000000" stroke-width="0.5" points="59.375,224.214 54.0352,224.214"/>
<polyline fill="none" stroke="#000000" stroke-width="0.5" points="59.375,192.929 54.0352,192.929"/>
<polyline fill="none" stroke="#000000" stroke-width="0.5" points="59.375,161.643 54.0352,161.643"/>
<polyline fill="none" stroke="#000000" stroke-width="0.5" points="59.375,130.357 54.0352,130.357"/>
<polyline fill="none" stroke="#000000" stroke-width="0.5" points="59.375,99.0713 54.0352,99.0713"/>
<polyline fill="none" stroke="#000000" stroke-width="0.5" points="59.375,67.7856 54.0352,67.7856"/>
<polyline fill="none" stroke="#000000" stroke-width="0.5" points="59.375,36.5 54.0352,36.5"/>
<polyline fill="none" stroke="#000000" stroke-width="0.5" points="59.375,245.071 56.1709,245.071"/>
<polyline fill="none" stroke="#000000" stroke-width="0.5" points="59.375,234.643 56.1709,234.643"/>
<polyline fill="none" stroke="#000000" stroke-width="0.5" points="59.375,213.786 56.1709,213.786"/>
<polyline fill="none" stroke="#000000" stroke-width="0.5" points="59.375,203.357 56.1709,203.357"/>
<polyline fill="none" stroke="#000000" stroke-width="0.5" points="59.375,182.5 56.1709,182.5"/>
<polyline fill="none" stroke="#000000" stroke-width="0.5" points="59.375,172.071 56.1709,172.071"/>
<polyline fill="none" stroke="#000000" stroke-width="0.5" points="59.375,151.214 56.1709,151.214"/>
<polyline fill="none" stroke="#000000" stroke-width="0.5" points="59.375,140.786 56.1709,140.786"/>
<polyline fill="none" stroke="#000000" stroke-width="0.5" points="59.375,119.929 56.1709,119.929"/>
<polyline fill="none" stroke="#000000" stroke-width="0.5" points="59.375,109.5 56.1709,109.5"/>
<polyline fill="none" stroke="#000000" stroke-width="0.5" points="59.375,88.6431 56.1709,88.6431"/>
<polyline fill="none" stroke="#000000" stroke-width="0.5" points="59.375,78.2144 56.1709,78.2144"/>
<polyline fill="none" stroke="#000000" stroke-width="0.5" points="59.375,57.3569 56.1709,57.3569"/>
<polyline fill="none" stroke="#000000" stroke-width="0.5" points="59.375,46.9287 56.1709,46.9287"/>
<text fill="#000000" style="stroke:none" x="31" y="261" transform="rotate(-0, 31, 261)" font-size="10" font-family="SansSerif" font-style="normal" font-weight="normal">-0.4</text>
<text fill="#000000" style="stroke:none" x="31" y="229" transform="rotate(-0, 31, 229)" font-size="10" font-family="SansSerif" font-style="normal" font-weight="normal">-0.2</text>
<text fill="#000000" style="stroke:none" x="36" y="198" transform="rotate(-0, 36, 198)" font-size="10" font-family="SansSerif" font-style="normal" font-weight="normal">0.0</text>
<text fill="#000000" style="stroke:none" x="37" y="167" transform="rotate(-0, 37, 167)" font-size="10" font-family="SansSerif" font-style="normal" font-weight="normal">0.2</text>
<text fill="#000000" style="stroke:none" x="37" y="135" transform="rotate(-0, 37, 135)" font-size="10" font-family="SansSerif" font-style="normal" font-weight="normal">0.4</text>
<text fill="#000000" style="stroke:none" x="37" y="104" transform="rotate(-0, 37, 104)" font-size="10" font-family="SansSerif" font-style="normal" font-weight="normal">0.6</text>
<text fill="#000000" style="stroke:none" x="36" y="73" transform="rotate(-0, 36, 73)" font-size="10" font-family="SansSerif" font-style="normal" font-weight="normal">0.8</text>
<text fill="#000000" style="stroke:none" x="37" y="42" transform="rotate(-0, 37, 42)" font-size="10" font-family="SansSerif" font-style="normal" font-weight="normal">1.0</text>
<polyline fill="none" stroke="#000000" stroke-width="0.5" points="59.375,255.5 415.625,255.5"/>
<polyline fill="none" stroke="#000000" stroke-width="0.5" points="59.375,255.5 59.375,258.785"/>
<polyline fill="none" stroke="#000000" stroke-width="0.5" points="95,255.5 95,258.785"/>
<polyline fill="none" stroke="#000000" stroke-width="0.5" points="130.625,255.5 130.625,258.785"/>
<polyline fill="none" stroke="#000000" stroke-width="0.5" points="166.25,255.5 166.25,258.785"/>
<polyline fill="none" stroke="#000000" stroke-width="0.5" points="201.875,255.5 201.875,258.785"/>
<polyline fill="none" stroke="#000000" stroke-width="0.5" points="237.5,255.5 237.5,258.785"/>
<polyline fill="none" stroke="#000000" stroke-width="0.5" points="273.125,255.5 273.125,258.785"/>
<polyline fill="none" stroke="#000000" stroke-width="0.5" points="308.75,255.5 308.75,258.785"/>
<polyline fill="none" stroke="#000000" stroke-width="0.5" points="344.375,255.5 344.375,258.785"/>
<polyline fill="none" stroke="#000000" stroke-width="0.5" points="380,255.5 380,258.785"/>
<polyline fill="none" stroke="#000000" stroke-width="0.5" points="415.625,255.5 415.625,258.785"/>
<polyline fill="none" stroke="#000000" stroke-width="0.5" points="77.1875,255.5 77.1875,257.471"/>
<polyline fill="none" stroke="#000000" stroke-width="0.5" points="112.812,255.5 112.812,257.471"/>
<polyline fill="none" stroke="#000000" stroke-width="0.5" points="148.438,255.5 148.438,257.471"/>
<polyline fill="none" stroke="#000000" stroke-width="0.5" points="184.062,255.5 184.062,257.471"/>
<polyline fill="none" stroke="#000000" stroke-width="0.5" points="219.688,255.5 219.688,257.471"/>
<polyline fill="none" stroke="#000000" stroke-width="0.5" points="255.312,255.5 255.312,257.471"/>
<polyline fill="none" stroke="#000000" stroke-width="0.5" points="290.938,255.5 290.938,257.471"/>
<polyline fill="none" stroke="#000000" stroke-width="0.5" points="326.562,255.5 326.562,257.471"/>
<polyline fill="none" stroke="#000000" stroke-width="0.5" points="362.188,255.5 362.188,257.471"/>
<polyline fill="none" stroke="#000000" stroke-width="0.5" points="397.812,255.5 397.812,257.471"/>
<text fill="#000000" style="stroke:none" x="51" y="270" transform="rotate(-0, 51, 270)" font-size="10" font-family="SansSerif" font-style="normal" font-weight="normal">0.0</text>
<text fill="#000000" style="stroke:none" x="87" y="270" transform="rotate(-0, 87, 270)" font-size="10" font-family="SansSerif" font-style="normal" font-weight="normal">0.1</text>
<text fill="#000000" style="stroke:none" x="123" y="270" transform="rotate(-0, 123, 270)" font-size="10" font-family="SansSerif" font-style="normal" font-weight="normal">0.2</text>
<text fill="#000000" style="stroke:none" x="158" y="270" transform="rotate(-0, 158, 270)" font-size="10" font-family="SansSerif" font-style="normal" font-weight="normal">0.3</text>
<text fill="#000000" style="stroke:none" x="194" y="270" transform="rotate(-0, 194, 270)" font-size="10" font-family="SansSerif" font-style="normal" font-weight="normal">0.4</text>
<text fill="#000000" style="stroke:none" x="230" y="270" transform="rotate(-0, 230, 270)" font-size="10" font-family="SansSerif" font-style="normal" font-weight="normal">0.5</text>
<text fill="#000000" style="stroke:none" x="265" y="270" transform="rotate(-0, 265, 270)" font-size="10" font-family="SansSerif" font-style="normal" font-weight="normal">0.6</text>
<text fill="#000000" style="stroke:none" x="300" y="270" transform="rotate(-0, 300, 270)" font-size="10" font-family="SansSerif" font-style="normal" font-weight="normal">0.7</text>
<text fill="#000000" style="stroke:none" x="336" y="270" transform="rotate(-0, 336, 270)" font-size="10" font-family="SansSerif" font-style="normal" font-weight="normal">0.8</text>
<text fill="#000000" style="stroke:none" x="371" y="270" transform="rotate(-0, 371, 270)" font-size="10" font-family="SansSerif" font-style="normal" font-weight="normal">0.9</text>
<text fill="#000000" style="stroke:none" x="408" y="270" transform="rotate(-0, 408, 270)" font-size="10" font-family="SansSerif" font-style="normal" font-weight="normal">1.0</text>
</g>
</svg>
