<?xml version="1.0" encoding="UTF-8" standalone="no"?>
<svg xmlns="http://www.w3.org/2000/svg"
     xmlns:xlink="http://www.w3.org/1999/xlink"
     width="408px" height="299px" viewBox="0 0 408 299"
     style="stroke:none">
<title>Graphic window number 0</title>
<desc>
Creator: GL2PS 1.3.2, (C) 1999-2006 Christophe Geuzaine (geuz@geuz.org)
For: Scilab
CreationDate: Tue Apr 27 14:12:56 2010
</desc>
<defs>
</defs>
<polygon fill="#ffffff" points="0,0 408,0 408,299 0,299"/>
<g>
<polyline fill="none" stroke="#000000" stroke-width="0.5" points="51,261.625 51,37.375 51,37.375 357,37.375 357,261.625 357,261.625 51,261.625"/>
<polyline fill="none" stroke="#000000" stroke-width="0.5" points="357,37.375 51,37.375"/>
<polyline fill="none" stroke="#000000" stroke-width="0.5" points="357,37.375 357,261.625"/>
<polyline fill="none" stroke="#000000" stroke-width="0.5" points="357,37.375 357,37.375"/>
<polygon fill="#ffffff" points="51,261.625 51,37.375 51,37.375"/>
<polygon fill="#ffffff" points="51,261.625 51,37.375 51,261.625"/>
<polygon fill="#ffffff" points="51,261.625 357,261.625 357,261.625"/>
<polygon fill="#ffffff" points="51,261.625 357,261.625 51,261.625"/>
<polygon fill="#ffffff" points="51,261.625 357,261.625 357,37.375"/>
<polygon fill="#ffffff" points="51,261.625 357,37.375 51,37.375"/>
<polyline fill="none" stroke="#0000ff" stroke-width="0.5" points="51,190.242 51.3062,190.364 51.6128,190.499 51.9189,190.645 52.2251,190.803 52.5317,190.972 52.8379,191.153 53.144,191.344 53.4507,191.547 53.7568,191.76 54.063,191.982 54.3691,192.215 54.6758,192.458 54.9819,192.709 55.2881,192.97 55.5947,193.239 55.9009,193.516 56.207,193.8 56.5137,194.092 56.8198,194.391 57.126,194.696 57.4326,195.006 57.7388,195.322 58.0449,195.644 58.3516,195.969 58.6577,196.298 58.9639,196.631 59.2705,196.967 59.5767,197.305 59.8828,197.645 60.189,197.986 60.4956,198.328 60.8018,198.67 61.1079,199.012 61.4146,199.353 61.7207,199.692 62.0269,200.03 62.3335,200.365 62.6396,200.697 62.9458,201.025 63.2524,201.35 63.5586,201.669 63.8647,201.983 64.1714,202.292 64.4775,202.594 64.7837,202.89 65.0903,203.178 65.3965,203.458 65.7026,203.731 66.0088,203.995 66.3154,204.249 66.6216,204.494 66.9277,204.729 67.2344,204.953 67.5405,205.166 67.8467,205.368 68.1533,205.559 68.4595,205.737 68.7656,205.903 69.0723,206.057 69.3784,206.197 69.6846,206.324 69.9912,206.438 70.2974,206.538 70.6035,206.624 70.9097,206.696 71.2163,206.753 71.5225,206.796 71.8286,206.825 72.1353,206.838 72.4414,206.837 72.7476,206.821 73.0542,206.79 73.3604,206.743 73.6665,206.682 73.9731,206.606 74.2793,206.515 74.5854,206.409 74.8921,206.289 75.1982,206.153 75.5044,206.003 75.811,205.839 76.1172,205.662 76.4233,205.47 76.73,205.264 77.0361,205.045 77.3423,204.813 77.6484,204.568 77.9551,204.311 78.2612,204.042 78.5674,203.76 78.874,203.468 79.1802,203.164 79.4863,202.85 79.793,202.526 80.0991,202.192 80.4053,201.85 80.7119,201.499 81.0181,201.139 81.3242,200.772 81.6309,200.398 81.937,200.018 82.2432,199.631 82.5493,199.24 82.856,198.843 83.1621,198.443 83.4683,198.039 83.7749,197.633 84.0811,197.224 84.3872,196.813 84.6938,196.402 85,195.99 85.3062,195.579 85.6128,195.169 85.9189,194.76 86.2251,194.354 86.5317,193.951 86.8379,193.552 87.144,193.157 87.4507,192.767 87.7568,192.382 88.063,192.004 88.3691,191.633 88.6758,191.269 88.9819,190.914 89.2881,190.566 89.5947,190.229 89.9009,189.902 90.207,189.585 90.5137,189.279 90.8198,188.985 91.126,188.703 91.4326,188.434 91.7388,188.177 92.0449,187.935 92.3516,187.707 92.6577,187.493 92.9639,187.294 93.2705,187.111 93.5767,186.943 93.8828,186.792 94.189,186.657 94.4956,186.539 94.8018,186.438 95.1079,186.354 95.4146,186.287 95.7207,186.238 96.0269,186.208 96.3335,186.195 96.6396,186.201 96.9458,186.225 97.2524,186.267 97.5586,186.327 97.8647,186.406 98.1714,186.503 98.4775,186.619 98.7837,186.753 99.0898,186.905 99.3965,187.075 99.7026,187.263 100.009,187.469 100.315,187.691 100.622,187.932 100.928,188.189 101.234,188.462 101.541,188.752 101.847,189.058 102.153,189.379 102.459,189.716 102.766,190.067 103.072,190.432 103.378,190.811 103.685,191.203 103.991,191.607 104.297,192.024 104.604,192.452 104.91,192.891 105.216,193.34 105.522,193.799 105.829,194.267 106.135,194.743 106.441,195.226 106.748,195.716 107.054,196.212 107.36,196.714 107.667,197.22 107.973,197.73 108.279,198.243 108.585,198.758 108.892,199.274 109.198,199.791 109.504,200.308 109.811,200.823 110.117,201.337 110.423,201.848 110.729,202.355 111.036,202.858 111.342,203.356 111.648,203.848 111.955,204.333 112.261,204.811 112.567,205.279 112.874,205.739 113.18,206.188 113.486,206.627 113.793,207.054 114.099,207.469 114.405,207.871 114.712,208.258 115.018,208.631 115.324,208.989 115.631,209.332 115.937,209.657 116.243,209.965 116.549,210.256 116.856,210.528 117.162,210.781 117.468,211.015 117.775,211.228 118.081,211.421 118.387,211.594 118.694,211.745 119,211.874 119.306,211.98 119.613,212.065 119.919,212.127 120.225,212.166 120.532,212.182 120.838,212.174 121.144,212.143 121.451,212.087 121.757,212.009 122.063,211.906 122.369,211.779 122.676,211.629 122.982,211.455 123.288,211.257 123.595,211.036 123.901,210.791 124.207,210.522 124.514,210.231 124.82,209.918 125.126,209.582 125.433,209.224 125.739,208.845 126.045,208.444 126.352,208.023 126.658,207.582 126.964,207.12 127.271,206.64 127.577,206.141 127.883,205.625 128.189,205.091 128.496,204.541 128.802,203.975 129.108,203.394 129.415,202.799 129.721,202.19 130.027,201.57 130.333,200.938 130.64,200.294 130.946,199.641 131.252,198.979 131.559,198.309 131.865,197.633 132.171,196.95 132.478,196.263 132.784,195.571 133.09,194.877 133.396,194.181 133.703,193.485 134.009,192.789 134.315,192.094 134.622,191.403 134.928,190.715 135.234,190.032 135.541,189.354 135.847,188.685 136.153,188.022 136.459,187.37 136.766,186.728 137.072,186.098 137.378,185.48 137.685,184.876 137.991,184.287 138.297,183.713 138.604,183.157 138.91,182.619 139.216,182.099 139.522,181.6 139.829,181.121 140.135,180.664 140.441,180.23 140.748,179.82 141.054,179.434 141.36,179.074 141.667,178.74 141.973,178.433 142.279,178.153 142.585,177.903 142.892,177.681 143.198,177.489 143.504,177.328 143.811,177.197 144.117,177.098 144.423,177.031 144.729,176.996 145.036,176.994 145.342,177.025 145.648,177.089 145.955,177.188 146.261,177.32 146.567,177.486 146.874,177.686 147.18,177.92 147.486,178.188 147.793,178.491 148.099,178.828 148.405,179.199 148.712,179.603 149.018,180.041 149.324,180.511 149.631,181.015 149.937,181.551 150.243,182.119 150.549,182.718 150.856,183.348 151.162,184.009 151.468,184.698 151.775,185.417 152.081,186.164 152.387,186.938 152.694,187.738 153,188.564 153.306,189.414 153.613,190.288 153.919,191.184 154.225,192.102 154.532,193.039 154.838,193.996 155.144,194.97 155.451,195.96 155.757,196.966 156.063,197.986 156.369,199.018 156.676,200.061 156.982,201.114 157.288,202.175 157.595,203.242 157.901,204.314 158.207,205.39 158.514,206.467 158.82,207.545 159.126,208.622 159.433,209.695 159.739,210.763 160.045,211.825 160.352,212.879 160.658,213.923 160.964,214.956 161.271,215.975 161.577,216.979 161.883,217.967 162.189,218.936 162.496,219.885 162.802,220.812 163.108,221.715 163.415,222.592 163.721,223.443 164.027,224.265 164.333,225.056 164.64,225.815 164.946,226.541 165.252,227.231 165.559,227.885 165.865,228.5 166.171,229.074 166.478,229.607 166.784,230.097 167.09,230.543 167.396,230.942 167.703,231.295 168.009,231.599 168.315,231.853 168.622,232.056 168.928,232.207 169.234,232.305 169.541,232.348 169.847,232.335 170.153,232.266 170.459,232.14 170.766,231.955 171.072,231.711 171.378,231.408 171.685,231.043 171.991,230.618 172.297,230.131 172.604,229.582 172.91,228.97 173.216,228.295 173.522,227.557 173.829,226.754 174.135,225.889 174.441,224.959 174.748,223.966 175.054,222.909 175.36,221.788 175.667,220.604 175.973,219.356 176.279,218.045 176.585,216.673 176.892,215.238 177.198,213.741 177.504,212.184 177.811,210.566 178.117,208.889 178.423,207.154 178.729,205.361 179.036,203.511 179.342,201.605 179.648,199.646 179.955,197.633 180.261,195.567 180.567,193.451 180.874,191.286 181.18,189.072 181.486,186.812 181.793,184.508 182.099,182.16 182.405,179.77 182.712,177.341 183.018,174.873 183.324,172.369 183.631,169.832 183.937,167.261 184.243,164.66 184.549,162.031 184.856,159.375 185.162,156.696 185.468,153.994 185.775,151.272 186.081,148.534 186.387,145.779 186.694,143.012 187,140.234 187.306,137.447 187.613,134.655 187.919,131.859 188.225,129.062 188.532,126.265 188.838,123.473 189.144,120.686 189.451,117.908 189.757,115.141 190.063,112.387 190.369,109.649 190.676,106.929 190.982,104.23 191.288,101.555 191.595,98.9043 191.901,96.2822 192.207,93.6899 192.514,91.1309 192.82,88.6064 193.126,86.1196 193.433,83.6724 193.739,81.2666 194.045,78.9053 194.352,76.5903 194.658,74.3237 194.964,72.1079 195.271,69.9448 195.577,67.8359 195.883,65.7837 196.189,63.7905 196.496,61.8574 196.802,59.9868 197.108,58.1802 197.415,56.439 197.721,54.7651 198.027,53.1606 198.333,51.6265 198.64,50.1646 198.946,48.7754 199.252,47.4614 199.559,46.2231 199.865,45.062 200.171,43.979 200.478,42.9756 200.784,42.0522 201.09,41.21 201.396,40.4492 201.703,39.7715 202.009,39.1772 202.315,38.6665 202.622,38.2402 202.928,37.8989 203.234,37.6426 203.541,37.4712 203.847,37.3857 204.153,37.3857 204.459,37.4712 204.766,37.6426 205.072,37.8989 205.378,38.2402 205.685,38.6665 205.991,39.1772 206.297,39.7715 206.604,40.4492 206.91,41.21 207.216,42.0522 207.522,42.9756 207.829,43.979 208.135,45.062 208.441,46.2231 208.748,47.4614 209.054,48.7754 209.36,50.1646 209.667,51.6265 209.973,53.1606 210.279,54.7651 210.585,56.439 210.892,58.1802 211.198,59.9868 211.504,61.8574 211.811,63.7905 212.117,65.7837 212.423,67.8359 212.729,69.9448 213.036,72.1079 213.342,74.3237 213.648,76.5903 213.955,78.9053 214.261,81.2666 214.567,83.6724 214.874,86.1196 215.18,88.6064 215.486,91.1309 215.793,93.6899 216.099,96.2822 216.405,98.9043 216.712,101.555 217.018,104.23 217.324,106.929 217.631,109.649 217.937,112.387 218.243,115.141 218.549,117.908 218.856,120.686 219.162,123.473 219.468,126.265 219.775,129.062 220.081,131.859 220.387,134.655 220.694,137.447 221,140.234 221.306,143.012 221.613,145.779 221.919,148.534 222.225,151.272 222.532,153.994 222.838,156.696 223.144,159.375 223.451,162.031 223.757,164.66 224.063,167.261 224.369,169.832 224.676,172.369 224.982,174.873 225.288,177.341 225.595,179.77 225.901,182.16 226.207,184.508 226.514,186.812 226.82,189.072 227.126,191.286 227.433,193.451 227.739,195.567 228.045,197.633 228.352,199.646 228.658,201.605 228.964,203.511 229.271,205.361 229.577,207.154 229.883,208.889 230.189,210.566 230.496,212.184 230.802,213.741 231.108,215.238 231.415,216.673 231.721,218.045 232.027,219.356 232.333,220.604 232.64,221.788 232.946,222.909 233.252,223.966 233.559,224.959 233.865,225.889 234.171,226.754 234.478,227.557 234.784,228.295 235.09,228.97 235.396,229.582 235.703,230.131 236.009,230.618 236.315,231.043 236.622,231.408 236.928,231.711 237.234,231.955 237.541,232.14 237.847,232.266 238.153,232.335 238.459,232.348 238.766,232.305 239.072,232.207 239.378,232.056 239.685,231.853 239.991,231.599 240.297,231.295 240.604,230.942 240.91,230.543 241.216,230.097 241.522,229.607 241.829,229.074 242.135,228.5 242.441,227.885 242.748,227.231 243.054,226.541 243.36,225.815 243.667,225.056 243.973,224.265 244.279,223.443 244.585,222.592 244.892,221.715 245.198,220.812 245.504,219.885 245.811,218.936 246.117,217.967 246.423,216.979 246.729,215.975 247.036,214.956 247.342,213.923 247.648,212.879 247.955,211.825 248.261,210.763 248.567,209.695 248.874,208.622 249.18,207.545 249.486,206.467 249.793,205.39 250.099,204.314 250.405,203.242 250.712,202.175 251.018,201.114 251.324,200.061 251.631,199.018 251.937,197.986 252.243,196.966 252.549,195.96 252.856,194.97 253.162,193.996 253.468,193.039 253.775,192.102 254.081,191.184 254.387,190.288 254.694,189.414 255,188.564 255.306,187.738 255.613,186.938 255.919,186.164 256.225,185.417 256.532,184.698 256.838,184.009 257.144,183.348 257.451,182.718 257.757,182.119 258.063,181.551 258.369,181.015 258.676,180.511 258.982,180.041 259.288,179.603 259.595,179.199 259.901,178.828 260.207,178.491 260.514,178.188 260.82,177.92 261.126,177.686 261.433,177.486 261.739,177.32 262.045,177.188 262.352,177.089 262.658,177.025 262.964,176.994 263.271,176.996 263.577,177.031 263.883,177.098 264.189,177.197 264.496,177.328 264.802,177.489 265.108,177.681 265.415,177.903 265.721,178.153 266.027,178.433 266.333,178.74 266.64,179.074 266.946,179.434 267.252,179.82 267.559,180.23 267.865,180.664 268.171,181.121 268.478,181.6 268.784,182.099 269.09,182.619 269.396,183.157 269.703,183.713 270.009,184.287 270.315,184.876 270.622,185.48 270.928,186.098 271.234,186.728 271.541,187.37 271.847,188.022 272.153,188.685 272.459,189.354 272.766,190.032 273.072,190.715 273.378,191.403 273.685,192.094 273.991,192.789 274.297,193.485 274.604,194.181 274.91,194.877 275.216,195.571 275.522,196.263 275.829,196.95 276.135,197.633 276.441,198.309 276.748,198.979 277.054,199.641 277.36,200.294 277.667,200.938 277.973,201.57 278.279,202.19 278.585,202.799 278.892,203.394 279.198,203.975 279.504,204.541 279.811,205.091 280.117,205.625 280.423,206.141 280.729,206.64 281.036,207.12 281.342,207.582 281.648,208.023 281.955,208.444 282.261,208.845 282.567,209.224 282.874,209.582 283.18,209.918 283.486,210.231 283.793,210.522 284.099,210.791 284.405,211.036 284.712,211.257 285.018,211.455 285.324,211.629 285.631,211.779 285.937,211.906 286.243,212.009 286.549,212.087 286.856,212.143 287.162,212.174 287.468,212.182 287.775,212.166 288.081,212.127 288.387,212.065 288.694,211.98 289,211.874 289.306,211.745 289.613,211.594 289.919,211.421 290.225,211.228 290.532,211.015 290.838,210.781 291.144,210.528 291.451,210.256 291.757,209.965 292.063,209.657 292.369,209.332 292.676,208.989 292.982,208.631 293.288,208.258 293.595,207.871 293.901,207.469 294.207,207.054 294.514,206.627 294.82,206.188 295.126,205.739 295.433,205.279 295.739,204.811 296.045,204.333 296.352,203.848 296.658,203.356 296.964,202.858 297.271,202.355 297.577,201.848 297.883,201.337 298.189,200.823 298.496,200.308 298.802,199.791 299.108,199.274 299.415,198.758 299.721,198.243 300.027,197.73 300.333,197.22 300.64,196.714 300.946,196.212 301.252,195.716 301.559,195.226 301.865,194.743 302.171,194.267 302.478,193.799 302.784,193.34 303.09,192.891 303.396,192.452 303.703,192.024 304.009,191.607 304.315,191.203 304.622,190.811 304.928,190.432 305.234,190.067 305.541,189.716 305.847,189.379 306.153,189.058 306.459,188.752 306.766,188.462 307.072,188.189 307.378,187.932 307.685,187.691 307.991,187.469 308.297,187.263 308.604,187.075 308.91,186.905 309.216,186.753 309.522,186.619 309.829,186.503 310.135,186.406 310.441,186.327 310.748,186.267 311.054,186.225 311.36,186.201 311.667,186.195 311.973,186.208 312.279,186.238 312.585,186.287 312.892,186.354 313.198,186.438 313.504,186.539 313.811,186.657 314.117,186.792 314.423,186.943 314.729,187.111 315.036,187.294 315.342,187.493 315.648,187.707 315.955,187.935 316.261,188.177 316.567,188.434 316.874,188.703 317.18,188.985 317.486,189.279 317.793,189.585 318.099,189.902 318.405,190.229 318.712,190.566 319.018,190.914 319.324,191.269 319.631,191.633 319.937,192.004 320.243,192.382 320.549,192.767 320.856,193.157 321.162,193.552 321.468,193.951 321.775,194.354 322.081,194.76 322.387,195.169 322.694,195.579 323,195.99 323.306,196.402 323.613,196.813 323.919,197.224 324.225,197.633 324.532,198.039 324.838,198.443 325.144,198.843 325.451,199.24 325.757,199.631 326.063,200.018 326.369,200.398 326.676,200.772 326.982,201.139 327.288,201.499 327.595,201.85 327.901,202.192 328.207,202.526 328.514,202.85 328.82,203.164 329.126,203.468 329.433,203.76 329.739,204.042 330.045,204.311 330.352,204.568 330.658,204.813 330.964,205.045 331.27,205.264 331.577,205.47 331.883,205.662 332.189,205.839 332.496,206.003 332.802,206.153 333.108,206.289 333.415,206.409 333.721,206.515 334.027,206.606 334.333,206.682 334.64,206.743 334.946,206.79 335.252,206.821 335.559,206.837 335.865,206.838 336.171,206.825 336.478,206.796 336.784,206.753 337.09,206.696 337.396,206.624 337.703,206.538 338.009,206.438 338.315,206.324 338.622,206.197 338.928,206.057 339.234,205.903 339.541,205.737 339.847,205.559 340.153,205.368 340.459,205.166 340.766,204.953 341.072,204.729 341.378,204.494 341.685,204.249 341.991,203.995 342.297,203.731 342.604,203.458 342.91,203.178 343.216,202.89 343.522,202.594 343.829,202.292 344.135,201.983 344.441,201.669 344.748,201.35 345.054,201.025 345.36,200.697 345.667,200.365 345.973,200.03 346.279,199.692 346.585,199.353 346.892,199.012 347.198,198.67 347.504,198.328 347.811,197.986 348.117,197.645 348.423,197.305 348.729,196.967 349.036,196.631 349.342,196.298 349.648,195.969 349.955,195.644 350.261,195.322 350.567,195.006 350.874,194.696 351.18,194.391 351.486,194.092 351.793,193.8 352.099,193.516 352.405,193.239 352.712,192.97 353.018,192.709 353.324,192.458 353.631,192.215 353.937,191.982 354.243,191.76 354.549,191.547 354.856,191.344 355.162,191.153 355.468,190.972 355.775,190.803 356.081,190.645 356.387,190.499 356.694,190.364 357,190.242"/>
<polyline fill="none" stroke="#007f00" stroke-width="0.5" points="51,197.554 51.3062,196.913 51.6128,196.273 51.9189,195.635 52.2251,194.999 52.5317,194.363 52.8379,193.729 53.144,193.096 53.4507,192.464 53.7568,191.833 54.063,191.204 54.3691,190.576 54.6758,189.95 54.9819,189.324 55.2881,188.7 55.5947,188.078 55.9009,187.456 56.207,186.836 56.5137,186.217 56.8198,185.6 57.126,184.983 57.4326,184.368 57.7388,183.754 58.0449,183.142 58.3516,182.531 58.6577,181.921 58.9639,181.312 59.2705,180.705 59.5767,180.099 59.8828,179.494 60.189,178.891 60.4956,178.289 60.8018,177.688 61.1079,177.088 61.4146,176.49 61.7207,175.893 62.0269,175.297 62.3335,174.702 62.6396,174.109 62.9458,173.517 63.2524,172.927 63.5586,172.337 63.8647,171.749 64.1714,171.162 64.4775,170.577 64.7837,169.993 65.0903,169.41 65.3965,168.828 65.7026,168.248 66.0088,167.668 66.3154,167.091 66.6216,166.514 66.9277,165.939 67.2344,165.365 67.5405,164.792 67.8467,164.221 68.1533,163.651 68.4595,163.082 68.7656,162.515 69.0723,161.948 69.3784,161.383 69.6846,160.82 69.9912,160.257 70.2974,159.696 70.6035,159.136 70.9097,158.578 71.2163,158.021 71.5225,157.465 71.8286,156.91 72.1353,156.356 72.4414,155.805 72.7476,155.253 73.0542,154.704 73.3604,154.156 73.6665,153.609 73.9731,153.063 74.2793,152.519 74.5854,151.976 74.8921,151.434 75.1982,150.893 75.5044,150.354 75.811,149.816 76.1172,149.279 76.4233,148.744 76.73,148.209 77.0361,147.677 77.3423,147.145 77.6484,146.615 77.9551,146.086 78.2612,145.558 78.5674,145.032 78.874,144.506 79.1802,143.983 79.4863,143.46 79.793,142.939 80.0991,142.419 80.4053,141.9 80.7119,141.383 81.0181,140.867 81.3242,140.352 81.6309,139.838 81.937,139.326 82.2432,138.814 82.5493,138.305 82.856,137.796 83.1621,137.289 83.4683,136.783 83.7749,136.279 84.0811,135.775 84.3872,135.273 84.6938,134.772 85,134.273 85.3062,133.775 85.6128,133.278 85.9189,132.782 86.2251,132.288 86.5317,131.795 86.8379,131.303 87.144,130.813 87.4507,130.324 87.7568,129.835 88.063,129.349 88.3691,128.864 88.6758,128.379 88.9819,127.897 89.2881,127.416 89.5947,126.935 89.9009,126.456 90.207,125.979 90.5137,125.502 90.8198,125.027 91.126,124.553 91.4326,124.081 91.7388,123.609 92.0449,123.14 92.3516,122.671 92.6577,122.204 92.9639,121.737 93.2705,121.272 93.5767,120.809 93.8828,120.347 94.189,119.886 94.4956,119.426 94.8018,118.968 95.1079,118.511 95.4146,118.055 95.7207,117.601 96.0269,117.147 96.3335,116.695 96.6396,116.245 96.9458,115.795 97.2524,115.347 97.5586,114.9 97.8647,114.455 98.1714,114.01 98.4775,113.567 98.7837,113.126 99.0898,112.686 99.3965,112.246 99.7026,111.809 100.009,111.372 100.315,110.937 100.622,110.502 100.928,110.07 101.234,109.638 101.541,109.208 101.847,108.779 102.153,108.352 102.459,107.926 102.766,107.5 103.072,107.077 103.378,106.654 103.685,106.233 103.991,105.813 104.297,105.395 104.604,104.978 104.91,104.562 105.216,104.147 105.522,103.733 105.829,103.321 106.135,102.91 106.441,102.5 106.748,102.092 107.054,101.686 107.36,101.28 107.667,100.875 107.973,100.472 108.279,100.07 108.585,99.6694 108.892,99.27 109.198,98.8721 109.504,98.4756 109.811,98.0801 110.117,97.6855 110.423,97.293 110.729,96.9014 111.036,96.5107 111.342,96.1216 111.648,95.7339 111.955,95.3477 112.261,94.9624 112.567,94.5786 112.874,94.1958 113.18,93.8145 113.486,93.4346 113.793,93.0557 114.099,92.6782 114.405,92.3018 114.712,91.9268 115.018,91.5532 115.324,91.1812 115.631,90.8101 115.937,90.4399 116.243,90.0718 116.549,89.7046 116.856,89.3384 117.162,88.9736 117.468,88.6104 117.775,88.2485 118.081,87.8877 118.387,87.5278 118.694,87.1699 119,86.813 119.306,86.457 119.613,86.1025 119.919,85.7495 120.225,85.3979 120.532,85.0474 120.838,84.6982 121.144,84.3501 121.451,84.0034 121.757,83.6582 122.063,83.314 122.369,82.9712 122.676,82.6294 122.982,82.2896 123.288,81.9502 123.595,81.6128 123.901,81.2764 124.207,80.9409 124.514,80.6074 124.82,80.2749 125.126,79.9434 125.433,79.6133 125.739,79.2847 126.045,78.9575 126.352,78.6313 126.658,78.3062 126.964,77.9829 127.271,77.6606 127.577,77.3394 127.883,77.02 128.189,76.7012 128.496,76.3843 128.802,76.0684 129.108,75.7539 129.415,75.4404 129.721,75.1284 130.027,74.8179 130.333,74.5083 130.64,74.2002 130.946,73.8931 131.252,73.5879 131.559,73.2832 131.865,72.9805 132.171,72.6787 132.478,72.3779 132.784,72.0791 133.09,71.7812 133.396,71.4844 133.703,71.189 134.009,70.895 134.315,70.6025 134.622,70.311 134.928,70.0205 135.234,69.7319 135.541,69.4443 135.847,69.1577 136.153,68.873 136.459,68.5889 136.766,68.3066 137.072,68.0254 137.378,67.7456 137.685,67.4668 137.991,67.1895 138.297,66.9136 138.604,66.6387 138.91,66.3652 139.216,66.0928 139.522,65.8223 139.829,65.5522 140.135,65.2842 140.441,65.0171 140.748,64.7515 141.054,64.4868 141.36,64.2236 141.667,63.9614 141.973,63.7007 142.279,63.4414 142.585,63.1836 142.892,62.9268 143.198,62.6714 143.504,62.417 143.811,62.1641 144.117,61.9121 144.423,61.6621 144.729,61.4126 145.036,61.165 145.342,60.9185 145.648,60.6733 145.955,60.4292 146.261,60.1865 146.567,59.9453 146.874,59.7051 147.18,59.4663 147.486,59.229 147.793,58.9927 148.099,58.7573 148.405,58.5239 148.712,58.2915 149.018,58.0605 149.324,57.8306 149.631,57.6021 149.937,57.3745 150.243,57.1489 150.549,56.9238 150.856,56.7007 151.162,56.4785 151.468,56.2578 151.775,56.0381 152.081,55.8198 152.387,55.6025 152.694,55.3872 153,55.1729 153.306,54.9595 153.613,54.7476 153.919,54.5371 154.225,54.3276 154.532,54.1196 154.838,53.9131 155.144,53.7075 155.451,53.5034 155.757,53.3008 156.063,53.0991 156.369,52.8984 156.676,52.6997 156.982,52.502 157.288,52.3057 157.595,52.1104 157.901,51.9165 158.207,51.7236 158.514,51.5327 158.82,51.3423 159.126,51.1538 159.433,50.9663 159.739,50.7803 160.045,50.5952 160.352,50.4116 160.658,50.229 160.964,50.0483 161.271,49.8687 161.577,49.6899 161.883,49.5127 162.189,49.3369 162.496,49.1621 162.802,48.9888 163.108,48.8169 163.415,48.646 163.721,48.4766 164.027,48.3086 164.333,48.1416 164.64,47.9756 164.946,47.8115 165.252,47.6484 165.559,47.4868 165.865,47.3262 166.171,47.167 166.478,47.0088 166.784,46.8525 167.09,46.6968 167.396,46.543 167.703,46.3901 168.009,46.2388 168.315,46.0884 168.622,45.9395 168.928,45.792 169.234,45.6455 169.541,45.5005 169.847,45.3564 170.153,45.2139 170.459,45.0728 170.766,44.9326 171.072,44.7939 171.378,44.6567 171.685,44.5205 171.991,44.3857 172.297,44.2524 172.604,44.1201 172.91,43.9893 173.216,43.8594 173.522,43.731 173.829,43.604 174.135,43.478 174.441,43.3535 174.748,43.23 175.054,43.1084 175.36,42.9873 175.667,42.8682 175.973,42.75 176.279,42.6333 176.585,42.5176 176.892,42.4033 177.198,42.2905 177.504,42.1787 177.811,42.0684 178.117,41.959 178.423,41.8511 178.729,41.7446 179.036,41.6392 179.342,41.5352 179.648,41.4326 179.955,41.3311 180.261,41.231 180.567,41.1323 180.874,41.0347 181.18,40.9385 181.486,40.8433 181.793,40.7495 182.099,40.6572 182.405,40.5659 182.712,40.4761 183.018,40.3872 183.324,40.3003 183.631,40.2139 183.937,40.1294 184.243,40.0459 184.549,39.9639 184.856,39.8828 185.162,39.8032 185.468,39.7251 185.775,39.6479 186.081,39.5723 186.387,39.4976 186.694,39.4243 187,39.3525 187.306,39.2817 187.613,39.2124 187.919,39.1445 188.225,39.0776 188.532,39.0122 188.838,38.9482 189.144,38.8853 189.451,38.8237 189.757,38.7632 190.063,38.7041 190.369,38.6465 190.676,38.5898 190.982,38.5347 191.288,38.4805 191.595,38.4282 191.901,38.3765 192.207,38.3267 192.514,38.2778 192.82,38.2305 193.126,38.1841 193.433,38.1392 193.739,38.0957 194.045,38.0532 194.352,38.0122 194.658,37.9722 194.964,37.9336 195.271,37.8965 195.577,37.8604 195.883,37.8257 196.189,37.7925 196.496,37.7603 196.802,37.7295 197.108,37.7002 197.415,37.6719 197.721,37.645 198.027,37.6191 198.333,37.5947 198.64,37.5718 198.946,37.5498 199.252,37.5293 199.559,37.5098 199.865,37.4922 200.171,37.4751 200.478,37.46 200.784,37.4458 201.09,37.4331 201.396,37.4214 201.703,37.4111 202.009,37.4023 202.315,37.3945 202.622,37.3882 202.928,37.3828 203.234,37.3789 203.541,37.3765 203.847,37.375 204.153,37.375 204.459,37.3765 204.766,37.3789 205.072,37.3828 205.378,37.3882 205.685,37.3945 205.991,37.4023 206.297,37.4111 206.604,37.4214 206.91,37.4331 207.216,37.4458 207.522,37.46 207.829,37.4751 208.135,37.4922 208.441,37.5098 208.748,37.5293 209.054,37.5498 209.36,37.5718 209.667,37.5947 209.973,37.6191 210.279,37.645 210.585,37.6719 210.892,37.7002 211.198,37.7295 211.504,37.7603 211.811,37.7925 212.117,37.8257 212.423,37.8604 212.729,37.8965 213.036,37.9336 213.342,37.9722 213.648,38.0122 213.955,38.0532 214.261,38.0957 214.567,38.1392 214.874,38.1841 215.18,38.2305 215.486,38.2778 215.793,38.3267 216.099,38.3765 216.405,38.4282 216.712,38.4805 217.018,38.5347 217.324,38.5898 217.631,38.6465 217.937,38.7041 218.243,38.7632 218.549,38.8237 218.856,38.8853 219.162,38.9482 219.468,39.0122 219.775,39.0776 220.081,39.1445 220.387,39.2124 220.694,39.2817 221,39.3525 221.306,39.4243 221.613,39.4976 221.919,39.5723 222.225,39.6479 222.532,39.7251 222.838,39.8032 223.144,39.8828 223.451,39.9639 223.757,40.0459 224.063,40.1294 224.369,40.2139 224.676,40.3003 224.982,40.3872 225.288,40.4761 225.595,40.5659 225.901,40.6572 226.207,40.7495 226.514,40.8433 226.82,40.9385 227.126,41.0347 227.433,41.1323 227.739,41.231 228.045,41.3311 228.352,41.4326 228.658,41.5352 228.964,41.6392 229.271,41.7446 229.577,41.8511 229.883,41.959 230.189,42.0684 230.496,42.1787 230.802,42.2905 231.108,42.4033 231.415,42.5176 231.721,42.6333 232.027,42.75 232.333,42.8682 232.64,42.9873 232.946,43.1084 233.252,43.23 233.559,43.3535 233.865,43.478 234.171,43.604 234.478,43.731 234.784,43.8594 235.09,43.9893 235.396,44.1201 235.703,44.2524 236.009,44.3857 236.315,44.5205 236.622,44.6567 236.928,44.7939 237.234,44.9326 237.541,45.0728 237.847,45.2139 238.153,45.3564 238.459,45.5005 238.766,45.6455 239.072,45.792 239.378,45.9395 239.685,46.0884 239.991,46.2388 240.297,46.3901 240.604,46.543 240.91,46.6968 241.216,46.8525 241.522,47.0088 241.829,47.167 242.135,47.3262 242.441,47.4868 242.748,47.6484 243.054,47.8115 243.36,47.9756 243.667,48.1416 243.973,48.3086 244.279,48.4766 244.585,48.646 244.892,48.8169 245.198,48.9888 245.504,49.1621 245.811,49.3369 246.117,49.5127 246.423,49.6899 246.729,49.8687 247.036,50.0483 247.342,50.229 247.648,50.4116 247.955,50.5952 248.261,50.7803 248.567,50.9663 248.874,51.1538 249.18,51.3423 249.486,51.5327 249.793,51.7236 250.099,51.9165 250.405,52.1104 250.712,52.3057 251.018,52.502 251.324,52.6997 251.631,52.8984 251.937,53.0991 252.243,53.3008 252.549,53.5034 252.856,53.7075 253.162,53.9131 253.468,54.1196 253.775,54.3276 254.081,54.5371 254.387,54.7476 254.694,54.9595 255,55.1729 255.306,55.3872 255.613,55.6025 255.919,55.8198 256.225,56.0381 256.532,56.2578 256.838,56.4785 257.144,56.7007 257.451,56.9238 257.757,57.1489 258.063,57.3745 258.369,57.6021 258.676,57.8306 258.982,58.0605 259.288,58.2915 259.595,58.5239 259.901,58.7573 260.207,58.9927 260.514,59.229 260.82,59.4663 261.126,59.7051 261.433,59.9453 261.739,60.1865 262.045,60.4292 262.352,60.6733 262.658,60.9185 262.964,61.165 263.271,61.4126 263.577,61.6621 263.883,61.9121 264.189,62.1641 264.496,62.417 264.802,62.6714 265.108,62.9268 265.415,63.1836 265.721,63.4414 266.027,63.7007 266.333,63.9614 266.64,64.2236 266.946,64.4868 267.252,64.7515 267.559,65.0171 267.865,65.2842 268.171,65.5522 268.478,65.8223 268.784,66.0928 269.09,66.3652 269.396,66.6387 269.703,66.9136 270.009,67.1895 270.315,67.4668 270.622,67.7456 270.928,68.0254 271.234,68.3066 271.541,68.5889 271.847,68.873 272.153,69.1577 272.459,69.4443 272.766,69.7319 273.072,70.0205 273.378,70.311 273.685,70.6025 273.991,70.895 274.297,71.189 274.604,71.4844 274.91,71.7812 275.216,72.0791 275.522,72.3779 275.829,72.6787 276.135,72.9805 276.441,73.2832 276.748,73.5879 277.054,73.8931 277.36,74.2002 277.667,74.5083 277.973,74.8179 278.279,75.1284 278.585,75.4404 278.892,75.7539 279.198,76.0684 279.504,76.3843 279.811,76.7012 280.117,77.02 280.423,77.3394 280.729,77.6606 281.036,77.9829 281.342,78.3062 281.648,78.6313 281.955,78.9575 282.261,79.2847 282.567,79.6133 282.874,79.9434 283.18,80.2749 283.486,80.6074 283.793,80.9409 284.099,81.2764 284.405,81.6128 284.712,81.9502 285.018,82.2896 285.324,82.6294 285.631,82.9712 285.937,83.314 286.243,83.6582 286.549,84.0034 286.856,84.3501 287.162,84.6982 287.468,85.0474 287.775,85.3979 288.081,85.7495 288.387,86.1025 288.694,86.457 289,86.813 289.306,87.1699 289.613,87.5278 289.919,87.8877 290.225,88.2485 290.532,88.6104 290.838,88.9736 291.144,89.3384 291.451,89.7046 291.757,90.0718 292.063,90.4399 292.369,90.8101 292.676,91.1812 292.982,91.5532 293.288,91.9268 293.595,92.3018 293.901,92.6782 294.207,93.0557 294.514,93.4346 294.82,93.8145 295.126,94.1958 295.433,94.5786 295.739,94.9624 296.045,95.3477 296.352,95.7339 296.658,96.1216 296.964,96.5107 297.271,96.9014 297.577,97.293 297.883,97.6855 298.189,98.0801 298.496,98.4756 298.802,98.8721 299.108,99.27 299.415,99.6694 299.721,100.07 300.027,100.472 300.333,100.875 300.64,101.28 300.946,101.686 301.252,102.092 301.559,102.5 301.865,102.91 302.171,103.321 302.478,103.733 302.784,104.147 303.09,104.562 303.396,104.978 303.703,105.395 304.009,105.813 304.315,106.233 304.622,106.654 304.928,107.077 305.234,107.5 305.541,107.926 305.847,108.352 306.153,108.779 306.459,109.208 306.766,109.638 307.072,110.07 307.378,110.502 307.685,110.937 307.991,111.372 308.297,111.809 308.604,112.246 308.91,112.686 309.216,113.126 309.522,113.567 309.829,114.01 310.135,114.455 310.441,114.9 310.748,115.347 311.054,115.795 311.36,116.245 311.667,116.695 311.973,117.147 312.279,117.601 312.585,118.055 312.892,118.511 313.198,118.968 313.504,119.426 313.811,119.886 314.117,120.347 314.423,120.809 314.729,121.272 315.036,121.737 315.342,122.204 315.648,122.671 315.955,123.14 316.261,123.609 316.567,124.081 316.874,124.553 317.18,125.027 317.486,125.502 317.793,125.979 318.099,126.456 318.405,126.935 318.712,127.416 319.018,127.897 319.324,128.379 319.631,128.864 319.937,129.349 320.243,129.835 320.549,130.324 320.856,130.813 321.162,131.303 321.468,131.795 321.775,132.288 322.081,132.782 322.387,133.278 322.694,133.775 323,134.273 323.306,134.772 323.613,135.273 323.919,135.775 324.225,136.279 324.532,136.783 324.838,137.289 325.144,137.796 325.451,138.305 325.757,138.814 326.063,139.326 326.369,139.838 326.676,140.352 326.982,140.867 327.288,141.383 327.595,141.9 327.901,142.419 328.207,142.939 328.514,143.46 328.82,143.983 329.126,144.506 329.433,145.032 329.739,145.558 330.045,146.086 330.352,146.615 330.658,147.145 330.964,147.677 331.27,148.209 331.577,148.744 331.883,149.279 332.189,149.816 332.496,150.354 332.802,150.893 333.108,151.434 333.415,151.976 333.721,152.519 334.027,153.063 334.333,153.609 334.64,154.156 334.946,154.704 335.252,155.253 335.559,155.805 335.865,156.356 336.171,156.91 336.478,157.465 336.784,158.021 337.09,158.578 337.396,159.136 337.703,159.696 338.009,160.257 338.315,160.82 338.622,161.383 338.928,161.948 339.234,162.515 339.541,163.082 339.847,163.651 340.153,164.221 340.459,164.792 340.766,165.365 341.072,165.939 341.378,166.514 341.685,167.091 341.991,167.668 342.297,168.248 342.604,168.828 342.91,169.41 343.216,169.993 343.522,170.577 343.829,171.162 344.135,171.749 344.441,172.337 344.748,172.927 345.054,173.517 345.36,174.109 345.667,174.702 345.973,175.297 346.279,175.893 346.585,176.49 346.892,177.088 347.198,177.688 347.504,178.289 347.811,178.891 348.117,179.494 348.423,180.099 348.729,180.705 349.036,181.312 349.342,181.921 349.648,182.531 349.955,183.142 350.261,183.754 350.567,184.368 350.874,184.983 351.18,185.6 351.486,186.217 351.793,186.836 352.099,187.456 352.405,188.078 352.712,188.7 353.018,189.324 353.324,189.95 353.631,190.576 353.937,191.204 354.243,191.833 354.549,192.464 354.856,193.096 355.162,193.729 355.468,194.363 355.775,194.999 356.081,195.635 356.387,196.273 356.694,196.913 357,197.554"/>
<polygon fill="#ffffee" points="230,224 230,232 238,232"/>
<polygon fill="#ffffee" points="230,224 238,232 238,224"/>
<polyline fill="none" stroke="#0000ff" stroke-width="0.5" points="230,224 230,232 238,232 238,224 230,224"/>
<polygon fill="#ffffee" points="108,200 108,208 116,208"/>
<polygon fill="#ffffee" points="108,200 116,208 116,200"/>
<polyline fill="none" stroke="#0000ff" stroke-width="0.5" points="108,200 108,208 116,208 116,200 108,200"/>
<polygon fill="#ffffee" points="261,59 261,67 269,67"/>
<polygon fill="#ffffee" points="261,59 269,67 269,59"/>
<polyline fill="none" stroke="#007f00" stroke-width="0.5" points="261,59 261,67 269,67 269,59 261,59"/>
<polygon fill="#ffffee" points="237.5,210.5 237.5,224.5 310.5,224.5"/>
<polygon fill="#ffffee" points="237.5,210.5 310.5,224.5 310.5,210.5"/>
<polyline fill="none" stroke="#bebebe" stroke-width="0.5" points="237.5,210.5 237.5,224.5 310.5,224.5 310.5,210.5 237.5,210.5"/>
<text fill="#000000" style="stroke:none" x="238" y="223" transform="rotate(0, 238, 223)" font-size="10" font-family="SansSerif" font-style="normal" font-weight="normal">sinc(4)=-0.19</text>
<polygon fill="#ffffee" points="114.5,187.5 114.5,201.5 207.5,201.5"/>
<polygon fill="#ffffee" points="114.5,187.5 207.5,201.5 207.5,187.5"/>
<polyline fill="none" stroke="#bebebe" stroke-width="0.5" points="114.5,187.5 114.5,201.5 207.5,201.5 207.5,187.5 114.5,187.5"/>
<text fill="#000000" style="stroke:none" x="115" y="200" transform="rotate(0, 115, 200)" font-size="10" font-family="SansSerif" font-style="normal" font-weight="normal">sinc(-12)=-0.042</text>
<polygon fill="#ffffee" points="267.5,36.5 267.5,60.5 305.5,60.5"/>
<polygon fill="#ffffee" points="267.5,36.5 305.5,60.5 305.5,36.5"/>
<polyline fill="none" stroke="#bebebe" stroke-width="0.5" points="267.5,36.5 267.5,60.5 305.5,60.5 305.5,36.5 267.5,36.5"/>
<text fill="#000000" style="stroke:none" x="268" y="47" transform="rotate(0, 268, 47)" font-size="10" font-family="SansSerif" font-style="normal" font-weight="normal">X: 0.4</text>
<text fill="#000000" style="stroke:none" x="268" y="59" transform="rotate(0, 268, 59)" font-size="10" font-family="SansSerif" font-style="normal" font-weight="normal">Y: 0.84</text>
<polyline fill="none" stroke="#000000" stroke-width="0.5" points="51,261.625 51,37.375"/>
<polyline fill="none" stroke="#000000" stroke-width="0.5" points="51,261.625 46.4102,261.625"/>
<polyline fill="none" stroke="#000000" stroke-width="0.5" points="51,229.589 46.4102,229.589"/>
<polyline fill="none" stroke="#000000" stroke-width="0.5" points="51,197.554 46.4102,197.554"/>
<polyline fill="none" stroke="#000000" stroke-width="0.5" points="51,165.518 46.4102,165.518"/>
<polyline fill="none" stroke="#000000" stroke-width="0.5" points="51,133.482 46.4102,133.482"/>
<polyline fill="none" stroke="#000000" stroke-width="0.5" points="51,101.446 46.4102,101.446"/>
<polyline fill="none" stroke="#000000" stroke-width="0.5" points="51,69.4106 46.4102,69.4106"/>
<polyline fill="none" stroke="#000000" stroke-width="0.5" points="51,37.375 46.4102,37.375"/>
<polyline fill="none" stroke="#000000" stroke-width="0.5" points="51,250.946 48.2461,250.946"/>
<polyline fill="none" stroke="#000000" stroke-width="0.5" points="51,240.268 48.2461,240.268"/>
<polyline fill="none" stroke="#000000" stroke-width="0.5" points="51,218.911 48.2461,218.911"/>
<polyline fill="none" stroke="#000000" stroke-width="0.5" points="51,208.232 48.2461,208.232"/>
<polyline fill="none" stroke="#000000" stroke-width="0.5" points="51,186.875 48.2461,186.875"/>
<polyline fill="none" stroke="#000000" stroke-width="0.5" points="51,176.196 48.2461,176.196"/>
<polyline fill="none" stroke="#000000" stroke-width="0.5" points="51,154.839 48.2461,154.839"/>
<polyline fill="none" stroke="#000000" stroke-width="0.5" points="51,144.161 48.2461,144.161"/>
<polyline fill="none" stroke="#000000" stroke-width="0.5" points="51,122.804 48.2461,122.804"/>
<polyline fill="none" stroke="#000000" stroke-width="0.5" points="51,112.125 48.2461,112.125"/>
<polyline fill="none" stroke="#000000" stroke-width="0.5" points="51,90.7681 48.2461,90.7681"/>
<polyline fill="none" stroke="#000000" stroke-width="0.5" points="51,80.0894 48.2461,80.0894"/>
<polyline fill="none" stroke="#000000" stroke-width="0.5" points="51,58.7319 48.2461,58.7319"/>
<polyline fill="none" stroke="#000000" stroke-width="0.5" points="51,48.0537 48.2461,48.0537"/>
<text fill="#000000" style="stroke:none" x="23" y="267" transform="rotate(-0, 23, 267)" font-size="10" font-family="SansSerif" font-style="normal" font-weight="normal">-0.4</text>
<text fill="#000000" style="stroke:none" x="23" y="235" transform="rotate(-0, 23, 235)" font-size="10" font-family="SansSerif" font-style="normal" font-weight="normal">-0.2</text>
<text fill="#000000" style="stroke:none" x="28" y="203" transform="rotate(-0, 28, 203)" font-size="10" font-family="SansSerif" font-style="normal" font-weight="normal">0.0</text>
<text fill="#000000" style="stroke:none" x="29" y="171" transform="rotate(-0, 29, 171)" font-size="10" font-family="SansSerif" font-style="normal" font-weight="normal">0.2</text>
<text fill="#000000" style="stroke:none" x="29" y="138" transform="rotate(-0, 29, 138)" font-size="10" font-family="SansSerif" font-style="normal" font-weight="normal">0.4</text>
<text fill="#000000" style="stroke:none" x="29" y="106" transform="rotate(-0, 29, 106)" font-size="10" font-family="SansSerif" font-style="normal" font-weight="normal">0.6</text>
<text fill="#000000" style="stroke:none" x="28" y="74" transform="rotate(-0, 28, 74)" font-size="10" font-family="SansSerif" font-style="normal" font-weight="normal">0.8</text>
<text fill="#000000" style="stroke:none" x="29" y="42" transform="rotate(-0, 29, 42)" font-size="10" font-family="SansSerif" font-style="normal" font-weight="normal">1.0</text>
<polyline fill="none" stroke="#000000" stroke-width="0.5" points="51,261.625 357,261.625"/>
<polyline fill="none" stroke="#000000" stroke-width="0.5" points="51,261.625 51,264.985"/>
<polyline fill="none" stroke="#000000" stroke-width="0.5" points="81.6001,261.625 81.6001,264.985"/>
<polyline fill="none" stroke="#000000" stroke-width="0.5" points="112.2,261.625 112.2,264.985"/>
<polyline fill="none" stroke="#000000" stroke-width="0.5" points="142.8,261.625 142.8,264.985"/>
<polyline fill="none" stroke="#000000" stroke-width="0.5" points="173.4,261.625 173.4,264.985"/>
<polyline fill="none" stroke="#000000" stroke-width="0.5" points="204,261.625 204,264.985"/>
<polyline fill="none" stroke="#000000" stroke-width="0.5" points="234.6,261.625 234.6,264.985"/>
<polyline fill="none" stroke="#000000" stroke-width="0.5" points="265.2,261.625 265.2,264.985"/>
<polyline fill="none" stroke="#000000" stroke-width="0.5" points="295.8,261.625 295.8,264.985"/>
<polyline fill="none" stroke="#000000" stroke-width="0.5" points="326.4,261.625 326.4,264.985"/>
<polyline fill="none" stroke="#000000" stroke-width="0.5" points="357,261.625 357,264.985"/>
<polyline fill="none" stroke="#000000" stroke-width="0.5" points="66.2998,261.625 66.2998,263.641"/>
<polyline fill="none" stroke="#000000" stroke-width="0.5" points="96.8999,261.625 96.8999,263.641"/>
<polyline fill="none" stroke="#000000" stroke-width="0.5" points="127.5,261.625 127.5,263.641"/>
<polyline fill="none" stroke="#000000" stroke-width="0.5" points="158.1,261.625 158.1,263.641"/>
<polyline fill="none" stroke="#000000" stroke-width="0.5" points="188.7,261.625 188.7,263.641"/>
<polyline fill="none" stroke="#000000" stroke-width="0.5" points="219.3,261.625 219.3,263.641"/>
<polyline fill="none" stroke="#000000" stroke-width="0.5" points="249.9,261.625 249.9,263.641"/>
<polyline fill="none" stroke="#000000" stroke-width="0.5" points="280.5,261.625 280.5,263.641"/>
<polyline fill="none" stroke="#000000" stroke-width="0.5" points="311.1,261.625 311.1,263.641"/>
<polyline fill="none" stroke="#000000" stroke-width="0.5" points="341.7,261.625 341.7,263.641"/>
<text fill="#000000" style="stroke:none" x="40" y="276" transform="rotate(-0, 40, 276)" font-size="10" font-family="SansSerif" font-style="normal" font-weight="normal">-1.0</text>
<text fill="#000000" style="stroke:none" x="71" y="276" transform="rotate(-0, 71, 276)" font-size="10" font-family="SansSerif" font-style="normal" font-weight="normal">-0.8</text>
<text fill="#000000" style="stroke:none" x="101" y="276" transform="rotate(-0, 101, 276)" font-size="10" font-family="SansSerif" font-style="normal" font-weight="normal">-0.6</text>
<text fill="#000000" style="stroke:none" x="132" y="276" transform="rotate(-0, 132, 276)" font-size="10" font-family="SansSerif" font-style="normal" font-weight="normal">-0.4</text>
<text fill="#000000" style="stroke:none" x="162" y="276" transform="rotate(-0, 162, 276)" font-size="10" font-family="SansSerif" font-style="normal" font-weight="normal">-0.2</text>
<text fill="#000000" style="stroke:none" x="196" y="276" transform="rotate(-0, 196, 276)" font-size="10" font-family="SansSerif" font-style="normal" font-weight="normal">0.0</text>
<text fill="#000000" style="stroke:none" x="227" y="276" transform="rotate(-0, 227, 276)" font-size="10" font-family="SansSerif" font-style="normal" font-weight="normal">0.2</text>
<text fill="#000000" style="stroke:none" x="257" y="276" transform="rotate(-0, 257, 276)" font-size="10" font-family="SansSerif" font-style="normal" font-weight="normal">0.4</text>
<text fill="#000000" style="stroke:none" x="288" y="276" transform="rotate(-0, 288, 276)" font-size="10" font-family="SansSerif" font-style="normal" font-weight="normal">0.6</text>
<text fill="#000000" style="stroke:none" x="318" y="276" transform="rotate(-0, 318, 276)" font-size="10" font-family="SansSerif" font-style="normal" font-weight="normal">0.8</text>
<text fill="#000000" style="stroke:none" x="349" y="276" transform="rotate(-0, 349, 276)" font-size="10" font-family="SansSerif" font-style="normal" font-weight="normal">1.0</text>
</g>
</svg>
