<?xml version="1.0" encoding="UTF-8" standalone="no"?>
<svg xmlns="http://www.w3.org/2000/svg"
     xmlns:xlink="http://www.w3.org/1999/xlink"
     width="612px" height="381px" viewBox="0 0 612 381"
     style="stroke:none">
<title>Figure n°0</title>
<desc>
Creator: GL2PS 1.3.2, (C) 1999-2006 Christophe Geuzaine (geuz@geuz.org)
For: Scilab
CreationDate: Wed Apr 27 17:53:18 2011
</desc>
<defs>
</defs>
<polygon fill="#ffffff" points="0,0 612,0 612,381 0,381"/>
<g>
<polygon fill="#ffffff" points="248.779,217.284 535.5,91.1982 248.779,47.625"/>
<polygon fill="#ffffff" points="248.779,217.284 76.5,120.143 248.779,47.625"/>
<polygon fill="#ffffff" points="248.779,217.284 535.5,260.857 535.5,91.1982"/>
<polygon fill="#ffffff" points="248.779,217.284 76.5,289.802 76.5,120.143"/>
<polygon fill="#ffffff" points="248.779,217.284 363.221,333.375 535.5,260.857"/>
<polygon fill="#ffffff" points="248.779,217.284 76.5,289.802 363.221,333.375"/>
<polyline fill="none" stroke="#000000" stroke-width="0.5" points="302.191,134.04 285.103,132.374"/>
<polyline fill="none" stroke="#000000" stroke-width="0.5" points="318.856,136.355 302.191,134.04"/>
<polyline fill="none" stroke="#000000" stroke-width="0.5" points="285.103,132.374 267.993,131.377"/>
<polyline fill="none" stroke="#000000" stroke-width="0.5" points="334.72,139.288 318.856,136.355"/>
<polyline fill="none" stroke="#000000" stroke-width="0.5" points="267.993,131.377 251.272,131.051"/>
<polyline fill="none" stroke="#000000" stroke-width="0.5" points="349.435,142.79 334.72,139.288"/>
<polyline fill="none" stroke="#000000" stroke-width="0.5" points="251.272,131.051 235.355,131.382"/>
<polyline fill="none" stroke="#000000" stroke-width="0.5" points="362.688,146.802 349.435,142.79"/>
<polyline fill="none" stroke="#000000" stroke-width="0.5" points="235.355,131.382 220.648,132.34"/>
<polyline fill="none" stroke="#000000" stroke-width="0.5" points="374.215,151.255 362.688,146.802"/>
<polyline fill="none" stroke="#000000" stroke-width="0.5" points="535.5,260.857 542.059,261.854"/>
<text fill="#000000" style="stroke:none" x="544" y="267" transform="rotate(-0, 544, 267)" font-size="10" font-family="SansSerif" font-style="normal" font-weight="normal">-1.5</text>
<polygon fill="#ffffee" points="356.5,211.5 356.5,247.5 395.5,247.5"/>
<polygon fill="#ffffee" points="356.5,211.5 395.5,247.5 395.5,211.5"/>
<text fill="#000000" style="stroke:none" x="357" y="222" transform="rotate(0, 357, 222)" font-size="10" font-family="SansSerif" font-style="normal" font-weight="normal">X: 0.31</text>
<text fill="#000000" style="stroke:none" x="357" y="234" transform="rotate(0, 357, 234)" font-size="10" font-family="SansSerif" font-style="normal" font-weight="normal">Y: 0.67</text>
<text fill="#000000" style="stroke:none" x="357" y="246" transform="rotate(0, 357, 246)" font-size="10" font-family="SansSerif" font-style="normal" font-weight="normal">Z: 0.74</text>
<polyline fill="none" stroke="#000000" stroke-width="0.5" points="220.648,132.34 207.539,133.878"/>
<polyline fill="none" stroke="#bebebe" stroke-width="0.5" points="356.5,211.5 356.5,247.5 395.5,247.5 395.5,211.5 356.5,211.5"/>
<polyline fill="none" stroke="#000000" stroke-width="0.5" points="383.795,156.071 374.215,151.255"/>
<polyline fill="none" stroke="#000000" stroke-width="0.5" points="207.539,133.878 196.386,135.934"/>
<polyline fill="none" stroke="#000000" stroke-width="0.5" points="391.267,161.164 383.795,156.071"/>
<polyline fill="none" stroke="#000000" stroke-width="0.5" points="301.563,221.863 294.846,220.027 287.891,218.471"/>
<polyline fill="none" stroke="#000000" stroke-width="0.5" points="307.876,223.957 301.563,221.863"/>
<polyline fill="none" stroke="#000000" stroke-width="0.5" points="313.636,226.278 307.876,223.957"/>
<polyline fill="none" stroke="#000000" stroke-width="0.5" points="287.891,218.471 280.882,217.208"/>
<polygon fill="#ffffee" points="192,132 192,140 200,140"/>
<polygon fill="#ffffee" points="192,132 200,140 200,132"/>
<polygon fill="#ffffee" points="192,132 192,140 200,140"/>
<polygon fill="#ffffee" points="192,132 200,140 200,132"/>
<polyline fill="none" stroke="#000000" stroke-width="0.5" points="318.72,228.795 313.636,226.278"/>
<polyline fill="none" stroke="#000000" stroke-width="0.5" points="280.882,217.208 274.017,216.245"/>
<polyline fill="none" stroke="#000000" stroke-width="0.5" points="192,132 192,140 200,140 200,132 192,132"/>
<polyline fill="none" stroke="#000000" stroke-width="0.5" points="196.386,135.934 196.38,135.936"/>
<polyline fill="none" stroke="#000000" stroke-width="0.5" points="192,132 192,140 200,140 200,132 192,132"/>
<polyline fill="none" stroke="#000000" stroke-width="0.5" points="323.034,231.47 318.72,228.795"/>
<polyline fill="none" stroke="#000000" stroke-width="0.5" points="274.017,216.245 267.499,215.582"/>
<polyline fill="none" stroke="#000000" stroke-width="0.5" points="326.511,234.264 323.034,231.47"/>
<polyline fill="none" stroke="#000000" stroke-width="0.5" points="396.52,166.446 391.267,161.164"/>
<polyline fill="none" stroke="#000000" stroke-width="0.5" points="267.499,215.582 261.531,215.208"/>
<polyline fill="none" stroke="#000000" stroke-width="0.5" points="196.386,135.934 187.51,138.432"/>
<polyline fill="none" stroke="#000000" stroke-width="0.5" points="329.112,237.135 326.511,234.264"/>
<polyline fill="none" stroke="#000000" stroke-width="0.5" points="330.83,240.042 329.112,237.135"/>
<polyline fill="none" stroke="#000000" stroke-width="0.5" points="261.531,215.208 256.312,215.104"/>
<polyline fill="none" stroke="#000000" stroke-width="0.5" points="331.684,242.946 330.83,240.042"/>
<polyline fill="none" stroke="#000000" stroke-width="0.5" points="506.787,272.943 513.346,273.94"/>
<text fill="#000000" style="stroke:none" x="515" y="279" transform="rotate(-0, 515, 279)" font-size="10" font-family="SansSerif" font-style="normal" font-weight="normal">-1.0</text>
<polyline fill="none" stroke="#000000" stroke-width="0.5" points="399.504,171.826 396.52,166.446"/>
<polyline fill="none" stroke="#000000" stroke-width="0.5" points="256.312,215.104 252.031,215.241"/>
<polyline fill="none" stroke="#000000" stroke-width="0.5" points="331.722,245.809 331.684,242.946"/>
<polyline fill="none" stroke="#000000" stroke-width="0.5" points="331.014,248.597 331.722,245.809"/>
<polyline fill="none" stroke="#000000" stroke-width="0.5" points="187.51,138.432 181.188,141.284"/>
<polyline fill="none" stroke="#000000" stroke-width="0.5" points="306,275.33 305.358,274.011"/>
<polyline fill="none" stroke="#000000" stroke-width="0.5" points="469.166,100.289 464.665,92.2925"/>
<polyline fill="none" stroke="#000000" stroke-width="0.5" points="305.358,274.011 305.203,272.732"/>
<polyline fill="none" stroke="#000000" stroke-width="0.5" points="329.65,251.281 331.014,248.597"/>
<polyline fill="none" stroke="#000000" stroke-width="0.5" points="252.031,215.241 248.859,215.584"/>
<polyline fill="none" stroke="#000000" stroke-width="0.5" points="305.203,272.732 305.562,271.465"/>
<polyline fill="none" stroke="#000000" stroke-width="0.5" points="327.74,253.838 329.65,251.281"/>
<polyline fill="none" stroke="#000000" stroke-width="0.5" points="305.562,271.465 306.439,270.18"/>
<polyline fill="none" stroke="#000000" stroke-width="0.5" points="400.224,177.214 399.504,171.826"/>
<polyline fill="none" stroke="#000000" stroke-width="0.5" points="306.439,270.18 307.815,268.848"/>
<polyline fill="none" stroke="#000000" stroke-width="0.5" points="325.405,256.249 327.74,253.838"/>
<polyline fill="none" stroke="#000000" stroke-width="0.5" points="307.815,268.848 309.647,267.439"/>
<polyline fill="none" stroke="#000000" stroke-width="0.5" points="322.772,258.502 325.405,256.249"/>
<polyline fill="none" stroke="#000000" stroke-width="0.5" points="309.647,267.439 311.872,265.93"/>
<polyline fill="none" stroke="#000000" stroke-width="0.5" points="248.859,215.584 246.944,216.09"/>
<polyline fill="none" stroke="#000000" stroke-width="0.5" points="319.975,260.593 322.772,258.502"/>
<polyline fill="none" stroke="#000000" stroke-width="0.5" points="311.872,265.93 314.404,264.297"/>
<polyline fill="none" stroke="#000000" stroke-width="0.5" points="317.144,262.522 319.975,260.593"/>
<polyline fill="none" stroke="#000000" stroke-width="0.5" points="314.404,264.297 317.144,262.522"/>
<polyline fill="none" stroke="#000000" stroke-width="0.5" points="181.188,141.284 177.636,144.389"/>
<polyline fill="none" stroke="#000000" stroke-width="0.5" points="398.739,182.523 400.224,177.214"/>
<polyline fill="none" stroke="#000000" stroke-width="0.5" points="246.944,216.09 246.408,216.708"/>
<polyline fill="none" stroke="#000000" stroke-width="0.5" points="469.841,108.321 469.166,100.289"/>
<polyline fill="none" stroke="#000000" stroke-width="0.5" points="246.408,216.708 247.339,217.381"/>
<polyline fill="none" stroke="#000000" stroke-width="0.5" points="395.161,187.67 398.739,182.523"/>
<polyline fill="none" stroke="#000000" stroke-width="0.5" points="177.636,144.389 177.016,147.639"/>
<polyline fill="none" stroke="#000000" stroke-width="0.5" points="478.074,285.03 484.633,286.027"/>
<text fill="#000000" style="stroke:none" x="486" y="291" transform="rotate(-0, 486, 291)" font-size="10" font-family="SansSerif" font-style="normal" font-weight="normal">-0.5</text>
<polyline fill="none" stroke="#000000" stroke-width="0.5" points="247.339,217.381 249.79,218.051"/>
<polyline fill="none" stroke="#000000" stroke-width="0.5" points="389.647,192.58 395.161,187.67"/>
<polyline fill="none" stroke="#000000" stroke-width="0.5" points="466.753,116.241 469.841,108.321"/>
<text fill="#000000" style="stroke:none" x="51" y="294" transform="rotate(-0, 51, 294)" font-size="10" font-family="SansSerif" font-style="normal" font-weight="normal">0.0</text>
<polyline fill="none" stroke="#000000" stroke-width="0.5" points="249.79,218.051 253.775,218.654"/>
<polyline fill="none" stroke="#000000" stroke-width="0.5" points="76.5,289.802 69.9409,288.805"/>
<text fill="#000000" style="stroke:none" x="39" y="204" transform="rotate(0, 39, 204)" font-size="10" font-family="SansSerif" font-style="normal" font-weight="normal">Z</text>
<polyline fill="none" stroke="#000000" stroke-width="0.5" points="76.5,278.491 72.5645,277.893"/>
<polyline fill="none" stroke="#000000" stroke-width="0.5" points="177.016,147.639 179.417,150.919"/>
<polyline fill="none" stroke="#000000" stroke-width="0.5" points="382.399,197.183 389.647,192.58"/>
<polyline fill="none" stroke="#000000" stroke-width="0.5" points="253.775,218.654 259.269,219.126"/>
<polyline fill="none" stroke="#000000" stroke-width="0.5" points="76.5,267.181 72.5645,266.583"/>
<polyline fill="none" stroke="#000000" stroke-width="0.5" points="76.5,289.802 70.7646,292.216"/>
<polyline fill="none" stroke="#000000" stroke-width="0.5" points="76.5,255.87 72.5645,255.272"/>
<text fill="#000000" style="stroke:none" x="52" y="237" transform="rotate(-0, 52, 237)" font-size="10" font-family="SansSerif" font-style="normal" font-weight="normal">0.5</text>
<polyline fill="none" stroke="#000000" stroke-width="0.5" points="76.5,244.56 72.5645,243.961"/>
<text fill="#000000" style="stroke:none" x="49" y="298" transform="rotate(-0, 49, 298)" font-size="10" font-family="SansSerif" font-style="normal" font-weight="normal">-1.5</text>
<polyline fill="none" stroke="#000000" stroke-width="0.5" points="76.5,233.249 69.9409,232.252"/>
<polyline fill="none" stroke="#000000" stroke-width="0.5" points="259.269,219.126 266.2,219.404"/>
<polyline fill="none" stroke="#000000" stroke-width="0.5" points="373.653,201.423 382.399,197.183"/>
<polyline fill="none" stroke="#000000" stroke-width="0.5" points="76.5,221.938 72.5645,221.34"/>
<polyline fill="none" stroke="#000000" stroke-width="0.5" points="460.05,123.91 466.753,116.241"/>
<polyline fill="none" stroke="#000000" stroke-width="0.5" points="76.5,210.627 72.5645,210.03"/>
<polyline fill="none" stroke="#000000" stroke-width="0.5" points="266.2,219.404 274.462,219.429"/>
<polyline fill="none" stroke="#000000" stroke-width="0.5" points="76.5,289.802 76.5,120.143"/>
<polyline fill="none" stroke="#000000" stroke-width="0.5" points="76.5,199.317 72.5645,198.719"/>
<text fill="#000000" style="stroke:none" x="52" y="180" transform="rotate(-0, 52, 180)" font-size="10" font-family="SansSerif" font-style="normal" font-weight="normal">1.0</text>
<polyline fill="none" stroke="#000000" stroke-width="0.5" points="363.671,205.253 373.653,201.423"/>
<polyline fill="none" stroke="#000000" stroke-width="0.5" points="179.417,150.919 184.86,154.111"/>
<polyline fill="none" stroke="#000000" stroke-width="0.5" points="76.5,188.006 72.5645,187.408"/>
<polyline fill="none" stroke="#000000" stroke-width="0.5" points="76.5,176.696 69.9409,175.699"/>
<polyline fill="none" stroke="#000000" stroke-width="0.5" points="274.462,219.429 283.903,219.142"/>
<polyline fill="none" stroke="#000000" stroke-width="0.5" points="352.741,208.637 363.671,205.253"/>
<polyline fill="none" stroke="#000000" stroke-width="0.5" points="535.5,260.857 363.221,333.375"/>
<polyline fill="none" stroke="#000000" stroke-width="0.5" points="76.5,165.385 72.5645,164.787"/>
<polygon fill="#ffffee" points="349,205 349,213 357,213"/>
<polygon fill="#ffffee" points="349,205 357,213 357,205"/>
<polygon fill="#ffffee" points="349,205 349,213 357,213"/>
<polygon fill="#ffffee" points="349,205 357,213 357,205"/>
<polyline fill="none" stroke="#000000" stroke-width="0.5" points="449.36,297.116 455.919,298.113"/>
<polyline fill="none" stroke="#000000" stroke-width="0.5" points="349,205 349,213 357,213 357,205 349,205"/>
<polyline fill="none" stroke="#000000" stroke-width="0.5" points="352.741,208.637 352.751,208.634"/>
<polyline fill="none" stroke="#000000" stroke-width="0.5" points="349,205 349,213 357,213 357,205 349,205"/>
<polyline fill="none" stroke="#000000" stroke-width="0.5" points="76.5,154.075 72.5645,153.477"/>
<text fill="#000000" style="stroke:none" x="458" y="303" transform="rotate(-0, 458, 303)" font-size="10" font-family="SansSerif" font-style="normal" font-weight="normal">0.0</text>
<polyline fill="none" stroke="#000000" stroke-width="0.5" points="283.903,219.142 294.336,218.493"/>
<polyline fill="none" stroke="#000000" stroke-width="0.5" points="124.287,297.064 118.551,299.479"/>
<polyline fill="none" stroke="#000000" stroke-width="0.5" points="341.161,211.552 352.741,208.637"/>
<polyline fill="none" stroke="#000000" stroke-width="0.5" points="76.5,142.764 72.5645,142.166"/>
<text fill="#000000" style="stroke:none" x="52" y="124" transform="rotate(-0, 52, 124)" font-size="10" font-family="SansSerif" font-style="normal" font-weight="normal">1.5</text>
<polyline fill="none" stroke="#000000" stroke-width="0.5" points="294.336,218.493 305.54,217.439"/>
<polyline fill="none" stroke="#000000" stroke-width="0.5" points="329.235,213.987 341.161,211.552"/>
<polyline fill="none" stroke="#000000" stroke-width="0.5" points="76.5,131.453 72.5645,130.855"/>
<polyline fill="none" stroke="#000000" stroke-width="0.5" points="305.54,217.439 317.264,215.945"/>
<polyline fill="none" stroke="#000000" stroke-width="0.5" points="449.959,131.194 460.05,123.91"/>
<polyline fill="none" stroke="#000000" stroke-width="0.5" points="317.264,215.945 329.235,213.987"/>
<text fill="#000000" style="stroke:none" x="96" y="305" transform="rotate(-0, 96, 305)" font-size="10" font-family="SansSerif" font-style="normal" font-weight="normal">-1.0</text>
<polyline fill="none" stroke="#000000" stroke-width="0.5" points="76.5,120.143 69.9409,119.146"/>
<polyline fill="none" stroke="#000000" stroke-width="0.5" points="184.86,154.111 193.292,157.095"/>
<text fill="#000000" style="stroke:none" x="485" y="306" transform="rotate(0, 485, 306)" font-size="10" font-family="SansSerif" font-style="normal" font-weight="normal">X</text>
<polyline fill="none" stroke="#000000" stroke-width="0.5" points="436.786,137.972 449.959,131.194"/>
<polyline fill="none" stroke="#000000" stroke-width="0.5" points="193.292,157.095 204.589,159.754"/>
<polyline fill="none" stroke="#000000" stroke-width="0.5" points="172.074,304.326 166.338,306.741"/>
<text fill="#000000" style="stroke:none" x="145" y="312" transform="rotate(-0, 145, 312)" font-size="10" font-family="SansSerif" font-style="normal" font-weight="normal">-0.5</text>
<polyline fill="none" stroke="#000000" stroke-width="0.5" points="204.589,159.754 218.551,161.978"/>
<polyline fill="none" stroke="#000000" stroke-width="0.5" points="420.898,144.139 436.786,137.972"/>
<polyline fill="none" stroke="#000000" stroke-width="0.5" points="420.647,309.203 427.207,310.199"/>
<text fill="#000000" style="stroke:none" x="429" y="315" transform="rotate(-0, 429, 315)" font-size="10" font-family="SansSerif" font-style="normal" font-weight="normal">0.5</text>
<polyline fill="none" stroke="#000000" stroke-width="0.5" points="76.5,289.802 363.221,333.375"/>
<polyline fill="none" stroke="#000000" stroke-width="0.5" points="219.86,311.588 214.125,314.003"/>
<polyline fill="none" stroke="#000000" stroke-width="0.5" points="218.551,161.978 234.914,163.659"/>
<polyline fill="none" stroke="#000000" stroke-width="0.5" points="402.721,149.603 420.898,144.139"/>
<text fill="#000000" style="stroke:none" x="196" y="320" transform="rotate(-0, 196, 320)" font-size="10" font-family="SansSerif" font-style="normal" font-weight="normal">0.0</text>
<polyline fill="none" stroke="#000000" stroke-width="0.5" points="234.914,163.659 253.344,164.706"/>
<polyline fill="none" stroke="#000000" stroke-width="0.5" points="382.725,154.294 402.721,149.603"/>
<polyline fill="none" stroke="#000000" stroke-width="0.5" points="253.344,164.706 273.454,165.036"/>
<polyline fill="none" stroke="#000000" stroke-width="0.5" points="361.41,158.159 382.725,154.294"/>
<polyline fill="none" stroke="#000000" stroke-width="0.5" points="267.647,318.851 261.912,321.265"/>
<polyline fill="none" stroke="#000000" stroke-width="0.5" points="273.454,165.036 294.807,164.586"/>
<polyline fill="none" stroke="#000000" stroke-width="0.5" points="339.3,161.167 361.41,158.159"/>
<polyline fill="none" stroke="#000000" stroke-width="0.5" points="294.807,164.586 316.924,163.306"/>
<text fill="#000000" style="stroke:none" x="244" y="327" transform="rotate(-0, 244, 327)" font-size="10" font-family="SansSerif" font-style="normal" font-weight="normal">0.5</text>
<polyline fill="none" stroke="#000000" stroke-width="0.5" points="316.924,163.306 339.3,161.167"/>
<polyline fill="none" stroke="#000000" stroke-width="0.5" points="391.934,321.289 398.493,322.286"/>
<text fill="#000000" style="stroke:none" x="400" y="328" transform="rotate(-0, 400, 328)" font-size="10" font-family="SansSerif" font-style="normal" font-weight="normal">1.0</text>
<text fill="#000000" style="stroke:none" x="179" y="329" transform="rotate(0, 179, 329)" font-size="10" font-family="SansSerif" font-style="normal" font-weight="normal">Y</text>
<polyline fill="none" stroke="#000000" stroke-width="0.5" points="315.434,326.113 309.698,328.527"/>
<text fill="#000000" style="stroke:none" x="292" y="334" transform="rotate(-0, 292, 334)" font-size="10" font-family="SansSerif" font-style="normal" font-weight="normal">1.0</text>
<polyline fill="none" stroke="#000000" stroke-width="0.5" points="363.221,333.375 369.78,334.372"/>
<text fill="#000000" style="stroke:none" x="371" y="340" transform="rotate(-0, 371, 340)" font-size="10" font-family="SansSerif" font-style="normal" font-weight="normal">1.5</text>
<polyline fill="none" stroke="#000000" stroke-width="0.5" points="363.221,333.375 357.485,335.789"/>
<text fill="#000000" style="stroke:none" x="340" y="341" transform="rotate(-0, 340, 341)" font-size="10" font-family="SansSerif" font-style="normal" font-weight="normal">1.5</text>
<polygon fill="#ffffee" points="148.5,95.5 148.5,131.5 193.5,131.5"/>
<polygon fill="#ffffee" points="148.5,95.5 193.5,131.5 193.5,95.5"/>
<text fill="#000000" style="stroke:none" x="149" y="106" transform="rotate(0, 149, 106)" font-size="10" font-family="SansSerif" font-style="normal" font-weight="normal">X: 0.072</text>
<text fill="#000000" style="stroke:none" x="149" y="118" transform="rotate(0, 149, 118)" font-size="10" font-family="SansSerif" font-style="normal" font-weight="normal">Y: -1.1</text>
<text fill="#000000" style="stroke:none" x="149" y="130" transform="rotate(0, 149, 130)" font-size="10" font-family="SansSerif" font-style="normal" font-weight="normal">Z: 1.1</text>
<polyline fill="none" stroke="#bebebe" stroke-width="0.5" points="148.5,95.5 148.5,131.5 193.5,131.5 193.5,95.5 148.5,95.5"/>
</g>
</svg>
