<?xml version="1.0" encoding="UTF-8" standalone="no"?>
<svg xmlns="http://www.w3.org/2000/svg"
     xmlns:xlink="http://www.w3.org/1999/xlink"
     width="612px" height="461px" viewBox="0 0 612 461"
     style="stroke:none">
<title>Graphic window number 0</title>
<desc>
Creator: GL2PS 1.3.2, (C) 1999-2006 Christophe Geuzaine (geuz@geuz.org)
For: Scilab
CreationDate: Mon Apr 19 11:30:37 2010
</desc>
<defs>
</defs>
<polygon fill="#ffffff" points="0,0 612,0 612,461 0,461"/>
<g>
<polyline fill="none" stroke="#000000" stroke-width="0.5" points="76.5,403.375 76.5,57.625 76.5,57.625 535.5,57.625 535.5,403.375 535.5,403.375 76.5,403.375"/>
<polyline fill="none" stroke="#000000" stroke-width="0.5" points="535.5,57.625 76.5,57.625"/>
<polyline fill="none" stroke="#000000" stroke-width="0.5" points="535.5,57.625 535.5,403.375"/>
<polyline fill="none" stroke="#000000" stroke-width="0.5" points="535.5,57.625 535.5,57.625"/>
<polygon fill="#ffffff" points="76.5,403.375 76.5,57.625 76.5,57.625"/>
<polygon fill="#ffffff" points="76.5,403.375 76.5,57.625 76.5,403.375"/>
<polygon fill="#ffffff" points="76.5,403.375 535.5,403.375 535.5,403.375"/>
<polygon fill="#ffffff" points="76.5,403.375 535.5,403.375 76.5,403.375"/>
<polygon fill="#ffffff" points="76.5,403.375 535.5,403.375 535.5,57.625"/>
<polygon fill="#ffffff" points="76.5,403.375 535.5,57.625 76.5,57.625"/>
<polyline fill="none" stroke="#0000ff" stroke-width="0.5" points="260.1,230.5 260.102,230.385 260.107,230.27 260.117,230.154 260.129,230.039 260.146,229.924 260.166,229.809 260.19,229.694 260.218,229.58 260.249,229.466 260.284,229.352 260.322,229.239 260.364,229.125 260.41,229.013 260.459,228.901 260.512,228.789 260.569,228.678 260.629,228.567 260.693,228.457 260.76,228.348 260.831,228.239 260.905,228.131 260.983,228.023 261.064,227.917 261.149,227.811 261.238,227.706 261.33,227.602 261.425,227.498 261.523,227.396 261.625,227.294 261.731,227.194 261.84,227.094 261.952,226.996 262.067,226.899 262.186,226.803 262.308,226.708 262.433,226.614 262.562,226.521 262.693,226.429 262.828,226.339 262.965,226.25 263.106,226.163 263.25,226.077 263.397,225.992 263.547,225.908 263.701,225.826 263.856,225.746 264.016,225.667 264.177,225.589 264.342,225.514 264.51,225.439 264.68,225.367 264.853,225.295 265.029,225.226 265.207,225.158 265.388,225.092 265.572,225.028 265.758,224.966 265.947,224.905 266.138,224.846 266.332,224.79 266.528,224.734 266.727,224.681 266.927,224.63 267.13,224.581 267.336,224.533 267.543,224.488 267.753,224.445 267.965,224.403 268.179,224.364 268.395,224.327 268.613,224.292 268.833,224.259 269.054,224.229 269.278,224.2 269.503,224.173 269.73,224.149 269.959,224.127 270.189,224.108 270.421,224.09 270.655,224.075 270.891,224.062 271.127,224.052 271.365,224.043 271.604,224.038 271.845,224.034 272.087,224.033 272.33,224.035 272.574,224.039 272.819,224.044 273.066,224.053 273.313,224.064 273.562,224.078 273.811,224.094 274.061,224.112 274.312,224.133 274.563,224.157 274.815,224.183 275.068,224.211 275.321,224.243 275.575,224.276 275.829,224.313 276.083,224.352 276.338,224.393 276.594,224.437 276.849,224.484 277.104,224.533 277.36,224.585 277.616,224.639 277.872,224.696 278.127,224.756 278.382,224.818 278.638,224.884 278.893,224.951 279.147,225.021 279.401,225.095 279.655,225.17 279.908,225.249 280.161,225.329 280.414,225.413 280.665,225.499 280.916,225.588 281.166,225.68 281.415,225.773 281.663,225.871 281.91,225.97 282.156,226.072 282.401,226.177 282.646,226.284 282.888,226.395 283.129,226.507 283.37,226.622 283.608,226.74 283.846,226.861 284.082,226.984 284.316,227.11 284.548,227.238 284.779,227.369 285.008,227.502 285.236,227.639 285.461,227.777 285.685,227.918 285.907,228.062 286.126,228.208 286.344,228.357 286.559,228.508 286.772,228.662 286.983,228.818 287.191,228.977 287.397,229.138 287.602,229.302 287.803,229.468 288.001,229.636 288.197,229.807 288.391,229.98 288.581,230.156 288.769,230.334 288.954,230.514 289.136,230.697 289.315,230.881 289.491,231.068 289.665,231.258 289.834,231.449 290.001,231.643 290.165,231.839 290.325,232.038 290.482,232.238 290.636,232.44 290.786,232.645 290.933,232.851 291.076,233.06 291.215,233.271 291.352,233.483 291.484,233.698 291.612,233.915 291.737,234.133 291.858,234.354 291.975,234.576 292.088,234.8 292.197,235.026 292.302,235.254 292.403,235.484 292.5,235.715 292.593,235.949 292.682,236.183 292.766,236.42 292.846,236.658 292.922,236.897 292.993,237.139 293.06,237.381 293.122,237.625 293.18,237.872 293.233,238.119 293.282,238.367 293.327,238.617 293.366,238.869 293.401,239.121 293.431,239.375 293.456,239.63 293.477,239.886 293.492,240.144 293.503,240.402 293.509,240.662 293.509,240.923 293.505,241.185 293.496,241.447 293.482,241.711 293.463,241.976 293.438,242.241 293.409,242.507 293.374,242.775 293.334,243.042 293.289,243.311 293.239,243.581 293.183,243.851 293.122,244.121 293.056,244.392 292.984,244.664 292.907,244.936 292.825,245.208 292.737,245.481 292.644,245.755 292.545,246.028 292.441,246.302 292.331,246.577 292.216,246.851 292.095,247.125 291.969,247.4 291.837,247.675 291.699,247.95 291.556,248.225 291.408,248.499 291.253,248.774 291.093,249.048 290.928,249.322 290.756,249.597 290.58,249.87 290.397,250.144 290.208,250.417 290.015,250.689 289.815,250.961 289.61,251.233 289.399,251.504 289.182,251.775 288.959,252.045 288.731,252.314 288.498,252.583 288.258,252.851 288.013,253.118 287.762,253.384 287.505,253.649 287.243,253.914 286.975,254.177 286.701,254.439 286.421,254.7 286.136,254.96 285.846,255.219 285.549,255.477 285.247,255.733 284.939,255.989 284.626,256.243 284.307,256.495 283.982,256.746 283.652,256.996 283.316,257.243 282.975,257.49 282.628,257.734 282.276,257.978 281.918,258.219 281.555,258.458 281.186,258.696 280.812,258.933 280.432,259.167 280.047,259.399 279.656,259.629 279.261,259.857 278.859,260.083 278.453,260.307 278.042,260.529 277.625,260.749 277.202,260.966 276.775,261.181 276.342,261.394 275.905,261.604 275.462,261.812 275.015,262.018 274.562,262.221 274.104,262.421 273.641,262.62 273.173,262.815 272.701,263.007 272.224,263.197 271.742,263.384 271.255,263.569 270.763,263.75 270.267,263.929 269.766,264.105 269.26,264.277 268.75,264.447 268.236,264.614 267.717,264.778 267.193,264.938 266.666,265.096 266.133,265.25 265.597,265.401 265.057,265.548 264.512,265.693 263.963,265.834 263.41,265.972 262.853,266.106 262.292,266.237 261.728,266.364 261.159,266.488 260.586,266.608 260.011,266.725 259.431,266.837 258.847,266.947 258.26,267.053 257.67,267.154 257.076,267.252 256.479,267.347 255.878,267.438 255.274,267.524 254.667,267.606 254.058,267.686 253.444,267.76 252.828,267.831 252.209,267.898 251.587,267.96 250.962,268.019 250.335,268.074 249.705,268.125 249.072,268.17 248.437,268.212 247.8,268.25 247.16,268.284 246.517,268.313 245.873,268.338 245.226,268.359 244.577,268.375 243.927,268.388 243.274,268.395 242.619,268.398 241.963,268.397 241.305,268.392 240.646,268.381 239.984,268.367 239.321,268.347 238.657,268.324 237.992,268.295 237.325,268.262 236.657,268.225 235.988,268.183 235.318,268.136 234.648,268.084 233.976,268.028 233.304,267.967 232.631,267.902 231.957,267.832 231.283,267.757 230.608,267.677 229.933,267.593 229.258,267.503 228.583,267.41 227.907,267.311 227.232,267.208 226.557,267.099 225.881,266.986 225.207,266.868 224.532,266.745 223.858,266.617 223.184,266.485 222.511,266.347 221.839,266.205 221.167,266.058 220.497,265.906 219.827,265.749 219.158,265.587 218.491,265.421 217.824,265.249 217.159,265.073 216.496,264.892 215.833,264.706 215.173,264.514 214.514,264.318 213.857,264.118 213.202,263.912 212.548,263.701 211.897,263.486 211.248,263.266 210.601,263.041 209.957,262.811 209.314,262.576 208.674,262.336 208.037,262.091 207.403,261.842 206.771,261.588 206.142,261.329 205.516,261.065 204.893,260.796 204.273,260.523 203.656,260.245 203.042,259.962 202.433,259.674 201.826,259.382 201.223,259.085 200.624,258.783 200.028,258.477 199.436,258.166 198.848,257.85 198.265,257.53 197.685,257.205 197.109,256.875 196.538,256.542 195.971,256.203 195.408,255.86 194.85,255.512 194.297,255.16 193.748,254.803 193.204,254.442 192.665,254.077 192.131,253.707 191.602,253.333 191.079,252.955 190.56,252.572 190.046,252.185 189.539,251.793 189.036,251.398 188.539,250.999 188.048,250.595 187.562,250.187 187.083,249.774 186.609,249.358 186.141,248.938 185.679,248.514 185.224,248.086 184.774,247.654 184.331,247.218 183.894,246.778 183.464,246.335 183.04,245.888 182.623,245.437 182.212,244.981 181.809,244.523 181.412,244.061 181.021,243.595 180.639,243.126 180.263,242.653 179.894,242.177 179.532,241.698 179.178,241.215 178.831,240.729 178.491,240.239 178.159,239.746 177.834,239.25 177.518,238.75 177.208,238.248 176.907,237.743 176.613,237.234 176.328,236.723 176.05,236.209 175.78,235.692 175.519,235.172 175.265,234.649 175.02,234.124 174.783,233.595 174.554,233.064 174.334,232.531 174.122,231.996 173.919,231.458 173.724,230.917 173.538,230.374 173.361,229.828 173.192,229.281 173.032,228.731 172.881,228.179 172.739,227.625 172.605,227.069 172.481,226.511 172.366,225.951 172.26,225.39 172.163,224.826 172.076,224.261 171.997,223.694 171.928,223.125 171.868,222.556 171.817,221.984 171.776,221.411 171.745,220.837 171.722,220.261 171.709,219.685 171.707,219.106 171.713,218.527 171.729,217.947 171.755,217.366 171.79,216.784 171.835,216.201 171.891,215.617 171.955,215.032 172.03,214.447 172.114,213.861 172.208,213.274 172.312,212.688 172.427,212.101 172.551,211.513 172.685,210.925 172.829,210.337 172.983,209.749 173.147,209.16 173.321,208.572 173.506,207.983 173.7,207.395 173.904,206.807 174.119,206.219 174.344,205.632 174.578,205.045 174.823,204.458 175.078,203.873 175.344,203.287 175.619,202.702 175.905,202.118 176.2,201.535 176.506,200.953 176.822,200.371 177.149,199.791 177.485,199.211 177.832,198.633 178.189,198.057 178.556,197.481 178.933,196.907 179.32,196.334 179.718,195.763 180.125,195.193 180.543,194.625 180.971,194.059 181.409,193.494 181.857,192.932 182.315,192.371 182.783,191.812 183.262,191.255 183.75,190.701 184.248,190.148 184.756,189.598 185.275,189.051 185.803,188.505 186.341,187.962 186.889,187.422 187.446,186.885 188.014,186.35 188.591,185.818 189.179,185.289 189.775,184.762 190.382,184.239 190.999,183.718 191.624,183.201 192.26,182.687 192.905,182.176 193.559,181.669 194.223,181.165 194.896,180.664 195.579,180.167 196.271,179.673 196.973,179.184 197.683,178.698 198.403,178.215 199.132,177.737 199.87,177.262 200.617,176.792 201.373,176.325 202.138,175.863 202.912,175.405 203.694,174.951 204.486,174.501 205.286,174.057 206.095,173.616 206.912,173.18 207.738,172.748 208.572,172.321 209.415,171.899 210.266,171.481 211.125,171.069 211.992,170.661 212.868,170.258 213.751,169.86 214.643,169.468 215.542,169.08 216.449,168.698 217.364,168.321 218.287,167.949 219.217,167.583 220.154,167.221 221.099,166.866 222.052,166.516 223.011,166.172 223.978,165.833 224.952,165.5 225.933,165.173 226.921,164.852 227.916,164.536 228.917,164.227 229.925,163.923 230.94,163.625 231.961,163.334 232.988,163.048 234.022,162.77 235.062,162.497 236.108,162.23 237.16,161.97 238.218,161.716 239.282,161.468 240.352,161.228 241.427,160.993 242.507,160.766 243.593,160.544 244.685,160.33 245.781,160.122 246.882,159.921 247.989,159.727 249.1,159.54 250.216,159.359 251.337,159.185 252.462,159.019 253.592,158.859 254.727,158.707 255.865,158.561 257.007,158.423 258.154,158.292 259.304,158.167 260.458,158.051 261.616,157.941 262.777,157.839 263.941,157.744 265.109,157.657 266.28,157.577 267.455,157.504 268.632,157.439 269.812,157.381 270.994,157.331 272.179,157.289 273.367,157.253 274.557,157.226 275.749,157.206 276.943,157.194 278.139,157.189 279.337,157.192 280.537,157.204 281.738,157.222 282.941,157.249 284.145,157.283 285.35,157.325 286.557,157.375 287.764,157.432 288.972,157.498 290.181,157.571 291.39,157.652 292.6,157.742 293.81,157.839 295.02,157.944 296.23,158.057 297.44,158.178 298.65,158.307 299.859,158.443 301.068,158.588 302.276,158.741 303.484,158.902 304.69,159.07 305.896,159.247 307.101,159.432 308.304,159.625 309.505,159.826 310.705,160.034 311.904,160.251 313.1,160.476 314.294,160.709 315.487,160.95 316.677,161.199 317.865,161.456 319.05,161.72 320.232,161.993 321.412,162.274 322.589,162.562 323.763,162.859 324.933,163.164 326.1,163.477 327.264,163.797 328.424,164.125 329.58,164.462 330.732,164.806 331.881,165.158 333.025,165.518 334.165,165.886 335.301,166.262 336.432,166.645 337.558,167.037 338.679,167.436 339.795,167.842 340.907,168.257 342.013,168.679 343.113,169.109 344.208,169.546 345.298,169.991 346.382,170.444 347.459,170.904 348.531,171.372 349.597,171.847 350.656,172.33 351.709,172.82 352.755,173.318 353.794,173.823 354.827,174.335 355.853,174.855 356.872,175.382 357.883,175.916 358.887,176.458 359.884,177.006 360.873,177.562 361.854,178.124 362.827,178.694 363.792,179.271 364.75,179.854 365.699,180.445 366.64,181.042 367.572,181.646 368.496,182.258 369.41,182.875 370.316,183.5 371.213,184.131 372.101,184.769 372.98,185.413 373.849,186.063 374.709,186.72 375.56,187.383 376.4,188.053 377.231,188.729 378.052,189.411 378.863,190.099 379.664,190.793 380.454,191.494 381.234,192.2 382.004,192.912 382.763,193.63 383.511,194.354 384.249,195.083 384.975,195.819 385.691,196.56 386.395,197.306 387.088,198.058 387.771,198.815 388.441,199.577 389.1,200.345 389.747,201.118 390.382,201.896 391.006,202.679 391.618,203.467 392.218,204.26 392.805,205.058 393.38,205.86 393.943,206.667 394.494,207.479 395.032,208.295 395.558,209.116 396.071,209.941 396.571,210.771 397.058,211.605 397.533,212.443 397.994,213.285 398.442,214.13 398.877,214.98 399.299,215.834 399.707,216.691 400.102,217.553 400.484,218.417 400.852,219.285 401.206,220.157 401.547,221.032 401.874,221.91 402.187,222.792 402.485,223.676 402.771,224.563 403.042,225.454 403.298,226.347 403.542,227.242 403.77,228.141 403.984,229.042 404.184,229.945 404.369,230.851 404.54,231.759 404.697,232.669 404.838,233.582 404.966,234.496 405.078,235.413 405.176,236.331 405.259,237.25 405.327,238.172 405.38,239.095 405.419,240.019 405.442,240.945 405.451,241.872 405.444,242.8 405.423,243.729 405.386,244.659 405.334,245.59 405.268,246.522 405.186,247.455 405.088,248.388 404.976,249.321 404.848,250.255 404.705,251.189 404.546,252.124 404.373,253.058 404.184,253.992 403.979,254.927 403.76,255.861 403.524,256.794 403.274,257.728 403.008,258.661 402.727,259.593 402.43,260.524 402.117,261.455 401.79,262.385 401.446,263.313 401.088,264.241 400.714,265.167 400.324,266.092 399.919,267.016 399.499,267.938 399.063,268.858 398.612,269.777 398.146,270.694 397.664,271.609 397.167,272.522 396.654,273.433 396.125,274.341 395.583,275.248 395.024,276.151 394.45,277.053 393.861,277.951 393.257,278.847 392.637,279.74 392.002,280.63 391.353,281.517 390.688,282.401 390.008,283.282 389.313,284.159 388.604,285.033 387.878,285.903 387.139,286.77 386.384,287.632 385.615,288.492 384.831,289.347 384.032,290.198 383.218,291.044 382.39,291.887 381.548,292.726 380.69,293.559 379.819,294.389 378.933,295.213 378.033,296.033 377.118,296.848 376.189,297.658 375.247,298.463 374.29,299.263 373.319,300.058 372.334,300.848 371.335,301.631 370.323,302.41 369.297,303.183 368.257,303.95 367.204,304.711 366.137,305.467 365.057,306.217 363.963,306.96 362.857,307.697 361.737,308.429 360.604,309.153 359.458,309.872 358.3,310.583 357.129,311.289 355.945,311.987 354.749,312.679 353.54,313.363 352.318,314.041 351.084,314.712 349.838,315.375 348.581,316.032 347.311,316.681 346.029,317.322 344.736,317.957 343.431,318.583 342.114,319.202 340.787,319.813 339.447,320.417 338.097,321.012 336.735,321.6 335.363,322.18 333.98,322.751 332.586,323.314 331.182,323.869 329.767,324.416 328.341,324.954 326.906,325.483 325.461,326.004 324.005,326.517 322.54,327.02 321.065,327.515 319.581,328.001 318.087,328.478 316.584,328.946 315.072,329.405 313.551,329.854 312.021,330.295 310.482,330.727 308.935,331.148 307.379,331.561 305.815,331.964 304.244,332.357 302.664,332.741 301.076,333.115 299.48,333.48 297.877,333.834 296.267,334.18 294.649,334.515 293.025,334.84 291.393,335.155 289.755,335.459 288.11,335.754 286.458,336.039 284.801,336.313 283.137,336.578 281.467,336.832 279.792,337.075 278.111,337.309 276.424,337.531 274.732,337.743 273.035,337.945 271.333,338.136 269.626,338.316 267.915,338.486 266.199,338.645 264.479,338.793 262.755,338.931 261.027,339.057 259.295,339.173 257.559,339.278 255.82,339.372 254.078,339.455 252.333,339.527 250.584,339.587 248.833,339.637 247.08,339.676 245.324,339.704 243.566,339.72 241.806,339.726 240.044,339.72 238.281,339.703 236.516,339.675 234.75,339.635 232.982,339.584 231.214,339.522 229.445,339.449 227.675,339.364 225.905,339.269 224.135,339.161 222.365,339.042 220.595,338.912 218.825,338.771 217.056,338.618 215.288,338.454 213.521,338.278 211.754,338.091 209.99,337.893 208.226,337.683 206.464,337.461 204.705,337.229 202.947,336.984 201.191,336.729 199.438,336.462 197.688,336.184 195.94,335.894 194.195,335.593 192.454,335.281 190.715,334.957 188.98,334.622 187.25,334.275 185.523,333.917 183.8,333.548 182.082,333.167 180.367,332.776 178.658,332.373 176.954,331.958 175.254,331.533 173.56,331.097 171.871,330.648 170.188,330.189 168.511,329.72 166.839,329.238 165.174,328.746 163.516,328.243 161.863,327.729 160.218,327.203"/>
<polyline fill="none" stroke="#007f00" stroke-width="0.5" points="260.1,230.5 260.103,230.327 260.111,230.154 260.125,229.981 260.144,229.809 260.169,229.637 260.199,229.466 260.235,229.295 260.276,229.125 260.323,228.957 260.375,228.789 260.433,228.623 260.497,228.457 260.565,228.293 260.639,228.131 260.719,227.97 260.803,227.811 260.894,227.653 260.989,227.498 261.09,227.345 261.196,227.194 261.308,227.045 261.425,226.899 261.547,226.755 261.674,226.614 261.807,226.475 261.944,226.339 262.087,226.207 262.235,226.077 262.388,225.95 262.546,225.826 262.709,225.706 262.877,225.589 263.051,225.476 263.229,225.367 263.412,225.261 263.6,225.158 263.792,225.06 263.989,224.966 264.191,224.875 264.398,224.79 264.609,224.708 264.826,224.63 265.046,224.557 265.271,224.488 265.501,224.424 265.735,224.364 265.973,224.309 266.216,224.259 266.463,224.214 266.714,224.173 266.97,224.138 267.229,224.108 267.493,224.083 267.761,224.062 268.032,224.047 268.308,224.038 268.587,224.034 268.87,224.035 269.157,224.041 269.448,224.053 269.742,224.071 270.04,224.094 270.341,224.123 270.646,224.157 270.954,224.197 271.265,224.243 271.58,224.294 271.897,224.352 272.218,224.415 272.542,224.484 272.869,224.559 273.199,224.639 273.531,224.726 273.867,224.818 274.205,224.917 274.545,225.021 274.889,225.132 275.234,225.249 275.583,225.371 275.933,225.499 276.286,225.633 276.641,225.773 276.998,225.92 277.356,226.072 277.717,226.23 278.08,226.395 278.445,226.564 278.812,226.74 279.179,226.922 279.549,227.11 279.92,227.303 280.292,227.502 280.666,227.708 281.041,227.918 281.417,228.135 281.794,228.357 282.172,228.585 282.552,228.818 282.932,229.057 283.312,229.302 283.693,229.552 284.075,229.807 284.458,230.068 284.84,230.334 285.224,230.605 285.607,230.881 285.99,231.163 286.374,231.449 286.757,231.741 287.14,232.038 287.523,232.339 287.906,232.645 288.289,232.956 288.67,233.271 289.052,233.59 289.433,233.915 289.812,234.243 290.192,234.576 290.57,234.913 290.947,235.254 291.323,235.6 291.698,235.949 292.072,236.301 292.444,236.658 292.815,237.018 293.185,237.381 293.552,237.749 293.918,238.119 294.282,238.492 294.644,238.869 295.004,239.248 295.363,239.63 295.719,240.015 296.072,240.402 296.424,240.792 296.772,241.185 297.119,241.579 297.463,241.976 297.804,242.374 298.142,242.775 298.478,243.177 298.81,243.581 299.139,243.986 299.466,244.392 299.789,244.8 300.108,245.208 300.425,245.618 300.737,246.028 301.046,246.439 301.352,246.851 301.654,247.263 301.952,247.675 302.246,248.087 302.536,248.499 302.822,248.911 303.104,249.322 303.381,249.733 303.654,250.144 303.923,250.553 304.187,250.961 304.447,251.369 304.702,251.775 304.952,252.18 305.197,252.583 305.438,252.984 305.673,253.384 305.904,253.781 306.129,254.177 306.349,254.57 306.564,254.96 306.773,255.348 306.977,255.733 307.176,256.116 307.368,256.495 307.556,256.871 307.737,257.243 307.913,257.612 308.082,257.978 308.246,258.339 308.403,258.696 308.555,259.05 308.701,259.399 308.839,259.743 308.973,260.083 309.099,260.418 309.219,260.749 309.333,261.074 309.439,261.394 309.54,261.709 309.633,262.018 309.72,262.322 309.8,262.62 309.874,262.912 309.939,263.197 309.999,263.477 310.051,263.75 310.096,264.017 310.134,264.277 310.165,264.531 310.188,264.778 310.204,265.018 310.213,265.25 310.214,265.475 310.208,265.693 310.194,265.903 310.173,266.106 310.144,266.301 310.107,266.488 310.063,266.667 310.011,266.837 309.952,267 309.884,267.154 309.808,267.3 309.725,267.438 309.633,267.566 309.534,267.686 309.426,267.796 309.311,267.898 309.187,267.99 309.056,268.074 308.916,268.148 308.768,268.212 308.611,268.268 308.446,268.313 308.273,268.349 308.092,268.375 307.903,268.392 307.705,268.398 307.499,268.395 307.284,268.381 307.062,268.357 306.83,268.324 306.59,268.279 306.342,268.225 306.084,268.16 305.819,268.084 305.545,267.999 305.263,267.902 304.972,267.795 304.673,267.677 304.365,267.549 304.048,267.41 303.723,267.26 303.39,267.099 303.047,266.927 302.696,266.745 302.337,266.552 301.969,266.347 301.593,266.132 301.208,265.906 300.814,265.669 300.412,265.421 300.001,265.162 299.582,264.892 299.155,264.61 298.718,264.318 298.274,264.015 297.821,263.701 297.359,263.376 296.889,263.041 296.411,262.693 295.923,262.336 295.428,261.967 294.925,261.588 294.413,261.197 293.893,260.796 293.364,260.385 292.827,259.962 292.282,259.529 291.729,259.085 291.167,258.631 290.598,258.166 290.021,257.691 289.435,257.205 288.841,256.709 288.239,256.203 287.63,255.687 287.012,255.16 286.387,254.624 285.753,254.077 285.112,253.521 284.464,252.955 283.807,252.379 283.143,251.793 282.472,251.199 281.792,250.595 281.106,249.981 280.412,249.358 279.71,248.727 279.001,248.086 278.286,247.437 277.562,246.778 276.832,246.112 276.095,245.437 275.35,244.753 274.599,244.061 273.84,243.361 273.075,242.653 272.304,241.938 271.525,241.215 270.74,240.484 269.948,239.746 269.15,239 268.346,238.248 267.535,237.489 266.718,236.723 265.895,235.951 265.065,235.172 264.23,234.387 263.389,233.595 262.542,232.798 261.688,231.996 260.83,231.188 259.966,230.374 259.096,229.555 258.221,228.731 257.341,227.902 256.455,227.069 255.564,226.231 254.668,225.39 253.768,224.544 252.862,223.694 251.952,222.841 251.036,221.984 250.117,221.124 249.192,220.261 248.264,219.396 247.331,218.527 246.394,217.656 245.453,216.784 244.508,215.909 243.559,215.032 242.606,214.154 241.649,213.274 240.689,212.394 239.726,211.513 238.759,210.631 237.789,209.749 236.816,208.866 235.84,207.983 234.861,207.101 233.879,206.219 232.895,205.338 231.907,204.458 230.918,203.58 229.926,202.702 228.932,201.827 227.936,200.953 226.938,200.081 225.938,199.211 224.936,198.345 223.933,197.481 222.928,196.62 221.922,195.763 220.914,194.909 219.906,194.059 218.896,193.212 217.886,192.371 216.875,191.533 215.862,190.701 214.85,189.873 213.837,189.051 212.824,188.233 211.811,187.422 210.798,186.617 209.785,185.818 208.772,185.025 207.76,184.239 206.748,183.459 205.737,182.687 204.726,181.922 203.717,181.165 202.708,180.415 201.701,179.673 200.695,178.94 199.69,178.215 198.688,177.499 197.686,176.792 196.687,176.094 195.689,175.405 194.694,174.726 193.701,174.057 192.709,173.397 191.721,172.748 190.736,172.109 189.753,171.481 188.773,170.864 187.796,170.258 186.822,169.664 185.852,169.08 184.885,168.508 183.921,167.949 182.961,167.401 182.006,166.866 181.054,166.343 180.106,165.833 179.163,165.335 178.224,164.852 177.289,164.38 176.359,163.923 175.434,163.479 174.514,163.048 173.599,162.632 172.689,162.23 171.785,161.842 170.886,161.468 169.992,161.109 169.104,160.766 168.223,160.436 167.347,160.122 166.477,159.823 165.614,159.54 164.756,159.271 163.906,159.019 163.062,158.782 162.225,158.561 161.395,158.356 160.572,158.167 159.756,157.995 158.948,157.839 158.147,157.7 157.354,157.577 156.567,157.471 155.79,157.381 155.02,157.309 154.258,157.253 153.504,157.215 152.759,157.194 152.022,157.19 151.293,157.204 150.574,157.234 149.863,157.283 149.162,157.349 148.469,157.432 147.786,157.534 147.111,157.652 146.447,157.789 145.792,157.944 145.146,158.116 144.51,158.307 143.884,158.515 143.269,158.741 142.663,158.985 142.067,159.247 141.482,159.527 140.908,159.826 140.344,160.142 139.791,160.476 139.249,160.828 138.717,161.199 138.196,161.587 137.687,161.993 137.189,162.417 136.702,162.859 136.227,163.319 135.763,163.797 135.311,164.293 134.87,164.806 134.442,165.337 134.025,165.886 133.621,166.453 133.228,167.037 132.848,167.638 132.48,168.257 132.125,168.893 131.781,169.546 131.451,170.217 131.133,170.904 130.828,171.609 130.536,172.33 130.257,173.068 129.991,173.823 129.738,174.594 129.498,175.382 129.271,176.186 129.058,177.006 128.858,177.842 128.672,178.694 128.5,179.562 128.34,180.445 128.195,181.344 128.063,182.258 127.945,183.187 127.842,184.131 127.752,185.089 127.676,186.063 127.614,187.051 127.567,188.053 127.533,189.069 127.514,190.099 127.51,191.143 127.52,192.2 127.543,193.271 127.582,194.354 127.635,195.451 127.703,196.56 127.786,197.681 127.883,198.815 127.995,199.96 128.121,201.118 128.263,202.287 128.419,203.467 128.59,204.658 128.776,205.86 128.978,207.073 129.193,208.295 129.425,209.528 129.671,210.771 129.932,212.023 130.208,213.285 130.5,214.555 130.807,215.834 131.128,217.122 131.465,218.417 131.817,219.721 132.185,221.032 132.567,222.35 132.965,223.676 133.378,225.008 133.807,226.347 134.25,227.691 134.709,229.042 135.184,230.398 135.673,231.759 136.178,233.125 136.698,234.496 137.233,235.871 137.784,237.25 138.35,238.633 138.93,240.019 139.527,241.408 140.138,242.8 140.765,244.194 141.407,245.59 142.063,246.988 142.736,248.388 143.423,249.788 144.125,251.189 144.842,252.591 145.575,253.992 146.322,255.394 147.084,256.794 147.862,258.194 148.654,259.593 149.461,260.99 150.283,262.385 151.12,263.777 151.971,265.167 152.837,266.554 153.718,267.938 154.613,269.318 155.523,270.694 156.448,272.066 157.386,273.433 158.339,274.795 159.307,276.151 160.289,277.502 161.285,278.847 162.294,280.186 163.319,281.517 164.357,282.842 165.409,284.159 166.475,285.468 167.555,286.77 168.648,288.062 169.755,289.347 170.875,290.622 172.01,291.887 173.157,293.143 174.318,294.389 175.492,295.624 176.679,296.848 177.879,298.062 179.092,299.263 180.318,300.454 181.557,301.631 182.808,302.797 184.072,303.95 185.348,305.09 186.637,306.217 187.938,307.33 189.251,308.429 190.577,309.513 191.914,310.583 193.263,311.639 194.624,312.679 195.996,313.703 197.38,314.712 198.775,315.705 200.182,316.681 201.599,317.641 203.028,318.583 204.467,319.509 205.917,320.417 207.378,321.307 208.85,322.18 210.332,323.034 211.824,323.869 213.326,324.686 214.838,325.483 216.36,326.262 217.892,327.02 219.433,327.759 220.983,328.478 222.543,329.177 224.112,329.854 225.69,330.512 227.277,331.148 228.873,331.764 230.478,332.357 232.09,332.93 233.711,333.48 235.34,334.008 236.977,334.515 238.621,334.999 240.273,335.459 241.933,335.898 243.601,336.313 245.274,336.706 246.956,337.075 248.644,337.421 250.338,337.743 252.04,338.042 253.747,338.316 255.461,338.567 257.18,338.793 258.906,338.995 260.637,339.173 262.374,339.326 264.115,339.455 265.862,339.559 267.614,339.637 269.371,339.691 271.132,339.72 272.897,339.724 274.667,339.703 276.441,339.656 278.219,339.584 280,339.487 281.785,339.364 283.573,339.216 285.365,339.042 287.159,338.843 288.956,338.618 290.755,338.367 292.558,338.091 294.361,337.789 296.167,337.461 297.976,337.108 299.785,336.729 301.596,336.324 303.408,335.894 305.221,335.438 307.035,334.957 308.85,334.45 310.665,333.917 312.479,333.359 314.295,332.776 316.11,332.167 317.925,331.533 319.739,330.874 321.552,330.189 323.365,329.48 325.176,328.746 326.986,327.987 328.794,327.203 330.601,326.395 332.405,325.562 334.208,324.704 336.008,323.822 337.805,322.917 339.6,321.987 341.392,321.033 343.18,320.056 344.965,319.055 346.747,318.031 348.525,316.983 350.299,315.913 352.068,314.82 353.833,313.704 355.594,312.566 357.35,311.406 359.101,310.223 360.846,309.019 362.586,307.793 364.32,306.546 366.049,305.277 367.771,303.988 369.488,302.678 371.198,301.348 372.901,299.997 374.597,298.627 376.287,297.237 377.969,295.828 379.643,294.399 381.31,292.952 382.969,291.486 384.62,290.002 386.263,288.5 387.897,286.98 389.522,285.443 391.139,283.89 392.747,282.319 394.345,280.732 395.934,279.128 397.513,277.51 399.083,275.875 400.642,274.226 402.191,272.562 403.729,270.884 405.257,269.191 406.774,267.485 408.281,265.766 409.775,264.034 411.259,262.289 412.731,260.532 414.191,258.763 415.639,256.983 417.075,255.192 418.499,253.39 419.91,251.578 421.308,249.755 422.693,247.924 424.065,246.083 425.424,244.234 426.77,242.376 428.102,240.511 429.42,238.638 430.724,236.758 432.014,234.872 433.289,232.979 434.55,231.081 435.796,229.177 437.028,227.268 438.244,225.355 439.445,223.438 440.631,221.517 441.801,219.593 442.956,217.667 444.094,215.738 445.217,213.807 446.323,211.875 447.413,209.942 448.486,208.008 449.543,206.075 450.583,204.142 451.605,202.209 452.611,200.278 453.6,198.349 454.57,196.422 455.523,194.498 456.459,192.576 457.377,190.658 458.276,188.745 459.158,186.835 460.021,184.931 460.865,183.033 461.691,181.14 462.499,179.253 463.287,177.373 464.056,175.5 464.806,173.635 465.537,171.779 466.249,169.93 466.941,168.091 467.613,166.261 468.266,164.441 468.898,162.632 469.511,160.833 470.104,159.046 470.676,157.271 471.228,155.507 471.759,153.756 472.27,152.019 472.76,150.294 473.23,148.584 473.678,146.888 474.106,145.207 474.513,143.541 474.898,141.891 475.262,140.256 475.604,138.638 475.926,137.038 476.226,135.454 476.504,133.888 476.76,132.34 476.995,130.811 477.208,129.3 477.398,127.81 477.567,126.338 477.714,124.887 477.838,123.456 477.941,122.046 478.021,120.658 478.079,119.291 478.114,117.946 478.126,116.624 478.117,115.324 478.084,114.047 478.03,112.794 477.952,111.565 477.852,110.36 477.729,109.179 477.583,108.023 477.414,106.892 477.222,105.787 477.007,104.708 476.77,103.654 476.509,102.627 476.226,101.626 475.919,100.653 475.589,99.7075 475.236,98.7891 474.861,97.8984 474.462,97.0361 474.04,96.2021 473.594,95.397 473.126,94.6206 472.634,93.873 472.12,93.1553 471.582,92.4673 471.021,91.8091 470.437,91.1812 469.829,90.583 469.198,90.0161 468.545,89.4795 467.868,88.9741 467.168,88.4995 466.445,88.0562 465.7,87.645 464.931,87.2646 464.139,86.9165 463.324,86.6006 462.486,86.3164 461.625,86.0649 460.741,85.8457 459.835,85.6587 458.906,85.5049 457.954,85.3833 456.979,85.2949 455.982,85.2397 454.962,85.2173 453.92,85.228 452.855,85.272 451.768,85.3491 450.658,85.46 449.526,85.6035 448.373,85.7812 447.196,85.9922 445.998,86.2368 444.778,86.5146 443.536,86.8262 442.271,87.1714 440.986,87.5498 439.679,87.9624 438.35,88.4082 436.999,88.8872 435.627,89.3999 434.234,89.9463 432.82,90.5259 431.385,91.1387 429.928,91.7847 428.451,92.4639 426.953,93.1763 425.435,93.9219 423.895,94.7002 422.335,95.5112 420.756,96.355 419.156,97.2314 417.535,98.1401 415.896,99.0815 414.235,100.055 412.556,101.06 410.856,102.098 409.138,103.167 407.4,104.267 405.643,105.398 403.867,106.562 402.072,107.755 400.259,108.98 398.427,110.235 396.577,111.521 394.708,112.836 392.821,114.182 390.917,115.557 388.994,116.961 387.054,118.395 385.096,119.856 383.122,121.348 381.129,122.867 379.121,124.414 377.095,125.988 375.053,127.59 372.995,129.22 370.92,130.875 368.829,132.558 366.722,134.267 364.6,136 362.462,137.76 360.309,139.545 358.141,141.354 355.958,143.188 353.76,145.046 351.548,146.928 349.321,148.833 347.081,150.76 344.826,152.71 342.558,154.682 340.276,156.676 337.981,158.691 335.673,160.727 333.353,162.783 331.02,164.859 328.673,166.955 326.315,169.069 323.945,171.203 321.564,173.354 319.17,175.523 316.766,177.71 314.351,179.913 311.924,182.133 309.487,184.368 307.04,186.619 304.582,188.885 302.115,191.165 299.638,193.459 297.151,195.767 294.656,198.087 292.151,200.42 289.638,202.765 287.116,205.121 284.586,207.488 282.048,209.865 279.503,212.252 276.95,214.648 274.39,217.053 271.823,219.467 269.249,221.888 266.669,224.316 264.083,226.75 261.49,229.191 258.892,231.637 256.289,234.088 253.68,236.544 251.067,239.003 248.449,241.466 245.827,243.931 243.2,246.399 240.57,248.868 237.936,251.338 235.299,253.809 232.659,256.279 230.016,258.749 227.371,261.217 224.723,263.684 222.074,266.148 219.423,268.61 216.771,271.067 214.117,273.521 211.462,275.97 208.808,278.414 206.152,280.852 203.497,283.284 200.842,285.708 198.188,288.125 195.535,290.534 192.882,292.934 190.231,295.325 187.582,297.707 184.935,300.077 182.29,302.437 179.646,304.785 177.007,307.122 174.37,309.445 171.737,311.755 169.107,314.052 166.481,316.334 163.86,318.602 161.243,320.854 158.63,323.09 156.023,325.309 153.421,327.512 150.825,329.696 148.234,331.863 145.65,334.011 143.072,336.14 140.501,338.249 137.937,340.337 135.38,342.406 132.831,344.452 130.29,346.477 127.757,348.48 125.232,350.459 122.716,352.416 120.209,354.349 117.711,356.257 115.223,358.14 112.745,359.999 110.276,361.831"/>
<polygon fill="#ffffee" points="124,196 124,204 132,204"/>
<polygon fill="#ffffee" points="124,196 132,204 132,196"/>
<polyline fill="none" stroke="#007f00" stroke-width="0.5" points="124,196 124,204 132,204 132,196 124,196"/>
<polygon fill="#ffffee" points="358,134 358,142 366,142"/>
<polygon fill="#ffffee" points="358,134 366,142 366,134"/>
<polyline fill="none" stroke="#007f00" stroke-width="0.5" points="358,134 358,142 366,142 366,134 358,134"/>
<polygon fill="#ffffee" points="385,196 385,204 393,204"/>
<polygon fill="#ffffee" points="385,196 393,204 393,196"/>
<polyline fill="none" stroke="#0000ff" stroke-width="0.5" points="385,196 385,204 393,204 393,196 385,196"/>
<polygon fill="#ffffee" points="131.5,167.5 131.5,195.5 169.5,195.5"/>
<polygon fill="#ffffee" points="131.5,167.5 169.5,195.5 169.5,167.5"/>
<polyline fill="none" stroke="#bebebe" stroke-width="0.5" points="131.5,167.5 131.5,195.5 169.5,195.5 169.5,167.5 131.5,167.5"/>
<text fill="#000000" style="stroke:none" x="132" y="179" transform="rotate(0, 132, 179)" font-size="10" font-family="SansSerif" font-style="normal" font-weight="normal">spiral</text>
<text fill="#000000" style="stroke:none" x="132" y="193" transform="rotate(0, 132, 193)" font-size="10" font-family="SansSerif" font-style="normal" font-weight="normal">t=4.99</text>
<polygon fill="#ffffee" points="366.5,105.5 366.5,133.5 396.5,133.5"/>
<polygon fill="#ffffee" points="366.5,105.5 396.5,133.5 396.5,105.5"/>
<polyline fill="none" stroke="#bebebe" stroke-width="0.5" points="366.5,105.5 366.5,133.5 396.5,133.5 396.5,105.5 366.5,105.5"/>
<text fill="#000000" style="stroke:none" x="367" y="117" transform="rotate(0, 367, 117)" font-size="10" font-family="SansSerif" font-style="normal" font-weight="normal">spiral</text>
<text fill="#000000" style="stroke:none" x="367" y="131" transform="rotate(0, 367, 131)" font-size="10" font-family="SansSerif" font-style="normal" font-weight="normal">t=9</text>
<polygon fill="#ffffee" points="393.5,172.5 393.5,196.5 423.5,196.5"/>
<polygon fill="#ffffee" points="393.5,172.5 423.5,196.5 423.5,172.5"/>
<polyline fill="none" stroke="#bebebe" stroke-width="0.5" points="393.5,172.5 393.5,196.5 423.5,196.5 423.5,172.5 393.5,172.5"/>
<text fill="#000000" style="stroke:none" x="394" y="182" transform="rotate(0, 394, 182)" font-size="10" font-family="SansSerif" font-style="normal" font-weight="normal">curve</text>
<text fill="#000000" style="stroke:none" x="394" y="195" transform="rotate(0, 394, 195)" font-size="10" font-family="SansSerif" font-style="normal" font-weight="normal">t=7.5</text>
<polyline fill="none" stroke="#000000" stroke-width="0.5" points="76.5,403.375 76.5,57.625"/>
<polyline fill="none" stroke="#000000" stroke-width="0.5" points="76.5,403.375 69.6147,403.375"/>
<polyline fill="none" stroke="#000000" stroke-width="0.5" points="76.5,345.75 69.6147,345.75"/>
<polyline fill="none" stroke="#000000" stroke-width="0.5" points="76.5,288.125 69.6147,288.125"/>
<polyline fill="none" stroke="#000000" stroke-width="0.5" points="76.5,230.5 69.6147,230.5"/>
<polyline fill="none" stroke="#000000" stroke-width="0.5" points="76.5,172.875 69.6147,172.875"/>
<polyline fill="none" stroke="#000000" stroke-width="0.5" points="76.5,115.25 69.6147,115.25"/>
<polyline fill="none" stroke="#000000" stroke-width="0.5" points="76.5,57.625 69.6147,57.625"/>
<polyline fill="none" stroke="#000000" stroke-width="0.5" points="76.5,388.969 72.3691,388.969"/>
<polyline fill="none" stroke="#000000" stroke-width="0.5" points="76.5,374.562 72.3691,374.562"/>
<polyline fill="none" stroke="#000000" stroke-width="0.5" points="76.5,360.156 72.3691,360.156"/>
<polyline fill="none" stroke="#000000" stroke-width="0.5" points="76.5,331.344 72.3691,331.344"/>
<polyline fill="none" stroke="#000000" stroke-width="0.5" points="76.5,316.938 72.3691,316.938"/>
<polyline fill="none" stroke="#000000" stroke-width="0.5" points="76.5,302.531 72.3691,302.531"/>
<polyline fill="none" stroke="#000000" stroke-width="0.5" points="76.5,273.719 72.3691,273.719"/>
<polyline fill="none" stroke="#000000" stroke-width="0.5" points="76.5,259.312 72.3691,259.312"/>
<polyline fill="none" stroke="#000000" stroke-width="0.5" points="76.5,244.906 72.3691,244.906"/>
<polyline fill="none" stroke="#000000" stroke-width="0.5" points="76.5,216.094 72.3691,216.094"/>
<polyline fill="none" stroke="#000000" stroke-width="0.5" points="76.5,201.688 72.3691,201.688"/>
<polyline fill="none" stroke="#000000" stroke-width="0.5" points="76.5,187.281 72.3691,187.281"/>
<polyline fill="none" stroke="#000000" stroke-width="0.5" points="76.5,158.469 72.3691,158.469"/>
<polyline fill="none" stroke="#000000" stroke-width="0.5" points="76.5,144.062 72.3691,144.062"/>
<polyline fill="none" stroke="#000000" stroke-width="0.5" points="76.5,129.656 72.3691,129.656"/>
<polyline fill="none" stroke="#000000" stroke-width="0.5" points="76.5,100.844 72.3691,100.844"/>
<polyline fill="none" stroke="#000000" stroke-width="0.5" points="76.5,86.4375 72.3691,86.4375"/>
<polyline fill="none" stroke="#000000" stroke-width="0.5" points="76.5,72.0312 72.3691,72.0312"/>
<text fill="#000000" style="stroke:none" x="49" y="408" transform="rotate(-0, 49, 408)" font-size="10" font-family="SansSerif" font-style="normal" font-weight="normal">-15</text>
<text fill="#000000" style="stroke:none" x="49" y="351" transform="rotate(-0, 49, 351)" font-size="10" font-family="SansSerif" font-style="normal" font-weight="normal">-10</text>
<text fill="#000000" style="stroke:none" x="55" y="293" transform="rotate(-0, 55, 293)" font-size="10" font-family="SansSerif" font-style="normal" font-weight="normal">-5</text>
<text fill="#000000" style="stroke:none" x="60" y="235" transform="rotate(-0, 60, 235)" font-size="10" font-family="SansSerif" font-style="normal" font-weight="normal">0</text>
<text fill="#000000" style="stroke:none" x="62" y="178" transform="rotate(-0, 62, 178)" font-size="10" font-family="SansSerif" font-style="normal" font-weight="normal">5</text>
<text fill="#000000" style="stroke:none" x="55" y="120" transform="rotate(-0, 55, 120)" font-size="10" font-family="SansSerif" font-style="normal" font-weight="normal">10</text>
<text fill="#000000" style="stroke:none" x="56" y="63" transform="rotate(-0, 56, 63)" font-size="10" font-family="SansSerif" font-style="normal" font-weight="normal">15</text>
<polyline fill="none" stroke="#000000" stroke-width="0.5" points="76.5,403.375 535.5,403.375"/>
<polyline fill="none" stroke="#000000" stroke-width="0.5" points="76.5,403.375 76.5,408.55"/>
<polyline fill="none" stroke="#000000" stroke-width="0.5" points="168.3,403.375 168.3,408.55"/>
<polyline fill="none" stroke="#000000" stroke-width="0.5" points="260.1,403.375 260.1,408.55"/>
<polyline fill="none" stroke="#000000" stroke-width="0.5" points="351.9,403.375 351.9,408.55"/>
<polyline fill="none" stroke="#000000" stroke-width="0.5" points="443.7,403.375 443.7,408.55"/>
<polyline fill="none" stroke="#000000" stroke-width="0.5" points="535.5,403.375 535.5,408.55"/>
<polyline fill="none" stroke="#000000" stroke-width="0.5" points="99.4502,403.375 99.4502,406.48"/>
<polyline fill="none" stroke="#000000" stroke-width="0.5" points="122.4,403.375 122.4,406.48"/>
<polyline fill="none" stroke="#000000" stroke-width="0.5" points="145.35,403.375 145.35,406.48"/>
<polyline fill="none" stroke="#000000" stroke-width="0.5" points="191.25,403.375 191.25,406.48"/>
<polyline fill="none" stroke="#000000" stroke-width="0.5" points="214.2,403.375 214.2,406.48"/>
<polyline fill="none" stroke="#000000" stroke-width="0.5" points="237.15,403.375 237.15,406.48"/>
<polyline fill="none" stroke="#000000" stroke-width="0.5" points="283.05,403.375 283.05,406.48"/>
<polyline fill="none" stroke="#000000" stroke-width="0.5" points="306,403.375 306,406.48"/>
<polyline fill="none" stroke="#000000" stroke-width="0.5" points="328.95,403.375 328.95,406.48"/>
<polyline fill="none" stroke="#000000" stroke-width="0.5" points="374.85,403.375 374.85,406.48"/>
<polyline fill="none" stroke="#000000" stroke-width="0.5" points="397.8,403.375 397.8,406.48"/>
<polyline fill="none" stroke="#000000" stroke-width="0.5" points="420.75,403.375 420.75,406.48"/>
<polyline fill="none" stroke="#000000" stroke-width="0.5" points="466.65,403.375 466.65,406.48"/>
<polyline fill="none" stroke="#000000" stroke-width="0.5" points="489.6,403.375 489.6,406.48"/>
<polyline fill="none" stroke="#000000" stroke-width="0.5" points="512.55,403.375 512.55,406.48"/>
<text fill="#000000" style="stroke:none" x="67" y="420" transform="rotate(-0, 67, 420)" font-size="10" font-family="SansSerif" font-style="normal" font-weight="normal">-10</text>
<text fill="#000000" style="stroke:none" x="162" y="420" transform="rotate(-0, 162, 420)" font-size="10" font-family="SansSerif" font-style="normal" font-weight="normal">-5</text>
<text fill="#000000" style="stroke:none" x="256" y="420" transform="rotate(-0, 256, 420)" font-size="10" font-family="SansSerif" font-style="normal" font-weight="normal">0</text>
<text fill="#000000" style="stroke:none" x="349" y="420" transform="rotate(-0, 349, 420)" font-size="10" font-family="SansSerif" font-style="normal" font-weight="normal">5</text>
<text fill="#000000" style="stroke:none" x="437" y="420" transform="rotate(-0, 437, 420)" font-size="10" font-family="SansSerif" font-style="normal" font-weight="normal">10</text>
<text fill="#000000" style="stroke:none" x="529" y="420" transform="rotate(-0, 529, 420)" font-size="10" font-family="SansSerif" font-style="normal" font-weight="normal">15</text>
</g>
</svg>
