<?xml version="1.0" encoding="UTF-8" standalone="no"?>
<svg xmlns="http://www.w3.org/2000/svg"
     xmlns:xlink="http://www.w3.org/1999/xlink"
     width="454px" height="299px" viewBox="0 0 454 299"
     style="stroke:none">
<title>Graphic window number 0</title>
<desc>
Creator: GL2PS 1.3.2, (C) 1999-2006 Christophe Geuzaine (geuz@geuz.org)
For: Scilab
CreationDate: Fri Apr 23 15:14:17 2010
</desc>
<defs>
</defs>
<polygon fill="#ffffff" points="0,0 454,0 454,299 0,299"/>
<g>
<polygon fill="#ffffff" points="227,100.999 56.75,181.312 227,261.625"/>
<polygon fill="#ffffff" points="227,100.999 227,261.625 397.25,181.312"/>
<polygon fill="#ffffff" points="227,100.999 397.25,181.312 397.25,117.688"/>
<polygon fill="#ffffff" points="227,100.999 56.75,181.312 56.75,117.688"/>
<polygon fill="#ffffff" points="227,100.999 397.25,117.688 227,37.375"/>
<polygon fill="#ffffff" points="227,100.999 56.75,117.688 227,37.375"/>
<polyline fill="none" stroke="#00ffff" stroke-width="0.5" stroke-dasharray="11,5" points="227,100.999 56.75,181.312"/>
<polyline fill="none" stroke="#00ffff" stroke-width="0.5" stroke-dasharray="11,5" points="227,100.999 397.25,181.312"/>
<polygon fill="#ffffee" points="336.5,86.5 336.5,122.5 381.5,122.5"/>
<polygon fill="#ffffee" points="336.5,86.5 381.5,122.5 381.5,86.5"/>
<text fill="#000000" style="stroke:none" x="337" y="97" transform="rotate(0, 337, 97)" font-size="10" font-family="SansSerif" font-style="normal" font-weight="normal">X: -0.98</text>
<text fill="#000000" style="stroke:none" x="337" y="109" transform="rotate(0, 337, 109)" font-size="10" font-family="SansSerif" font-style="normal" font-weight="normal">Y: 0.19</text>
<text fill="#000000" style="stroke:none" x="337" y="121" transform="rotate(0, 337, 121)" font-size="10" font-family="SansSerif" font-style="normal" font-weight="normal">Z: 0.49</text>
<polyline fill="none" stroke="#bebebe" stroke-width="0.5" points="336.5,86.5 336.5,122.5 381.5,122.5 381.5,86.5 336.5,86.5"/>
<polyline fill="none" stroke="#000000" stroke-width="0.5" points="199.908,111.266 211.753,109.869 223.751,109.034"/>
<polyline fill="none" stroke="#000000" stroke-width="0.5" points="188.333,113.216 199.908,111.266"/>
<polyline fill="none" stroke="#000000" stroke-width="0.5" points="223.751,109.034 235.781,108.767"/>
<polyline fill="none" stroke="#000000" stroke-width="0.5" points="177.145,115.703 188.333,113.216"/>
<polyline fill="none" stroke="#000000" stroke-width="0.5" points="235.781,108.767 247.724,109.066"/>
<polyline fill="none" stroke="#000000" stroke-width="0.5" points="166.454,118.707 177.145,115.703"/>
<polyline fill="none" stroke="#000000" stroke-width="0.5" points="247.724,109.066 259.459,109.924"/>
<polyline fill="none" stroke="#000000" stroke-width="0.5" points="156.369,122.201 166.454,118.707"/>
<polyline fill="none" stroke="#000000" stroke-width="0.5" points="259.459,109.924 270.871,111.328"/>
<polyline fill="none" stroke="#000000" stroke-width="0.5" points="146.989,126.155 156.369,122.201"/>
<polyline fill="none" stroke="#000000" stroke-width="0.5" points="270.871,111.328 281.843,113.261"/>
<polyline fill="none" stroke="#00ffff" stroke-width="0.5" stroke-dasharray="11,5" points="227,100.999 227,37.375"/>
<polyline fill="none" stroke="#000000" stroke-width="0.5" points="138.409,130.533 146.989,126.155"/>
<polyline fill="none" stroke="#000000" stroke-width="0.5" points="281.843,113.261 292.268,115.699"/>
<polyline fill="none" stroke="#000000" stroke-width="0.5" points="130.714,135.294 138.409,130.533"/>
<polyline fill="none" stroke="#000000" stroke-width="0.5" points="292.268,115.699 302.041,118.613"/>
<polyline fill="none" stroke="#000000" stroke-width="0.5" points="123.981,140.397 130.714,135.294"/>
<polygon fill="#ffffee" points="120,136 120,144 128,144"/>
<polygon fill="#ffffee" points="120,136 128,144 128,136"/>
<polyline fill="none" stroke="#000000" stroke-width="0.5" points="120,136 120,144 128,144 128,136 120,136"/>
<polyline fill="none" stroke="#000000" stroke-width="0.5" points="302.041,118.613 311.064,121.971"/>
<polyline fill="none" stroke="#000000" stroke-width="0.5" points="118.277,145.793 123.981,140.397"/>
<text fill="#000000" style="stroke:none" x="35" y="184" transform="rotate(-0, 35, 184)" font-size="10" font-family="SansSerif" font-style="normal" font-weight="normal">0.0</text>
<polyline fill="none" stroke="#000000" stroke-width="0.5" points="56.75,181.312 52.5791,179.344"/>
<polyline fill="none" stroke="#000000" stroke-width="0.5" points="311.064,121.971 319.247,125.736"/>
<polyline fill="none" stroke="#000000" stroke-width="0.5" points="113.66,151.433 118.277,145.793"/>
<polyline fill="none" stroke="#000000" stroke-width="0.5" points="56.75,181.312 52.5791,183.279"/>
<polyline fill="none" stroke="#000000" stroke-width="0.5" points="397.25,181.312 401.421,183.279"/>
<text fill="#000000" style="stroke:none" x="30" y="189" transform="rotate(-0, 30, 189)" font-size="10" font-family="SansSerif" font-style="normal" font-weight="normal">-1.0</text>
<text fill="#000000" style="stroke:none" x="402" y="189" transform="rotate(-0, 402, 189)" font-size="10" font-family="SansSerif" font-style="normal" font-weight="normal">-1.0</text>
<polyline fill="none" stroke="#000000" stroke-width="0.5" points="65.2627,185.328 62.7598,186.508"/>
<polyline fill="none" stroke="#000000" stroke-width="0.5" points="388.737,185.328 391.24,186.508"/>
<polyline fill="none" stroke="#000000" stroke-width="0.5" points="110.175,157.264 113.66,151.433"/>
<polyline fill="none" stroke="#000000" stroke-width="0.5" points="319.247,125.736 326.508,129.865"/>
<polyline fill="none" stroke="#000000" stroke-width="0.5" points="56.75,178.131 54.2476,176.95"/>
<polygon fill="#ffffee" points="323,126 323,134 331,134"/>
<polygon fill="#ffffee" points="323,126 331,134 331,126"/>
<polyline fill="none" stroke="#000000" stroke-width="0.5" points="323,126 323,134 331,134 331,126 323,126"/>
<polyline fill="none" stroke="#000000" stroke-width="0.5" points="73.7749,189.343 71.2725,190.524"/>
<polyline fill="none" stroke="#000000" stroke-width="0.5" points="380.225,189.343 382.728,190.524"/>
<polyline fill="none" stroke="#000000" stroke-width="0.5" points="107.858,163.232 110.175,157.264"/>
<polyline fill="none" stroke="#000000" stroke-width="0.5" points="326.508,129.865 332.775,134.313"/>
<polyline fill="none" stroke="#000000" stroke-width="0.5" points="56.75,174.949 54.2476,173.769"/>
<polyline fill="none" stroke="#000000" stroke-width="0.5" points="82.2876,193.359 79.7852,194.54"/>
<polyline fill="none" stroke="#000000" stroke-width="0.5" points="371.712,193.359 374.215,194.54"/>
<polyline fill="none" stroke="#000000" stroke-width="0.5" points="106.73,169.281 107.858,163.232"/>
<polyline fill="none" stroke="#000000" stroke-width="0.5" points="332.775,134.313 337.985,139.033"/>
<polyline fill="none" stroke="#000000" stroke-width="0.5" points="90.7998,197.375 86.6289,199.342"/>
<polyline fill="none" stroke="#000000" stroke-width="0.5" points="363.2,197.375 367.371,199.342"/>
<text fill="#000000" style="stroke:none" x="64" y="205" transform="rotate(-0, 64, 205)" font-size="10" font-family="SansSerif" font-style="normal" font-weight="normal">-0.6</text>
<text fill="#000000" style="stroke:none" x="368" y="205" transform="rotate(-0, 368, 205)" font-size="10" font-family="SansSerif" font-style="normal" font-weight="normal">-0.6</text>
<polyline fill="none" stroke="#000000" stroke-width="0.5" points="56.75,171.768 54.2476,170.588"/>
<polyline fill="none" stroke="#000000" stroke-width="0.5" points="106.805,175.355 106.73,169.281"/>
<polyline fill="none" stroke="#000000" stroke-width="0.5" points="99.3125,201.39 96.8101,202.571"/>
<polyline fill="none" stroke="#000000" stroke-width="0.5" points="354.688,201.39 357.19,202.571"/>
<polyline fill="none" stroke="#000000" stroke-width="0.5" points="337.985,139.033 342.086,143.972"/>
<polyline fill="none" stroke="#000000" stroke-width="0.5" points="108.081,181.398 106.805,175.355"/>
<polyline fill="none" stroke="#000000" stroke-width="0.5" points="107.825,205.406 105.322,206.586"/>
<polyline fill="none" stroke="#000000" stroke-width="0.5" points="346.175,205.406 348.678,206.586"/>
<polygon fill="#ffffee" points="186,84 186,92 194,92"/>
<polygon fill="#ffffee" points="186,84 194,92 194,84"/>
<polyline fill="none" stroke="#000000" stroke-width="0.5" points="56.75,168.587 54.2476,167.407"/>
<polyline fill="none" stroke="#000000" stroke-width="0.5" points="201.884,86.0068 213.763,84.7036 225.775,83.9648"/>
<polyline fill="none" stroke="#000000" stroke-width="0.5" points="190.255,87.8647 201.884,86.0068"/>
<polyline fill="none" stroke="#000000" stroke-width="0.5" points="186,84 186,92 194,92 194,84 186,84"/>
<polyline fill="none" stroke="#000000" stroke-width="0.5" points="225.775,83.9648 237.799,83.793"/>
<polyline fill="none" stroke="#000000" stroke-width="0.5" points="178.994,90.2632 190.255,87.8647"/>
<polyline fill="none" stroke="#000000" stroke-width="0.5" points="237.799,83.793 249.715,84.1865"/>
<polyline fill="none" stroke="#000000" stroke-width="0.5" points="168.212,93.1816 178.994,90.2632"/>
<polyline fill="none" stroke="#000000" stroke-width="0.5" points="342.086,143.972 345.038,149.077"/>
<polyline fill="none" stroke="#000000" stroke-width="0.5" points="116.337,209.421 113.835,210.602"/>
<polyline fill="none" stroke="#000000" stroke-width="0.5" points="337.663,209.421 340.165,210.602"/>
<text fill="#000000" style="stroke:none" x="36" y="168" transform="rotate(-0, 36, 168)" font-size="10" font-family="SansSerif" font-style="normal" font-weight="normal">0.4</text>
<polyline fill="none" stroke="#000000" stroke-width="0.5" points="110.544,187.352 108.081,181.398"/>
<polyline fill="none" stroke="#000000" stroke-width="0.5" points="249.715,84.1865 261.404,85.1372"/>
<polyline fill="none" stroke="#000000" stroke-width="0.5" points="158.018,96.5957 168.212,93.1816"/>
<polyline fill="none" stroke="#000000" stroke-width="0.5" points="56.75,165.406 52.5791,163.438"/>
<polyline fill="none" stroke="#000000" stroke-width="0.5" points="261.404,85.1372 272.75,86.6318"/>
<polyline fill="none" stroke="#000000" stroke-width="0.5" points="148.513,100.475 158.018,96.5957"/>
<polyline fill="none" stroke="#000000" stroke-width="0.5" points="124.85,213.437 120.679,215.405"/>
<polyline fill="none" stroke="#000000" stroke-width="0.5" points="329.15,213.437 333.321,215.405"/>
<text fill="#000000" style="stroke:none" x="98" y="221" transform="rotate(-0, 98, 221)" font-size="10" font-family="SansSerif" font-style="normal" font-weight="normal">-0.2</text>
<text fill="#000000" style="stroke:none" x="334" y="221" transform="rotate(-0, 334, 221)" font-size="10" font-family="SansSerif" font-style="normal" font-weight="normal">-0.2</text>
<polyline fill="none" stroke="#000000" stroke-width="0.5" points="114.171,193.162 110.544,187.352"/>
<polyline fill="none" stroke="#000000" stroke-width="0.5" points="345.038,149.077 346.81,154.294"/>
<polyline fill="none" stroke="#000000" stroke-width="0.5" points="272.75,86.6318 283.638,88.6514"/>
<polyline fill="none" stroke="#000000" stroke-width="0.5" points="139.792,104.784 148.513,100.475"/>
<polyline fill="none" stroke="#000000" stroke-width="0.5" points="133.362,217.453 130.86,218.633"/>
<polyline fill="none" stroke="#000000" stroke-width="0.5" points="320.638,217.453 323.14,218.633"/>
<polyline fill="none" stroke="#000000" stroke-width="0.5" points="118.926,198.774 114.171,193.162"/>
<polyline fill="none" stroke="#000000" stroke-width="0.5" points="56.75,162.225 54.2476,161.044"/>
<polyline fill="none" stroke="#000000" stroke-width="0.5" points="283.638,88.6514 293.96,91.1714"/>
<polyline fill="none" stroke="#000000" stroke-width="0.5" points="131.943,109.484 139.792,104.784"/>
<polyline fill="none" stroke="#000000" stroke-width="0.5" points="227,261.625 56.75,181.312 227,261.625"/>
<polyline fill="none" stroke="#000000" stroke-width="0.5" points="397.25,181.312 227,261.625"/>
<polyline fill="none" stroke="#000000" stroke-width="0.5" points="397.25,181.312 227,261.625"/>
<polyline fill="none" stroke="#000000" stroke-width="0.5" points="141.875,221.468 139.373,222.649"/>
<polyline fill="none" stroke="#000000" stroke-width="0.5" points="312.125,221.468 314.627,222.649"/>
<polyline fill="none" stroke="#000000" stroke-width="0.5" points="346.81,154.294 347.385,159.567"/>
<polyline fill="none" stroke="#000000" stroke-width="0.5" points="312.125,221.468 303.201,224.879"/>
<polyline fill="none" stroke="#000000" stroke-width="0.5" points="293.96,91.1714 303.613,94.1626"/>
<polyline fill="none" stroke="#000000" stroke-width="0.5" points="125.043,114.532 131.943,109.484"/>
<polyline fill="none" stroke="#000000" stroke-width="0.5" points="124.761,204.137 118.926,198.774"/>
<polyline fill="none" stroke="#000000" stroke-width="0.5" points="150.388,225.484 147.885,226.665"/>
<polyline fill="none" stroke="#000000" stroke-width="0.5" points="303.612,225.484 306.115,226.665"/>
<polyline fill="none" stroke="#000000" stroke-width="0.5" points="56.75,159.043 54.2476,157.863"/>
<polyline fill="none" stroke="#000000" stroke-width="0.5" points="119.162,119.882 125.043,114.532"/>
<polyline fill="none" stroke="#000000" stroke-width="0.5" points="131.617,209.2 124.761,204.137"/>
<polyline fill="none" stroke="#000000" stroke-width="0.5" points="303.201,224.879 293.517,227.851"/>
<polyline fill="none" stroke="#000000" stroke-width="0.5" points="303.613,94.1626 312.501,97.5923"/>
<polyline fill="none" stroke="#000000" stroke-width="0.5" points="347.385,159.567 346.757,164.838"/>
<polyline fill="none" stroke="#000000" stroke-width="0.5" points="158.9,229.5 154.729,231.467"/>
<polyline fill="none" stroke="#000000" stroke-width="0.5" points="295.1,229.5 299.271,231.467"/>
<text fill="#000000" style="stroke:none" x="138" y="237" transform="rotate(-0, 138, 237)" font-size="10" font-family="SansSerif" font-style="normal" font-weight="normal">0.2</text>
<text fill="#000000" style="stroke:none" x="300" y="237" transform="rotate(-0, 300, 237)" font-size="10" font-family="SansSerif" font-style="normal" font-weight="normal">0.2</text>
<polyline fill="none" stroke="#000000" stroke-width="0.5" points="139.426,213.917 131.617,209.2"/>
<polyline fill="none" stroke="#000000" stroke-width="0.5" points="114.358,125.485 119.162,119.882"/>
<polyline fill="none" stroke="#000000" stroke-width="0.5" points="293.517,227.851 283.167,230.349"/>
<polyline fill="none" stroke="#000000" stroke-width="0.5" points="56.75,155.862 54.2476,154.682"/>
<polyline fill="none" stroke="#000000" stroke-width="0.5" points="312.501,97.5923 320.534,101.421"/>
<text fill="#000000" style="stroke:none" x="24" y="142" transform="rotate(0, 24, 142)" font-size="10" font-family="SansSerif" font-style="normal" font-weight="normal">Z</text>
<polyline fill="none" stroke="#000000" stroke-width="0.5" points="167.413,233.516 164.91,234.696"/>
<polyline fill="none" stroke="#000000" stroke-width="0.5" points="286.587,233.516 289.09,234.696"/>
<text fill="#000000" style="stroke:none" x="343" y="240" transform="rotate(0, 343, 240)" font-size="10" font-family="SansSerif" font-style="normal" font-weight="normal">X</text>
<text fill="#000000" style="stroke:none" x="103" y="240" transform="rotate(0, 103, 240)" font-size="10" font-family="SansSerif" font-style="normal" font-weight="normal">Y</text>
<polyline fill="none" stroke="#000000" stroke-width="0.5" points="148.11,218.244 139.426,213.917"/>
<polyline fill="none" stroke="#000000" stroke-width="0.5" points="283.167,230.349 272.256,232.346"/>
<polyline fill="none" stroke="#000000" stroke-width="0.5" points="346.757,164.838 344.932,170.051"/>
<polyline fill="none" stroke="#000000" stroke-width="0.5" points="110.681,131.288 114.358,125.485"/>
<polyline fill="none" stroke="#000000" stroke-width="0.5" points="157.582,222.143 148.11,218.244"/>
<polyline fill="none" stroke="#000000" stroke-width="0.5" points="175.925,237.531 173.422,238.711"/>
<polyline fill="none" stroke="#000000" stroke-width="0.5" points="278.075,237.531 280.578,238.711"/>
<polyline fill="none" stroke="#000000" stroke-width="0.5" points="320.534,101.421 327.633,105.607"/>
<polyline fill="none" stroke="#000000" stroke-width="0.5" points="272.256,232.346 260.893,233.816"/>
<polyline fill="none" stroke="#000000" stroke-width="0.5" points="56.75,152.681 54.2476,151.5"/>
<polyline fill="none" stroke="#000000" stroke-width="0.5" points="167.748,225.578 157.582,222.143"/>
<polyline fill="none" stroke="#000000" stroke-width="0.5" points="260.893,233.816 249.191,234.743"/>
<polyline fill="none" stroke="#000000" stroke-width="0.5" points="108.165,137.236 110.681,131.288"/>
<polyline fill="none" stroke="#000000" stroke-width="0.5" points="344.932,170.051 341.929,175.151"/>
<polyline fill="none" stroke="#000000" stroke-width="0.5" points="184.438,241.547 181.935,242.727"/>
<polyline fill="none" stroke="#000000" stroke-width="0.5" points="269.562,241.547 272.065,242.727"/>
<polyline fill="none" stroke="#000000" stroke-width="0.5" points="178.506,228.519 167.748,225.578"/>
<polyline fill="none" stroke="#000000" stroke-width="0.5" points="249.191,234.743 237.268,235.111"/>
<text fill="#000000" style="stroke:none" x="35" y="152" transform="rotate(-0, 35, 152)" font-size="10" font-family="SansSerif" font-style="normal" font-weight="normal">0.8</text>
<polyline fill="none" stroke="#000000" stroke-width="0.5" points="189.749,230.94 178.506,228.519"/>
<polyline fill="none" stroke="#000000" stroke-width="0.5" points="327.633,105.607 333.727,110.104"/>
<polyline fill="none" stroke="#000000" stroke-width="0.5" points="237.268,235.111 225.242,234.915"/>
<polyline fill="none" stroke="#000000" stroke-width="0.5" points="201.363,232.823 189.749,230.94"/>
<polyline fill="none" stroke="#000000" stroke-width="0.5" points="225.242,234.915 213.234,234.15 201.363,232.823"/>
<polyline fill="none" stroke="#000000" stroke-width="0.5" points="56.75,149.5 52.5791,147.532"/>
<polyline fill="none" stroke="#000000" stroke-width="0.5" points="106.836,143.276 108.165,137.236"/>
<polyline fill="none" stroke="#000000" stroke-width="0.5" points="56.75,181.312 56.75,117.688"/>
<polyline fill="none" stroke="#000000" stroke-width="0.5" points="56.75,181.312 56.75,117.688"/>
<polyline fill="none" stroke="#000000" stroke-width="0.5" points="397.25,117.688 397.25,181.312"/>
<polyline fill="none" stroke="#000000" stroke-width="0.5" points="192.95,245.562 188.779,247.53"/>
<polyline fill="none" stroke="#000000" stroke-width="0.5" points="261.05,245.562 265.221,247.53"/>
<text fill="#000000" style="stroke:none" x="172" y="253" transform="rotate(-0, 172, 253)" font-size="10" font-family="SansSerif" font-style="normal" font-weight="normal">0.6</text>
<text fill="#000000" style="stroke:none" x="266" y="253" transform="rotate(-0, 266, 253)" font-size="10" font-family="SansSerif" font-style="normal" font-weight="normal">0.6</text>
<polyline fill="none" stroke="#000000" stroke-width="0.5" points="341.929,175.151 337.778,180.082"/>
<polyline fill="none" stroke="#000000" stroke-width="0.5" points="333.727,110.104 338.754,114.864"/>
<polyline fill="none" stroke="#000000" stroke-width="0.5" points="201.462,249.578 198.96,250.759"/>
<polyline fill="none" stroke="#000000" stroke-width="0.5" points="252.538,249.578 255.04,250.759"/>
<polyline fill="none" stroke="#000000" stroke-width="0.5" points="106.708,149.35 106.836,143.276"/>
<polyline fill="none" stroke="#000000" stroke-width="0.5" points="56.75,146.319 54.2476,145.138"/>
<polyline fill="none" stroke="#000000" stroke-width="0.5" points="209.975,253.594 207.473,254.774"/>
<polyline fill="none" stroke="#000000" stroke-width="0.5" points="244.025,253.594 246.527,254.774"/>
<polyline fill="none" stroke="#000000" stroke-width="0.5" points="337.778,180.082 332.52,184.79"/>
<polyline fill="none" stroke="#000000" stroke-width="0.5" points="107.783,155.401 106.708,149.35"/>
<polyline fill="none" stroke="#000000" stroke-width="0.5" points="338.754,114.864 342.664,119.835"/>
<polyline fill="none" stroke="#000000" stroke-width="0.5" points="218.487,257.609 215.985,258.79"/>
<polyline fill="none" stroke="#000000" stroke-width="0.5" points="235.513,257.609 238.015,258.79"/>
<polyline fill="none" stroke="#000000" stroke-width="0.5" points="56.75,143.138 54.2476,141.957"/>
<polyline fill="none" stroke="#000000" stroke-width="0.5" points="332.52,184.79 326.208,189.225"/>
<polyline fill="none" stroke="#000000" stroke-width="0.5" points="110.048,161.375 107.783,155.401"/>
<polyline fill="none" stroke="#000000" stroke-width="0.5" points="342.664,119.835 345.419,124.963"/>
<polyline fill="none" stroke="#000000" stroke-width="0.5" points="227,261.625 222.829,263.593"/>
<polyline fill="none" stroke="#000000" stroke-width="0.5" points="227,261.625 231.171,263.593"/>
<text fill="#000000" style="stroke:none" x="206" y="269" transform="rotate(-0, 206, 269)" font-size="10" font-family="SansSerif" font-style="normal" font-weight="normal">1.0</text>
<text fill="#000000" style="stroke:none" x="232" y="269" transform="rotate(-0, 232, 269)" font-size="10" font-family="SansSerif" font-style="normal" font-weight="normal">1.0</text>
<polyline fill="none" stroke="#000000" stroke-width="0.5" points="56.75,139.957 54.2476,138.776"/>
<polyline fill="none" stroke="#000000" stroke-width="0.5" points="113.481,167.212 110.048,161.375"/>
<polyline fill="none" stroke="#000000" stroke-width="0.5" points="326.208,189.225 318.904,193.339"/>
<polyline fill="none" stroke="#000000" stroke-width="0.5" points="345.419,124.963 346.991,130.194"/>
<polyline fill="none" stroke="#000000" stroke-width="0.5" points="118.05,172.862 113.481,167.212"/>
<polyline fill="none" stroke="#000000" stroke-width="0.5" points="133.198,83.6831 141.2,79.0454"/>
<polyline fill="none" stroke="#000000" stroke-width="0.5" points="318.904,193.339 310.682,197.086"/>
<polyline fill="none" stroke="#000000" stroke-width="0.5" points="227,37.375 397.25,117.688"/>
<polyline fill="none" stroke="#000000" stroke-width="0.5" points="56.75,117.688 227,37.375"/>
<polyline fill="none" stroke="#000000" stroke-width="0.5" points="56.75,136.775 54.2476,135.595"/>
<polyline fill="none" stroke="#000000" stroke-width="0.5" points="123.707,178.27 118.05,172.862"/>
<polyline fill="none" stroke="#000000" stroke-width="0.5" points="126.134,88.6763 133.198,83.6831"/>
<polyline fill="none" stroke="#000000" stroke-width="0.5" points="346.991,130.194 347.363,135.47"/>
<text fill="#000000" style="stroke:none" x="37" y="136" transform="rotate(-0, 37, 136)" font-size="10" font-family="SansSerif" font-style="normal" font-weight="normal">1.2</text>
<polyline fill="none" stroke="#000000" stroke-width="0.5" points="310.682,197.086 301.624,200.425"/>
<polyline fill="none" stroke="#000000" stroke-width="0.5" points="56.75,133.594 52.5791,131.626"/>
<polyline fill="none" stroke="#000000" stroke-width="0.5" points="120.077,93.979 126.134,88.6763"/>
<polyline fill="none" stroke="#000000" stroke-width="0.5" points="130.395,183.386 123.707,178.27"/>
<polyline fill="none" stroke="#000000" stroke-width="0.5" points="301.624,200.425 291.82,203.32"/>
<polyline fill="none" stroke="#000000" stroke-width="0.5" points="347.363,135.47 346.533,140.735"/>
<polyline fill="none" stroke="#000000" stroke-width="0.5" points="138.049,188.165 130.395,183.386"/>
<polyline fill="none" stroke="#000000" stroke-width="0.5" points="115.088,99.5425 120.077,93.979"/>
<polyline fill="none" stroke="#000000" stroke-width="0.5" points="291.82,203.32 281.369,205.736"/>
<polyline fill="none" stroke="#000000" stroke-width="0.5" points="56.75,130.413 54.2476,129.232"/>
<polyline fill="none" stroke="#000000" stroke-width="0.5" points="146.592,192.56 138.049,188.165"/>
<polyline fill="none" stroke="#000000" stroke-width="0.5" points="111.218,105.315 115.088,99.5425"/>
<polyline fill="none" stroke="#000000" stroke-width="0.5" points="281.369,205.736 270.374,207.646"/>
<polyline fill="none" stroke="#000000" stroke-width="0.5" points="346.533,140.735 344.509,145.934"/>
<polyline fill="none" stroke="#000000" stroke-width="0.5" points="155.938,196.533 146.592,192.56"/>
<polyline fill="none" stroke="#000000" stroke-width="0.5" points="270.374,207.646 258.946,209.026"/>
<polyline fill="none" stroke="#000000" stroke-width="0.5" points="165.994,200.049 155.938,196.533"/>
<polyline fill="none" stroke="#000000" stroke-width="0.5" points="56.75,127.232 54.2476,126.051"/>
<polyline fill="none" stroke="#000000" stroke-width="0.5" points="108.505,111.243 111.218,105.315"/>
<polyline fill="none" stroke="#000000" stroke-width="0.5" points="258.946,209.026 247.199,209.859"/>
<polyline fill="none" stroke="#000000" stroke-width="0.5" points="176.66,203.075 165.994,200.049"/>
<polyline fill="none" stroke="#000000" stroke-width="0.5" points="247.199,209.859 235.25,210.133"/>
<polyline fill="none" stroke="#000000" stroke-width="0.5" points="344.509,145.934 341.311,151.008"/>
<polyline fill="none" stroke="#000000" stroke-width="0.5" points="187.829,205.585 176.66,203.075"/>
<polyline fill="none" stroke="#000000" stroke-width="0.5" points="235.25,210.133 223.219,209.841"/>
<polyline fill="none" stroke="#000000" stroke-width="0.5" points="199.389,207.56 187.829,205.585"/>
<polyline fill="none" stroke="#000000" stroke-width="0.5" points="223.219,209.841 211.225,208.981 199.389,207.56"/>
<polyline fill="none" stroke="#000000" stroke-width="0.5" points="106.976,117.271 108.505,111.243"/>
<polyline fill="none" stroke="#000000" stroke-width="0.5" points="56.75,124.051 54.2476,122.87"/>
<polyline fill="none" stroke="#000000" stroke-width="0.5" points="341.311,151.008 336.97,155.905"/>
<polyline fill="none" stroke="#000000" stroke-width="0.5" points="106.646,123.344 106.976,117.271"/>
<polyline fill="none" stroke="#000000" stroke-width="0.5" points="56.75,120.869 54.2476,119.689"/>
<polyline fill="none" stroke="#000000" stroke-width="0.5" points="107.518,129.403 106.646,123.344"/>
<polyline fill="none" stroke="#000000" stroke-width="0.5" points="336.97,155.905 331.53,160.571"/>
<text fill="#000000" style="stroke:none" x="36" y="120" transform="rotate(-0, 36, 120)" font-size="10" font-family="SansSerif" font-style="normal" font-weight="normal">1.6</text>
<polyline fill="none" stroke="#000000" stroke-width="0.5" points="56.75,117.688 52.5791,115.721"/>
<polyline fill="none" stroke="#000000" stroke-width="0.5" points="109.584,135.393 107.518,129.403"/>
<polyline fill="none" stroke="#000000" stroke-width="0.5" points="331.53,160.571 325.047,164.956"/>
<polyline fill="none" stroke="#000000" stroke-width="0.5" points="112.824,141.258 109.584,135.393"/>
<polyline fill="none" stroke="#000000" stroke-width="0.5" points="325.047,164.956 317.583,169.011"/>
<polyline fill="none" stroke="#000000" stroke-width="0.5" points="117.204,146.942 112.824,141.258"/>
<polyline fill="none" stroke="#000000" stroke-width="0.5" points="317.583,169.011 309.215,172.692"/>
<polyline fill="none" stroke="#000000" stroke-width="0.5" points="122.682,152.395 117.204,146.942"/>
<polyline fill="none" stroke="#000000" stroke-width="0.5" points="227,198.001 227,261.625"/>
<polyline fill="none" stroke="#000000" stroke-width="0.5" points="309.215,172.692 300.025,175.959"/>
<polyline fill="none" stroke="#000000" stroke-width="0.5" points="129.201,157.563 122.682,152.395"/>
<polyline fill="none" stroke="#000000" stroke-width="0.5" points="300.025,175.959 290.105,178.775"/>
<polyline fill="none" stroke="#000000" stroke-width="0.5" points="136.698,162.402 129.201,157.563"/>
<polyline fill="none" stroke="#000000" stroke-width="0.5" points="290.105,178.775 279.555,181.108"/>
<polyline fill="none" stroke="#000000" stroke-width="0.5" points="145.097,166.864 136.698,162.402"/>
<polyline fill="none" stroke="#000000" stroke-width="0.5" points="279.555,181.108 268.479,182.93"/>
<polyline fill="none" stroke="#000000" stroke-width="0.5" points="154.314,170.912 145.097,166.864"/>
<polyline fill="none" stroke="#000000" stroke-width="0.5" points="268.479,182.93 256.99,184.22"/>
<polyline fill="none" stroke="#000000" stroke-width="0.5" points="164.258,174.506 154.314,170.912"/>
<polyline fill="none" stroke="#000000" stroke-width="0.5" points="174.829,177.616 164.258,174.506"/>
<polyline fill="none" stroke="#000000" stroke-width="0.5" points="256.99,184.22 245.201,184.959"/>
<polyline fill="none" stroke="#000000" stroke-width="0.5" points="185.92,180.215 174.829,177.616"/>
<polyline fill="none" stroke="#000000" stroke-width="0.5" points="245.201,184.959 233.229,185.139"/>
<polyline fill="none" stroke="#000000" stroke-width="0.5" points="197.423,182.281 185.92,180.215"/>
<polyline fill="none" stroke="#000000" stroke-width="0.5" points="233.229,185.139 221.196,184.751"/>
<polyline fill="none" stroke="#000000" stroke-width="0.5" points="209.221,183.796 197.423,182.281"/>
<polyline fill="none" stroke="#000000" stroke-width="0.5" points="221.196,184.751 209.221,183.796"/>
<polyline fill="none" stroke="#000000" stroke-width="0.5" points="227,198.001 397.25,117.688"/>
<polyline fill="none" stroke="#000000" stroke-width="0.5" points="227,198.001 56.75,117.688"/>
<polygon fill="#ffffee" points="92.5,129.5 92.5,165.5 137.5,165.5"/>
<polygon fill="#ffffee" points="92.5,129.5 137.5,165.5 137.5,129.5"/>
<text fill="#000000" style="stroke:none" x="93" y="140" transform="rotate(0, 93, 140)" font-size="10" font-family="SansSerif" font-style="normal" font-weight="normal">X: 0.24</text>
<text fill="#000000" style="stroke:none" x="93" y="152" transform="rotate(0, 93, 152)" font-size="10" font-family="SansSerif" font-style="normal" font-weight="normal">Y: -0.97</text>
<text fill="#000000" style="stroke:none" x="93" y="164" transform="rotate(0, 93, 164)" font-size="10" font-family="SansSerif" font-style="normal" font-weight="normal">Z: 0.29</text>
<polyline fill="none" stroke="#bebebe" stroke-width="0.5" points="92.5,129.5 92.5,165.5 137.5,165.5 137.5,129.5 92.5,129.5"/>
<polygon fill="#ffffee" points="161.5,74.5 161.5,110.5 206.5,110.5"/>
<polygon fill="#ffffee" points="161.5,74.5 206.5,110.5 206.5,74.5"/>
<text fill="#000000" style="stroke:none" x="162" y="85" transform="rotate(0, 162, 85)" font-size="10" font-family="SansSerif" font-style="normal" font-weight="normal">X: -0.46</text>
<text fill="#000000" style="stroke:none" x="162" y="97" transform="rotate(0, 162, 97)" font-size="10" font-family="SansSerif" font-style="normal" font-weight="normal">Y: -0.89</text>
<text fill="#000000" style="stroke:none" x="162" y="109" transform="rotate(0, 162, 109)" font-size="10" font-family="SansSerif" font-style="normal" font-weight="normal">Z: 0.99</text>
<polyline fill="none" stroke="#bebebe" stroke-width="0.5" points="161.5,74.5 161.5,110.5 206.5,110.5 206.5,74.5 161.5,74.5"/>
</g>
</svg>
