<?xml version="1.0" encoding="UTF-8" standalone="no"?>
<svg xmlns="http://www.w3.org/2000/svg"
     xmlns:xlink="http://www.w3.org/1999/xlink"
     width="612px" height="86px" viewBox="0 0 612 86">
<title>Figure 0</title>
<desc>
Creator: GL2PS 1.3.2, (C) 1999-2006 Christophe Geuzaine (geuz@geuz.org)
For: Scilab
CreationDate: Thu Feb 19 14:13:08 2009
</desc>
<defs>
</defs>
<g>
<polygon fill="#ffffff" points="0,86 612,86 612,0"/>
<polygon fill="#ffffff" points="0,86 612,0 0,0"/>
<polygon fill="#ffffff" points="0,86 0,0 0,0"/>
<polygon fill="#ffffff" points="0,86 612,86 612,86"/>
<polygon fill="#ffffff" points="0,86 0,0 0,86"/>
<polygon fill="#ffffff" points="0,86 612,86 0,86"/>
<polygon fill="#000000" points="38.686,27.0337 38,27 38,34"/>
<polygon fill="#000000" points="38.686,27.0337 38,34 38,34"/>
<polygon fill="#000000" points="39.3657,27.1343 38.686,27.0337 38,34"/>
<polygon fill="#000000" points="39.3657,27.1343 38,34 38,34"/>
<polygon fill="#000000" points="40.0322,27.3013 39.3657,27.1343 38,34"/>
<polygon fill="#000000" points="40.0322,27.3013 38,34 38,34"/>
<polygon fill="#000000" points="40.6787,27.5327 40.0322,27.3013 38,34"/>
<polygon fill="#000000" points="40.6787,27.5327 38,34 38,34"/>
<polygon fill="#000000" points="41.2998,27.8267 40.6787,27.5327 38,34"/>
<polygon fill="#000000" points="41.2998,27.8267 38,34 38,34"/>
<polygon fill="#000000" points="41.8892,28.1797 41.2998,27.8267 38,34"/>
<polygon fill="#000000" points="41.8892,28.1797 38,34 38,34"/>
<polygon fill="#000000" points="42.4409,28.5889 41.8892,28.1797 38,34"/>
<polygon fill="#000000" points="42.4409,28.5889 38,34 38,34"/>
<polygon fill="#000000" points="42.9497,29.0503 42.4409,28.5889 38,34"/>
<polygon fill="#000000" points="42.9497,29.0503 38,34 38,34"/>
<polygon fill="#000000" points="43.4111,29.5591 42.9497,29.0503 38,34"/>
<polygon fill="#000000" points="43.4111,29.5591 38,34 38,34"/>
<polygon fill="#000000" points="43.8203,30.1108 43.4111,29.5591 38,34"/>
<polygon fill="#000000" points="43.8203,30.1108 38,34 38,34"/>
<polygon fill="#000000" points="44.1733,30.7002 43.8203,30.1108 38,34"/>
<polygon fill="#000000" points="44.1733,30.7002 38,34 38,34"/>
<polygon fill="#000000" points="44.4673,31.3213 44.1733,30.7002 38,34"/>
<polygon fill="#000000" points="44.4673,31.3213 38,34 38,34"/>
<polygon fill="#000000" points="44.6987,31.9678 44.4673,31.3213 38,34"/>
<polygon fill="#000000" points="44.6987,31.9678 38,34 38,34"/>
<polygon fill="#000000" points="44.8657,32.6343 44.6987,31.9678 38,34"/>
<polygon fill="#000000" points="44.8657,32.6343 38,34 38,34"/>
<polygon fill="#000000" points="44.9663,33.314 44.8657,32.6343 38,34"/>
<polygon fill="#000000" points="44.9663,33.314 38,34 38,34"/>
<polygon fill="#000000" points="45,34 44.9663,33.314 38,34"/>
<polygon fill="#000000" points="45,34 38,34 38,34"/>
<polygon fill="#000000" points="44.9663,34.686 45,34 38,34"/>
<polygon fill="#000000" points="44.9663,34.686 38,34 38,34"/>
<polygon fill="#000000" points="44.8657,35.3657 44.9663,34.686 38,34"/>
<polygon fill="#000000" points="44.8657,35.3657 38,34 38,34"/>
<polygon fill="#000000" points="44.6987,36.0322 44.8657,35.3657 38,34"/>
<polygon fill="#000000" points="44.6987,36.0322 38,34 38,34"/>
<polygon fill="#000000" points="44.4673,36.6787 44.6987,36.0322 38,34"/>
<polygon fill="#000000" points="44.4673,36.6787 38,34 38,34"/>
<polygon fill="#000000" points="44.1733,37.2998 44.4673,36.6787 38,34"/>
<polygon fill="#000000" points="44.1733,37.2998 38,34 38,34"/>
<polygon fill="#000000" points="43.8203,37.8892 44.1733,37.2998 38,34"/>
<polygon fill="#000000" points="43.8203,37.8892 38,34 38,34"/>
<polygon fill="#000000" points="43.4111,38.4409 43.8203,37.8892 38,34"/>
<polygon fill="#000000" points="43.4111,38.4409 38,34 38,34"/>
<polygon fill="#000000" points="42.9497,38.9497 43.4111,38.4409 38,34"/>
<polygon fill="#000000" points="42.9497,38.9497 38,34 38,34"/>
<polygon fill="#000000" points="42.4409,39.4111 42.9497,38.9497 38,34"/>
<polygon fill="#000000" points="42.4409,39.4111 38,34 38,34"/>
<polygon fill="#000000" points="41.8892,39.8203 42.4409,39.4111 38,34"/>
<polygon fill="#000000" points="41.8892,39.8203 38,34 38,34"/>
<polygon fill="#000000" points="41.2998,40.1733 41.8892,39.8203 38,34"/>
<polygon fill="#000000" points="41.2998,40.1733 38,34 38,34"/>
<polygon fill="#000000" points="40.6787,40.4673 41.2998,40.1733 38,34"/>
<polygon fill="#000000" points="40.6787,40.4673 38,34 38,34"/>
<polygon fill="#000000" points="40.0322,40.6987 40.6787,40.4673 38,34"/>
<polygon fill="#000000" points="40.0322,40.6987 38,34 38,34"/>
<polygon fill="#000000" points="39.3657,40.8657 40.0322,40.6987 38,34"/>
<polygon fill="#000000" points="39.3657,40.8657 38,34 38,34"/>
<polygon fill="#000000" points="38.686,40.9663 39.3657,40.8657 38,34"/>
<polygon fill="#000000" points="38.686,40.9663 38,34 38,34"/>
<polygon fill="#000000" points="38,41 38.686,40.9663 38,34"/>
<polygon fill="#000000" points="38,41 38,34 38,34"/>
<polygon fill="#000000" points="37.314,40.9663 38,41 38,34"/>
<polygon fill="#000000" points="37.314,40.9663 38,34 38,34"/>
<polygon fill="#000000" points="36.6343,40.8657 37.314,40.9663 38,34"/>
<polygon fill="#000000" points="36.6343,40.8657 38,34 38,34"/>
<polygon fill="#000000" points="35.9678,40.6987 36.6343,40.8657 38,34"/>
<polygon fill="#000000" points="35.9678,40.6987 38,34 38,34"/>
<polygon fill="#000000" points="35.3213,40.4673 35.9678,40.6987 38,34"/>
<polygon fill="#000000" points="35.3213,40.4673 38,34 38,34"/>
<polygon fill="#000000" points="34.7002,40.1733 35.3213,40.4673 38,34"/>
<polygon fill="#000000" points="34.7002,40.1733 38,34 38,34"/>
<polygon fill="#000000" points="34.1108,39.8203 34.7002,40.1733 38,34"/>
<polygon fill="#000000" points="34.1108,39.8203 38,34 38,34"/>
<polygon fill="#000000" points="33.5591,39.4111 34.1108,39.8203 38,34"/>
<polygon fill="#000000" points="33.5591,39.4111 38,34 38,34"/>
<polygon fill="#000000" points="33.0503,38.9497 33.5591,39.4111 38,34"/>
<polygon fill="#000000" points="33.0503,38.9497 38,34 38,34"/>
<polygon fill="#000000" points="32.5889,38.4409 33.0503,38.9497 38,34"/>
<polygon fill="#000000" points="32.5889,38.4409 38,34 38,34"/>
<polygon fill="#000000" points="32.1797,37.8892 32.5889,38.4409 38,34"/>
<polygon fill="#000000" points="32.1797,37.8892 38,34 38,34"/>
<polygon fill="#000000" points="31.8267,37.2998 32.1797,37.8892 38,34"/>
<polygon fill="#000000" points="31.8267,37.2998 38,34 38,34"/>
<polygon fill="#000000" points="31.5327,36.6787 31.8267,37.2998 38,34"/>
<polygon fill="#000000" points="31.5327,36.6787 38,34 38,34"/>
<polygon fill="#000000" points="31.3013,36.0322 31.5327,36.6787 38,34"/>
<polygon fill="#000000" points="31.3013,36.0322 38,34 38,34"/>
<polygon fill="#000000" points="31.1343,35.3657 31.3013,36.0322 38,34"/>
<polygon fill="#000000" points="31.1343,35.3657 38,34 38,34"/>
<polygon fill="#000000" points="31.0337,34.686 31.1343,35.3657 38,34"/>
<polygon fill="#000000" points="31.0337,34.686 38,34 38,34"/>
<polygon fill="#000000" points="31,34 31.0337,34.686 38,34"/>
<polygon fill="#000000" points="31,34 38,34 38,34"/>
<polygon fill="#000000" points="31.0337,33.314 31,34 38,34"/>
<polygon fill="#000000" points="31.0337,33.314 38,34 38,34"/>
<polygon fill="#000000" points="31.1343,32.6343 31.0337,33.314 38,34"/>
<polygon fill="#000000" points="31.1343,32.6343 38,34 38,34"/>
<polygon fill="#000000" points="31.3013,31.9678 31.1343,32.6343 38,34"/>
<polygon fill="#000000" points="31.3013,31.9678 38,34 38,34"/>
<polygon fill="#000000" points="31.5327,31.3213 31.3013,31.9678 38,34"/>
<polygon fill="#000000" points="31.5327,31.3213 38,34 38,34"/>
<polygon fill="#000000" points="31.8267,30.7002 31.5327,31.3213 38,34"/>
<polygon fill="#000000" points="31.8267,30.7002 38,34 38,34"/>
<polygon fill="#000000" points="32.1797,30.1108 31.8267,30.7002 38,34"/>
<polygon fill="#000000" points="32.1797,30.1108 38,34 38,34"/>
<polygon fill="#000000" points="32.5889,29.5591 32.1797,30.1108 38,34"/>
<polygon fill="#000000" points="32.5889,29.5591 38,34 38,34"/>
<polygon fill="#000000" points="33.0503,29.0503 32.5889,29.5591 38,34"/>
<polygon fill="#000000" points="33.0503,29.0503 38,34 38,34"/>
<polygon fill="#000000" points="33.5591,28.5889 33.0503,29.0503 38,34"/>
<polygon fill="#000000" points="33.5591,28.5889 38,34 38,34"/>
<polygon fill="#000000" points="34.1108,28.1797 33.5591,28.5889 38,34"/>
<polygon fill="#000000" points="34.1108,28.1797 38,34 38,34"/>
<polygon fill="#000000" points="34.7002,27.8267 34.1108,28.1797 38,34"/>
<polygon fill="#000000" points="34.7002,27.8267 38,34 38,34"/>
<polygon fill="#000000" points="35.3213,27.5327 34.7002,27.8267 38,34"/>
<polygon fill="#000000" points="35.3213,27.5327 38,34 38,34"/>
<polygon fill="#000000" points="35.9678,27.3013 35.3213,27.5327 38,34"/>
<polygon fill="#000000" points="35.9678,27.3013 38,34 38,34"/>
<polygon fill="#000000" points="36.6343,27.1343 35.9678,27.3013 38,34"/>
<polygon fill="#000000" points="36.6343,27.1343 38,34 38,34"/>
<polygon fill="#000000" points="37.314,27.0337 36.6343,27.1343 38,34"/>
<polygon fill="#000000" points="37.314,27.0337 38,34 38,34"/>
<polygon fill="#000000" points="38,27 37.314,27.0337 38,34"/>
<polygon fill="#000000" points="38,27 38,34 38,34"/>
<polygon fill="#ffffff" points="153.686,27.0337 153,27 153,34"/>
<polygon fill="#ffffff" points="153.686,27.0337 153,34 153,34"/>
<polygon fill="#ffffff" points="154.366,27.1343 153.686,27.0337 153,34"/>
<polygon fill="#ffffff" points="154.366,27.1343 153,34 153,34"/>
<polygon fill="#ffffff" points="155.032,27.3013 154.366,27.1343 153,34"/>
<polygon fill="#ffffff" points="155.032,27.3013 153,34 153,34"/>
<polygon fill="#ffffff" points="155.679,27.5327 155.032,27.3013 153,34"/>
<polygon fill="#ffffff" points="155.679,27.5327 153,34 153,34"/>
<polygon fill="#ffffff" points="156.3,27.8267 155.679,27.5327 153,34"/>
<polygon fill="#ffffff" points="156.3,27.8267 153,34 153,34"/>
<polygon fill="#ffffff" points="156.889,28.1797 156.3,27.8267 153,34"/>
<polygon fill="#ffffff" points="156.889,28.1797 153,34 153,34"/>
<polygon fill="#ffffff" points="157.441,28.5889 156.889,28.1797 153,34"/>
<polygon fill="#ffffff" points="157.441,28.5889 153,34 153,34"/>
<polygon fill="#ffffff" points="157.95,29.0503 157.441,28.5889 153,34"/>
<polygon fill="#ffffff" points="157.95,29.0503 153,34 153,34"/>
<polygon fill="#ffffff" points="158.411,29.5591 157.95,29.0503 153,34"/>
<polygon fill="#ffffff" points="158.411,29.5591 153,34 153,34"/>
<polygon fill="#ffffff" points="158.82,30.1108 158.411,29.5591 153,34"/>
<polygon fill="#ffffff" points="158.82,30.1108 153,34 153,34"/>
<polygon fill="#ffffff" points="159.173,30.7002 158.82,30.1108 153,34"/>
<polygon fill="#ffffff" points="159.173,30.7002 153,34 153,34"/>
<polygon fill="#ffffff" points="159.467,31.3213 159.173,30.7002 153,34"/>
<polygon fill="#ffffff" points="159.467,31.3213 153,34 153,34"/>
<polygon fill="#ffffff" points="159.699,31.9678 159.467,31.3213 153,34"/>
<polygon fill="#ffffff" points="159.699,31.9678 153,34 153,34"/>
<polygon fill="#ffffff" points="159.866,32.6343 159.699,31.9678 153,34"/>
<polygon fill="#ffffff" points="159.866,32.6343 153,34 153,34"/>
<polygon fill="#ffffff" points="159.966,33.314 159.866,32.6343 153,34"/>
<polygon fill="#ffffff" points="159.966,33.314 153,34 153,34"/>
<polygon fill="#ffffff" points="160,34 159.966,33.314 153,34"/>
<polygon fill="#ffffff" points="160,34 153,34 153,34"/>
<polygon fill="#ffffff" points="159.966,34.686 160,34 153,34"/>
<polygon fill="#ffffff" points="159.966,34.686 153,34 153,34"/>
<polygon fill="#ffffff" points="159.866,35.3657 159.966,34.686 153,34"/>
<polygon fill="#ffffff" points="159.866,35.3657 153,34 153,34"/>
<polygon fill="#ffffff" points="159.699,36.0322 159.866,35.3657 153,34"/>
<polygon fill="#ffffff" points="159.699,36.0322 153,34 153,34"/>
<polygon fill="#ffffff" points="159.467,36.6787 159.699,36.0322 153,34"/>
<polygon fill="#ffffff" points="159.467,36.6787 153,34 153,34"/>
<polygon fill="#ffffff" points="159.173,37.2998 159.467,36.6787 153,34"/>
<polygon fill="#ffffff" points="159.173,37.2998 153,34 153,34"/>
<polygon fill="#ffffff" points="158.82,37.8892 159.173,37.2998 153,34"/>
<polygon fill="#ffffff" points="158.82,37.8892 153,34 153,34"/>
<polygon fill="#ffffff" points="158.411,38.4409 158.82,37.8892 153,34"/>
<polygon fill="#ffffff" points="158.411,38.4409 153,34 153,34"/>
<polygon fill="#ffffff" points="157.95,38.9497 158.411,38.4409 153,34"/>
<polygon fill="#ffffff" points="157.95,38.9497 153,34 153,34"/>
<polygon fill="#ffffff" points="157.441,39.4111 157.95,38.9497 153,34"/>
<polygon fill="#ffffff" points="157.441,39.4111 153,34 153,34"/>
<polygon fill="#ffffff" points="156.889,39.8203 157.441,39.4111 153,34"/>
<polygon fill="#ffffff" points="156.889,39.8203 153,34 153,34"/>
<polygon fill="#ffffff" points="156.3,40.1733 156.889,39.8203 153,34"/>
<polygon fill="#ffffff" points="156.3,40.1733 153,34 153,34"/>
<polygon fill="#ffffff" points="155.679,40.4673 156.3,40.1733 153,34"/>
<polygon fill="#ffffff" points="155.679,40.4673 153,34 153,34"/>
<polygon fill="#ffffff" points="155.032,40.6987 155.679,40.4673 153,34"/>
<polygon fill="#ffffff" points="155.032,40.6987 153,34 153,34"/>
<polygon fill="#ffffff" points="154.366,40.8657 155.032,40.6987 153,34"/>
<polygon fill="#ffffff" points="154.366,40.8657 153,34 153,34"/>
<polygon fill="#ffffff" points="153.686,40.9663 154.366,40.8657 153,34"/>
<polygon fill="#ffffff" points="153.686,40.9663 153,34 153,34"/>
<polygon fill="#ffffff" points="153,41 153.686,40.9663 153,34"/>
<polygon fill="#ffffff" points="153,41 153,34 153,34"/>
<polygon fill="#ffffff" points="152.314,40.9663 153,41 153,34"/>
<polygon fill="#ffffff" points="152.314,40.9663 153,34 153,34"/>
<polygon fill="#ffffff" points="151.634,40.8657 152.314,40.9663 153,34"/>
<polygon fill="#ffffff" points="151.634,40.8657 153,34 153,34"/>
<polygon fill="#ffffff" points="150.968,40.6987 151.634,40.8657 153,34"/>
<polygon fill="#ffffff" points="150.968,40.6987 153,34 153,34"/>
<polygon fill="#ffffff" points="150.321,40.4673 150.968,40.6987 153,34"/>
<polygon fill="#ffffff" points="150.321,40.4673 153,34 153,34"/>
<polygon fill="#ffffff" points="149.7,40.1733 150.321,40.4673 153,34"/>
<polygon fill="#ffffff" points="149.7,40.1733 153,34 153,34"/>
<polygon fill="#ffffff" points="149.111,39.8203 149.7,40.1733 153,34"/>
<polygon fill="#ffffff" points="149.111,39.8203 153,34 153,34"/>
<polygon fill="#ffffff" points="148.559,39.4111 149.111,39.8203 153,34"/>
<polygon fill="#ffffff" points="148.559,39.4111 153,34 153,34"/>
<polygon fill="#ffffff" points="148.05,38.9497 148.559,39.4111 153,34"/>
<polygon fill="#ffffff" points="148.05,38.9497 153,34 153,34"/>
<polygon fill="#ffffff" points="147.589,38.4409 148.05,38.9497 153,34"/>
<polygon fill="#ffffff" points="147.589,38.4409 153,34 153,34"/>
<polygon fill="#ffffff" points="147.18,37.8892 147.589,38.4409 153,34"/>
<polygon fill="#ffffff" points="147.18,37.8892 153,34 153,34"/>
<polygon fill="#ffffff" points="146.827,37.2998 147.18,37.8892 153,34"/>
<polygon fill="#ffffff" points="146.827,37.2998 153,34 153,34"/>
<polygon fill="#ffffff" points="146.533,36.6787 146.827,37.2998 153,34"/>
<polygon fill="#ffffff" points="146.533,36.6787 153,34 153,34"/>
<polygon fill="#ffffff" points="146.301,36.0322 146.533,36.6787 153,34"/>
<polygon fill="#ffffff" points="146.301,36.0322 153,34 153,34"/>
<polygon fill="#ffffff" points="146.134,35.3657 146.301,36.0322 153,34"/>
<polygon fill="#ffffff" points="146.134,35.3657 153,34 153,34"/>
<polygon fill="#ffffff" points="146.034,34.686 146.134,35.3657 153,34"/>
<polygon fill="#ffffff" points="146.034,34.686 153,34 153,34"/>
<polygon fill="#ffffff" points="146,34 146.034,34.686 153,34"/>
<polygon fill="#ffffff" points="146,34 153,34 153,34"/>
<polygon fill="#ffffff" points="146.034,33.314 146,34 153,34"/>
<polygon fill="#ffffff" points="146.034,33.314 153,34 153,34"/>
<polygon fill="#ffffff" points="146.134,32.6343 146.034,33.314 153,34"/>
<polygon fill="#ffffff" points="146.134,32.6343 153,34 153,34"/>
<polygon fill="#ffffff" points="146.301,31.9678 146.134,32.6343 153,34"/>
<polygon fill="#ffffff" points="146.301,31.9678 153,34 153,34"/>
<polygon fill="#ffffff" points="146.533,31.3213 146.301,31.9678 153,34"/>
<polygon fill="#ffffff" points="146.533,31.3213 153,34 153,34"/>
<polygon fill="#ffffff" points="146.827,30.7002 146.533,31.3213 153,34"/>
<polygon fill="#ffffff" points="146.827,30.7002 153,34 153,34"/>
<polygon fill="#ffffff" points="147.18,30.1108 146.827,30.7002 153,34"/>
<polygon fill="#ffffff" points="147.18,30.1108 153,34 153,34"/>
<polygon fill="#ffffff" points="147.589,29.5591 147.18,30.1108 153,34"/>
<polygon fill="#ffffff" points="147.589,29.5591 153,34 153,34"/>
<polygon fill="#ffffff" points="148.05,29.0503 147.589,29.5591 153,34"/>
<polygon fill="#ffffff" points="148.05,29.0503 153,34 153,34"/>
<polygon fill="#ffffff" points="148.559,28.5889 148.05,29.0503 153,34"/>
<polygon fill="#ffffff" points="148.559,28.5889 153,34 153,34"/>
<polygon fill="#ffffff" points="149.111,28.1797 148.559,28.5889 153,34"/>
<polygon fill="#ffffff" points="149.111,28.1797 153,34 153,34"/>
<polygon fill="#ffffff" points="149.7,27.8267 149.111,28.1797 153,34"/>
<polygon fill="#ffffff" points="149.7,27.8267 153,34 153,34"/>
<polygon fill="#ffffff" points="150.321,27.5327 149.7,27.8267 153,34"/>
<polygon fill="#ffffff" points="150.321,27.5327 153,34 153,34"/>
<polygon fill="#ffffff" points="150.968,27.3013 150.321,27.5327 153,34"/>
<polygon fill="#ffffff" points="150.968,27.3013 153,34 153,34"/>
<polygon fill="#ffffff" points="151.634,27.1343 150.968,27.3013 153,34"/>
<polygon fill="#ffffff" points="151.634,27.1343 153,34 153,34"/>
<polygon fill="#ffffff" points="152.314,27.0337 151.634,27.1343 153,34"/>
<polygon fill="#ffffff" points="152.314,27.0337 153,34 153,34"/>
<polygon fill="#ffffff" points="153,27 152.314,27.0337 153,34"/>
<polygon fill="#ffffff" points="153,27 153,34 153,34"/>
<polygon fill="#000000" points="184,34 191,27 198,34"/>
<polygon fill="#000000" points="184,34 198,34 191,41"/>
<polygon fill="#ffffff" points="222,34 229,27 236,34"/>
<polygon fill="#ffffff" points="222,34 236,34 229,41"/>
<polygon fill="#ffffff" points="259.917,38.6665 268,24.6665 276.083,38.6665"/>
<polygon fill="#ffffff" points="314.083,29.3335 306,43.3335 297.917,29.3335"/>
<polygon fill="#ffffff" points="337,34 344,27 351,34"/>
<polygon fill="#ffffff" points="337,34 351,34 344,41"/>
<polygon fill="#ffffff" points="383.686,27.0337 383,27 383,34"/>
<polygon fill="#ffffff" points="383.686,27.0337 383,34 383,34"/>
<polygon fill="#ffffff" points="384.366,27.1343 383.686,27.0337 383,34"/>
<polygon fill="#ffffff" points="384.366,27.1343 383,34 383,34"/>
<polygon fill="#ffffff" points="385.032,27.3013 384.366,27.1343 383,34"/>
<polygon fill="#ffffff" points="385.032,27.3013 383,34 383,34"/>
<polygon fill="#ffffff" points="385.679,27.5327 385.032,27.3013 383,34"/>
<polygon fill="#ffffff" points="385.679,27.5327 383,34 383,34"/>
<polygon fill="#ffffff" points="386.3,27.8267 385.679,27.5327 383,34"/>
<polygon fill="#ffffff" points="386.3,27.8267 383,34 383,34"/>
<polygon fill="#ffffff" points="386.889,28.1797 386.3,27.8267 383,34"/>
<polygon fill="#ffffff" points="386.889,28.1797 383,34 383,34"/>
<polygon fill="#ffffff" points="387.441,28.5889 386.889,28.1797 383,34"/>
<polygon fill="#ffffff" points="387.441,28.5889 383,34 383,34"/>
<polygon fill="#ffffff" points="387.95,29.0503 387.441,28.5889 383,34"/>
<polygon fill="#ffffff" points="387.95,29.0503 383,34 383,34"/>
<polygon fill="#ffffff" points="388.411,29.5591 387.95,29.0503 383,34"/>
<polygon fill="#ffffff" points="388.411,29.5591 383,34 383,34"/>
<polygon fill="#ffffff" points="388.82,30.1108 388.411,29.5591 383,34"/>
<polygon fill="#ffffff" points="388.82,30.1108 383,34 383,34"/>
<polygon fill="#ffffff" points="389.173,30.7002 388.82,30.1108 383,34"/>
<polygon fill="#ffffff" points="389.173,30.7002 383,34 383,34"/>
<polygon fill="#ffffff" points="389.467,31.3213 389.173,30.7002 383,34"/>
<polygon fill="#ffffff" points="389.467,31.3213 383,34 383,34"/>
<polygon fill="#ffffff" points="389.699,31.9678 389.467,31.3213 383,34"/>
<polygon fill="#ffffff" points="389.699,31.9678 383,34 383,34"/>
<polygon fill="#ffffff" points="389.866,32.6343 389.699,31.9678 383,34"/>
<polygon fill="#ffffff" points="389.866,32.6343 383,34 383,34"/>
<polygon fill="#ffffff" points="389.966,33.314 389.866,32.6343 383,34"/>
<polygon fill="#ffffff" points="389.966,33.314 383,34 383,34"/>
<polygon fill="#ffffff" points="390,34 389.966,33.314 383,34"/>
<polygon fill="#ffffff" points="390,34 383,34 383,34"/>
<polygon fill="#ffffff" points="389.966,34.686 390,34 383,34"/>
<polygon fill="#ffffff" points="389.966,34.686 383,34 383,34"/>
<polygon fill="#ffffff" points="389.866,35.3657 389.966,34.686 383,34"/>
<polygon fill="#ffffff" points="389.866,35.3657 383,34 383,34"/>
<polygon fill="#ffffff" points="389.699,36.0322 389.866,35.3657 383,34"/>
<polygon fill="#ffffff" points="389.699,36.0322 383,34 383,34"/>
<polygon fill="#ffffff" points="389.467,36.6787 389.699,36.0322 383,34"/>
<polygon fill="#ffffff" points="389.467,36.6787 383,34 383,34"/>
<polygon fill="#ffffff" points="389.173,37.2998 389.467,36.6787 383,34"/>
<polygon fill="#ffffff" points="389.173,37.2998 383,34 383,34"/>
<polygon fill="#ffffff" points="388.82,37.8892 389.173,37.2998 383,34"/>
<polygon fill="#ffffff" points="388.82,37.8892 383,34 383,34"/>
<polygon fill="#ffffff" points="388.411,38.4409 388.82,37.8892 383,34"/>
<polygon fill="#ffffff" points="388.411,38.4409 383,34 383,34"/>
<polygon fill="#ffffff" points="387.95,38.9497 388.411,38.4409 383,34"/>
<polygon fill="#ffffff" points="387.95,38.9497 383,34 383,34"/>
<polygon fill="#ffffff" points="387.441,39.4111 387.95,38.9497 383,34"/>
<polygon fill="#ffffff" points="387.441,39.4111 383,34 383,34"/>
<polygon fill="#ffffff" points="386.889,39.8203 387.441,39.4111 383,34"/>
<polygon fill="#ffffff" points="386.889,39.8203 383,34 383,34"/>
<polygon fill="#ffffff" points="386.3,40.1733 386.889,39.8203 383,34"/>
<polygon fill="#ffffff" points="386.3,40.1733 383,34 383,34"/>
<polygon fill="#ffffff" points="385.679,40.4673 386.3,40.1733 383,34"/>
<polygon fill="#ffffff" points="385.679,40.4673 383,34 383,34"/>
<polygon fill="#ffffff" points="385.032,40.6987 385.679,40.4673 383,34"/>
<polygon fill="#ffffff" points="385.032,40.6987 383,34 383,34"/>
<polygon fill="#ffffff" points="384.366,40.8657 385.032,40.6987 383,34"/>
<polygon fill="#ffffff" points="384.366,40.8657 383,34 383,34"/>
<polygon fill="#ffffff" points="383.686,40.9663 384.366,40.8657 383,34"/>
<polygon fill="#ffffff" points="383.686,40.9663 383,34 383,34"/>
<polygon fill="#ffffff" points="383,41 383.686,40.9663 383,34"/>
<polygon fill="#ffffff" points="383,41 383,34 383,34"/>
<polygon fill="#ffffff" points="382.314,40.9663 383,41 383,34"/>
<polygon fill="#ffffff" points="382.314,40.9663 383,34 383,34"/>
<polygon fill="#ffffff" points="381.634,40.8657 382.314,40.9663 383,34"/>
<polygon fill="#ffffff" points="381.634,40.8657 383,34 383,34"/>
<polygon fill="#ffffff" points="380.968,40.6987 381.634,40.8657 383,34"/>
<polygon fill="#ffffff" points="380.968,40.6987 383,34 383,34"/>
<polygon fill="#ffffff" points="380.321,40.4673 380.968,40.6987 383,34"/>
<polygon fill="#ffffff" points="380.321,40.4673 383,34 383,34"/>
<polygon fill="#ffffff" points="379.7,40.1733 380.321,40.4673 383,34"/>
<polygon fill="#ffffff" points="379.7,40.1733 383,34 383,34"/>
<polygon fill="#ffffff" points="379.111,39.8203 379.7,40.1733 383,34"/>
<polygon fill="#ffffff" points="379.111,39.8203 383,34 383,34"/>
<polygon fill="#ffffff" points="378.559,39.4111 379.111,39.8203 383,34"/>
<polygon fill="#ffffff" points="378.559,39.4111 383,34 383,34"/>
<polygon fill="#ffffff" points="378.05,38.9497 378.559,39.4111 383,34"/>
<polygon fill="#ffffff" points="378.05,38.9497 383,34 383,34"/>
<polygon fill="#ffffff" points="377.589,38.4409 378.05,38.9497 383,34"/>
<polygon fill="#ffffff" points="377.589,38.4409 383,34 383,34"/>
<polygon fill="#ffffff" points="377.18,37.8892 377.589,38.4409 383,34"/>
<polygon fill="#ffffff" points="377.18,37.8892 383,34 383,34"/>
<polygon fill="#ffffff" points="376.827,37.2998 377.18,37.8892 383,34"/>
<polygon fill="#ffffff" points="376.827,37.2998 383,34 383,34"/>
<polygon fill="#ffffff" points="376.533,36.6787 376.827,37.2998 383,34"/>
<polygon fill="#ffffff" points="376.533,36.6787 383,34 383,34"/>
<polygon fill="#ffffff" points="376.301,36.0322 376.533,36.6787 383,34"/>
<polygon fill="#ffffff" points="376.301,36.0322 383,34 383,34"/>
<polygon fill="#ffffff" points="376.134,35.3657 376.301,36.0322 383,34"/>
<polygon fill="#ffffff" points="376.134,35.3657 383,34 383,34"/>
<polygon fill="#ffffff" points="376.034,34.686 376.134,35.3657 383,34"/>
<polygon fill="#ffffff" points="376.034,34.686 383,34 383,34"/>
<polygon fill="#ffffff" points="376,34 376.034,34.686 383,34"/>
<polygon fill="#ffffff" points="376,34 383,34 383,34"/>
<polygon fill="#ffffff" points="376.034,33.314 376,34 383,34"/>
<polygon fill="#ffffff" points="376.034,33.314 383,34 383,34"/>
<polygon fill="#ffffff" points="376.134,32.6343 376.034,33.314 383,34"/>
<polygon fill="#ffffff" points="376.134,32.6343 383,34 383,34"/>
<polygon fill="#ffffff" points="376.301,31.9678 376.134,32.6343 383,34"/>
<polygon fill="#ffffff" points="376.301,31.9678 383,34 383,34"/>
<polygon fill="#ffffff" points="376.533,31.3213 376.301,31.9678 383,34"/>
<polygon fill="#ffffff" points="376.533,31.3213 383,34 383,34"/>
<polygon fill="#ffffff" points="376.827,30.7002 376.533,31.3213 383,34"/>
<polygon fill="#ffffff" points="376.827,30.7002 383,34 383,34"/>
<polygon fill="#ffffff" points="377.18,30.1108 376.827,30.7002 383,34"/>
<polygon fill="#ffffff" points="377.18,30.1108 383,34 383,34"/>
<polygon fill="#ffffff" points="377.589,29.5591 377.18,30.1108 383,34"/>
<polygon fill="#ffffff" points="377.589,29.5591 383,34 383,34"/>
<polygon fill="#ffffff" points="378.05,29.0503 377.589,29.5591 383,34"/>
<polygon fill="#ffffff" points="378.05,29.0503 383,34 383,34"/>
<polygon fill="#ffffff" points="378.559,28.5889 378.05,29.0503 383,34"/>
<polygon fill="#ffffff" points="378.559,28.5889 383,34 383,34"/>
<polygon fill="#ffffff" points="379.111,28.1797 378.559,28.5889 383,34"/>
<polygon fill="#ffffff" points="379.111,28.1797 383,34 383,34"/>
<polygon fill="#ffffff" points="379.7,27.8267 379.111,28.1797 383,34"/>
<polygon fill="#ffffff" points="379.7,27.8267 383,34 383,34"/>
<polygon fill="#ffffff" points="380.321,27.5327 379.7,27.8267 383,34"/>
<polygon fill="#ffffff" points="380.321,27.5327 383,34 383,34"/>
<polygon fill="#ffffff" points="380.968,27.3013 380.321,27.5327 383,34"/>
<polygon fill="#ffffff" points="380.968,27.3013 383,34 383,34"/>
<polygon fill="#ffffff" points="381.634,27.1343 380.968,27.3013 383,34"/>
<polygon fill="#ffffff" points="381.634,27.1343 383,34 383,34"/>
<polygon fill="#ffffff" points="382.314,27.0337 381.634,27.1343 383,34"/>
<polygon fill="#ffffff" points="382.314,27.0337 383,34 383,34"/>
<polygon fill="#ffffff" points="383,27 382.314,27.0337 383,34"/>
<polygon fill="#ffffff" points="383,27 383,34 383,34"/>
<polygon fill="#ffffff" points="452,27 452,41 466,41"/>
<polygon fill="#ffffff" points="452,27 466,41 466,27"/>
<polygon fill="#ffffff" points="492.333,25.917 506.333,34 492.333,42.083"/>
<polygon fill="#ffffff" points="540.667,42.083 526.667,34 540.667,25.917"/>
<polygon fill="#ffffff" points="577.051,34.9917 574,25.6001 569.062,40.7959"/>
<polygon fill="#ffffff" points="578.938,40.7959 574,25.6001 570.949,34.9917"/>
<polygon fill="#ffffff" points="581.989,31.4043 566.011,31.4043 574,37.2085"/>
<polygon fill="#0000ff" points="38.686,53.0337 38,53 38,60"/>
<polygon fill="#0000ff" points="38.686,53.0337 38,60 38,60"/>
<polygon fill="#0000ff" points="39.3657,53.1343 38.686,53.0337 38,60"/>
<polygon fill="#0000ff" points="39.3657,53.1343 38,60 38,60"/>
<polygon fill="#0000ff" points="40.0322,53.3013 39.3657,53.1343 38,60"/>
<polygon fill="#0000ff" points="40.0322,53.3013 38,60 38,60"/>
<polygon fill="#0000ff" points="40.6787,53.5327 40.0322,53.3013 38,60"/>
<polygon fill="#0000ff" points="40.6787,53.5327 38,60 38,60"/>
<polygon fill="#0000ff" points="41.2998,53.8267 40.6787,53.5327 38,60"/>
<polygon fill="#0000ff" points="41.2998,53.8267 38,60 38,60"/>
<polygon fill="#0000ff" points="41.8892,54.1797 41.2998,53.8267 38,60"/>
<polygon fill="#0000ff" points="41.8892,54.1797 38,60 38,60"/>
<polygon fill="#0000ff" points="42.4409,54.5889 41.8892,54.1797 38,60"/>
<polygon fill="#0000ff" points="42.4409,54.5889 38,60 38,60"/>
<polygon fill="#0000ff" points="42.9497,55.0503 42.4409,54.5889 38,60"/>
<polygon fill="#0000ff" points="42.9497,55.0503 38,60 38,60"/>
<polygon fill="#0000ff" points="43.4111,55.5591 42.9497,55.0503 38,60"/>
<polygon fill="#0000ff" points="43.4111,55.5591 38,60 38,60"/>
<polygon fill="#0000ff" points="43.8203,56.1108 43.4111,55.5591 38,60"/>
<polygon fill="#0000ff" points="43.8203,56.1108 38,60 38,60"/>
<polygon fill="#0000ff" points="44.1733,56.7002 43.8203,56.1108 38,60"/>
<polygon fill="#0000ff" points="44.1733,56.7002 38,60 38,60"/>
<polygon fill="#0000ff" points="44.4673,57.3213 44.1733,56.7002 38,60"/>
<polygon fill="#0000ff" points="44.4673,57.3213 38,60 38,60"/>
<polygon fill="#0000ff" points="44.6987,57.9678 44.4673,57.3213 38,60"/>
<polygon fill="#0000ff" points="44.6987,57.9678 38,60 38,60"/>
<polygon fill="#0000ff" points="44.8657,58.6343 44.6987,57.9678 38,60"/>
<polygon fill="#0000ff" points="44.8657,58.6343 38,60 38,60"/>
<polygon fill="#0000ff" points="44.9663,59.314 44.8657,58.6343 38,60"/>
<polygon fill="#0000ff" points="44.9663,59.314 38,60 38,60"/>
<polygon fill="#0000ff" points="45,60 44.9663,59.314 38,60"/>
<polygon fill="#0000ff" points="45,60 38,60 38,60"/>
<polygon fill="#0000ff" points="44.9663,60.686 45,60 38,60"/>
<polygon fill="#0000ff" points="44.9663,60.686 38,60 38,60"/>
<polygon fill="#0000ff" points="44.8657,61.3657 44.9663,60.686 38,60"/>
<polygon fill="#0000ff" points="44.8657,61.3657 38,60 38,60"/>
<polygon fill="#0000ff" points="44.6987,62.0322 44.8657,61.3657 38,60"/>
<polygon fill="#0000ff" points="44.6987,62.0322 38,60 38,60"/>
<polygon fill="#0000ff" points="44.4673,62.6787 44.6987,62.0322 38,60"/>
<polygon fill="#0000ff" points="44.4673,62.6787 38,60 38,60"/>
<polygon fill="#0000ff" points="44.1733,63.2998 44.4673,62.6787 38,60"/>
<polygon fill="#0000ff" points="44.1733,63.2998 38,60 38,60"/>
<polygon fill="#0000ff" points="43.8203,63.8892 44.1733,63.2998 38,60"/>
<polygon fill="#0000ff" points="43.8203,63.8892 38,60 38,60"/>
<polygon fill="#0000ff" points="43.4111,64.4409 43.8203,63.8892 38,60"/>
<polygon fill="#0000ff" points="43.4111,64.4409 38,60 38,60"/>
<polygon fill="#0000ff" points="42.9497,64.9497 43.4111,64.4409 38,60"/>
<polygon fill="#0000ff" points="42.9497,64.9497 38,60 38,60"/>
<polygon fill="#0000ff" points="42.4409,65.4111 42.9497,64.9497 38,60"/>
<polygon fill="#0000ff" points="42.4409,65.4111 38,60 38,60"/>
<polygon fill="#0000ff" points="41.8892,65.8203 42.4409,65.4111 38,60"/>
<polygon fill="#0000ff" points="41.8892,65.8203 38,60 38,60"/>
<polygon fill="#0000ff" points="41.2998,66.1733 41.8892,65.8203 38,60"/>
<polygon fill="#0000ff" points="41.2998,66.1733 38,60 38,60"/>
<polygon fill="#0000ff" points="40.6787,66.4673 41.2998,66.1733 38,60"/>
<polygon fill="#0000ff" points="40.6787,66.4673 38,60 38,60"/>
<polygon fill="#0000ff" points="40.0322,66.6987 40.6787,66.4673 38,60"/>
<polygon fill="#0000ff" points="40.0322,66.6987 38,60 38,60"/>
<polygon fill="#0000ff" points="39.3657,66.8657 40.0322,66.6987 38,60"/>
<polygon fill="#0000ff" points="39.3657,66.8657 38,60 38,60"/>
<polygon fill="#0000ff" points="38.686,66.9663 39.3657,66.8657 38,60"/>
<polygon fill="#0000ff" points="38.686,66.9663 38,60 38,60"/>
<polygon fill="#0000ff" points="38,67 38.686,66.9663 38,60"/>
<polygon fill="#0000ff" points="38,67 38,60 38,60"/>
<polygon fill="#0000ff" points="37.314,66.9663 38,67 38,60"/>
<polygon fill="#0000ff" points="37.314,66.9663 38,60 38,60"/>
<polygon fill="#0000ff" points="36.6343,66.8657 37.314,66.9663 38,60"/>
<polygon fill="#0000ff" points="36.6343,66.8657 38,60 38,60"/>
<polygon fill="#0000ff" points="35.9678,66.6987 36.6343,66.8657 38,60"/>
<polygon fill="#0000ff" points="35.9678,66.6987 38,60 38,60"/>
<polygon fill="#0000ff" points="35.3213,66.4673 35.9678,66.6987 38,60"/>
<polygon fill="#0000ff" points="35.3213,66.4673 38,60 38,60"/>
<polygon fill="#0000ff" points="34.7002,66.1733 35.3213,66.4673 38,60"/>
<polygon fill="#0000ff" points="34.7002,66.1733 38,60 38,60"/>
<polygon fill="#0000ff" points="34.1108,65.8203 34.7002,66.1733 38,60"/>
<polygon fill="#0000ff" points="34.1108,65.8203 38,60 38,60"/>
<polygon fill="#0000ff" points="33.5591,65.4111 34.1108,65.8203 38,60"/>
<polygon fill="#0000ff" points="33.5591,65.4111 38,60 38,60"/>
<polygon fill="#0000ff" points="33.0503,64.9497 33.5591,65.4111 38,60"/>
<polygon fill="#0000ff" points="33.0503,64.9497 38,60 38,60"/>
<polygon fill="#0000ff" points="32.5889,64.4409 33.0503,64.9497 38,60"/>
<polygon fill="#0000ff" points="32.5889,64.4409 38,60 38,60"/>
<polygon fill="#0000ff" points="32.1797,63.8892 32.5889,64.4409 38,60"/>
<polygon fill="#0000ff" points="32.1797,63.8892 38,60 38,60"/>
<polygon fill="#0000ff" points="31.8267,63.2998 32.1797,63.8892 38,60"/>
<polygon fill="#0000ff" points="31.8267,63.2998 38,60 38,60"/>
<polygon fill="#0000ff" points="31.5327,62.6787 31.8267,63.2998 38,60"/>
<polygon fill="#0000ff" points="31.5327,62.6787 38,60 38,60"/>
<polygon fill="#0000ff" points="31.3013,62.0322 31.5327,62.6787 38,60"/>
<polygon fill="#0000ff" points="31.3013,62.0322 38,60 38,60"/>
<polygon fill="#0000ff" points="31.1343,61.3657 31.3013,62.0322 38,60"/>
<polygon fill="#0000ff" points="31.1343,61.3657 38,60 38,60"/>
<polygon fill="#0000ff" points="31.0337,60.686 31.1343,61.3657 38,60"/>
<polygon fill="#0000ff" points="31.0337,60.686 38,60 38,60"/>
<polygon fill="#0000ff" points="31,60 31.0337,60.686 38,60"/>
<polygon fill="#0000ff" points="31,60 38,60 38,60"/>
<polygon fill="#0000ff" points="31.0337,59.314 31,60 38,60"/>
<polygon fill="#0000ff" points="31.0337,59.314 38,60 38,60"/>
<polygon fill="#0000ff" points="31.1343,58.6343 31.0337,59.314 38,60"/>
<polygon fill="#0000ff" points="31.1343,58.6343 38,60 38,60"/>
<polygon fill="#0000ff" points="31.3013,57.9678 31.1343,58.6343 38,60"/>
<polygon fill="#0000ff" points="31.3013,57.9678 38,60 38,60"/>
<polygon fill="#0000ff" points="31.5327,57.3213 31.3013,57.9678 38,60"/>
<polygon fill="#0000ff" points="31.5327,57.3213 38,60 38,60"/>
<polygon fill="#0000ff" points="31.8267,56.7002 31.5327,57.3213 38,60"/>
<polygon fill="#0000ff" points="31.8267,56.7002 38,60 38,60"/>
<polygon fill="#0000ff" points="32.1797,56.1108 31.8267,56.7002 38,60"/>
<polygon fill="#0000ff" points="32.1797,56.1108 38,60 38,60"/>
<polygon fill="#0000ff" points="32.5889,55.5591 32.1797,56.1108 38,60"/>
<polygon fill="#0000ff" points="32.5889,55.5591 38,60 38,60"/>
<polygon fill="#0000ff" points="33.0503,55.0503 32.5889,55.5591 38,60"/>
<polygon fill="#0000ff" points="33.0503,55.0503 38,60 38,60"/>
<polygon fill="#0000ff" points="33.5591,54.5889 33.0503,55.0503 38,60"/>
<polygon fill="#0000ff" points="33.5591,54.5889 38,60 38,60"/>
<polygon fill="#0000ff" points="34.1108,54.1797 33.5591,54.5889 38,60"/>
<polygon fill="#0000ff" points="34.1108,54.1797 38,60 38,60"/>
<polygon fill="#0000ff" points="34.7002,53.8267 34.1108,54.1797 38,60"/>
<polygon fill="#0000ff" points="34.7002,53.8267 38,60 38,60"/>
<polygon fill="#0000ff" points="35.3213,53.5327 34.7002,53.8267 38,60"/>
<polygon fill="#0000ff" points="35.3213,53.5327 38,60 38,60"/>
<polygon fill="#0000ff" points="35.9678,53.3013 35.3213,53.5327 38,60"/>
<polygon fill="#0000ff" points="35.9678,53.3013 38,60 38,60"/>
<polygon fill="#0000ff" points="36.6343,53.1343 35.9678,53.3013 38,60"/>
<polygon fill="#0000ff" points="36.6343,53.1343 38,60 38,60"/>
<polygon fill="#0000ff" points="37.314,53.0337 36.6343,53.1343 38,60"/>
<polygon fill="#0000ff" points="37.314,53.0337 38,60 38,60"/>
<polygon fill="#0000ff" points="38,53 37.314,53.0337 38,60"/>
<polygon fill="#0000ff" points="38,53 38,60 38,60"/>
<polygon fill="#ffd700" points="153.686,53.0337 153,53 153,60"/>
<polygon fill="#ffd700" points="153.686,53.0337 153,60 153,60"/>
<polygon fill="#ffd700" points="154.366,53.1343 153.686,53.0337 153,60"/>
<polygon fill="#ffd700" points="154.366,53.1343 153,60 153,60"/>
<polygon fill="#ffd700" points="155.032,53.3013 154.366,53.1343 153,60"/>
<polygon fill="#ffd700" points="155.032,53.3013 153,60 153,60"/>
<polygon fill="#ffd700" points="155.679,53.5327 155.032,53.3013 153,60"/>
<polygon fill="#ffd700" points="155.679,53.5327 153,60 153,60"/>
<polygon fill="#ffd700" points="156.3,53.8267 155.679,53.5327 153,60"/>
<polygon fill="#ffd700" points="156.3,53.8267 153,60 153,60"/>
<polygon fill="#ffd700" points="156.889,54.1797 156.3,53.8267 153,60"/>
<polygon fill="#ffd700" points="156.889,54.1797 153,60 153,60"/>
<polygon fill="#ffd700" points="157.441,54.5889 156.889,54.1797 153,60"/>
<polygon fill="#ffd700" points="157.441,54.5889 153,60 153,60"/>
<polygon fill="#ffd700" points="157.95,55.0503 157.441,54.5889 153,60"/>
<polygon fill="#ffd700" points="157.95,55.0503 153,60 153,60"/>
<polygon fill="#ffd700" points="158.411,55.5591 157.95,55.0503 153,60"/>
<polygon fill="#ffd700" points="158.411,55.5591 153,60 153,60"/>
<polygon fill="#ffd700" points="158.82,56.1108 158.411,55.5591 153,60"/>
<polygon fill="#ffd700" points="158.82,56.1108 153,60 153,60"/>
<polygon fill="#ffd700" points="159.173,56.7002 158.82,56.1108 153,60"/>
<polygon fill="#ffd700" points="159.173,56.7002 153,60 153,60"/>
<polygon fill="#ffd700" points="159.467,57.3213 159.173,56.7002 153,60"/>
<polygon fill="#ffd700" points="159.467,57.3213 153,60 153,60"/>
<polygon fill="#ffd700" points="159.699,57.9678 159.467,57.3213 153,60"/>
<polygon fill="#ffd700" points="159.699,57.9678 153,60 153,60"/>
<polygon fill="#ffd700" points="159.866,58.6343 159.699,57.9678 153,60"/>
<polygon fill="#ffd700" points="159.866,58.6343 153,60 153,60"/>
<polygon fill="#ffd700" points="159.966,59.314 159.866,58.6343 153,60"/>
<polygon fill="#ffd700" points="159.966,59.314 153,60 153,60"/>
<polygon fill="#ffd700" points="160,60 159.966,59.314 153,60"/>
<polygon fill="#ffd700" points="160,60 153,60 153,60"/>
<polygon fill="#ffd700" points="159.966,60.686 160,60 153,60"/>
<polygon fill="#ffd700" points="159.966,60.686 153,60 153,60"/>
<polygon fill="#ffd700" points="159.866,61.3657 159.966,60.686 153,60"/>
<polygon fill="#ffd700" points="159.866,61.3657 153,60 153,60"/>
<polygon fill="#ffd700" points="159.699,62.0322 159.866,61.3657 153,60"/>
<polygon fill="#ffd700" points="159.699,62.0322 153,60 153,60"/>
<polygon fill="#ffd700" points="159.467,62.6787 159.699,62.0322 153,60"/>
<polygon fill="#ffd700" points="159.467,62.6787 153,60 153,60"/>
<polygon fill="#ffd700" points="159.173,63.2998 159.467,62.6787 153,60"/>
<polygon fill="#ffd700" points="159.173,63.2998 153,60 153,60"/>
<polygon fill="#ffd700" points="158.82,63.8892 159.173,63.2998 153,60"/>
<polygon fill="#ffd700" points="158.82,63.8892 153,60 153,60"/>
<polygon fill="#ffd700" points="158.411,64.4409 158.82,63.8892 153,60"/>
<polygon fill="#ffd700" points="158.411,64.4409 153,60 153,60"/>
<polygon fill="#ffd700" points="157.95,64.9497 158.411,64.4409 153,60"/>
<polygon fill="#ffd700" points="157.95,64.9497 153,60 153,60"/>
<polygon fill="#ffd700" points="157.441,65.4111 157.95,64.9497 153,60"/>
<polygon fill="#ffd700" points="157.441,65.4111 153,60 153,60"/>
<polygon fill="#ffd700" points="156.889,65.8203 157.441,65.4111 153,60"/>
<polygon fill="#ffd700" points="156.889,65.8203 153,60 153,60"/>
<polygon fill="#ffd700" points="156.3,66.1733 156.889,65.8203 153,60"/>
<polygon fill="#ffd700" points="156.3,66.1733 153,60 153,60"/>
<polygon fill="#ffd700" points="155.679,66.4673 156.3,66.1733 153,60"/>
<polygon fill="#ffd700" points="155.679,66.4673 153,60 153,60"/>
<polygon fill="#ffd700" points="155.032,66.6987 155.679,66.4673 153,60"/>
<polygon fill="#ffd700" points="155.032,66.6987 153,60 153,60"/>
<polygon fill="#ffd700" points="154.366,66.8657 155.032,66.6987 153,60"/>
<polygon fill="#ffd700" points="154.366,66.8657 153,60 153,60"/>
<polygon fill="#ffd700" points="153.686,66.9663 154.366,66.8657 153,60"/>
<polygon fill="#ffd700" points="153.686,66.9663 153,60 153,60"/>
<polygon fill="#ffd700" points="153,67 153.686,66.9663 153,60"/>
<polygon fill="#ffd700" points="153,67 153,60 153,60"/>
<polygon fill="#ffd700" points="152.314,66.9663 153,67 153,60"/>
<polygon fill="#ffd700" points="152.314,66.9663 153,60 153,60"/>
<polygon fill="#ffd700" points="151.634,66.8657 152.314,66.9663 153,60"/>
<polygon fill="#ffd700" points="151.634,66.8657 153,60 153,60"/>
<polygon fill="#ffd700" points="150.968,66.6987 151.634,66.8657 153,60"/>
<polygon fill="#ffd700" points="150.968,66.6987 153,60 153,60"/>
<polygon fill="#ffd700" points="150.321,66.4673 150.968,66.6987 153,60"/>
<polygon fill="#ffd700" points="150.321,66.4673 153,60 153,60"/>
<polygon fill="#ffd700" points="149.7,66.1733 150.321,66.4673 153,60"/>
<polygon fill="#ffd700" points="149.7,66.1733 153,60 153,60"/>
<polygon fill="#ffd700" points="149.111,65.8203 149.7,66.1733 153,60"/>
<polygon fill="#ffd700" points="149.111,65.8203 153,60 153,60"/>
<polygon fill="#ffd700" points="148.559,65.4111 149.111,65.8203 153,60"/>
<polygon fill="#ffd700" points="148.559,65.4111 153,60 153,60"/>
<polygon fill="#ffd700" points="148.05,64.9497 148.559,65.4111 153,60"/>
<polygon fill="#ffd700" points="148.05,64.9497 153,60 153,60"/>
<polygon fill="#ffd700" points="147.589,64.4409 148.05,64.9497 153,60"/>
<polygon fill="#ffd700" points="147.589,64.4409 153,60 153,60"/>
<polygon fill="#ffd700" points="147.18,63.8892 147.589,64.4409 153,60"/>
<polygon fill="#ffd700" points="147.18,63.8892 153,60 153,60"/>
<polygon fill="#ffd700" points="146.827,63.2998 147.18,63.8892 153,60"/>
<polygon fill="#ffd700" points="146.827,63.2998 153,60 153,60"/>
<polygon fill="#ffd700" points="146.533,62.6787 146.827,63.2998 153,60"/>
<polygon fill="#ffd700" points="146.533,62.6787 153,60 153,60"/>
<polygon fill="#ffd700" points="146.301,62.0322 146.533,62.6787 153,60"/>
<polygon fill="#ffd700" points="146.301,62.0322 153,60 153,60"/>
<polygon fill="#ffd700" points="146.134,61.3657 146.301,62.0322 153,60"/>
<polygon fill="#ffd700" points="146.134,61.3657 153,60 153,60"/>
<polygon fill="#ffd700" points="146.034,60.686 146.134,61.3657 153,60"/>
<polygon fill="#ffd700" points="146.034,60.686 153,60 153,60"/>
<polygon fill="#ffd700" points="146,60 146.034,60.686 153,60"/>
<polygon fill="#ffd700" points="146,60 153,60 153,60"/>
<polygon fill="#ffd700" points="146.034,59.314 146,60 153,60"/>
<polygon fill="#ffd700" points="146.034,59.314 153,60 153,60"/>
<polygon fill="#ffd700" points="146.134,58.6343 146.034,59.314 153,60"/>
<polygon fill="#ffd700" points="146.134,58.6343 153,60 153,60"/>
<polygon fill="#ffd700" points="146.301,57.9678 146.134,58.6343 153,60"/>
<polygon fill="#ffd700" points="146.301,57.9678 153,60 153,60"/>
<polygon fill="#ffd700" points="146.533,57.3213 146.301,57.9678 153,60"/>
<polygon fill="#ffd700" points="146.533,57.3213 153,60 153,60"/>
<polygon fill="#ffd700" points="146.827,56.7002 146.533,57.3213 153,60"/>
<polygon fill="#ffd700" points="146.827,56.7002 153,60 153,60"/>
<polygon fill="#ffd700" points="147.18,56.1108 146.827,56.7002 153,60"/>
<polygon fill="#ffd700" points="147.18,56.1108 153,60 153,60"/>
<polygon fill="#ffd700" points="147.589,55.5591 147.18,56.1108 153,60"/>
<polygon fill="#ffd700" points="147.589,55.5591 153,60 153,60"/>
<polygon fill="#ffd700" points="148.05,55.0503 147.589,55.5591 153,60"/>
<polygon fill="#ffd700" points="148.05,55.0503 153,60 153,60"/>
<polygon fill="#ffd700" points="148.559,54.5889 148.05,55.0503 153,60"/>
<polygon fill="#ffd700" points="148.559,54.5889 153,60 153,60"/>
<polygon fill="#ffd700" points="149.111,54.1797 148.559,54.5889 153,60"/>
<polygon fill="#ffd700" points="149.111,54.1797 153,60 153,60"/>
<polygon fill="#ffd700" points="149.7,53.8267 149.111,54.1797 153,60"/>
<polygon fill="#ffd700" points="149.7,53.8267 153,60 153,60"/>
<polygon fill="#ffd700" points="150.321,53.5327 149.7,53.8267 153,60"/>
<polygon fill="#ffd700" points="150.321,53.5327 153,60 153,60"/>
<polygon fill="#ffd700" points="150.968,53.3013 150.321,53.5327 153,60"/>
<polygon fill="#ffd700" points="150.968,53.3013 153,60 153,60"/>
<polygon fill="#ffd700" points="151.634,53.1343 150.968,53.3013 153,60"/>
<polygon fill="#ffd700" points="151.634,53.1343 153,60 153,60"/>
<polygon fill="#ffd700" points="152.314,53.0337 151.634,53.1343 153,60"/>
<polygon fill="#ffd700" points="152.314,53.0337 153,60 153,60"/>
<polygon fill="#ffd700" points="153,53 152.314,53.0337 153,60"/>
<polygon fill="#ffd700" points="153,53 153,60 153,60"/>
<polygon fill="#0000ff" points="184,60 191,53 198,60"/>
<polygon fill="#0000ff" points="184,60 198,60 191,67"/>
<polygon fill="#ffd700" points="222,60 229,53 236,60"/>
<polygon fill="#ffd700" points="222,60 236,60 229,67"/>
<polygon fill="#ffd700" points="259.917,64.6665 268,50.6665 276.083,64.6665"/>
<polygon fill="#ffd700" points="314.083,55.3335 306,69.3335 297.917,55.3335"/>
<polygon fill="#ffd700" points="337,60 344,53 351,60"/>
<polygon fill="#ffd700" points="337,60 351,60 344,67"/>
<polygon fill="#ffd700" points="383.686,53.0337 383,53 383,60"/>
<polygon fill="#ffd700" points="383.686,53.0337 383,60 383,60"/>
<polygon fill="#ffd700" points="384.366,53.1343 383.686,53.0337 383,60"/>
<polygon fill="#ffd700" points="384.366,53.1343 383,60 383,60"/>
<polygon fill="#ffd700" points="385.032,53.3013 384.366,53.1343 383,60"/>
<polygon fill="#ffd700" points="385.032,53.3013 383,60 383,60"/>
<polygon fill="#ffd700" points="385.679,53.5327 385.032,53.3013 383,60"/>
<polygon fill="#ffd700" points="385.679,53.5327 383,60 383,60"/>
<polygon fill="#ffd700" points="386.3,53.8267 385.679,53.5327 383,60"/>
<polygon fill="#ffd700" points="386.3,53.8267 383,60 383,60"/>
<polygon fill="#ffd700" points="386.889,54.1797 386.3,53.8267 383,60"/>
<polygon fill="#ffd700" points="386.889,54.1797 383,60 383,60"/>
<polygon fill="#ffd700" points="387.441,54.5889 386.889,54.1797 383,60"/>
<polygon fill="#ffd700" points="387.441,54.5889 383,60 383,60"/>
<polygon fill="#ffd700" points="387.95,55.0503 387.441,54.5889 383,60"/>
<polygon fill="#ffd700" points="387.95,55.0503 383,60 383,60"/>
<polygon fill="#ffd700" points="388.411,55.5591 387.95,55.0503 383,60"/>
<polygon fill="#ffd700" points="388.411,55.5591 383,60 383,60"/>
<polygon fill="#ffd700" points="388.82,56.1108 388.411,55.5591 383,60"/>
<polygon fill="#ffd700" points="388.82,56.1108 383,60 383,60"/>
<polygon fill="#ffd700" points="389.173,56.7002 388.82,56.1108 383,60"/>
<polygon fill="#ffd700" points="389.173,56.7002 383,60 383,60"/>
<polygon fill="#ffd700" points="389.467,57.3213 389.173,56.7002 383,60"/>
<polygon fill="#ffd700" points="389.467,57.3213 383,60 383,60"/>
<polygon fill="#ffd700" points="389.699,57.9678 389.467,57.3213 383,60"/>
<polygon fill="#ffd700" points="389.699,57.9678 383,60 383,60"/>
<polygon fill="#ffd700" points="389.866,58.6343 389.699,57.9678 383,60"/>
<polygon fill="#ffd700" points="389.866,58.6343 383,60 383,60"/>
<polygon fill="#ffd700" points="389.966,59.314 389.866,58.6343 383,60"/>
<polygon fill="#ffd700" points="389.966,59.314 383,60 383,60"/>
<polygon fill="#ffd700" points="390,60 389.966,59.314 383,60"/>
<polygon fill="#ffd700" points="390,60 383,60 383,60"/>
<polygon fill="#ffd700" points="389.966,60.686 390,60 383,60"/>
<polygon fill="#ffd700" points="389.966,60.686 383,60 383,60"/>
<polygon fill="#ffd700" points="389.866,61.3657 389.966,60.686 383,60"/>
<polygon fill="#ffd700" points="389.866,61.3657 383,60 383,60"/>
<polygon fill="#ffd700" points="389.699,62.0322 389.866,61.3657 383,60"/>
<polygon fill="#ffd700" points="389.699,62.0322 383,60 383,60"/>
<polygon fill="#ffd700" points="389.467,62.6787 389.699,62.0322 383,60"/>
<polygon fill="#ffd700" points="389.467,62.6787 383,60 383,60"/>
<polygon fill="#ffd700" points="389.173,63.2998 389.467,62.6787 383,60"/>
<polygon fill="#ffd700" points="389.173,63.2998 383,60 383,60"/>
<polygon fill="#ffd700" points="388.82,63.8892 389.173,63.2998 383,60"/>
<polygon fill="#ffd700" points="388.82,63.8892 383,60 383,60"/>
<polygon fill="#ffd700" points="388.411,64.4409 388.82,63.8892 383,60"/>
<polygon fill="#ffd700" points="388.411,64.4409 383,60 383,60"/>
<polygon fill="#ffd700" points="387.95,64.9497 388.411,64.4409 383,60"/>
<polygon fill="#ffd700" points="387.95,64.9497 383,60 383,60"/>
<polygon fill="#ffd700" points="387.441,65.4111 387.95,64.9497 383,60"/>
<polygon fill="#ffd700" points="387.441,65.4111 383,60 383,60"/>
<polygon fill="#ffd700" points="386.889,65.8203 387.441,65.4111 383,60"/>
<polygon fill="#ffd700" points="386.889,65.8203 383,60 383,60"/>
<polygon fill="#ffd700" points="386.3,66.1733 386.889,65.8203 383,60"/>
<polygon fill="#ffd700" points="386.3,66.1733 383,60 383,60"/>
<polygon fill="#ffd700" points="385.679,66.4673 386.3,66.1733 383,60"/>
<polygon fill="#ffd700" points="385.679,66.4673 383,60 383,60"/>
<polygon fill="#ffd700" points="385.032,66.6987 385.679,66.4673 383,60"/>
<polygon fill="#ffd700" points="385.032,66.6987 383,60 383,60"/>
<polygon fill="#ffd700" points="384.366,66.8657 385.032,66.6987 383,60"/>
<polygon fill="#ffd700" points="384.366,66.8657 383,60 383,60"/>
<polygon fill="#ffd700" points="383.686,66.9663 384.366,66.8657 383,60"/>
<polygon fill="#ffd700" points="383.686,66.9663 383,60 383,60"/>
<polygon fill="#ffd700" points="383,67 383.686,66.9663 383,60"/>
<polygon fill="#ffd700" points="383,67 383,60 383,60"/>
<polygon fill="#ffd700" points="382.314,66.9663 383,67 383,60"/>
<polygon fill="#ffd700" points="382.314,66.9663 383,60 383,60"/>
<polygon fill="#ffd700" points="381.634,66.8657 382.314,66.9663 383,60"/>
<polygon fill="#ffd700" points="381.634,66.8657 383,60 383,60"/>
<polygon fill="#ffd700" points="380.968,66.6987 381.634,66.8657 383,60"/>
<polygon fill="#ffd700" points="380.968,66.6987 383,60 383,60"/>
<polygon fill="#ffd700" points="380.321,66.4673 380.968,66.6987 383,60"/>
<polygon fill="#ffd700" points="380.321,66.4673 383,60 383,60"/>
<polygon fill="#ffd700" points="379.7,66.1733 380.321,66.4673 383,60"/>
<polygon fill="#ffd700" points="379.7,66.1733 383,60 383,60"/>
<polygon fill="#ffd700" points="379.111,65.8203 379.7,66.1733 383,60"/>
<polygon fill="#ffd700" points="379.111,65.8203 383,60 383,60"/>
<polygon fill="#ffd700" points="378.559,65.4111 379.111,65.8203 383,60"/>
<polygon fill="#ffd700" points="378.559,65.4111 383,60 383,60"/>
<polygon fill="#ffd700" points="378.05,64.9497 378.559,65.4111 383,60"/>
<polygon fill="#ffd700" points="378.05,64.9497 383,60 383,60"/>
<polygon fill="#ffd700" points="377.589,64.4409 378.05,64.9497 383,60"/>
<polygon fill="#ffd700" points="377.589,64.4409 383,60 383,60"/>
<polygon fill="#ffd700" points="377.18,63.8892 377.589,64.4409 383,60"/>
<polygon fill="#ffd700" points="377.18,63.8892 383,60 383,60"/>
<polygon fill="#ffd700" points="376.827,63.2998 377.18,63.8892 383,60"/>
<polygon fill="#ffd700" points="376.827,63.2998 383,60 383,60"/>
<polygon fill="#ffd700" points="376.533,62.6787 376.827,63.2998 383,60"/>
<polygon fill="#ffd700" points="376.533,62.6787 383,60 383,60"/>
<polygon fill="#ffd700" points="376.301,62.0322 376.533,62.6787 383,60"/>
<polygon fill="#ffd700" points="376.301,62.0322 383,60 383,60"/>
<polygon fill="#ffd700" points="376.134,61.3657 376.301,62.0322 383,60"/>
<polygon fill="#ffd700" points="376.134,61.3657 383,60 383,60"/>
<polygon fill="#ffd700" points="376.034,60.686 376.134,61.3657 383,60"/>
<polygon fill="#ffd700" points="376.034,60.686 383,60 383,60"/>
<polygon fill="#ffd700" points="376,60 376.034,60.686 383,60"/>
<polygon fill="#ffd700" points="376,60 383,60 383,60"/>
<polygon fill="#ffd700" points="376.034,59.314 376,60 383,60"/>
<polygon fill="#ffd700" points="376.034,59.314 383,60 383,60"/>
<polygon fill="#ffd700" points="376.134,58.6343 376.034,59.314 383,60"/>
<polygon fill="#ffd700" points="376.134,58.6343 383,60 383,60"/>
<polygon fill="#ffd700" points="376.301,57.9678 376.134,58.6343 383,60"/>
<polygon fill="#ffd700" points="376.301,57.9678 383,60 383,60"/>
<polygon fill="#ffd700" points="376.533,57.3213 376.301,57.9678 383,60"/>
<polygon fill="#ffd700" points="376.533,57.3213 383,60 383,60"/>
<polygon fill="#ffd700" points="376.827,56.7002 376.533,57.3213 383,60"/>
<polygon fill="#ffd700" points="376.827,56.7002 383,60 383,60"/>
<polygon fill="#ffd700" points="377.18,56.1108 376.827,56.7002 383,60"/>
<polygon fill="#ffd700" points="377.18,56.1108 383,60 383,60"/>
<polygon fill="#ffd700" points="377.589,55.5591 377.18,56.1108 383,60"/>
<polygon fill="#ffd700" points="377.589,55.5591 383,60 383,60"/>
<polygon fill="#ffd700" points="378.05,55.0503 377.589,55.5591 383,60"/>
<polygon fill="#ffd700" points="378.05,55.0503 383,60 383,60"/>
<polygon fill="#ffd700" points="378.559,54.5889 378.05,55.0503 383,60"/>
<polygon fill="#ffd700" points="378.559,54.5889 383,60 383,60"/>
<polygon fill="#ffd700" points="379.111,54.1797 378.559,54.5889 383,60"/>
<polygon fill="#ffd700" points="379.111,54.1797 383,60 383,60"/>
<polygon fill="#ffd700" points="379.7,53.8267 379.111,54.1797 383,60"/>
<polygon fill="#ffd700" points="379.7,53.8267 383,60 383,60"/>
<polygon fill="#ffd700" points="380.321,53.5327 379.7,53.8267 383,60"/>
<polygon fill="#ffd700" points="380.321,53.5327 383,60 383,60"/>
<polygon fill="#ffd700" points="380.968,53.3013 380.321,53.5327 383,60"/>
<polygon fill="#ffd700" points="380.968,53.3013 383,60 383,60"/>
<polygon fill="#ffd700" points="381.634,53.1343 380.968,53.3013 383,60"/>
<polygon fill="#ffd700" points="381.634,53.1343 383,60 383,60"/>
<polygon fill="#ffd700" points="382.314,53.0337 381.634,53.1343 383,60"/>
<polygon fill="#ffd700" points="382.314,53.0337 383,60 383,60"/>
<polygon fill="#ffd700" points="383,53 382.314,53.0337 383,60"/>
<polygon fill="#ffd700" points="383,53 383,60 383,60"/>
<polygon fill="#ffd700" points="452,53 452,67 466,67"/>
<polygon fill="#ffd700" points="452,53 466,67 466,53"/>
<polygon fill="#ffd700" points="492.333,51.917 506.333,60 492.333,68.083"/>
<polygon fill="#ffd700" points="540.667,68.083 526.667,60 540.667,51.917"/>
<polygon fill="#ffd700" points="577.051,60.9917 574,51.6001 569.062,66.7959"/>
<polygon fill="#ffd700" points="578.938,66.7959 574,51.6001 570.949,60.9917"/>
<polygon fill="#ffd700" points="581.989,57.4043 566.011,57.4043 574,63.2085"/>
<text fill="#000000" x="35" y="20" font-size="10" font-family="SansSerif">0</text>
<text fill="#000000" x="74" y="20" font-size="10" font-family="SansSerif">1</text>
<text fill="#000000" x="112" y="20" font-size="10" font-family="SansSerif">2</text>
<text fill="#000000" x="150" y="20" font-size="10" font-family="SansSerif">3</text>
<text fill="#000000" x="188" y="20" font-size="10" font-family="SansSerif">4</text>
<text fill="#000000" x="227" y="20" font-size="10" font-family="SansSerif">5</text>
<text fill="#000000" x="265" y="20" font-size="10" font-family="SansSerif">6</text>
<text fill="#000000" x="304" y="20" font-size="10" font-family="SansSerif">7</text>
<text fill="#000000" x="342" y="20" font-size="10" font-family="SansSerif">8</text>
<text fill="#000000" x="380" y="20" font-size="10" font-family="SansSerif">9</text>
<text fill="#000000" x="415" y="20" font-size="10" font-family="SansSerif">10</text>
<text fill="#000000" x="455" y="20" font-size="10" font-family="SansSerif">11</text>
<text fill="#000000" x="493" y="20" font-size="10" font-family="SansSerif">12</text>
<text fill="#000000" x="531" y="20" font-size="10" font-family="SansSerif">13</text>
<text fill="#000000" x="568" y="20" font-size="10" font-family="SansSerif">14</text>
<polyline fill="none" stroke="#000000" stroke-width="1" points="69,34 83,34"/>
<polyline fill="none" stroke="#000000" stroke-width="1" points="76,41 76,27"/>
<polyline fill="none" stroke="#000000" stroke-width="1" points="108,27 122,41"/>
<polyline fill="none" stroke="#000000" stroke-width="1" points="108,41 122,27"/>
<polyline fill="none" stroke="#000000" stroke-width="1" points="160,34 159.966,33.314 159.866,32.6343 159.699,31.9678 159.467,31.3213 159.173,30.7002 158.82,30.1108 158.411,29.5591 157.95,29.0503 157.441,28.5889 156.889,28.1797 156.3,27.8267 155.679,27.5327 155.032,27.3013 154.366,27.1343 153.686,27.0337 153,27 152.314,27.0337 151.634,27.1343 150.968,27.3013 150.321,27.5327 149.7,27.8267 149.111,28.1797 148.559,28.5889 148.05,29.0503 147.589,29.5591 147.18,30.1108 146.827,30.7002 146.533,31.3213 146.301,31.9678 146.134,32.6343 146.034,33.314 146,34 146.034,34.686 146.134,35.3657 146.301,36.0322 146.533,36.6787 146.827,37.2998 147.18,37.8892 147.589,38.4409 148.05,38.9497 148.559,39.4111 149.111,39.8203 149.7,40.1733 150.321,40.4673 150.968,40.6987 151.634,40.8657 152.314,40.9663 153,41 153.686,40.9663 154.366,40.8657 155.032,40.6987 155.679,40.4673 156.3,40.1733 156.889,39.8203 157.441,39.4111 157.95,38.9497 158.411,38.4409 158.82,37.8892 159.173,37.2998 159.467,36.6787 159.699,36.0322 159.866,35.3657 159.966,34.686 160,34"/>
<polyline fill="none" stroke="#000000" stroke-width="1" points="146,34 160,34"/>
<polyline fill="none" stroke="#000000" stroke-width="1" points="153,41 153,27"/>
<polyline fill="none" stroke="#000000" stroke-width="1" points="222,34 229,27 236,34 229,41 222,34"/>
<polyline fill="none" stroke="#000000" stroke-width="1" points="268,24.6665 276.083,38.6665 259.917,38.6665 268,24.6665"/>
<polyline fill="none" stroke="#000000" stroke-width="1" points="306,43.3335 297.917,29.3335 314.083,29.3335 306,43.3335"/>
<polyline fill="none" stroke="#000000" stroke-width="1" points="337,34 344,27 351,34 344,41 337,34 351,34"/>
<polyline fill="none" stroke="#000000" stroke-width="1" points="344,41 344,27"/>
<polyline fill="none" stroke="#000000" stroke-width="1" points="390,34 389.966,33.314 389.866,32.6343 389.699,31.9678 389.467,31.3213 389.173,30.7002 388.82,30.1108 388.411,29.5591 387.95,29.0503 387.441,28.5889 386.889,28.1797 386.3,27.8267 385.679,27.5327 385.032,27.3013 384.366,27.1343 383.686,27.0337 383,27 382.314,27.0337 381.634,27.1343 380.968,27.3013 380.321,27.5327 379.7,27.8267 379.111,28.1797 378.559,28.5889 378.05,29.0503 377.589,29.5591 377.18,30.1108 376.827,30.7002 376.533,31.3213 376.301,31.9678 376.134,32.6343 376.034,33.314 376,34 376.034,34.686 376.134,35.3657 376.301,36.0322 376.533,36.6787 376.827,37.2998 377.18,37.8892 377.589,38.4409 378.05,38.9497 378.559,39.4111 379.111,39.8203 379.7,40.1733 380.321,40.4673 380.968,40.6987 381.634,40.8657 382.314,40.9663 383,41 383.686,40.9663 384.366,40.8657 385.032,40.6987 385.679,40.4673 386.3,40.1733 386.889,39.8203 387.441,39.4111 387.95,38.9497 388.411,38.4409 388.82,37.8892 389.173,37.2998 389.467,36.6787 389.699,36.0322 389.866,35.3657 389.966,34.686 390,34"/>
<polyline fill="none" stroke="#000000" stroke-width="1" points="414,34 428,34"/>
<polyline fill="none" stroke="#000000" stroke-width="1" points="421,41 421,27"/>
<polyline fill="none" stroke="#000000" stroke-width="1" points="416.05,29.0503 425.95,38.9497"/>
<polyline fill="none" stroke="#000000" stroke-width="1" points="416.05,38.9497 425.95,29.0503"/>
<polyline fill="none" stroke="#000000" stroke-width="1" points="452,27 452,41 466,41 466,27 452,27"/>
<polyline fill="none" stroke="#000000" stroke-width="1" points="506.333,34 492.333,42.083 492.333,25.917 506.333,34"/>
<polyline fill="none" stroke="#000000" stroke-width="1" points="526.667,34 540.667,25.917 540.667,42.083 526.667,34"/>
<polyline fill="none" stroke="#000000" stroke-width="1" points="574,25.6001 572.114,31.4043 566.011,31.4043 570.949,34.9917 569.062,40.7959 574,37.2085 578.938,40.7959 577.051,34.9917 581.989,31.4043 575.886,31.4043 574,25.6001"/>
<polyline fill="none" stroke="#0000ff" stroke-width="1" points="69,60 83,60"/>
<polyline fill="none" stroke="#0000ff" stroke-width="1" points="76,67 76,53"/>
<polyline fill="none" stroke="#0000ff" stroke-width="1" points="108,53 122,67"/>
<polyline fill="none" stroke="#0000ff" stroke-width="1" points="108,67 122,53"/>
<polyline fill="none" stroke="#0000ff" stroke-width="1" points="160,60 159.966,59.314 159.866,58.6343 159.699,57.9678 159.467,57.3213 159.173,56.7002 158.82,56.1108 158.411,55.5591 157.95,55.0503 157.441,54.5889 156.889,54.1797 156.3,53.8267 155.679,53.5327 155.032,53.3013 154.366,53.1343 153.686,53.0337 153,53 152.314,53.0337 151.634,53.1343 150.968,53.3013 150.321,53.5327 149.7,53.8267 149.111,54.1797 148.559,54.5889 148.05,55.0503 147.589,55.5591 147.18,56.1108 146.827,56.7002 146.533,57.3213 146.301,57.9678 146.134,58.6343 146.034,59.314 146,60 146.034,60.686 146.134,61.3657 146.301,62.0322 146.533,62.6787 146.827,63.2998 147.18,63.8892 147.589,64.4409 148.05,64.9497 148.559,65.4111 149.111,65.8203 149.7,66.1733 150.321,66.4673 150.968,66.6987 151.634,66.8657 152.314,66.9663 153,67 153.686,66.9663 154.366,66.8657 155.032,66.6987 155.679,66.4673 156.3,66.1733 156.889,65.8203 157.441,65.4111 157.95,64.9497 158.411,64.4409 158.82,63.8892 159.173,63.2998 159.467,62.6787 159.699,62.0322 159.866,61.3657 159.966,60.686 160,60"/>
<polyline fill="none" stroke="#0000ff" stroke-width="1" points="146,60 160,60"/>
<polyline fill="none" stroke="#0000ff" stroke-width="1" points="153,67 153,53"/>
<polyline fill="none" stroke="#0000ff" stroke-width="1" points="222,60 229,53 236,60 229,67 222,60"/>
<polyline fill="none" stroke="#0000ff" stroke-width="1" points="268,50.6665 276.083,64.6665 259.917,64.6665 268,50.6665"/>
<polyline fill="none" stroke="#0000ff" stroke-width="1" points="306,69.3335 297.917,55.3335 314.083,55.3335 306,69.3335"/>
<polyline fill="none" stroke="#0000ff" stroke-width="1" points="337,60 344,53 351,60 344,67 337,60 351,60"/>
<polyline fill="none" stroke="#0000ff" stroke-width="1" points="344,67 344,53"/>
<polyline fill="none" stroke="#0000ff" stroke-width="1" points="390,60 389.966,59.314 389.866,58.6343 389.699,57.9678 389.467,57.3213 389.173,56.7002 388.82,56.1108 388.411,55.5591 387.95,55.0503 387.441,54.5889 386.889,54.1797 386.3,53.8267 385.679,53.5327 385.032,53.3013 384.366,53.1343 383.686,53.0337 383,53 382.314,53.0337 381.634,53.1343 380.968,53.3013 380.321,53.5327 379.7,53.8267 379.111,54.1797 378.559,54.5889 378.05,55.0503 377.589,55.5591 377.18,56.1108 376.827,56.7002 376.533,57.3213 376.301,57.9678 376.134,58.6343 376.034,59.314 376,60 376.034,60.686 376.134,61.3657 376.301,62.0322 376.533,62.6787 376.827,63.2998 377.18,63.8892 377.589,64.4409 378.05,64.9497 378.559,65.4111 379.111,65.8203 379.7,66.1733 380.321,66.4673 380.968,66.6987 381.634,66.8657 382.314,66.9663 383,67 383.686,66.9663 384.366,66.8657 385.032,66.6987 385.679,66.4673 386.3,66.1733 386.889,65.8203 387.441,65.4111 387.95,64.9497 388.411,64.4409 388.82,63.8892 389.173,63.2998 389.467,62.6787 389.699,62.0322 389.866,61.3657 389.966,60.686 390,60"/>
<polyline fill="none" stroke="#0000ff" stroke-width="1" points="414,60 428,60"/>
<polyline fill="none" stroke="#0000ff" stroke-width="1" points="421,67 421,53"/>
<polyline fill="none" stroke="#0000ff" stroke-width="1" points="416.05,55.0503 425.95,64.9497"/>
<polyline fill="none" stroke="#0000ff" stroke-width="1" points="416.05,64.9497 425.95,55.0503"/>
<polyline fill="none" stroke="#0000ff" stroke-width="1" points="452,53 452,67 466,67 466,53 452,53"/>
<polyline fill="none" stroke="#0000ff" stroke-width="1" points="506.333,60 492.333,68.083 492.333,51.917 506.333,60"/>
<polyline fill="none" stroke="#0000ff" stroke-width="1" points="526.667,60 540.667,51.917 540.667,68.083 526.667,60"/>
<polyline fill="none" stroke="#0000ff" stroke-width="1" points="574,51.6001 572.114,57.4043 566.011,57.4043 570.949,60.9917 569.062,66.7959 574,63.2085 578.938,66.7959 577.051,60.9917 581.989,57.4043 575.886,57.4043 574,51.6001"/>
</g>
</svg>
