<?xml version="1.0" encoding="UTF-8" standalone="no"?>
<svg xmlns="http://www.w3.org/2000/svg"
     xmlns:xlink="http://www.w3.org/1999/xlink"
     width="612px" height="461px" viewBox="0 0 612 461"
     style="stroke:none">
<title>Graphic window number 0</title>
<desc>
Creator: GL2PS 1.3.2, (C) 1999-2006 Christophe Geuzaine (geuz@geuz.org)
For: Scilab
CreationDate: Tue Apr 20 10:28:58 2010
</desc>
<defs>
</defs>
<polygon fill="#ffffff" points="0,0 612,0 612,461 0,461"/>
<g>
<polyline fill="none" stroke="#000000" stroke-width="0.5" points="113.917,403.375 113.917,57.625 113.917,57.625 498.083,57.625 498.083,403.375 498.083,403.375 113.917,403.375"/>
<polyline fill="none" stroke="#000000" stroke-width="0.5" points="498.083,57.625 113.917,57.625"/>
<polyline fill="none" stroke="#000000" stroke-width="0.5" points="498.083,57.625 498.083,403.375"/>
<polyline fill="none" stroke="#000000" stroke-width="0.5" points="498.083,57.625 498.083,57.625"/>
<polygon fill="#ffffff" points="113.917,403.375 113.917,57.625 113.917,57.625"/>
<polygon fill="#ffffff" points="113.917,403.375 113.917,57.625 113.917,403.375"/>
<polygon fill="#ffffff" points="113.917,403.375 498.083,403.375 498.083,403.375"/>
<polygon fill="#ffffff" points="113.917,403.375 498.083,403.375 113.917,403.375"/>
<polygon fill="#ffffff" points="113.917,403.375 498.083,403.375 498.083,57.625"/>
<polygon fill="#ffffff" points="113.917,403.375 498.083,57.625 113.917,57.625"/>
<polyline fill="none" stroke="#0000ff" stroke-width="0.5" points="113.917,249.708 127.164,249.677 140.411,249.457 153.658,248.858 166.905,247.692 180.152,245.771 193.399,242.905 206.646,238.908 219.894,233.598 233.141,226.797 246.388,218.346 259.635,208.11 272.882,195.997 286.129,181.984 299.376,166.152 312.624,148.732 325.871,130.16 339.118,111.146 352.365,92.7422 365.612,76.4033 378.859,64.0186 392.106,57.8838 405.354,60.5776 418.601,74.6885 431.848,102.357 445.095,144.609 458.342,200.517 471.589,266.319 484.836,334.763 498.083,395.078"/>
<polyline fill="none" stroke="#0000ff" stroke-width="0.5" points="379,130 387,138"/>
<polyline fill="none" stroke="#0000ff" stroke-width="0.5" points="379,138 387,130"/>
<polyline fill="none" stroke="#ff0000" stroke-width="0.5" points="335,111 343,111"/>
<polyline fill="none" stroke="#ff0000" stroke-width="0.5" points="339,115 339,107"/>
<polyline fill="none" stroke="#ff0000" stroke-width="0.5" points="348,93 356,93"/>
<polyline fill="none" stroke="#ff0000" stroke-width="0.5" points="352,97 352,89"/>
<polygon fill="#000000" points="352.967,108.589 342.984,105.774 348.822,114.348"/>
<polyline fill="none" stroke="#000000" stroke-width="0.5" points="382.833,134.458 342.984,105.774"/>
<polyline fill="none" stroke="#0000ff" stroke-width="0.5" points="398,361 406,369"/>
<polyline fill="none" stroke="#0000ff" stroke-width="0.5" points="398,369 406,361"/>
<polyline fill="none" stroke="#ff0000" stroke-width="0.5" points="481,335 489,335"/>
<polyline fill="none" stroke="#ff0000" stroke-width="0.5" points="485,339 485,331"/>
<polyline fill="none" stroke="#ff0000" stroke-width="0.5" points="494,395 498.087,395"/>
<polyline fill="none" stroke="#ff0000" stroke-width="0.5" points="498,399 498,391"/>
<polygon fill="#000000" points="478.594,351.777 487.353,346.221 477.072,344.847"/>
<polyline fill="none" stroke="#000000" stroke-width="0.5" points="402.042,364.958 487.353,346.221"/>
<polyline fill="none" stroke="#000000" stroke-width="0.5" points="113.917,403.375 113.917,57.625"/>
<polyline fill="none" stroke="#000000" stroke-width="0.5" points="113.917,403.375 107.032,403.375"/>
<polyline fill="none" stroke="#000000" stroke-width="0.5" points="113.917,364.958 107.032,364.958"/>
<polyline fill="none" stroke="#000000" stroke-width="0.5" points="113.917,326.542 107.032,326.542"/>
<polyline fill="none" stroke="#000000" stroke-width="0.5" points="113.917,288.125 107.032,288.125"/>
<polyline fill="none" stroke="#000000" stroke-width="0.5" points="113.917,249.708 107.032,249.708"/>
<polyline fill="none" stroke="#000000" stroke-width="0.5" points="113.917,211.292 107.032,211.292"/>
<polyline fill="none" stroke="#000000" stroke-width="0.5" points="113.917,172.875 107.032,172.875"/>
<polyline fill="none" stroke="#000000" stroke-width="0.5" points="113.917,134.458 107.032,134.458"/>
<polyline fill="none" stroke="#000000" stroke-width="0.5" points="113.917,96.0415 107.032,96.0415"/>
<polyline fill="none" stroke="#000000" stroke-width="0.5" points="113.917,57.625 107.032,57.625"/>
<polyline fill="none" stroke="#000000" stroke-width="0.5" points="113.917,384.167 109.786,384.167"/>
<polyline fill="none" stroke="#000000" stroke-width="0.5" points="113.917,345.75 109.786,345.75"/>
<polyline fill="none" stroke="#000000" stroke-width="0.5" points="113.917,307.333 109.786,307.333"/>
<polyline fill="none" stroke="#000000" stroke-width="0.5" points="113.917,268.917 109.786,268.917"/>
<polyline fill="none" stroke="#000000" stroke-width="0.5" points="113.917,230.5 109.786,230.5"/>
<polyline fill="none" stroke="#000000" stroke-width="0.5" points="113.917,192.083 109.786,192.083"/>
<polyline fill="none" stroke="#000000" stroke-width="0.5" points="113.917,153.667 109.786,153.667"/>
<polyline fill="none" stroke="#000000" stroke-width="0.5" points="113.917,115.25 109.786,115.25"/>
<polyline fill="none" stroke="#000000" stroke-width="0.5" points="113.917,76.8335 109.786,76.8335"/>
<text fill="#000000" style="stroke:none" x="83" y="408" transform="rotate(-0, 83, 408)" font-size="10" font-family="SansSerif" font-style="normal" font-weight="normal">-0.4</text>
<text fill="#000000" style="stroke:none" x="83" y="370" transform="rotate(-0, 83, 370)" font-size="10" font-family="SansSerif" font-style="normal" font-weight="normal">-0.3</text>
<text fill="#000000" style="stroke:none" x="83" y="332" transform="rotate(-0, 83, 332)" font-size="10" font-family="SansSerif" font-style="normal" font-weight="normal">-0.2</text>
<text fill="#000000" style="stroke:none" x="83" y="293" transform="rotate(-0, 83, 293)" font-size="10" font-family="SansSerif" font-style="normal" font-weight="normal">-0.1</text>
<text fill="#000000" style="stroke:none" x="88" y="255" transform="rotate(-0, 88, 255)" font-size="10" font-family="SansSerif" font-style="normal" font-weight="normal">0.0</text>
<text fill="#000000" style="stroke:none" x="89" y="216" transform="rotate(-0, 89, 216)" font-size="10" font-family="SansSerif" font-style="normal" font-weight="normal">0.1</text>
<text fill="#000000" style="stroke:none" x="89" y="178" transform="rotate(-0, 89, 178)" font-size="10" font-family="SansSerif" font-style="normal" font-weight="normal">0.2</text>
<text fill="#000000" style="stroke:none" x="89" y="139" transform="rotate(-0, 89, 139)" font-size="10" font-family="SansSerif" font-style="normal" font-weight="normal">0.3</text>
<text fill="#000000" style="stroke:none" x="89" y="101" transform="rotate(-0, 89, 101)" font-size="10" font-family="SansSerif" font-style="normal" font-weight="normal">0.4</text>
<text fill="#000000" style="stroke:none" x="89" y="63" transform="rotate(-0, 89, 63)" font-size="10" font-family="SansSerif" font-style="normal" font-weight="normal">0.5</text>
<polyline fill="none" stroke="#000000" stroke-width="0.5" points="113.917,403.375 498.083,403.375"/>
<polyline fill="none" stroke="#000000" stroke-width="0.5" points="113.917,403.375 113.917,408.55"/>
<polyline fill="none" stroke="#000000" stroke-width="0.5" points="152.333,403.375 152.333,408.55"/>
<polyline fill="none" stroke="#000000" stroke-width="0.5" points="190.75,403.375 190.75,408.55"/>
<polyline fill="none" stroke="#000000" stroke-width="0.5" points="229.167,403.375 229.167,408.55"/>
<polyline fill="none" stroke="#000000" stroke-width="0.5" points="267.583,403.375 267.583,408.55"/>
<polyline fill="none" stroke="#000000" stroke-width="0.5" points="306,403.375 306,408.55"/>
<polyline fill="none" stroke="#000000" stroke-width="0.5" points="344.417,403.375 344.417,408.55"/>
<polyline fill="none" stroke="#000000" stroke-width="0.5" points="382.833,403.375 382.833,408.55"/>
<polyline fill="none" stroke="#000000" stroke-width="0.5" points="421.25,403.375 421.25,408.55"/>
<polyline fill="none" stroke="#000000" stroke-width="0.5" points="459.667,403.375 459.667,408.55"/>
<polyline fill="none" stroke="#000000" stroke-width="0.5" points="498.083,403.375 498.083,408.55"/>
<polyline fill="none" stroke="#000000" stroke-width="0.5" points="133.125,403.375 133.125,406.48"/>
<polyline fill="none" stroke="#000000" stroke-width="0.5" points="171.542,403.375 171.542,406.48"/>
<polyline fill="none" stroke="#000000" stroke-width="0.5" points="209.958,403.375 209.958,406.48"/>
<polyline fill="none" stroke="#000000" stroke-width="0.5" points="248.375,403.375 248.375,406.48"/>
<polyline fill="none" stroke="#000000" stroke-width="0.5" points="286.792,403.375 286.792,406.48"/>
<polyline fill="none" stroke="#000000" stroke-width="0.5" points="325.208,403.375 325.208,406.48"/>
<polyline fill="none" stroke="#000000" stroke-width="0.5" points="363.625,403.375 363.625,406.48"/>
<polyline fill="none" stroke="#000000" stroke-width="0.5" points="402.042,403.375 402.042,406.48"/>
<polyline fill="none" stroke="#000000" stroke-width="0.5" points="440.458,403.375 440.458,406.48"/>
<polyline fill="none" stroke="#000000" stroke-width="0.5" points="478.875,403.375 478.875,406.48"/>
<text fill="#000000" style="stroke:none" x="105" y="420" transform="rotate(-0, 105, 420)" font-size="10" font-family="SansSerif" font-style="normal" font-weight="normal">0.0</text>
<text fill="#000000" style="stroke:none" x="144" y="420" transform="rotate(-0, 144, 420)" font-size="10" font-family="SansSerif" font-style="normal" font-weight="normal">0.1</text>
<text fill="#000000" style="stroke:none" x="183" y="420" transform="rotate(-0, 183, 420)" font-size="10" font-family="SansSerif" font-style="normal" font-weight="normal">0.2</text>
<text fill="#000000" style="stroke:none" x="221" y="420" transform="rotate(-0, 221, 420)" font-size="10" font-family="SansSerif" font-style="normal" font-weight="normal">0.3</text>
<text fill="#000000" style="stroke:none" x="260" y="420" transform="rotate(-0, 260, 420)" font-size="10" font-family="SansSerif" font-style="normal" font-weight="normal">0.4</text>
<text fill="#000000" style="stroke:none" x="298" y="420" transform="rotate(-0, 298, 420)" font-size="10" font-family="SansSerif" font-style="normal" font-weight="normal">0.5</text>
<text fill="#000000" style="stroke:none" x="336" y="420" transform="rotate(-0, 336, 420)" font-size="10" font-family="SansSerif" font-style="normal" font-weight="normal">0.6</text>
<text fill="#000000" style="stroke:none" x="374" y="420" transform="rotate(-0, 374, 420)" font-size="10" font-family="SansSerif" font-style="normal" font-weight="normal">0.7</text>
<text fill="#000000" style="stroke:none" x="413" y="420" transform="rotate(-0, 413, 420)" font-size="10" font-family="SansSerif" font-style="normal" font-weight="normal">0.8</text>
<text fill="#000000" style="stroke:none" x="451" y="420" transform="rotate(-0, 451, 420)" font-size="10" font-family="SansSerif" font-style="normal" font-weight="normal">0.9</text>
<text fill="#000000" style="stroke:none" x="490" y="420" transform="rotate(-0, 490, 420)" font-size="10" font-family="SansSerif" font-style="normal" font-weight="normal">1.0</text>
</g>
</svg>
