STARTFONT 2.1
FONT -Adobe-Helvetica-Bold-O-Normal--17-120-100-100-P-92-ISO8859-1
SIZE 12 100 100
FONTBOUNDINGBOX 20 20 -3 -4
COMMENT $XConsortium: helvBO12.bdf,v 1.7 95/01/26 17:54:26 gildea Exp $
COMMENT 
COMMENT +
COMMENT  Copyright 1984-1989, 1994 Adobe Systems Incorporated.
COMMENT  Copyright 1988, 1994 Digital Equipment Corporation.
COMMENT
COMMENT  Adobe is a trademark of Adobe Systems Incorporated which may be
COMMENT  registered in certain jurisdictions.
COMMENT  Permission to use these trademarks is hereby granted only in
COMMENT  association with the images described in this file.
COMMENT
COMMENT  Permission to use, copy, modify, distribute and sell this software
COMMENT  and its documentation for any purpose and without fee is hereby
COMMENT  granted, provided that the above copyright notices appear in all
COMMENT  copies and that both those copyright notices and this permission
COMMENT  notice appear in supporting documentation, and that the names of
COMMENT  Adobe Systems and Digital Equipment Corporation not be used in
COMMENT  advertising or publicity pertaining to distribution of the software
COMMENT  without specific, written prior permission.  Adobe Systems and
COMMENT  Digital Equipment Corporation make no representations about the
COMMENT  suitability of this software for any purpose.  It is provided "as
COMMENT  is" without express or implied warranty.
COMMENT -
STARTPROPERTIES 28
FOUNDRY "Adobe"
FAMILY_NAME "Helvetica"
WEIGHT_NAME "Bold"
SLANT "O"
SETWIDTH_NAME "Normal"
ADD_STYLE_NAME ""
PIXEL_SIZE 17
POINT_SIZE 120
RESOLUTION_X 100
RESOLUTION_Y 100
SPACING "P"
AVERAGE_WIDTH 92
CHARSET_REGISTRY "ISO8859"
CHARSET_ENCODING "1"
CAP_HEIGHT 12
X_HEIGHT 9
FONT_ASCENT 14
FONT_DESCENT 4
FACE_NAME "Helvetica Bold Oblique"
COPYRIGHT "Copyright (c) 1984, 1987 Adobe Systems Incorporated. All Rights Reserved. Copyright (c) 1988, 1991 Digital Equipment Corporation. All Rights Reserved."
NOTICE "Helvetica is a trademark of Linotype-Hell AG and/or its subsidiaries.  "
_DEC_DEVICE_FONTNAMES "PS=Helvetica-BoldOblique"
_DEC_PRODUCTINFO "DECwindows Fonts V2.2, 07-Nov-1991"
DEFAULT_CHAR 32
RELATIVE_SETWIDTH 50
RELATIVE_WEIGHT 70
CHARSET_COLLECTIONS "ASCII ISO8859-1 ADOBE-STANDARD"
FULL_NAME "Helvetica Bold Oblique"
ENDPROPERTIES
CHARS 229
STARTCHAR space
ENCODING 32
SWIDTH 278 0
DWIDTH 5 0
BBX 1 1 0 0
BITMAP
00
ENDCHAR
STARTCHAR exclam
ENCODING 33
SWIDTH 333 0
DWIDTH 6 0
BBX 5 12 1 0
BITMAP
18
18
18
30
30
30
60
60
60
00
C0
C0
ENDCHAR
STARTCHAR quotedbl
ENCODING 34
SWIDTH 474 0
DWIDTH 8 0
BBX 5 4 3 8
BITMAP
D8
D8
D8
90
ENDCHAR
STARTCHAR numbersign
ENCODING 35
SWIDTH 556 0
DWIDTH 9 0
BBX 11 12 -1 0
BITMAP
06C0
06C0
06C0
3FE0
3FE0
1B00
1B00
FF80
FF80
6C00
6C00
6C00
ENDCHAR
STARTCHAR dollar
ENCODING 36
SWIDTH 556 0
DWIDTH 9 0
BBX 10 14 -1 -1
BITMAP
0100
0F80
1FC0
3AC0
3200
3C00
1C00
0E00
0F00
1300
D700
FE00
7C00
2000
ENDCHAR
STARTCHAR percent
ENCODING 37
SWIDTH 889 0
DWIDTH 14 0
BBX 12 12 0 0
BITMAP
7840
CC80
CC80
CD00
7A00
0200
0400
09E0
1330
1330
2330
21E0
ENDCHAR
STARTCHAR ampersand
ENCODING 38
SWIDTH 722 0
DWIDTH 12 0
BBX 10 12 0 0
BITMAP
0F00
1F80
1980
1B80
1F00
3E00
7CC0
EFC0
C780
CF00
FF80
79C0
ENDCHAR
STARTCHAR quoteright
ENCODING 39
SWIDTH 278 0
DWIDTH 5 0
BBX 3 5 1 7
BITMAP
60
60
20
40
80
ENDCHAR
STARTCHAR parenleft
ENCODING 40
SWIDTH 333 0
DWIDTH 6 0
BBX 7 15 0 -3
BITMAP
06
0C
18
30
30
60
60
C0
C0
C0
C0
C0
60
60
30
ENDCHAR
STARTCHAR parenright
ENCODING 41
SWIDTH 333 0
DWIDTH 6 0
BBX 7 15 -2 -3
BITMAP
18
0C
0C
06
06
06
06
06
0C
0C
18
18
30
60
C0
ENDCHAR
STARTCHAR asterisk
ENCODING 42
SWIDTH 389 0
DWIDTH 6 0
BBX 5 5 1 7
BITMAP
20
A8
70
60
90
ENDCHAR
STARTCHAR plus
ENCODING 43
SWIDTH 584 0
DWIDTH 10 0
BBX 9 8 0 0
BITMAP
0C00
0C00
0C00
FF80
FF80
1800
1800
1800
ENDCHAR
STARTCHAR comma
ENCODING 44
SWIDTH 278 0
DWIDTH 4 0
BBX 3 5 0 -3
BITMAP
60
60
20
40
80
ENDCHAR
STARTCHAR minus
ENCODING 45
SWIDTH 584 0
DWIDTH 10 0
BBX 8 2 0 3
BITMAP
FF
FF
ENDCHAR
STARTCHAR period
ENCODING 46
SWIDTH 278 0
DWIDTH 4 0
BBX 2 2 1 0
BITMAP
C0
C0
ENDCHAR
STARTCHAR slash
ENCODING 47
SWIDTH 278 0
DWIDTH 5 0
BBX 6 12 0 0
BITMAP
04
04
08
08
10
10
20
20
40
40
80
80
ENDCHAR
STARTCHAR zero
ENCODING 48
SWIDTH 556 0
DWIDTH 9 0
BBX 9 12 0 0
BITMAP
1E00
3F00
7180
6180
E180
C180
C180
C380
C300
C700
7E00
3C00
ENDCHAR
STARTCHAR one
ENCODING 49
SWIDTH 556 0
DWIDTH 9 0
BBX 5 12 2 0
BITMAP
18
38
F8
F0
30
30
60
60
60
C0
C0
C0
ENDCHAR
STARTCHAR two
ENCODING 50
SWIDTH 556 0
DWIDTH 9 0
BBX 9 12 0 0
BITMAP
1F00
3F80
7180
6180
6180
0300
0F00
3C00
7000
E000
FF00
FF00
ENDCHAR
STARTCHAR three
ENCODING 51
SWIDTH 556 0
DWIDTH 9 0
BBX 9 12 -1 0
BITMAP
1F00
3F80
3180
0180
0380
1F00
1E00
0700
C300
C700
FE00
7C00
ENDCHAR
STARTCHAR four
ENCODING 52
SWIDTH 556 0
DWIDTH 9 0
BBX 9 12 -1 0
BITMAP
0380
0780
0D80
1B00
3300
6300
C600
FF00
FF00
0600
0C00
0C00
ENDCHAR
STARTCHAR five
ENCODING 53
SWIDTH 556 0
DWIDTH 9 0
BBX 9 12 -1 0
BITMAP
0F80
1F80
1800
3000
3E00
7F00
6700
0300
0300
C700
FE00
7C00
ENDCHAR
STARTCHAR six
ENCODING 54
SWIDTH 556 0
DWIDTH 9 0
BBX 9 12 0 0
BITMAP
0F00
1F80
3180
6000
6E00
7F00
E300
C300
C300
CE00
FC00
7800
ENDCHAR
STARTCHAR seven
ENCODING 55
SWIDTH 556 0
DWIDTH 9 0
BBX 9 12 0 0
BITMAP
7F80
7F80
0180
0700
0E00
1C00
3800
3000
6000
E000
C000
C000
ENDCHAR
STARTCHAR eight
ENCODING 56
SWIDTH 556 0
DWIDTH 9 0
BBX 9 12 -1 0
BITMAP
0F00
1F80
3980
3180
3380
3F00
7E00
E300
C300
C700
FE00
7C00
ENDCHAR
STARTCHAR nine
ENCODING 57
SWIDTH 556 0
DWIDTH 9 0
BBX 9 12 -1 0
BITMAP
0F00
1F80
3980
6180
6180
6380
7F00
3B00
0300
C600
FC00
7800
ENDCHAR
STARTCHAR colon
ENCODING 58
SWIDTH 333 0
DWIDTH 5 0
BBX 4 8 0 0
BITMAP
30
30
00
00
00
00
C0
C0
ENDCHAR
STARTCHAR semicolon
ENCODING 59
SWIDTH 333 0
DWIDTH 5 0
BBX 5 11 -1 -3
BITMAP
18
18
00
00
00
00
60
60
20
40
80
ENDCHAR
STARTCHAR less
ENCODING 60
SWIDTH 584 0
DWIDTH 10 0
BBX 9 8 0 0
BITMAP
0180
0780
1E00
7800
E000
7800
1E00
0600
ENDCHAR
STARTCHAR equal
ENCODING 61
SWIDTH 584 0
DWIDTH 10 0
BBX 9 6 0 1
BITMAP
7F80
7F80
0000
0000
FF00
FF00
ENDCHAR
STARTCHAR greater
ENCODING 62
SWIDTH 584 0
DWIDTH 10 0
BBX 9 8 0 0
BITMAP
3000
3C00
0F00
0380
0F00
3C00
F000
C000
ENDCHAR
STARTCHAR question
ENCODING 63
SWIDTH 611 0
DWIDTH 10 0
BBX 8 12 2 0
BITMAP
3E
7F
E3
C3
07
0E
1C
38
30
00
60
60
ENDCHAR
STARTCHAR at
ENCODING 64
SWIDTH 975 0
DWIDTH 16 0
BBX 14 14 1 -2
BITMAP
03F0
0E18
180C
21E4
6664
4CC4
CCCC
9988
9998
9A90
CEE0
4000
7300
1C00
ENDCHAR
STARTCHAR A
ENCODING 65
SWIDTH 722 0
DWIDTH 12 0
BBX 11 12 -1 0
BITMAP
01C0
03C0
07C0
06C0
0EC0
1CC0
18C0
3FE0
7FE0
6060
E060
C060
ENDCHAR
STARTCHAR B
ENCODING 66
SWIDTH 722 0
DWIDTH 12 0
BBX 11 12 0 0
BITMAP
1FC0
1FE0
1860
3060
30E0
3FC0
7F80
60C0
60C0
C1C0
FF80
FF00
ENDCHAR
STARTCHAR C
ENCODING 67
SWIDTH 722 0
DWIDTH 12 0
BBX 11 12 1 0
BITMAP
0F80
3FC0
78E0
6060
E000
C000
C000
C000
C0C0
E1C0
7F80
3E00
ENDCHAR
STARTCHAR D
ENCODING 68
SWIDTH 722 0
DWIDTH 12 0
BBX 11 12 0 0
BITMAP
1F80
1FC0
3860
3060
3060
3060
60E0
60C0
61C0
C380
FF00
FE00
ENDCHAR
STARTCHAR E
ENCODING 69
SWIDTH 667 0
DWIDTH 11 0
BBX 11 12 0 0
BITMAP
1FE0
1FE0
1800
3000
3000
3F80
7F80
6000
6000
C000
FF00
FF00
ENDCHAR
STARTCHAR F
ENCODING 70
SWIDTH 611 0
DWIDTH 10 0
BBX 11 12 0 0
BITMAP
1FE0
1FE0
1800
3000
3000
3F80
7F80
6000
6000
C000
C000
C000
ENDCHAR
STARTCHAR G
ENCODING 71
SWIDTH 778 0
DWIDTH 13 0
BBX 11 12 1 0
BITMAP
0F80
3FC0
78E0
6060
E000
C000
C7C0
C7C0
C0C0
E1C0
7F80
3D80
ENDCHAR
STARTCHAR H
ENCODING 72
SWIDTH 722 0
DWIDTH 12 0
BBX 12 12 0 0
BITMAP
1830
1830
1830
3060
3FE0
3FE0
60C0
60C0
60C0
C180
C180
C180
ENDCHAR
STARTCHAR I
ENCODING 73
SWIDTH 278 0
DWIDTH 4 0
BBX 5 12 -1 0
BITMAP
18
18
18
30
30
30
60
60
60
C0
C0
C0
ENDCHAR
STARTCHAR J
ENCODING 74
SWIDTH 556 0
DWIDTH 9 0
BBX 10 12 -1 0
BITMAP
00C0
00C0
00C0
0180
0180
0180
0300
0300
C300
C600
FE00
7C00
ENDCHAR
STARTCHAR K
ENCODING 75
SWIDTH 722 0
DWIDTH 12 0
BBX 13 12 0 0
BITMAP
1838
1870
18E0
3380
3700
3C00
7E00
6700
6380
C1C0
C0E0
C060
ENDCHAR
STARTCHAR L
ENCODING 76
SWIDTH 611 0
DWIDTH 10 0
BBX 8 12 0 0
BITMAP
18
18
18
30
30
30
60
60
60
C0
FF
FF
ENDCHAR
STARTCHAR M
ENCODING 77
SWIDTH 833 0
DWIDTH 13 0
BBX 15 12 -1 0
BITMAP
1C0E
1C1E
1C1E
3C3C
3C6C
2C6C
6CD8
6CD8
6598
C730
C730
C630
ENDCHAR
STARTCHAR N
ENCODING 78
SWIDTH 722 0
DWIDTH 12 0
BBX 13 12 -1 0
BITMAP
1C18
1C18
1C18
3630
3630
3630
6360
6360
6360
C1C0
C1C0
C1C0
ENDCHAR
STARTCHAR O
ENCODING 79
SWIDTH 778 0
DWIDTH 13 0
BBX 11 12 1 0
BITMAP
0F80
3FC0
78E0
6060
E060
C060
C060
C0E0
C0C0
E3C0
7F80
3E00
ENDCHAR
STARTCHAR P
ENCODING 80
SWIDTH 667 0
DWIDTH 11 0
BBX 11 12 0 0
BITMAP
1FC0
1FE0
1860
3060
3060
30C0
7FC0
7F00
6000
C000
C000
C000
ENDCHAR
STARTCHAR Q
ENCODING 81
SWIDTH 778 0
DWIDTH 13 0
BBX 11 13 1 -1
BITMAP
0F80
3FC0
78E0
6060
E060
C060
C060
C2E0
C7C0
E380
7FC0
3EE0
0040
ENDCHAR
STARTCHAR R
ENCODING 82
SWIDTH 722 0
DWIDTH 12 0
BBX 12 12 0 0
BITMAP
1FE0
1FF0
1830
3030
3070
3FE0
7F80
60C0
60C0
C180
C180
C180
ENDCHAR
STARTCHAR S
ENCODING 83
SWIDTH 667 0
DWIDTH 11 0
BBX 11 12 0 0
BITMAP
0FC0
1FE0
3860
3060
3800
1E00
0F00
0380
C180
C380
FF00
7E00
ENDCHAR
STARTCHAR T
ENCODING 84
SWIDTH 611 0
DWIDTH 10 0
BBX 10 12 1 0
BITMAP
FFC0
FFC0
0C00
1C00
1800
1800
3000
3000
3000
6000
6000
6000
ENDCHAR
STARTCHAR U
ENCODING 85
SWIDTH 722 0
DWIDTH 12 0
BBX 11 12 1 0
BITMAP
3060
3060
3060
60C0
60C0
60C0
C180
C180
C380
C700
FE00
7C00
ENDCHAR
STARTCHAR V
ENCODING 86
SWIDTH 667 0
DWIDTH 11 0
BBX 12 12 1 0
BITMAP
C070
C0E0
C1C0
C180
C380
C700
C600
CC00
DC00
7800
7000
6000
ENDCHAR
STARTCHAR W
ENCODING 87
SWIDTH 944 0
DWIDTH 15 0
BBX 16 12 1 0
BITMAP
C307
C30E
C31C
C718
CF38
CF30
DB60
F3E0
F3C0
E380
C300
C300
ENDCHAR
STARTCHAR X
ENCODING 88
SWIDTH 667 0
DWIDTH 11 0
BBX 13 12 -1 0
BITMAP
3838
1870
1CE0
0DC0
0F80
0700
0E00
1F00
3B00
7380
E180
C1C0
ENDCHAR
STARTCHAR Y
ENCODING 89
SWIDTH 667 0
DWIDTH 11 0
BBX 11 12 2 0
BITMAP
C0E0
C1C0
E380
6700
6E00
7C00
3800
3000
3000
6000
6000
6000
ENDCHAR
STARTCHAR Z
ENCODING 90
SWIDTH 611 0
DWIDTH 10 0
BBX 12 12 -1 0
BITMAP
1FF0
1FF0
00E0
01C0
0380
0700
0E00
1C00
3800
7000
FF80
FF80
ENDCHAR
STARTCHAR bracketleft
ENCODING 91
SWIDTH 333 0
DWIDTH 6 0
BBX 8 15 -1 -3
BITMAP
0F
0F
0C
18
18
18
30
30
30
60
60
60
C0
F0
F0
ENDCHAR
STARTCHAR backslash
ENCODING 92
SWIDTH 278 0
DWIDTH 5 0
BBX 4 12 0 0
BITMAP
80
80
80
40
40
40
20
20
20
10
10
10
ENDCHAR
STARTCHAR bracketright
ENCODING 93
SWIDTH 333 0
DWIDTH 6 0
BBX 8 15 -2 -3
BITMAP
0F
0F
03
06
06
06
0C
0C
0C
18
18
18
30
F0
F0
ENDCHAR
STARTCHAR asciicircum
ENCODING 94
SWIDTH 584 0
DWIDTH 10 0
BBX 6 7 2 5
BITMAP
38
38
38
68
6C
CC
CC
ENDCHAR
STARTCHAR underscore
ENCODING 95
SWIDTH 556 0
DWIDTH 9 0
BBX 9 1 -2 -3
BITMAP
FF80
ENDCHAR
STARTCHAR quoteleft
ENCODING 96
SWIDTH 278 0
DWIDTH 5 0
BBX 3 5 2 7
BITMAP
20
40
80
C0
C0
ENDCHAR
STARTCHAR a
ENCODING 97
SWIDTH 556 0
DWIDTH 9 0
BBX 8 9 0 0
BITMAP
3E
7F
63
07
7F
E6
CE
FE
77
ENDCHAR
STARTCHAR b
ENCODING 98
SWIDTH 611 0
DWIDTH 10 0
BBX 9 12 0 0
BITMAP
1800
1800
1800
3700
3F80
3180
7180
6180
6300
E300
FE00
DC00
ENDCHAR
STARTCHAR c
ENCODING 99
SWIDTH 556 0
DWIDTH 9 0
BBX 9 9 0 0
BITMAP
0F00
3F80
7180
6000
C000
C300
C700
FE00
7800
ENDCHAR
STARTCHAR d
ENCODING 100
SWIDTH 611 0
DWIDTH 10 0
BBX 10 12 0 0
BITMAP
00C0
00C0
00C0
1D80
3F80
6380
6300
C300
C700
C600
FE00
7600
ENDCHAR
STARTCHAR e
ENCODING 101
SWIDTH 556 0
DWIDTH 9 0
BBX 8 9 0 0
BITMAP
1E
3F
63
FF
FF
C0
E6
FE
7C
ENDCHAR
STARTCHAR f
ENCODING 102
SWIDTH 333 0
DWIDTH 5 0
BBX 7 12 0 0
BITMAP
0E
1E
18
7C
7C
30
60
60
60
C0
C0
C0
ENDCHAR
STARTCHAR g
ENCODING 103
SWIDTH 611 0
DWIDTH 10 0
BBX 11 13 -1 -4
BITMAP
0760
0FE0
1CE0
30C0
30C0
31C0
3380
3F80
1D80
0300
E700
7E00
3C00
ENDCHAR
STARTCHAR h
ENCODING 104
SWIDTH 611 0
DWIDTH 10 0
BBX 10 12 0 0
BITMAP
1800
1800
1800
3780
3FC0
38C0
6180
6180
6180
C300
C300
C300
ENDCHAR
STARTCHAR i
ENCODING 105
SWIDTH 278 0
DWIDTH 4 0
BBX 5 12 0 0
BITMAP
18
18
00
30
30
30
60
60
60
C0
C0
C0
ENDCHAR
STARTCHAR j
ENCODING 106
SWIDTH 278 0
DWIDTH 5 0
BBX 8 16 -3 -4
BITMAP
03
03
00
06
06
06
0C
0C
0C
18
18
18
30
30
F0
E0
ENDCHAR
STARTCHAR k
ENCODING 107
SWIDTH 556 0
DWIDTH 9 0
BBX 10 12 0 0
BITMAP
1800
1800
1800
31C0
3380
3700
7E00
7E00
6600
E700
C300
C380
ENDCHAR
STARTCHAR l
ENCODING 108
SWIDTH 278 0
DWIDTH 5 0
BBX 5 12 0 0
BITMAP
18
18
18
30
30
30
60
60
60
C0
C0
C0
ENDCHAR
STARTCHAR m
ENCODING 109
SWIDTH 889 0
DWIDTH 14 0
BBX 14 9 0 0
BITMAP
37B8
3FFC
39CC
6318
6318
6318
C630
C630
C630
ENDCHAR
STARTCHAR n
ENCODING 110
SWIDTH 611 0
DWIDTH 10 0
BBX 10 9 0 0
BITMAP
3780
3FC0
38C0
6180
6180
6180
C300
C300
C300
ENDCHAR
STARTCHAR o
ENCODING 111
SWIDTH 611 0
DWIDTH 10 0
BBX 9 9 0 0
BITMAP
0F00
3F80
7180
6180
C180
C300
C700
FE00
7800
ENDCHAR
STARTCHAR p
ENCODING 112
SWIDTH 611 0
DWIDTH 10 0
BBX 10 13 -1 -4
BITMAP
1B80
1FC0
18C0
38C0
30C0
3180
7180
7F00
6E00
6000
C000
C000
C000
ENDCHAR
STARTCHAR q
ENCODING 113
SWIDTH 611 0
DWIDTH 10 0
BBX 9 13 1 -4
BITMAP
1D80
7F80
6380
E300
C300
C700
C600
FE00
7600
0600
0C00
0C00
0C00
ENDCHAR
STARTCHAR r
ENCODING 114
SWIDTH 389 0
DWIDTH 6 0
BBX 7 9 0 0
BITMAP
36
3E
38
60
60
60
C0
C0
C0
ENDCHAR
STARTCHAR s
ENCODING 115
SWIDTH 556 0
DWIDTH 9 0
BBX 8 9 0 0
BITMAP
3E
7F
63
70
3C
0E
C6
FE
7C
ENDCHAR
STARTCHAR t
ENCODING 116
SWIDTH 333 0
DWIDTH 6 0
BBX 6 12 0 0
BITMAP
18
18
18
7C
7C
30
30
60
60
C0
F0
70
ENDCHAR
STARTCHAR u
ENCODING 117
SWIDTH 611 0
DWIDTH 10 0
BBX 10 9 0 0
BITMAP
30C0
30C0
30C0
6180
6180
6180
C700
FF00
7B00
ENDCHAR
STARTCHAR v
ENCODING 118
SWIDTH 556 0
DWIDTH 9 0
BBX 8 9 1 0
BITMAP
C3
C3
C6
CC
CC
78
70
60
60
ENDCHAR
STARTCHAR w
ENCODING 119
SWIDTH 778 0
DWIDTH 13 0
BBX 12 9 1 0
BITMAP
C630
C630
CE60
CE60
DEC0
D380
7300
6300
6200
ENDCHAR
STARTCHAR x
ENCODING 120
SWIDTH 556 0
DWIDTH 9 0
BBX 9 9 0 0
BITMAP
6180
6380
3700
3E00
1C00
3C00
7600
E700
C300
ENDCHAR
STARTCHAR y
ENCODING 121
SWIDTH 556 0
DWIDTH 9 0
BBX 10 13 -1 -4
BITMAP
30C0
30C0
31C0
3180
3B80
1B00
1E00
1E00
1C00
1800
3800
F000
E000
ENDCHAR
STARTCHAR z
ENCODING 122
SWIDTH 500 0
DWIDTH 8 0
BBX 9 9 -1 0
BITMAP
3F80
3F80
0700
0E00
1C00
3800
7000
FE00
FE00
ENDCHAR
STARTCHAR braceleft
ENCODING 123
SWIDTH 389 0
DWIDTH 6 0
BBX 7 15 0 -3
BITMAP
0E
1E
18
18
38
30
F0
E0
60
60
E0
C0
C0
E0
60
ENDCHAR
STARTCHAR bar
ENCODING 124
SWIDTH 280 0
DWIDTH 3 0
BBX 5 16 -1 -4
BITMAP
08
08
08
10
10
10
20
20
20
40
40
40
80
80
80
80
ENDCHAR
STARTCHAR braceright
ENCODING 125
SWIDTH 389 0
DWIDTH 6 0
BBX 7 15 -2 -3
BITMAP
0C
0E
06
06
0E
0C
0C
0E
1E
18
38
30
30
F0
E0
ENDCHAR
STARTCHAR asciitilde
ENCODING 126
SWIDTH 584 0
DWIDTH 10 0
BBX 7 2 1 3
BITMAP
72
9C
ENDCHAR
STARTCHAR space
ENCODING 160
SWIDTH 278 0
DWIDTH 5 0
BBX 1 1 0 0
BITMAP
00
ENDCHAR
STARTCHAR exclamdown
ENCODING 161
SWIDTH 333 0
DWIDTH 6 0
BBX 5 12 0 -3
BITMAP
18
18
00
30
30
30
60
60
60
C0
C0
C0
ENDCHAR
STARTCHAR cent
ENCODING 162
SWIDTH 556 0
DWIDTH 9 0
BBX 8 11 0 -1
BITMAP
01
1E
7F
77
C8
D0
D0
E6
7E
7C
80
ENDCHAR
STARTCHAR sterling
ENCODING 163
SWIDTH 556 0
DWIDTH 9 0
BBX 10 12 -1 0
BITMAP
0780
0FC0
1CC0
18C0
1800
1800
3E00
1800
1800
3000
7F00
FF00
ENDCHAR
STARTCHAR currency
ENCODING 164
SWIDTH 556 0
DWIDTH 9 0
BBX 9 7 -1 2
BITMAP
2E80
1F00
3180
6180
6300
7E00
9D00
ENDCHAR
STARTCHAR yen
ENCODING 165
SWIDTH 556 0
DWIDTH 9 0
BBX 9 12 0 0
BITMAP
6180
6180
3300
3600
3C00
1800
7E00
3000
FC00
6000
6000
6000
ENDCHAR
STARTCHAR brokenbar
ENCODING 166
SWIDTH 280 0
DWIDTH 5 0
BBX 5 16 0 -4
BITMAP
08
08
08
10
10
10
00
00
00
00
40
40
40
80
80
80
ENDCHAR
STARTCHAR section
ENCODING 167
SWIDTH 556 0
DWIDTH 9 0
BBX 10 15 -1 -3
BITMAP
0780
0FC0
1CC0
1800
1E00
3F00
6380
6180
7980
3F00
1E00
0600
CE00
FC00
7800
ENDCHAR
STARTCHAR dieresis
ENCODING 168
SWIDTH 333 0
DWIDTH 6 0
BBX 5 2 2 10
BITMAP
D8
D8
ENDCHAR
STARTCHAR copyright
ENCODING 169
SWIDTH 737 0
DWIDTH 12 0
BBX 13 12 0 0
BITMAP
07C0
1C70
3010
6798
4C88
C808
9818
9910
CE20
4060
71C0
1F00
ENDCHAR
STARTCHAR ordfeminine
ENCODING 170
SWIDTH 370 0
DWIDTH 6 0
BBX 5 7 1 5
BITMAP
30
48
68
98
E8
00
F8
ENDCHAR
STARTCHAR guillemotleft
ENCODING 171
SWIDTH 556 0
DWIDTH 9 0
BBX 8 5 0 3
BITMAP
33
66
CC
66
22
ENDCHAR
STARTCHAR logicalnot
ENCODING 172
SWIDTH 584 0
DWIDTH 10 0
BBX 8 5 0 2
BITMAP
FF
FF
03
06
06
ENDCHAR
STARTCHAR hyphen
ENCODING 173
SWIDTH 333 0
DWIDTH 5 0
BBX 4 2 0 3
BITMAP
F0
F0
ENDCHAR
STARTCHAR registered
ENCODING 174
SWIDTH 737 0
DWIDTH 12 0
BBX 13 12 0 0
BITMAP
07C0
1C70
3010
6F98
4CC8
CCC8
9F98
9910
D9B0
4060
71C0
1F00
ENDCHAR
STARTCHAR macron
ENCODING 175
SWIDTH 333 0
DWIDTH 6 0
BBX 5 1 2 10
BITMAP
F8
ENDCHAR
STARTCHAR degree
ENCODING 176
SWIDTH 400 0
DWIDTH 7 0
BBX 5 5 1 7
BITMAP
70
C8
88
98
70
ENDCHAR
STARTCHAR plusminus
ENCODING 177
SWIDTH 584 0
DWIDTH 10 0
BBX 8 11 1 0
BITMAP
0C
0C
0C
7F
7F
18
18
18
00
FF
FF
ENDCHAR
STARTCHAR twosuperior
ENCODING 178
SWIDTH 333 0
DWIDTH 6 0
BBX 6 7 0 5
BITMAP
38
6C
0C
38
60
F8
F8
ENDCHAR
STARTCHAR threesuperior
ENCODING 179
SWIDTH 333 0
DWIDTH 6 0
BBX 6 7 0 5
BITMAP
38
6C
0C
38
18
D8
70
ENDCHAR
STARTCHAR acute
ENCODING 180
SWIDTH 333 0
DWIDTH 6 0
BBX 3 3 3 10
BITMAP
60
40
80
ENDCHAR
STARTCHAR mu
ENCODING 181
SWIDTH 611 0
DWIDTH 10 0
BBX 11 13 -1 -4
BITMAP
1860
1860
1860
30C0
30C0
30C0
6380
7F80
7D80
6000
C000
C000
C000
ENDCHAR
STARTCHAR paragraph
ENCODING 182
SWIDTH 556 0
DWIDTH 9 0
BBX 9 15 1 -3
BITMAP
3F80
7900
F900
F200
F200
F200
6400
2400
2400
4800
4800
4800
9000
9000
9000
ENDCHAR
STARTCHAR periodcentered
ENCODING 183
SWIDTH 278 0
DWIDTH 5 0
BBX 2 2 1 4
BITMAP
C0
C0
ENDCHAR
STARTCHAR cedilla
ENCODING 184
SWIDTH 333 0
DWIDTH 6 0
BBX 5 4 -1 -4
BITMAP
20
30
98
70
ENDCHAR
STARTCHAR onesuperior
ENCODING 185
SWIDTH 333 0
DWIDTH 6 0
BBX 3 7 2 5
BITMAP
20
E0
60
60
C0
C0
C0
ENDCHAR
STARTCHAR ordmasculine
ENCODING 186
SWIDTH 365 0
DWIDTH 6 0
BBX 5 7 1 5
BITMAP
70
C8
88
98
70
00
F8
ENDCHAR
STARTCHAR guillemotright
ENCODING 187
SWIDTH 556 0
DWIDTH 9 0
BBX 8 5 1 3
BITMAP
44
66
33
66
CC
ENDCHAR
STARTCHAR onequarter
ENCODING 188
SWIDTH 834 0
DWIDTH 14 0
BBX 11 12 3 0
BITMAP
2100
E300
6200
6400
CC00
C8C0
D1C0
32C0
6480
4FE0
C180
8180
ENDCHAR
STARTCHAR onehalf
ENCODING 189
SWIDTH 834 0
DWIDTH 14 0
BBX 11 12 2 0
BITMAP
2100
E200
6200
6400
C800
C9C0
D360
2060
41C0
4300
87C0
87C0
ENDCHAR
STARTCHAR threequarters
ENCODING 190
SWIDTH 834 0
DWIDTH 14 0
BBX 12 12 0 0
BITMAP
3820
6C40
0CC0
3880
1900
DB30
7270
04B0
0D20
0BF0
1060
1060
ENDCHAR
STARTCHAR questiondown
ENCODING 191
SWIDTH 611 0
DWIDTH 10 0
BBX 8 12 0 -3
BITMAP
06
06
00
0C
1C
38
70
E0
C3
C7
FE
7C
ENDCHAR
STARTCHAR Agrave
ENCODING 192
SWIDTH 722 0
DWIDTH 12 0
BBX 11 16 -1 0
BITMAP
0300
0180
0080
0000
01C0
03C0
07C0
06C0
0EC0
1CC0
18C0
3FE0
7FE0
6060
E060
C060
ENDCHAR
STARTCHAR Aacute
ENCODING 193
SWIDTH 722 0
DWIDTH 12 0
BBX 11 16 -1 0
BITMAP
0060
00C0
0080
0000
01C0
03C0
07C0
06C0
0EC0
1CC0
18C0
3FE0
7FE0
6060
E060
C060
ENDCHAR
STARTCHAR Acircumflex
ENCODING 194
SWIDTH 722 0
DWIDTH 12 0
BBX 11 16 -1 0
BITMAP
0060
00E0
0120
0000
01C0
03C0
07C0
06C0
0EC0
1CC0
18C0
3FE0
7FE0
6060
E060
C060
ENDCHAR
STARTCHAR Atilde
ENCODING 195
SWIDTH 722 0
DWIDTH 12 0
BBX 12 15 -1 0
BITMAP
01D0
02E0
0000
01C0
03C0
07C0
06C0
0EC0
1CC0
18C0
3FE0
7FE0
6060
E060
C060
ENDCHAR
STARTCHAR Adieresis
ENCODING 196
SWIDTH 722 0
DWIDTH 12 0
BBX 12 15 -1 0
BITMAP
0330
0330
0000
01C0
03C0
07C0
06C0
0EC0
1CC0
18C0
3FE0
7FE0
6060
E060
C060
ENDCHAR
STARTCHAR Aring
ENCODING 197
SWIDTH 722 0
DWIDTH 12 0
BBX 11 15 -1 0
BITMAP
00C0
0120
0120
01C0
03C0
07C0
06C0
0EC0
1CC0
18C0
3FE0
7FE0
6060
E060
C060
ENDCHAR
STARTCHAR AE
ENCODING 198
SWIDTH 1000 0
DWIDTH 17 0
BBX 17 12 0 0
BITMAP
01FF80
03FF80
066000
0EE000
0CC000
1CFE00
39FE00
3F8000
7F8000
630000
E3FC00
C3FC00
ENDCHAR
STARTCHAR Ccedilla
ENCODING 199
SWIDTH 722 0
DWIDTH 12 0
BBX 11 16 1 -4
BITMAP
0F80
3FC0
78E0
6060
E000
C000
C000
C000
C0C0
E1C0
7F80
3E00
0800
0C00
2600
1C00
ENDCHAR
STARTCHAR Egrave
ENCODING 200
SWIDTH 667 0
DWIDTH 11 0
BBX 11 16 0 0
BITMAP
0C00
0600
0100
0000
1FE0
1FE0
1800
3000
3000
3F80
7F80
6000
6000
C000
FF00
FF00
ENDCHAR
STARTCHAR Eacute
ENCODING 201
SWIDTH 667 0
DWIDTH 11 0
BBX 11 16 0 0
BITMAP
00C0
0180
0200
0000
1FE0
1FE0
1800
3000
3000
3F80
7F80
6000
6000
C000
FF00
FF00
ENDCHAR
STARTCHAR Ecircumflex
ENCODING 202
SWIDTH 667 0
DWIDTH 11 0
BBX 11 16 0 0
BITMAP
0180
0380
0480
0000
1FE0
1FE0
1800
3000
3000
3F80
7F80
6000
6000
C000
FF00
FF00
ENDCHAR
STARTCHAR Edieresis
ENCODING 203
SWIDTH 667 0
DWIDTH 11 0
BBX 11 15 0 0
BITMAP
0CC0
0CC0
0000
1FE0
1FE0
1800
3000
3000
3F80
7F80
6000
6000
C000
FF00
FF00
ENDCHAR
STARTCHAR Igrave
ENCODING 204
SWIDTH 278 0
DWIDTH 4 0
BBX 5 16 -1 0
BITMAP
30
18
08
00
18
18
18
30
30
30
60
60
60
C0
C0
C0
ENDCHAR
STARTCHAR Iacute
ENCODING 205
SWIDTH 278 0
DWIDTH 4 0
BBX 7 16 -1 0
BITMAP
06
0C
08
00
18
18
18
30
30
30
60
60
60
C0
C0
C0
ENDCHAR
STARTCHAR Icircumflex
ENCODING 206
SWIDTH 278 0
DWIDTH 4 0
BBX 6 16 -1 0
BITMAP
0C
1C
24
00
18
18
18
30
30
30
60
60
60
C0
C0
C0
ENDCHAR
STARTCHAR Idieresis
ENCODING 207
SWIDTH 278 0
DWIDTH 4 0
BBX 7 15 -1 0
BITMAP
36
36
00
18
18
18
30
30
30
60
60
60
C0
C0
C0
ENDCHAR
STARTCHAR Eth
ENCODING 208
SWIDTH 722 0
DWIDTH 12 0
BBX 11 12 0 0
BITMAP
1F80
1FC0
3860
3060
3060
F860
F8E0
60C0
61C0
C380
FF00
FE00
ENDCHAR
STARTCHAR Ntilde
ENCODING 209
SWIDTH 722 0
DWIDTH 12 0
BBX 13 15 -1 0
BITMAP
03A0
05C0
0000
1C18
1C18
1C18
3630
3630
3630
6360
6360
6360
C1C0
C1C0
C1C0
ENDCHAR
STARTCHAR Ograve
ENCODING 210
SWIDTH 778 0
DWIDTH 13 0
BBX 11 16 1 0
BITMAP
0C00
0600
0200
0000
0F80
3FC0
78E0
6060
E060
C060
C060
C0E0
C0C0
E3C0
7F80
3E00
ENDCHAR
STARTCHAR Oacute
ENCODING 211
SWIDTH 778 0
DWIDTH 13 0
BBX 11 16 1 0
BITMAP
0180
0300
0200
0000
0F80
3FC0
78E0
6060
E060
C060
C060
C0E0
C0C0
E3C0
7F80
3E00
ENDCHAR
STARTCHAR Ocircumflex
ENCODING 212
SWIDTH 778 0
DWIDTH 13 0
BBX 11 16 1 0
BITMAP
0180
0380
0480
0000
0F80
3FC0
78E0
6060
E060
C060
C060
C0E0
C0C0
E3C0
7F80
3E00
ENDCHAR
STARTCHAR Otilde
ENCODING 213
SWIDTH 778 0
DWIDTH 13 0
BBX 11 15 1 0
BITMAP
0740
0B80
0000
0F80
3FC0
78E0
6060
E060
C060
C060
C0E0
C0C0
E3C0
7F80
3E00
ENDCHAR
STARTCHAR Odieresis
ENCODING 214
SWIDTH 778 0
DWIDTH 13 0
BBX 11 15 1 0
BITMAP
0CC0
0CC0
0000
0F80
3FC0
78E0
6060
E060
C060
C060
C0E0
C0C0
E3C0
7F80
3E00
ENDCHAR
STARTCHAR multiply
ENCODING 215
SWIDTH 584 0
DWIDTH 10 0
BBX 8 7 1 1
BITMAP
42
E7
7E
3C
7E
E7
42
ENDCHAR
STARTCHAR Oslash
ENCODING 216
SWIDTH 778 0
DWIDTH 13 0
BBX 13 12 0 0
BITMAP
07C8
1FF0
3C70
3070
70B0
6130
6230
6470
6860
71E0
7FC0
9F00
ENDCHAR
STARTCHAR Ugrave
ENCODING 217
SWIDTH 722 0
DWIDTH 12 0
BBX 11 16 1 0
BITMAP
0C00
0600
0200
0000
3060
3060
3060
60C0
60C0
60C0
C180
C180
C380
C700
FE00
7C00
ENDCHAR
STARTCHAR Uacute
ENCODING 218
SWIDTH 722 0
DWIDTH 12 0
BBX 11 16 1 0
BITMAP
0180
0300
0200
0000
3060
3060
3060
60C0
60C0
60C0
C180
C180
C380
C700
FE00
7C00
ENDCHAR
STARTCHAR Ucircumflex
ENCODING 219
SWIDTH 722 0
DWIDTH 12 0
BBX 11 16 1 0
BITMAP
0180
0380
0480
0000
3060
3060
3060
60C0
60C0
60C0
C180
C180
C380
C700
FE00
7C00
ENDCHAR
STARTCHAR Udieresis
ENCODING 220
SWIDTH 722 0
DWIDTH 12 0
BBX 11 15 1 0
BITMAP
0CC0
0CC0
0000
3060
3060
3060
60C0
60C0
60C0
C180
C180
C380
C700
FE00
7C00
ENDCHAR
STARTCHAR Yacute
ENCODING 221
SWIDTH 667 0
DWIDTH 11 0
BBX 11 16 2 0
BITMAP
0300
0600
0400
0000
C0E0
C1C0
E380
6700
6E00
7C00
3800
3000
3000
6000
6000
6000
ENDCHAR
STARTCHAR Thorn
ENCODING 222
SWIDTH 667 0
DWIDTH 11 0
BBX 11 12 0 0
BITMAP
1800
1FC0
1FE0
3060
3060
3060
60C0
7FC0
7F00
C000
C000
C000
ENDCHAR
STARTCHAR germandbls
ENCODING 223
SWIDTH 611 0
DWIDTH 10 0
BBX 10 12 0 0
BITMAP
0780
1FC0
18C0
31C0
3780
3700
6180
6180
6180
C380
CF00
CE00
ENDCHAR
STARTCHAR agrave
ENCODING 224
SWIDTH 556 0
DWIDTH 9 0
BBX 8 13 0 0
BITMAP
18
08
04
00
3E
7F
63
07
7F
E6
CE
FE
77
ENDCHAR
STARTCHAR aacute
ENCODING 225
SWIDTH 556 0
DWIDTH 9 0
BBX 8 13 0 0
BITMAP
06
04
08
00
3E
7F
63
07
7F
E6
CE
FE
77
ENDCHAR
STARTCHAR acircumflex
ENCODING 226
SWIDTH 556 0
DWIDTH 9 0
BBX 8 13 0 0
BITMAP
06
0E
12
00
3E
7F
63
07
7F
E6
CE
FE
77
ENDCHAR
STARTCHAR atilde
ENCODING 227
SWIDTH 556 0
DWIDTH 9 0
BBX 8 12 0 0
BITMAP
1D
2E
00
3E
7F
63
07
7F
E6
CE
FE
77
ENDCHAR
STARTCHAR adieresis
ENCODING 228
SWIDTH 556 0
DWIDTH 9 0
BBX 8 12 0 0
BITMAP
36
36
00
3E
7F
63
07
7F
E6
CE
FE
77
ENDCHAR
STARTCHAR aring
ENCODING 229
SWIDTH 556 0
DWIDTH 9 0
BBX 8 13 0 0
BITMAP
0C
12
12
0C
3E
7F
63
07
7F
E6
CE
FE
77
ENDCHAR
STARTCHAR ae
ENCODING 230
SWIDTH 889 0
DWIDTH 15 0
BBX 14 9 0 0
BITMAP
3E78
7FFC
638C
07FC
7FFC
E700
CF08
FFF8
71F0
ENDCHAR
STARTCHAR ccedilla
ENCODING 231
SWIDTH 556 0
DWIDTH 9 0
BBX 9 13 0 -4
BITMAP
0F00
3F80
7180
6000
C000
C300
C700
FE00
7800
2000
3000
9800
7000
ENDCHAR
STARTCHAR egrave
ENCODING 232
SWIDTH 556 0
DWIDTH 9 0
BBX 8 13 0 0
BITMAP
0C
04
02
00
1E
3F
63
FF
FF
C0
E2
FE
7C
ENDCHAR
STARTCHAR eacute
ENCODING 233
SWIDTH 556 0
DWIDTH 9 0
BBX 8 13 0 0
BITMAP
06
04
08
00
1E
3F
63
FF
FF
C0
E2
FE
7C
ENDCHAR
STARTCHAR ecircumflex
ENCODING 234
SWIDTH 556 0
DWIDTH 9 0
BBX 8 13 0 0
BITMAP
06
0E
12
00
1E
3F
63
FF
FF
C0
E2
FE
7C
ENDCHAR
STARTCHAR edieresis
ENCODING 235
SWIDTH 556 0
DWIDTH 9 0
BBX 8 12 0 0
BITMAP
1B
1B
00
1E
3F
63
FF
FF
C0
E2
FE
7C
ENDCHAR
STARTCHAR igrave
ENCODING 236
SWIDTH 278 0
DWIDTH 4 0
BBX 5 13 0 0
BITMAP
30
10
08
00
30
30
30
60
60
60
C0
C0
C0
ENDCHAR
STARTCHAR iacute
ENCODING 237
SWIDTH 278 0
DWIDTH 4 0
BBX 5 13 0 0
BITMAP
18
10
20
00
30
30
30
60
60
60
C0
C0
C0
ENDCHAR
STARTCHAR icircumflex
ENCODING 238
SWIDTH 278 0
DWIDTH 4 0
BBX 5 13 0 0
BITMAP
18
38
48
00
30
30
30
60
60
60
C0
C0
C0
ENDCHAR
STARTCHAR idieresis
ENCODING 239
SWIDTH 278 0
DWIDTH 4 0
BBX 6 12 0 0
BITMAP
6C
6C
00
30
30
30
60
60
60
C0
C0
C0
ENDCHAR
STARTCHAR eth
ENCODING 240
SWIDTH 611 0
DWIDTH 10 0
BBX 9 13 0 0
BITMAP
0800
0500
0E00
1300
0F00
3F80
7180
6180
E180
C300
C700
FE00
7800
ENDCHAR
STARTCHAR ntilde
ENCODING 241
SWIDTH 611 0
DWIDTH 10 0
BBX 10 12 0 0
BITMAP
0E80
1700
0000
3780
3FC0
38C0
6180
6180
6180
C300
C300
C300
ENDCHAR
STARTCHAR ograve
ENCODING 242
SWIDTH 611 0
DWIDTH 10 0
BBX 9 13 0 0
BITMAP
0C00
0400
0200
0000
0F00
3F80
7180
6180
C180
C300
C700
FE00
7800
ENDCHAR
STARTCHAR oacute
ENCODING 243
SWIDTH 611 0
DWIDTH 10 0
BBX 9 13 0 0
BITMAP
0300
0200
0400
0000
0F00
3F80
7180
6180
C180
C300
C700
FE00
7800
ENDCHAR
STARTCHAR ocircumflex
ENCODING 244
SWIDTH 611 0
DWIDTH 10 0
BBX 9 13 0 0
BITMAP
0300
0700
0900
0000
0F00
3F80
7180
6180
C180
C300
C700
FE00
7800
ENDCHAR
STARTCHAR otilde
ENCODING 245
SWIDTH 611 0
DWIDTH 10 0
BBX 9 12 0 0
BITMAP
0E80
1700
0000
0F00
3F80
7180
6180
C180
C300
C700
FE00
7800
ENDCHAR
STARTCHAR odieresis
ENCODING 246
SWIDTH 611 0
DWIDTH 10 0
BBX 9 12 0 0
BITMAP
0D80
0D80
0000
0F00
3F80
7180
6180
C180
C300
C700
FE00
7800
ENDCHAR
STARTCHAR divide
ENCODING 247
SWIDTH 584 0
DWIDTH 10 0
BBX 9 8 0 0
BITMAP
0C00
0C00
0000
FF80
FF80
0000
1800
1800
ENDCHAR
STARTCHAR oslash
ENCODING 248
SWIDTH 611 0
DWIDTH 10 0
BBX 10 9 0 0
BITMAP
0F40
3F80
7380
6580
C980
D300
E700
7E00
B800
ENDCHAR
STARTCHAR ugrave
ENCODING 249
SWIDTH 611 0
DWIDTH 10 0
BBX 10 13 0 0
BITMAP
0C00
0400
0200
0000
30C0
30C0
30C0
6180
6180
6180
C700
FF00
7B00
ENDCHAR
STARTCHAR uacute
ENCODING 250
SWIDTH 611 0
DWIDTH 10 0
BBX 10 13 0 0
BITMAP
0300
0200
0400
0000
30C0
30C0
30C0
6180
6180
6180
C700
FF00
7B00
ENDCHAR
STARTCHAR ucircumflex
ENCODING 251
SWIDTH 611 0
DWIDTH 10 0
BBX 10 13 0 0
BITMAP
0300
0700
0900
0000
30C0
30C0
30C0
6180
6180
6180
C700
FF00
7B00
ENDCHAR
STARTCHAR udieresis
ENCODING 252
SWIDTH 611 0
DWIDTH 10 0
BBX 10 12 0 0
BITMAP
0D80
0D80
0000
30C0
30C0
30C0
6180
6180
6180
C700
FF00
7B00
ENDCHAR
STARTCHAR yacute
ENCODING 253
SWIDTH 556 0
DWIDTH 9 0
BBX 10 17 -1 -4
BITMAP
0300
0200
0400
0000
30C0
30C0
31C0
3980
1B80
1B00
1E00
1E00
1C00
1800
3800
F000
E000
ENDCHAR
STARTCHAR thorn
ENCODING 254
SWIDTH 611 0
DWIDTH 10 0
BBX 10 16 -1 -4
BITMAP
0C00
0C00
0C00
1B80
1FC0
18C0
38C0
30C0
3180
7180
7F00
6E00
6000
C000
C000
C000
ENDCHAR
STARTCHAR ydieresis
ENCODING 255
SWIDTH 556 0
DWIDTH 9 0
BBX 10 16 -1 -4
BITMAP
0D80
0D80
0000
30C0
30C0
31C0
3980
1B80
1B00
1E00
1E00
1C00
1800
3800
F000
E000
ENDCHAR
STARTCHAR Lslash
ENCODING -1
SWIDTH 611 0
DWIDTH 10 0
BBX 9 12 -1 0
BITMAP
0C00
0C00
0C00
1A00
1C00
1800
7000
B000
3000
6000
7F80
7F80
ENDCHAR
STARTCHAR OE
ENCODING -1
SWIDTH 1000 0
DWIDTH 17 0
BBX 16 12 1 0
BITMAP
0F7F
3FFF
78C0
60C0
E0C0
C1FE
C1FE
C180
C180
E380
7FFC
3BFC
ENDCHAR
STARTCHAR Scaron
ENCODING -1
SWIDTH 667 0
DWIDTH 11 0
BBX 10 13 0 0
BITMAP
0880
0500
0600
1F80
3FC0
70C0
3C00
0F00
0380
C180
C380
FF00
7E00
ENDCHAR
STARTCHAR Ydieresis
ENCODING -1
SWIDTH 667 0
DWIDTH 11 0
BBX 10 13 1 0
BITMAP
1B00
1B00
0000
C1C0
E380
6700
7E00
3C00
3800
3000
6000
6000
6000
ENDCHAR
STARTCHAR Zcaron
ENCODING -1
SWIDTH 611 0
DWIDTH 10 0
BBX 12 13 -1 0
BITMAP
0440
0280
0300
1FF0
1FF0
00E0
01C0
0780
0E00
3C00
7000
FF80
FF80
ENDCHAR
STARTCHAR breve
ENCODING -1
SWIDTH 333 0
DWIDTH 6 0
BBX 5 2 2 10
BITMAP
88
70
ENDCHAR
STARTCHAR bullet
ENCODING -1
SWIDTH 350 0
DWIDTH 6 0
BBX 4 4 1 3
BITMAP
70
F0
F0
E0
ENDCHAR
STARTCHAR caron
ENCODING -1
SWIDTH 333 0
DWIDTH 6 0
BBX 5 3 2 10
BITMAP
88
50
60
ENDCHAR
STARTCHAR circumflex
ENCODING -1
SWIDTH 333 0
DWIDTH 6 0
BBX 4 3 3 10
BITMAP
30
70
90
ENDCHAR
STARTCHAR dagger
ENCODING -1
SWIDTH 556 0
DWIDTH 9 0
BBX 7 15 1 -3
BITMAP
0C
0C
18
18
FE
FE
30
30
30
60
60
60
C0
C0
C0
ENDCHAR
STARTCHAR daggerdbl
ENCODING -1
SWIDTH 556 0
DWIDTH 9 0
BBX 8 15 0 -3
BITMAP
06
06
0C
0C
7F
7F
18
18
30
FE
FE
30
60
60
60
ENDCHAR
STARTCHAR dotaccent
ENCODING -1
SWIDTH 333 0
DWIDTH 6 0
BBX 2 2 4 10
BITMAP
C0
C0
ENDCHAR
STARTCHAR dotlessi
ENCODING -1
SWIDTH 278 0
DWIDTH 4 0
BBX 4 9 0 0
BITMAP
30
30
30
60
60
60
C0
C0
C0
ENDCHAR
STARTCHAR ellipsis
ENCODING -1
SWIDTH 1000 0
DWIDTH 15 0
BBX 12 2 2 0
BITMAP
C630
C630
ENDCHAR
STARTCHAR emdash
ENCODING -1
SWIDTH 1000 0
DWIDTH 16 0
BBX 17 2 -1 3
BITMAP
FFFF80
FFFF80
ENDCHAR
STARTCHAR endash
ENCODING -1
SWIDTH 556 0
DWIDTH 9 0
BBX 9 2 -1 3
BITMAP
FF80
FF80
ENDCHAR
STARTCHAR fi
ENCODING -1
SWIDTH 611 0
DWIDTH 10 0
BBX 10 12 0 0
BITMAP
0EC0
1EC0
1800
7D80
7D80
3180
6300
6300
6300
C600
C600
C600
ENDCHAR
STARTCHAR fl
ENCODING -1
SWIDTH 611 0
DWIDTH 10 0
BBX 10 12 0 0
BITMAP
0EC0
1EC0
18C0
7D80
7D80
3180
7300
6300
6300
C600
C600
C600
ENDCHAR
STARTCHAR florin
ENCODING -1
SWIDTH 556 0
DWIDTH 9 0
BBX 12 16 -3 -4
BITMAP
0070
00F0
01C0
0180
07E0
07E0
0300
0700
0600
0E00
0C00
1C00
1800
3800
F000
E000
ENDCHAR
STARTCHAR fraction
ENCODING -1
SWIDTH 167 0
DWIDTH 3 0
BBX 8 12 -2 0
BITMAP
01
02
02
04
04
08
10
10
20
40
40
80
ENDCHAR
STARTCHAR grave
ENCODING -1
SWIDTH 333 0
DWIDTH 6 0
BBX 3 3 2 10
BITMAP
C0
40
20
ENDCHAR
STARTCHAR guilsinglleft
ENCODING -1
SWIDTH 333 0
DWIDTH 6 0
BBX 4 5 2 3
BITMAP
30
60
C0
60
20
ENDCHAR
STARTCHAR guilsinglright
ENCODING -1
SWIDTH 333 0
DWIDTH 6 0
BBX 4 5 1 3
BITMAP
40
60
30
60
C0
ENDCHAR
STARTCHAR hungarumlaut
ENCODING -1
SWIDTH 333 0
DWIDTH 6 0
BBX 7 3 1 10
BITMAP
36
6C
90
ENDCHAR
STARTCHAR lslash
ENCODING -1
SWIDTH 278 0
DWIDTH 5 0
BBX 5 12 0 0
BITMAP
18
18
18
30
30
38
E0
60
60
C0
C0
C0
ENDCHAR
STARTCHAR oe
ENCODING -1
SWIDTH 944 0
DWIDTH 16 0
BBX 15 9 0 0
BITMAP
0F3C
3FFE
71C6
61FE
E1FE
C380
C7C4
FFFC
78F8
ENDCHAR
STARTCHAR ogonek
ENCODING -1
SWIDTH 333 0
DWIDTH 6 0
BBX 4 4 0 -3
BITMAP
40
80
D0
E0
ENDCHAR
STARTCHAR perthousand
ENCODING -1
SWIDTH 1000 0
DWIDTH 17 0
BBX 16 12 0 0
BITMAP
7080
E900
D900
BA00
7400
0400
0800
138E
275D
26DB
45D7
438E
ENDCHAR
STARTCHAR quotedblbase
ENCODING -1
SWIDTH 500 0
DWIDTH 8 0
BBX 7 5 -1 -3
BITMAP
66
66
22
44
88
ENDCHAR
STARTCHAR quotedblleft
ENCODING -1
SWIDTH 500 0
DWIDTH 8 0
BBX 7 5 1 7
BITMAP
22
44
88
CC
CC
ENDCHAR
STARTCHAR quotedblright
ENCODING -1
SWIDTH 500 0
DWIDTH 8 0
BBX 7 5 1 7
BITMAP
66
66
22
44
88
ENDCHAR
STARTCHAR quotesinglbase
ENCODING -1
SWIDTH 278 0
DWIDTH 4 0
BBX 3 5 0 -3
BITMAP
60
60
20
40
80
ENDCHAR
STARTCHAR quotesingle
ENCODING -1
SWIDTH 238 0
DWIDTH 4 0
BBX 2 4 2 8
BITMAP
C0
C0
C0
80
ENDCHAR
STARTCHAR ring
ENCODING -1
SWIDTH 333 0
DWIDTH 6 0
BBX 3 4 3 9
BITMAP
40
A0
A0
40
ENDCHAR
STARTCHAR scaron
ENCODING -1
SWIDTH 556 0
DWIDTH 9 0
BBX 8 13 0 0
BITMAP
22
14
18
00
3E
7F
63
70
3C
0E
C6
FE
7C
ENDCHAR
STARTCHAR tilde
ENCODING -1
SWIDTH 333 0
DWIDTH 6 0
BBX 6 2 2 10
BITMAP
74
B8
ENDCHAR
STARTCHAR trademark
ENCODING -1
SWIDTH 1000 0
DWIDTH 17 0
BBX 13 7 3 5
BITMAP
FB18
2338
6778
4550
CDB0
89A0
8920
ENDCHAR
STARTCHAR zcaron
ENCODING -1
SWIDTH 500 0
DWIDTH 8 0
BBX 9 13 -1 0
BITMAP
1100
0A00
0C00
0000
3F80
3F80
0700
0E00
1C00
3800
7000
FE00
FE00
ENDCHAR
ENDFONT
