STARTFONT 2.1
FONT -Adobe-Helvetica-Bold-O-Normal--20-140-100-100-P-103-ISO8859-1
SIZE 14 100 100
FONTBOUNDINGBOX 23 23 -3 -5
COMMENT $XConsortium: helvBO14.bdf,v 1.7 95/01/26 17:54:30 gildea Exp $
COMMENT 
COMMENT +
COMMENT  Copyright 1984-1989, 1994 Adobe Systems Incorporated.
COMMENT  Copyright 1988, 1994 Digital Equipment Corporation.
COMMENT
COMMENT  Adobe is a trademark of Adobe Systems Incorporated which may be
COMMENT  registered in certain jurisdictions.
COMMENT  Permission to use these trademarks is hereby granted only in
COMMENT  association with the images described in this file.
COMMENT
COMMENT  Permission to use, copy, modify, distribute and sell this software
COMMENT  and its documentation for any purpose and without fee is hereby
COMMENT  granted, provided that the above copyright notices appear in all
COMMENT  copies and that both those copyright notices and this permission
COMMENT  notice appear in supporting documentation, and that the names of
COMMENT  Adobe Systems and Digital Equipment Corporation not be used in
COMMENT  advertising or publicity pertaining to distribution of the software
COMMENT  without specific, written prior permission.  Adobe Systems and
COMMENT  Digital Equipment Corporation make no representations about the
COMMENT  suitability of this software for any purpose.  It is provided "as
COMMENT  is" without express or implied warranty.
COMMENT -
STARTPROPERTIES 28
FOUNDRY "Adobe"
FAMILY_NAME "Helvetica"
WEIGHT_NAME "Bold"
SLANT "O"
SETWIDTH_NAME "Normal"
ADD_STYLE_NAME ""
PIXEL_SIZE 20
POINT_SIZE 140
RESOLUTION_X 100
RESOLUTION_Y 100
SPACING "P"
AVERAGE_WIDTH 103
CHARSET_REGISTRY "ISO8859"
CHARSET_ENCODING "1"
CAP_HEIGHT 14
X_HEIGHT 10
FONT_ASCENT 16
FONT_DESCENT 5
FACE_NAME "Helvetica Bold Oblique"
COPYRIGHT "Copyright (c) 1984, 1987 Adobe Systems Incorporated. All Rights Reserved. Copyright (c) 1988, 1991 Digital Equipment Corporation. All Rights Reserved."
NOTICE "Helvetica is a trademark of Linotype-Hell AG and/or its subsidiaries.  "
_DEC_DEVICE_FONTNAMES "PS=Helvetica-BoldOblique"
_DEC_PRODUCTINFO "DECwindows Fonts V2.2, 07-Nov-1991"
DEFAULT_CHAR 32
RELATIVE_SETWIDTH 50
RELATIVE_WEIGHT 70
CHARSET_COLLECTIONS "ASCII ISO8859-1 ADOBE-STANDARD"
FULL_NAME "Helvetica Bold Oblique"
ENDPROPERTIES
CHARS 229
STARTCHAR space
ENCODING 32
SWIDTH 278 0
DWIDTH 5 0
BBX 1 1 0 0
BITMAP
00
ENDCHAR
STARTCHAR exclam
ENCODING 33
SWIDTH 333 0
DWIDTH 7 0
BBX 7 14 1 0
BITMAP
0E
0E
0E
1C
1C
18
18
38
30
30
00
00
E0
E0
ENDCHAR
STARTCHAR quotedbl
ENCODING 34
SWIDTH 474 0
DWIDTH 9 0
BBX 7 5 3 9
BITMAP
66
66
EE
CC
88
ENDCHAR
STARTCHAR numbersign
ENCODING 35
SWIDTH 556 0
DWIDTH 12 0
BBX 12 13 1 0
BITMAP
0360
0360
06C0
3FF0
3FF0
0D80
0D80
1B00
FFE0
FFE0
1B00
3600
3600
ENDCHAR
STARTCHAR dollar
ENCODING 36
SWIDTH 556 0
DWIDTH 10 0
BBX 10 16 1 -2
BITMAP
0300
0300
1F80
3FC0
76C0
6600
7E00
3F00
0F80
0D80
0980
DB80
FF00
7E00
3000
3000
ENDCHAR
STARTCHAR percent
ENCODING 37
SWIDTH 889 0
DWIDTH 16 0
BBX 12 13 3 0
BITMAP
3860
7CE0
CDC0
CD80
FB00
7700
0E00
1CE0
19F0
3B30
7330
E3E0
C1C0
ENDCHAR
STARTCHAR ampersand
ENCODING 38
SWIDTH 722 0
DWIDTH 14 0
BBX 12 13 1 0
BITMAP
0F00
1F80
1980
1980
1F00
3E00
7E60
E7E0
C3C0
C380
E7C0
7EE0
3C70
ENDCHAR
STARTCHAR quoteright
ENCODING 39
SWIDTH 278 0
DWIDTH 6 0
BBX 4 5 2 9
BITMAP
70
70
30
60
C0
ENDCHAR
STARTCHAR parenleft
ENCODING 40
SWIDTH 333 0
DWIDTH 7 0
BBX 8 18 1 -4
BITMAP
03
0E
1C
38
30
70
60
E0
E0
E0
E0
E0
E0
E0
60
70
38
1C
ENDCHAR
STARTCHAR parenright
ENCODING 41
SWIDTH 333 0
DWIDTH 8 0
BBX 8 18 -1 -4
BITMAP
18
0C
0E
06
07
07
07
07
07
07
07
06
0E
0C
1C
38
70
E0
ENDCHAR
STARTCHAR asterisk
ENCODING 42
SWIDTH 389 0
DWIDTH 9 0
BBX 6 6 3 8
BITMAP
10
D4
7C
70
F0
98
ENDCHAR
STARTCHAR plus
ENCODING 43
SWIDTH 584 0
DWIDTH 11 0
BBX 9 8 1 1
BITMAP
0E00
0E00
1C00
FF80
FF80
1C00
3800
3800
ENDCHAR
STARTCHAR comma
ENCODING 44
SWIDTH 278 0
DWIDTH 5 0
BBX 3 5 0 -2
BITMAP
60
60
60
20
C0
ENDCHAR
STARTCHAR minus
ENCODING 45
SWIDTH 584 0
DWIDTH 11 0
BBX 9 2 1 4
BITMAP
FF80
FF80
ENDCHAR
STARTCHAR period
ENCODING 46
SWIDTH 278 0
DWIDTH 5 0
BBX 2 3 1 0
BITMAP
C0
C0
C0
ENDCHAR
STARTCHAR slash
ENCODING 47
SWIDTH 278 0
DWIDTH 5 0
BBX 8 14 0 0
BITMAP
03
03
06
06
0C
0C
18
18
30
30
60
60
C0
C0
ENDCHAR
STARTCHAR zero
ENCODING 48
SWIDTH 556 0
DWIDTH 10 0
BBX 10 13 1 0
BITMAP
0F00
3F80
3B80
71C0
61C0
E1C0
E1C0
E1C0
E380
E380
7700
7E00
3C00
ENDCHAR
STARTCHAR one
ENCODING 49
SWIDTH 556 0
DWIDTH 10 0
BBX 7 13 3 0
BITMAP
0E
1E
7C
FC
1C
1C
38
38
38
38
70
70
70
ENDCHAR
STARTCHAR two
ENCODING 50
SWIDTH 556 0
DWIDTH 10 0
BBX 11 13 0 0
BITMAP
0FC0
1FE0
38E0
30E0
01E0
07C0
0F80
1E00
3800
7000
E000
FF80
FF80
ENDCHAR
STARTCHAR three
ENCODING 51
SWIDTH 556 0
DWIDTH 10 0
BBX 10 13 1 0
BITMAP
0F80
1FC0
39C0
30C0
01C0
0F80
0F00
0380
0180
C380
E780
7F00
3E00
ENDCHAR
STARTCHAR four
ENCODING 52
SWIDTH 556 0
DWIDTH 10 0
BBX 10 13 1 0
BITMAP
01C0
03C0
07C0
0F80
1D80
3B80
7300
E300
FF80
FF80
0E00
0E00
0E00
ENDCHAR
STARTCHAR five
ENCODING 53
SWIDTH 556 0
DWIDTH 10 0
BBX 10 13 1 0
BITMAP
1FC0
1FC0
3800
3000
7C00
7F00
0700
0380
0380
C380
C700
FF00
7C00
ENDCHAR
STARTCHAR six
ENCODING 54
SWIDTH 556 0
DWIDTH 10 0
BBX 10 13 1 0
BITMAP
0F80
1FC0
38C0
7000
7000
EE00
FF00
F380
E180
E180
7380
7F00
3E00
ENDCHAR
STARTCHAR seven
ENCODING 55
SWIDTH 556 0
DWIDTH 10 0
BBX 10 13 1 0
BITMAP
3FC0
3FC0
01C0
0380
0700
0E00
1C00
1800
3800
7000
7000
E000
E000
ENDCHAR
STARTCHAR eight
ENCODING 56
SWIDTH 556 0
DWIDTH 10 0
BBX 10 13 1 0
BITMAP
0F80
1FC0
38C0
30C0
39C0
1F80
3F00
7380
E180
E180
E380
7F00
3E00
ENDCHAR
STARTCHAR nine
ENCODING 57
SWIDTH 556 0
DWIDTH 10 0
BBX 10 13 1 0
BITMAP
0F00
1F80
39C0
70C0
70C0
71C0
3F80
1F80
0380
0300
C700
FE00
7C00
ENDCHAR
STARTCHAR colon
ENCODING 58
SWIDTH 333 0
DWIDTH 6 0
BBX 4 10 1 0
BITMAP
30
30
30
00
00
00
00
C0
C0
C0
ENDCHAR
STARTCHAR semicolon
ENCODING 59
SWIDTH 333 0
DWIDTH 6 0
BBX 5 12 0 -2
BITMAP
18
18
18
00
00
00
00
60
60
60
20
C0
ENDCHAR
STARTCHAR less
ENCODING 60
SWIDTH 584 0
DWIDTH 11 0
BBX 9 7 2 2
BITMAP
0380
1F00
7800
E000
7800
1E00
0700
ENDCHAR
STARTCHAR equal
ENCODING 61
SWIDTH 584 0
DWIDTH 11 0
BBX 9 5 1 3
BITMAP
7F80
7F80
0000
FF00
FF00
ENDCHAR
STARTCHAR greater
ENCODING 62
SWIDTH 584 0
DWIDTH 11 0
BBX 9 7 1 2
BITMAP
7000
3C00
0F00
0380
0F00
7C00
E000
ENDCHAR
STARTCHAR question
ENCODING 63
SWIDTH 611 0
DWIDTH 11 0
BBX 9 14 3 0
BITMAP
3F00
7F80
E380
E380
0700
1E00
3C00
7000
E000
E000
0000
0000
E000
E000
ENDCHAR
STARTCHAR at
ENCODING 64
SWIDTH 975 0
DWIDTH 18 0
BBX 16 17 2 -3
BITMAP
03F0
0FFC
1E1E
3807
31DB
73FB
6733
E673
CC66
CCE6
CCEE
CFFC
6738
7000
3800
1FC0
07C0
ENDCHAR
STARTCHAR A
ENCODING 65
SWIDTH 722 0
DWIDTH 13 0
BBX 12 14 0 0
BITMAP
01C0
03E0
03E0
0760
0760
0E70
0E70
1C70
3C70
3FF0
7FF0
7070
E070
E070
ENDCHAR
STARTCHAR B
ENCODING 66
SWIDTH 722 0
DWIDTH 13 0
BBX 12 14 0 0
BITMAP
1FE0
1FF0
1C70
3870
3870
38E0
7FC0
7FE0
70F0
7070
E070
E0F0
FFE0
FFC0
ENDCHAR
STARTCHAR C
ENCODING 67
SWIDTH 722 0
DWIDTH 14 0
BBX 13 14 1 0
BITMAP
07E0
1FF0
3E38
3838
7000
7000
E000
E000
E000
E070
E070
71E0
7FC0
1F00
ENDCHAR
STARTCHAR D
ENCODING 68
SWIDTH 722 0
DWIDTH 14 0
BBX 14 14 0 0
BITMAP
1FE0
1FF8
1C38
381C
381C
381C
301C
701C
7038
7038
E070
E1E0
FFC0
FF00
ENDCHAR
STARTCHAR E
ENCODING 69
SWIDTH 667 0
DWIDTH 12 0
BBX 13 14 0 0
BITMAP
1FF8
1FF8
1C00
3800
3800
3800
3FE0
7FE0
7000
7000
7000
E000
FFC0
FFC0
ENDCHAR
STARTCHAR F
ENCODING 70
SWIDTH 611 0
DWIDTH 11 0
BBX 13 14 0 0
BITMAP
1FF8
1FF8
1C00
3800
3800
3800
3FC0
7FC0
7000
7000
7000
E000
E000
E000
ENDCHAR
STARTCHAR G
ENCODING 71
SWIDTH 778 0
DWIDTH 14 0
BBX 13 14 1 0
BITMAP
03F0
0FF8
1E38
3838
7000
7000
E000
E3F0
E3F0
E070
E070
70E0
7FE0
1F60
ENDCHAR
STARTCHAR H
ENCODING 72
SWIDTH 722 0
DWIDTH 13 0
BBX 14 14 0 0
BITMAP
1C1C
1C1C
1C1C
3838
3838
3838
3FF8
7FF0
7070
7070
7070
E0E0
E0E0
E0E0
ENDCHAR
STARTCHAR I
ENCODING 73
SWIDTH 278 0
DWIDTH 5 0
BBX 6 14 0 0
BITMAP
1C
1C
1C
38
38
38
38
70
70
70
70
E0
E0
E0
ENDCHAR
STARTCHAR J
ENCODING 74
SWIDTH 556 0
DWIDTH 10 0
BBX 11 14 0 0
BITMAP
00E0
00E0
00E0
01C0
01C0
01C0
01C0
0380
0380
E380
E380
E700
FF00
7E00
ENDCHAR
STARTCHAR K
ENCODING 75
SWIDTH 722 0
DWIDTH 14 0
BBX 15 14 0 0
BITMAP
1C1E
1C3C
1C78
38E0
39C0
3B80
3700
7F80
7F80
7B80
71C0
E1C0
E0E0
E0E0
ENDCHAR
STARTCHAR L
ENCODING 76
SWIDTH 611 0
DWIDTH 10 0
BBX 9 14 0 0
BITMAP
1C00
1C00
1C00
3800
3800
3800
3800
7000
7000
7000
7000
E000
FF80
FF80
ENDCHAR
STARTCHAR M
ENCODING 77
SWIDTH 833 0
DWIDTH 17 0
BBX 18 14 0 0
BITMAP
1C01C0
1C03C0
1E07C0
3E0780
3E0F80
3E1F80
363B80
763700
777700
776700
73C700
E3CE00
E38E00
E30E00
ENDCHAR
STARTCHAR N
ENCODING 78
SWIDTH 722 0
DWIDTH 14 0
BBX 15 14 0 0
BITMAP
1C0E
1C0E
1E0E
3E1C
3F1C
3B1C
3B98
73B8
71B8
71F8
70F0
E0F0
E070
E070
ENDCHAR
STARTCHAR O
ENCODING 79
SWIDTH 778 0
DWIDTH 15 0
BBX 14 14 1 0
BITMAP
07E0
1FF8
3E38
381C
701C
701C
E01C
E01C
E038
E038
E070
71F0
7FE0
1F80
ENDCHAR
STARTCHAR P
ENCODING 80
SWIDTH 667 0
DWIDTH 12 0
BBX 13 14 0 0
BITMAP
1FF0
1FF8
1C38
3838
3838
3878
3FF0
7FC0
7000
7000
7000
E000
E000
E000
ENDCHAR
STARTCHAR Q
ENCODING 81
SWIDTH 778 0
DWIDTH 16 0
BBX 15 14 1 0
BITMAP
03F0
0FFC
1E1C
380E
780E
700E
700E
E00C
E01C
E19C
E1F8
70F0
7FF8
1FB8
ENDCHAR
STARTCHAR R
ENCODING 82
SWIDTH 722 0
DWIDTH 13 0
BBX 13 14 0 0
BITMAP
1FF0
1FF8
1C38
3838
3838
3878
3FF0
7FE0
7070
7070
7070
E0E0
E0E0
E0E0
ENDCHAR
STARTCHAR S
ENCODING 83
SWIDTH 667 0
DWIDTH 12 0
BBX 11 14 1 0
BITMAP
0FC0
3FE0
78E0
70E0
7000
7C00
3F00
0F80
03C0
01C0
E1C0
E3C0
7F80
3F00
ENDCHAR
STARTCHAR T
ENCODING 84
SWIDTH 611 0
DWIDTH 11 0
BBX 11 14 2 0
BITMAP
FFE0
FFE0
0E00
1C00
1C00
1C00
1C00
3800
3800
3800
3800
7000
7000
7000
ENDCHAR
STARTCHAR U
ENCODING 85
SWIDTH 722 0
DWIDTH 13 0
BBX 13 14 1 0
BITMAP
3838
3838
3838
7070
7070
7070
7070
E0E0
E0E0
E0E0
E1C0
E3C0
FF80
3F00
ENDCHAR
STARTCHAR V
ENCODING 86
SWIDTH 667 0
DWIDTH 13 0
BBX 11 14 3 0
BITMAP
E0E0
E0E0
E1C0
E1C0
E380
E380
E700
E700
EE00
6E00
7C00
7C00
7800
7000
ENDCHAR
STARTCHAR W
ENCODING 87
SWIDTH 944 0
DWIDTH 18 0
BBX 17 14 2 0
BITMAP
E1C380
E1C380
E1C380
E3C700
E3C700
E7CE00
E6CE00
EECC00
ECDC00
7CD800
78F800
78F000
70E000
70E000
ENDCHAR
STARTCHAR X
ENCODING 88
SWIDTH 667 0
DWIDTH 12 0
BBX 15 14 -1 0
BITMAP
1C0E
1C0E
0E1C
0E38
0670
07E0
03C0
0780
0F80
1D80
39C0
71C0
E0E0
E0E0
ENDCHAR
STARTCHAR Y
ENCODING 89
SWIDTH 667 0
DWIDTH 13 0
BBX 11 14 3 0
BITMAP
E0E0
E1E0
E1C0
E380
E380
6700
7700
7E00
3C00
3800
3800
7000
7000
7000
ENDCHAR
STARTCHAR Z
ENCODING 90
SWIDTH 611 0
DWIDTH 11 0
BBX 13 14 -1 0
BITMAP
0FF8
0FF8
0038
0070
00E0
01C0
0380
0700
0E00
1C00
3800
7000
FFC0
FFC0
ENDCHAR
STARTCHAR bracketleft
ENCODING 91
SWIDTH 333 0
DWIDTH 6 0
BBX 9 18 -1 -4
BITMAP
0F80
0F80
0E00
0E00
1C00
1C00
1C00
3800
3800
3800
3800
7000
7000
7000
E000
E000
F800
F800
ENDCHAR
STARTCHAR backslash
ENCODING 92
SWIDTH 278 0
DWIDTH 5 0
BBX 3 14 2 0
BITMAP
C0
C0
C0
C0
C0
C0
C0
60
60
60
60
60
60
60
ENDCHAR
STARTCHAR bracketright
ENCODING 93
SWIDTH 333 0
DWIDTH 6 0
BBX 9 18 -2 -4
BITMAP
0F80
0F80
0380
0380
0700
0700
0700
0E00
0E00
0E00
0E00
1C00
1C00
1C00
3800
3800
F800
F800
ENDCHAR
STARTCHAR asciicircum
ENCODING 94
SWIDTH 584 0
DWIDTH 11 0
BBX 9 7 2 6
BITMAP
0600
0E00
1F00
3B00
7300
E180
C180
ENDCHAR
STARTCHAR underscore
ENCODING 95
SWIDTH 556 0
DWIDTH 10 0
BBX 10 2 -1 -4
BITMAP
FFC0
FFC0
ENDCHAR
STARTCHAR quoteleft
ENCODING 96
SWIDTH 278 0
DWIDTH 6 0
BBX 4 5 3 9
BITMAP
30
60
C0
E0
E0
ENDCHAR
STARTCHAR a
ENCODING 97
SWIDTH 556 0
DWIDTH 10 0
BBX 9 10 0 0
BITMAP
1F00
3F80
3180
0F80
3F80
7380
E380
E700
FF00
7700
ENDCHAR
STARTCHAR b
ENCODING 98
SWIDTH 611 0
DWIDTH 11 0
BBX 11 14 0 0
BITMAP
1C00
1C00
1C00
3800
3B80
3FC0
3CE0
78E0
70E0
70E0
71C0
F3C0
FF80
EE00
ENDCHAR
STARTCHAR c
ENCODING 99
SWIDTH 556 0
DWIDTH 10 0
BBX 10 10 0 0
BITMAP
0F80
3FC0
78C0
7000
E000
E000
E180
E380
7F00
3E00
ENDCHAR
STARTCHAR d
ENCODING 100
SWIDTH 611 0
DWIDTH 11 0
BBX 12 14 0 0
BITMAP
0070
0070
0070
00E0
0EE0
3FE0
79E0
71C0
E1C0
E1C0
E3C0
E780
7F80
3B80
ENDCHAR
STARTCHAR e
ENCODING 101
SWIDTH 556 0
DWIDTH 10 0
BBX 10 10 0 0
BITMAP
0F00
3F80
79C0
71C0
FFC0
FFC0
E000
E380
7F80
3E00
ENDCHAR
STARTCHAR f
ENCODING 102
SWIDTH 333 0
DWIDTH 7 0
BBX 8 14 1 0
BITMAP
0F
1F
1C
38
FE
FE
38
70
70
70
70
E0
E0
E0
ENDCHAR
STARTCHAR g
ENCODING 103
SWIDTH 611 0
DWIDTH 11 0
BBX 11 14 0 -4
BITMAP
0EE0
3FE0
79C0
71C0
E1C0
E1C0
E380
E780
7F80
3B80
0300
C700
FE00
7C00
ENDCHAR
STARTCHAR h
ENCODING 104
SWIDTH 611 0
DWIDTH 11 0
BBX 11 14 0 0
BITMAP
1C00
1C00
1C00
3800
3BC0
3FE0
3CE0
70E0
71C0
71C0
71C0
E380
E380
E380
ENDCHAR
STARTCHAR i
ENCODING 105
SWIDTH 278 0
DWIDTH 5 0
BBX 6 14 0 0
BITMAP
1C
1C
00
00
38
38
38
70
70
70
70
E0
E0
E0
ENDCHAR
STARTCHAR j
ENCODING 106
SWIDTH 278 0
DWIDTH 5 0
BBX 9 18 -3 -4
BITMAP
0380
0380
0000
0000
0700
0700
0700
0E00
0E00
0E00
0E00
1C00
1C00
1C00
1800
3800
F800
F000
ENDCHAR
STARTCHAR k
ENCODING 107
SWIDTH 556 0
DWIDTH 10 0
BBX 10 14 0 0
BITMAP
1C00
1C00
1C00
3800
39C0
3B80
3700
7E00
7C00
7E00
7700
E700
E380
E380
ENDCHAR
STARTCHAR l
ENCODING 108
SWIDTH 278 0
DWIDTH 5 0
BBX 6 14 0 0
BITMAP
1C
1C
1C
38
38
38
38
70
70
70
70
E0
E0
E0
ENDCHAR
STARTCHAR m
ENCODING 109
SWIDTH 889 0
DWIDTH 15 0
BBX 15 10 0 0
BITMAP
3B9C
3FFE
3DEE
79CE
739C
739C
739C
E738
E738
E738
ENDCHAR
STARTCHAR n
ENCODING 110
SWIDTH 611 0
DWIDTH 11 0
BBX 11 10 0 0
BITMAP
3BC0
3FE0
3CE0
70E0
71C0
71C0
71C0
E380
E380
E380
ENDCHAR
STARTCHAR o
ENCODING 111
SWIDTH 611 0
DWIDTH 10 0
BBX 10 10 0 0
BITMAP
0F00
3F80
79C0
71C0
E1C0
E1C0
E380
E780
7F00
3C00
ENDCHAR
STARTCHAR p
ENCODING 112
SWIDTH 611 0
DWIDTH 11 0
BBX 12 14 -1 -4
BITMAP
1DC0
1FE0
1E70
3C70
3870
3870
38E0
79E0
7FC0
7700
7000
E000
E000
E000
ENDCHAR
STARTCHAR q
ENCODING 113
SWIDTH 611 0
DWIDTH 11 0
BBX 11 14 0 -4
BITMAP
0EE0
3FE0
79E0
71C0
E1C0
E1C0
E3C0
E780
7F80
3B80
0380
0700
0700
0700
ENDCHAR
STARTCHAR r
ENCODING 114
SWIDTH 389 0
DWIDTH 7 0
BBX 8 10 0 0
BITMAP
37
3F
3C
78
70
70
70
E0
E0
E0
ENDCHAR
STARTCHAR s
ENCODING 115
SWIDTH 556 0
DWIDTH 10 0
BBX 10 10 0 0
BITMAP
0F80
3FC0
79C0
7000
3F00
1F80
0380
E780
FF00
7C00
ENDCHAR
STARTCHAR t
ENCODING 116
SWIDTH 333 0
DWIDTH 7 0
BBX 7 13 1 0
BITMAP
1C
1C
38
FE
FE
38
70
70
70
E0
E0
F0
70
ENDCHAR
STARTCHAR u
ENCODING 117
SWIDTH 611 0
DWIDTH 11 0
BBX 11 10 0 0
BITMAP
38E0
38E0
38E0
71C0
71C0
71C0
E3C0
E780
FF80
7B80
ENDCHAR
STARTCHAR v
ENCODING 118
SWIDTH 556 0
DWIDTH 9 0
BBX 9 10 1 0
BITMAP
E380
E380
E700
E700
EE00
EE00
7C00
7800
7800
7000
ENDCHAR
STARTCHAR w
ENCODING 119
SWIDTH 778 0
DWIDTH 14 0
BBX 13 10 1 0
BITMAP
E738
E738
E738
E770
EF70
6F60
7BE0
7BC0
7380
7380
ENDCHAR
STARTCHAR x
ENCODING 120
SWIDTH 556 0
DWIDTH 10 0
BBX 10 10 0 0
BITMAP
38C0
39C0
1B80
1F00
0E00
1E00
3F00
7300
E380
C380
ENDCHAR
STARTCHAR y
ENCODING 121
SWIDTH 556 0
DWIDTH 9 0
BBX 10 14 0 -4
BITMAP
71C0
71C0
71C0
7380
7380
7300
3700
3E00
1E00
1C00
1C00
3800
F000
E000
ENDCHAR
STARTCHAR z
ENCODING 122
SWIDTH 500 0
DWIDTH 9 0
BBX 10 10 0 0
BITMAP
3FC0
3FC0
0380
0700
0E00
1C00
3800
7000
FF00
FF00
ENDCHAR
STARTCHAR braceleft
ENCODING 123
SWIDTH 389 0
DWIDTH 8 0
BBX 7 18 1 -4
BITMAP
0E
1C
18
18
18
18
38
70
E0
70
30
30
60
60
60
60
70
38
ENDCHAR
STARTCHAR bar
ENCODING 124
SWIDTH 280 0
DWIDTH 5 0
BBX 6 18 0 -4
BITMAP
0C
0C
0C
18
18
18
18
30
30
30
30
60
60
60
60
C0
C0
C0
ENDCHAR
STARTCHAR braceright
ENCODING 125
SWIDTH 389 0
DWIDTH 9 0
BBX 7 18 1 -4
BITMAP
38
1C
0C
0C
18
18
18
1C
0E
1C
38
30
30
30
30
30
70
E0
ENDCHAR
STARTCHAR asciitilde
ENCODING 126
SWIDTH 584 0
DWIDTH 11 0
BBX 9 3 1 4
BITMAP
7980
FF80
CF00
ENDCHAR
STARTCHAR space
ENCODING 160
SWIDTH 278 0
DWIDTH 5 0
BBX 1 1 0 0
BITMAP
00
ENDCHAR
STARTCHAR exclamdown
ENCODING 161
SWIDTH 333 0
DWIDTH 7 0
BBX 6 14 0 -4
BITMAP
1C
1C
00
00
18
18
38
30
70
70
70
E0
E0
E0
ENDCHAR
STARTCHAR cent
ENCODING 162
SWIDTH 556 0
DWIDTH 12 0
BBX 10 12 1 -1
BITMAP
0180
1F80
3FC0
76C0
6600
EC00
CC00
D980
DB80
FF00
7E00
6000
ENDCHAR
STARTCHAR sterling
ENCODING 163
SWIDTH 556 0
DWIDTH 11 0
BBX 11 13 0 0
BITMAP
07C0
0FE0
1C60
1C00
1C00
0E00
3F80
0E00
1C00
3800
70C0
FFC0
EF80
ENDCHAR
STARTCHAR currency
ENCODING 164
SWIDTH 556 0
DWIDTH 11 0
BBX 9 8 1 2
BITMAP
6180
7F80
3300
3300
6600
6600
FF00
C300
ENDCHAR
STARTCHAR yen
ENCODING 165
SWIDTH 556 0
DWIDTH 10 0
BBX 11 13 1 0
BITMAP
7060
70E0
71C0
3B80
3F00
1E00
FF80
1C00
FF80
1C00
3800
3800
3800
ENDCHAR
STARTCHAR brokenbar
ENCODING 166
SWIDTH 280 0
DWIDTH 5 0
BBX 5 17 0 -3
BITMAP
18
18
18
30
30
30
30
00
00
00
60
60
60
60
C0
C0
C0
ENDCHAR
STARTCHAR section
ENCODING 167
SWIDTH 556 0
DWIDTH 10 0
BBX 11 18 0 -4
BITMAP
07C0
0FE0
1C60
1860
1C00
1F00
3F80
63C0
61C0
70C0
39C0
1F80
0F00
0700
C300
C700
FE00
7C00
ENDCHAR
STARTCHAR dieresis
ENCODING 168
SWIDTH 333 0
DWIDTH 7 0
BBX 6 2 2 11
BITMAP
CC
CC
ENDCHAR
STARTCHAR copyright
ENCODING 169
SWIDTH 737 0
DWIDTH 15 0
BBX 15 14 1 0
BITMAP
03C0
0C30
3008
23CC
6666
CC66
CC06
D806
D866
CCCC
4788
6018
3870
0FC0
ENDCHAR
STARTCHAR ordfeminine
ENCODING 170
SWIDTH 370 0
DWIDTH 8 0
BBX 7 9 2 5
BITMAP
1C
26
1E
36
6C
3C
00
FC
FC
ENDCHAR
STARTCHAR guillemotleft
ENCODING 171
SWIDTH 556 0
DWIDTH 14 0
BBX 11 5 2 3
BITMAP
1CE0
7BC0
E700
7380
39C0
ENDCHAR
STARTCHAR logicalnot
ENCODING 172
SWIDTH 584 0
DWIDTH 11 0
BBX 9 5 2 3
BITMAP
FF80
FF80
0180
0300
0300
ENDCHAR
STARTCHAR hyphen
ENCODING 173
SWIDTH 333 0
DWIDTH 6 0
BBX 5 2 1 4
BITMAP
F8
F8
ENDCHAR
STARTCHAR registered
ENCODING 174
SWIDTH 737 0
DWIDTH 15 0
BBX 14 14 1 0
BITMAP
07C0
1830
3018
2788
66CC
C44C
CCCC
CF8C
CD0C
D998
58D8
6030
38E0
0F80
ENDCHAR
STARTCHAR macron
ENCODING 175
SWIDTH 333 0
DWIDTH 7 0
BBX 5 2 3 11
BITMAP
F8
F8
ENDCHAR
STARTCHAR degree
ENCODING 176
SWIDTH 400 0
DWIDTH 7 0
BBX 6 6 1 7
BITMAP
38
7C
CC
CC
F8
70
ENDCHAR
STARTCHAR plusminus
ENCODING 177
SWIDTH 584 0
DWIDTH 11 0
BBX 10 9 0 0
BITMAP
0700
0700
7FC0
7FC0
1C00
1C00
0000
FF80
FF80
ENDCHAR
STARTCHAR twosuperior
ENCODING 178
SWIDTH 333 0
DWIDTH 6 0
BBX 6 8 1 5
BITMAP
38
7C
CC
18
30
60
F8
F8
ENDCHAR
STARTCHAR threesuperior
ENCODING 179
SWIDTH 333 0
DWIDTH 6 0
BBX 7 8 0 5
BITMAP
1C
3E
66
18
1C
CC
F8
70
ENDCHAR
STARTCHAR acute
ENCODING 180
SWIDTH 333 0
DWIDTH 5 0
BBX 5 3 2 11
BITMAP
38
70
E0
ENDCHAR
STARTCHAR mu
ENCODING 181
SWIDTH 611 0
DWIDTH 11 0
BBX 13 14 -2 -4
BITMAP
0E38
0E38
0E38
1C70
1C70
1C70
38F0
39E0
3FE0
7EE0
7000
7000
E000
E000
ENDCHAR
STARTCHAR paragraph
ENCODING 182
SWIDTH 556 0
DWIDTH 10 0
BBX 10 18 2 -4
BITMAP
1FC0
3D80
7980
F900
F900
F300
F300
F200
7200
3600
2600
6400
6400
6C00
4C00
C800
D800
D800
ENDCHAR
STARTCHAR periodcentered
ENCODING 183
SWIDTH 278 0
DWIDTH 4 0
BBX 2 2 1 4
BITMAP
C0
C0
ENDCHAR
STARTCHAR cedilla
ENCODING 184
SWIDTH 333 0
DWIDTH 7 0
BBX 5 5 0 -5
BITMAP
30
38
18
F8
F0
ENDCHAR
STARTCHAR onesuperior
ENCODING 185
SWIDTH 333 0
DWIDTH 6 0
BBX 4 8 2 5
BITMAP
30
F0
30
60
60
C0
C0
C0
ENDCHAR
STARTCHAR ordmasculine
ENCODING 186
SWIDTH 365 0
DWIDTH 8 0
BBX 7 9 2 5
BITMAP
1C
3E
66
66
7C
38
00
FC
FC
ENDCHAR
STARTCHAR guillemotright
ENCODING 187
SWIDTH 556 0
DWIDTH 14 0
BBX 11 5 2 3
BITMAP
7380
39C0
1CE0
7BC0
E700
ENDCHAR
STARTCHAR onequarter
ENCODING 188
SWIDTH 834 0
DWIDTH 15 0
BBX 12 13 2 0
BITMAP
30C0
F1C0
3380
6300
6600
CE60
CCE0
D9E0
3B60
37F0
67F0
E0C0
C0C0
ENDCHAR
STARTCHAR onehalf
ENCODING 189
SWIDTH 834 0
DWIDTH 15 0
BBX 12 13 2 0
BITMAP
30C0
F1C0
3380
6300
6600
CEE0
CDF0
DB30
3860
30C0
6180
E3E0
C3E0
ENDCHAR
STARTCHAR threequarters
ENCODING 190
SWIDTH 834 0
DWIDTH 15 0
BBX 14 13 1 0
BITMAP
1C30
3E70
66E0
18C0
1D80
CF98
FB38
7678
0ED8
0DFC
19FC
3830
3030
ENDCHAR
STARTCHAR questiondown
ENCODING 191
SWIDTH 611 0
DWIDTH 11 0
BBX 9 14 0 -4
BITMAP
0380
0380
0000
0000
0380
0380
0700
1E00
3C00
7000
E380
E380
FF00
7E00
ENDCHAR
STARTCHAR Agrave
ENCODING 192
SWIDTH 722 0
DWIDTH 13 0
BBX 12 18 0 0
BITMAP
0380
01C0
00E0
0000
01C0
03E0
03E0
0760
0760
0E70
0E70
1C70
3C70
3FF0
7FF0
7070
E070
E070
ENDCHAR
STARTCHAR Aacute
ENCODING 193
SWIDTH 722 0
DWIDTH 13 0
BBX 13 18 0 0
BITMAP
0038
0070
00E0
0000
01C0
03E0
03E0
0760
0760
0E70
0E70
1C70
3C70
3FF0
7FF0
7070
E070
E070
ENDCHAR
STARTCHAR Acircumflex
ENCODING 194
SWIDTH 722 0
DWIDTH 13 0
BBX 13 18 0 0
BITMAP
00E0
01F0
03B8
0000
01C0
03E0
03E0
0760
0760
0E70
0E70
1C70
3C70
3FF0
7FF0
7070
E070
E070
ENDCHAR
STARTCHAR Atilde
ENCODING 195
SWIDTH 722 0
DWIDTH 13 0
BBX 14 18 0 0
BITMAP
01C4
03F8
0470
0000
01C0
03E0
03E0
0760
0760
0E70
0E70
1C70
3C70
3FF0
7FF0
7070
E070
E070
ENDCHAR
STARTCHAR Adieresis
ENCODING 196
SWIDTH 722 0
DWIDTH 13 0
BBX 12 18 0 0
BITMAP
0330
0330
0330
0000
01C0
03E0
03E0
0760
0760
0E70
0E70
1C70
3C70
3FF0
7FF0
7070
E070
E070
ENDCHAR
STARTCHAR Aring
ENCODING 197
SWIDTH 722 0
DWIDTH 13 0
BBX 12 18 0 0
BITMAP
01C0
0360
0360
01C0
01C0
03E0
03E0
0760
0760
0E70
0E70
1C70
3C70
3FF0
7FF0
7070
E070
E070
ENDCHAR
STARTCHAR AE
ENCODING 198
SWIDTH 1000 0
DWIDTH 19 0
BBX 20 14 0 0
BITMAP
01FFF0
03FFF0
07F800
077000
0E7000
0E7000
1C7FC0
1CFFC0
38E000
3FE000
7FE000
71C000
E1FF80
E1FF80
ENDCHAR
STARTCHAR Ccedilla
ENCODING 199
SWIDTH 722 0
DWIDTH 14 0
BBX 13 19 1 -5
BITMAP
07E0
1FF0
3E38
3838
7000
7000
E000
E000
E000
E070
E0F0
71E0
7FC0
1F00
1800
1C00
0C00
7C00
7800
ENDCHAR
STARTCHAR Egrave
ENCODING 200
SWIDTH 667 0
DWIDTH 12 0
BBX 13 18 0 0
BITMAP
0700
0380
01C0
0000
1FF8
1FF8
1C00
3800
3800
3800
3FE0
7FE0
7000
7000
7000
E000
FFC0
FFC0
ENDCHAR
STARTCHAR Eacute
ENCODING 201
SWIDTH 667 0
DWIDTH 12 0
BBX 13 18 0 0
BITMAP
0070
00E0
01C0
0000
1FF8
1FF8
1C00
3800
3800
3800
3FE0
7FE0
7000
7000
7000
E000
FFC0
FFC0
ENDCHAR
STARTCHAR Ecircumflex
ENCODING 202
SWIDTH 667 0
DWIDTH 12 0
BBX 13 18 0 0
BITMAP
01C0
03E0
0770
0000
1FF8
1FF8
1C00
3800
3800
3800
3FE0
7FE0
7000
7000
7000
E000
FFC0
FFC0
ENDCHAR
STARTCHAR Edieresis
ENCODING 203
SWIDTH 667 0
DWIDTH 12 0
BBX 13 18 0 0
BITMAP
0630
0630
0630
0000
1FF8
1FF8
1C00
3800
3800
3800
3FE0
7FE0
7000
7000
7000
E000
FFC0
FFC0
ENDCHAR
STARTCHAR Igrave
ENCODING 204
SWIDTH 278 0
DWIDTH 5 0
BBX 6 18 0 0
BITMAP
70
38
1C
00
1C
1C
1C
38
38
38
38
70
70
70
70
E0
E0
E0
ENDCHAR
STARTCHAR Iacute
ENCODING 205
SWIDTH 278 0
DWIDTH 5 0
BBX 8 18 0 0
BITMAP
07
0E
1C
00
1C
1C
1C
38
38
38
38
70
70
70
70
E0
E0
E0
ENDCHAR
STARTCHAR Icircumflex
ENCODING 206
SWIDTH 278 0
DWIDTH 5 0
BBX 9 18 0 0
BITMAP
0E00
1F00
3B80
0000
1C00
1C00
1C00
3800
3800
3800
3800
7000
7000
7000
7000
E000
E000
E000
ENDCHAR
STARTCHAR Idieresis
ENCODING 207
SWIDTH 278 0
DWIDTH 5 0
BBX 8 18 0 0
BITMAP
33
33
33
00
1C
1C
1C
38
38
38
38
70
70
70
70
E0
E0
E0
ENDCHAR
STARTCHAR Eth
ENCODING 208
SWIDTH 722 0
DWIDTH 14 0
BBX 14 14 0 0
BITMAP
1FE0
1FF8
1C38
381C
381C
381C
FF1C
FF1C
7038
7038
E070
E1E0
FFC0
FF00
ENDCHAR
STARTCHAR Ntilde
ENCODING 209
SWIDTH 722 0
DWIDTH 14 0
BBX 15 18 0 0
BITMAP
01C4
03F8
0470
0000
1C0E
1C0E
1E0E
3E1C
3F1C
3B1C
3B98
73B8
71B8
71F8
70F0
E0F0
E070
E070
ENDCHAR
STARTCHAR Ograve
ENCODING 210
SWIDTH 778 0
DWIDTH 15 0
BBX 14 18 1 0
BITMAP
0700
0380
01C0
0000
07E0
1FF8
3E38
381C
701C
701C
E01C
E01C
E038
E038
E070
71F0
7FE0
1F80
ENDCHAR
STARTCHAR Oacute
ENCODING 211
SWIDTH 778 0
DWIDTH 15 0
BBX 14 18 1 0
BITMAP
0070
00E0
01C0
0000
07E0
1FF8
3E38
381C
701C
701C
E01C
E01C
E038
E038
E070
71F0
7FE0
1F80
ENDCHAR
STARTCHAR Ocircumflex
ENCODING 212
SWIDTH 778 0
DWIDTH 15 0
BBX 14 18 1 0
BITMAP
01C0
03E0
0770
0000
07E0
1FF8
3E38
381C
701C
701C
E01C
E01C
E038
E038
E070
71F0
7FE0
1F80
ENDCHAR
STARTCHAR Otilde
ENCODING 213
SWIDTH 778 0
DWIDTH 15 0
BBX 14 18 1 0
BITMAP
01C8
03F0
04E0
0000
07E0
1FF8
3E38
381C
701C
701C
E01C
E01C
E038
E038
E070
71F0
7FE0
1F80
ENDCHAR
STARTCHAR Odieresis
ENCODING 214
SWIDTH 778 0
DWIDTH 15 0
BBX 14 18 1 0
BITMAP
0630
0630
0630
0000
07E0
1FF8
3E38
381C
701C
701C
E01C
E01C
E038
E038
E070
71F0
7FE0
1F80
ENDCHAR
STARTCHAR multiply
ENCODING 215
SWIDTH 584 0
DWIDTH 11 0
BBX 9 8 1 1
BITMAP
6180
7380
3F00
1E00
3C00
7E00
E700
C300
ENDCHAR
STARTCHAR Oslash
ENCODING 216
SWIDTH 778 0
DWIDTH 16 0
BBX 14 14 1 0
BITMAP
07EC
1FFC
3E38
387C
70FC
71DC
E39C
E71C
EE38
FC38
F870
71F0
FFE0
DF80
ENDCHAR
STARTCHAR Ugrave
ENCODING 217
SWIDTH 722 0
DWIDTH 13 0
BBX 13 18 1 0
BITMAP
0E00
0700
0380
0000
3838
3838
3838
7070
7070
7070
7070
E0E0
E0E0
E0E0
E1C0
E3C0
FF80
3F00
ENDCHAR
STARTCHAR Uacute
ENCODING 218
SWIDTH 722 0
DWIDTH 13 0
BBX 13 18 1 0
BITMAP
00E0
01C0
0380
0000
3838
3838
3838
7070
7070
7070
7070
E0E0
E0E0
E0E0
E1C0
E3C0
FF80
3F00
ENDCHAR
STARTCHAR Ucircumflex
ENCODING 219
SWIDTH 722 0
DWIDTH 13 0
BBX 13 18 1 0
BITMAP
0380
07C0
0EE0
0000
3838
3838
3838
7070
7070
7070
7070
E0E0
E0E0
E0E0
E1C0
E3C0
FF80
3F00
ENDCHAR
STARTCHAR Udieresis
ENCODING 220
SWIDTH 722 0
DWIDTH 13 0
BBX 13 18 1 0
BITMAP
0C60
0C60
0C60
0000
3838
3838
3838
7070
7070
7070
7070
E0E0
E0E0
E0E0
E1C0
E3C0
FF80
3F00
ENDCHAR
STARTCHAR Yacute
ENCODING 221
SWIDTH 667 0
DWIDTH 13 0
BBX 11 18 3 0
BITMAP
0380
0700
0E00
0000
E0E0
E1E0
E1C0
E380
E380
6700
7700
7E00
3C00
3800
3800
7000
7000
7000
ENDCHAR
STARTCHAR Thorn
ENCODING 222
SWIDTH 667 0
DWIDTH 12 0
BBX 12 14 0 0
BITMAP
1C00
1C00
1C00
3FE0
3FF0
3870
3870
7870
70F0
7FE0
7F80
E000
E000
E000
ENDCHAR
STARTCHAR germandbls
ENCODING 223
SWIDTH 611 0
DWIDTH 10 0
BBX 10 14 0 0
BITMAP
0780
0FC0
1CC0
38C0
39C0
3380
7700
7380
7180
6180
E180
E380
EF00
EE00
ENDCHAR
STARTCHAR agrave
ENCODING 224
SWIDTH 556 0
DWIDTH 10 0
BBX 9 14 0 0
BITMAP
3800
1C00
0E00
0000
1F00
3F80
3180
0F80
3F80
7380
E380
E700
FF00
7700
ENDCHAR
STARTCHAR aacute
ENCODING 225
SWIDTH 556 0
DWIDTH 10 0
BBX 9 14 0 0
BITMAP
0380
0700
0E00
0000
1F00
3F80
3180
0F80
3F80
7380
E380
E700
FF00
7700
ENDCHAR
STARTCHAR acircumflex
ENCODING 226
SWIDTH 556 0
DWIDTH 10 0
BBX 9 14 0 0
BITMAP
0E00
1F00
3B80
0000
1F00
3F80
3180
0F80
3F80
7380
E380
E700
FF00
7700
ENDCHAR
STARTCHAR atilde
ENCODING 227
SWIDTH 556 0
DWIDTH 10 0
BBX 10 14 0 0
BITMAP
0EC0
1FC0
1B80
0000
1F00
3F80
3180
0F80
3F80
7380
E380
E700
FF00
7700
ENDCHAR
STARTCHAR adieresis
ENCODING 228
SWIDTH 556 0
DWIDTH 10 0
BBX 9 13 0 0
BITMAP
1980
1980
0000
1F00
3F80
3180
0F80
3F80
7380
E380
E700
FF00
7700
ENDCHAR
STARTCHAR aring
ENCODING 229
SWIDTH 556 0
DWIDTH 10 0
BBX 9 14 0 0
BITMAP
0780
0D80
0D80
0F00
1F00
3F80
3180
0F80
3F80
7380
E380
E700
FF00
7700
ENDCHAR
STARTCHAR ae
ENCODING 230
SWIDTH 889 0
DWIDTH 15 0
BBX 15 10 0 0
BITMAP
1F78
3FFC
31CE
0F8E
3FFE
73FE
E380
E78E
FFFE
78F8
ENDCHAR
STARTCHAR ccedilla
ENCODING 231
SWIDTH 556 0
DWIDTH 9 0
BBX 9 15 0 -5
BITMAP
0F00
3F80
7980
7000
E000
E000
E180
E380
7F00
3E00
3000
3800
1800
F800
F000
ENDCHAR
STARTCHAR egrave
ENCODING 232
SWIDTH 556 0
DWIDTH 10 0
BBX 10 14 0 0
BITMAP
1C00
0E00
0700
0000
0F00
3F80
79C0
71C0
FFC0
FFC0
E000
E380
7F80
3E00
ENDCHAR
STARTCHAR eacute
ENCODING 233
SWIDTH 556 0
DWIDTH 10 0
BBX 10 14 0 0
BITMAP
01C0
0380
0700
0000
0F00
3F80
79C0
71C0
FFC0
FFC0
E000
E380
7F80
3E00
ENDCHAR
STARTCHAR ecircumflex
ENCODING 234
SWIDTH 556 0
DWIDTH 10 0
BBX 10 14 0 0
BITMAP
0700
0F80
1DC0
0000
0F00
3F80
79C0
71C0
FFC0
FFC0
E000
E380
7F80
3E00
ENDCHAR
STARTCHAR edieresis
ENCODING 235
SWIDTH 556 0
DWIDTH 10 0
BBX 10 13 0 0
BITMAP
1980
1980
0000
0F00
3F80
79C0
71C0
FFC0
FFC0
E000
E380
7F80
3E00
ENDCHAR
STARTCHAR igrave
ENCODING 236
SWIDTH 278 0
DWIDTH 5 0
BBX 5 14 0 0
BITMAP
E0
70
38
00
38
38
38
70
70
70
70
E0
E0
E0
ENDCHAR
STARTCHAR iacute
ENCODING 237
SWIDTH 278 0
DWIDTH 5 0
BBX 7 14 0 0
BITMAP
0E
1C
38
00
38
38
38
70
70
70
70
E0
E0
E0
ENDCHAR
STARTCHAR icircumflex
ENCODING 238
SWIDTH 278 0
DWIDTH 5 0
BBX 7 14 0 0
BITMAP
38
7C
EE
00
38
38
38
70
70
70
70
E0
E0
E0
ENDCHAR
STARTCHAR idieresis
ENCODING 239
SWIDTH 278 0
DWIDTH 5 0
BBX 7 13 0 0
BITMAP
66
66
00
38
38
38
70
70
70
70
E0
E0
E0
ENDCHAR
STARTCHAR eth
ENCODING 240
SWIDTH 611 0
DWIDTH 10 0
BBX 10 14 0 0
BITMAP
3380
1E00
1E00
3300
0F80
3F80
79C0
71C0
E1C0
E1C0
E380
E780
7F00
3C00
ENDCHAR
STARTCHAR ntilde
ENCODING 241
SWIDTH 611 0
DWIDTH 11 0
BBX 11 14 0 0
BITMAP
0760
0FE0
0DC0
0000
3BC0
3FE0
3CE0
70E0
71C0
71C0
71C0
E380
E380
E380
ENDCHAR
STARTCHAR ograve
ENCODING 242
SWIDTH 611 0
DWIDTH 11 0
BBX 10 14 1 0
BITMAP
1C00
0E00
0700
0000
0F00
3F80
79C0
71C0
E1C0
E1C0
E380
E780
7F00
3C00
ENDCHAR
STARTCHAR oacute
ENCODING 243
SWIDTH 611 0
DWIDTH 11 0
BBX 10 14 1 0
BITMAP
0380
0700
0E00
0000
0F00
3F80
79C0
71C0
E1C0
E1C0
E380
E780
7F00
3C00
ENDCHAR
STARTCHAR ocircumflex
ENCODING 244
SWIDTH 611 0
DWIDTH 11 0
BBX 10 14 1 0
BITMAP
0700
0F80
1DC0
0000
0F00
3F80
79C0
71C0
E1C0
E1C0
E380
E780
7F00
3C00
ENDCHAR
STARTCHAR otilde
ENCODING 245
SWIDTH 611 0
DWIDTH 11 0
BBX 10 14 1 0
BITMAP
0EC0
1FC0
1B80
0000
0F00
3F80
79C0
71C0
E1C0
E1C0
E380
E780
7F00
3C00
ENDCHAR
STARTCHAR odieresis
ENCODING 246
SWIDTH 611 0
DWIDTH 11 0
BBX 10 13 1 0
BITMAP
1980
1980
0000
0F00
3F80
79C0
71C0
E1C0
E1C0
E380
E780
7F00
3C00
ENDCHAR
STARTCHAR divide
ENCODING 247
SWIDTH 584 0
DWIDTH 11 0
BBX 9 8 1 1
BITMAP
0E00
0E00
0000
FF80
FF80
0000
3800
3800
ENDCHAR
STARTCHAR oslash
ENCODING 248
SWIDTH 611 0
DWIDTH 10 0
BBX 12 10 -1 0
BITMAP
07B0
1FF0
39E0
3360
76E0
6CC0
79C0
7380
FF00
DC00
ENDCHAR
STARTCHAR ugrave
ENCODING 249
SWIDTH 611 0
DWIDTH 11 0
BBX 11 14 0 0
BITMAP
1C00
0E00
0700
0000
38E0
38E0
38E0
71C0
71C0
71C0
E3C0
E780
FF80
7B80
ENDCHAR
STARTCHAR uacute
ENCODING 250
SWIDTH 611 0
DWIDTH 11 0
BBX 11 14 0 0
BITMAP
01C0
0380
0700
0000
38E0
38E0
38E0
71C0
71C0
71C0
E3C0
E780
FF80
7B80
ENDCHAR
STARTCHAR ucircumflex
ENCODING 251
SWIDTH 611 0
DWIDTH 11 0
BBX 11 14 0 0
BITMAP
0700
0F80
1DC0
0000
38E0
38E0
38E0
71C0
71C0
71C0
E3C0
E780
FF80
7B80
ENDCHAR
STARTCHAR udieresis
ENCODING 252
SWIDTH 611 0
DWIDTH 11 0
BBX 11 13 0 0
BITMAP
0CC0
0CC0
0000
38E0
38E0
38E0
71C0
71C0
71C0
E3C0
E780
FF80
7B80
ENDCHAR
STARTCHAR yacute
ENCODING 253
SWIDTH 556 0
DWIDTH 9 0
BBX 10 18 0 -4
BITMAP
0380
0700
0E00
0000
71C0
71C0
71C0
7380
7380
7300
3700
3E00
1E00
1C00
1C00
3800
F000
E000
ENDCHAR
STARTCHAR thorn
ENCODING 254
SWIDTH 611 0
DWIDTH 11 0
BBX 12 18 -1 -4
BITMAP
0E00
0E00
0E00
1C00
1DC0
1FE0
1E70
3C70
3870
3870
38E0
79E0
7FC0
7700
7000
E000
E000
E000
ENDCHAR
STARTCHAR ydieresis
ENCODING 255
SWIDTH 556 0
DWIDTH 9 0
BBX 10 17 0 -4
BITMAP
1980
1980
0000
71C0
71C0
71C0
7380
7380
7300
3700
3E00
1E00
1C00
1C00
3800
F000
E000
ENDCHAR
STARTCHAR Lslash
ENCODING -1
SWIDTH 611 0
DWIDTH 10 0
BBX 9 14 0 0
BITMAP
1C00
1C00
1C00
3800
3800
3E00
7800
F000
7000
7000
E000
E000
FF80
FF80
ENDCHAR
STARTCHAR OE
ENCODING -1
SWIDTH 1000 0
DWIDTH 18 0
BBX 19 14 1 0
BITMAP
07FFE0
1FFFE0
3E7800
387000
707000
707000
E07F80
E0FF80
E0E000
E0E000
E0E000
71C000
7FFF00
1FFF00
ENDCHAR
STARTCHAR Scaron
ENCODING -1
SWIDTH 667 0
DWIDTH 12 0
BBX 11 14 1 0
BITMAP
0EE0
07C0
0380
0000
1FC0
3FE0
38E0
3CE0
1E00
0F00
E780
E380
FF80
7F00
ENDCHAR
STARTCHAR Ydieresis
ENCODING -1
SWIDTH 667 0
DWIDTH 13 0
BBX 10 13 3 0
BITMAP
1980
1980
0000
E0C0
E1C0
7380
7700
3E00
3C00
3800
7000
7000
7000
ENDCHAR
STARTCHAR Zcaron
ENCODING -1
SWIDTH 611 0
DWIDTH 11 0
BBX 12 14 0 0
BITMAP
0EE0
07C0
0380
0000
1FF0
1FF0
00E0
03C0
0780
1E00
3C00
7000
FF80
FF80
ENDCHAR
STARTCHAR breve
ENCODING -1
SWIDTH 333 0
DWIDTH 7 0
BBX 7 3 3 11
BITMAP
C6
EE
7C
ENDCHAR
STARTCHAR bullet
ENCODING -1
SWIDTH 350 0
DWIDTH 7 0
BBX 5 5 2 4
BITMAP
38
78
F8
F0
E0
ENDCHAR
STARTCHAR caron
ENCODING -1
SWIDTH 333 0
DWIDTH 7 0
BBX 7 3 3 11
BITMAP
EE
7C
38
ENDCHAR
STARTCHAR circumflex
ENCODING -1
SWIDTH 333 0
DWIDTH 7 0
BBX 7 3 3 11
BITMAP
38
7C
EE
ENDCHAR
STARTCHAR dagger
ENCODING -1
SWIDTH 556 0
DWIDTH 10 0
BBX 9 18 2 -4
BITMAP
0E00
0E00
0E00
1C00
FF80
FF80
1C00
3800
3800
3800
3800
7000
7000
7000
7000
E000
E000
E000
ENDCHAR
STARTCHAR daggerdbl
ENCODING -1
SWIDTH 556 0
DWIDTH 10 0
BBX 11 18 0 -4
BITMAP
0380
0380
0380
0700
3FE0
3FE0
0700
0600
0E00
0E00
0C00
1C00
FF80
FF80
1C00
3800
3800
3800
ENDCHAR
STARTCHAR dotaccent
ENCODING -1
SWIDTH 333 0
DWIDTH 5 0
BBX 3 2 4 11
BITMAP
E0
E0
ENDCHAR
STARTCHAR dotlessi
ENCODING -1
SWIDTH 278 0
DWIDTH 5 0
BBX 5 10 0 0
BITMAP
38
38
38
70
70
70
70
E0
E0
E0
ENDCHAR
STARTCHAR ellipsis
ENCODING -1
SWIDTH 1000 0
DWIDTH 18 0
BBX 14 3 2 0
BITMAP
C30C
C30C
C30C
ENDCHAR
STARTCHAR emdash
ENCODING -1
SWIDTH 1000 0
DWIDTH 18 0
BBX 18 2 1 4
BITMAP
FFFFC0
FFFFC0
ENDCHAR
STARTCHAR endash
ENCODING -1
SWIDTH 556 0
DWIDTH 10 0
BBX 10 2 1 4
BITMAP
FFC0
FFC0
ENDCHAR
STARTCHAR fi
ENCODING -1
SWIDTH 611 0
DWIDTH 12 0
BBX 12 14 1 0
BITMAP
0F70
1F70
1C00
3800
FEE0
FEE0
38E0
71C0
71C0
71C0
71C0
E380
E380
E380
ENDCHAR
STARTCHAR fl
ENCODING -1
SWIDTH 611 0
DWIDTH 12 0
BBX 12 14 1 0
BITMAP
0F70
1F70
1C70
38E0
FEE0
FEE0
38E0
71C0
71C0
71C0
71C0
E380
E380
E380
ENDCHAR
STARTCHAR florin
ENCODING -1
SWIDTH 556 0
DWIDTH 10 0
BBX 13 17 -1 -4
BITMAP
00F8
01F8
0380
0300
1FE0
1FE0
0700
0700
0700
0E00
0E00
0E00
1C00
1C00
3800
F800
F000
ENDCHAR
STARTCHAR fraction
ENCODING -1
SWIDTH 167 0
DWIDTH 6 0
BBX 10 13 -1 0
BITMAP
00C0
01C0
0380
0300
0600
0E00
0C00
1800
3800
3000
6000
E000
C000
ENDCHAR
STARTCHAR grave
ENCODING -1
SWIDTH 333 0
DWIDTH 5 0
BBX 5 3 3 11
BITMAP
E0
70
38
ENDCHAR
STARTCHAR guilsinglleft
ENCODING -1
SWIDTH 333 0
DWIDTH 9 0
BBX 6 5 2 3
BITMAP
1C
78
E0
70
38
ENDCHAR
STARTCHAR guilsinglright
ENCODING -1
SWIDTH 333 0
DWIDTH 9 0
BBX 6 5 2 3
BITMAP
70
38
1C
78
E0
ENDCHAR
STARTCHAR hungarumlaut
ENCODING -1
SWIDTH 333 0
DWIDTH 7 0
BBX 7 3 3 11
BITMAP
36
6C
D8
ENDCHAR
STARTCHAR lslash
ENCODING -1
SWIDTH 278 0
DWIDTH 5 0
BBX 6 14 0 0
BITMAP
1C
1C
1C
38
38
3C
78
F0
70
70
70
E0
E0
E0
ENDCHAR
STARTCHAR oe
ENCODING -1
SWIDTH 944 0
DWIDTH 16 0
BBX 16 10 0 0
BITMAP
0F3C
3FFE
79E7
71C7
E1FF
E1FF
E3C0
E7CE
7FFE
3CF8
ENDCHAR
STARTCHAR ogonek
ENCODING -1
SWIDTH 333 0
DWIDTH 6 0
BBX 5 5 0 -5
BITMAP
38
70
C0
F8
70
ENDCHAR
STARTCHAR perthousand
ENCODING -1
SWIDTH 1000 0
DWIDTH 20 0
BBX 19 13 1 0
BITMAP
1C3800
3E7000
666000
7CC000
398000
038000
070000
0E0000
0CE1C0
19F3E0
333660
73E7C0
E1C380
ENDCHAR
STARTCHAR quotedblbase
ENCODING -1
SWIDTH 500 0
DWIDTH 9 0
BBX 8 5 0 -3
BITMAP
77
77
33
66
CC
ENDCHAR
STARTCHAR quotedblleft
ENCODING -1
SWIDTH 500 0
DWIDTH 10 0
BBX 8 5 3 9
BITMAP
33
66
CC
EE
EE
ENDCHAR
STARTCHAR quotedblright
ENCODING -1
SWIDTH 500 0
DWIDTH 10 0
BBX 8 5 3 9
BITMAP
77
77
33
66
CC
ENDCHAR
STARTCHAR quotesinglbase
ENCODING -1
SWIDTH 278 0
DWIDTH 5 0
BBX 4 5 0 -3
BITMAP
70
70
30
60
C0
ENDCHAR
STARTCHAR quotesingle
ENCODING -1
SWIDTH 238 0
DWIDTH 5 0
BBX 3 5 3 9
BITMAP
60
60
E0
C0
80
ENDCHAR
STARTCHAR ring
ENCODING -1
SWIDTH 333 0
DWIDTH 6 0
BBX 5 4 3 10
BITMAP
78
D8
D8
F0
ENDCHAR
STARTCHAR scaron
ENCODING -1
SWIDTH 556 0
DWIDTH 10 0
BBX 10 14 0 0
BITMAP
1DC0
0F80
0700
0000
0F80
3FC0
79C0
7000
3F00
1F80
0380
E780
FF00
7C00
ENDCHAR
STARTCHAR tilde
ENCODING -1
SWIDTH 333 0
DWIDTH 7 0
BBX 7 3 3 11
BITMAP
76
FE
DC
ENDCHAR
STARTCHAR trademark
ENCODING -1
SWIDTH 1000 0
DWIDTH 17 0
BBX 17 7 1 6
BITMAP
FF6180
FF6380
187780
187580
30DB00
30DB00
30DB00
ENDCHAR
STARTCHAR zcaron
ENCODING -1
SWIDTH 500 0
DWIDTH 9 0
BBX 10 14 0 0
BITMAP
3B80
1F00
0E00
0000
3FC0
3FC0
0380
0700
0E00
1C00
3800
7000
FF00
FF00
ENDCHAR
ENDFONT
