STARTFONT 2.1
FONT -Adobe-Times-Bold-I-Normal--17-120-100-100-P-86-ISO8859-1
SIZE 12 100 100
FONTBOUNDINGBOX 19 19 -3 -4
COMMENT $XConsortium: timBI12.bdf,v 1.7 95/01/26 17:58:35 gildea Exp $
COMMENT 
COMMENT +
COMMENT  Copyright 1984-1989, 1994 Adobe Systems Incorporated.
COMMENT  Copyright 1988, 1994 Digital Equipment Corporation.
COMMENT
COMMENT  Adobe is a trademark of Adobe Systems Incorporated which may be
COMMENT  registered in certain jurisdictions.
COMMENT  Permission to use these trademarks is hereby granted only in
COMMENT  association with the images described in this file.
COMMENT
COMMENT  Permission to use, copy, modify, distribute and sell this software
COMMENT  and its documentation for any purpose and without fee is hereby
COMMENT  granted, provided that the above copyright notices appear in all
COMMENT  copies and that both those copyright notices and this permission
COMMENT  notice appear in supporting documentation, and that the names of
COMMENT  Adobe Systems and Digital Equipment Corporation not be used in
COMMENT  advertising or publicity pertaining to distribution of the software
COMMENT  without specific, written prior permission.  Adobe Systems and
COMMENT  Digital Equipment Corporation make no representations about the
COMMENT  suitability of this software for any purpose.  It is provided "as
COMMENT  is" without express or implied warranty.
COMMENT -
STARTPROPERTIES 28
FOUNDRY "Adobe"
FAMILY_NAME "Times"
WEIGHT_NAME "Bold"
SLANT "I"
SETWIDTH_NAME "Normal"
ADD_STYLE_NAME ""
PIXEL_SIZE 17
POINT_SIZE 120
RESOLUTION_X 100
RESOLUTION_Y 100
SPACING "P"
AVERAGE_WIDTH 86
CHARSET_REGISTRY "ISO8859"
CHARSET_ENCODING "1"
CAP_HEIGHT 11
X_HEIGHT 8
FONT_ASCENT 13
FONT_DESCENT 3
FACE_NAME "Times Bold Italic"
COPYRIGHT "Copyright (c) 1984, 1987 Adobe Systems Incorporated. All Rights Reserved. Copyright (c) 1988, 1991 Digital Equipment Corporation. All Rights Reserved."
NOTICE "Times is a trademark of Linotype-Hell AG and/or its subsidiaries."
_DEC_DEVICE_FONTNAMES "PS=Times-BoldItalic"
_DEC_PRODUCTINFO "DECwindows Fonts V2.2, 07-Nov-1991"
DEFAULT_CHAR 32
RELATIVE_SETWIDTH 50
RELATIVE_WEIGHT 70
CHARSET_COLLECTIONS "ASCII ISO8859-1 ADOBE-STANDARD"
FULL_NAME "Times Bold Italic"
ENDPROPERTIES
CHARS 229
STARTCHAR space
ENCODING 32
SWIDTH 250 0
DWIDTH 4 0
BBX 1 1 0 0
BITMAP
00
ENDCHAR
STARTCHAR exclam
ENCODING 33
SWIDTH 389 0
DWIDTH 6 0
BBX 5 11 1 0
BITMAP
18
18
30
30
20
60
40
40
00
C0
C0
ENDCHAR
STARTCHAR quotedbl
ENCODING 34
SWIDTH 555 0
DWIDTH 9 0
BBX 5 5 3 6
BITMAP
48
48
D8
90
90
ENDCHAR
STARTCHAR numbersign
ENCODING 35
SWIDTH 500 0
DWIDTH 8 0
BBX 8 11 0 0
BITMAP
12
12
12
FF
24
24
24
FF
48
48
48
ENDCHAR
STARTCHAR dollar
ENCODING 36
SWIDTH 500 0
DWIDTH 8 0
BBX 8 13 0 -1
BITMAP
02
1E
25
65
68
78
3C
1E
16
A6
A4
78
40
ENDCHAR
STARTCHAR percent
ENCODING 37
SWIDTH 833 0
DWIDTH 13 0
BBX 11 11 1 0
BITMAP
3080
6F80
C900
CA00
D200
64C0
05A0
0B20
0B20
1340
1180
ENDCHAR
STARTCHAR ampersand
ENCODING 38
SWIDTH 778 0
DWIDTH 13 0
BBX 11 11 1 0
BITMAP
0600
0900
1900
1A00
1C00
3CE0
4C40
CE80
C700
E720
79C0
ENDCHAR
STARTCHAR quoteright
ENCODING 39
SWIDTH 333 0
DWIDTH 6 0
BBX 3 5 2 6
BITMAP
60
60
20
40
80
ENDCHAR
STARTCHAR parenleft
ENCODING 40
SWIDTH 333 0
DWIDTH 6 0
BBX 5 14 0 -3
BITMAP
08
10
20
60
40
C0
C0
C0
C0
C0
40
40
20
20
ENDCHAR
STARTCHAR parenright
ENCODING 41
SWIDTH 333 0
DWIDTH 6 0
BBX 5 14 0 -3
BITMAP
20
20
10
10
18
18
18
18
18
10
30
20
40
80
ENDCHAR
STARTCHAR asterisk
ENCODING 42
SWIDTH 500 0
DWIDTH 8 0
BBX 5 7 2 4
BITMAP
20
A8
F8
70
F8
A8
20
ENDCHAR
STARTCHAR plus
ENCODING 43
SWIDTH 570 0
DWIDTH 10 0
BBX 7 8 1 1
BITMAP
10
10
10
FE
FE
10
10
10
ENDCHAR
STARTCHAR comma
ENCODING 44
SWIDTH 250 0
DWIDTH 4 0
BBX 3 5 0 -3
BITMAP
60
60
20
40
80
ENDCHAR
STARTCHAR minus
ENCODING 45
SWIDTH 606 0
DWIDTH 10 0
BBX 7 2 1 4
BITMAP
FE
FE
ENDCHAR
STARTCHAR period
ENCODING 46
SWIDTH 250 0
DWIDTH 4 0
BBX 2 2 1 0
BITMAP
C0
C0
ENDCHAR
STARTCHAR slash
ENCODING 47
SWIDTH 278 0
DWIDTH 5 0
BBX 5 12 0 0
BITMAP
08
10
10
10
20
20
20
40
40
40
80
80
ENDCHAR
STARTCHAR zero
ENCODING 48
SWIDTH 500 0
DWIDTH 8 0
BBX 8 11 0 0
BITMAP
0C
12
33
63
63
66
C6
C6
CC
48
30
ENDCHAR
STARTCHAR one
ENCODING 49
SWIDTH 500 0
DWIDTH 8 0
BBX 7 11 0 0
BITMAP
02
1E
06
0C
0C
08
18
18
30
30
F8
ENDCHAR
STARTCHAR two
ENCODING 50
SWIDTH 500 0
DWIDTH 8 0
BBX 8 11 -1 0
BITMAP
1E
27
23
03
02
04
08
10
21
7E
FC
ENDCHAR
STARTCHAR three
ENCODING 51
SWIDTH 500 0
DWIDTH 8 0
BBX 7 11 0 0
BITMAP
1C
2E
06
04
18
3C
0C
04
04
C8
70
ENDCHAR
STARTCHAR four
ENCODING 52
SWIDTH 500 0
DWIDTH 8 0
BBX 8 11 0 0
BITMAP
01
03
07
0E
16
26
4C
FF
FE
18
18
ENDCHAR
STARTCHAR five
ENCODING 53
SWIDTH 500 0
DWIDTH 8 0
BBX 8 11 0 0
BITMAP
1F
1E
30
60
7C
0E
06
06
06
CC
70
ENDCHAR
STARTCHAR six
ENCODING 54
SWIDTH 500 0
DWIDTH 8 0
BBX 8 11 0 0
BITMAP
03
0C
18
30
78
6C
C6
C6
C6
CC
78
ENDCHAR
STARTCHAR seven
ENCODING 55
SWIDTH 500 0
DWIDTH 8 0
BBX 8 11 1 0
BITMAP
7F
7E
84
0C
08
18
10
30
20
60
40
ENDCHAR
STARTCHAR eight
ENCODING 56
SWIDTH 500 0
DWIDTH 8 0
BBX 8 11 0 0
BITMAP
0E
13
31
33
3A
1C
6E
C6
C6
C4
78
ENDCHAR
STARTCHAR nine
ENCODING 57
SWIDTH 500 0
DWIDTH 8 0
BBX 8 11 0 0
BITMAP
1E
33
63
63
63
36
1E
0C
18
30
C0
ENDCHAR
STARTCHAR colon
ENCODING 58
SWIDTH 333 0
DWIDTH 5 0
BBX 3 7 1 0
BITMAP
60
60
00
00
00
C0
C0
ENDCHAR
STARTCHAR semicolon
ENCODING 59
SWIDTH 333 0
DWIDTH 5 0
BBX 4 10 0 -3
BITMAP
30
30
00
00
00
60
60
20
40
80
ENDCHAR
STARTCHAR less
ENCODING 60
SWIDTH 570 0
DWIDTH 10 0
BBX 8 7 1 1
BITMAP
07
1C
70
C0
70
1C
07
ENDCHAR
STARTCHAR equal
ENCODING 61
SWIDTH 570 0
DWIDTH 10 0
BBX 7 5 1 2
BITMAP
FE
FE
00
FE
FE
ENDCHAR
STARTCHAR greater
ENCODING 62
SWIDTH 570 0
DWIDTH 10 0
BBX 8 7 1 1
BITMAP
E0
38
0E
03
0E
38
E0
ENDCHAR
STARTCHAR question
ENCODING 63
SWIDTH 500 0
DWIDTH 8 0
BBX 6 11 1 0
BITMAP
38
4C
4C
0C
18
30
40
40
00
C0
C0
ENDCHAR
STARTCHAR at
ENCODING 64
SWIDTH 832 0
DWIDTH 14 0
BBX 14 13 0 -2
BITMAP
03C0
1C30
3008
61A4
6264
C664
CC44
CC48
CCC8
4DD0
6660
3018
0FE0
ENDCHAR
STARTCHAR A
ENCODING 65
SWIDTH 667 0
DWIDTH 11 0
BBX 11 11 -1 0
BITMAP
0080
0180
0380
0780
0580
0980
1180
1F80
2180
41C0
E3E0
ENDCHAR
STARTCHAR B
ENCODING 66
SWIDTH 667 0
DWIDTH 11 0
BBX 10 11 0 0
BITMAP
3F00
18C0
18C0
38C0
3180
3F00
3180
7180
6180
6300
FC00
ENDCHAR
STARTCHAR C
ENCODING 67
SWIDTH 667 0
DWIDTH 11 0
BBX 11 11 0 0
BITMAP
07A0
1840
3040
7000
6000
E000
E000
E000
6080
6100
1E00
ENDCHAR
STARTCHAR D
ENCODING 68
SWIDTH 722 0
DWIDTH 12 0
BBX 11 11 0 0
BITMAP
3F00
18C0
1860
3860
3060
3060
30C0
70C0
6080
6300
FC00
ENDCHAR
STARTCHAR E
ENCODING 69
SWIDTH 667 0
DWIDTH 11 0
BBX 10 11 0 0
BITMAP
3FC0
1840
1840
3800
3100
3F00
3200
7000
6080
6180
FF00
ENDCHAR
STARTCHAR F
ENCODING 70
SWIDTH 667 0
DWIDTH 11 0
BBX 10 11 0 0
BITMAP
3FC0
1840
1840
3800
3100
3F00
3200
7000
6000
6000
F000
ENDCHAR
STARTCHAR G
ENCODING 71
SWIDTH 722 0
DWIDTH 12 0
BBX 12 11 0 0
BITMAP
07A0
1860
3020
7000
6000
E1F0
E0E0
E0C0
60C0
61C0
1E00
ENDCHAR
STARTCHAR H
ENCODING 72
SWIDTH 778 0
DWIDTH 13 0
BBX 13 11 0 0
BITMAP
3EF8
1C70
1860
38E0
30E0
3FC0
30C0
71C0
6180
6180
F3C0
ENDCHAR
STARTCHAR I
ENCODING 73
SWIDTH 389 0
DWIDTH 6 0
BBX 6 11 0 0
BITMAP
3C
18
18
38
30
30
30
70
60
60
F0
ENDCHAR
STARTCHAR J
ENCODING 74
SWIDTH 500 0
DWIDTH 8 0
BBX 10 13 -2 -2
BITMAP
07C0
0380
0300
0300
0700
0600
0600
0600
0E00
0C00
CC00
D800
7000
ENDCHAR
STARTCHAR K
ENCODING 75
SWIDTH 667 0
DWIDTH 11 0
BBX 10 11 0 0
BITMAP
3DC0
1880
1900
3A00
3400
3E00
3600
7700
6300
6380
F3C0
ENDCHAR
STARTCHAR L
ENCODING 76
SWIDTH 611 0
DWIDTH 10 0
BBX 9 11 0 0
BITMAP
3E00
1800
1800
3800
3000
3000
3000
7000
6080
6180
FF00
ENDCHAR
STARTCHAR M
ENCODING 77
SWIDTH 889 0
DWIDTH 15 0
BBX 15 11 0 0
BITMAP
380E
181C
1C3C
1C3C
2C58
2C98
2E98
4738
4630
4430
E478
ENDCHAR
STARTCHAR N
ENCODING 78
SWIDTH 722 0
DWIDTH 12 0
BBX 12 11 0 0
BITMAP
3870
1820
1C20
3C20
2E40
2640
2740
43C0
4380
4180
E080
ENDCHAR
STARTCHAR O
ENCODING 79
SWIDTH 722 0
DWIDTH 12 0
BBX 10 11 1 0
BITMAP
0700
1880
30C0
70C0
60C0
E1C0
C180
C380
C300
4600
3800
ENDCHAR
STARTCHAR P
ENCODING 80
SWIDTH 611 0
DWIDTH 10 0
BBX 10 11 0 0
BITMAP
3F00
18C0
18C0
38C0
3180
3E00
3000
7000
6000
6000
F800
ENDCHAR
STARTCHAR Q
ENCODING 81
SWIDTH 722 0
DWIDTH 12 0
BBX 10 15 1 -4
BITMAP
0700
1880
30C0
70C0
60C0
C1C0
C180
C380
C300
4600
3800
2040
7080
7F00
8E00
ENDCHAR
STARTCHAR R
ENCODING 82
SWIDTH 667 0
DWIDTH 11 0
BBX 10 11 0 0
BITMAP
3F00
18C0
18C0
38C0
3180
3E00
3600
7700
6300
6300
F1C0
ENDCHAR
STARTCHAR S
ENCODING 83
SWIDTH 556 0
DWIDTH 9 0
BBX 8 11 0 0
BITMAP
1D
23
61
70
78
3C
1E
0E
86
C4
B8
ENDCHAR
STARTCHAR T
ENCODING 84
SWIDTH 611 0
DWIDTH 10 0
BBX 10 11 1 0
BITMAP
FFC0
CCC0
8C80
1C00
1800
1800
1800
3800
3000
3000
F800
ENDCHAR
STARTCHAR U
ENCODING 85
SWIDTH 722 0
DWIDTH 12 0
BBX 12 11 1 0
BITMAP
7CF0
3860
3040
7040
7080
6080
E080
C100
C100
C200
7C00
ENDCHAR
STARTCHAR V
ENCODING 86
SWIDTH 667 0
DWIDTH 11 0
BBX 10 11 1 0
BITMAP
F9C0
6080
6100
6100
7200
3200
3400
3400
3800
1800
1000
ENDCHAR
STARTCHAR W
ENCODING 87
SWIDTH 889 0
DWIDTH 15 0
BBX 15 11 0 0
BITMAP
FBEE
6184
6184
6188
73C8
32D0
34D0
34E0
38E0
1840
1040
ENDCHAR
STARTCHAR X
ENCODING 88
SWIDTH 667 0
DWIDTH 11 0
BBX 11 11 0 0
BITMAP
3CE0
1840
1C80
0D00
0E00
0600
0E00
1700
2300
4380
E7C0
ENDCHAR
STARTCHAR Y
ENCODING 89
SWIDTH 611 0
DWIDTH 10 0
BBX 9 11 1 0
BITMAP
F380
6100
7200
3400
3800
1800
1800
3000
3000
3000
F800
ENDCHAR
STARTCHAR Z
ENCODING 90
SWIDTH 611 0
DWIDTH 10 0
BBX 10 11 0 0
BITMAP
3FC0
6380
4300
0600
0E00
0C00
1800
3800
3080
7180
FF00
ENDCHAR
STARTCHAR bracketleft
ENCODING 91
SWIDTH 333 0
DWIDTH 6 0
BBX 7 15 -1 -3
BITMAP
0E
0C
0C
08
18
18
10
30
30
20
60
60
40
C0
E0
ENDCHAR
STARTCHAR backslash
ENCODING 92
SWIDTH 278 0
DWIDTH 5 0
BBX 5 12 1 0
BITMAP
80
40
40
40
20
20
20
10
10
10
08
08
ENDCHAR
STARTCHAR bracketright
ENCODING 93
SWIDTH 333 0
DWIDTH 6 0
BBX 7 15 -1 -3
BITMAP
0E
06
06
04
0C
0C
08
18
18
10
30
30
20
60
E0
ENDCHAR
STARTCHAR asciicircum
ENCODING 94
SWIDTH 570 0
DWIDTH 10 0
BBX 7 7 1 4
BITMAP
10
38
28
6C
44
C6
82
ENDCHAR
STARTCHAR underscore
ENCODING 95
SWIDTH 500 0
DWIDTH 8 0
BBX 8 1 -1 -2
BITMAP
FF
ENDCHAR
STARTCHAR quoteleft
ENCODING 96
SWIDTH 333 0
DWIDTH 6 0
BBX 3 5 2 6
BITMAP
20
40
80
C0
C0
ENDCHAR
STARTCHAR a
ENCODING 97
SWIDTH 500 0
DWIDTH 8 0
BBX 8 8 0 0
BITMAP
1B
66
66
C6
CC
CC
DD
76
ENDCHAR
STARTCHAR b
ENCODING 98
SWIDTH 500 0
DWIDTH 8 0
BBX 7 11 1 0
BITMAP
30
70
30
6C
76
66
C6
C4
CC
D8
60
ENDCHAR
STARTCHAR c
ENCODING 99
SWIDTH 444 0
DWIDTH 7 0
BBX 6 8 1 0
BITMAP
1C
2C
40
C0
C0
C0
C8
70
ENDCHAR
STARTCHAR d
ENCODING 100
SWIDTH 500 0
DWIDTH 8 0
BBX 8 11 0 0
BITMAP
03
07
03
0F
36
66
46
C6
CC
DD
66
ENDCHAR
STARTCHAR e
ENCODING 101
SWIDTH 444 0
DWIDTH 7 0
BBX 7 8 1 0
BITMAP
1C
66
44
C8
F0
C4
C8
70
ENDCHAR
STARTCHAR f
ENCODING 102
SWIDTH 333 0
DWIDTH 6 0
BBX 11 14 -3 -3
BITMAP
01C0
0360
0300
0300
0F80
0600
0600
0600
0C00
0C00
0C00
1800
D800
7000
ENDCHAR
STARTCHAR g
ENCODING 103
SWIDTH 500 0
DWIDTH 8 0
BBX 8 11 0 -3
BITMAP
1D
26
66
64
38
40
FC
7E
82
84
78
ENDCHAR
STARTCHAR h
ENCODING 104
SWIDTH 556 0
DWIDTH 9 0
BBX 8 11 1 0
BITMAP
30
70
30
66
6E
76
66
CC
CC
CD
CE
ENDCHAR
STARTCHAR i
ENCODING 105
SWIDTH 278 0
DWIDTH 5 0
BBX 4 11 1 0
BITMAP
30
30
00
60
E0
60
60
C0
C0
D0
E0
ENDCHAR
STARTCHAR j
ENCODING 106
SWIDTH 278 0
DWIDTH 5 0
BBX 7 14 -2 -3
BITMAP
06
06
00
04
1C
0C
0C
0C
18
18
18
18
D0
60
ENDCHAR
STARTCHAR k
ENCODING 107
SWIDTH 500 0
DWIDTH 8 0
BBX 7 11 1 0
BITMAP
30
70
30
66
64
68
70
D0
D8
DA
CC
ENDCHAR
STARTCHAR l
ENCODING 108
SWIDTH 278 0
DWIDTH 5 0
BBX 4 11 1 0
BITMAP
30
70
30
60
60
60
60
C0
C0
D0
60
ENDCHAR
STARTCHAR m
ENCODING 109
SWIDTH 778 0
DWIDTH 13 0
BBX 12 8 1 0
BITMAP
6EE0
F760
6660
6660
CCC0
CCC0
CCD0
CCE0
ENDCHAR
STARTCHAR n
ENCODING 110
SWIDTH 556 0
DWIDTH 9 0
BBX 8 8 1 0
BITMAP
66
EE
76
66
CC
CC
CD
CE
ENDCHAR
STARTCHAR o
ENCODING 111
SWIDTH 500 0
DWIDTH 8 0
BBX 8 8 0 0
BITMAP
0C
32
63
63
C6
C6
4C
30
ENDCHAR
STARTCHAR p
ENCODING 112
SWIDTH 500 0
DWIDTH 8 0
BBX 9 11 -1 -3
BITMAP
1B00
3D80
1980
1980
3100
3300
3600
7800
6000
6000
F000
ENDCHAR
STARTCHAR q
ENCODING 113
SWIDTH 500 0
DWIDTH 8 0
BBX 8 11 0 -3
BITMAP
1B
37
66
46
CE
CC
DC
6C
18
18
3C
ENDCHAR
STARTCHAR r
ENCODING 114
SWIDTH 389 0
DWIDTH 6 0
BBX 6 8 1 0
BITMAP
6C
F4
60
60
C0
C0
C0
C0
ENDCHAR
STARTCHAR s
ENCODING 115
SWIDTH 389 0
DWIDTH 6 0
BBX 6 8 0 0
BITMAP
34
6C
64
70
38
98
D8
B0
ENDCHAR
STARTCHAR t
ENCODING 116
SWIDTH 278 0
DWIDTH 5 0
BBX 5 10 1 0
BITMAP
10
30
F8
60
60
60
C0
C0
D0
60
ENDCHAR
STARTCHAR u
ENCODING 117
SWIDTH 556 0
DWIDTH 9 0
BBX 8 8 1 0
BITMAP
66
E6
66
66
CC
CC
DD
6E
ENDCHAR
STARTCHAR v
ENCODING 118
SWIDTH 444 0
DWIDTH 7 0
BBX 6 8 1 0
BITMAP
4C
EC
64
68
68
70
60
40
ENDCHAR
STARTCHAR w
ENCODING 119
SWIDTH 667 0
DWIDTH 11 0
BBX 10 8 1 0
BITMAP
64C0
E4C0
6440
6E80
7680
6700
4600
4400
ENDCHAR
STARTCHAR x
ENCODING 120
SWIDTH 500 0
DWIDTH 8 0
BBX 8 8 0 0
BITMAP
63
35
38
18
18
3C
AD
C6
ENDCHAR
STARTCHAR y
ENCODING 121
SWIDTH 444 0
DWIDTH 7 0
BBX 8 11 -1 -3
BITMAP
13
39
19
1A
1A
1C
0C
08
10
A0
C0
ENDCHAR
STARTCHAR z
ENCODING 122
SWIDTH 389 0
DWIDTH 6 0
BBX 7 9 0 -1
BITMAP
3E
7C
48
10
20
60
F0
34
18
ENDCHAR
STARTCHAR braceleft
ENCODING 123
SWIDTH 348 0
DWIDTH 6 0
BBX 6 15 0 -3
BITMAP
04
08
18
18
10
30
20
C0
40
40
C0
C0
80
80
40
ENDCHAR
STARTCHAR bar
ENCODING 124
SWIDTH 220 0
DWIDTH 4 0
BBX 1 12 1 0
BITMAP
80
80
80
80
80
80
80
80
80
80
80
80
ENDCHAR
STARTCHAR braceright
ENCODING 125
SWIDTH 348 0
DWIDTH 6 0
BBX 6 15 -1 -3
BITMAP
08
04
04
0C
0C
08
08
0C
10
30
20
60
60
40
80
ENDCHAR
STARTCHAR asciitilde
ENCODING 126
SWIDTH 570 0
DWIDTH 10 0
BBX 8 3 1 3
BITMAP
70
BD
0E
ENDCHAR
STARTCHAR space
ENCODING 160
SWIDTH 250 0
DWIDTH 4 0
BBX 1 1 0 0
BITMAP
00
ENDCHAR
STARTCHAR exclamdown
ENCODING 161
SWIDTH 389 0
DWIDTH 6 0
BBX 5 12 0 -4
BITMAP
18
18
00
00
10
10
30
20
60
60
C0
C0
ENDCHAR
STARTCHAR cent
ENCODING 162
SWIDTH 500 0
DWIDTH 8 0
BBX 7 12 0 -2
BITMAP
02
02
0C
36
66
48
C8
D0
D4
78
20
20
ENDCHAR
STARTCHAR sterling
ENCODING 163
SWIDTH 500 0
DWIDTH 8 0
BBX 9 11 -1 0
BITMAP
0300
0580
0D00
0C00
1800
7E00
1800
1800
7100
9E00
6C00
ENDCHAR
STARTCHAR currency
ENCODING 164
SWIDTH 500 0
DWIDTH 8 0
BBX 7 8 1 1
BITMAP
BA
7C
C6
82
82
C6
7C
BA
ENDCHAR
STARTCHAR yen
ENCODING 165
SWIDTH 500 0
DWIDTH 8 0
BBX 9 11 0 0
BITMAP
FB80
7100
3200
3200
3400
3800
FC00
3000
FC00
3000
7800
ENDCHAR
STARTCHAR brokenbar
ENCODING 166
SWIDTH 220 0
DWIDTH 4 0
BBX 1 12 1 0
BITMAP
80
80
80
80
80
00
00
80
80
80
80
80
ENDCHAR
STARTCHAR section
ENCODING 167
SWIDTH 500 0
DWIDTH 8 0
BBX 7 14 0 -3
BITMAP
1C
26
26
30
38
3C
4C
64
78
38
18
C8
C8
70
ENDCHAR
STARTCHAR dieresis
ENCODING 168
SWIDTH 333 0
DWIDTH 6 0
BBX 6 2 2 9
BITMAP
CC
CC
ENDCHAR
STARTCHAR copyright
ENCODING 169
SWIDTH 747 0
DWIDTH 12 0
BBX 12 11 0 0
BITMAP
0F00
30C0
4720
48A0
9810
9810
9810
48A0
4720
30C0
0F00
ENDCHAR
STARTCHAR ordfeminine
ENCODING 170
SWIDTH 266 0
DWIDTH 4 0
BBX 4 7 0 4
BITMAP
30
50
90
B0
50
00
F0
ENDCHAR
STARTCHAR guillemotleft
ENCODING 171
SWIDTH 500 0
DWIDTH 8 0
BBX 7 6 0 1
BITMAP
12
36
6C
D8
6C
24
ENDCHAR
STARTCHAR logicalnot
ENCODING 172
SWIDTH 606 0
DWIDTH 10 0
BBX 7 4 2 1
BITMAP
FE
FE
02
02
ENDCHAR
STARTCHAR hyphen
ENCODING 173
SWIDTH 333 0
DWIDTH 5 0
BBX 4 2 1 3
BITMAP
F0
F0
ENDCHAR
STARTCHAR registered
ENCODING 174
SWIDTH 747 0
DWIDTH 12 0
BBX 12 11 0 0
BITMAP
0F00
30C0
5E20
4920
8910
8E10
8A10
4920
4D20
30C0
0F00
ENDCHAR
STARTCHAR macron
ENCODING 175
SWIDTH 333 0
DWIDTH 6 0
BBX 6 1 0 9
BITMAP
FC
ENDCHAR
STARTCHAR degree
ENCODING 176
SWIDTH 400 0
DWIDTH 7 0
BBX 5 5 1 6
BITMAP
70
88
88
88
70
ENDCHAR
STARTCHAR plusminus
ENCODING 177
SWIDTH 570 0
DWIDTH 10 0
BBX 7 10 1 0
BITMAP
10
10
10
FE
FE
10
10
00
FE
FE
ENDCHAR
STARTCHAR twosuperior
ENCODING 178
SWIDTH 300 0
DWIDTH 5 0
BBX 5 7 0 4
BITMAP
30
58
18
10
20
48
F0
ENDCHAR
STARTCHAR threesuperior
ENCODING 179
SWIDTH 300 0
DWIDTH 5 0
BBX 5 7 0 4
BITMAP
30
48
38
10
90
B0
60
ENDCHAR
STARTCHAR acute
ENCODING 180
SWIDTH 333 0
DWIDTH 6 0
BBX 3 3 3 9
BITMAP
60
40
80
ENDCHAR
STARTCHAR mu
ENCODING 181
SWIDTH 576 0
DWIDTH 9 0
BBX 9 11 0 -3
BITMAP
3300
7300
3300
3300
6600
6600
6E80
7700
4000
C000
8000
ENDCHAR
STARTCHAR paragraph
ENCODING 182
SWIDTH 500 0
DWIDTH 8 0
BBX 8 14 0 -3
BITMAP
1F
3A
7A
F6
F4
F4
6C
28
68
58
D0
B0
A0
A0
ENDCHAR
STARTCHAR periodcentered
ENCODING 183
SWIDTH 250 0
DWIDTH 4 0
BBX 2 2 1 3
BITMAP
C0
C0
ENDCHAR
STARTCHAR cedilla
ENCODING 184
SWIDTH 333 0
DWIDTH 6 0
BBX 5 4 0 -3
BITMAP
20
30
88
70
ENDCHAR
STARTCHAR onesuperior
ENCODING 185
SWIDTH 300 0
DWIDTH 5 0
BBX 4 7 0 4
BITMAP
30
10
30
20
60
40
E0
ENDCHAR
STARTCHAR ordmasculine
ENCODING 186
SWIDTH 300 0
DWIDTH 5 0
BBX 4 7 1 4
BITMAP
30
50
90
A0
C0
00
F0
ENDCHAR
STARTCHAR guillemotright
ENCODING 187
SWIDTH 500 0
DWIDTH 8 0
BBX 7 6 0 1
BITMAP
48
6C
36
6C
D8
90
ENDCHAR
STARTCHAR onequarter
ENCODING 188
SWIDTH 750 0
DWIDTH 13 0
BBX 11 11 0 0
BITMAP
3080
1100
3100
2200
6220
4460
E4E0
0940
0A40
13E0
1080
ENDCHAR
STARTCHAR onehalf
ENCODING 189
SWIDTH 750 0
DWIDTH 13 0
BBX 12 11 0 0
BITMAP
3080
1100
3100
2200
6260
44B0
E430
0820
0840
1090
11E0
ENDCHAR
STARTCHAR threequarters
ENCODING 190
SWIDTH 750 0
DWIDTH 13 0
BBX 11 11 1 0
BITMAP
3040
4880
3900
1100
9220
B460
64E0
0940
1240
13E0
2080
ENDCHAR
STARTCHAR questiondown
ENCODING 191
SWIDTH 500 0
DWIDTH 8 0
BBX 6 12 1 -4
BITMAP
0C
0C
00
08
08
30
60
C0
C0
C8
C8
70
ENDCHAR
STARTCHAR Agrave
ENCODING 192
SWIDTH 667 0
DWIDTH 11 0
BBX 11 15 -1 0
BITMAP
0600
0200
0100
0000
0100
0100
0300
0780
0580
0980
1180
1F80
2180
41C0
E3E0
ENDCHAR
STARTCHAR Aacute
ENCODING 193
SWIDTH 667 0
DWIDTH 11 0
BBX 11 15 -1 0
BITMAP
00C0
0080
0100
0000
0100
0100
0300
0780
0580
0980
1180
1F80
2180
41C0
E3E0
ENDCHAR
STARTCHAR Acircumflex
ENCODING 194
SWIDTH 667 0
DWIDTH 11 0
BBX 11 15 -1 0
BITMAP
0080
01C0
0220
0000
0100
0100
0300
0780
0580
0980
1180
1F80
2180
41C0
E3E0
ENDCHAR
STARTCHAR Atilde
ENCODING 195
SWIDTH 667 0
DWIDTH 11 0
BBX 12 14 -1 0
BITMAP
0390
04E0
0000
0100
0100
0300
0780
0580
0980
1180
1F80
2180
41C0
E3E0
ENDCHAR
STARTCHAR Adieresis
ENCODING 196
SWIDTH 667 0
DWIDTH 11 0
BBX 11 14 -1 0
BITMAP
0660
0660
0000
0100
0100
0300
0780
0580
0980
1180
1F80
2180
41C0
E3E0
ENDCHAR
STARTCHAR Aring
ENCODING 197
SWIDTH 667 0
DWIDTH 11 0
BBX 11 15 -1 0
BITMAP
0180
0240
0180
0000
0100
0100
0300
0780
0580
0980
1180
1F80
2180
41C0
E3E0
ENDCHAR
STARTCHAR AE
ENCODING 198
SWIDTH 944 0
DWIDTH 15 0
BBX 16 11 -1 0
BITMAP
01FF
00E1
0160
02E4
04C4
08FC
1FC8
11C8
2182
4186
E3FC
ENDCHAR
STARTCHAR Ccedilla
ENCODING 199
SWIDTH 667 0
DWIDTH 11 0
BBX 11 14 0 -3
BITMAP
07A0
1840
3040
7000
6000
E000
E000
E000
6080
6100
1E00
0C00
2200
1C00
ENDCHAR
STARTCHAR Egrave
ENCODING 200
SWIDTH 667 0
DWIDTH 11 0
BBX 10 15 0 0
BITMAP
0C00
0400
0200
0000
3FC0
1840
1800
3900
3100
3F00
3200
7200
6080
6180
FF00
ENDCHAR
STARTCHAR Eacute
ENCODING 201
SWIDTH 667 0
DWIDTH 11 0
BBX 10 15 0 0
BITMAP
0180
0100
0200
0000
3FC0
1840
1800
3900
3100
3F00
3200
7200
6080
6180
FF00
ENDCHAR
STARTCHAR Ecircumflex
ENCODING 202
SWIDTH 667 0
DWIDTH 11 0
BBX 10 15 0 0
BITMAP
0200
0700
0880
0000
3FC0
1840
1800
3900
3100
3F00
3200
7200
6080
6180
FF00
ENDCHAR
STARTCHAR Edieresis
ENCODING 203
SWIDTH 667 0
DWIDTH 11 0
BBX 10 14 0 0
BITMAP
0CC0
0CC0
0000
3FC0
1840
1800
3900
3100
3F00
3200
7200
6080
6180
FF00
ENDCHAR
STARTCHAR Igrave
ENCODING 204
SWIDTH 389 0
DWIDTH 6 0
BBX 6 15 0 0
BITMAP
30
10
08
00
3C
18
18
38
30
30
30
70
60
60
F0
ENDCHAR
STARTCHAR Iacute
ENCODING 205
SWIDTH 389 0
DWIDTH 6 0
BBX 7 15 0 0
BITMAP
06
04
08
00
3C
18
18
38
30
30
30
70
60
60
F0
ENDCHAR
STARTCHAR Icircumflex
ENCODING 206
SWIDTH 389 0
DWIDTH 6 0
BBX 7 15 0 0
BITMAP
08
1C
22
00
3C
18
18
38
30
30
30
70
60
60
F0
ENDCHAR
STARTCHAR Idieresis
ENCODING 207
SWIDTH 389 0
DWIDTH 6 0
BBX 8 14 0 0
BITMAP
33
33
00
3C
18
18
38
30
30
30
70
60
60
F0
ENDCHAR
STARTCHAR Eth
ENCODING 208
SWIDTH 722 0
DWIDTH 12 0
BBX 11 11 0 0
BITMAP
3F00
18C0
1840
3860
3060
FC60
3060
60C0
60C0
6300
FC00
ENDCHAR
STARTCHAR Ntilde
ENCODING 209
SWIDTH 722 0
DWIDTH 12 0
BBX 12 14 0 0
BITMAP
0720
09C0
0000
3870
1820
1C20
3C20
2E40
2640
2740
43C0
4380
4180
E080
ENDCHAR
STARTCHAR Ograve
ENCODING 210
SWIDTH 722 0
DWIDTH 12 0
BBX 10 15 1 0
BITMAP
0600
0200
0100
0000
0700
1880
30C0
70C0
60C0
E1C0
C180
C380
C300
4600
3800
ENDCHAR
STARTCHAR Oacute
ENCODING 211
SWIDTH 722 0
DWIDTH 12 0
BBX 10 15 1 0
BITMAP
00C0
0080
0100
0000
0700
1880
30C0
70C0
60C0
E1C0
C180
C380
C300
4600
3800
ENDCHAR
STARTCHAR Ocircumflex
ENCODING 212
SWIDTH 722 0
DWIDTH 12 0
BBX 10 15 1 0
BITMAP
0100
0380
0440
0000
0700
1880
30C0
70C0
60C0
E1C0
C180
C380
C300
4600
3800
ENDCHAR
STARTCHAR Otilde
ENCODING 213
SWIDTH 722 0
DWIDTH 12 0
BBX 10 14 1 0
BITMAP
0E40
1380
0000
0700
1880
30C0
70C0
60C0
E1C0
C180
C380
C300
4600
3800
ENDCHAR
STARTCHAR Odieresis
ENCODING 214
SWIDTH 722 0
DWIDTH 12 0
BBX 10 14 1 0
BITMAP
0CC0
0CC0
0000
0700
1880
30C0
70C0
60C0
E1C0
C180
C380
C300
4600
3800
ENDCHAR
STARTCHAR multiply
ENCODING 215
SWIDTH 570 0
DWIDTH 10 0
BBX 8 9 1 0
BITMAP
81
C3
66
3C
18
3C
66
C3
81
ENDCHAR
STARTCHAR Oslash
ENCODING 216
SWIDTH 722 0
DWIDTH 12 0
BBX 10 14 1 -2
BITMAP
0080
0700
1980
32C0
62C0
64C0
C4C0
C980
C980
D300
5600
3800
2000
4000
ENDCHAR
STARTCHAR Ugrave
ENCODING 217
SWIDTH 722 0
DWIDTH 12 0
BBX 11 15 1 0
BITMAP
0600
0200
0100
0000
7CE0
3840
3040
7040
7080
6080
E080
C100
C100
C200
7C00
ENDCHAR
STARTCHAR Uacute
ENCODING 218
SWIDTH 722 0
DWIDTH 12 0
BBX 11 15 1 0
BITMAP
0180
0100
0200
0000
7CE0
3840
3040
7040
7080
6080
E080
C100
C100
C200
7C00
ENDCHAR
STARTCHAR Ucircumflex
ENCODING 219
SWIDTH 722 0
DWIDTH 12 0
BBX 11 15 1 0
BITMAP
0100
0380
0440
0000
7CE0
3840
3040
7040
7080
6080
E080
C100
C100
C200
7C00
ENDCHAR
STARTCHAR Udieresis
ENCODING 220
SWIDTH 722 0
DWIDTH 12 0
BBX 11 14 1 0
BITMAP
0CC0
0CC0
0000
7CE0
3840
3040
7040
7080
6080
E080
C100
C100
C200
7C00
ENDCHAR
STARTCHAR Yacute
ENCODING 221
SWIDTH 611 0
DWIDTH 10 0
BBX 9 15 1 0
BITMAP
0600
0400
0800
0000
F380
6100
7200
3400
3800
1800
1800
3000
3000
3000
F800
ENDCHAR
STARTCHAR Thorn
ENCODING 222
SWIDTH 611 0
DWIDTH 10 0
BBX 10 11 0 0
BITMAP
3C00
1800
1F00
38C0
30C0
30C0
3180
7E00
6000
6000
F000
ENDCHAR
STARTCHAR germandbls
ENCODING 223
SWIDTH 500 0
DWIDTH 8 0
BBX 12 15 -3 -3
BITMAP
00E0
0130
0330
0320
0240
06C0
0660
0660
0660
0C60
0C40
0D80
1800
D800
7000
ENDCHAR
STARTCHAR agrave
ENCODING 224
SWIDTH 500 0
DWIDTH 8 0
BBX 8 12 0 0
BITMAP
18
08
04
00
1B
66
66
C6
CC
CC
DD
76
ENDCHAR
STARTCHAR aacute
ENCODING 225
SWIDTH 500 0
DWIDTH 8 0
BBX 8 12 0 0
BITMAP
06
04
08
00
1B
66
66
C6
CC
CC
DD
76
ENDCHAR
STARTCHAR acircumflex
ENCODING 226
SWIDTH 500 0
DWIDTH 8 0
BBX 8 12 0 0
BITMAP
08
1C
22
00
1B
66
66
C6
CC
CC
DD
76
ENDCHAR
STARTCHAR atilde
ENCODING 227
SWIDTH 500 0
DWIDTH 8 0
BBX 8 11 0 0
BITMAP
1D
2E
00
1B
66
66
C6
CC
CC
DD
76
ENDCHAR
STARTCHAR adieresis
ENCODING 228
SWIDTH 500 0
DWIDTH 8 0
BBX 8 11 0 0
BITMAP
33
33
00
1B
66
66
C6
CC
CC
DD
76
ENDCHAR
STARTCHAR aring
ENCODING 229
SWIDTH 500 0
DWIDTH 8 0
BBX 8 12 0 0
BITMAP
0C
12
0C
00
1B
66
66
C6
CC
CC
DD
76
ENDCHAR
STARTCHAR ae
ENCODING 230
SWIDTH 722 0
DWIDTH 12 0
BBX 12 8 0 0
BITMAP
1AE0
6730
6620
C640
CF80
CE20
DE40
7380
ENDCHAR
STARTCHAR ccedilla
ENCODING 231
SWIDTH 444 0
DWIDTH 7 0
BBX 6 11 1 -3
BITMAP
1C
2C
40
C0
C0
C0
C8
70
30
88
70
ENDCHAR
STARTCHAR egrave
ENCODING 232
SWIDTH 444 0
DWIDTH 7 0
BBX 7 12 0 0
BITMAP
18
08
04
00
1C
26
44
C8
F0
C4
C8
70
ENDCHAR
STARTCHAR eacute
ENCODING 233
SWIDTH 444 0
DWIDTH 7 0
BBX 7 12 0 0
BITMAP
06
04
08
00
1C
26
44
C8
F0
C4
C8
70
ENDCHAR
STARTCHAR ecircumflex
ENCODING 234
SWIDTH 444 0
DWIDTH 7 0
BBX 7 12 0 0
BITMAP
08
1C
22
00
1C
26
44
C8
F0
C4
C8
70
ENDCHAR
STARTCHAR edieresis
ENCODING 235
SWIDTH 444 0
DWIDTH 7 0
BBX 8 11 0 0
BITMAP
33
33
00
1C
26
44
C8
F0
C4
C8
70
ENDCHAR
STARTCHAR igrave
ENCODING 236
SWIDTH 278 0
DWIDTH 5 0
BBX 4 12 1 0
BITMAP
60
20
10
00
60
E0
60
60
C0
C0
D0
E0
ENDCHAR
STARTCHAR iacute
ENCODING 237
SWIDTH 278 0
DWIDTH 5 0
BBX 4 12 1 0
BITMAP
30
20
40
00
60
E0
60
60
C0
C0
D0
E0
ENDCHAR
STARTCHAR icircumflex
ENCODING 238
SWIDTH 278 0
DWIDTH 5 0
BBX 5 12 1 0
BITMAP
20
70
88
00
60
E0
60
60
C0
C0
D0
E0
ENDCHAR
STARTCHAR idieresis
ENCODING 239
SWIDTH 278 0
DWIDTH 5 0
BBX 6 11 0 0
BITMAP
CC
CC
00
30
70
30
30
60
60
68
70
ENDCHAR
STARTCHAR eth
ENCODING 240
SWIDTH 500 0
DWIDTH 8 0
BBX 8 11 0 0
BITMAP
1A
0C
16
0E
33
63
63
C6
C6
4C
30
ENDCHAR
STARTCHAR ntilde
ENCODING 241
SWIDTH 556 0
DWIDTH 9 0
BBX 8 11 1 0
BITMAP
3A
5C
00
66
EE
76
66
CC
CC
CD
CE
ENDCHAR
STARTCHAR ograve
ENCODING 242
SWIDTH 500 0
DWIDTH 8 0
BBX 8 12 0 0
BITMAP
18
08
04
00
0C
32
63
63
C6
C6
4C
30
ENDCHAR
STARTCHAR oacute
ENCODING 243
SWIDTH 500 0
DWIDTH 8 0
BBX 8 12 0 0
BITMAP
03
02
04
00
0C
32
63
63
C6
C6
4C
30
ENDCHAR
STARTCHAR ocircumflex
ENCODING 244
SWIDTH 500 0
DWIDTH 8 0
BBX 8 12 0 0
BITMAP
04
0E
11
00
0C
32
63
63
C6
C6
4C
30
ENDCHAR
STARTCHAR otilde
ENCODING 245
SWIDTH 500 0
DWIDTH 8 0
BBX 8 11 0 0
BITMAP
1D
2E
00
0C
32
63
63
C6
C6
4C
30
ENDCHAR
STARTCHAR odieresis
ENCODING 246
SWIDTH 500 0
DWIDTH 8 0
BBX 9 11 0 0
BITMAP
1980
1980
0000
0C00
3200
6300
6300
C600
C600
4C00
3000
ENDCHAR
STARTCHAR divide
ENCODING 247
SWIDTH 570 0
DWIDTH 10 0
BBX 8 8 1 1
BITMAP
18
18
00
FF
FF
00
18
18
ENDCHAR
STARTCHAR oslash
ENCODING 248
SWIDTH 500 0
DWIDTH 8 0
BBX 8 12 0 -2
BITMAP
01
02
0E
36
6B
6B
D6
D6
6C
70
40
80
ENDCHAR
STARTCHAR ugrave
ENCODING 249
SWIDTH 556 0
DWIDTH 9 0
BBX 8 12 1 0
BITMAP
30
10
08
00
66
E6
66
66
CC
CC
DD
6E
ENDCHAR
STARTCHAR uacute
ENCODING 250
SWIDTH 556 0
DWIDTH 9 0
BBX 8 12 1 0
BITMAP
0C
08
10
00
66
E6
66
66
CC
CC
DD
6E
ENDCHAR
STARTCHAR ucircumflex
ENCODING 251
SWIDTH 556 0
DWIDTH 9 0
BBX 8 12 1 0
BITMAP
08
1C
22
00
66
E6
66
66
CC
CC
DD
6E
ENDCHAR
STARTCHAR udieresis
ENCODING 252
SWIDTH 556 0
DWIDTH 9 0
BBX 8 11 1 0
BITMAP
66
66
00
66
E6
66
66
CC
CC
DD
6E
ENDCHAR
STARTCHAR yacute
ENCODING 253
SWIDTH 444 0
DWIDTH 7 0
BBX 8 15 -1 -3
BITMAP
06
04
08
00
13
39
19
1A
1A
1C
0C
08
10
A0
C0
ENDCHAR
STARTCHAR thorn
ENCODING 254
SWIDTH 500 0
DWIDTH 8 0
BBX 9 14 -1 -3
BITMAP
0C00
1C00
0C00
1B00
1D80
1980
1980
3100
3300
3600
3800
6000
6000
F000
ENDCHAR
STARTCHAR ydieresis
ENCODING 255
SWIDTH 444 0
DWIDTH 7 0
BBX 9 14 -1 -3
BITMAP
1980
1980
0000
1300
3900
1900
1A00
1A00
1C00
0C00
0800
1000
A000
C000
ENDCHAR
STARTCHAR Lslash
ENCODING -1
SWIDTH 611 0
DWIDTH 10 0
BBX 9 11 0 0
BITMAP
3E00
1800
1800
3A00
3C00
3000
F000
7000
6080
6180
FF00
ENDCHAR
STARTCHAR OE
ENCODING -1
SWIDTH 944 0
DWIDTH 15 0
BBX 15 11 0 0
BITMAP
07FE
18C2
30C0
71C8
6188
E1F8
C390
C390
C304
470C
3FF8
ENDCHAR
STARTCHAR Scaron
ENCODING -1
SWIDTH 556 0
DWIDTH 9 0
BBX 8 15 0 0
BITMAP
11
0E
04
00
1D
23
61
70
78
3C
1E
0E
86
C4
B8
ENDCHAR
STARTCHAR Ydieresis
ENCODING -1
SWIDTH 611 0
DWIDTH 10 0
BBX 9 14 1 0
BITMAP
3300
3300
0000
F380
6100
7200
3400
3800
1800
1800
3000
3000
3000
F800
ENDCHAR
STARTCHAR Zcaron
ENCODING -1
SWIDTH 611 0
DWIDTH 10 0
BBX 10 15 0 0
BITMAP
0880
0700
0200
0000
3FC0
6380
4300
0600
0E00
0C00
1800
3800
3080
7180
FF00
ENDCHAR
STARTCHAR breve
ENCODING -1
SWIDTH 333 0
DWIDTH 6 0
BBX 5 2 1 9
BITMAP
88
70
ENDCHAR
STARTCHAR bullet
ENCODING -1
SWIDTH 350 0
DWIDTH 6 0
BBX 4 4 1 3
BITMAP
60
F0
F0
60
ENDCHAR
STARTCHAR caron
ENCODING -1
SWIDTH 333 0
DWIDTH 6 0
BBX 5 3 1 9
BITMAP
88
70
20
ENDCHAR
STARTCHAR circumflex
ENCODING -1
SWIDTH 333 0
DWIDTH 6 0
BBX 5 3 1 9
BITMAP
20
70
88
ENDCHAR
STARTCHAR dagger
ENCODING -1
SWIDTH 500 0
DWIDTH 8 0
BBX 7 14 1 -3
BITMAP
38
38
10
D6
FE
D6
30
20
20
20
60
40
40
40
ENDCHAR
STARTCHAR daggerdbl
ENCODING -1
SWIDTH 500 0
DWIDTH 8 0
BBX 8 14 0 -3
BITMAP
1C
1C
08
6B
7F
6B
18
10
D6
FE
D6
10
38
38
ENDCHAR
STARTCHAR dotaccent
ENCODING -1
SWIDTH 333 0
DWIDTH 6 0
BBX 2 2 3 9
BITMAP
C0
C0
ENDCHAR
STARTCHAR dotlessi
ENCODING -1
SWIDTH 278 0
DWIDTH 5 0
BBX 4 8 1 0
BITMAP
60
E0
60
60
C0
C0
D0
E0
ENDCHAR
STARTCHAR ellipsis
ENCODING -1
SWIDTH 1000 0
DWIDTH 15 0
BBX 12 2 1 0
BITMAP
C630
C630
ENDCHAR
STARTCHAR emdash
ENCODING -1
SWIDTH 1000 0
DWIDTH 16 0
BBX 16 2 0 3
BITMAP
FFFF
FFFF
ENDCHAR
STARTCHAR endash
ENCODING -1
SWIDTH 500 0
DWIDTH 8 0
BBX 8 2 0 3
BITMAP
FF
FF
ENDCHAR
STARTCHAR fi
ENCODING -1
SWIDTH 556 0
DWIDTH 9 0
BBX 12 14 -3 -3
BITMAP
01C0
0360
0300
0360
0FE0
0660
0660
06C0
0CC0
0CD0
0CE0
1800
D800
7000
ENDCHAR
STARTCHAR fl
ENCODING -1
SWIDTH 556 0
DWIDTH 9 0
BBX 12 14 -3 -3
BITMAP
01F0
0330
0330
0360
0FE0
0660
0660
06C0
0CC0
0CD0
0C60
1800
D800
7000
ENDCHAR
STARTCHAR florin
ENCODING -1
SWIDTH 500 0
DWIDTH 8 0
BBX 11 14 -2 -3
BITMAP
01C0
0360
0300
0300
0F80
0600
0600
0600
0C00
0C00
0C00
1800
D800
7000
ENDCHAR
STARTCHAR fraction
ENCODING -1
SWIDTH 167 0
DWIDTH 3 0
BBX 6 11 -1 0
BITMAP
04
08
08
10
10
20
20
40
40
80
80
ENDCHAR
STARTCHAR grave
ENCODING -1
SWIDTH 333 0
DWIDTH 6 0
BBX 3 3 3 9
BITMAP
C0
40
20
ENDCHAR
STARTCHAR guilsinglleft
ENCODING -1
SWIDTH 333 0
DWIDTH 6 0
BBX 4 6 1 1
BITMAP
10
30
60
C0
60
20
ENDCHAR
STARTCHAR guilsinglright
ENCODING -1
SWIDTH 333 0
DWIDTH 6 0
BBX 4 6 1 1
BITMAP
40
60
30
60
C0
80
ENDCHAR
STARTCHAR hungarumlaut
ENCODING -1
SWIDTH 333 0
DWIDTH 6 0
BBX 6 3 0 9
BITMAP
6C
48
90
ENDCHAR
STARTCHAR lslash
ENCODING -1
SWIDTH 278 0
DWIDTH 5 0
BBX 5 11 0 0
BITMAP
18
38
18
30
38
30
70
E0
60
68
30
ENDCHAR
STARTCHAR oe
ENCODING -1
SWIDTH 722 0
DWIDTH 12 0
BBX 12 8 0 0
BITMAP
0CE0
3330
6220
6640
C780
C620
4E40
3380
ENDCHAR
STARTCHAR ogonek
ENCODING -1
SWIDTH 333 0
DWIDTH 6 0
BBX 4 4 1 -3
BITMAP
40
80
90
E0
ENDCHAR
STARTCHAR perthousand
ENCODING -1
SWIDTH 1000 0
DWIDTH 17 0
BBX 16 11 0 0
BITMAP
3100
6F00
CA00
CA00
D400
6986
0B4D
1659
1659
269A
230C
ENDCHAR
STARTCHAR quotedblbase
ENCODING -1
SWIDTH 500 0
DWIDTH 8 0
BBX 7 5 -1 -3
BITMAP
66
66
22
44
88
ENDCHAR
STARTCHAR quotedblleft
ENCODING -1
SWIDTH 500 0
DWIDTH 8 0
BBX 7 5 1 6
BITMAP
22
44
88
CC
CC
ENDCHAR
STARTCHAR quotedblright
ENCODING -1
SWIDTH 500 0
DWIDTH 8 0
BBX 7 5 1 6
BITMAP
66
66
22
44
88
ENDCHAR
STARTCHAR quotesinglbase
ENCODING -1
SWIDTH 333 0
DWIDTH 6 0
BBX 3 5 1 -3
BITMAP
60
60
20
40
80
ENDCHAR
STARTCHAR quotesingle
ENCODING -1
SWIDTH 278 0
DWIDTH 5 0
BBX 2 5 2 6
BITMAP
C0
C0
C0
80
80
ENDCHAR
STARTCHAR ring
ENCODING -1
SWIDTH 333 0
DWIDTH 6 0
BBX 4 3 2 9
BITMAP
60
90
60
ENDCHAR
STARTCHAR scaron
ENCODING -1
SWIDTH 389 0
DWIDTH 6 0
BBX 7 12 0 0
BITMAP
22
1C
08
00
34
6C
64
70
38
98
D8
B0
ENDCHAR
STARTCHAR tilde
ENCODING -1
SWIDTH 333 0
DWIDTH 6 0
BBX 6 2 1 9
BITMAP
74
B8
ENDCHAR
STARTCHAR trademark
ENCODING -1
SWIDTH 1000 0
DWIDTH 17 0
BBX 16 7 0 4
BITMAP
FD8F
B58E
31D6
3156
3176
3126
7BAF
ENDCHAR
STARTCHAR zcaron
ENCODING -1
SWIDTH 389 0
DWIDTH 6 0
BBX 7 13 0 -1
BITMAP
22
1C
08
00
3E
7C
48
10
20
60
F0
34
18
ENDCHAR
ENDFONT
