STARTFONT 2.1
FONT -Adobe-Times-Bold-R-Normal--34-240-100-100-P-177-ISO8859-1
SIZE 24 100 100
FONTBOUNDINGBOX 38 37 -5 -7
COMMENT $XConsortium: timB24.bdf,v 1.7 95/01/26 17:58:22 gildea Exp $
COMMENT 
COMMENT +
COMMENT  Copyright 1984-1989, 1994 Adobe Systems Incorporated.
COMMENT  Copyright 1988, 1994 Digital Equipment Corporation.
COMMENT
COMMENT  Adobe is a trademark of Adobe Systems Incorporated which may be
COMMENT  registered in certain jurisdictions.
COMMENT  Permission to use these trademarks is hereby granted only in
COMMENT  association with the images described in this file.
COMMENT
COMMENT  Permission to use, copy, modify, distribute and sell this software
COMMENT  and its documentation for any purpose and without fee is hereby
COMMENT  granted, provided that the above copyright notices appear in all
COMMENT  copies and that both those copyright notices and this permission
COMMENT  notice appear in supporting documentation, and that the names of
COMMENT  Adobe Systems and Digital Equipment Corporation not be used in
COMMENT  advertising or publicity pertaining to distribution of the software
COMMENT  without specific, written prior permission.  Adobe Systems and
COMMENT  Digital Equipment Corporation make no representations about the
COMMENT  suitability of this software for any purpose.  It is provided "as
COMMENT  is" without express or implied warranty.
COMMENT -
STARTPROPERTIES 28
FOUNDRY "Adobe"
FAMILY_NAME "Times"
WEIGHT_NAME "Bold"
SLANT "R"
SETWIDTH_NAME "Normal"
ADD_STYLE_NAME ""
PIXEL_SIZE 34
POINT_SIZE 240
RESOLUTION_X 100
RESOLUTION_Y 100
SPACING "P"
AVERAGE_WIDTH 177
CHARSET_REGISTRY "ISO8859"
CHARSET_ENCODING "1"
CAP_HEIGHT 23
X_HEIGHT 16
FONT_ASCENT 27
FONT_DESCENT 7
FACE_NAME "Times Bold"
COPYRIGHT "Copyright (c) 1984, 1987 Adobe Systems Incorporated. All Rights Reserved. Copyright (c) 1988, 1991 Digital Equipment Corporation. All Rights Reserved."
NOTICE "Times is a trademark of Linotype-Hell AG and/or its subsidiaries."
_DEC_DEVICE_FONTNAMES "PS=Times-Bold"
_DEC_PRODUCTINFO "DECwindows Fonts V2.2, 07-Nov-1991"
DEFAULT_CHAR 32
RELATIVE_SETWIDTH 50
RELATIVE_WEIGHT 70
CHARSET_COLLECTIONS "ASCII ISO8859-1 ADOBE-STANDARD"
FULL_NAME "Times Bold"
ENDPROPERTIES
CHARS 229
STARTCHAR space
ENCODING 32
SWIDTH 250 0
DWIDTH 8 0
BBX 1 1 0 0
BITMAP
00
ENDCHAR
STARTCHAR exclam
ENCODING 33
SWIDTH 333 0
DWIDTH 11 0
BBX 5 23 3 0
BITMAP
70
F8
F8
F8
F8
F8
F8
70
70
70
70
20
20
20
20
00
00
00
70
F8
F8
F8
70
ENDCHAR
STARTCHAR quotedbl
ENCODING 34
SWIDTH 555 0
DWIDTH 19 0
BBX 11 11 2 12
BITMAP
60C0
F1E0
F1E0
F1E0
F1E0
F1E0
F1E0
60C0
60C0
60C0
60C0
ENDCHAR
STARTCHAR numbersign
ENCODING 35
SWIDTH 500 0
DWIDTH 17 0
BBX 16 23 0 0
BITMAP
030C
030C
071C
071C
0618
0618
7FFF
7FFF
0E38
0C30
0C30
0C30
0C30
1C70
FFFE
FFFE
1860
1860
1860
38E0
38E0
30C0
30C0
ENDCHAR
STARTCHAR dollar
ENCODING 36
SWIDTH 500 0
DWIDTH 16 0
BBX 15 28 1 -3
BITMAP
0300
0300
0FE8
3FF8
7338
6318
E308
E308
F300
FB00
7F00
7F80
3FE0
0FF0
03F8
03FC
037C
833E
831E
831E
C31C
C33C
F378
FFE0
8300
0300
0300
0300
ENDCHAR
STARTCHAR percent
ENCODING 37
SWIDTH 1000 0
DWIDTH 33 0
BBX 24 23 4 0
BITMAP
078020
0FC0E0
1E7FC0
3C20C0
7C2180
782180
F86300
F04700
F0C600
F0CE00
F18C3C
7F187E
3C19F3
0031E1
0033C1
0063C1
00E7C3
00C782
01C786
018786
03038C
0303F8
0601E0
ENDCHAR
STARTCHAR ampersand
ENCODING 38
SWIDTH 833 0
DWIDTH 28 0
BBX 22 23 2 0
BITMAP
01F000
03BC00
071E00
070E00
0F0E00
0F0E00
0F8C00
07D800
07F000
03E0FC
07F070
1DF030
39F860
70FC40
F0FCC0
F07F80
F83F00
F81F80
FC1FC0
FE3FE4
7FF3FC
7FC1FC
1F0078
ENDCHAR
STARTCHAR quoteright
ENCODING 39
SWIDTH 333 0
DWIDTH 11 0
BBX 6 11 3 12
BITMAP
78
FC
FC
FC
7C
0C
08
18
30
60
C0
ENDCHAR
STARTCHAR parenleft
ENCODING 40
SWIDTH 333 0
DWIDTH 11 0
BBX 8 29 2 -6
BITMAP
03
06
0C
18
18
30
30
70
60
E0
E0
E0
E0
E0
E0
E0
E0
E0
E0
E0
60
70
30
30
18
18
0C
06
03
ENDCHAR
STARTCHAR parenright
ENCODING 41
SWIDTH 333 0
DWIDTH 11 0
BBX 8 29 0 -6
BITMAP
C0
60
30
18
18
0C
0C
0E
06
07
07
07
07
07
07
07
07
07
07
07
06
0E
0C
0C
18
18
30
60
C0
ENDCHAR
STARTCHAR asterisk
ENCODING 42
SWIDTH 500 0
DWIDTH 17 0
BBX 13 14 1 9
BITMAP
0300
0700
0700
E738
F278
7AF0
0F80
0F80
7AF0
F278
E738
0700
0700
0600
ENDCHAR
STARTCHAR plus
ENCODING 43
SWIDTH 570 0
DWIDTH 19 0
BBX 15 15 2 0
BITMAP
0380
0380
0380
0380
0380
0380
FFFE
FFFE
FFFE
0380
0380
0380
0380
0380
0380
ENDCHAR
STARTCHAR comma
ENCODING 44
SWIDTH 250 0
DWIDTH 8 0
BBX 6 11 1 -6
BITMAP
38
7C
7C
7C
3C
0C
08
18
30
60
C0
ENDCHAR
STARTCHAR minus
ENCODING 45
SWIDTH 570 0
DWIDTH 19 0
BBX 15 3 2 6
BITMAP
FFFE
FFFE
FFFE
ENDCHAR
STARTCHAR period
ENCODING 46
SWIDTH 250 0
DWIDTH 8 0
BBX 5 5 1 0
BITMAP
70
F8
F8
F8
70
ENDCHAR
STARTCHAR slash
ENCODING 47
SWIDTH 278 0
DWIDTH 9 0
BBX 9 25 0 0
BITMAP
0180
0180
0100
0300
0300
0300
0600
0600
0600
0400
0C00
0C00
0C00
1800
1800
1800
3000
3000
3000
3000
6000
6000
6000
C000
C000
ENDCHAR
STARTCHAR zero
ENCODING 48
SWIDTH 500 0
DWIDTH 16 0
BBX 14 23 1 0
BITMAP
0780
1FE0
1CE0
3870
7870
7878
7878
F87C
F87C
F87C
F87C
F87C
F87C
F87C
F87C
F87C
7878
7878
7878
3870
1CE0
0FC0
0780
ENDCHAR
STARTCHAR one
ENCODING 49
SWIDTH 500 0
DWIDTH 16 0
BBX 13 23 2 0
BITMAP
0180
0780
1F80
FF80
0F80
0F80
0F80
0F80
0F80
0F80
0F80
0F80
0F80
0F80
0F80
0F80
0F80
0F80
0F80
0F80
0F80
1FC0
FFF8
ENDCHAR
STARTCHAR two
ENCODING 50
SWIDTH 500 0
DWIDTH 16 0
BBX 16 23 0 0
BITMAP
03C0
0FF0
1FF8
3FF8
30FC
607C
407C
007C
0078
0078
0078
00F0
00E0
01C0
0180
0300
0701
0E03
1C06
3FFE
7FFE
FFFC
FFFC
ENDCHAR
STARTCHAR three
ENCODING 51
SWIDTH 500 0
DWIDTH 16 0
BBX 14 23 1 0
BITMAP
07C0
1FF0
3FF0
30F8
6078
4078
0078
0070
00C0
03E0
0FF0
0FF8
03F8
00FC
007C
003C
003C
003C
6038
F038
F870
7FC0
1F00
ENDCHAR
STARTCHAR four
ENCODING 52
SWIDTH 500 0
DWIDTH 16 0
BBX 14 23 1 0
BITMAP
0070
00F0
00F0
01F0
03F0
06F0
06F0
0CF0
18F0
18F0
30F0
60F0
60F0
C0F0
FFFC
FFFC
FFFC
FFFC
00F0
00F0
00F0
00F0
00F0
ENDCHAR
STARTCHAR five
ENCODING 53
SWIDTH 500 0
DWIDTH 16 0
BBX 13 23 1 0
BITMAP
1FF8
1FF8
1FF8
1FF8
3000
3000
2000
3E00
7F80
7FE0
7FF0
7FF0
03F8
00F8
0078
0038
0038
0038
6030
F030
F860
7FC0
1F00
ENDCHAR
STARTCHAR six
ENCODING 54
SWIDTH 500 0
DWIDTH 16 0
BBX 14 23 1 0
BITMAP
001C
00F0
03C0
0780
0F00
1E00
3E00
3C00
7C00
7FE0
FDF0
F8F8
F878
F87C
F87C
F87C
F87C
787C
7878
7878
3870
1CE0
0FC0
ENDCHAR
STARTCHAR seven
ENCODING 55
SWIDTH 500 0
DWIDTH 16 0
BBX 13 23 2 0
BITMAP
7FF8
7FF8
FFF8
FFF8
C030
8070
8070
0060
00E0
00E0
00C0
01C0
01C0
0380
0380
0380
0700
0700
0700
0E00
0E00
0E00
1C00
ENDCHAR
STARTCHAR eight
ENCODING 56
SWIDTH 500 0
DWIDTH 16 0
BBX 14 23 1 0
BITMAP
0FE0
3EF0
3C78
7878
7838
7838
7C38
7E70
3FE0
3F80
1FC0
0FE0
3FF0
71F8
70FC
E07C
E03C
E03C
E03C
F038
7878
7FF0
1FC0
ENDCHAR
STARTCHAR nine
ENCODING 57
SWIDTH 500 0
DWIDTH 16 0
BBX 14 23 1 0
BITMAP
0FC0
1CE0
3870
7878
7878
F878
F87C
F87C
F87C
F87C
787C
7C7C
3EFC
1FF8
00F8
00F0
01F0
01E0
03C0
0780
0F00
3C00
E000
ENDCHAR
STARTCHAR colon
ENCODING 58
SWIDTH 333 0
DWIDTH 11 0
BBX 5 16 3 0
BITMAP
70
F8
F8
F8
70
00
00
00
00
00
00
70
F8
F8
F8
70
ENDCHAR
STARTCHAR semicolon
ENCODING 59
SWIDTH 333 0
DWIDTH 11 0
BBX 6 22 2 -6
BITMAP
38
7C
7C
7C
38
00
00
00
00
00
00
38
7C
7C
7C
3C
0C
08
18
30
60
C0
ENDCHAR
STARTCHAR less
ENCODING 60
SWIDTH 570 0
DWIDTH 19 0
BBX 16 15 1 0
BITMAP
0003
000F
007F
01FC
0FE0
3F80
FC00
F000
FC00
3F80
0FE0
01FC
007F
000F
0003
ENDCHAR
STARTCHAR equal
ENCODING 61
SWIDTH 570 0
DWIDTH 19 0
BBX 15 10 2 3
BITMAP
FFFE
FFFE
FFFE
0000
0000
0000
0000
FFFE
FFFE
FFFE
ENDCHAR
STARTCHAR greater
ENCODING 62
SWIDTH 570 0
DWIDTH 19 0
BBX 16 15 2 0
BITMAP
C000
F000
FE00
3F80
07F0
01FC
003F
000F
003F
01FC
07F0
3F80
FE00
F000
C000
ENDCHAR
STARTCHAR question
ENCODING 63
SWIDTH 500 0
DWIDTH 16 0
BBX 12 23 2 0
BITMAP
3F00
73C0
E1E0
E1F0
F1F0
F1F0
61F0
01E0
01E0
03C0
0380
0300
0600
0400
0400
0000
0000
0000
0E00
1F00
1F00
1F00
0E00
ENDCHAR
STARTCHAR at
ENCODING 64
SWIDTH 930 0
DWIDTH 31 0
BBX 26 27 2 -5
BITMAP
001FE000
00FC3C00
03E00E00
07800300
0F000100
1E000180
3E0F3880
3C1FF8C0
7C7CF840
78787840
F8F8F040
F8F0F040
F1F0F040
F1F0F040
F1E0F0C0
F1E1E080
F1E1E180
F1E3E300
71F3E300
78FEFE00
78787800
3C000000
1C000000
0E000180
07800700
01E03C00
003FE000
ENDCHAR
STARTCHAR A
ENCODING 65
SWIDTH 722 0
DWIDTH 24 0
BBX 21 23 1 0
BITMAP
002000
006000
007000
00F000
00F800
00F800
01F800
017C00
017C00
033E00
023E00
063E00
061F00
041F00
0C0F00
0FFF80
180F80
1807C0
1007C0
3003E0
3003E0
7007F0
FC1FF8
ENDCHAR
STARTCHAR B
ENCODING 66
SWIDTH 667 0
DWIDTH 22 0
BBX 19 23 1 0
BITMAP
FFFC00
3F1F00
1F0F80
1F07C0
1F07C0
1F07C0
1F07C0
1F07C0
1F0780
1F0F80
1F3E00
1FFC00
1F0F80
1F07C0
1F07E0
1F03E0
1F03E0
1F03E0
1F03E0
1F03C0
1F07C0
3F0F00
FFFC00
ENDCHAR
STARTCHAR C
ENCODING 67
SWIDTH 722 0
DWIDTH 24 0
BBX 19 23 2 0
BITMAP
01FC20
07FF60
0F07E0
1E01E0
3C00E0
7C0060
7C0060
F80020
F80000
F80000
F80000
F80000
F80000
F80000
F80000
F80000
7C0000
7C0000
3C0020
1E0060
0F81C0
03FF80
00FE00
ENDCHAR
STARTCHAR D
ENCODING 68
SWIDTH 722 0
DWIDTH 24 0
BBX 22 23 0 0
BITMAP
FFFC00
3FFF80
1F07E0
1F01F0
1F01F0
1F00F8
1F00F8
1F00FC
1F007C
1F007C
1F007C
1F007C
1F007C
1F007C
1F007C
1F00F8
1F00F8
1F00F8
1F01F0
1F01E0
1F07C0
3FFF00
FFFC00
ENDCHAR
STARTCHAR E
ENCODING 69
SWIDTH 667 0
DWIDTH 22 0
BBX 21 23 0 0
BITMAP
FFFFE0
3FFFE0
1F00E0
1F0060
1F0060
1F0020
1F0020
1F0400
1F0400
1F0C00
1F1C00
1FFC00
1F1C00
1F0C00
1F0400
1F0400
1F0008
1F0018
1F0030
1F0070
1F01F0
3FFFE0
FFFFE0
ENDCHAR
STARTCHAR F
ENCODING 70
SWIDTH 611 0
DWIDTH 20 0
BBX 19 23 0 0
BITMAP
FFFFE0
3FFFE0
1F00E0
1F0060
1F0060
1F0020
1F0020
1F0400
1F0400
1F0C00
1F1C00
1FFC00
1F1C00
1F0C00
1F0400
1F0400
1F0000
1F0000
1F0000
1F0000
1F0000
3F8000
FFE000
ENDCHAR
STARTCHAR G
ENCODING 71
SWIDTH 778 0
DWIDTH 25 0
BBX 22 23 2 0
BITMAP
01FC20
07FF60
0F07E0
1E01E0
3C00E0
7C0060
7C0060
F80020
F80000
F80000
F80000
F80000
F80000
F81FFC
F807F0
F803E0
7C03E0
7C03E0
3C03E0
3E03E0
1E07E0
0F8FE0
03FF00
ENDCHAR
STARTCHAR H
ENCODING 72
SWIDTH 778 0
DWIDTH 25 0
BBX 24 23 0 0
BITMAP
FFE7FF
3F81FC
1F00F8
1F00F8
1F00F8
1F00F8
1F00F8
1F00F8
1F00F8
1F00F8
1FFFF8
1FFFF8
1F00F8
1F00F8
1F00F8
1F00F8
1F00F8
1F00F8
1F00F8
1F00F8
1F00F8
3F81FC
FFE7FF
ENDCHAR
STARTCHAR I
ENCODING 73
SWIDTH 389 0
DWIDTH 13 0
BBX 11 23 1 0
BITMAP
FFE0
3F80
1F00
1F00
1F00
1F00
1F00
1F00
1F00
1F00
1F00
1F00
1F00
1F00
1F00
1F00
1F00
1F00
1F00
1F00
1F00
3F80
FFE0
ENDCHAR
STARTCHAR J
ENCODING 74
SWIDTH 500 0
DWIDTH 16 0
BBX 15 26 0 -3
BITMAP
0FFE
03F8
01F0
01F0
01F0
01F0
01F0
01F0
01F0
01F0
01F0
01F0
01F0
01F0
01F0
01F0
01F0
01F0
01F0
61F0
F1F0
F1F0
F3E0
E3E0
7FC0
1F00
ENDCHAR
STARTCHAR K
ENCODING 75
SWIDTH 778 0
DWIDTH 25 0
BBX 24 23 1 0
BITMAP
FFCFFC
7F03E0
3E01C0
3E0380
3E0700
3E0E00
3E1C00
3E3800
3E7000
3EE000
3FF000
3FF800
3FFC00
3EFE00
3E7F00
3E3F80
3E1FC0
3E0FE0
3E07F0
3E03F8
3E01FC
7F00FE
FFC3FF
ENDCHAR
STARTCHAR L
ENCODING 76
SWIDTH 667 0
DWIDTH 22 0
BBX 20 23 1 0
BITMAP
FFE000
3F8000
1F0000
1F0000
1F0000
1F0000
1F0000
1F0000
1F0000
1F0000
1F0000
1F0000
1F0000
1F0000
1F0000
1F0000
1F0010
1F0030
1F0060
1F00E0
1F81E0
3FFFC0
FFFFC0
ENDCHAR
STARTCHAR M
ENCODING 77
SWIDTH 944 0
DWIDTH 31 0
BBX 28 23 1 0
BITMAP
FF000FF0
3F001FC0
1F801F80
1F803F80
17C03F80
17C02F80
17C06F80
13E04F80
13E0CF80
13E0CF80
11F08F80
11F18F80
10F90F80
10FB0F80
10FB0F80
107E0F80
107E0F80
107C0F80
103C0F80
103C0F80
10180F80
38181FC0
FE183FF0
ENDCHAR
STARTCHAR N
ENCODING 78
SWIDTH 722 0
DWIDTH 24 0
BBX 22 23 1 0
BITMAP
FE01FC
7F0070
3F8020
1F8020
1FC020
1FE020
17F020
13F820
11F820
11FC20
10FE20
107F20
103F20
101FA0
101FE0
100FE0
1007E0
1003E0
1003E0
1001E0
1000E0
380060
FE0020
ENDCHAR
STARTCHAR O
ENCODING 79
SWIDTH 778 0
DWIDTH 25 0
BBX 21 23 2 0
BITMAP
01FC00
07FF00
0F8F80
1E03C0
3C01E0
7C01F0
7800F0
F800F8
F800F8
F800F8
F800F8
F800F8
F800F8
F800F8
F800F8
F800F8
7800F0
7C01F0
3C01E0
1E03C0
0F8F80
07FF00
01FC00
ENDCHAR
STARTCHAR P
ENCODING 80
SWIDTH 611 0
DWIDTH 20 0
BBX 19 23 0 0
BITMAP
FFFC00
3F1F80
1F0FC0
1F07C0
1F07E0
1F03E0
1F03E0
1F03E0
1F03E0
1F07C0
1F07C0
1F1F80
1FFE00
1F0000
1F0000
1F0000
1F0000
1F0000
1F0000
1F0000
1F0000
3F8000
FFE000
ENDCHAR
STARTCHAR Q
ENCODING 81
SWIDTH 778 0
DWIDTH 26 0
BBX 22 27 2 -4
BITMAP
01FC00
07FF00
0F8F80
1E03C0
3C01E0
7C01F0
7800F0
F800F8
F800F8
F800F8
F800F8
F800F8
F800F8
F800F8
F800F8
F800F8
F800F8
7C01F0
7C01F0
3E03E0
1F07C0
07FF00
01FC00
00FE00
007F84
001FF8
0007E0
ENDCHAR
STARTCHAR R
ENCODING 82
SWIDTH 722 0
DWIDTH 24 0
BBX 22 23 1 0
BITMAP
FFFC00
3F1F80
1F07C0
1F07E0
1F03E0
1F03E0
1F03E0
1F03E0
1F07E0
1F07C0
1F1F80
1FFC00
1F7E00
1F3E00
1F3F00
1F1F80
1F1F80
1F0FC0
1F07E0
1F07E0
1F03F0
3F81F8
FFE1FC
ENDCHAR
STARTCHAR S
ENCODING 83
SWIDTH 556 0
DWIDTH 18 0
BBX 15 23 1 0
BITMAP
0FC4
387C
703C
701C
F00C
F00C
F804
FC00
FF00
7FC0
3FF0
1FF8
0FFC
03FC
01FE
807E
803E
C01E
C01E
E01C
F01C
F838
8FE0
ENDCHAR
STARTCHAR T
ENCODING 84
SWIDTH 667 0
DWIDTH 22 0
BBX 19 23 1 0
BITMAP
FFFFE0
F9F3E0
E1F0E0
C1F060
81F020
81F020
81F020
01F000
01F000
01F000
01F000
01F000
01F000
01F000
01F000
01F000
01F000
01F000
01F000
01F000
01F000
03F800
0FFE00
ENDCHAR
STARTCHAR U
ENCODING 85
SWIDTH 722 0
DWIDTH 24 0
BBX 23 23 0 0
BITMAP
FFE0FE
3F8038
1F0010
1F0010
1F0010
1F0010
1F0010
1F0010
1F0010
1F0010
1F0010
1F0010
1F0010
1F0010
1F0010
1F0010
1F0010
1F0010
0F8030
0F8060
07C0C0
03FF80
00FE00
ENDCHAR
STARTCHAR V
ENCODING 86
SWIDTH 722 0
DWIDTH 24 0
BBX 22 23 1 0
BITMAP
FFC3FC
7F00F0
3E0060
3F0040
1F00C0
1F80C0
0F8080
0F8180
0FC100
07C100
07C300
03E200
03E600
03F600
01F400
01FC00
00F800
00F800
00F800
007000
007000
002000
002000
ENDCHAR
STARTCHAR W
ENCODING 87
SWIDTH 1000 0
DWIDTH 33 0
BBX 32 23 0 0
BITMAP
FFEFFF3F
7F03F80E
3F01F80C
1F01F80C
1F01F808
1F81FC18
0F81FC18
0F817C10
0FC37C30
07C27E30
07C63E20
07E63E60
03E43E60
03EC1F40
03F81FC0
01F81FC0
01F80F80
01F00F80
00F00F80
00E00700
00E00700
00E00700
00400200
ENDCHAR
STARTCHAR X
ENCODING 88
SWIDTH 722 0
DWIDTH 24 0
BBX 21 23 1 0
BITMAP
FFCFE0
7F0300
3F0200
1F8600
1F8400
0FCC00
0FC800
07F800
03F000
03F000
01F800
00F800
01FC00
017C00
033E00
023F00
061F00
041F80
0C0FC0
080FC0
1807E0
3807F0
FE3FF8
ENDCHAR
STARTCHAR Y
ENCODING 89
SWIDTH 722 0
DWIDTH 24 0
BBX 22 23 1 0
BITMAP
FFC3FC
7F00F0
3F0060
3F0060
1F80C0
1F8080
0FC180
0FC300
07E300
03E600
03F400
01FC00
01F800
00F800
00F800
00F800
00F800
00F800
00F800
00F800
00F800
01FC00
07FF00
ENDCHAR
STARTCHAR Z
ENCODING 90
SWIDTH 667 0
DWIDTH 22 0
BBX 19 23 1 0
BITMAP
3FFFC0
7E0F80
781F80
701F00
603F00
407E00
007E00
00FC00
00FC00
01F800
01F000
03F000
03E000
07E000
07C000
0FC020
1F8020
1F8060
3F0060
3F00E0
7E01E0
7E07C0
FFFFC0
ENDCHAR
STARTCHAR bracketleft
ENCODING 91
SWIDTH 333 0
DWIDTH 11 0
BBX 7 28 2 -5
BITMAP
FE
F0
E0
E0
E0
E0
E0
E0
E0
E0
E0
E0
E0
E0
E0
E0
E0
E0
E0
E0
E0
E0
E0
E0
E0
E0
F0
FE
ENDCHAR
STARTCHAR backslash
ENCODING 92
SWIDTH 278 0
DWIDTH 9 0
BBX 8 26 0 0
BITMAP
80
C0
C0
C0
60
60
60
60
30
30
30
18
18
18
18
0C
0C
0C
04
06
06
06
03
03
03
03
ENDCHAR
STARTCHAR bracketright
ENCODING 93
SWIDTH 333 0
DWIDTH 11 0
BBX 7 28 1 -5
BITMAP
FE
1E
0E
0E
0E
0E
0E
0E
0E
0E
0E
0E
0E
0E
0E
0E
0E
0E
0E
0E
0E
0E
0E
0E
0E
0E
1E
FE
ENDCHAR
STARTCHAR asciicircum
ENCODING 94
SWIDTH 581 0
DWIDTH 19 0
BBX 11 13 4 10
BITMAP
0E00
0E00
1F00
1F00
1B00
3B80
3B80
71C0
71C0
61C0
E0E0
E0E0
C060
ENDCHAR
STARTCHAR underscore
ENCODING 95
SWIDTH 500 0
DWIDTH 16 0
BBX 16 3 0 -5
BITMAP
FFFF
FFFF
FFFF
ENDCHAR
STARTCHAR quoteleft
ENCODING 96
SWIDTH 333 0
DWIDTH 11 0
BBX 6 11 2 12
BITMAP
0C
18
30
60
40
C0
F8
FC
FC
FC
78
ENDCHAR
STARTCHAR a
ENCODING 97
SWIDTH 500 0
DWIDTH 16 0
BBX 14 16 1 0
BITMAP
1F80
31E0
70F0
78F0
78F0
30F0
01F0
07F0
1CF0
38F0
78F0
F0F0
F9F0
FFF4
7EFC
3C78
ENDCHAR
STARTCHAR b
ENCODING 98
SWIDTH 556 0
DWIDTH 18 0
BBX 17 22 0 0
BITMAP
FC0000
7C0000
3C0000
3C0000
3C0000
3C0000
3C7800
3DFE00
3FFE00
3E1F00
3C1F00
3C0F80
3C0F80
3C0F80
3C0F80
3C0F80
3C0F80
3C0F00
3C1F00
3E3E00
37FC00
21F000
ENDCHAR
STARTCHAR c
ENCODING 99
SWIDTH 444 0
DWIDTH 15 0
BBX 14 16 1 0
BITMAP
07F0
1E78
3C3C
7C3C
7818
F800
F800
F800
F800
F800
F800
F800
7C00
3E18
1FF0
0FE0
ENDCHAR
STARTCHAR d
ENCODING 100
SWIDTH 556 0
DWIDTH 18 0
BBX 16 22 1 0
BITMAP
00FC
007C
003C
003C
003C
003C
0FBC
3FFC
7C3C
783C
F83C
F03C
F03C
F03C
F03C
F03C
F03C
F03C
783C
7C7E
3FFF
0FB8
ENDCHAR
STARTCHAR e
ENCODING 101
SWIDTH 444 0
DWIDTH 15 0
BBX 14 16 0 0
BITMAP
07C0
1EF0
3C70
7838
783C
F83C
F83C
FFFC
F800
F800
F800
7800
7C00
3E18
1FF0
07E0
ENDCHAR
STARTCHAR f
ENCODING 102
SWIDTH 333 0
DWIDTH 11 0
BBX 12 23 0 0
BITMAP
07E0
1E70
1CF0
3CF0
3C60
3C00
3C00
FF80
FF80
3C00
3C00
3C00
3C00
3C00
3C00
3C00
3C00
3C00
3C00
3C00
3C00
7E00
FF00
ENDCHAR
STARTCHAR g
ENCODING 103
SWIDTH 500 0
DWIDTH 16 0
BBX 14 23 1 -7
BITMAP
0FC0
3DFC
70FC
F0F0
F078
F078
F078
F078
78F8
3FF0
1FC0
3C00
6000
E000
FFE0
FFF8
7FFC
303C
601C
C00C
E01C
7FF8
1FE0
ENDCHAR
STARTCHAR h
ENCODING 104
SWIDTH 556 0
DWIDTH 18 0
BBX 17 22 0 0
BITMAP
FC0000
7C0000
3C0000
3C0000
3C0000
3C0000
3C7800
3DFC00
3FFE00
3E3E00
3C1E00
3C1E00
3C1E00
3C1E00
3C1E00
3C1E00
3C1E00
3C1E00
3C1E00
3C1E00
7E3F00
FF7F80
ENDCHAR
STARTCHAR i
ENCODING 105
SWIDTH 278 0
DWIDTH 9 0
BBX 8 23 0 0
BITMAP
18
3C
3C
3C
18
00
00
FC
7C
3C
3C
3C
3C
3C
3C
3C
3C
3C
3C
3C
3C
7E
FF
ENDCHAR
STARTCHAR j
ENCODING 106
SWIDTH 333 0
DWIDTH 11 0
BBX 10 30 -2 -7
BITMAP
0180
03C0
03C0
03C0
0180
0000
0000
0FC0
07C0
03C0
03C0
03C0
03C0
03C0
03C0
03C0
03C0
03C0
03C0
03C0
03C0
03C0
03C0
03C0
03C0
63C0
F3C0
F380
7780
3E00
ENDCHAR
STARTCHAR k
ENCODING 107
SWIDTH 556 0
DWIDTH 18 0
BBX 18 22 0 0
BITMAP
FC0000
7C0000
3C0000
3C0000
3C0000
3C0000
3C1F00
3C0E00
3C0C00
3C1800
3C3000
3C6000
3CC000
3DC000
3FE000
3DF000
3CF800
3C7C00
3C3E00
3C1F00
7E0F80
FF1FC0
ENDCHAR
STARTCHAR l
ENCODING 108
SWIDTH 278 0
DWIDTH 9 0
BBX 8 22 0 0
BITMAP
FC
7C
3C
3C
3C
3C
3C
3C
3C
3C
3C
3C
3C
3C
3C
3C
3C
3C
3C
3C
7E
FF
ENDCHAR
STARTCHAR m
ENCODING 109
SWIDTH 833 0
DWIDTH 27 0
BBX 26 16 0 0
BITMAP
FC783C00
7DFEFE00
3F3F9F00
3E3F1F00
3E1E0F00
3C1E0F00
3C1E0F00
3C1E0F00
3C1E0F00
3C1E0F00
3C1E0F00
3C1E0F00
3C1E0F00
3C1E0F00
7E3F1F80
FF7FBFC0
ENDCHAR
STARTCHAR n
ENCODING 110
SWIDTH 556 0
DWIDTH 18 0
BBX 17 16 0 0
BITMAP
FC7800
7DFC00
3F3E00
3E1E00
3E1E00
3C1E00
3C1E00
3C1E00
3C1E00
3C1E00
3C1E00
3C1E00
3C1E00
3C1E00
7E3F00
FF7F80
ENDCHAR
STARTCHAR o
ENCODING 111
SWIDTH 500 0
DWIDTH 17 0
BBX 14 16 1 0
BITMAP
0FC0
3CF0
7878
7878
F03C
F03C
F03C
F03C
F03C
F03C
F03C
F03C
7878
7878
3CF0
0FC0
ENDCHAR
STARTCHAR p
ENCODING 112
SWIDTH 556 0
DWIDTH 18 0
BBX 17 23 0 -7
BITMAP
FCF800
7DFE00
3F1F00
3E0F00
3C0F80
3C0780
3C0780
3C0780
3C0780
3C0780
3C0780
3C0780
3E0F00
3F0F00
3FFE00
3CF800
3C0000
3C0000
3C0000
3C0000
3C0000
7E0000
FF0000
ENDCHAR
STARTCHAR q
ENCODING 113
SWIDTH 556 0
DWIDTH 18 0
BBX 16 23 1 -7
BITMAP
0FC4
3EEC
7C3C
783C
F83C
F03C
F03C
F03C
F03C
F03C
F03C
F03C
783C
787C
3FFC
0F3C
003C
003C
003C
003C
003C
007E
00FF
ENDCHAR
STARTCHAR r
ENCODING 114
SWIDTH 444 0
DWIDTH 15 0
BBX 13 16 1 0
BITMAP
FC70
7CF8
3FF8
3F78
3E30
3C00
3C00
3C00
3C00
3C00
3C00
3C00
3C00
3C00
7E00
FF00
ENDCHAR
STARTCHAR s
ENCODING 115
SWIDTH 389 0
DWIDTH 13 0
BBX 10 16 1 0
BITMAP
1F40
71C0
60C0
E0C0
F040
FC00
7F00
7F80
3F80
0FC0
03C0
81C0
C1C0
C1C0
E380
BF00
ENDCHAR
STARTCHAR t
ENCODING 116
SWIDTH 333 0
DWIDTH 11 0
BBX 10 21 0 0
BITMAP
0400
0C00
1C00
1C00
3C00
7F80
FF80
3C00
3C00
3C00
3C00
3C00
3C00
3C00
3C00
3C00
3C00
3C40
3EC0
3F80
1E00
ENDCHAR
STARTCHAR u
ENCODING 117
SWIDTH 556 0
DWIDTH 18 0
BBX 17 16 0 0
BITMAP
FC7E00
7C3E00
3C1E00
3C1E00
3C1E00
3C1E00
3C1E00
3C1E00
3C1E00
3C1E00
3C1E00
3C1E00
3C3E00
3E5F00
1FDF80
078C00
ENDCHAR
STARTCHAR v
ENCODING 118
SWIDTH 500 0
DWIDTH 17 0
BBX 15 16 0 0
BITMAP
FF3E
7C0C
3C08
3E18
1E10
1F10
1F30
0F20
0F20
07E0
07C0
07C0
0380
0380
0100
0100
ENDCHAR
STARTCHAR w
ENCODING 119
SWIDTH 722 0
DWIDTH 24 0
BBX 23 16 0 0
BITMAP
FF7FBE
7E3E1C
3C1E08
3E1E18
1E1F10
1F1F30
1F3F30
0F2FA0
0FE7E0
07E7C0
07C7C0
07C3C0
038380
038380
010100
010100
ENDCHAR
STARTCHAR x
ENCODING 120
SWIDTH 500 0
DWIDTH 17 0
BBX 16 16 0 0
BITMAP
FF3E
7E18
3E18
1F30
1F60
0FC0
0FC0
07C0
03E0
03E0
07F0
0DF8
18F8
187C
307C
FCFF
ENDCHAR
STARTCHAR y
ENCODING 121
SWIDTH 500 0
DWIDTH 17 0
BBX 15 23 0 -7
BITMAP
FFBE
7E0C
3E08
3E08
1F18
1F10
0F10
0FB0
0FA0
07A0
07E0
07C0
03C0
03C0
0180
0180
0180
0100
7300
F300
F600
FE00
7800
ENDCHAR
STARTCHAR z
ENCODING 122
SWIDTH 444 0
DWIDTH 15 0
BBX 12 16 1 0
BITMAP
FFF0
E3F0
C3E0
87E0
87C0
0F80
0F80
1F00
1F00
3E00
3E10
7C10
7C30
F830
F8F0
FFF0
ENDCHAR
STARTCHAR braceleft
ENCODING 123
SWIDTH 394 0
DWIDTH 13 0
BBX 10 27 1 -4
BITMAP
07C0
0E00
1C00
1C00
1C00
1C00
1C00
1C00
1C00
1C00
1C00
3800
7000
E000
7000
3800
1C00
1C00
1C00
1C00
1C00
1C00
1C00
1C00
1C00
0E00
07C0
ENDCHAR
STARTCHAR bar
ENCODING 124
SWIDTH 220 0
DWIDTH 7 0
BBX 2 30 3 -7
BITMAP
C0
C0
C0
C0
C0
C0
C0
C0
C0
C0
C0
C0
C0
C0
C0
C0
C0
C0
C0
C0
C0
C0
C0
C0
C0
C0
C0
C0
C0
C0
ENDCHAR
STARTCHAR braceright
ENCODING 125
SWIDTH 394 0
DWIDTH 13 0
BBX 10 27 1 -4
BITMAP
F800
1C00
0E00
0E00
0E00
0E00
0E00
0E00
0E00
0E00
0E00
0700
0380
01C0
0380
0700
0E00
0E00
0E00
0E00
0E00
0E00
0E00
0E00
0E00
1C00
F800
ENDCHAR
STARTCHAR asciitilde
ENCODING 126
SWIDTH 520 0
DWIDTH 17 0
BBX 15 8 1 8
BITMAP
1C00
3F00
7F82
FFC6
8FFE
83FC
01F8
0070
ENDCHAR
STARTCHAR space
ENCODING 160
SWIDTH 250 0
DWIDTH 8 0
BBX 1 1 0 0
BITMAP
00
ENDCHAR
STARTCHAR exclamdown
ENCODING 161
SWIDTH 333 0
DWIDTH 11 0
BBX 5 23 3 -7
BITMAP
70
F8
F8
F8
70
00
00
00
20
20
20
20
70
70
70
70
F8
F8
F8
F8
F8
F8
70
ENDCHAR
STARTCHAR cent
ENCODING 162
SWIDTH 500 0
DWIDTH 17 0
BBX 13 25 1 -5
BITMAP
0008
0008
0018
0010
07F0
1CE0
38F0
78F0
F0F0
F0E0
F080
F180
F100
F300
F200
FA10
7E30
7FE0
3FC0
0F00
0800
1000
1000
2000
2000
ENDCHAR
STARTCHAR sterling
ENCODING 163
SWIDTH 500 0
DWIDTH 17 0
BBX 16 23 1 0
BITMAP
00F0
03FC
071E
0E1E
0E1E
1E0C
1E00
1E00
1F00
0F00
0F00
7FF0
7FF0
0780
0780
0780
3780
7F01
EF03
C787
C7FF
EEFE
7C7C
ENDCHAR
STARTCHAR currency
ENCODING 164
SWIDTH 500 0
DWIDTH 17 0
BBX 14 15 1 4
BITMAP
6018
F7BC
FFFC
7FF8
3CF0
7878
7038
7038
7038
7878
3CF0
7FF8
FFFC
F7BC
6018
ENDCHAR
STARTCHAR yen
ENCODING 165
SWIDTH 500 0
DWIDTH 17 0
BBX 18 23 1 0
BITMAP
FF87C0
3E0380
3E0300
1F0300
1F0600
1F8600
0F8400
0F8C00
07C800
07D800
07D000
03F000
1FFC00
1FFC00
03E000
1FFC00
1FFC00
01E000
01E000
01E000
01E000
03F000
0FFC00
ENDCHAR
STARTCHAR brokenbar
ENCODING 166
SWIDTH 220 0
DWIDTH 7 0
BBX 2 30 3 -7
BITMAP
C0
C0
C0
C0
C0
C0
C0
C0
C0
C0
C0
C0
00
00
00
00
00
00
C0
C0
C0
C0
C0
C0
C0
C0
C0
C0
C0
C0
ENDCHAR
STARTCHAR section
ENCODING 167
SWIDTH 500 0
DWIDTH 17 0
BBX 12 28 2 -5
BITMAP
0F80
18C0
30E0
71E0
71E0
78C0
3C00
3E00
1F00
0F80
3FC0
63E0
C1E0
C0F0
E070
F030
7830
7C60
3FC0
1F80
0780
03C0
31E0
78E0
78E0
70C0
3180
1F00
ENDCHAR
STARTCHAR dieresis
ENCODING 168
SWIDTH 333 0
DWIDTH 11 0
BBX 8 4 2 18
BITMAP
42
E7
E7
42
ENDCHAR
STARTCHAR copyright
ENCODING 169
SWIDTH 747 0
DWIDTH 25 0
BBX 22 23 1 0
BITMAP
01FE00
07FF80
0F03C0
1C00E0
380070
30FE30
71C738
638318
E7831C
C7000C
C7000C
C7000C
C7000C
C7800C
C3C30C
E3E61C
60FC18
700038
380070
1C00E0
0F03C0
07FF80
01FE00
ENDCHAR
STARTCHAR ordfeminine
ENCODING 170
SWIDTH 300 0
DWIDTH 10 0
BBX 9 14 0 9
BITMAP
3C00
6600
6700
6700
1F00
6700
C700
C700
EF80
7300
0000
0000
FF80
FF80
ENDCHAR
STARTCHAR guillemotleft
ENCODING 171
SWIDTH 500 0
DWIDTH 17 0
BBX 14 14 2 1
BITMAP
0204
060C
0E1C
1C38
3870
70E0
E1C0
E1C0
70E0
3870
1C38
0E1C
060C
0204
ENDCHAR
STARTCHAR logicalnot
ENCODING 172
SWIDTH 570 0
DWIDTH 19 0
BBX 16 9 1 3
BITMAP
FFFF
FFFF
FFFF
0007
0007
0007
0007
0007
0007
ENDCHAR
STARTCHAR hyphen
ENCODING 173
SWIDTH 333 0
DWIDTH 11 0
BBX 8 4 1 6
BITMAP
FF
FF
FF
FF
ENDCHAR
STARTCHAR registered
ENCODING 174
SWIDTH 747 0
DWIDTH 25 0
BBX 22 23 2 0
BITMAP
01FE00
07FF80
0F03C0
1C00E0
380070
33FC30
71CE38
60C718
E0C71C
C0C70C
C0CE0C
C0F80C
C0DC0C
C0CE0C
C0C60C
E0C71C
61C398
73E3F8
380070
1C00E0
0F03C0
07FF80
01FE00
ENDCHAR
STARTCHAR macron
ENCODING 175
SWIDTH 333 0
DWIDTH 11 0
BBX 9 2 1 18
BITMAP
FF80
FF80
ENDCHAR
STARTCHAR degree
ENCODING 176
SWIDTH 400 0
DWIDTH 13 0
BBX 9 10 2 13
BITMAP
1C00
7F00
6300
C180
C180
C180
C180
6300
7F00
3C00
ENDCHAR
STARTCHAR plusminus
ENCODING 177
SWIDTH 570 0
DWIDTH 19 0
BBX 15 19 2 0
BITMAP
0380
0380
0380
0380
0380
0380
FFFE
FFFE
FFFE
0380
0380
0380
0380
0380
0380
0000
FFFE
FFFE
FFFE
ENDCHAR
STARTCHAR twosuperior
ENCODING 178
SWIDTH 300 0
DWIDTH 10 0
BBX 10 14 1 9
BITMAP
3E00
7F00
C780
8380
0380
0380
0300
0600
0C00
1800
3040
7FC0
FF80
FF80
ENDCHAR
STARTCHAR threesuperior
ENCODING 179
SWIDTH 300 0
DWIDTH 10 0
BBX 9 14 1 9
BITMAP
1E00
3F00
6780
4380
0300
0600
1F00
0780
0380
0380
0380
C380
E700
7E00
ENDCHAR
STARTCHAR acute
ENCODING 180
SWIDTH 333 0
DWIDTH 11 0
BBX 7 6 3 17
BITMAP
06
0E
1C
38
60
80
ENDCHAR
STARTCHAR mu
ENCODING 181
SWIDTH 556 0
DWIDTH 19 0
BBX 16 22 2 -6
BITMAP
F8FC
787C
783C
783C
783C
783C
783C
783C
783C
783C
783C
783C
787C
7CFC
7FBF
5F38
4000
E000
E000
E000
E000
E000
ENDCHAR
STARTCHAR paragraph
ENCODING 182
SWIDTH 540 0
DWIDTH 18 0
BBX 16 29 1 -6
BITMAP
0FFF
3FFF
3F8C
7F8C
FF8C
FF8C
FF8C
FF8C
FF8C
FF8C
FF8C
7F8C
3F8C
3F8C
0F8C
018C
018C
018C
018C
018C
018C
018C
018C
018C
018C
018C
018C
018C
018C
ENDCHAR
STARTCHAR periodcentered
ENCODING 183
SWIDTH 250 0
DWIDTH 8 0
BBX 4 4 2 9
BITMAP
60
F0
F0
60
ENDCHAR
STARTCHAR cedilla
ENCODING 184
SWIDTH 333 0
DWIDTH 11 0
BBX 7 7 1 -7
BITMAP
06
0C
1C
0E
C6
EE
7C
ENDCHAR
STARTCHAR onesuperior
ENCODING 185
SWIDTH 300 0
DWIDTH 10 0
BBX 9 14 0 9
BITMAP
0C00
7C00
1C00
1C00
1C00
1C00
1C00
1C00
1C00
1C00
1C00
1C00
1C00
FF80
ENDCHAR
STARTCHAR ordmasculine
ENCODING 186
SWIDTH 330 0
DWIDTH 11 0
BBX 9 14 1 9
BITMAP
1C00
7700
6300
E380
E380
E380
E380
6300
7700
1C00
0000
0000
FF80
FF80
ENDCHAR
STARTCHAR guillemotright
ENCODING 187
SWIDTH 500 0
DWIDTH 17 0
BBX 14 14 1 1
BITMAP
8100
C180
E1C0
70E0
3870
1C38
0E1C
0E1C
1C38
3870
70E0
E1C0
C180
8100
ENDCHAR
STARTCHAR onequarter
ENCODING 188
SWIDTH 750 0
DWIDTH 25 0
BBX 23 23 0 0
BITMAP
0C0008
7C0018
1C0030
1C0030
1C0060
1C0060
1C00C0
1C0180
1C0180
1C030C
1C061C
1C063C
1C0C7C
FF98FC
0018DC
00319C
00639C
00631C
00C7FE
01C7FE
01801C
03001C
03001C
ENDCHAR
STARTCHAR onehalf
ENCODING 189
SWIDTH 750 0
DWIDTH 25 0
BBX 23 23 0 0
BITMAP
0C0030
7C0060
1C0060
1C00C0
1C0080
1C0180
1C0300
1C0200
1C0600
1C0CF0
1C19F8
1C1B3C
1C321C
FFB01C
00601C
006018
00C030
018060
0180C0
030182
0603FE
0607FC
0C0FFC
ENDCHAR
STARTCHAR threequarters
ENCODING 190
SWIDTH 750 0
DWIDTH 25 0
BBX 22 23 1 0
BITMAP
1E0010
3F0030
678060
438060
0300C0
0600C0
1F0180
078300
038300
038618
038C38
C38C78
E718F8
7E31F8
0031B8
006338
00C738
00C638
018FFC
038FFC
030038
060038
060038
ENDCHAR
STARTCHAR questiondown
ENCODING 191
SWIDTH 500 0
DWIDTH 16 0
BBX 12 23 2 -7
BITMAP
0700
0F80
0F80
0F80
0700
0000
0000
0000
0200
0200
0600
0C00
1C00
3C00
7800
7800
F860
F8F0
F8F0
F870
7870
3CE0
1FC0
ENDCHAR
STARTCHAR Agrave
ENCODING 192
SWIDTH 722 0
DWIDTH 24 0
BBX 21 30 1 0
BITMAP
060000
070000
038000
01C000
006000
000000
002000
002000
006000
007000
00F000
00F800
00F800
01F800
017C00
017C00
033E00
023E00
063E00
061F00
041F00
0C0F00
0FFF80
180F80
1807C0
1007C0
3003E0
3003E0
7007F0
FC1FF8
ENDCHAR
STARTCHAR Aacute
ENCODING 193
SWIDTH 722 0
DWIDTH 24 0
BBX 21 30 1 0
BITMAP
000300
000700
000E00
001C00
003000
004000
000000
002000
006000
007000
00F000
00F800
00F800
01F800
017C00
017C00
033E00
023E00
063E00
061F00
041F00
0C0F00
0FFF80
180F80
1807C0
1007C0
3003E0
3003E0
7007F0
FC1FF8
ENDCHAR
STARTCHAR Acircumflex
ENCODING 194
SWIDTH 722 0
DWIDTH 24 0
BBX 21 30 1 0
BITMAP
006000
00F000
01F800
019800
030C00
020400
000000
002000
006000
007000
00F000
00F800
00F800
01F800
017C00
017C00
033E00
023E00
063E00
061F00
041F00
0C0F00
0FFF80
180F80
1807C0
1007C0
3003E0
3003E0
7007F0
FC1FF8
ENDCHAR
STARTCHAR Atilde
ENCODING 195
SWIDTH 722 0
DWIDTH 24 0
BBX 21 29 1 0
BITMAP
00C200
01F600
037C00
021800
000000
000000
002000
006000
007000
00F000
00F800
00F800
01F800
017C00
017C00
033E00
023E00
063E00
061F00
041F00
0C0F00
0FFF80
180F80
1807C0
1007C0
3003E0
3003E0
7007F0
FC1FF8
ENDCHAR
STARTCHAR Adieresis
ENCODING 196
SWIDTH 722 0
DWIDTH 24 0
BBX 21 29 1 0
BITMAP
010800
039C00
039C00
010800
000000
000000
002000
006000
007000
00F000
00F800
00F800
01F800
017C00
017C00
033E00
023E00
063E00
061F00
041F00
0C0F00
0FFF80
180F80
1807C0
1007C0
3003E0
3003E0
7007F0
FC1FF8
ENDCHAR
STARTCHAR Aring
ENCODING 197
SWIDTH 722 0
DWIDTH 24 0
BBX 21 30 1 0
BITMAP
00E000
01B000
031800
020800
031800
01B000
00E000
000000
006000
007000
00F000
00F800
00F800
01F800
017C00
017C00
033E00
023E00
063E00
061F00
041F00
0C0F00
0FFF80
180F80
1807C0
1007C0
3003E0
3003E0
7007F0
FC1FF8
ENDCHAR
STARTCHAR AE
ENCODING 198
SWIDTH 1000 0
DWIDTH 33 0
BBX 32 23 0 0
BITMAP
03FFFFFC
00FFFFFC
0063E01C
0063E00C
00C3E00C
00C3E004
0183E004
0183E080
0303E080
0303E180
0203E380
07FFFF80
07FFE380
0C03E180
0C03E080
1803E080
1803E001
3803E003
3003E006
7003E00E
7003E03E
F807FFFC
FE1FFFFC
ENDCHAR
STARTCHAR Ccedilla
ENCODING 199
SWIDTH 722 0
DWIDTH 24 0
BBX 19 30 2 -7
BITMAP
01FC20
07FF60
0F07E0
1E01E0
3C00E0
7C0060
7C0060
F80020
F80000
F80000
F80000
F80000
F80000
F80000
F80000
F80000
7C0000
7C0000
3C0020
1E0060
0F81C0
03FF80
00FE00
001800
003000
007000
003800
031800
03B800
01F000
ENDCHAR
STARTCHAR Egrave
ENCODING 200
SWIDTH 667 0
DWIDTH 22 0
BBX 21 30 0 0
BITMAP
060000
070000
038000
01C000
006000
003000
000000
FFFFE0
3FFFE0
1F00E0
1F0060
1F0060
1F0020
1F0020
1F0400
1F0400
1F0C00
1F1C00
1FFC00
1F1C00
1F0C00
1F0400
1F0400
1F0008
1F0018
1F0030
1F0070
1F01F0
3FFFE0
FFFFE0
ENDCHAR
STARTCHAR Eacute
ENCODING 201
SWIDTH 667 0
DWIDTH 22 0
BBX 21 30 0 0
BITMAP
000180
000380
000700
000E00
001800
003000
000000
FFFFE0
3FFFE0
1F00E0
1F0060
1F0060
1F0020
1F0020
1F0400
1F0400
1F0C00
1F1C00
1FFC00
1F1C00
1F0C00
1F0400
1F0400
1F0008
1F0018
1F0030
1F0070
1F01F0
3FFFE0
FFFFE0
ENDCHAR
STARTCHAR Ecircumflex
ENCODING 202
SWIDTH 667 0
DWIDTH 22 0
BBX 21 30 0 0
BITMAP
003000
007800
00FC00
00CC00
018600
010200
000000
FFFFE0
3FFFE0
1F00E0
1F0060
1F0060
1F0020
1F0020
1F0400
1F0400
1F0C00
1F1C00
1FFC00
1F1C00
1F0C00
1F0400
1F0400
1F0008
1F0018
1F0030
1F0070
1F01F0
3FFFE0
FFFFE0
ENDCHAR
STARTCHAR Edieresis
ENCODING 203
SWIDTH 667 0
DWIDTH 22 0
BBX 21 29 0 0
BITMAP
008400
01CE00
01CE00
008400
000000
000000
FFFFE0
3FFFE0
1F00E0
1F0060
1F0060
1F0020
1F0020
1F0400
1F0400
1F0C00
1F1C00
1FFC00
1F1C00
1F0C00
1F0400
1F0400
1F0008
1F0018
1F0030
1F0070
1F01F0
3FFFE0
FFFFE0
ENDCHAR
STARTCHAR Igrave
ENCODING 204
SWIDTH 389 0
DWIDTH 13 0
BBX 11 30 1 0
BITMAP
C000
E000
7000
3800
0C00
0600
0000
FFE0
3F80
1F00
1F00
1F00
1F00
1F00
1F00
1F00
1F00
1F00
1F00
1F00
1F00
1F00
1F00
1F00
1F00
1F00
1F00
1F00
3F80
FFE0
ENDCHAR
STARTCHAR Iacute
ENCODING 205
SWIDTH 389 0
DWIDTH 13 0
BBX 12 30 1 0
BITMAP
0030
0070
00E0
01C0
0300
0600
0000
FFE0
3F80
1F00
1F00
1F00
1F00
1F00
1F00
1F00
1F00
1F00
1F00
1F00
1F00
1F00
1F00
1F00
1F00
1F00
1F00
1F00
3F80
FFE0
ENDCHAR
STARTCHAR Icircumflex
ENCODING 206
SWIDTH 389 0
DWIDTH 13 0
BBX 11 30 1 0
BITMAP
0600
0F00
1F80
1980
30C0
2040
0000
FFE0
3F80
1F00
1F00
1F00
1F00
1F00
1F00
1F00
1F00
1F00
1F00
1F00
1F00
1F00
1F00
1F00
1F00
1F00
1F00
1F00
3F80
FFE0
ENDCHAR
STARTCHAR Idieresis
ENCODING 207
SWIDTH 389 0
DWIDTH 13 0
BBX 11 29 1 0
BITMAP
1080
39C0
39C0
1080
0000
0000
FFE0
3F80
1F00
1F00
1F00
1F00
1F00
1F00
1F00
1F00
1F00
1F00
1F00
1F00
1F00
1F00
1F00
1F00
1F00
1F00
1F00
3F80
FFE0
ENDCHAR
STARTCHAR Eth
ENCODING 208
SWIDTH 722 0
DWIDTH 24 0
BBX 22 23 0 0
BITMAP
FFFE00
3F0F80
1F03E0
1F01F0
1F01F0
1F00F8
1F00F8
1F00FC
1F00FC
1F00FC
FFF07C
FFF07C
FFF07C
1F007C
1F00FC
1F00F8
1F00F8
1F00F8
1F01F0
1F01E0
1F03C0
3F0F80
7FFE00
ENDCHAR
STARTCHAR Ntilde
ENCODING 209
SWIDTH 722 0
DWIDTH 24 0
BBX 22 29 1 0
BITMAP
006100
00FB00
01BE00
010C00
000000
000000
FE01FC
7F0070
3F8020
1F8020
1FC020
1FE020
17F020
13F820
11F820
11FC20
10FE20
107F20
103F20
101FA0
101FE0
100FE0
1007E0
1003E0
1003E0
1001E0
1000E0
380060
FE0020
ENDCHAR
STARTCHAR Ograve
ENCODING 210
SWIDTH 778 0
DWIDTH 25 0
BBX 21 30 2 0
BITMAP
060000
070000
038000
01C000
006000
003000
000000
01FC00
07FF00
0F8F80
1E03C0
3C01E0
7C01F0
7800F0
F800F8
F800F8
F800F8
F800F8
F800F8
F800F8
F800F8
F800F8
F800F8
7800F0
7C01F0
3C01E0
1E03C0
0F8F80
07FF00
01FC00
ENDCHAR
STARTCHAR Oacute
ENCODING 211
SWIDTH 778 0
DWIDTH 25 0
BBX 21 30 2 0
BITMAP
000380
000700
000E00
001800
003000
006000
000000
01FC00
07FF00
0F8F80
1E03C0
3C01E0
7C01F0
7800F0
F800F8
F800F8
F800F8
F800F8
F800F8
F800F8
F800F8
F800F8
F800F8
7800F0
7C01F0
3C01E0
1E03C0
0F8F80
07FF00
01FC00
ENDCHAR
STARTCHAR Ocircumflex
ENCODING 212
SWIDTH 778 0
DWIDTH 25 0
BBX 21 30 2 0
BITMAP
003000
007800
00FC00
00CC00
018600
010200
000000
01FC00
07FF00
0F8F80
1E03C0
3C01E0
7C01F0
7800F0
F800F8
F800F8
F800F8
F800F8
F800F8
F800F8
F800F8
F800F8
F800F8
7800F0
7C01F0
3C01E0
1E03C0
0F8F80
07FF00
01FC00
ENDCHAR
STARTCHAR Otilde
ENCODING 213
SWIDTH 778 0
DWIDTH 25 0
BBX 21 29 2 0
BITMAP
00C200
01F600
037C00
021800
000000
000000
01FC00
07FF00
0F8F80
1E03C0
3C01E0
7C01F0
7800F0
F800F8
F800F8
F800F8
F800F8
F800F8
F800F8
F800F8
F800F8
F800F8
7800F0
7C01F0
3C01E0
1E03C0
0F8F80
07FF00
01FC00
ENDCHAR
STARTCHAR Odieresis
ENCODING 214
SWIDTH 778 0
DWIDTH 25 0
BBX 21 29 2 0
BITMAP
008400
01CE00
01CE00
008400
000000
000000
01FC00
07FF00
0F8F80
1E03C0
3C01E0
7C01F0
7800F0
F800F8
F800F8
F800F8
F800F8
F800F8
F800F8
F800F8
F800F8
F800F8
7800F0
7C01F0
3C01E0
1E03C0
0F8F80
07FF00
01FC00
ENDCHAR
STARTCHAR multiply
ENCODING 215
SWIDTH 570 0
DWIDTH 19 0
BBX 15 16 2 0
BITMAP
4004
E00E
F01E
783C
3C78
1EF0
0FE0
07C0
07C0
0FE0
1EF0
3C78
783C
F01E
E00E
4004
ENDCHAR
STARTCHAR Oslash
ENCODING 216
SWIDTH 778 0
DWIDTH 26 0
BBX 21 27 2 -2
BITMAP
000030
000060
01FC40
078FC0
0E0380
1E01C0
3C03E0
7C06F0
7804F0
F80CF8
F818F8
F818F8
F830F8
F820F8
F860F8
F8C0F8
F880F8
F980F8
7B00F0
7E01F0
3E01E0
1C03C0
0E0780
1FFE00
11F800
300000
600000
ENDCHAR
STARTCHAR Ugrave
ENCODING 217
SWIDTH 722 0
DWIDTH 24 0
BBX 23 30 0 0
BITMAP
00C000
00E000
007000
003800
000C00
000200
000000
FFE0FE
3F8038
1F0010
1F0010
1F0010
1F0010
1F0010
1F0010
1F0010
1F0010
1F0010
1F0010
1F0010
1F0010
1F0010
1F0010
1F0010
1F0030
0F8030
0F8060
07C0C0
03FF80
00FE00
ENDCHAR
STARTCHAR Uacute
ENCODING 218
SWIDTH 722 0
DWIDTH 24 0
BBX 23 30 0 0
BITMAP
0000C0
0001C0
000380
000700
000C00
001000
000000
FFE0FE
3F8038
1F0010
1F0010
1F0010
1F0010
1F0010
1F0010
1F0010
1F0010
1F0010
1F0010
1F0010
1F0010
1F0010
1F0010
1F0010
1F0030
0F8030
0F8060
07C0C0
03FF80
00FE00
ENDCHAR
STARTCHAR Ucircumflex
ENCODING 219
SWIDTH 722 0
DWIDTH 24 0
BBX 23 30 0 0
BITMAP
000C00
001E00
003F00
003300
006180
004080
000000
FFE0FE
3F8038
1F0010
1F0010
1F0010
1F0010
1F0010
1F0010
1F0010
1F0010
1F0010
1F0010
1F0010
1F0010
1F0010
1F0010
1F0010
1F0030
0F8030
0F8060
07C0C0
03FF80
00FE00
ENDCHAR
STARTCHAR Udieresis
ENCODING 220
SWIDTH 722 0
DWIDTH 24 0
BBX 23 29 0 0
BITMAP
002100
007380
007380
002100
000000
000000
FFE0FE
3F8038
1F0010
1F0010
1F0010
1F0010
1F0010
1F0010
1F0010
1F0010
1F0010
1F0010
1F0010
1F0010
1F0010
1F0010
1F0010
1F0030
0F8030
0F8060
07C0C0
03FF80
00FE00
ENDCHAR
STARTCHAR Yacute
ENCODING 221
SWIDTH 722 0
DWIDTH 24 0
BBX 22 30 1 0
BITMAP
0000C0
0001C0
000380
000700
000C00
001000
000000
FFC3FC
7F00F0
3F0060
3F0060
1F80C0
1F8080
0FC180
0FC300
07E300
03E600
03F400
01FC00
01F800
00F800
00F800
00F800
00F800
00F800
00F800
00F800
00F800
01FC00
07FF00
ENDCHAR
STARTCHAR Thorn
ENCODING 222
SWIDTH 611 0
DWIDTH 20 0
BBX 19 23 0 0
BITMAP
FFE000
3F8000
1F0000
1F0000
1FFE00
1F0F80
1F07C0
1F07E0
1F03E0
1F03E0
1F03E0
1F03E0
1F07E0
1F07C0
1F1F80
1FFE00
1F0000
1F0000
1F0000
1F0000
1F0000
3F8000
FFE000
ENDCHAR
STARTCHAR germandbls
ENCODING 223
SWIDTH 556 0
DWIDTH 19 0
BBX 17 23 0 0
BITMAP
03F000
0E3C00
1E3E00
1C1E00
3C1E00
3C1E00
3C1E00
3C1E00
3C1C00
3C3800
3CE000
3C3C00
3C1E00
3C0F00
3C0F00
3C0F80
3C0F80
3C0F80
3C0F80
3C0F00
3C0F00
3C1E00
FC7C00
ENDCHAR
STARTCHAR agrave
ENCODING 224
SWIDTH 500 0
DWIDTH 16 0
BBX 14 23 1 0
BITMAP
3000
3800
1C00
0E00
0300
0080
0000
1F80
31E0
70F0
78F0
78F0
30F0
01F0
07F0
1CF0
38F0
78F0
F0F0
F9F0
FFF4
7EFC
3C78
ENDCHAR
STARTCHAR aacute
ENCODING 225
SWIDTH 500 0
DWIDTH 16 0
BBX 14 23 1 0
BITMAP
0030
0070
00E0
01C0
0300
0400
0000
1F80
31E0
70F0
78F0
78F0
30F0
01F0
07F0
1CF0
38F0
78F0
F0F0
F9F0
FFF4
7EFC
3C78
ENDCHAR
STARTCHAR acircumflex
ENCODING 226
SWIDTH 500 0
DWIDTH 16 0
BBX 14 23 1 0
BITMAP
0300
0780
0FC0
0CC0
1860
1020
0000
1F80
31E0
70F0
78F0
78F0
30F0
01F0
07F0
1CF0
38F0
78F0
F0F0
F9F0
FFF4
7EFC
3C78
ENDCHAR
STARTCHAR atilde
ENCODING 227
SWIDTH 500 0
DWIDTH 16 0
BBX 14 22 1 0
BITMAP
0C20
1F60
37C0
2180
0000
0000
1F80
31E0
70F0
78F0
78F0
30F0
01F0
07F0
1CF0
38F0
78F0
F0F0
F9F0
FFF4
7EFC
3C78
ENDCHAR
STARTCHAR adieresis
ENCODING 228
SWIDTH 500 0
DWIDTH 16 0
BBX 14 22 1 0
BITMAP
0840
1CE0
1CE0
0840
0000
0000
1F80
31E0
70F0
78F0
78F0
30F0
01F0
07F0
1CF0
38F0
78F0
F0F0
F9F0
FFF4
7EFC
3C78
ENDCHAR
STARTCHAR aring
ENCODING 229
SWIDTH 500 0
DWIDTH 16 0
BBX 14 25 1 0
BITMAP
0700
0D80
18C0
1040
18C0
0D80
0700
0000
0000
1F80
31E0
70F0
78F0
78F0
30F0
01F0
07F0
1CF0
38F0
78F0
F0F0
F9F0
FFF4
7EFC
3C78
ENDCHAR
STARTCHAR ae
ENCODING 230
SWIDTH 722 0
DWIDTH 24 0
BBX 21 16 1 0
BITMAP
1F87C0
31EEE0
70FC70
78F870
78F838
30F838
01F838
07FFF8
1CF800
38F800
78FC00
F8FC08
F8FE18
FFFFF0
7E3FE0
3C0FC0
ENDCHAR
STARTCHAR ccedilla
ENCODING 231
SWIDTH 444 0
DWIDTH 15 0
BBX 13 23 1 -7
BITMAP
07E0
1EF0
3C78
7878
7830
F000
F000
F000
F000
F000
F800
7800
7800
3C30
1FE0
0FC0
0300
0600
0600
0380
3180
3B80
1F00
ENDCHAR
STARTCHAR egrave
ENCODING 232
SWIDTH 444 0
DWIDTH 15 0
BBX 14 23 0 0
BITMAP
3000
3800
1C00
0E00
0300
0080
0000
07C0
1EF0
3C70
7838
783C
F83C
F83C
FFFC
F800
F800
F800
7800
7C00
3E18
1FF0
07E0
ENDCHAR
STARTCHAR eacute
ENCODING 233
SWIDTH 444 0
DWIDTH 15 0
BBX 14 23 0 0
BITMAP
0018
0038
0070
00E0
0180
0200
0000
07C0
1EF0
3C70
7838
783C
F83C
F83C
FFFC
F800
F800
F800
7800
7C00
3E18
1FF0
07E0
ENDCHAR
STARTCHAR ecircumflex
ENCODING 234
SWIDTH 444 0
DWIDTH 15 0
BBX 14 23 0 0
BITMAP
0300
0780
0FC0
0CC0
1860
1020
0000
07C0
1EF0
3C70
7838
783C
F83C
F83C
FFFC
F800
F800
F800
7800
7C00
3E18
1FF0
07E0
ENDCHAR
STARTCHAR edieresis
ENCODING 235
SWIDTH 444 0
DWIDTH 15 0
BBX 14 22 0 0
BITMAP
0420
0E70
0E70
0420
0000
0000
07C0
1EF0
3C70
7838
783C
F83C
F83C
FFFC
F800
F800
F800
7800
7C00
3E18
1FF0
07E0
ENDCHAR
STARTCHAR igrave
ENCODING 236
SWIDTH 278 0
DWIDTH 9 0
BBX 8 23 0 0
BITMAP
C0
E0
70
38
0C
02
00
FC
7C
3C
3C
3C
3C
3C
3C
3C
3C
3C
3C
3C
3C
7E
FF
ENDCHAR
STARTCHAR iacute
ENCODING 237
SWIDTH 278 0
DWIDTH 9 0
BBX 8 23 0 0
BITMAP
03
07
0E
1C
30
40
00
FC
7C
3C
3C
3C
3C
3C
3C
3C
3C
3C
3C
3C
3C
7E
FF
ENDCHAR
STARTCHAR icircumflex
ENCODING 238
SWIDTH 278 0
DWIDTH 9 0
BBX 8 23 0 0
BITMAP
18
3C
7E
66
C3
81
00
FC
7C
3C
3C
3C
3C
3C
3C
3C
3C
3C
3C
3C
3C
7E
FF
ENDCHAR
STARTCHAR idieresis
ENCODING 239
SWIDTH 278 0
DWIDTH 9 0
BBX 8 22 0 0
BITMAP
42
E7
E7
42
00
00
FC
7C
3C
3C
3C
3C
3C
3C
3C
3C
3C
3C
3C
3C
7E
FF
ENDCHAR
STARTCHAR eth
ENCODING 240
SWIDTH 500 0
DWIDTH 17 0
BBX 14 22 1 0
BITMAP
3830
3EF8
0FF8
FF80
FBC0
61E0
0FF0
3CF8
7878
7878
F03C
F03C
F03C
F03C
F03C
F03C
F03C
F03C
7878
7878
3CF0
0FC0
ENDCHAR
STARTCHAR ntilde
ENCODING 241
SWIDTH 556 0
DWIDTH 18 0
BBX 17 22 0 0
BITMAP
030800
07D800
0DF000
086000
000000
000000
FC7800
7DFC00
3F3E00
3E1E00
3E1E00
3C1E00
3C1E00
3C1E00
3C1E00
3C1E00
3C1E00
3C1E00
3C1E00
3C1E00
7E3F00
FF7F80
ENDCHAR
STARTCHAR ograve
ENCODING 242
SWIDTH 500 0
DWIDTH 17 0
BBX 14 23 1 0
BITMAP
3000
3800
1C00
0E00
0300
0080
0000
0FC0
3CF0
7878
7878
F03C
F03C
F03C
F03C
F03C
F03C
F03C
F03C
7878
7878
3CF0
0FC0
ENDCHAR
STARTCHAR oacute
ENCODING 243
SWIDTH 500 0
DWIDTH 17 0
BBX 14 23 1 0
BITMAP
0018
0038
0070
00E0
0180
0200
0000
0FC0
3CF0
7878
7878
F03C
F03C
F03C
F03C
F03C
F03C
F03C
F03C
7878
7878
3CF0
0FC0
ENDCHAR
STARTCHAR ocircumflex
ENCODING 244
SWIDTH 500 0
DWIDTH 17 0
BBX 14 23 1 0
BITMAP
0300
0780
0FC0
0CC0
1860
1020
0000
0FC0
3CF0
7878
7878
F03C
F03C
F03C
F03C
F03C
F03C
F03C
F03C
7878
7878
3CF0
0FC0
ENDCHAR
STARTCHAR otilde
ENCODING 245
SWIDTH 500 0
DWIDTH 17 0
BBX 14 22 1 0
BITMAP
0C20
1F60
37C0
2180
0000
0000
0FC0
3CF0
7878
7878
F03C
F03C
F03C
F03C
F03C
F03C
F03C
F03C
7878
7878
3CF0
0FC0
ENDCHAR
STARTCHAR odieresis
ENCODING 246
SWIDTH 500 0
DWIDTH 17 0
BBX 14 22 1 0
BITMAP
0840
1CE0
1CE0
0840
0000
0000
0FC0
3CF0
7878
7878
F03C
F03C
F03C
F03C
F03C
F03C
F03C
F03C
7878
7878
3CF0
0FC0
ENDCHAR
STARTCHAR divide
ENCODING 247
SWIDTH 570 0
DWIDTH 19 0
BBX 14 15 2 1
BITMAP
0300
0780
0780
0300
0000
0000
FFFC
FFFC
FFFC
0000
0000
0300
0780
0780
0300
ENDCHAR
STARTCHAR oslash
ENCODING 248
SWIDTH 500 0
DWIDTH 17 0
BBX 14 22 1 -3
BITMAP
0008
0018
0018
0FF0
3CF0
7878
7878
F0FC
F1BC
F13C
F33C
F23C
F63C
FC3C
F83C
7878
7878
3CF0
6FC0
6000
C000
8000
ENDCHAR
STARTCHAR ugrave
ENCODING 249
SWIDTH 556 0
DWIDTH 18 0
BBX 17 23 0 0
BITMAP
180000
1C0000
0E0000
070000
018000
004000
000000
FC7E00
7C3E00
3C1E00
3C1E00
3C1E00
3C1E00
3C1E00
3C1E00
3C1E00
3C1E00
3C1E00
3C1E00
3C3E00
3E7F00
1FDF80
078C00
ENDCHAR
STARTCHAR uacute
ENCODING 250
SWIDTH 556 0
DWIDTH 18 0
BBX 17 23 0 0
BITMAP
000C00
001C00
003800
007000
00C000
010000
000000
FC7E00
7C3E00
3C1E00
3C1E00
3C1E00
3C1E00
3C1E00
3C1E00
3C1E00
3C1E00
3C1E00
3C1E00
3C3E00
3E7F00
1FDF80
078C00
ENDCHAR
STARTCHAR ucircumflex
ENCODING 251
SWIDTH 556 0
DWIDTH 18 0
BBX 17 23 0 0
BITMAP
018000
03C000
07E000
066000
0C3000
081000
000000
FC7E00
7C3E00
3C1E00
3C1E00
3C1E00
3C1E00
3C1E00
3C1E00
3C1E00
3C1E00
3C1E00
3C1E00
3C3E00
3E7F00
1FDF80
078C00
ENDCHAR
STARTCHAR udieresis
ENCODING 252
SWIDTH 556 0
DWIDTH 18 0
BBX 17 22 0 0
BITMAP
042000
0E7000
0E7000
042000
000000
000000
FC7E00
7C3E00
3C1E00
3C1E00
3C1E00
3C1E00
3C1E00
3C1E00
3C1E00
3C1E00
3C1E00
3C1E00
3C3E00
3E7F00
1FDF80
078C00
ENDCHAR
STARTCHAR yacute
ENCODING 253
SWIDTH 500 0
DWIDTH 17 0
BBX 15 30 0 -7
BITMAP
000C
001C
0038
0070
00C0
0100
0000
FFBE
7E0C
3E08
3E08
1F18
1F10
0F10
0FB0
0FA0
07A0
07E0
07C0
03C0
03C0
0180
0180
0180
0100
7300
F300
F600
FE00
7800
ENDCHAR
STARTCHAR thorn
ENCODING 254
SWIDTH 556 0
DWIDTH 19 0
BBX 15 29 1 -7
BITMAP
FC00
7C00
3C00
3C00
3C00
3C00
3CE0
3FF8
3E7C
3C3C
3C3E
3C1E
3C1E
3C1E
3C1E
3C1E
3C1E
3C1E
3C3C
3E3C
3FF8
3CE0
3C00
3C00
3C00
3C00
3C00
7E00
FF00
ENDCHAR
STARTCHAR ydieresis
ENCODING 255
SWIDTH 500 0
DWIDTH 17 0
BBX 15 29 0 -7
BITMAP
0420
0E70
0E70
0420
0000
0000
FFBE
7E0C
3E08
3E08
1F18
1F10
0F10
0FB0
0FA0
07A0
07E0
07C0
03C0
03C0
0180
0180
0180
0100
7300
F300
F600
FE00
7800
ENDCHAR
STARTCHAR Lslash
ENCODING -1
SWIDTH 667 0
DWIDTH 22 0
BBX 20 23 0 0
BITMAP
FFE000
3F8000
1F0000
1F0000
1F0000
1F0000
1F1000
1F7000
1FC000
1F8000
1F0000
1F0000
7F0000
DF0000
1F0000
1F0000
1F0010
1F0030
1F0060
1F00E0
1F81E0
3FFFC0
FFFFC0
ENDCHAR
STARTCHAR OE
ENCODING -1
SWIDTH 1000 0
DWIDTH 33 0
BBX 31 23 2 0
BITMAP
01FFFFF8
078FFFF8
0F07E038
1E03C018
3C03C018
7C03C008
7C03C108
7803C100
F803C300
F803C300
F803CF00
F803FF00
F803CF00
F803C300
F803C300
F803C100
7C03C102
7C03C006
3C03C00C
1E03C01C
0F07E03C
078FFFF8
01FFFFF8
ENDCHAR
STARTCHAR Scaron
ENCODING -1
SWIDTH 556 0
DWIDTH 18 0
BBX 15 27 1 0
BITMAP
1860
1860
0CC0
0FC0
0780
0780
0000
0000
0FC4
387C
703C
701C
F00C
F00C
FC04
7F80
7FE0
1FF8
07FC
80FE
803E
C01E
C01E
E01C
F01C
F838
8FE0
ENDCHAR
STARTCHAR Ydieresis
ENCODING -1
SWIDTH 722 0
DWIDTH 24 0
BBX 22 25 1 0
BITMAP
008400
01CE00
01CE00
008400
000000
000000
FFC3FC
7F00F0
3E0060
1F00C0
0F8180
07C300
03E600
01FC00
00F800
00F800
00F800
00F800
00F800
00F800
00F800
00F800
00F800
01FC00
07FF00
ENDCHAR
STARTCHAR Zcaron
ENCODING -1
SWIDTH 667 0
DWIDTH 22 0
BBX 19 27 1 0
BITMAP
061800
061800
033000
03F000
01E000
01E000
000000
000000
3FFFC0
7E0F80
781F80
701F00
603E00
407E00
00FC00
01F800
01F000
03F000
07E000
07C020
0F8020
0F8060
1F0060
3F00E0
3E01E0
7E07C0
FFFFC0
ENDCHAR
STARTCHAR breve
ENCODING -1
SWIDTH 333 0
DWIDTH 11 0
BBX 9 4 1 18
BITMAP
8080
C180
7F00
3E00
ENDCHAR
STARTCHAR bullet
ENCODING -1
SWIDTH 350 0
DWIDTH 12 0
BBX 8 8 2 6
BITMAP
3C
7E
FF
FF
FF
FF
7E
3C
ENDCHAR
STARTCHAR caron
ENCODING -1
SWIDTH 333 0
DWIDTH 11 0
BBX 8 6 1 18
BITMAP
C3
C3
66
7E
3C
3C
ENDCHAR
STARTCHAR circumflex
ENCODING -1
SWIDTH 333 0
DWIDTH 11 0
BBX 8 6 1 17
BITMAP
3C
3C
7E
66
C3
C3
ENDCHAR
STARTCHAR dagger
ENCODING -1
SWIDTH 500 0
DWIDTH 17 0
BBX 13 28 1 -5
BITMAP
0700
0700
0700
0700
0200
0200
F278
FFF8
F278
0200
0200
0200
0700
0700
0700
0700
0700
0700
0200
0200
0200
0200
0200
0200
0200
0200
0200
0200
ENDCHAR
STARTCHAR daggerdbl
ENCODING -1
SWIDTH 500 0
DWIDTH 17 0
BBX 13 28 2 -5
BITMAP
0700
0700
0700
0700
0700
0200
0200
F278
FFF8
F278
0200
0200
0600
0700
0700
0300
0200
0200
F278
FFF8
F278
0200
0200
0700
0700
0700
0700
0700
ENDCHAR
STARTCHAR dotaccent
ENCODING -1
SWIDTH 333 0
DWIDTH 11 0
BBX 4 4 3 17
BITMAP
60
F0
F0
60
ENDCHAR
STARTCHAR dotlessi
ENCODING -1
SWIDTH 278 0
DWIDTH 9 0
BBX 8 16 0 0
BITMAP
FC
7C
3C
3C
3C
3C
3C
3C
3C
3C
3C
3C
3C
3C
7E
FF
ENDCHAR
STARTCHAR ellipsis
ENCODING -1
SWIDTH 1000 0
DWIDTH 33 0
BBX 27 5 2 0
BITMAP
700E01C0
F81F03E0
F81F03E0
F81F03E0
700E01C0
ENDCHAR
STARTCHAR emdash
ENCODING -1
SWIDTH 1000 0
DWIDTH 32 0
BBX 32 3 0 6
BITMAP
FFFFFFFF
FFFFFFFF
FFFFFFFF
ENDCHAR
STARTCHAR endash
ENCODING -1
SWIDTH 500 0
DWIDTH 16 0
BBX 16 3 0 6
BITMAP
FFFF
FFFF
FFFF
ENDCHAR
STARTCHAR fi
ENCODING -1
SWIDTH 556 0
DWIDTH 19 0
BBX 16 23 1 0
BITMAP
07F0
1E38
1C7C
3C7C
3C38
3C00
3C00
FFFC
3C3C
3C3C
3C3C
3C3C
3C3C
3C3C
3C3C
3C3C
3C3C
3C3C
3C3C
3C3C
3C3C
7E3E
FF7F
ENDCHAR
STARTCHAR fl
ENCODING -1
SWIDTH 556 0
DWIDTH 19 0
BBX 16 23 1 0
BITMAP
07E4
1E7C
1CFC
3CFC
3C7C
3C3C
3C3C
FFFC
3C3C
3C3C
3C3C
3C3C
3C3C
3C3C
3C3C
3C3C
3C3C
3C3C
3C3C
3C3C
3C3C
7E3E
FF7F
ENDCHAR
STARTCHAR florin
ENCODING -1
SWIDTH 500 0
DWIDTH 17 0
BBX 17 29 0 -5
BITMAP
003F00
007380
00E780
00C780
01C300
01C000
03C000
03C000
03C000
3FFC00
03C000
03C000
03C000
03C000
03C000
03C000
03C000
03C000
03C000
03C000
078000
078000
078000
078000
670000
E70000
E60000
EE0000
780000
ENDCHAR
STARTCHAR fraction
ENCODING -1
SWIDTH 167 0
DWIDTH 6 0
BBX 15 23 -5 0
BITMAP
0002
0006
000C
000C
0018
0018
0030
0060
0060
00C0
0180
0180
0300
0200
0600
0C00
0C00
1800
3000
3000
6000
C000
C000
ENDCHAR
STARTCHAR grave
ENCODING -1
SWIDTH 333 0
DWIDTH 11 0
BBX 7 6 1 17
BITMAP
C0
E0
70
38
0C
02
ENDCHAR
STARTCHAR guilsinglleft
ENCODING -1
SWIDTH 333 0
DWIDTH 11 0
BBX 7 14 3 1
BITMAP
02
06
0E
1C
38
70
E0
E0
70
38
1C
0E
06
02
ENDCHAR
STARTCHAR guilsinglright
ENCODING -1
SWIDTH 333 0
DWIDTH 11 0
BBX 7 14 1 1
BITMAP
80
C0
E0
70
38
1C
0E
0E
1C
38
70
E0
C0
80
ENDCHAR
STARTCHAR hungarumlaut
ENCODING -1
SWIDTH 333 0
DWIDTH 11 0
BBX 9 7 1 18
BITMAP
3180
7380
7380
6300
E700
C600
C600
ENDCHAR
STARTCHAR lslash
ENCODING -1
SWIDTH 278 0
DWIDTH 9 0
BBX 10 22 0 0
BITMAP
7E00
3E00
1E00
1E00
1E00
1E00
1E40
1FC0
1F80
1E00
3E00
7E00
DE00
1E00
1E00
1E00
1E00
1E00
1E00
1E00
3F00
7F80
ENDCHAR
STARTCHAR oe
ENCODING -1
SWIDTH 722 0
DWIDTH 24 0
BBX 22 16 1 0
BITMAP
0FC3E0
3CEFF8
787F78
787E3C
F03E1C
F03C1C
F03C1C
F03FFC
F03C00
F03C00
F03C00
F03C00
787E00
787F04
3CEFF8
0F83F0
ENDCHAR
STARTCHAR ogonek
ENCODING -1
SWIDTH 333 0
DWIDTH 11 0
BBX 7 8 2 -6
BITMAP
30
70
60
E0
C0
E6
7E
3C
ENDCHAR
STARTCHAR perthousand
ENCODING -1
SWIDTH 1000 0
DWIDTH 33 0
BBX 32 24 0 -1
BITMAP
0000C000
0F838000
3DFF0000
787B0000
70420000
F0460000
F0440000
E0CC0000
E0980000
E1900000
73300000
3E200000
0061F03E
0047B8F7
00CF09E1
018E09C1
011E0BC1
031E0BC1
021C1B83
061C1382
041C3386
0C0E61CC
1807C0F8
18000000
ENDCHAR
STARTCHAR quotedblbase
ENCODING -1
SWIDTH 500 0
DWIDTH 17 0
BBX 15 11 0 -6
BITMAP
783C
FC7E
FC7E
FC7E
7C3E
0C06
0804
180C
3018
6030
C060
ENDCHAR
STARTCHAR quotedblleft
ENCODING -1
SWIDTH 500 0
DWIDTH 17 0
BBX 14 11 1 12
BITMAP
0C0C
1818
3030
6060
4040
C0C0
F8F8
FCFC
FCFC
FCFC
7878
ENDCHAR
STARTCHAR quotedblright
ENCODING -1
SWIDTH 500 0
DWIDTH 17 0
BBX 15 11 1 12
BITMAP
783C
FC7E
FC7E
FC7E
7C3E
0C06
0804
180C
3018
6030
C060
ENDCHAR
STARTCHAR quotesinglbase
ENCODING -1
SWIDTH 333 0
DWIDTH 11 0
BBX 6 11 2 -6
BITMAP
78
FC
FC
FC
7C
0C
08
18
30
60
C0
ENDCHAR
STARTCHAR quotesingle
ENCODING -1
SWIDTH 278 0
DWIDTH 9 0
BBX 4 11 2 12
BITMAP
60
F0
F0
F0
F0
F0
F0
60
60
60
60
ENDCHAR
STARTCHAR ring
ENCODING -1
SWIDTH 333 0
DWIDTH 11 0
BBX 7 7 2 18
BITMAP
38
6C
C6
82
C6
6C
38
ENDCHAR
STARTCHAR scaron
ENCODING -1
SWIDTH 389 0
DWIDTH 13 0
BBX 10 24 1 0
BITMAP
6180
6180
3300
3F00
1E00
1E00
0000
0000
1F40
71C0
60C0
E0C0
F040
FC00
7F00
7F80
3F80
0FC0
03C0
81C0
C1C0
C1C0
E380
BF00
ENDCHAR
STARTCHAR tilde
ENCODING -1
SWIDTH 333 0
DWIDTH 11 0
BBX 9 4 1 18
BITMAP
3080
7980
CF00
8600
ENDCHAR
STARTCHAR trademark
ENCODING -1
SWIDTH 1000 0
DWIDTH 33 0
BBX 29 14 1 9
BITMAP
FFF7C0F8
C731E0F0
8711E0F0
871171F0
07017170
07017170
07013B70
07013A70
07013A70
07011E70
07011C70
07010C70
07010C70
1FC7CCF8
ENDCHAR
STARTCHAR zcaron
ENCODING -1
SWIDTH 444 0
DWIDTH 15 0
BBX 12 24 1 0
BITMAP
30C0
30C0
1980
1F80
0F00
0F00
0000
0000
FFF0
E3F0
C3E0
87E0
87C0
0F80
0F80
1F00
1F00
3E00
3E10
7C10
7C30
F830
F8F0
FFF0
ENDCHAR
ENDFONT
