STARTFONT 2.1
FONT -Adobe-Times-Bold-I-Normal--34-240-100-100-P-170-ISO8859-1
SIZE 24 100 100
FONTBOUNDINGBOX 39 37 -6 -7
COMMENT $XConsortium: timBI24.bdf,v 1.7 95/01/26 17:58:49 gildea Exp $
COMMENT 
COMMENT +
COMMENT  Copyright 1984-1989, 1994 Adobe Systems Incorporated.
COMMENT  Copyright 1988, 1994 Digital Equipment Corporation.
COMMENT
COMMENT  Adobe is a trademark of Adobe Systems Incorporated which may be
COMMENT  registered in certain jurisdictions.
COMMENT  Permission to use these trademarks is hereby granted only in
COMMENT  association with the images described in this file.
COMMENT
COMMENT  Permission to use, copy, modify, distribute and sell this software
COMMENT  and its documentation for any purpose and without fee is hereby
COMMENT  granted, provided that the above copyright notices appear in all
COMMENT  copies and that both those copyright notices and this permission
COMMENT  notice appear in supporting documentation, and that the names of
COMMENT  Adobe Systems and Digital Equipment Corporation not be used in
COMMENT  advertising or publicity pertaining to distribution of the software
COMMENT  without specific, written prior permission.  Adobe Systems and
COMMENT  Digital Equipment Corporation make no representations about the
COMMENT  suitability of this software for any purpose.  It is provided "as
COMMENT  is" without express or implied warranty.
COMMENT -
STARTPROPERTIES 28
FOUNDRY "Adobe"
FAMILY_NAME "Times"
WEIGHT_NAME "Bold"
SLANT "I"
SETWIDTH_NAME "Normal"
ADD_STYLE_NAME ""
PIXEL_SIZE 34
POINT_SIZE 240
RESOLUTION_X 100
RESOLUTION_Y 100
SPACING "P"
AVERAGE_WIDTH 170
CHARSET_REGISTRY "ISO8859"
CHARSET_ENCODING "1"
CAP_HEIGHT 23
X_HEIGHT 15
FONT_ASCENT 27
FONT_DESCENT 7
FACE_NAME "Times Bold Italic"
COPYRIGHT "Copyright (c) 1984, 1987 Adobe Systems Incorporated. All Rights Reserved. Copyright (c) 1988, 1991 Digital Equipment Corporation. All Rights Reserved."
NOTICE "Times is a trademark of Linotype-Hell AG and/or its subsidiaries."
_DEC_DEVICE_FONTNAMES "PS=Times-BoldItalic"
_DEC_PRODUCTINFO "DECwindows Fonts V2.2, 07-Nov-1991"
DEFAULT_CHAR 32
RELATIVE_SETWIDTH 50
RELATIVE_WEIGHT 70
CHARSET_COLLECTIONS "ASCII ISO8859-1 ADOBE-STANDARD"
FULL_NAME "Times Bold Italic"
ENDPROPERTIES
CHARS 229
STARTCHAR space
ENCODING 32
SWIDTH 250 0
DWIDTH 8 0
BBX 1 1 0 0
BITMAP
00
ENDCHAR
STARTCHAR exclam
ENCODING 33
SWIDTH 389 0
DWIDTH 13 0
BBX 10 23 2 0
BITMAP
0380
07C0
07C0
0FC0
0FC0
0F80
0F80
0F00
0F00
0E00
0E00
0C00
0C00
1800
1800
1800
0000
0000
7000
F800
F800
F800
7000
ENDCHAR
STARTCHAR quotedbl
ENCODING 34
SWIDTH 555 0
DWIDTH 19 0
BBX 13 11 5 12
BITMAP
7070
F8F8
F8F8
F8F8
F0F0
F0F0
E0E0
E0E0
C0C0
C0C0
8080
ENDCHAR
STARTCHAR numbersign
ENCODING 35
SWIDTH 500 0
DWIDTH 17 0
BBX 17 23 0 0
BITMAP
030C00
071C00
071C00
071C00
071C00
071C00
071C00
071C00
7FFF80
7FFF80
0E3800
0E3800
0E3800
0E3800
FFFF00
FFFF00
1C7000
1C7000
1C7000
1C7000
1C7000
1C7000
186000
ENDCHAR
STARTCHAR dollar
ENCODING 36
SWIDTH 500 0
DWIDTH 16 0
BBX 16 29 0 -4
BITMAP
0018
0018
01F0
07FC
0E3F
0C67
1C63
1C62
1EE2
1EC0
1FC0
1FC0
0FC0
07E0
03F0
01F8
01F8
037C
433C
433C
C638
E638
E630
3460
1FC0
0C00
0C00
1800
1800
ENDCHAR
STARTCHAR percent
ENCODING 37
SWIDTH 833 0
DWIDTH 27 0
BBX 25 24 1 0
BITMAP
00001000
07C07000
1FF3E000
3E3F6000
7C20C000
7820C000
F8218000
F8630000
F0430000
F0460000
F0C60000
F18C1F00
7B0C7F80
3E18F880
0031F080
0031E080
0063E080
0063E180
00C3C100
00C3C100
0183C300
0303C600
0301EC00
0200F800
ENDCHAR
STARTCHAR ampersand
ENCODING 38
SWIDTH 778 0
DWIDTH 26 0
BBX 22 23 2 0
BITMAP
001F00
007380
00F1C0
00E1C0
01E1C0
01C380
01C380
01C700
01EE00
01F800
01F000
07F1FC
1E7070
3C7860
7878E0
703CC0
F03D80
F03F00
F81F00
7C1F80
7FFFC8
3FE3F8
0F81F0
ENDCHAR
STARTCHAR quoteright
ENCODING 39
SWIDTH 333 0
DWIDTH 11 0
BBX 6 10 4 13
BITMAP
38
7C
7C
7C
3C
18
18
30
60
C0
ENDCHAR
STARTCHAR parenleft
ENCODING 40
SWIDTH 333 0
DWIDTH 11 0
BBX 10 29 3 -6
BITMAP
00C0
01C0
0380
0700
0E00
0C00
1C00
3800
3800
7800
7000
F000
F000
F000
E000
E000
E000
E000
E000
E000
E000
6000
6000
7000
3000
3000
1800
1800
0800
ENDCHAR
STARTCHAR parenright
ENCODING 41
SWIDTH 333 0
DWIDTH 11 0
BBX 10 29 -2 -6
BITMAP
0400
0600
0200
0300
0300
0380
0180
0180
01C0
01C0
01C0
01C0
01C0
01C0
01C0
03C0
03C0
03C0
0380
0780
0700
0F00
0E00
0C00
1C00
3800
7000
E000
C000
ENDCHAR
STARTCHAR asterisk
ENCODING 42
SWIDTH 500 0
DWIDTH 17 0
BBX 13 14 2 9
BITMAP
0300
0700
0700
E738
F278
7AF0
0F80
0F80
7EF0
F278
E738
0700
0700
0600
ENDCHAR
STARTCHAR plus
ENCODING 43
SWIDTH 570 0
DWIDTH 19 0
BBX 17 17 1 0
BITMAP
01C000
01C000
01C000
01C000
01C000
01C000
01C000
FFFF80
FFFF80
FFFF80
01C000
01C000
01C000
01C000
01C000
01C000
01C000
ENDCHAR
STARTCHAR comma
ENCODING 44
SWIDTH 250 0
DWIDTH 8 0
BBX 6 10 -1 -6
BITMAP
38
7C
7C
7C
3C
18
18
30
60
C0
ENDCHAR
STARTCHAR minus
ENCODING 45
SWIDTH 606 0
DWIDTH 20 0
BBX 16 3 2 7
BITMAP
FFFF
FFFF
FFFF
ENDCHAR
STARTCHAR period
ENCODING 46
SWIDTH 250 0
DWIDTH 8 0
BBX 5 5 -1 0
BITMAP
70
F8
F8
F8
70
ENDCHAR
STARTCHAR slash
ENCODING 47
SWIDTH 278 0
DWIDTH 9 0
BBX 9 23 0 0
BITMAP
0180
0180
0180
0300
0300
0300
0600
0600
0600
0C00
0C00
1C00
1800
1800
3800
3000
3000
7000
6000
6000
E000
C000
C000
ENDCHAR
STARTCHAR zero
ENCODING 48
SWIDTH 500 0
DWIDTH 16 0
BBX 16 23 1 0
BITMAP
01F0
039C
0F0C
0F0E
1E0E
3E1F
3E1F
7C1F
7C1F
7C1F
F83E
F83E
F83E
F83C
F07C
F07C
F0F8
F0F8
E0F0
E1E0
61E0
7380
1F00
ENDCHAR
STARTCHAR one
ENCODING 49
SWIDTH 500 0
DWIDTH 16 0
BBX 14 23 0 0
BITMAP
003C
07F8
00F8
00F8
00F8
00F0
00F0
01F0
01F0
01E0
03E0
03E0
03E0
03C0
07C0
07C0
07C0
0780
0F80
0F80
0F00
1F80
FFF0
ENDCHAR
STARTCHAR two
ENCODING 50
SWIDTH 500 0
DWIDTH 16 0
BBX 17 23 -1 0
BITMAP
007C00
01FF00
01FF00
031F80
060F80
040780
000780
000780
000F00
000F00
001E00
001C00
003800
007000
00E000
01C000
038000
070100
0E0700
1FFE00
3FFE00
7FFC00
FFFC00
ENDCHAR
STARTCHAR three
ENCODING 51
SWIDTH 500 0
DWIDTH 16 0
BBX 15 23 0 0
BITMAP
00F0
03F8
03FC
063E
0C1E
081E
001E
003C
00F8
03E0
0FC0
03E0
01F0
00F0
00F8
0078
0078
0078
00F0
60F0
F1E0
FF80
7E00
ENDCHAR
STARTCHAR four
ENCODING 52
SWIDTH 500 0
DWIDTH 16 0
BBX 17 23 -1 0
BITMAP
000180
000380
000780
000F80
001F80
003700
006F00
00CF00
019F00
031E00
061E00
0C1E00
183E00
303C00
603C00
FFFF00
FFFE00
FFFE00
007800
00F800
00F800
01F000
01F000
ENDCHAR
STARTCHAR five
ENCODING 53
SWIDTH 500 0
DWIDTH 16 0
BBX 15 23 0 0
BITMAP
07FE
07FE
07FC
0FFC
0C00
0C00
1C00
1F80
1FE0
3FF0
07F0
01F8
00F8
0078
0078
0038
0038
0038
0070
6070
F0E0
FF80
7E00
ENDCHAR
STARTCHAR six
ENCODING 54
SWIDTH 500 0
DWIDTH 16 0
BBX 16 23 1 0
BITMAP
0007
003E
00F8
01E0
07C0
0F80
1F00
1F00
3FF0
7E78
7C38
7C3C
F83C
F83C
F87C
F87C
F07C
F078
F0F8
70F0
70F0
39E0
1F80
ENDCHAR
STARTCHAR seven
ENCODING 55
SWIDTH 500 0
DWIDTH 16 0
BBX 15 23 2 0
BITMAP
3FFE
7FFE
7FFC
FFFC
C038
8030
0070
0060
00E0
01C0
01C0
0380
0380
0700
0700
0E00
1C00
1C00
3800
3800
7000
7000
E000
ENDCHAR
STARTCHAR eight
ENCODING 56
SWIDTH 500 0
DWIDTH 16 0
BBX 16 23 0 0
BITMAP
00F8
03DC
0F0E
0E07
1E07
1E07
1F07
1F0F
0F8E
0FDC
07F0
03E0
0FF0
1CF8
787C
703C
F03E
F01E
F01E
703C
783C
3CF8
1FE0
ENDCHAR
STARTCHAR nine
ENCODING 57
SWIDTH 500 0
DWIDTH 16 0
BBX 16 23 0 0
BITMAP
01F8
079C
0F0E
0F0E
1F0F
1E0F
3E0F
3E1F
3E1F
3C1F
3C1F
3C3E
1C3E
1E7E
0FFC
00F8
00F8
01F0
03E0
0780
1F00
7C00
E000
ENDCHAR
STARTCHAR colon
ENCODING 58
SWIDTH 333 0
DWIDTH 11 0
BBX 8 15 2 0
BITMAP
0E
1F
1F
1F
0E
00
00
00
00
00
70
F8
F8
F8
70
ENDCHAR
STARTCHAR semicolon
ENCODING 59
SWIDTH 333 0
DWIDTH 11 0
BBX 9 21 1 -6
BITMAP
0700
0F80
0F80
0F80
0700
0000
0000
0000
0000
0000
0000
3800
7C00
7C00
7C00
3C00
1800
1800
3000
6000
C000
ENDCHAR
STARTCHAR less
ENCODING 60
SWIDTH 570 0
DWIDTH 19 0
BBX 17 17 1 0
BITMAP
000180
000780
001F80
00FF00
03FC00
0FE000
3F8000
FE0000
F00000
FE0000
3F8000
0FE000
03FC00
00FF00
001F80
000780
000180
ENDCHAR
STARTCHAR equal
ENCODING 61
SWIDTH 570 0
DWIDTH 19 0
BBX 15 9 2 4
BITMAP
FFFE
FFFE
FFFE
0000
0000
0000
FFFE
FFFE
FFFE
ENDCHAR
STARTCHAR greater
ENCODING 62
SWIDTH 570 0
DWIDTH 19 0
BBX 17 17 1 0
BITMAP
C00000
F00000
FC0000
7F8000
1FE000
03F800
00FE00
003F80
000780
003F80
00FE00
03F800
1FE000
7F8000
FC0000
F00000
C00000
ENDCHAR
STARTCHAR question
ENCODING 63
SWIDTH 500 0
DWIDTH 16 0
BBX 12 23 3 0
BITMAP
0F80
39E0
30F0
78F0
78F0
30F0
01E0
01E0
03C0
0780
0700
0E00
0800
1800
1000
1000
0000
0000
7000
F800
F800
F800
7000
ENDCHAR
STARTCHAR at
ENCODING 64
SWIDTH 832 0
DWIDTH 28 0
BBX 28 28 0 -5
BITMAP
001FF800
007E1E00
01E00700
03C00180
070000C0
0E000060
1E000060
1C039C30
3C0FDC30
381E7C10
783C3C10
78783810
F0783810
F0F03810
F0F07830
F0F07020
F0F07060
F0F0F0C0
F0F9E180
707FF300
787EFE00
383C7800
3C000000
1C000000
0E000000
03800000
01E01C00
003FF000
ENDCHAR
STARTCHAR A
ENCODING 65
SWIDTH 667 0
DWIDTH 21 0
BBX 21 23 -1 0
BITMAP
000200
000600
000700
000F00
001F00
001F00
003F00
002F00
006F80
004F80
00CF80
018F80
018780
030780
0207C0
07FFC0
0FFFC0
0C07C0
1807C0
1803C0
3003E0
7007E0
FC1FF8
ENDCHAR
STARTCHAR B
ENCODING 66
SWIDTH 667 0
DWIDTH 21 0
BBX 22 23 -1 0
BITMAP
07FFE0
01F1F8
01F07C
01F03C
01F03C
01F03C
03E03C
03E07C
03E0F8
03E1F0
07FF80
07FFC0
07C3F0
07C1F0
0F80F8
0F80F8
0F80F8
0F80F8
1F00F0
1F01F0
1F03E0
3F0F80
FFFE00
ENDCHAR
STARTCHAR C
ENCODING 67
SWIDTH 667 0
DWIDTH 22 0
BBX 21 23 2 0
BITMAP
003FC8
00FFF8
03F078
07C030
0F8030
1F0030
3F0020
3E0020
7E0000
7C0000
7C0000
F80000
F80000
F80000
F80000
F80000
F80000
F80000
7C0040
7C0180
3F0700
0FFC00
03F000
ENDCHAR
STARTCHAR D
ENCODING 68
SWIDTH 722 0
DWIDTH 23 0
BBX 24 23 -1 0
BITMAP
0FFFC0
03F0F0
01F078
01F03C
03E03E
03E01E
03E01F
07E01F
07C01F
07C01F
07C01F
0FC01F
0F801F
0F803E
0F803E
1F807C
1F007C
1F00F8
1F00F0
3F01E0
3E07C0
7F1F00
FFFC00
ENDCHAR
STARTCHAR E
ENCODING 69
SWIDTH 667 0
DWIDTH 22 0
BBX 22 23 -1 0
BITMAP
07FFFC
01F83C
01F01C
01F018
01F018
03E018
03E010
03E080
03E080
07E180
07C780
07FF80
07C700
0F8300
0F8300
0F8200
0F8000
1F0010
1F0030
1F0070
3F00E0
3F03E0
FFFFE0
ENDCHAR
STARTCHAR F
ENCODING 70
SWIDTH 667 0
DWIDTH 22 0
BBX 22 23 0 0
BITMAP
07FFFC
01F83C
01F01C
01F018
01F018
03F018
03E010
03E080
03E080
07E180
07C780
07FF80
07C700
0F8300
0F8300
0F8200
0F8000
1F0000
1F0000
1F0000
3F0000
3F0000
FFC000
ENDCHAR
STARTCHAR G
ENCODING 71
SWIDTH 722 0
DWIDTH 24 0
BBX 23 23 1 0
BITMAP
003FE4
00FCFC
03F03C
07C01C
0F8018
1F0008
3F0008
3E0000
7E0000
7C0000
7C0000
F80000
F803FE
F800F8
F800F8
F800F0
F801F0
7C01F0
7C01E0
3E03E0
3F07C0
0FFFC0
03FF00
ENDCHAR
STARTCHAR H
ENCODING 72
SWIDTH 778 0
DWIDTH 25 0
BBX 27 23 -1 0
BITMAP
07FE7FE0
01F81F80
01F01F00
01F01F00
01F01F00
01E01E00
01E01E00
03E03E00
03E03E00
03C03C00
03FFFC00
03FFFC00
07C07C00
07807800
07807800
0F80F800
0F80F800
0F80F800
0F00F000
1F01F000
1F01F000
3F03F000
FFC7FC00
ENDCHAR
STARTCHAR I
ENCODING 73
SWIDTH 389 0
DWIDTH 13 0
BBX 15 23 -1 0
BITMAP
07FE
01F8
01F8
01F0
01F0
01F0
03E0
03E0
03E0
03E0
07C0
07C0
07C0
07C0
0F80
0F80
0F80
0F80
1F00
1F00
1F00
3F00
FFC0
ENDCHAR
STARTCHAR J
ENCODING 74
SWIDTH 500 0
DWIDTH 17 0
BBX 18 26 0 -3
BITMAP
00FFC0
003F00
003F00
003E00
003E00
003E00
003E00
007C00
007C00
007C00
007C00
00F800
00F800
00F800
00F800
01F000
01F000
01F000
01F000
01E000
61E000
F3E000
F3C000
E3C000
7F8000
3E0000
ENDCHAR
STARTCHAR K
ENCODING 75
SWIDTH 667 0
DWIDTH 22 0
BBX 24 23 -1 0
BITMAP
07FE7F
01F81C
01F018
01F030
01E060
03E0C0
03E180
03C300
03C600
07DC00
07FC00
07FE00
07DE00
0F9F00
0F9F00
0F9F80
0F0F80
1F0FC0
1F07C0
1E07E0
3E03E0
3F03F0
FFCFF8
ENDCHAR
STARTCHAR L
ENCODING 76
SWIDTH 611 0
DWIDTH 20 0
BBX 20 23 -1 0
BITMAP
07FE00
01F800
01F000
01F000
01F000
03E000
03E000
03E000
03E000
07E000
07C000
07C000
07C000
0F8000
0F8000
0F8000
0F8000
1F0010
1F0030
1F0070
3F00E0
3F03E0
FFFFE0
ENDCHAR
STARTCHAR M
ENCODING 77
SWIDTH 889 0
DWIDTH 29 0
BBX 31 23 -1 0
BITMAP
07F001FE
01F001FC
01F003F8
01F003F8
01F807F0
03F80DF0
03F80DF0
03781BF0
02781BE0
067833E0
067867C0
067867C0
0C78C7C0
0C7D87C0
0C7D8F80
0C7F0F80
187F0F80
183E0F80
183C1F00
383C1F00
30381F00
78303F00
FE30FFC0
ENDCHAR
STARTCHAR N
ENCODING 78
SWIDTH 722 0
DWIDTH 24 0
BBX 26 23 -1 0
BITMAP
07E01FC0
03F00F80
01F00700
01F80700
01F80600
037C0600
037C0600
033E0C00
023E0C00
063F0C00
061F0C00
061F1800
0C0F9800
0C0F9800
0C07D000
0C07F000
1803F000
1803F000
1803F000
3801E000
3801E000
7C00E000
FE00E000
ENDCHAR
STARTCHAR O
ENCODING 79
SWIDTH 722 0
DWIDTH 23 0
BBX 22 23 1 0
BITMAP
001F80
00FFE0
01E0F0
03C078
078078
0F007C
1F007C
3E007C
3E007C
3E007C
7C00FC
7C00F8
FC00F8
F801F0
F801F0
F801F0
F803E0
F803C0
780780
780F00
3C1E00
1FFC00
07E000
ENDCHAR
STARTCHAR P
ENCODING 80
SWIDTH 611 0
DWIDTH 20 0
BBX 21 23 -1 0
BITMAP
07FFC0
01FFF0
01F1F8
01F0F8
03E0F8
03E0F8
03E0F8
03E1F0
07C1F0
07C3E0
07CFC0
07FF00
0F8000
0F8000
0F8000
0F8000
0F8000
0F0000
1F0000
1F0000
1F0000
3F8000
FFC000
ENDCHAR
STARTCHAR Q
ENCODING 81
SWIDTH 722 0
DWIDTH 24 0
BBX 22 30 1 -7
BITMAP
001F80
00FFE0
01E0F0
03C078
078078
0F007C
1F007C
3E007C
3E007C
3E007C
7C00FC
7C00F8
FC00F8
F801F0
F801F0
F801F0
F803E0
F803C0
780780
780F00
3C1E00
1FFC00
07E000
030000
060000
0F8008
1FF870
3FFFE0
71FFC0
C01F00
ENDCHAR
STARTCHAR R
ENCODING 82
SWIDTH 667 0
DWIDTH 22 0
BBX 21 23 -1 0
BITMAP
07FFC0
01FFF0
01F1F8
01F0F8
03E0F8
03E0F8
03E0F8
03E1F0
07C1F0
07C3E0
07CFC0
07FF00
0FBE00
0FBF00
0F9F00
0F9F80
0F8F80
0F0F80
1F07C0
1F07C0
1F07E0
3F03E0
FFC3F8
ENDCHAR
STARTCHAR S
ENCODING 83
SWIDTH 556 0
DWIDTH 18 0
BBX 17 23 1 0
BITMAP
03F880
0FFD80
1F0F80
1E0700
3C0300
3E0300
3E0200
3F0000
1FC000
1FE000
0FF000
07F800
03FC00
00FC00
007E00
003E00
801E00
C01E00
C01E00
E03C00
F07C00
FFF800
DFE000
ENDCHAR
STARTCHAR T
ENCODING 84
SWIDTH 611 0
DWIDTH 20 0
BBX 19 23 2 0
BITMAP
3FFFE0
3CF9E0
30F8E0
70F8C0
61F0C0
61F080
41F080
01F000
03E000
03E000
03E000
03E000
07C000
07C000
07C000
078000
0F8000
0F8000
0F8000
1F0000
1F0000
3F8000
FFE000
ENDCHAR
STARTCHAR U
ENCODING 85
SWIDTH 722 0
DWIDTH 24 0
BBX 23 23 2 0
BITMAP
7FE07E
1F803C
1F8018
1F0018
1F0030
3F0030
3E0030
3E0060
3E0060
7E0060
7C00C0
7C00C0
7C00C0
F80180
F80180
F80180
F80300
F80300
F80600
7C0E00
7E1C00
3FF800
0FE000
ENDCHAR
STARTCHAR V
ENCODING 86
SWIDTH 667 0
DWIDTH 22 0
BBX 21 23 2 0
BITMAP
FFC1F8
3F0070
3E0060
3F00E0
1F00C0
1F0180
1F0180
1F0300
1F0300
1F0600
0F0C00
0F8C00
0F9800
0F9800
0FB000
0FE000
0FE000
07C000
07C000
078000
070000
070000
060000
ENDCHAR
STARTCHAR W
ENCODING 87
SWIDTH 889 0
DWIDTH 29 0
BBX 28 23 2 0
BITMAP
FF9FF3F0
3F07C0E0
3E07C0C0
3E07C080
3E07C180
1E07C100
1F0FC300
1F0FC300
1F1BC200
1F1BC600
1F33C400
1F33EC00
0F63E800
0F63F800
0F41F000
0FC1F000
0F81F000
0F81E000
0F01E000
0F01C000
0601C000
06018000
04008000
ENDCHAR
STARTCHAR X
ENCODING 88
SWIDTH 667 0
DWIDTH 22 0
BBX 24 23 -1 0
BITMAP
0FFC7F
03F01C
01F018
01F030
01F060
00F8C0
00F980
00FB00
007E00
007C00
007C00
007C00
007E00
007E00
00FE00
019F00
031F00
061F00
0C0F80
180F80
300F80
780FE0
FC3FF0
ENDCHAR
STARTCHAR Y
ENCODING 89
SWIDTH 611 0
DWIDTH 20 0
BBX 19 23 2 0
BITMAP
FF8FE0
7E03C0
3E0380
3E0300
1E0600
1F0600
1F0C00
0F1800
0F9800
0FB000
0FE000
07C000
07C000
07C000
0F8000
0F8000
0F8000
0F8000
1F0000
1F0000
1F0000
3F0000
FFC000
ENDCHAR
STARTCHAR Z
ENCODING 90
SWIDTH 611 0
DWIDTH 20 0
BBX 20 23 -1 0
BITMAP
0FFFF0
0FC3E0
0E07E0
1C07C0
180F80
101F80
003F00
003E00
007E00
00FC00
00F800
01F800
03F000
03E000
07E000
0FC000
0F8000
1F8040
3F00C0
3E01C0
7E0380
FC1F80
FFFF80
ENDCHAR
STARTCHAR bracketleft
ENCODING 91
SWIDTH 333 0
DWIDTH 11 0
BBX 13 28 1 -5
BITMAP
03F8
03C0
0380
0780
0700
0700
0700
0F00
0F00
0E00
0E00
0E00
1E00
1C00
1C00
1C00
3C00
3C00
3800
3800
7800
7800
7000
7000
7000
F000
F000
FE00
ENDCHAR
STARTCHAR backslash
ENCODING 92
SWIDTH 278 0
DWIDTH 9 0
BBX 15 23 0 0
BITMAP
F000
7000
7800
3800
3C00
1C00
1E00
0E00
0700
0700
0380
0380
01C0
01C0
00E0
00F0
0070
0078
0038
003C
001C
001E
000E
ENDCHAR
STARTCHAR bracketright
ENCODING 93
SWIDTH 333 0
DWIDTH 11 0
BBX 13 28 -3 -5
BITMAP
03F8
0078
0070
0070
0070
00F0
00F0
00E0
00E0
01E0
01E0
01C0
01C0
01C0
03C0
0380
0380
0380
0780
0780
0700
0700
0700
0F00
0E00
0E00
1E00
FE00
ENDCHAR
STARTCHAR asciicircum
ENCODING 94
SWIDTH 570 0
DWIDTH 19 0
BBX 15 13 2 10
BITMAP
07C0
07C0
0FE0
0EE0
1EF0
1C70
3C78
3838
783C
701C
F01E
E00E
E00E
ENDCHAR
STARTCHAR underscore
ENCODING 95
SWIDTH 500 0
DWIDTH 17 0
BBX 17 1 0 -4
BITMAP
FFFF80
ENDCHAR
STARTCHAR quoteleft
ENCODING 96
SWIDTH 333 0
DWIDTH 11 0
BBX 6 10 4 13
BITMAP
0C
18
30
60
60
F0
F8
F8
F8
70
ENDCHAR
STARTCHAR a
ENCODING 97
SWIDTH 500 0
DWIDTH 16 0
BBX 14 15 0 0
BITMAP
039C
0FDC
1E7C
3C3C
7838
7878
F878
F078
F0F0
F0F0
F0F4
F1EC
7F78
7E70
1C60
ENDCHAR
STARTCHAR b
ENCODING 98
SWIDTH 500 0
DWIDTH 16 0
BBX 14 23 1 0
BITMAP
0F00
3F00
0F00
0E00
0E00
1E00
1E00
1C00
3DE0
3FF8
3E78
3C3C
783C
783C
783C
783C
F078
F078
F0F0
F0E0
F1C0
FF80
7E00
ENDCHAR
STARTCHAR c
ENCODING 99
SWIDTH 444 0
DWIDTH 14 0
BBX 13 15 1 0
BITMAP
01F0
07F8
1E78
3C78
3C30
7800
7800
F000
F000
F000
F020
F060
78C0
7F80
1E00
ENDCHAR
STARTCHAR d
ENCODING 100
SWIDTH 500 0
DWIDTH 16 0
BBX 17 23 0 0
BITMAP
000380
001F80
000780
000780
000700
000F00
000F00
000F00
03DE00
0FFE00
1F3E00
3C1E00
7C1E00
783C00
F83C00
F03C00
F03800
F07800
F07800
F0F600
7FFC00
7F7800
1E3000
ENDCHAR
STARTCHAR e
ENCODING 101
SWIDTH 444 0
DWIDTH 14 0
BBX 12 15 1 0
BITMAP
03E0
0FF0
1E70
3C70
38F0
78E0
71C0
F780
FC00
F000
F020
F060
78C0
7F80
1E00
ENDCHAR
STARTCHAR f
ENCODING 102
SWIDTH 333 0
DWIDTH 11 0
BBX 20 30 -5 -7
BITMAP
0003E0
000770
000E70
000E60
001E00
001C00
003C00
003C00
003C00
01FF80
007C00
007800
007800
007800
00F800
00F000
00F000
00F000
00F000
01E000
01E000
01E000
03C000
03C000
038000
078000
670000
E70000
EE0000
7C0000
ENDCHAR
STARTCHAR g
ENCODING 103
SWIDTH 500 0
DWIDTH 16 0
BBX 18 22 -1 -7
BITMAP
01F800
07FFC0
0F8FC0
0F0700
1F0700
1E0700
1E0E00
1F3E00
0FFC00
07E000
0E0000
1C0000
1F8000
1FF000
0FF800
1FF800
707C00
E01C00
E01C00
F03C00
787800
1FE000
ENDCHAR
STARTCHAR h
ENCODING 104
SWIDTH 556 0
DWIDTH 18 0
BBX 16 23 1 0
BITMAP
0380
3F80
1F80
0780
0F00
0F00
0F00
1F00
1E3C
1E7E
1EDE
3F1E
3E1E
3E3C
3C3C
7C3C
7878
7878
7879
F0F3
F0F6
F0FC
F078
ENDCHAR
STARTCHAR i
ENCODING 105
SWIDTH 278 0
DWIDTH 9 0
BBX 8 23 1 0
BITMAP
06
0F
0F
0F
06
00
00
00
1E
FE
3C
3C
3C
78
78
78
78
F0
F2
F6
FC
F8
70
ENDCHAR
STARTCHAR j
ENCODING 106
SWIDTH 278 0
DWIDTH 9 0
BBX 14 30 -4 -7
BITMAP
0018
003C
003C
003C
0018
0000
0000
0000
0078
03F8
00F0
00F0
00F0
01E0
01E0
01E0
01E0
03C0
03C0
03C0
03C0
07C0
0780
0780
0780
0F00
4F00
EE00
FC00
7800
ENDCHAR
STARTCHAR k
ENCODING 107
SWIDTH 500 0
DWIDTH 16 0
BBX 16 23 1 0
BITMAP
0380
1F80
0F80
0780
0700
0F00
0F00
0F00
0E3F
0E1C
1E38
1E30
1E60
1CC0
3D80
3F80
3FC0
3BC0
79E0
79E2
70F6
F0FC
F078
ENDCHAR
STARTCHAR l
ENCODING 108
SWIDTH 278 0
DWIDTH 9 0
BBX 9 23 1 0
BITMAP
0380
3F80
1F80
0780
0F00
0F00
0F00
1E00
1E00
1E00
1E00
3C00
3C00
3C00
7C00
7800
7800
7800
F200
F600
FC00
F800
7000
ENDCHAR
STARTCHAR m
ENCODING 109
SWIDTH 778 0
DWIDTH 25 0
BBX 23 15 1 0
BITMAP
1C7C7C
FDFDFE
3FBFBE
3F1F1E
3E1E1E
3C3C3C
3C3C3C
3C3C3C
787878
787878
787878
F0F0F2
F0F0F6
F0F0FC
F0F078
ENDCHAR
STARTCHAR n
ENCODING 110
SWIDTH 556 0
DWIDTH 18 0
BBX 15 15 1 0
BITMAP
1E3C
FE7E
1CFE
3D9E
3E1E
3C3C
3C3C
3C3C
7878
7878
7878
F0F2
F0F6
F0FC
F078
ENDCHAR
STARTCHAR o
ENCODING 111
SWIDTH 500 0
DWIDTH 16 0
BBX 15 15 1 0
BITMAP
01F0
073C
1E1C
1C1E
3C1E
7C1E
783E
F83E
F83C
F07C
F078
F070
70F0
79E0
1F80
ENDCHAR
STARTCHAR p
ENCODING 112
SWIDTH 500 0
DWIDTH 16 0
BBX 19 22 -3 -7
BITMAP
01E780
0FEFC0
03EBE0
03F1E0
03E1E0
03C1E0
03C3E0
03C3E0
0783C0
0787C0
078780
078700
0F0E00
0FBC00
0FF000
0F0000
1E0000
1E0000
1E0000
3E0000
3E0000
FF8000
ENDCHAR
STARTCHAR q
ENCODING 113
SWIDTH 500 0
DWIDTH 16 0
BBX 15 22 0 -7
BITMAP
01EE
077E
0E3E
1C3E
3C3C
7C3C
783C
F87C
F878
F078
F0F8
F1F0
73F0
7EF0
1DF0
01E0
01E0
01E0
03E0
03C0
07C0
1FF0
ENDCHAR
STARTCHAR r
ENCODING 114
SWIDTH 389 0
DWIDTH 13 0
BBX 14 15 0 0
BITMAP
0F18
7F3C
1E7C
1EFC
1F98
1F00
1E00
3E00
3C00
3C00
3C00
7800
7800
7800
F800
ENDCHAR
STARTCHAR s
ENCODING 115
SWIDTH 389 0
DWIDTH 13 0
BBX 11 15 1 0
BITMAP
0FA0
1DE0
3860
3C60
3C20
3E00
1F00
1F80
0F80
07C0
87C0
C3C0
C380
F700
BE00
ENDCHAR
STARTCHAR t
ENCODING 116
SWIDTH 278 0
DWIDTH 9 0
BBX 9 20 1 0
BITMAP
0100
0300
0700
0E00
3E00
7F80
FF80
3C00
3C00
3C00
7800
7800
7800
7800
F000
F200
F600
FC00
F800
7000
ENDCHAR
STARTCHAR u
ENCODING 117
SWIDTH 556 0
DWIDTH 18 0
BBX 15 15 1 0
BITMAP
1E1E
FE1E
3C1E
3C3C
3C3C
3C3C
787C
7878
78F8
70F8
F0F0
F1F2
F376
FE7C
7878
ENDCHAR
STARTCHAR v
ENCODING 118
SWIDTH 444 0
DWIDTH 15 0
BBX 14 15 1 0
BITMAP
1C18
FC3C
3C3C
3C18
3C18
3C30
1E30
1E60
1E60
1EC0
1F80
1F00
1E00
1C00
1800
ENDCHAR
STARTCHAR w
ENCODING 119
SWIDTH 667 0
DWIDTH 22 0
BBX 21 15 1 0
BITMAP
1C0830
FC1878
3C1878
3C3838
1E7C30
1E7C60
1EDC60
1EBCC0
1F3D80
1F3D80
1E3F00
1C3E00
1C3C00
183800
183000
ENDCHAR
STARTCHAR x
ENCODING 120
SWIDTH 500 0
DWIDTH 16 0
BBX 16 15 0 0
BITMAP
0F06
3F8F
079F
03B6
03E0
03C0
01C0
01C0
03E0
03E0
06E0
6CF6
F8FC
F0F8
6070
ENDCHAR
STARTCHAR y
ENCODING 121
SWIDTH 444 0
DWIDTH 15 0
BBX 16 22 -2 -7
BITMAP
0386
1F8F
078F
0787
03C3
03C2
03C6
03C4
03CC
01C8
01D8
01F0
01F0
01E0
01E0
01C0
0180
0180
6300
FE00
FC00
7000
ENDCHAR
STARTCHAR z
ENCODING 122
SWIDTH 389 0
DWIDTH 13 0
BBX 14 17 -1 -2
BITMAP
1FFC
1FFC
3FF8
2030
0060
00C0
0180
0300
0600
0C00
1800
3000
7C10
FF38
EFB8
87F0
01E0
ENDCHAR
STARTCHAR braceleft
ENCODING 123
SWIDTH 348 0
DWIDTH 12 0
BBX 12 30 2 -6
BITMAP
0070
01C0
0380
0780
0700
0700
0700
0E00
0E00
0E00
0E00
1C00
3C00
F800
6000
3000
3800
3800
3800
7800
7800
7000
7000
7000
F000
E000
E000
E000
7000
1800
ENDCHAR
STARTCHAR bar
ENCODING 124
SWIDTH 220 0
DWIDTH 7 0
BBX 3 23 2 0
BITMAP
E0
E0
E0
E0
E0
E0
E0
E0
E0
E0
E0
E0
E0
E0
E0
E0
E0
E0
E0
E0
E0
E0
E0
ENDCHAR
STARTCHAR braceright
ENCODING 125
SWIDTH 348 0
DWIDTH 12 0
BBX 12 30 -2 -6
BITMAP
0180
00E0
0070
0070
0070
00F0
00E0
00E0
00E0
01E0
01E0
01C0
01C0
00E0
00F0
01E0
03C0
0380
0380
0700
0700
0700
0700
0E00
0E00
0E00
1E00
1C00
3800
E000
ENDCHAR
STARTCHAR asciitilde
ENCODING 126
SWIDTH 570 0
DWIDTH 19 0
BBX 17 6 1 6
BITMAP
0F0000
3F8300
7FC780
F1FF00
60FE00
007800
ENDCHAR
STARTCHAR space
ENCODING 160
SWIDTH 250 0
DWIDTH 8 0
BBX 1 1 0 0
BITMAP
00
ENDCHAR
STARTCHAR exclamdown
ENCODING 161
SWIDTH 389 0
DWIDTH 13 0
BBX 10 23 1 -7
BITMAP
0380
07C0
07C0
07C0
0380
0000
0000
0600
0600
0600
0C00
0C00
1C00
1C00
3C00
3C00
7C00
7C00
FC00
FC00
F800
F800
7000
ENDCHAR
STARTCHAR cent
ENCODING 162
SWIDTH 500 0
DWIDTH 17 0
BBX 13 24 2 -5
BITMAP
0008
0018
0010
0030
01F0
0738
1E78
1C78
3C78
78C0
7880
F880
F180
F100
F320
FA60
FAC0
7F80
3F00
0400
0C00
0800
0800
0800
ENDCHAR
STARTCHAR sterling
ENCODING 163
SWIDTH 500 0
DWIDTH 17 0
BBX 18 23 -1 0
BITMAP
000F00
003F80
0073C0
0073C0
00E180
00E000
01E000
01E000
01E000
03E000
03E000
1FFC00
1FFC00
03C000
03C000
038000
038000
1F0000
7F0200
C78600
87FC00
CDFC00
787800
ENDCHAR
STARTCHAR currency
ENCODING 164
SWIDTH 500 0
DWIDTH 17 0
BBX 17 16 0 4
BITMAP
67F300
FFFF80
FFFF80
7C1F00
780F00
F00780
F00780
E00380
E00380
F00780
F00780
780F00
7C1F00
FFFF80
FFFF80
67F300
ENDCHAR
STARTCHAR yen
ENCODING 165
SWIDTH 500 0
DWIDTH 17 0
BBX 19 23 1 0
BITMAP
FF8FE0
7E0380
3E0380
3E0300
3E0600
1F0E00
1F0C00
1F1800
0F3800
0FB000
0FE000
0FE000
07C000
7FF800
7FF800
0F8000
0F8000
FFF000
FFF000
1F0000
1F0000
3F0000
FFC000
ENDCHAR
STARTCHAR brokenbar
ENCODING 166
SWIDTH 220 0
DWIDTH 7 0
BBX 3 23 2 0
BITMAP
E0
E0
E0
E0
E0
E0
E0
E0
E0
00
00
00
00
00
E0
E0
E0
E0
E0
E0
E0
E0
E0
ENDCHAR
STARTCHAR section
ENCODING 167
SWIDTH 500 0
DWIDTH 17 0
BBX 13 28 2 -5
BITMAP
07C0
0E60
18F0
18F0
1860
1C00
1E00
0F00
0F80
3FC0
67E0
C3F0
E1F0
F0F8
F878
7C30
7E30
3F60
1FC0
0F00
0780
03C0
01C0
61C0
F1C0
F180
6700
3E00
ENDCHAR
STARTCHAR dieresis
ENCODING 168
SWIDTH 333 0
DWIDTH 11 0
BBX 11 4 2 17
BITMAP
60C0
F1E0
F1E0
60C0
ENDCHAR
STARTCHAR copyright
ENCODING 169
SWIDTH 747 0
DWIDTH 25 0
BBX 23 23 1 0
BITMAP
00FE00
03FF80
0F83E0
1E00F0
3C0078
380038
707E1C
60E70C
E1C10E
C1C106
C38006
C38006
C38006
C38006
C1C006
E1C10E
60E70C
707C1C
380038
1E00F0
0F83E0
03FF80
00FE00
ENDCHAR
STARTCHAR ordfeminine
ENCODING 170
SWIDTH 266 0
DWIDTH 9 0
BBX 11 14 -1 9
BITMAP
0EC0
1FC0
39C0
31C0
71C0
6380
6380
67A0
7FE0
3CC0
0000
0000
FF00
FF00
ENDCHAR
STARTCHAR guillemotleft
ENCODING 171
SWIDTH 500 0
DWIDTH 16 0
BBX 16 13 0 1
BITMAP
0183
0387
070E
0E1C
1C38
3870
70E0
E1C0
70E0
3870
1C38
0E1C
060C
ENDCHAR
STARTCHAR logicalnot
ENCODING 172
SWIDTH 606 0
DWIDTH 20 0
BBX 17 9 1 4
BITMAP
FFFF80
FFFF80
FFFF80
000380
000380
000380
000380
000380
000380
ENDCHAR
STARTCHAR hyphen
ENCODING 173
SWIDTH 333 0
DWIDTH 11 0
BBX 9 4 1 5
BITMAP
7F80
FF80
FF80
FF00
ENDCHAR
STARTCHAR registered
ENCODING 174
SWIDTH 747 0
DWIDTH 25 0
BBX 23 23 1 0
BITMAP
00FE00
03FF80
0F83E0
1E00F0
3C0078
380038
73FC1C
71CE0C
E1C70E
E1C70E
C1C706
C1CE06
C1F806
C1CE06
E1CE0E
E1C70E
71C79C
7BE3DC
3C0038
1E0078
0F81F0
03FFC0
00FF00
ENDCHAR
STARTCHAR macron
ENCODING 175
SWIDTH 333 0
DWIDTH 11 0
BBX 11 2 1 18
BITMAP
FFE0
FFE0
ENDCHAR
STARTCHAR degree
ENCODING 176
SWIDTH 400 0
DWIDTH 13 0
BBX 10 10 2 13
BITMAP
1E00
7F80
7380
E1C0
C0C0
C0C0
E1C0
7380
7F80
1E00
ENDCHAR
STARTCHAR plusminus
ENCODING 177
SWIDTH 570 0
DWIDTH 19 0
BBX 17 23 1 0
BITMAP
01C000
01C000
01C000
01C000
01C000
01C000
01C000
01C000
FFFF80
FFFF80
FFFF80
01C000
01C000
01C000
01C000
01C000
01C000
01C000
000000
000000
FFFF80
FFFF80
FFFF80
ENDCHAR
STARTCHAR twosuperior
ENCODING 178
SWIDTH 300 0
DWIDTH 10 0
BBX 10 14 0 9
BITMAP
0F00
3F80
33C0
61C0
41C0
01C0
0380
0700
0E00
1C00
3840
7040
FFC0
FFC0
ENDCHAR
STARTCHAR threesuperior
ENCODING 179
SWIDTH 300 0
DWIDTH 10 0
BBX 10 14 1 9
BITMAP
0F00
3F80
63C0
41C0
01C0
0380
0F00
0380
01C0
01C0
C1C0
C3C0
6780
3E00
ENDCHAR
STARTCHAR acute
ENCODING 180
SWIDTH 333 0
DWIDTH 11 0
BBX 7 6 3 17
BITMAP
0E
1E
3E
78
E0
C0
ENDCHAR
STARTCHAR mu
ENCODING 181
SWIDTH 576 0
DWIDTH 19 0
BBX 18 22 -1 -7
BITMAP
01C3C0
1FC3C0
0783C0
078780
078780
078780
0F0F80
0F0F00
0F1F00
0E1F00
1E3E00
1E7E40
1EDEC0
1F9F80
1F0F00
100000
300000
600000
600000
E00000
E00000
C00000
ENDCHAR
STARTCHAR paragraph
ENCODING 182
SWIDTH 500 0
DWIDTH 17 0
BBX 17 29 2 -6
BITMAP
03FF80
07FF80
1FCC00
3FCC00
3F8C00
7F9800
7F9800
FF9800
FF1800
FF3000
FF3000
FE3000
7E7000
7E6000
3E6000
0C6000
0CE000
0CC000
1CC000
18C000
198000
198000
398000
318000
330000
330000
630000
670000
660000
ENDCHAR
STARTCHAR periodcentered
ENCODING 183
SWIDTH 250 0
DWIDTH 8 0
BBX 5 5 1 6
BITMAP
70
F8
F8
F8
70
ENDCHAR
STARTCHAR cedilla
ENCODING 184
SWIDTH 333 0
DWIDTH 11 0
BBX 7 7 0 -7
BITMAP
10
30
7C
0E
86
C6
7C
ENDCHAR
STARTCHAR onesuperior
ENCODING 185
SWIDTH 300 0
DWIDTH 10 0
BBX 9 14 0 9
BITMAP
0180
1F80
0700
0700
0700
0E00
0E00
0E00
1E00
1C00
1C00
1C00
3800
FE00
ENDCHAR
STARTCHAR ordmasculine
ENCODING 186
SWIDTH 300 0
DWIDTH 10 0
BBX 10 14 0 9
BITMAP
0F00
1D80
31C0
71C0
71C0
E380
E380
E300
6600
3C00
0000
0000
FF00
FF00
ENDCHAR
STARTCHAR guillemotright
ENCODING 187
SWIDTH 500 0
DWIDTH 16 0
BBX 16 13 -1 1
BITMAP
3060
3870
1C38
0E1C
070E
0387
070E
0E1C
1C38
3870
70E0
E1C0
C180
ENDCHAR
STARTCHAR onequarter
ENCODING 188
SWIDTH 750 0
DWIDTH 25 0
BBX 24 23 0 0
BITMAP
018018
1F8018
070030
070070
070060
0E00C0
0E00C0
0E0180
1E0300
1C0303
1C060F
1C0E1E
380C3E
FE186E
0018CE
00319C
00631C
00661C
00CFFE
018FFE
018038
030070
030070
ENDCHAR
STARTCHAR onehalf
ENCODING 189
SWIDTH 750 0
DWIDTH 25 0
BBX 24 23 0 0
BITMAP
018018
1F8018
070030
070070
070060
0E00C0
0E00C0
0E0180
1E0300
1C033C
1C067E
1C0EFF
380D87
FE1907
001806
00300E
00601C
006038
00C070
0180E2
0181C6
0303FE
0307FE
ENDCHAR
STARTCHAR threequarters
ENCODING 190
SWIDTH 750 0
DWIDTH 25 0
BBX 22 23 1 0
BITMAP
0F0030
3F8070
63C060
41C0C0
01C1C0
038180
0F0300
038300
01C600
00CC0C
C0CC1C
E1D83C
77B87C
3F30DC
00619C
006338
00C638
018C38
019FFC
031FFC
060070
0600E0
0C00E0
ENDCHAR
STARTCHAR questiondown
ENCODING 191
SWIDTH 500 0
DWIDTH 16 0
BBX 12 23 1 -7
BITMAP
00E0
01F0
01F0
01F0
00E0
0000
0000
0080
0080
0180
0100
0700
0E00
1E00
3C00
7800
7800
F0C0
F1E0
F1E0
F0C0
79C0
1F00
ENDCHAR
STARTCHAR Agrave
ENCODING 192
SWIDTH 667 0
DWIDTH 21 0
BBX 21 30 -1 0
BITMAP
007000
007800
007C00
001E00
000700
000300
000000
000200
000600
000700
000F00
001F00
001F00
003F00
002F00
006F80
004F80
00CF80
018F80
018780
030780
0207C0
07FFC0
0FFFC0
0C07C0
1807C0
1803C0
3003E0
7007E0
FC1FF8
ENDCHAR
STARTCHAR Aacute
ENCODING 193
SWIDTH 667 0
DWIDTH 21 0
BBX 21 30 -1 0
BITMAP
000070
0000F0
0001F0
0003C0
000700
000600
000000
000200
000600
000700
000F00
001F00
001F00
003F00
002F00
006F80
004F80
00CF80
018F80
018780
030780
0207C0
07FFC0
0FFFC0
0C07C0
1807C0
1803C0
3003E0
7007E0
FC1FF8
ENDCHAR
STARTCHAR Acircumflex
ENCODING 194
SWIDTH 667 0
DWIDTH 21 0
BBX 21 30 -1 0
BITMAP
000700
000F80
001F80
0039C0
0070C0
006060
000000
000200
000600
000700
000F00
001F00
001F00
003F00
002F00
006F80
004F80
00CF80
018F80
018780
030780
0207C0
07FFC0
0FFFC0
0C07C0
1807C0
1803C0
3003E0
7007E0
FC1FF8
ENDCHAR
STARTCHAR Atilde
ENCODING 195
SWIDTH 667 0
DWIDTH 21 0
BBX 21 28 -1 0
BITMAP
001F18
003FB8
0077F0
0063E0
000000
000200
000600
000700
000F00
001F00
001F00
003F00
002F00
006F80
004F80
00CF80
018F80
018780
030780
0207C0
07FFC0
0FFFC0
0C07C0
1807C0
1803C0
3003E0
7007E0
FC1FF8
ENDCHAR
STARTCHAR Adieresis
ENCODING 196
SWIDTH 667 0
DWIDTH 21 0
BBX 21 29 -1 0
BITMAP
003060
0078F0
0078F0
003060
000000
000000
000200
000600
000700
000F00
001F00
001F00
003F00
002F00
006F80
004F80
00CF80
018F80
018780
030780
0207C0
07FFC0
0FFFC0
0C07C0
1807C0
1803C0
3003E0
7007E0
FC1FF8
ENDCHAR
STARTCHAR Aring
ENCODING 197
SWIDTH 667 0
DWIDTH 21 0
BBX 21 30 -1 0
BITMAP
000700
000F80
001CC0
0018C0
0018C0
001DC0
000F80
000700
000600
000700
000F00
001F00
001F00
003F00
002F00
006F80
004F80
00CF80
018F80
018780
030780
0207C0
07FFC0
0FFFC0
0C07C0
1807C0
1803C0
3003E0
7007E0
FC1FF8
ENDCHAR
STARTCHAR AE
ENCODING 198
SWIDTH 944 0
DWIDTH 31 0
BBX 32 23 -1 0
BITMAP
0007FFFF
0001FE0F
0003FC07
00037C06
00067C06
000EF806
001CF804
0018F820
0038F820
0071F860
0061F0E0
00C1FFE0
01C1F1C0
03FFE0C0
0303E0C0
0703E080
0E03E000
1C07C004
1C07C00C
3807C01C
700FC038
700FC0F8
FC3FFFF8
ENDCHAR
STARTCHAR Ccedilla
ENCODING 199
SWIDTH 667 0
DWIDTH 21 0
BBX 21 30 1 -7
BITMAP
003FC8
00FFF8
03E078
07C030
0F8030
1F0030
3F0020
3E0020
7E0000
7C0000
7C0000
F80000
F80000
F80000
F80000
F80000
F80000
F80000
7C0040
7C0180
3F0700
0FFC00
03F000
018000
030000
07C000
00E000
086000
0C6000
07C000
ENDCHAR
STARTCHAR Egrave
ENCODING 200
SWIDTH 667 0
DWIDTH 22 0
BBX 22 30 -1 0
BITMAP
007000
007800
007C00
001E00
000700
000300
000000
07FFFC
01F83C
01F01C
01F018
01F018
03E018
03E010
03E080
03E080
07E180
07C780
07FF80
07C700
0F8300
0F8300
0F8200
0F8000
1F0010
1F0030
1F0070
3F00E0
3F03E0
FFFFE0
ENDCHAR
STARTCHAR Eacute
ENCODING 201
SWIDTH 667 0
DWIDTH 22 0
BBX 22 30 -1 0
BITMAP
000070
0000F0
0001F0
0003C0
000700
000600
000000
07FFFC
01F83C
01F01C
01F018
01F018
03E018
03E010
03E080
03E080
07E180
07C780
07FF80
07C700
0F8300
0F8300
0F8200
0F8000
1F0010
1F0030
1F0070
3F00E0
3F03E0
FFFFE0
ENDCHAR
STARTCHAR Ecircumflex
ENCODING 202
SWIDTH 667 0
DWIDTH 22 0
BBX 22 30 -1 0
BITMAP
000700
000F80
001F80
0039C0
0070E0
00E070
000000
07FFFC
01F83C
01F01C
01F018
01F018
03E018
03E010
03E080
03E080
07E180
07C780
07FF80
07C700
0F8300
0F8300
0F8200
0F8000
1F0010
1F0030
1F0070
3F00E0
3F03E0
FFFFE0
ENDCHAR
STARTCHAR Edieresis
ENCODING 203
SWIDTH 667 0
DWIDTH 22 0
BBX 22 29 -1 0
BITMAP
003060
0078F0
0078F0
003060
000000
000000
07FFFC
01F83C
01F01C
01F018
01F018
03E018
03E010
03E080
03E080
07E180
07C780
07FF80
07C700
0F8300
0F8300
0F8200
0F8000
1F0010
1F0030
1F0070
3F00E0
3F03E0
FFFFE0
ENDCHAR
STARTCHAR Igrave
ENCODING 204
SWIDTH 389 0
DWIDTH 13 0
BBX 15 30 -1 0
BITMAP
0380
03C0
03E0
00F0
0038
0018
0000
07FE
01F8
01F8
01F0
01F0
01F0
03E0
03E0
03E0
03E0
07C0
07C0
07C0
07C0
0F80
0F80
0F80
0F80
1F00
1F00
1F00
3F00
FFC0
ENDCHAR
STARTCHAR Iacute
ENCODING 205
SWIDTH 389 0
DWIDTH 13 0
BBX 15 30 -1 0
BITMAP
000E
001E
003E
0078
00E0
00C0
0000
07FE
01F8
01F8
01F0
01F0
01F0
03E0
03E0
03E0
03E0
07C0
07C0
07C0
07C0
0F80
0F80
0F80
0F80
1F00
1F00
1F00
3F00
FFC0
ENDCHAR
STARTCHAR Icircumflex
ENCODING 206
SWIDTH 389 0
DWIDTH 13 0
BBX 15 30 -1 0
BITMAP
0070
00F8
01F8
039C
070E
0606
0000
07FE
01F8
01F8
01F0
01F0
01F0
03E0
03E0
03E0
03E0
07C0
07C0
07C0
07C0
0F80
0F80
0F80
0F80
1F00
1F00
1F00
3F00
FFC0
ENDCHAR
STARTCHAR Idieresis
ENCODING 207
SWIDTH 389 0
DWIDTH 13 0
BBX 16 29 -1 0
BITMAP
0306
078F
078F
0306
0000
0000
07FE
01F8
01F8
01F0
01F0
01F0
03E0
03E0
03E0
03E0
07C0
07C0
07C0
07C0
0F80
0F80
0F80
0F80
1F00
1F00
1F00
3F00
FFC0
ENDCHAR
STARTCHAR Eth
ENCODING 208
SWIDTH 722 0
DWIDTH 23 0
BBX 24 23 -1 0
BITMAP
0FFFC0
03F8F0
01F078
01F03C
03E03E
03E01E
03E01E
03E01F
07E01F
07C01F
3FFC1F
3FFC1F
3FFC3F
0F803F
0F803E
0F803E
1F007C
1F00FC
1F00F8
1F01F0
3E03C0
7F0F80
FFFC00
ENDCHAR
STARTCHAR Ntilde
ENCODING 209
SWIDTH 722 0
DWIDTH 24 0
BBX 26 28 -1 0
BITMAP
000F8C00
001FDC00
003BF800
0031F000
00000000
07E01FC0
03F00F80
01F00700
01F80700
01F80600
037C0600
037C0600
033E0C00
023E0C00
063F0C00
061F0C00
061F1800
0C0F9800
0C0F9800
0C07D000
0C07F000
1803F000
1803F000
1803F000
3801E000
3801E000
7C00E000
FE00E000
ENDCHAR
STARTCHAR Ograve
ENCODING 210
SWIDTH 722 0
DWIDTH 23 0
BBX 22 30 1 0
BITMAP
007000
007800
007C00
001E00
000700
000300
000000
001F80
00FFE0
01E0F0
03C078
078078
0F007C
1F007C
3E007C
3E007C
3E007C
7C00FC
7C00F8
FC00F8
F801F0
F801F0
F801F0
F803E0
F803C0
780780
780F00
3C1E00
1FFC00
07E000
ENDCHAR
STARTCHAR Oacute
ENCODING 211
SWIDTH 722 0
DWIDTH 23 0
BBX 22 30 1 0
BITMAP
000070
0000F0
0001F0
0003C0
000700
000600
000000
001F80
00FFE0
01E0F0
03C078
078078
0F007C
1F007C
3E007C
3E007C
3E007C
7C00FC
7C00F8
FC00F8
F801F0
F801F0
F801F0
F803E0
F803C0
780780
780F00
3C1E00
1FFC00
07E000
ENDCHAR
STARTCHAR Ocircumflex
ENCODING 212
SWIDTH 722 0
DWIDTH 23 0
BBX 22 30 1 0
BITMAP
000700
000F80
001F80
0039C0
0070E0
00E070
000000
001F80
00FFE0
01E0F0
03C078
078078
0F007C
1F007C
3E007C
3E007C
3E007C
7C00FC
7C00F8
FC00F8
F801F0
F801F0
F801F0
F803E0
F803C0
780780
780F00
3C1E00
1FFC00
07E000
ENDCHAR
STARTCHAR Otilde
ENCODING 213
SWIDTH 722 0
DWIDTH 23 0
BBX 22 29 1 0
BITMAP
000F8C
001FDC
003BF8
0031F0
000000
000000
001F80
00FFE0
01E0F0
03C078
078078
0F007C
1F007C
3E007C
3E007C
3E007C
7C00FC
7C00F8
FC00F8
F801F0
F801F0
F801F0
F803E0
F803C0
780780
780F00
3C1E00
1FFC00
07E000
ENDCHAR
STARTCHAR Odieresis
ENCODING 214
SWIDTH 722 0
DWIDTH 23 0
BBX 22 29 1 0
BITMAP
003060
0078F0
0078F0
003060
000000
000000
001F80
00FFE0
01E0F0
03C078
078078
0F007C
1F007C
3E007C
3E007C
3E007C
7C00FC
7C00F8
FC00F8
F801F0
F801F0
F801F0
F803E0
F803C0
780780
780F00
3C1E00
1FFC00
07E000
ENDCHAR
STARTCHAR multiply
ENCODING 215
SWIDTH 570 0
DWIDTH 19 0
BBX 17 17 1 0
BITMAP
200200
700700
F80F80
7C1F00
3E3E00
1F7C00
0FF800
07F000
03E000
07F000
0FF800
1F7C00
3E3E00
7C1F00
F80F80
700700
200200
ENDCHAR
STARTCHAR Oslash
ENCODING 216
SWIDTH 722 0
DWIDTH 23 0
BBX 22 30 1 -4
BITMAP
000030
000020
000060
001FC0
00FFE0
01E1F0
03C178
078378
0F027C
1F067C
3E0C7C
3E0C7C
3E187C
7C10FC
7C30F8
FC60F8
F861F0
F8C1F0
F8C1F0
F983E0
F903C0
7B0780
7E0F00
3E1E00
1FFC00
0FE000
180000
100000
300000
200000
ENDCHAR
STARTCHAR Ugrave
ENCODING 217
SWIDTH 722 0
DWIDTH 24 0
BBX 23 30 3 0
BITMAP
007000
007800
007C00
001E00
000700
000300
000000
7FE07E
1F803C
1F8018
1F0018
1F0030
3F0030
3E0030
3E0060
3E0060
7E0060
7C00C0
7C00C0
7C00C0
F80180
F80180
F80180
F80300
F80300
F80600
7C0E00
7E1C00
3FF800
0FE000
ENDCHAR
STARTCHAR Uacute
ENCODING 218
SWIDTH 722 0
DWIDTH 24 0
BBX 23 30 3 0
BITMAP
0001C0
0003C0
0007C0
000F00
001C00
001800
000000
7FE07E
1F803C
1F8018
1F0018
1F0030
3F0030
3E0030
3E0060
3E0060
7E0060
7C00C0
7C00C0
7C00C0
F80180
F80180
F80180
F80300
F80300
F80600
7C0E00
7E1C00
3FF800
0FE000
ENDCHAR
STARTCHAR Ucircumflex
ENCODING 219
SWIDTH 722 0
DWIDTH 24 0
BBX 23 30 3 0
BITMAP
000E00
001F00
003F00
007380
00E1C0
01C0E0
000000
7FE07E
1F803C
1F8018
1F0018
1F0030
3F0030
3E0030
3E0060
3E0060
7E0060
7C00C0
7C00C0
7C00C0
F80180
F80180
F80180
F80300
F80300
F80600
7C0E00
7E1C00
3FF800
0FE000
ENDCHAR
STARTCHAR Udieresis
ENCODING 220
SWIDTH 722 0
DWIDTH 24 0
BBX 23 29 3 0
BITMAP
0060C0
00F1E0
00F1E0
0060C0
000000
000000
7FE07E
1F803C
1F8018
1F0018
1F0030
3F0030
3E0030
3E0060
3E0060
7E0060
7C00C0
7C00C0
7C00C0
F80180
F80180
F80180
F80300
F80300
F80600
7C0E00
7E1C00
3FF800
0FE000
ENDCHAR
STARTCHAR Yacute
ENCODING 221
SWIDTH 611 0
DWIDTH 20 0
BBX 19 30 2 0
BITMAP
000380
000780
000F80
001E00
003800
003000
000000
FF8FE0
7E03C0
3E0380
3E0300
1E0600
1F0600
1F0C00
0F1800
0F9800
0FB000
0FE000
07C000
07C000
07C000
0F8000
0F8000
0F8000
0F8000
1F0000
1F0000
1F0000
3F0000
FFC000
ENDCHAR
STARTCHAR Thorn
ENCODING 222
SWIDTH 611 0
DWIDTH 20 0
BBX 20 23 -1 0
BITMAP
07FE00
01F800
01F000
01F000
03F000
03FF80
03E3E0
03E1E0
07E1F0
07C1F0
07C1F0
07C1F0
0FC1E0
0F83E0
0F87C0
0F8FC0
1FFF00
1F0000
1F0000
1F0000
3E0000
7F0000
FFC000
ENDCHAR
STARTCHAR germandbls
ENCODING 223
SWIDTH 500 0
DWIDTH 16 0
BBX 23 30 -6 -7
BITMAP
0003F0
00073C
000E1E
000E1E
001E1E
001C1E
003C3C
003C38
003C70
003D80
003DC0
0078E0
007870
007878
007838
00F038
00F038
00F038
00F078
01E070
01E0F0
01E1E0
03EFC0
03C000
03C000
038000
678000
E70000
EE0000
7C0000
ENDCHAR
STARTCHAR agrave
ENCODING 224
SWIDTH 500 0
DWIDTH 16 0
BBX 14 24 0 0
BITMAP
0E00
0F00
0F80
03C0
00E0
0060
0000
0000
0000
039C
0FDC
1E7C
3C3C
7838
7878
F878
F078
F0F0
F0F0
F0F4
F1EC
7F78
7E70
1C60
ENDCHAR
STARTCHAR aacute
ENCODING 225
SWIDTH 500 0
DWIDTH 16 0
BBX 15 24 0 0
BITMAP
000E
001E
003E
0078
00E0
00C0
0000
0000
0000
039C
0FDC
1E7C
3C3C
7838
7878
F878
F078
F0F0
F0F0
F0F4
F1EC
7F78
7E70
1C60
ENDCHAR
STARTCHAR acircumflex
ENCODING 226
SWIDTH 500 0
DWIDTH 16 0
BBX 14 24 0 0
BITMAP
00E0
01F0
03F0
0738
0E18
0C0C
0000
0000
0000
039C
0FDC
1E7C
3C3C
7838
7878
F878
F078
F0F0
F0F0
F0F4
F1EC
7F78
7E70
1C60
ENDCHAR
STARTCHAR atilde
ENCODING 227
SWIDTH 500 0
DWIDTH 16 0
BBX 15 21 0 0
BITMAP
0786
0FCE
1CFC
1878
0000
0000
039C
0FDC
1E7C
3C3C
7838
7878
F878
F078
F0F0
F0F0
F0F4
F1EC
7F78
7E70
1C60
ENDCHAR
STARTCHAR adieresis
ENCODING 228
SWIDTH 500 0
DWIDTH 16 0
BBX 15 21 0 0
BITMAP
060C
0F1E
0F1E
060C
0000
0000
039C
0FDC
1E7C
3C3C
7838
7878
F878
F078
F0F0
F0F0
F0F4
F1EC
7F78
7E70
1C60
ENDCHAR
STARTCHAR aring
ENCODING 229
SWIDTH 500 0
DWIDTH 16 0
BBX 14 23 0 0
BITMAP
00E0
01F0
0398
0318
0318
03B8
01F0
00E0
039C
0FDC
1E7C
3C3C
7838
7878
F878
F078
F0F0
F0F0
F0F4
F1EC
7F78
7E70
1C60
ENDCHAR
STARTCHAR ae
ENCODING 230
SWIDTH 722 0
DWIDTH 23 0
BBX 22 15 1 0
BITMAP
01EEF8
077F8C
0E3F1C
1C3E1C
3C3E3C
7C3C38
783CF0
F87FC0
F87E00
F07800
F0F810
F1F830
73BC60
7E3FC0
1C1F80
ENDCHAR
STARTCHAR ccedilla
ENCODING 231
SWIDTH 444 0
DWIDTH 14 0
BBX 13 22 1 -7
BITMAP
01F0
07F8
0E78
1C78
3C30
7800
7800
F000
F000
F000
F020
F060
78C0
7F80
1E00
0800
1800
3E00
0700
4300
6300
3E00
ENDCHAR
STARTCHAR egrave
ENCODING 232
SWIDTH 444 0
DWIDTH 14 0
BBX 12 23 1 0
BITMAP
0E00
0F00
0F80
03C0
00E0
0060
0000
0000
03E0
0FF0
1E70
3C70
38F0
78E0
71C0
F780
FC00
F000
F020
F060
78C0
7F80
1E00
ENDCHAR
STARTCHAR eacute
ENCODING 233
SWIDTH 444 0
DWIDTH 14 0
BBX 13 23 1 0
BITMAP
0038
0078
00F8
01E0
0380
0300
0000
0000
03E0
0FF0
1E70
3C70
38F0
78E0
71C0
F780
FC00
F000
F020
F060
78C0
7F80
1E00
ENDCHAR
STARTCHAR ecircumflex
ENCODING 234
SWIDTH 444 0
DWIDTH 14 0
BBX 14 23 1 0
BITMAP
00E0
01F0
03F0
0738
0E18
0C0C
0000
0000
03E0
0FF0
1E70
3C70
38F0
78E0
71C0
F780
FC00
F000
F020
F060
78C0
7F80
1E00
ENDCHAR
STARTCHAR edieresis
ENCODING 235
SWIDTH 444 0
DWIDTH 14 0
BBX 15 21 1 0
BITMAP
060C
0F1E
0F1E
060C
0000
0000
03E0
0FF0
1E70
3C70
38F0
78E0
71C0
F780
FC00
F000
F020
F060
78C0
7F80
1E00
ENDCHAR
STARTCHAR igrave
ENCODING 236
SWIDTH 278 0
DWIDTH 9 0
BBX 8 22 1 0
BITMAP
70
78
7C
1E
07
03
00
1E
FE
3C
3C
3C
78
78
78
78
F0
F2
F6
FC
F8
70
ENDCHAR
STARTCHAR iacute
ENCODING 237
SWIDTH 278 0
DWIDTH 9 0
BBX 10 22 1 0
BITMAP
01C0
03C0
07C0
0F00
1C00
1800
0000
1E00
FE00
3C00
3C00
3C00
7800
7800
7800
7800
F000
F200
F600
FC00
F800
7000
ENDCHAR
STARTCHAR icircumflex
ENCODING 238
SWIDTH 278 0
DWIDTH 9 0
BBX 11 23 1 0
BITMAP
0700
0F80
1F80
39C0
70C0
6060
0000
0000
1E00
FE00
3C00
3C00
3C00
7800
7800
7800
7800
F000
F200
F600
FC00
F800
7000
ENDCHAR
STARTCHAR idieresis
ENCODING 239
SWIDTH 278 0
DWIDTH 9 0
BBX 10 21 1 0
BITMAP
6180
F3C0
F3C0
6180
0000
0000
1E00
FE00
3C00
3C00
3C00
7800
7800
7800
7800
F000
F200
F600
FC00
F800
7000
ENDCHAR
STARTCHAR eth
ENCODING 240
SWIDTH 500 0
DWIDTH 16 0
BBX 16 22 1 0
BITMAP
0206
070F
07BF
03F8
1FE0
1E70
0C78
01FC
07FC
0F1E
1C1E
3C1E
7C1E
783E
783E
F83C
F07C
F078
F070
70F0
79C0
1F00
ENDCHAR
STARTCHAR ntilde
ENCODING 241
SWIDTH 556 0
DWIDTH 18 0
BBX 16 21 1 0
BITMAP
03C3
07E7
0E7E
0C3C
0000
0000
1E3C
FE7E
1CFE
3D9E
3E1E
3C3C
3C3C
3C3C
7878
7878
7878
F0F2
F0F6
F0FC
F078
ENDCHAR
STARTCHAR ograve
ENCODING 242
SWIDTH 500 0
DWIDTH 16 0
BBX 15 23 1 0
BITMAP
0700
0780
07C0
01E0
0070
0030
0000
0000
01F0
073C
1E1C
1C1E
3C1E
7C1E
783E
F83E
F83C
F07C
F078
F070
70F0
79E0
1F80
ENDCHAR
STARTCHAR oacute
ENCODING 243
SWIDTH 500 0
DWIDTH 16 0
BBX 16 23 1 0
BITMAP
0007
000F
001F
003C
0070
0060
0000
0000
01F0
073C
1E1C
1C1E
3C1E
7C1E
783E
F83E
F83C
F07C
F078
F070
70F0
79E0
1F80
ENDCHAR
STARTCHAR ocircumflex
ENCODING 244
SWIDTH 500 0
DWIDTH 16 0
BBX 16 23 1 0
BITMAP
0038
007C
00FC
01CE
0386
0303
0000
0000
01F0
073C
1E1C
1C1E
3C1E
7C1E
783E
F83E
F83C
F07C
F078
F070
70F0
79E0
1F80
ENDCHAR
STARTCHAR otilde
ENCODING 245
SWIDTH 500 0
DWIDTH 16 0
BBX 17 21 1 0
BITMAP
01E180
03F380
073F00
061E00
000000
000000
01F000
073C00
1E1C00
1C1E00
3C1E00
7C1E00
783E00
F83E00
F83C00
F07C00
F07800
F07000
70F000
79E000
1F8000
ENDCHAR
STARTCHAR odieresis
ENCODING 246
SWIDTH 500 0
DWIDTH 16 0
BBX 16 21 1 0
BITMAP
0306
078F
078F
0306
0000
0000
01F0
073C
1E1C
1C1E
3C1E
7C1E
783E
F83E
F83C
F07C
F078
F070
70F0
79E0
1F80
ENDCHAR
STARTCHAR divide
ENCODING 247
SWIDTH 570 0
DWIDTH 19 0
BBX 17 17 1 0
BITMAP
01C000
03E000
03E000
03E000
01C000
000000
000000
FFFF80
FFFF80
FFFF80
000000
000000
01C000
03E000
03E000
03E000
01C000
ENDCHAR
STARTCHAR oslash
ENCODING 248
SWIDTH 500 0
DWIDTH 17 0
BBX 15 22 1 -4
BITMAP
000C
000C
0018
01F0
073C
0E3C
1C7E
3CDE
7C9E
79BE
F93E
FB3C
F67C
F478
FC70
78E0
79C0
3F00
2000
6000
4000
4000
ENDCHAR
STARTCHAR ugrave
ENCODING 249
SWIDTH 556 0
DWIDTH 18 0
BBX 15 23 1 0
BITMAP
0E00
0F00
0F80
03C0
00E0
0060
0000
0000
1E1E
FE1E
3C1E
3C3C
3C3C
3C3C
787C
7878
78F8
70F8
F1F0
F3F2
F6F6
FCFC
7878
ENDCHAR
STARTCHAR uacute
ENCODING 250
SWIDTH 556 0
DWIDTH 18 0
BBX 15 23 1 0
BITMAP
000E
001E
003E
0078
00E0
00C0
0000
0000
1E1E
FE1E
3C1E
3C3C
3C3C
3C3C
787C
7878
78F8
70F8
F1F0
F3F2
F6F6
FCFC
7878
ENDCHAR
STARTCHAR ucircumflex
ENCODING 251
SWIDTH 556 0
DWIDTH 18 0
BBX 15 23 1 0
BITMAP
00E0
01F0
03F0
0738
0E18
0C0C
0000
0000
1E1E
FE1E
3C1E
3C3C
3C3C
3C3C
787C
7878
78F8
70F8
F1F0
F3F2
F6F6
FCFC
7878
ENDCHAR
STARTCHAR udieresis
ENCODING 252
SWIDTH 556 0
DWIDTH 18 0
BBX 15 21 1 0
BITMAP
060C
0F1E
0F1E
060C
0000
0000
1E1E
FE1E
3C1E
3C3C
3C3C
3C3C
787C
7878
78F8
70F8
F1F0
F3F2
F6F6
FCFC
7878
ENDCHAR
STARTCHAR yacute
ENCODING 253
SWIDTH 444 0
DWIDTH 15 0
BBX 17 30 -2 -7
BITMAP
000380
000780
000F80
001E00
003800
003000
000000
000000
038600
1F8F00
078F00
078700
03C300
03C200
03C600
03C400
03CC00
01E800
01F800
01F000
01F000
01E000
01E000
01C000
018000
018000
630000
FE0000
FC0000
700000
ENDCHAR
STARTCHAR thorn
ENCODING 254
SWIDTH 500 0
DWIDTH 17 0
BBX 18 30 -2 -7
BITMAP
007800
03F800
00F000
00F000
00F000
01E000
01E000
01E000
01EF80
03DF80
03F7C0
03E3C0
03C3C0
0783C0
0783C0
070780
070780
0F0780
0F0F00
0E1E00
0E1E00
1E7C00
1FF000
1E0000
3E0000
3C0000
3C0000
3C0000
7C0000
FF0000
ENDCHAR
STARTCHAR ydieresis
ENCODING 255
SWIDTH 444 0
DWIDTH 15 0
BBX 16 28 -2 -7
BITMAP
0306
078F
078F
0306
0000
0000
0386
1F8F
078F
0787
03C3
03C2
03C6
03C4
03CC
01E8
01F8
01F0
01F0
01E0
01E0
01C0
0180
0180
6300
FE00
FC00
7000
ENDCHAR
STARTCHAR Lslash
ENCODING -1
SWIDTH 611 0
DWIDTH 20 0
BBX 20 23 -1 0
BITMAP
07FE00
01F800
01F000
01F000
01F000
03E000
03E000
03E600
03EE00
07FC00
07F800
0FE000
3FC000
7F8000
6F8000
0F8000
0F8000
1F0010
1F0030
1F0070
3F00E0
3F03E0
FFFFE0
ENDCHAR
STARTCHAR OE
ENCODING -1
SWIDTH 944 0
DWIDTH 31 0
BBX 31 23 0 0
BITMAP
003FFFFE
00F1FC1E
01E0F80E
03C0F80C
0780F80C
0F01F00C
1F01F008
3E01F040
3E01F040
7E03F0C0
7C03E3C0
7C03FFC0
FC03E380
FC07C180
F807C180
F807C100
F807C000
F80F8008
780F8018
780F8038
3C1F8070
1E1F81F0
07FFFFF0
ENDCHAR
STARTCHAR Scaron
ENCODING -1
SWIDTH 556 0
DWIDTH 18 0
BBX 17 27 1 0
BITMAP
181800
0C3800
0E7000
07E000
07C000
038000
000000
000000
03F880
0FFD80
1F0F80
1E0700
3C0300
3E0300
3E0200
1FC000
0FF000
03F800
007C00
003E00
801E00
C01E00
C01E00
E03C00
F07C00
FFF800
DFE000
ENDCHAR
STARTCHAR Ydieresis
ENCODING -1
SWIDTH 611 0
DWIDTH 20 0
BBX 19 25 2 0
BITMAP
060C00
0F1E00
0F1E00
060C00
000000
000000
FF8FE0
7E03C0
3E0380
3E0300
1E0600
1F0C00
0F9800
07B000
07E000
07C000
0F8000
0F8000
0F8000
0F8000
1F0000
1F0000
1F0000
3F0000
FFC000
ENDCHAR
STARTCHAR Zcaron
ENCODING -1
SWIDTH 611 0
DWIDTH 20 0
BBX 20 27 -1 0
BITMAP
060600
030E00
039C00
01F800
01F000
00E000
000000
000000
0FFFF0
0F83E0
0E07E0
1C07C0
180F80
101F00
003E00
007C00
00F800
01F000
01E000
03C000
07C000
0F8040
1F00C0
3E01C0
7C0380
F80F80
FFFF80
ENDCHAR
STARTCHAR breve
ENCODING -1
SWIDTH 333 0
DWIDTH 11 0
BBX 10 5 1 18
BITMAP
C0C0
C0C0
E1C0
7F80
1E00
ENDCHAR
STARTCHAR bullet
ENCODING -1
SWIDTH 350 0
DWIDTH 12 0
BBX 8 8 2 6
BITMAP
3C
7E
FF
FF
FF
FF
7E
3C
ENDCHAR
STARTCHAR caron
ENCODING -1
SWIDTH 333 0
DWIDTH 11 0
BBX 10 6 1 17
BITMAP
C0C0
61C0
7380
3F00
3E00
1C00
ENDCHAR
STARTCHAR circumflex
ENCODING -1
SWIDTH 333 0
DWIDTH 11 0
BBX 10 6 3 17
BITMAP
0E00
1F00
3F00
7380
E180
C0C0
ENDCHAR
STARTCHAR dagger
ENCODING -1
SWIDTH 500 0
DWIDTH 16 0
BBX 13 28 3 -5
BITMAP
0180
03C0
07C0
0780
0780
0700
0300
7278
FFF8
F270
0600
0600
0600
0F00
1F00
1E00
1E00
1C00
1C00
1800
1800
1800
1000
3000
3000
3000
2000
2000
ENDCHAR
STARTCHAR daggerdbl
ENCODING -1
SWIDTH 500 0
DWIDTH 16 0
BBX 16 28 0 -5
BITMAP
0018
0038
0078
0078
0070
0060
0060
0E4F
1FFF
1E4E
0040
00C0
01C0
03C0
03C0
0380
0300
0200
7278
FFF8
F270
0600
0600
0E00
1E00
1E00
1C00
1800
ENDCHAR
STARTCHAR dotaccent
ENCODING -1
SWIDTH 333 0
DWIDTH 11 0
BBX 4 4 3 17
BITMAP
60
F0
F0
60
ENDCHAR
STARTCHAR dotlessi
ENCODING -1
SWIDTH 278 0
DWIDTH 9 0
BBX 7 15 1 0
BITMAP
1E
FE
3C
3C
3C
78
78
78
78
F0
F2
F6
FC
F8
70
ENDCHAR
STARTCHAR ellipsis
ENCODING -1
SWIDTH 1000 0
DWIDTH 33 0
BBX 27 5 3 0
BITMAP
700E01C0
F81F03E0
F81F03E0
F81F03E0
700E01C0
ENDCHAR
STARTCHAR emdash
ENCODING -1
SWIDTH 1000 0
DWIDTH 32 0
BBX 32 3 0 6
BITMAP
FFFFFFFF
FFFFFFFF
FFFFFFFF
ENDCHAR
STARTCHAR endash
ENCODING -1
SWIDTH 500 0
DWIDTH 16 0
BBX 16 3 0 6
BITMAP
FFFF
FFFF
FFFF
ENDCHAR
STARTCHAR fi
ENCODING -1
SWIDTH 556 0
DWIDTH 18 0
BBX 23 30 -4 -7
BITMAP
0000F8
0003FE
00079E
000F1E
001E0C
001C00
003C00
003C00
007800
01FFFC
01FFF8
007878
007878
00F0F0
00F0F0
00F0F0
00F0F0
01E1E0
01E1E4
01E1EC
03C1F8
03C1F0
03C0E0
038000
078000
070000
670000
E70000
EE0000
7C0000
ENDCHAR
STARTCHAR fl
ENCODING -1
SWIDTH 556 0
DWIDTH 18 0
BBX 24 30 -5 -7
BITMAP
0003F7
00077F
000E7F
001E3F
001C1E
003C1E
003C1E
00383C
00783C
01FE3C
00783C
007878
00F078
00F078
00F0F8
00F0F0
01E0F0
01E0F0
01E1E4
01E1EC
03C1F8
03C1F0
03C0E0
038000
078000
070000
670000
E70000
EE0000
7C0000
ENDCHAR
STARTCHAR florin
ENCODING -1
SWIDTH 500 0
DWIDTH 17 0
BBX 20 28 -3 -5
BITMAP
0001E0
000730
000E70
000E70
001E70
003C00
003C00
003C00
003C00
03FF80
007C00
007800
007800
00F800
00F800
00F800
00F000
00F000
01F000
01F000
01E000
01E000
01E000
63C000
F3C000
F78000
670000
3C0000
ENDCHAR
STARTCHAR fraction
ENCODING -1
SWIDTH 167 0
DWIDTH 6 0
BBX 15 23 -5 0
BITMAP
0006
0006
000C
000C
0018
0038
0030
0060
0060
00C0
0180
0180
0300
0700
0600
0C00
0C00
1800
3800
3000
6000
6000
C000
ENDCHAR
STARTCHAR grave
ENCODING -1
SWIDTH 333 0
DWIDTH 11 0
BBX 7 6 2 17
BITMAP
E0
F0
F8
3C
0E
06
ENDCHAR
STARTCHAR guilsinglleft
ENCODING -1
SWIDTH 333 0
DWIDTH 11 0
BBX 9 13 1 1
BITMAP
0180
0380
0700
0E00
1C00
3800
7000
E000
7000
3800
1C00
0E00
0600
ENDCHAR
STARTCHAR guilsinglright
ENCODING -1
SWIDTH 333 0
DWIDTH 11 0
BBX 9 13 1 1
BITMAP
3000
3800
1C00
0E00
0700
0380
0700
0E00
1C00
3800
7000
E000
C000
ENDCHAR
STARTCHAR hungarumlaut
ENCODING -1
SWIDTH 333 0
DWIDTH 11 0
BBX 11 7 0 18
BITMAP
38E0
38E0
71C0
71C0
6180
E380
C300
ENDCHAR
STARTCHAR lslash
ENCODING -1
SWIDTH 278 0
DWIDTH 9 0
BBX 11 23 0 0
BITMAP
01C0
0FC0
07C0
07C0
0780
0780
0780
0F00
0F60
1FC0
1F80
7F00
FE00
1E00
3E00
3C00
3C00
3C00
7900
7B00
7E00
7C00
3800
ENDCHAR
STARTCHAR oe
ENCODING -1
SWIDTH 722 0
DWIDTH 24 0
BBX 22 15 1 0
BITMAP
03F0F8
073B9C
0E1F1C
1C1E1C
3C1E38
783E38
783CF0
783FC0
F03E00
F07800
F03810
F07830
707C60
79FFC0
1F0F80
ENDCHAR
STARTCHAR ogonek
ENCODING -1
SWIDTH 333 0
DWIDTH 11 0
BBX 6 7 3 -5
BITMAP
30
60
C0
C0
CC
FC
78
ENDCHAR
STARTCHAR perthousand
ENCODING -1
SWIDTH 1000 0
DWIDTH 33 0
BBX 32 24 0 -1
BITMAP
00004000
0F00C000
3F838000
787F8000
70430000
F0430000
E0460000
E0CC0000
E08C0000
E1980000
73100000
3E300000
0061E03C
0047F0FE
00CF09E1
018E09C1
019E0BC1
031C0B81
061C1B83
061C1382
0C1C3386
080E61CC
1807C0F8
10000000
ENDCHAR
STARTCHAR quotedblbase
ENCODING -1
SWIDTH 500 0
DWIDTH 17 0
BBX 14 10 -1 -6
BITMAP
3838
7C7C
7C7C
7C7C
3C3C
1818
1818
3030
6060
C0C0
ENDCHAR
STARTCHAR quotedblleft
ENCODING -1
SWIDTH 500 0
DWIDTH 17 0
BBX 14 10 2 13
BITMAP
0C0C
1818
3030
6060
6060
F0F0
F8F8
F8F8
F8F8
7070
ENDCHAR
STARTCHAR quotedblright
ENCODING -1
SWIDTH 500 0
DWIDTH 17 0
BBX 14 10 3 13
BITMAP
3838
7C7C
7C7C
7C7C
3C3C
1818
1818
3030
6060
C0C0
ENDCHAR
STARTCHAR quotesinglbase
ENCODING -1
SWIDTH 333 0
DWIDTH 11 0
BBX 6 10 3 -6
BITMAP
38
7C
7C
7C
3C
18
18
30
60
C0
ENDCHAR
STARTCHAR quotesingle
ENCODING -1
SWIDTH 278 0
DWIDTH 9 0
BBX 5 11 4 12
BITMAP
70
F8
F8
F8
F8
F0
F0
E0
C0
C0
80
ENDCHAR
STARTCHAR ring
ENCODING -1
SWIDTH 333 0
DWIDTH 11 0
BBX 7 8 2 15
BITMAP
38
7C
E6
C6
C6
EE
7C
38
ENDCHAR
STARTCHAR scaron
ENCODING -1
SWIDTH 389 0
DWIDTH 13 0
BBX 11 23 1 0
BITMAP
C0C0
61C0
7380
3F00
3E00
1C00
0000
0000
0FA0
19E0
3860
3860
3C20
3C00
1E00
1F00
0F00
0780
8780
C380
C380
F700
BE00
ENDCHAR
STARTCHAR tilde
ENCODING -1
SWIDTH 333 0
DWIDTH 11 0
BBX 12 4 0 18
BITMAP
3C30
7E70
E7E0
C3C0
ENDCHAR
STARTCHAR trademark
ENCODING -1
SWIDTH 1000 0
DWIDTH 33 0
BBX 32 14 1 9
BITMAP
FFFBF03F
C718F03C
C708F87C
8708B87C
0700B85C
0700BCDC
07009C9C
07009E9C
07008F9C
07008F1C
07008F1C
0700871C
0700861C
1FC3E27F
ENDCHAR
STARTCHAR zcaron
ENCODING -1
SWIDTH 389 0
DWIDTH 13 0
BBX 14 25 -1 -2
BITMAP
3030
1870
1CE0
0FC0
0F80
0700
0000
0000
1FFC
1FFC
3FF8
2038
0070
00E0
01C0
0380
0700
0E00
1C00
3800
7E10
FF38
EFB8
83F0
01E0
ENDCHAR
ENDFONT
