STARTFONT 2.1
FONT -Adobe-Times-Bold-I-Normal--11-80-100-100-P-57-ISO8859-1
SIZE 8 100 100
FONTBOUNDINGBOX 16 13 -2 -3
COMMENT $XConsortium: timBI08.bdf,v 1.7 95/01/26 17:58:27 gildea Exp $
COMMENT 
COMMENT +
COMMENT  Copyright 1984-1989, 1994 Adobe Systems Incorporated.
COMMENT  Copyright 1988, 1994 Digital Equipment Corporation.
COMMENT
COMMENT  Adobe is a trademark of Adobe Systems Incorporated which may be
COMMENT  registered in certain jurisdictions.
COMMENT  Permission to use these trademarks is hereby granted only in
COMMENT  association with the images described in this file.
COMMENT
COMMENT  Permission to use, copy, modify, distribute and sell this software
COMMENT  and its documentation for any purpose and without fee is hereby
COMMENT  granted, provided that the above copyright notices appear in all
COMMENT  copies and that both those copyright notices and this permission
COMMENT  notice appear in supporting documentation, and that the names of
COMMENT  Adobe Systems and Digital Equipment Corporation not be used in
COMMENT  advertising or publicity pertaining to distribution of the software
COMMENT  without specific, written prior permission.  Adobe Systems and
COMMENT  Digital Equipment Corporation make no representations about the
COMMENT  suitability of this software for any purpose.  It is provided "as
COMMENT  is" without express or implied warranty.
COMMENT -
STARTPROPERTIES 28
FOUNDRY "Adobe"
FAMILY_NAME "Times"
WEIGHT_NAME "Bold"
SLANT "I"
SETWIDTH_NAME "Normal"
ADD_STYLE_NAME ""
PIXEL_SIZE 11
POINT_SIZE 80
RESOLUTION_X 100
RESOLUTION_Y 100
SPACING "P"
AVERAGE_WIDTH 57
CHARSET_REGISTRY "ISO8859"
CHARSET_ENCODING "1"
CAP_HEIGHT 7
X_HEIGHT 5
FONT_ASCENT 8
FONT_DESCENT 3
FACE_NAME "Times Bold Italic"
COPYRIGHT "Copyright (c) 1984, 1987 Adobe Systems Incorporated. All Rights Reserved. Copyright (c) 1988, 1991 Digital Equipment Corporation. All Rights Reserved."
NOTICE "Times is a trademark of Linotype-Hell AG and/or its subsidiaries."
_DEC_DEVICE_FONTNAMES "PS=Times-BoldItalic"
_DEC_PRODUCTINFO "DECwindows Fonts V2.2, 07-Nov-1991"
DEFAULT_CHAR 32
RELATIVE_SETWIDTH 50
RELATIVE_WEIGHT 70
CHARSET_COLLECTIONS "ASCII ISO8859-1 ADOBE-STANDARD"
FULL_NAME "Times Bold Italic"
ENDPROPERTIES
CHARS 229
STARTCHAR space
ENCODING 32
SWIDTH 250 0
DWIDTH 2 0
BBX 1 1 0 0
BITMAP
00
ENDCHAR
STARTCHAR exclam
ENCODING 33
SWIDTH 389 0
DWIDTH 6 0
BBX 4 7 1 0
BITMAP
30
30
60
40
00
C0
C0
ENDCHAR
STARTCHAR quotedbl
ENCODING 34
SWIDTH 555 0
DWIDTH 6 0
BBX 3 3 2 4
BITMAP
A0
A0
A0
ENDCHAR
STARTCHAR numbersign
ENCODING 35
SWIDTH 500 0
DWIDTH 8 0
BBX 7 7 1 0
BITMAP
14
14
7E
28
FC
50
50
ENDCHAR
STARTCHAR dollar
ENCODING 36
SWIDTH 500 0
DWIDTH 5 0
BBX 4 8 1 -1
BITMAP
20
70
D0
60
B0
E0
40
40
ENDCHAR
STARTCHAR percent
ENCODING 37
SWIDTH 833 0
DWIDTH 11 0
BBX 10 7 1 0
BITMAP
6600
DE00
D400
6D80
1B40
3340
3180
ENDCHAR
STARTCHAR ampersand
ENCODING 38
SWIDTH 778 0
DWIDTH 8 0
BBX 8 7 0 0
BITMAP
1C
34
38
77
DA
CC
76
ENDCHAR
STARTCHAR quoteright
ENCODING 39
SWIDTH 333 0
DWIDTH 4 0
BBX 2 3 2 4
BITMAP
C0
40
80
ENDCHAR
STARTCHAR parenleft
ENCODING 40
SWIDTH 333 0
DWIDTH 6 0
BBX 5 9 1 -2
BITMAP
08
30
60
C0
C0
C0
C0
60
20
ENDCHAR
STARTCHAR parenright
ENCODING 41
SWIDTH 333 0
DWIDTH 6 0
BBX 5 9 0 -2
BITMAP
20
30
18
18
18
18
30
60
80
ENDCHAR
STARTCHAR asterisk
ENCODING 42
SWIDTH 500 0
DWIDTH 7 0
BBX 5 5 1 3
BITMAP
20
A8
70
A8
20
ENDCHAR
STARTCHAR plus
ENCODING 43
SWIDTH 570 0
DWIDTH 7 0
BBX 5 5 1 0
BITMAP
20
20
F8
20
20
ENDCHAR
STARTCHAR comma
ENCODING 44
SWIDTH 250 0
DWIDTH 4 0
BBX 3 3 0 -1
BITMAP
60
60
C0
ENDCHAR
STARTCHAR minus
ENCODING 45
SWIDTH 606 0
DWIDTH 7 0
BBX 5 1 1 2
BITMAP
F8
ENDCHAR
STARTCHAR period
ENCODING 46
SWIDTH 250 0
DWIDTH 4 0
BBX 2 2 1 0
BITMAP
C0
C0
ENDCHAR
STARTCHAR slash
ENCODING 47
SWIDTH 278 0
DWIDTH 5 0
BBX 5 7 0 0
BITMAP
18
10
30
20
60
40
C0
ENDCHAR
STARTCHAR zero
ENCODING 48
SWIDTH 500 0
DWIDTH 5 0
BBX 5 7 0 0
BITMAP
30
68
C8
D8
98
B0
60
ENDCHAR
STARTCHAR one
ENCODING 49
SWIDTH 500 0
DWIDTH 5 0
BBX 5 7 0 0
BITMAP
38
18
30
30
60
60
F0
ENDCHAR
STARTCHAR two
ENCODING 50
SWIDTH 500 0
DWIDTH 5 0
BBX 5 7 0 0
BITMAP
38
58
18
30
60
F8
F0
ENDCHAR
STARTCHAR three
ENCODING 51
SWIDTH 500 0
DWIDTH 5 0
BBX 5 7 0 0
BITMAP
38
68
18
30
18
B8
F0
ENDCHAR
STARTCHAR four
ENCODING 52
SWIDTH 500 0
DWIDTH 5 0
BBX 5 7 0 0
BITMAP
18
38
58
B0
F8
30
30
ENDCHAR
STARTCHAR five
ENCODING 53
SWIDTH 500 0
DWIDTH 5 0
BBX 5 7 0 0
BITMAP
38
38
60
70
30
B0
E0
ENDCHAR
STARTCHAR six
ENCODING 54
SWIDTH 500 0
DWIDTH 5 0
BBX 5 7 0 0
BITMAP
18
70
60
F0
D0
D0
60
ENDCHAR
STARTCHAR seven
ENCODING 55
SWIDTH 500 0
DWIDTH 5 0
BBX 5 7 0 0
BITMAP
78
78
18
30
60
C0
C0
ENDCHAR
STARTCHAR eight
ENCODING 56
SWIDTH 500 0
DWIDTH 5 0
BBX 5 7 0 0
BITMAP
30
68
78
70
D8
D8
70
ENDCHAR
STARTCHAR nine
ENCODING 57
SWIDTH 500 0
DWIDTH 5 0
BBX 5 7 0 0
BITMAP
30
58
58
78
30
70
C0
ENDCHAR
STARTCHAR colon
ENCODING 58
SWIDTH 333 0
DWIDTH 5 0
BBX 3 5 1 0
BITMAP
60
60
00
C0
C0
ENDCHAR
STARTCHAR semicolon
ENCODING 59
SWIDTH 333 0
DWIDTH 5 0
BBX 4 6 0 -1
BITMAP
30
30
00
60
60
C0
ENDCHAR
STARTCHAR less
ENCODING 60
SWIDTH 570 0
DWIDTH 6 0
BBX 4 5 1 0
BITMAP
30
60
C0
60
30
ENDCHAR
STARTCHAR equal
ENCODING 61
SWIDTH 570 0
DWIDTH 7 0
BBX 5 3 1 1
BITMAP
F8
00
F8
ENDCHAR
STARTCHAR greater
ENCODING 62
SWIDTH 570 0
DWIDTH 6 0
BBX 4 5 1 0
BITMAP
C0
60
30
60
C0
ENDCHAR
STARTCHAR question
ENCODING 63
SWIDTH 500 0
DWIDTH 5 0
BBX 4 7 1 0
BITMAP
F0
B0
60
40
00
C0
C0
ENDCHAR
STARTCHAR at
ENCODING 64
SWIDTH 832 0
DWIDTH 11 0
BBX 9 9 1 -2
BITMAP
1E00
7300
4D80
DE80
B680
B580
DF00
6000
3E00
ENDCHAR
STARTCHAR A
ENCODING 65
SWIDTH 667 0
DWIDTH 6 0
BBX 7 7 -1 0
BITMAP
0C
1C
14
2C
7C
4C
DE
ENDCHAR
STARTCHAR B
ENCODING 66
SWIDTH 667 0
DWIDTH 7 0
BBX 8 7 -1 0
BITMAP
3E
1B
33
3C
66
66
FC
ENDCHAR
STARTCHAR C
ENCODING 67
SWIDTH 667 0
DWIDTH 7 0
BBX 7 7 0 0
BITMAP
3E
66
C0
C0
C0
EC
78
ENDCHAR
STARTCHAR D
ENCODING 68
SWIDTH 722 0
DWIDTH 7 0
BBX 8 7 -1 0
BITMAP
3E
1B
33
33
67
6E
F8
ENDCHAR
STARTCHAR E
ENCODING 69
SWIDTH 667 0
DWIDTH 7 0
BBX 8 7 -1 0
BITMAP
3F
1B
30
3C
60
66
FC
ENDCHAR
STARTCHAR F
ENCODING 70
SWIDTH 667 0
DWIDTH 7 0
BBX 8 7 -1 0
BITMAP
3F
1B
30
3C
60
60
F0
ENDCHAR
STARTCHAR G
ENCODING 71
SWIDTH 722 0
DWIDTH 7 0
BBX 7 7 0 0
BITMAP
3E
66
C0
DE
CC
EC
78
ENDCHAR
STARTCHAR H
ENCODING 72
SWIDTH 778 0
DWIDTH 8 0
BBX 8 7 0 0
BITMAP
73
33
66
7E
66
CC
CE
ENDCHAR
STARTCHAR I
ENCODING 73
SWIDTH 389 0
DWIDTH 4 0
BBX 6 7 -1 0
BITMAP
3C
18
30
30
60
60
F0
ENDCHAR
STARTCHAR J
ENCODING 74
SWIDTH 500 0
DWIDTH 5 0
BBX 7 8 -1 -1
BITMAP
1E
0C
18
18
30
30
B0
E0
ENDCHAR
STARTCHAR K
ENCODING 75
SWIDTH 667 0
DWIDTH 7 0
BBX 9 7 -1 0
BITMAP
3B80
1B00
3600
3C00
6C00
6600
F700
ENDCHAR
STARTCHAR L
ENCODING 76
SWIDTH 611 0
DWIDTH 6 0
BBX 6 7 -1 0
BITMAP
3C
18
30
30
60
64
FC
ENDCHAR
STARTCHAR M
ENCODING 77
SWIDTH 889 0
DWIDTH 10 0
BBX 11 7 -1 0
BITMAP
38E0
19C0
39C0
2A80
6D80
6D80
EBC0
ENDCHAR
STARTCHAR N
ENCODING 78
SWIDTH 722 0
DWIDTH 8 0
BBX 10 7 -1 0
BITMAP
3BC0
1980
3D00
2D00
2F00
6600
F600
ENDCHAR
STARTCHAR O
ENCODING 79
SWIDTH 722 0
DWIDTH 7 0
BBX 7 7 0 0
BITMAP
1C
76
66
C6
CC
DC
70
ENDCHAR
STARTCHAR P
ENCODING 80
SWIDTH 611 0
DWIDTH 6 0
BBX 7 7 -1 0
BITMAP
3E
1A
36
3C
60
60
F0
ENDCHAR
STARTCHAR Q
ENCODING 81
SWIDTH 722 0
DWIDTH 7 0
BBX 7 9 0 -2
BITMAP
1C
76
66
C6
CC
DC
70
64
F8
ENDCHAR
STARTCHAR R
ENCODING 82
SWIDTH 667 0
DWIDTH 7 0
BBX 8 7 -1 0
BITMAP
3E
1B
33
3E
6C
6C
F6
ENDCHAR
STARTCHAR S
ENCODING 83
SWIDTH 556 0
DWIDTH 6 0
BBX 6 7 0 0
BITMAP
3C
6C
60
30
18
D8
F0
ENDCHAR
STARTCHAR T
ENCODING 84
SWIDTH 611 0
DWIDTH 6 0
BBX 7 7 0 0
BITMAP
7E
DA
18
30
30
60
F0
ENDCHAR
STARTCHAR U
ENCODING 85
SWIDTH 722 0
DWIDTH 8 0
BBX 9 7 0 0
BITMAP
7B80
3100
6200
6600
C400
CC00
7800
ENDCHAR
STARTCHAR V
ENCODING 86
SWIDTH 667 0
DWIDTH 7 0
BBX 8 7 0 0
BITMAP
F7
66
6C
68
68
70
60
ENDCHAR
STARTCHAR W
ENCODING 87
SWIDTH 889 0
DWIDTH 9 0
BBX 10 7 0 0
BITMAP
EDC0
6C80
6D00
6D00
6E00
3600
2400
ENDCHAR
STARTCHAR X
ENCODING 88
SWIDTH 667 0
DWIDTH 7 0
BBX 9 7 -1 0
BITMAP
3B80
1B00
1A00
0C00
3C00
6C00
EE00
ENDCHAR
STARTCHAR Y
ENCODING 89
SWIDTH 611 0
DWIDTH 6 0
BBX 8 7 -1 0
BITMAP
77
36
34
38
30
60
F0
ENDCHAR
STARTCHAR Z
ENCODING 90
SWIDTH 611 0
DWIDTH 6 0
BBX 8 7 -1 0
BITMAP
3F
36
0C
18
30
6C
FC
ENDCHAR
STARTCHAR bracketleft
ENCODING 91
SWIDTH 333 0
DWIDTH 5 0
BBX 5 9 0 -2
BITMAP
38
30
30
60
60
60
C0
C0
E0
ENDCHAR
STARTCHAR backslash
ENCODING 92
SWIDTH 278 0
DWIDTH 5 0
BBX 5 7 0 0
BITMAP
C0
40
60
20
30
10
18
ENDCHAR
STARTCHAR bracketright
ENCODING 93
SWIDTH 333 0
DWIDTH 5 0
BBX 5 9 0 -2
BITMAP
38
18
18
30
30
30
60
60
E0
ENDCHAR
STARTCHAR asciicircum
ENCODING 94
SWIDTH 570 0
DWIDTH 7 0
BBX 5 4 1 3
BITMAP
20
70
D8
88
ENDCHAR
STARTCHAR underscore
ENCODING 95
SWIDTH 500 0
DWIDTH 5 0
BBX 5 1 0 -2
BITMAP
F8
ENDCHAR
STARTCHAR quoteleft
ENCODING 96
SWIDTH 333 0
DWIDTH 4 0
BBX 2 3 1 4
BITMAP
40
80
C0
ENDCHAR
STARTCHAR a
ENCODING 97
SWIDTH 500 0
DWIDTH 5 0
BBX 5 5 0 0
BITMAP
38
78
D8
D0
78
ENDCHAR
STARTCHAR b
ENCODING 98
SWIDTH 500 0
DWIDTH 5 0
BBX 5 7 0 0
BITMAP
70
30
78
68
48
D0
E0
ENDCHAR
STARTCHAR c
ENCODING 99
SWIDTH 444 0
DWIDTH 5 0
BBX 5 5 0 0
BITMAP
30
68
C0
F0
60
ENDCHAR
STARTCHAR d
ENCODING 100
SWIDTH 500 0
DWIDTH 5 0
BBX 6 7 0 0
BITMAP
1C
0C
38
68
C8
D8
68
ENDCHAR
STARTCHAR e
ENCODING 101
SWIDTH 444 0
DWIDTH 5 0
BBX 5 5 0 0
BITMAP
38
58
F0
C8
70
ENDCHAR
STARTCHAR f
ENCODING 102
SWIDTH 333 0
DWIDTH 4 0
BBX 7 10 -2 -3
BITMAP
0E
18
3C
18
10
30
30
20
A0
C0
ENDCHAR
STARTCHAR g
ENCODING 103
SWIDTH 500 0
DWIDTH 4 0
BBX 6 8 -1 -3
BITMAP
3C
68
68
30
70
D8
98
70
ENDCHAR
STARTCHAR h
ENCODING 104
SWIDTH 556 0
DWIDTH 5 0
BBX 6 7 -1 0
BITMAP
70
30
38
6C
6C
D8
D8
ENDCHAR
STARTCHAR i
ENCODING 105
SWIDTH 278 0
DWIDTH 3 0
BBX 3 7 0 0
BITMAP
60
00
E0
60
40
C0
C0
ENDCHAR
STARTCHAR j
ENCODING 106
SWIDTH 278 0
DWIDTH 3 0
BBX 5 10 -2 -3
BITMAP
18
00
38
18
30
30
30
20
E0
C0
ENDCHAR
STARTCHAR k
ENCODING 107
SWIDTH 500 0
DWIDTH 5 0
BBX 6 7 0 0
BITMAP
70
30
6C
78
70
D0
D8
ENDCHAR
STARTCHAR l
ENCODING 108
SWIDTH 278 0
DWIDTH 3 0
BBX 4 7 0 0
BITMAP
30
30
60
60
40
C0
E0
ENDCHAR
STARTCHAR m
ENCODING 109
SWIDTH 778 0
DWIDTH 7 0
BBX 7 5 0 0
BITMAP
F6
7E
6A
D4
D6
ENDCHAR
STARTCHAR n
ENCODING 110
SWIDTH 556 0
DWIDTH 5 0
BBX 5 5 0 0
BITMAP
D8
78
68
D0
D8
ENDCHAR
STARTCHAR o
ENCODING 111
SWIDTH 500 0
DWIDTH 5 0
BBX 5 5 0 0
BITMAP
30
58
D8
D0
60
ENDCHAR
STARTCHAR p
ENCODING 112
SWIDTH 500 0
DWIDTH 5 0
BBX 7 8 -2 -3
BITMAP
3C
1A
36
34
38
20
60
F0
ENDCHAR
STARTCHAR q
ENCODING 113
SWIDTH 500 0
DWIDTH 5 0
BBX 5 8 0 -3
BITMAP
38
68
D8
D0
70
20
60
F0
ENDCHAR
STARTCHAR r
ENCODING 114
SWIDTH 389 0
DWIDTH 4 0
BBX 5 5 0 0
BITMAP
68
70
60
C0
C0
ENDCHAR
STARTCHAR s
ENCODING 115
SWIDTH 389 0
DWIDTH 4 0
BBX 4 5 0 0
BITMAP
70
D0
60
B0
E0
ENDCHAR
STARTCHAR t
ENCODING 116
SWIDTH 278 0
DWIDTH 4 0
BBX 5 6 0 0
BITMAP
30
F8
60
C0
D0
60
ENDCHAR
STARTCHAR u
ENCODING 117
SWIDTH 556 0
DWIDTH 5 0
BBX 5 5 0 0
BITMAP
E8
68
D0
F0
78
ENDCHAR
STARTCHAR v
ENCODING 118
SWIDTH 444 0
DWIDTH 4 0
BBX 4 5 0 0
BITMAP
D0
D0
D0
60
40
ENDCHAR
STARTCHAR w
ENCODING 119
SWIDTH 667 0
DWIDTH 7 0
BBX 7 5 0 0
BITMAP
EA
6A
6C
7C
28
ENDCHAR
STARTCHAR x
ENCODING 120
SWIDTH 500 0
DWIDTH 4 0
BBX 6 5 -1 0
BITMAP
6C
38
30
78
D8
ENDCHAR
STARTCHAR y
ENCODING 121
SWIDTH 444 0
DWIDTH 5 0
BBX 5 7 0 -2
BITMAP
E8
68
68
30
20
A0
C0
ENDCHAR
STARTCHAR z
ENCODING 122
SWIDTH 389 0
DWIDTH 4 0
BBX 5 5 0 0
BITMAP
78
B0
60
D0
F0
ENDCHAR
STARTCHAR braceleft
ENCODING 123
SWIDTH 348 0
DWIDTH 5 0
BBX 5 9 0 -2
BITMAP
18
30
30
60
C0
60
60
60
30
ENDCHAR
STARTCHAR bar
ENCODING 124
SWIDTH 220 0
DWIDTH 3 0
BBX 1 7 1 0
BITMAP
80
80
80
80
80
80
80
ENDCHAR
STARTCHAR braceright
ENCODING 125
SWIDTH 348 0
DWIDTH 5 0
BBX 6 9 -1 -2
BITMAP
30
18
18
18
0C
18
30
30
E0
ENDCHAR
STARTCHAR asciitilde
ENCODING 126
SWIDTH 570 0
DWIDTH 6 0
BBX 6 2 0 2
BITMAP
6C
B8
ENDCHAR
STARTCHAR space
ENCODING 160
SWIDTH 250 0
DWIDTH 2 0
BBX 1 1 0 0
BITMAP
00
ENDCHAR
STARTCHAR exclamdown
ENCODING 161
SWIDTH 389 0
DWIDTH 5 0
BBX 4 8 0 -3
BITMAP
30
30
00
20
60
60
C0
C0
ENDCHAR
STARTCHAR cent
ENCODING 162
SWIDTH 500 0
DWIDTH 5 0
BBX 5 7 0 -1
BITMAP
10
70
C8
C0
D0
60
40
ENDCHAR
STARTCHAR sterling
ENCODING 163
SWIDTH 500 0
DWIDTH 5 0
BBX 5 7 0 0
BITMAP
30
68
60
F0
60
C8
F0
ENDCHAR
STARTCHAR currency
ENCODING 164
SWIDTH 500 0
DWIDTH 7 0
BBX 5 5 1 1
BITMAP
D8
70
50
70
D8
ENDCHAR
STARTCHAR yen
ENCODING 165
SWIDTH 500 0
DWIDTH 5 0
BBX 6 7 0 0
BITMAP
EC
68
70
60
F0
60
F0
ENDCHAR
STARTCHAR brokenbar
ENCODING 166
SWIDTH 220 0
DWIDTH 3 0
BBX 1 7 1 0
BITMAP
80
80
80
00
80
80
80
ENDCHAR
STARTCHAR section
ENCODING 167
SWIDTH 500 0
DWIDTH 5 0
BBX 7 9 -1 -2
BITMAP
0C
16
30
58
6C
34
18
D0
60
ENDCHAR
STARTCHAR dieresis
ENCODING 168
SWIDTH 333 0
DWIDTH 5 0
BBX 5 1 1 5
BITMAP
D8
ENDCHAR
STARTCHAR copyright
ENCODING 169
SWIDTH 747 0
DWIDTH 9 0
BBX 7 7 1 0
BITMAP
38
44
9A
A2
9A
44
38
ENDCHAR
STARTCHAR ordfeminine
ENCODING 170
SWIDTH 266 0
DWIDTH 5 0
BBX 5 6 0 1
BITMAP
28
50
50
68
00
F0
ENDCHAR
STARTCHAR guillemotleft
ENCODING 171
SWIDTH 500 0
DWIDTH 8 0
BBX 7 5 1 0
BITMAP
36
6C
D8
D8
6C
ENDCHAR
STARTCHAR logicalnot
ENCODING 172
SWIDTH 606 0
DWIDTH 7 0
BBX 5 3 1 1
BITMAP
F8
08
08
ENDCHAR
STARTCHAR hyphen
ENCODING 173
SWIDTH 333 0
DWIDTH 3 0
BBX 3 1 0 2
BITMAP
E0
ENDCHAR
STARTCHAR registered
ENCODING 174
SWIDTH 747 0
DWIDTH 9 0
BBX 7 7 1 0
BITMAP
38
44
BA
B2
AA
44
38
ENDCHAR
STARTCHAR macron
ENCODING 175
SWIDTH 333 0
DWIDTH 4 0
BBX 3 1 1 5
BITMAP
E0
ENDCHAR
STARTCHAR degree
ENCODING 176
SWIDTH 400 0
DWIDTH 4 0
BBX 4 4 0 3
BITMAP
60
90
90
60
ENDCHAR
STARTCHAR plusminus
ENCODING 177
SWIDTH 570 0
DWIDTH 7 0
BBX 5 7 1 0
BITMAP
20
20
F8
20
20
00
F8
ENDCHAR
STARTCHAR twosuperior
ENCODING 178
SWIDTH 300 0
DWIDTH 3 0
BBX 3 4 0 3
BITMAP
60
20
40
E0
ENDCHAR
STARTCHAR threesuperior
ENCODING 179
SWIDTH 300 0
DWIDTH 3 0
BBX 3 4 0 3
BITMAP
E0
40
20
C0
ENDCHAR
STARTCHAR acute
ENCODING 180
SWIDTH 333 0
DWIDTH 4 0
BBX 3 2 1 5
BITMAP
60
80
ENDCHAR
STARTCHAR mu
ENCODING 181
SWIDTH 576 0
DWIDTH 5 0
BBX 6 8 -1 -3
BITMAP
74
34
68
78
7C
C0
80
C0
ENDCHAR
STARTCHAR paragraph
ENCODING 182
SWIDTH 500 0
DWIDTH 8 0
BBX 7 9 1 -2
BITMAP
7E
F4
F4
E8
68
28
28
50
50
ENDCHAR
STARTCHAR periodcentered
ENCODING 183
SWIDTH 250 0
DWIDTH 4 0
BBX 2 2 1 2
BITMAP
C0
C0
ENDCHAR
STARTCHAR cedilla
ENCODING 184
SWIDTH 333 0
DWIDTH 3 0
BBX 4 3 -2 -3
BITMAP
20
90
60
ENDCHAR
STARTCHAR onesuperior
ENCODING 185
SWIDTH 300 0
DWIDTH 3 0
BBX 3 4 0 3
BITMAP
20
E0
40
E0
ENDCHAR
STARTCHAR ordmasculine
ENCODING 186
SWIDTH 300 0
DWIDTH 5 0
BBX 4 6 0 1
BITMAP
30
50
50
60
00
F0
ENDCHAR
STARTCHAR guillemotright
ENCODING 187
SWIDTH 500 0
DWIDTH 8 0
BBX 7 5 0 0
BITMAP
6C
36
36
6C
D8
ENDCHAR
STARTCHAR onequarter
ENCODING 188
SWIDTH 750 0
DWIDTH 7 0
BBX 7 7 0 0
BITMAP
24
E8
48
F4
2C
3E
48
ENDCHAR
STARTCHAR onehalf
ENCODING 189
SWIDTH 750 0
DWIDTH 7 0
BBX 6 7 0 0
BITMAP
24
E8
48
FC
24
28
5C
ENDCHAR
STARTCHAR threequarters
ENCODING 190
SWIDTH 750 0
DWIDTH 7 0
BBX 7 7 0 0
BITMAP
E4
48
28
D4
2C
3E
48
ENDCHAR
STARTCHAR questiondown
ENCODING 191
SWIDTH 500 0
DWIDTH 5 0
BBX 5 8 -1 -3
BITMAP
18
18
00
10
30
60
D0
F0
ENDCHAR
STARTCHAR Agrave
ENCODING 192
SWIDTH 667 0
DWIDTH 6 0
BBX 7 10 -1 0
BITMAP
10
08
00
0C
1C
14
2C
7C
4C
DE
ENDCHAR
STARTCHAR Aacute
ENCODING 193
SWIDTH 667 0
DWIDTH 6 0
BBX 7 10 -1 0
BITMAP
04
08
00
0C
1C
14
2C
7C
4C
DE
ENDCHAR
STARTCHAR Acircumflex
ENCODING 194
SWIDTH 667 0
DWIDTH 6 0
BBX 7 10 -1 0
BITMAP
04
0A
00
0C
1C
14
2C
7C
4C
DE
ENDCHAR
STARTCHAR Atilde
ENCODING 195
SWIDTH 667 0
DWIDTH 6 0
BBX 8 10 -1 0
BITMAP
0D
16
00
0C
1C
14
2C
7C
4C
DE
ENDCHAR
STARTCHAR Adieresis
ENCODING 196
SWIDTH 667 0
DWIDTH 6 0
BBX 7 9 -1 0
BITMAP
0A
00
0C
1C
14
2C
7C
4C
DE
ENDCHAR
STARTCHAR Aring
ENCODING 197
SWIDTH 667 0
DWIDTH 6 0
BBX 7 10 -1 0
BITMAP
04
0A
04
0C
1C
14
2C
7C
4C
DE
ENDCHAR
STARTCHAR AE
ENCODING 198
SWIDTH 944 0
DWIDTH 9 0
BBX 10 7 -1 0
BITMAP
0FC0
1EC0
1600
2F80
7C00
4D80
DF80
ENDCHAR
STARTCHAR Ccedilla
ENCODING 199
SWIDTH 667 0
DWIDTH 7 0
BBX 7 10 0 -3
BITMAP
3E
66
C0
C0
C0
EC
78
20
90
60
ENDCHAR
STARTCHAR Egrave
ENCODING 200
SWIDTH 667 0
DWIDTH 7 0
BBX 8 10 -1 0
BITMAP
04
02
00
3F
1B
30
3C
60
66
FC
ENDCHAR
STARTCHAR Eacute
ENCODING 201
SWIDTH 667 0
DWIDTH 7 0
BBX 8 10 -1 0
BITMAP
02
04
00
3F
1B
30
3C
60
66
FC
ENDCHAR
STARTCHAR Ecircumflex
ENCODING 202
SWIDTH 667 0
DWIDTH 7 0
BBX 8 10 -1 0
BITMAP
04
0A
00
3F
1B
30
3C
60
66
FC
ENDCHAR
STARTCHAR Edieresis
ENCODING 203
SWIDTH 667 0
DWIDTH 7 0
BBX 8 9 -1 0
BITMAP
0A
00
3F
1B
30
3C
60
66
FC
ENDCHAR
STARTCHAR Igrave
ENCODING 204
SWIDTH 389 0
DWIDTH 4 0
BBX 6 10 -1 0
BITMAP
10
08
00
3C
18
30
30
60
60
F0
ENDCHAR
STARTCHAR Iacute
ENCODING 205
SWIDTH 389 0
DWIDTH 4 0
BBX 6 10 -1 0
BITMAP
04
08
00
3C
18
30
30
60
60
F0
ENDCHAR
STARTCHAR Icircumflex
ENCODING 206
SWIDTH 389 0
DWIDTH 4 0
BBX 6 10 -1 0
BITMAP
08
14
00
3C
18
30
30
60
60
F0
ENDCHAR
STARTCHAR Idieresis
ENCODING 207
SWIDTH 389 0
DWIDTH 4 0
BBX 6 9 -1 0
BITMAP
14
00
3C
18
30
30
60
60
F0
ENDCHAR
STARTCHAR Eth
ENCODING 208
SWIDTH 722 0
DWIDTH 7 0
BBX 8 7 -1 0
BITMAP
3E
1B
33
7B
27
6E
F8
ENDCHAR
STARTCHAR Ntilde
ENCODING 209
SWIDTH 722 0
DWIDTH 8 0
BBX 10 10 -1 0
BITMAP
0680
0B00
0000
3BC0
1980
3D00
2D00
2F00
6600
F600
ENDCHAR
STARTCHAR Ograve
ENCODING 210
SWIDTH 722 0
DWIDTH 7 0
BBX 7 10 0 0
BITMAP
10
08
00
1C
76
66
C6
CC
DC
70
ENDCHAR
STARTCHAR Oacute
ENCODING 211
SWIDTH 722 0
DWIDTH 7 0
BBX 7 10 0 0
BITMAP
04
08
00
1C
76
66
C6
CC
DC
70
ENDCHAR
STARTCHAR Ocircumflex
ENCODING 212
SWIDTH 722 0
DWIDTH 7 0
BBX 7 10 0 0
BITMAP
08
14
00
1C
76
66
C6
CC
DC
70
ENDCHAR
STARTCHAR Otilde
ENCODING 213
SWIDTH 722 0
DWIDTH 7 0
BBX 7 10 0 0
BITMAP
1A
2C
00
1C
76
66
C6
CC
DC
70
ENDCHAR
STARTCHAR Odieresis
ENCODING 214
SWIDTH 722 0
DWIDTH 7 0
BBX 7 9 0 0
BITMAP
14
00
1C
76
66
C6
CC
DC
70
ENDCHAR
STARTCHAR multiply
ENCODING 215
SWIDTH 570 0
DWIDTH 7 0
BBX 6 5 0 0
BITMAP
CC
78
30
78
CC
ENDCHAR
STARTCHAR Oslash
ENCODING 216
SWIDTH 722 0
DWIDTH 7 0
BBX 7 9 0 -1
BITMAP
02
1C
76
6E
D6
EC
DC
70
80
ENDCHAR
STARTCHAR Ugrave
ENCODING 217
SWIDTH 722 0
DWIDTH 8 0
BBX 9 10 0 0
BITMAP
0800
0400
0000
7B80
3100
6200
6600
C400
CC00
7800
ENDCHAR
STARTCHAR Uacute
ENCODING 218
SWIDTH 722 0
DWIDTH 8 0
BBX 9 10 0 0
BITMAP
0200
0400
0000
7B80
3100
6200
6600
C400
CC00
7800
ENDCHAR
STARTCHAR Ucircumflex
ENCODING 219
SWIDTH 722 0
DWIDTH 8 0
BBX 9 10 0 0
BITMAP
0400
0A00
0000
7B80
3100
6200
6600
C400
CC00
7800
ENDCHAR
STARTCHAR Udieresis
ENCODING 220
SWIDTH 722 0
DWIDTH 8 0
BBX 9 9 0 0
BITMAP
0A00
0000
7B80
3100
6200
6600
C400
CC00
7800
ENDCHAR
STARTCHAR Yacute
ENCODING 221
SWIDTH 611 0
DWIDTH 6 0
BBX 7 9 0 0
BITMAP
04
08
E6
64
64
68
70
60
F0
ENDCHAR
STARTCHAR Thorn
ENCODING 222
SWIDTH 611 0
DWIDTH 6 0
BBX 7 7 -1 0
BITMAP
38
1E
3A
36
7C
60
F0
ENDCHAR
STARTCHAR germandbls
ENCODING 223
SWIDTH 500 0
DWIDTH 6 0
BBX 7 10 -2 -3
BITMAP
0C
1A
1C
12
12
32
34
20
A0
C0
ENDCHAR
STARTCHAR agrave
ENCODING 224
SWIDTH 500 0
DWIDTH 5 0
BBX 5 8 0 0
BITMAP
60
10
00
38
78
D8
D0
78
ENDCHAR
STARTCHAR aacute
ENCODING 225
SWIDTH 500 0
DWIDTH 5 0
BBX 6 8 0 0
BITMAP
0C
10
00
38
78
D8
D0
78
ENDCHAR
STARTCHAR acircumflex
ENCODING 226
SWIDTH 500 0
DWIDTH 5 0
BBX 5 8 0 0
BITMAP
10
28
00
38
78
D8
D0
78
ENDCHAR
STARTCHAR atilde
ENCODING 227
SWIDTH 500 0
DWIDTH 5 0
BBX 6 8 0 0
BITMAP
34
58
00
38
78
D8
D0
78
ENDCHAR
STARTCHAR adieresis
ENCODING 228
SWIDTH 500 0
DWIDTH 5 0
BBX 6 7 0 0
BITMAP
6C
00
38
78
D8
D0
78
ENDCHAR
STARTCHAR aring
ENCODING 229
SWIDTH 500 0
DWIDTH 5 0
BBX 5 8 0 0
BITMAP
10
28
10
38
78
D8
D0
78
ENDCHAR
STARTCHAR ae
ENCODING 230
SWIDTH 722 0
DWIDTH 8 0
BBX 8 5 0 0
BITMAP
3F
7B
DE
D9
6E
ENDCHAR
STARTCHAR ccedilla
ENCODING 231
SWIDTH 444 0
DWIDTH 5 0
BBX 5 8 0 -3
BITMAP
30
68
C0
F0
60
20
90
60
ENDCHAR
STARTCHAR egrave
ENCODING 232
SWIDTH 444 0
DWIDTH 5 0
BBX 5 8 0 0
BITMAP
60
10
00
38
58
F0
C8
70
ENDCHAR
STARTCHAR eacute
ENCODING 233
SWIDTH 444 0
DWIDTH 5 0
BBX 5 8 0 0
BITMAP
18
20
00
38
58
F0
C8
70
ENDCHAR
STARTCHAR ecircumflex
ENCODING 234
SWIDTH 444 0
DWIDTH 5 0
BBX 5 8 0 0
BITMAP
10
28
00
38
58
F0
C8
70
ENDCHAR
STARTCHAR edieresis
ENCODING 235
SWIDTH 444 0
DWIDTH 5 0
BBX 6 7 0 0
BITMAP
6C
00
38
58
F0
C8
70
ENDCHAR
STARTCHAR igrave
ENCODING 236
SWIDTH 278 0
DWIDTH 3 0
BBX 3 8 0 0
BITMAP
C0
20
00
E0
60
60
C0
E0
ENDCHAR
STARTCHAR iacute
ENCODING 237
SWIDTH 278 0
DWIDTH 3 0
BBX 4 8 0 0
BITMAP
30
40
00
E0
60
60
C0
E0
ENDCHAR
STARTCHAR icircumflex
ENCODING 238
SWIDTH 278 0
DWIDTH 3 0
BBX 3 8 0 0
BITMAP
40
A0
00
E0
60
60
C0
E0
ENDCHAR
STARTCHAR idieresis
ENCODING 239
SWIDTH 278 0
DWIDTH 3 0
BBX 5 7 0 0
BITMAP
D8
00
E0
60
60
C0
E0
ENDCHAR
STARTCHAR eth
ENCODING 240
SWIDTH 500 0
DWIDTH 5 0
BBX 5 8 0 0
BITMAP
20
38
50
38
58
D8
D0
60
ENDCHAR
STARTCHAR ntilde
ENCODING 241
SWIDTH 556 0
DWIDTH 5 0
BBX 6 8 0 0
BITMAP
34
58
00
D8
78
68
D0
D8
ENDCHAR
STARTCHAR ograve
ENCODING 242
SWIDTH 500 0
DWIDTH 5 0
BBX 5 8 0 0
BITMAP
60
10
00
30
58
D8
D0
60
ENDCHAR
STARTCHAR oacute
ENCODING 243
SWIDTH 500 0
DWIDTH 5 0
BBX 5 8 0 0
BITMAP
18
20
00
30
58
D8
D0
60
ENDCHAR
STARTCHAR ocircumflex
ENCODING 244
SWIDTH 500 0
DWIDTH 5 0
BBX 5 8 0 0
BITMAP
10
28
00
30
58
D8
D0
60
ENDCHAR
STARTCHAR otilde
ENCODING 245
SWIDTH 500 0
DWIDTH 5 0
BBX 6 8 0 0
BITMAP
34
58
00
30
58
D8
D0
60
ENDCHAR
STARTCHAR odieresis
ENCODING 246
SWIDTH 500 0
DWIDTH 5 0
BBX 6 7 0 0
BITMAP
6C
00
30
58
D8
D0
60
ENDCHAR
STARTCHAR divide
ENCODING 247
SWIDTH 570 0
DWIDTH 7 0
BBX 6 5 1 0
BITMAP
30
00
FC
00
30
ENDCHAR
STARTCHAR oslash
ENCODING 248
SWIDTH 500 0
DWIDTH 5 0
BBX 5 7 0 -1
BITMAP
08
38
58
D8
D0
E0
80
ENDCHAR
STARTCHAR ugrave
ENCODING 249
SWIDTH 556 0
DWIDTH 5 0
BBX 5 8 0 0
BITMAP
60
10
00
E8
68
D0
F0
78
ENDCHAR
STARTCHAR uacute
ENCODING 250
SWIDTH 556 0
DWIDTH 5 0
BBX 5 8 0 0
BITMAP
18
20
00
E8
68
D0
F0
78
ENDCHAR
STARTCHAR ucircumflex
ENCODING 251
SWIDTH 556 0
DWIDTH 5 0
BBX 5 8 0 0
BITMAP
20
50
00
E8
68
D0
F0
78
ENDCHAR
STARTCHAR udieresis
ENCODING 252
SWIDTH 556 0
DWIDTH 5 0
BBX 5 7 0 0
BITMAP
D8
00
E8
68
D0
F0
78
ENDCHAR
STARTCHAR yacute
ENCODING 253
SWIDTH 444 0
DWIDTH 5 0
BBX 6 10 0 -2
BITMAP
0C
10
00
E8
68
68
30
20
A0
C0
ENDCHAR
STARTCHAR thorn
ENCODING 254
SWIDTH 500 0
DWIDTH 5 0
BBX 7 10 -2 -3
BITMAP
1C
0C
1C
1A
16
34
38
20
60
F0
ENDCHAR
STARTCHAR ydieresis
ENCODING 255
SWIDTH 444 0
DWIDTH 5 0
BBX 6 9 0 -2
BITMAP
6C
00
E8
68
68
30
20
A0
C0
ENDCHAR
STARTCHAR Lslash
ENCODING -1
SWIDTH 611 0
DWIDTH 6 0
BBX 6 7 -1 0
BITMAP
3C
18
30
38
E0
64
FC
ENDCHAR
STARTCHAR OE
ENCODING -1
SWIDTH 944 0
DWIDTH 10 0
BBX 10 7 0 0
BITMAP
1FC0
76C0
6600
CF80
CC00
DD80
7F80
ENDCHAR
STARTCHAR Scaron
ENCODING -1
SWIDTH 556 0
DWIDTH 6 0
BBX 6 10 0 0
BITMAP
14
08
00
3C
6C
60
30
18
D8
F0
ENDCHAR
STARTCHAR Ydieresis
ENCODING -1
SWIDTH 611 0
DWIDTH 6 0
BBX 8 10 -1 0
BITMAP
36
00
00
77
36
34
38
30
60
F0
ENDCHAR
STARTCHAR Zcaron
ENCODING -1
SWIDTH 611 0
DWIDTH 6 0
BBX 8 10 -1 0
BITMAP
0A
04
00
3F
36
0C
18
30
6C
FC
ENDCHAR
STARTCHAR breve
ENCODING -1
SWIDTH 333 0
DWIDTH 4 0
BBX 3 2 1 6
BITMAP
A0
E0
ENDCHAR
STARTCHAR bullet
ENCODING -1
SWIDTH 350 0
DWIDTH 5 0
BBX 3 4 1 1
BITMAP
40
E0
E0
40
ENDCHAR
STARTCHAR caron
ENCODING -1
SWIDTH 333 0
DWIDTH 4 0
BBX 3 2 1 6
BITMAP
A0
40
ENDCHAR
STARTCHAR circumflex
ENCODING -1
SWIDTH 333 0
DWIDTH 4 0
BBX 3 2 1 6
BITMAP
40
A0
ENDCHAR
STARTCHAR dagger
ENCODING -1
SWIDTH 500 0
DWIDTH 5 0
BBX 6 9 0 -1
BITMAP
18
18
7C
30
30
60
60
C0
C0
ENDCHAR
STARTCHAR daggerdbl
ENCODING -1
SWIDTH 500 0
DWIDTH 5 0
BBX 7 9 -1 -1
BITMAP
0C
0C
3E
18
30
30
F8
60
60
ENDCHAR
STARTCHAR dotaccent
ENCODING -1
SWIDTH 333 0
DWIDTH 3 0
BBX 2 1 1 6
BITMAP
C0
ENDCHAR
STARTCHAR dotlessi
ENCODING -1
SWIDTH 278 0
DWIDTH 3 0
BBX 3 5 0 0
BITMAP
E0
60
60
C0
E0
ENDCHAR
STARTCHAR ellipsis
ENCODING -1
SWIDTH 1000 0
DWIDTH 10 0
BBX 8 2 1 0
BITMAP
DB
DB
ENDCHAR
STARTCHAR emdash
ENCODING -1
SWIDTH 1000 0
DWIDTH 10 0
BBX 10 1 0 2
BITMAP
FFC0
ENDCHAR
STARTCHAR endash
ENCODING -1
SWIDTH 500 0
DWIDTH 5 0
BBX 5 1 0 2
BITMAP
F8
ENDCHAR
STARTCHAR fi
ENCODING -1
SWIDTH 556 0
DWIDTH 6 0
BBX 8 10 -2 -3
BITMAP
0F
18
3F
1B
12
36
36
20
A0
C0
ENDCHAR
STARTCHAR fl
ENCODING -1
SWIDTH 556 0
DWIDTH 7 0
BBX 9 10 -2 -3
BITMAP
0F80
1980
3F00
1B00
1200
3600
3700
2000
A000
C000
ENDCHAR
STARTCHAR florin
ENCODING -1
SWIDTH 500 0
DWIDTH 5 0
BBX 6 10 -1 -3
BITMAP
0C
18
7C
30
30
30
30
20
E0
40
ENDCHAR
STARTCHAR fraction
ENCODING -1
SWIDTH 167 0
DWIDTH 4 0
BBX 5 7 0 0
BITMAP
08
10
10
20
40
40
80
ENDCHAR
STARTCHAR grave
ENCODING -1
SWIDTH 333 0
DWIDTH 4 0
BBX 3 2 1 6
BITMAP
C0
20
ENDCHAR
STARTCHAR guilsinglleft
ENCODING -1
SWIDTH 333 0
DWIDTH 4 0
BBX 4 5 0 0
BITMAP
30
60
C0
C0
60
ENDCHAR
STARTCHAR guilsinglright
ENCODING -1
SWIDTH 333 0
DWIDTH 5 0
BBX 4 5 0 0
BITMAP
60
30
30
60
C0
ENDCHAR
STARTCHAR hungarumlaut
ENCODING -1
SWIDTH 333 0
DWIDTH 5 0
BBX 4 2 1 6
BITMAP
50
A0
ENDCHAR
STARTCHAR lslash
ENCODING -1
SWIDTH 278 0
DWIDTH 3 0
BBX 4 7 0 0
BITMAP
30
30
60
F0
40
C0
E0
ENDCHAR
STARTCHAR oe
ENCODING -1
SWIDTH 722 0
DWIDTH 8 0
BBX 8 5 0 0
BITMAP
37
5B
DE
D9
6E
ENDCHAR
STARTCHAR ogonek
ENCODING -1
SWIDTH 333 0
DWIDTH 3 0
BBX 3 4 0 -3
BITMAP
40
80
A0
40
ENDCHAR
STARTCHAR perthousand
ENCODING -1
SWIDTH 1000 0
DWIDTH 14 0
BBX 13 7 1 0
BITMAP
6600
DE00
6400
0C00
1B30
36E8
3330
ENDCHAR
STARTCHAR quotedblbase
ENCODING -1
SWIDTH 500 0
DWIDTH 7 0
BBX 5 3 0 -2
BITMAP
D8
48
90
ENDCHAR
STARTCHAR quotedblleft
ENCODING -1
SWIDTH 500 0
DWIDTH 7 0
BBX 5 3 1 4
BITMAP
48
90
D8
ENDCHAR
STARTCHAR quotedblright
ENCODING -1
SWIDTH 500 0
DWIDTH 7 0
BBX 5 3 1 4
BITMAP
D8
48
90
ENDCHAR
STARTCHAR quotesinglbase
ENCODING -1
SWIDTH 333 0
DWIDTH 3 0
BBX 2 3 0 -2
BITMAP
C0
40
80
ENDCHAR
STARTCHAR quotesingle
ENCODING -1
SWIDTH 278 0
DWIDTH 4 0
BBX 1 3 2 4
BITMAP
80
80
80
ENDCHAR
STARTCHAR ring
ENCODING -1
SWIDTH 333 0
DWIDTH 4 0
BBX 3 3 1 5
BITMAP
40
A0
40
ENDCHAR
STARTCHAR scaron
ENCODING -1
SWIDTH 389 0
DWIDTH 4 0
BBX 4 8 0 0
BITMAP
50
20
00
70
D0
60
B0
E0
ENDCHAR
STARTCHAR tilde
ENCODING -1
SWIDTH 333 0
DWIDTH 6 0
BBX 5 2 1 6
BITMAP
68
B0
ENDCHAR
STARTCHAR trademark
ENCODING -1
SWIDTH 1000 0
DWIDTH 11 0
BBX 9 4 1 3
BITMAP
E880
4D80
4A80
4A80
ENDCHAR
STARTCHAR zcaron
ENCODING -1
SWIDTH 389 0
DWIDTH 4 0
BBX 5 8 0 0
BITMAP
50
20
00
78
B0
60
D0
F0
ENDCHAR
ENDFONT
