STARTFONT 2.1
FONT -Adobe-Times-Bold-R-Normal--20-140-100-100-P-100-ISO8859-1
SIZE 14 100 100
FONTBOUNDINGBOX 21 21 -2 -4
COMMENT $XConsortium: timB14.bdf,v 1.7 95/01/26 17:58:12 gildea Exp $
COMMENT 
COMMENT +
COMMENT  Copyright 1984-1989, 1994 Adobe Systems Incorporated.
COMMENT  Copyright 1988, 1994 Digital Equipment Corporation.
COMMENT
COMMENT  Adobe is a trademark of Adobe Systems Incorporated which may be
COMMENT  registered in certain jurisdictions.
COMMENT  Permission to use these trademarks is hereby granted only in
COMMENT  association with the images described in this file.
COMMENT
COMMENT  Permission to use, copy, modify, distribute and sell this software
COMMENT  and its documentation for any purpose and without fee is hereby
COMMENT  granted, provided that the above copyright notices appear in all
COMMENT  copies and that both those copyright notices and this permission
COMMENT  notice appear in supporting documentation, and that the names of
COMMENT  Adobe Systems and Digital Equipment Corporation not be used in
COMMENT  advertising or publicity pertaining to distribution of the software
COMMENT  without specific, written prior permission.  Adobe Systems and
COMMENT  Digital Equipment Corporation make no representations about the
COMMENT  suitability of this software for any purpose.  It is provided "as
COMMENT  is" without express or implied warranty.
COMMENT -
STARTPROPERTIES 28
FOUNDRY "Adobe"
FAMILY_NAME "Times"
WEIGHT_NAME "Bold"
SLANT "R"
SETWIDTH_NAME "Normal"
ADD_STYLE_NAME ""
PIXEL_SIZE 20
POINT_SIZE 140
RESOLUTION_X 100
RESOLUTION_Y 100
SPACING "P"
AVERAGE_WIDTH 100
CHARSET_REGISTRY "ISO8859"
CHARSET_ENCODING "1"
CAP_HEIGHT 13
X_HEIGHT 9
FONT_ASCENT 15
FONT_DESCENT 4
FACE_NAME "Times Bold"
COPYRIGHT "Copyright (c) 1984, 1987 Adobe Systems Incorporated. All Rights Reserved. Copyright (c) 1988, 1991 Digital Equipment Corporation. All Rights Reserved."
NOTICE "Times is a trademark of Linotype-Hell AG and/or its subsidiaries."
_DEC_DEVICE_FONTNAMES "PS=Times-Bold"
_DEC_PRODUCTINFO "DECwindows Fonts V2.2, 07-Nov-1991"
DEFAULT_CHAR 32
RELATIVE_SETWIDTH 50
RELATIVE_WEIGHT 70
CHARSET_COLLECTIONS "ASCII ISO8859-1 ADOBE-STANDARD"
FULL_NAME "Times Bold"
ENDPROPERTIES
CHARS 229
STARTCHAR space
ENCODING 32
SWIDTH 250 0
DWIDTH 5 0
BBX 1 1 0 0
BITMAP
00
ENDCHAR
STARTCHAR exclam
ENCODING 33
SWIDTH 333 0
DWIDTH 6 0
BBX 3 13 1 0
BITMAP
40
E0
E0
E0
E0
E0
E0
40
40
00
E0
E0
E0
ENDCHAR
STARTCHAR quotedbl
ENCODING 34
SWIDTH 555 0
DWIDTH 10 0
BBX 6 6 2 7
BITMAP
CC
CC
CC
CC
88
88
ENDCHAR
STARTCHAR numbersign
ENCODING 35
SWIDTH 500 0
DWIDTH 9 0
BBX 10 12 0 0
BITMAP
1980
1980
1980
7FC0
7FC0
3300
3300
FF80
FF80
6600
6600
6600
ENDCHAR
STARTCHAR dollar
ENCODING 36
SWIDTH 500 0
DWIDTH 9 0
BBX 8 16 0 -2
BITMAP
18
7E
DB
DB
D8
F8
7C
3E
1F
1F
1B
DB
DB
7E
18
18
ENDCHAR
STARTCHAR percent
ENCODING 37
SWIDTH 1000 0
DWIDTH 18 0
BBX 14 13 1 0
BITMAP
3C18
77F0
E260
E240
E4C0
FD80
7378
06EC
06C4
0DC4
19C8
31F8
30E0
ENDCHAR
STARTCHAR ampersand
ENCODING 38
SWIDTH 833 0
DWIDTH 16 0
BBX 13 13 2 0
BITMAP
1E00
3300
3300
3300
3A00
1CF0
3C60
5E40
CF80
C780
E3C0
FFF8
78F0
ENDCHAR
STARTCHAR quoteright
ENCODING 39
SWIDTH 333 0
DWIDTH 6 0
BBX 4 6 1 7
BITMAP
70
70
70
30
60
C0
ENDCHAR
STARTCHAR parenleft
ENCODING 40
SWIDTH 333 0
DWIDTH 6 0
BBX 5 17 1 -4
BITMAP
08
10
30
60
60
E0
C0
C0
C0
C0
C0
E0
60
60
30
10
08
ENDCHAR
STARTCHAR parenright
ENCODING 41
SWIDTH 333 0
DWIDTH 6 0
BBX 5 17 0 -4
BITMAP
80
40
60
30
30
38
18
18
18
18
18
38
30
20
60
40
80
ENDCHAR
STARTCHAR asterisk
ENCODING 42
SWIDTH 500 0
DWIDTH 9 0
BBX 8 9 0 4
BITMAP
18
18
DB
FF
3C
FF
DB
18
18
ENDCHAR
STARTCHAR plus
ENCODING 43
SWIDTH 570 0
DWIDTH 11 0
BBX 10 10 0 0
BITMAP
0C00
0C00
0C00
0C00
FFC0
FFC0
0C00
0C00
0C00
0C00
ENDCHAR
STARTCHAR comma
ENCODING 44
SWIDTH 250 0
DWIDTH 5 0
BBX 4 6 0 -3
BITMAP
70
70
70
30
60
C0
ENDCHAR
STARTCHAR minus
ENCODING 45
SWIDTH 570 0
DWIDTH 11 0
BBX 9 2 1 4
BITMAP
FF80
FF80
ENDCHAR
STARTCHAR period
ENCODING 46
SWIDTH 250 0
DWIDTH 5 0
BBX 3 3 1 0
BITMAP
E0
E0
E0
ENDCHAR
STARTCHAR slash
ENCODING 47
SWIDTH 278 0
DWIDTH 6 0
BBX 5 13 0 0
BITMAP
18
18
18
30
30
30
20
60
60
60
C0
C0
C0
ENDCHAR
STARTCHAR zero
ENCODING 48
SWIDTH 500 0
DWIDTH 9 0
BBX 8 13 0 0
BITMAP
3C
66
67
E7
E7
E7
E7
E7
E7
E7
66
66
3C
ENDCHAR
STARTCHAR one
ENCODING 49
SWIDTH 500 0
DWIDTH 9 0
BBX 8 13 0 0
BITMAP
1C
3C
FC
1C
1C
1C
1C
1C
1C
1C
1C
1C
7F
ENDCHAR
STARTCHAR two
ENCODING 50
SWIDTH 500 0
DWIDTH 9 0
BBX 8 13 0 0
BITMAP
3C
7E
CF
87
07
07
06
0C
18
31
63
FF
FF
ENDCHAR
STARTCHAR three
ENCODING 51
SWIDTH 500 0
DWIDTH 9 0
BBX 9 13 0 0
BITMAP
3C00
7E00
8F00
0700
0E00
1C00
3E00
0F00
0780
0380
C300
E600
7C00
ENDCHAR
STARTCHAR four
ENCODING 52
SWIDTH 500 0
DWIDTH 9 0
BBX 8 13 0 0
BITMAP
0E
1E
1E
2E
2E
4E
CE
8E
FF
FF
0E
0E
0E
ENDCHAR
STARTCHAR five
ENCODING 53
SWIDTH 500 0
DWIDTH 9 0
BBX 9 13 0 0
BITMAP
3F00
3F00
3E00
4000
7800
7E00
3F00
0780
0380
0380
C300
E600
FC00
ENDCHAR
STARTCHAR six
ENCODING 54
SWIDTH 500 0
DWIDTH 9 0
BBX 8 13 0 0
BITMAP
07
1C
38
70
60
FC
E6
E7
E7
E7
E7
66
3C
ENDCHAR
STARTCHAR seven
ENCODING 55
SWIDTH 500 0
DWIDTH 9 0
BBX 8 13 0 0
BITMAP
FF
FF
FE
86
0C
0C
0C
18
18
38
30
30
70
ENDCHAR
STARTCHAR eight
ENCODING 56
SWIDTH 500 0
DWIDTH 9 0
BBX 8 13 0 0
BITMAP
3C
66
E3
E3
F6
7C
3C
7E
CF
C7
C3
E7
7E
ENDCHAR
STARTCHAR nine
ENCODING 57
SWIDTH 500 0
DWIDTH 9 0
BBX 8 13 0 0
BITMAP
3C
66
E7
E7
E7
E7
67
3F
07
06
0E
3C
F0
ENDCHAR
STARTCHAR colon
ENCODING 58
SWIDTH 333 0
DWIDTH 5 0
BBX 3 9 1 0
BITMAP
E0
E0
E0
00
00
00
E0
E0
E0
ENDCHAR
STARTCHAR semicolon
ENCODING 59
SWIDTH 333 0
DWIDTH 5 0
BBX 4 12 0 -3
BITMAP
70
70
70
00
00
00
70
70
70
30
60
C0
ENDCHAR
STARTCHAR less
ENCODING 60
SWIDTH 570 0
DWIDTH 11 0
BBX 9 9 1 0
BITMAP
0380
0F00
3C00
F000
C000
F000
3C00
0F00
0380
ENDCHAR
STARTCHAR equal
ENCODING 61
SWIDTH 570 0
DWIDTH 11 0
BBX 9 6 1 2
BITMAP
FF80
FF80
0000
0000
FF80
FF80
ENDCHAR
STARTCHAR greater
ENCODING 62
SWIDTH 570 0
DWIDTH 11 0
BBX 9 9 1 0
BITMAP
E000
7800
1E00
0780
0180
0780
1E00
7800
E000
ENDCHAR
STARTCHAR question
ENCODING 63
SWIDTH 500 0
DWIDTH 9 0
BBX 7 13 1 0
BITMAP
7C
CE
EE
EE
4E
0C
18
10
10
00
38
38
38
ENDCHAR
STARTCHAR at
ENCODING 64
SWIDTH 930 0
DWIDTH 17 0
BBX 15 16 1 -3
BITMAP
03E0
0F38
380C
3004
73B6
6776
E776
EE66
EE66
EEEC
EFFC
67B8
7000
3800
1E00
07F0
ENDCHAR
STARTCHAR A
ENCODING 65
SWIDTH 722 0
DWIDTH 14 0
BBX 14 13 0 0
BITMAP
0300
0380
0780
05C0
0DC0
08C0
18E0
1060
1FF0
3070
2038
6038
F8FC
ENDCHAR
STARTCHAR B
ENCODING 66
SWIDTH 667 0
DWIDTH 13 0
BBX 10 13 1 0
BITMAP
FE00
7380
71C0
71C0
71C0
7380
7E00
7380
71C0
71C0
71C0
7380
FF00
ENDCHAR
STARTCHAR C
ENCODING 67
SWIDTH 722 0
DWIDTH 14 0
BBX 12 13 1 0
BITMAP
0F90
38F0
7070
7030
E000
E000
E000
E000
E000
7000
7030
3CE0
0F80
ENDCHAR
STARTCHAR D
ENCODING 68
SWIDTH 722 0
DWIDTH 14 0
BBX 12 13 1 0
BITMAP
FF00
71C0
70E0
7060
7070
7070
7070
7070
7070
7060
70E0
71C0
FF00
ENDCHAR
STARTCHAR E
ENCODING 69
SWIDTH 667 0
DWIDTH 13 0
BBX 10 13 2 0
BITMAP
FFC0
70C0
7040
7000
7000
7100
7F00
7100
7000
7000
7040
70C0
FFC0
ENDCHAR
STARTCHAR F
ENCODING 70
SWIDTH 611 0
DWIDTH 12 0
BBX 10 13 2 0
BITMAP
FFC0
70C0
7040
7000
7000
7100
7F00
7100
7000
7000
7000
7000
F800
ENDCHAR
STARTCHAR G
ENCODING 71
SWIDTH 778 0
DWIDTH 15 0
BBX 13 13 1 0
BITMAP
0F90
38F0
7070
7030
E000
E000
E0F8
E070
E070
7070
7070
38F0
0FC0
ENDCHAR
STARTCHAR H
ENCODING 72
SWIDTH 778 0
DWIDTH 15 0
BBX 13 13 1 0
BITMAP
F8F8
7070
7070
7070
7070
7070
7FF0
7070
7070
7070
7070
7070
F9F8
ENDCHAR
STARTCHAR I
ENCODING 73
SWIDTH 389 0
DWIDTH 7 0
BBX 5 13 1 0
BITMAP
F8
70
70
70
70
70
70
70
70
70
70
70
F8
ENDCHAR
STARTCHAR J
ENCODING 74
SWIDTH 500 0
DWIDTH 9 0
BBX 8 15 0 -2
BITMAP
1F
0E
0E
0E
0E
0E
0E
0E
0E
0E
0E
0E
EE
EC
78
ENDCHAR
STARTCHAR K
ENCODING 75
SWIDTH 778 0
DWIDTH 15 0
BBX 12 13 2 0
BITMAP
F9F0
70C0
7180
7300
7600
7C00
7C00
7E00
7700
7780
73C0
71E0
F8F0
ENDCHAR
STARTCHAR L
ENCODING 76
SWIDTH 667 0
DWIDTH 13 0
BBX 10 13 2 0
BITMAP
F800
7000
7000
7000
7000
7000
7000
7000
7000
7000
7040
70C0
FFC0
ENDCHAR
STARTCHAR M
ENCODING 77
SWIDTH 944 0
DWIDTH 18 0
BBX 15 13 2 0
BITMAP
F01E
701C
783C
783C
7C5C
5C5C
5EDC
4E9C
4F9C
471C
471C
431C
E23E
ENDCHAR
STARTCHAR N
ENCODING 78
SWIDTH 722 0
DWIDTH 14 0
BBX 12 13 1 0
BITMAP
F070
7820
7820
7C20
5E20
4E20
4F20
47A0
43A0
43E0
41E0
40E0
E0E0
ENDCHAR
STARTCHAR O
ENCODING 79
SWIDTH 778 0
DWIDTH 15 0
BBX 13 13 1 0
BITMAP
0F80
38E0
7070
7070
E038
E038
E038
E038
E038
7070
7070
38E0
0F80
ENDCHAR
STARTCHAR P
ENCODING 80
SWIDTH 611 0
DWIDTH 12 0
BBX 10 13 1 0
BITMAP
FF00
7380
71C0
71C0
71C0
7380
7F00
7000
7000
7000
7000
7000
F800
ENDCHAR
STARTCHAR Q
ENCODING 81
SWIDTH 778 0
DWIDTH 15 0
BBX 13 17 1 -4
BITMAP
0F80
38E0
7070
7070
E038
E038
E038
E038
E038
7070
7070
38E0
0F80
0F00
0780
03E0
00F8
ENDCHAR
STARTCHAR R
ENCODING 82
SWIDTH 722 0
DWIDTH 14 0
BBX 12 13 1 0
BITMAP
FF00
7380
71C0
71C0
71C0
7380
7F00
7700
7380
71C0
71C0
70E0
F8F0
ENDCHAR
STARTCHAR S
ENCODING 83
SWIDTH 556 0
DWIDTH 11 0
BBX 9 13 1 0
BITMAP
1E80
6380
E180
E000
F800
7C00
3F00
0F80
0780
0380
C380
E700
BC00
ENDCHAR
STARTCHAR T
ENCODING 84
SWIDTH 667 0
DWIDTH 13 0
BBX 11 13 1 0
BITMAP
FFE0
CE60
8E20
0E00
0E00
0E00
0E00
0E00
0E00
0E00
0E00
0E00
1F00
ENDCHAR
STARTCHAR U
ENCODING 85
SWIDTH 722 0
DWIDTH 14 0
BBX 12 13 1 0
BITMAP
F8F0
7020
7020
7020
7020
7020
7020
7020
7020
7020
7060
38C0
1F80
ENDCHAR
STARTCHAR V
ENCODING 86
SWIDTH 722 0
DWIDTH 14 0
BBX 14 13 0 0
BITMAP
FC7C
7818
3810
3C30
1C20
1E60
1E40
0EC0
0F80
0780
0700
0300
0200
ENDCHAR
STARTCHAR W
ENCODING 87
SWIDTH 1000 0
DWIDTH 19 0
BBX 18 13 1 0
BITMAP
FDF7C0
79E180
38E100
3CE300
3CE200
1C7200
1E7600
0E7400
0EBC00
0F3C00
073C00
061800
061800
ENDCHAR
STARTCHAR X
ENCODING 88
SWIDTH 722 0
DWIDTH 14 0
BBX 14 13 0 0
BITMAP
F878
7830
3C60
1CC0
0F80
0700
0780
07C0
0DC0
18E0
3070
6078
F0FC
ENDCHAR
STARTCHAR Y
ENCODING 89
SWIDTH 722 0
DWIDTH 14 0
BBX 13 13 1 0
BITMAP
FC78
7830
3860
3C40
1EC0
0E80
0F80
0700
0700
0700
0700
0700
1FC0
ENDCHAR
STARTCHAR Z
ENCODING 90
SWIDTH 667 0
DWIDTH 13 0
BBX 10 13 2 0
BITMAP
FFC0
C3C0
8380
0780
0F00
0E00
1E00
3C00
3800
7800
F040
E0C0
FFC0
ENDCHAR
STARTCHAR bracketleft
ENCODING 91
SWIDTH 333 0
DWIDTH 6 0
BBX 4 16 1 -3
BITMAP
F0
C0
C0
C0
C0
C0
C0
C0
C0
C0
C0
C0
C0
C0
C0
F0
ENDCHAR
STARTCHAR backslash
ENCODING 92
SWIDTH 278 0
DWIDTH 5 0
BBX 5 13 0 0
BITMAP
C0
C0
C0
60
60
60
20
30
30
30
18
18
18
ENDCHAR
STARTCHAR bracketright
ENCODING 93
SWIDTH 333 0
DWIDTH 6 0
BBX 4 16 1 -3
BITMAP
F0
30
30
30
30
30
30
30
30
30
30
30
30
30
30
F0
ENDCHAR
STARTCHAR asciicircum
ENCODING 94
SWIDTH 581 0
DWIDTH 11 0
BBX 8 7 1 6
BITMAP
18
18
3C
24
66
C3
C3
ENDCHAR
STARTCHAR underscore
ENCODING 95
SWIDTH 500 0
DWIDTH 9 0
BBX 9 2 0 -4
BITMAP
FF80
FF80
ENDCHAR
STARTCHAR quoteleft
ENCODING 96
SWIDTH 333 0
DWIDTH 6 0
BBX 4 6 1 7
BITMAP
30
60
C0
E0
E0
E0
ENDCHAR
STARTCHAR a
ENCODING 97
SWIDTH 500 0
DWIDTH 9 0
BBX 8 9 0 0
BITMAP
7C
CE
CE
1E
6E
CE
CE
FE
77
ENDCHAR
STARTCHAR b
ENCODING 98
SWIDTH 556 0
DWIDTH 9 0
BBX 9 13 -1 0
BITMAP
F000
7000
7000
7000
7600
7F00
7380
7380
7380
7380
7380
7300
6E00
ENDCHAR
STARTCHAR c
ENCODING 99
SWIDTH 444 0
DWIDTH 8 0
BBX 7 9 0 0
BITMAP
3E
76
E6
E0
E0
E0
E0
76
3C
ENDCHAR
STARTCHAR d
ENCODING 100
SWIDTH 556 0
DWIDTH 10 0
BBX 9 13 0 0
BITMAP
0F00
0700
0700
0700
3700
7F00
E700
E700
E700
E700
E700
7700
3B80
ENDCHAR
STARTCHAR e
ENCODING 101
SWIDTH 444 0
DWIDTH 8 0
BBX 7 9 0 0
BITMAP
3C
76
E6
FE
E0
E0
E0
76
3C
ENDCHAR
STARTCHAR f
ENCODING 102
SWIDTH 333 0
DWIDTH 6 0
BBX 7 13 0 0
BITMAP
3E
76
76
70
FC
70
70
70
70
70
70
70
F8
ENDCHAR
STARTCHAR g
ENCODING 103
SWIDTH 500 0
DWIDTH 9 0
BBX 9 13 0 -4
BITMAP
3F80
E700
E700
E700
E600
7800
6000
FE00
FF80
E380
C180
E300
7E00
ENDCHAR
STARTCHAR h
ENCODING 104
SWIDTH 556 0
DWIDTH 11 0
BBX 10 13 0 0
BITMAP
F000
7000
7000
7000
7700
7F80
7380
7380
7380
7380
7380
7380
FBC0
ENDCHAR
STARTCHAR i
ENCODING 105
SWIDTH 278 0
DWIDTH 5 0
BBX 5 13 0 0
BITMAP
60
60
60
00
F0
70
70
70
70
70
70
70
F8
ENDCHAR
STARTCHAR j
ENCODING 106
SWIDTH 333 0
DWIDTH 5 0
BBX 6 17 -2 -4
BITMAP
18
18
18
00
3C
1C
1C
1C
1C
1C
1C
1C
1C
1C
DC
D8
70
ENDCHAR
STARTCHAR k
ENCODING 107
SWIDTH 556 0
DWIDTH 10 0
BBX 10 13 0 0
BITMAP
F000
7000
7000
7000
7380
7300
7600
7C00
7C00
7E00
7700
7380
F7C0
ENDCHAR
STARTCHAR l
ENCODING 108
SWIDTH 278 0
DWIDTH 6 0
BBX 5 13 0 0
BITMAP
F0
70
70
70
70
70
70
70
70
70
70
70
F8
ENDCHAR
STARTCHAR m
ENCODING 109
SWIDTH 833 0
DWIDTH 16 0
BBX 15 9 0 0
BITMAP
F738
7BDC
739C
739C
739C
739C
739C
739C
FBDE
ENDCHAR
STARTCHAR n
ENCODING 110
SWIDTH 556 0
DWIDTH 11 0
BBX 10 9 0 0
BITMAP
E700
7F80
7380
7380
7380
7380
7380
7380
FBC0
ENDCHAR
STARTCHAR o
ENCODING 111
SWIDTH 500 0
DWIDTH 9 0
BBX 8 9 0 0
BITMAP
3C
66
E7
E7
E7
E7
E7
66
3C
ENDCHAR
STARTCHAR p
ENCODING 112
SWIDTH 556 0
DWIDTH 10 0
BBX 9 13 0 -4
BITMAP
E600
7F00
7380
7380
7380
7380
7380
7B00
7600
7000
7000
7000
F800
ENDCHAR
STARTCHAR q
ENCODING 113
SWIDTH 556 0
DWIDTH 9 0
BBX 9 13 0 -4
BITMAP
3900
7700
E700
E700
E700
E700
E700
7F00
3700
0700
0700
0700
0F80
ENDCHAR
STARTCHAR r
ENCODING 114
SWIDTH 444 0
DWIDTH 8 0
BBX 7 9 0 0
BITMAP
EE
76
70
70
70
70
70
70
F8
ENDCHAR
STARTCHAR s
ENCODING 115
SWIDTH 389 0
DWIDTH 7 0
BBX 6 9 0 0
BITMAP
7C
CC
E4
F0
78
3C
9C
CC
F8
ENDCHAR
STARTCHAR t
ENCODING 116
SWIDTH 333 0
DWIDTH 7 0
BBX 6 11 0 0
BITMAP
10
30
FC
70
70
70
70
70
70
74
38
ENDCHAR
STARTCHAR u
ENCODING 117
SWIDTH 556 0
DWIDTH 11 0
BBX 10 9 0 0
BITMAP
F780
7380
7380
7380
7380
7380
7380
7F80
3DC0
ENDCHAR
STARTCHAR v
ENCODING 118
SWIDTH 500 0
DWIDTH 9 0
BBX 10 9 -1 0
BITMAP
FBC0
7180
7900
3B00
3B00
1E00
1E00
0C00
0C00
ENDCHAR
STARTCHAR w
ENCODING 119
SWIDTH 722 0
DWIDTH 12 0
BBX 14 9 -1 0
BITMAP
F79C
7718
7390
3BB0
39A0
1DE0
1FE0
0CC0
0CC0
ENDCHAR
STARTCHAR x
ENCODING 120
SWIDTH 500 0
DWIDTH 9 0
BBX 9 9 0 0
BITMAP
F380
7300
7A00
3C00
1C00
1E00
3700
6780
E380
ENDCHAR
STARTCHAR y
ENCODING 121
SWIDTH 500 0
DWIDTH 9 0
BBX 10 13 -1 -4
BITMAP
FBC0
7180
7900
3B00
3A00
1E00
1E00
0C00
0C00
0C00
C800
D800
F000
ENDCHAR
STARTCHAR z
ENCODING 122
SWIDTH 444 0
DWIDTH 8 0
BBX 7 9 0 0
BITMAP
FE
CE
8E
1C
38
70
72
E6
FE
ENDCHAR
STARTCHAR braceleft
ENCODING 123
SWIDTH 394 0
DWIDTH 8 0
BBX 7 17 0 -4
BITMAP
1E
38
30
30
30
30
30
60
C0
60
30
30
30
30
30
38
1E
ENDCHAR
STARTCHAR bar
ENCODING 124
SWIDTH 220 0
DWIDTH 4 0
BBX 2 16 1 -3
BITMAP
C0
C0
C0
C0
C0
C0
C0
C0
C0
C0
C0
C0
C0
C0
C0
C0
ENDCHAR
STARTCHAR braceright
ENCODING 125
SWIDTH 394 0
DWIDTH 8 0
BBX 7 17 1 -4
BITMAP
F0
38
18
18
18
18
18
0C
06
0C
18
18
18
18
18
38
F0
ENDCHAR
STARTCHAR asciitilde
ENCODING 126
SWIDTH 520 0
DWIDTH 10 0
BBX 8 4 1 3
BITMAP
70
F9
9F
0E
ENDCHAR
STARTCHAR space
ENCODING 160
SWIDTH 250 0
DWIDTH 5 0
BBX 1 1 0 0
BITMAP
00
ENDCHAR
STARTCHAR exclamdown
ENCODING 161
SWIDTH 333 0
DWIDTH 6 0
BBX 3 13 1 -4
BITMAP
E0
E0
E0
00
40
40
E0
E0
E0
E0
E0
E0
40
ENDCHAR
STARTCHAR cent
ENCODING 162
SWIDTH 500 0
DWIDTH 9 0
BBX 8 13 0 -2
BITMAP
01
03
3E
77
EF
EC
D8
D8
F0
73
3E
60
40
ENDCHAR
STARTCHAR sterling
ENCODING 163
SWIDTH 500 0
DWIDTH 9 0
BBX 14 13 0 0
BITMAP
1F00
3B00
3B00
3800
3800
3800
FE00
3804
3800
3000
F080
BF80
EF00
ENDCHAR
STARTCHAR currency
ENCODING 164
SWIDTH 500 0
DWIDTH 9 0
BBX 8 8 0 2
BITMAP
DB
FF
66
C3
C3
66
FF
DB
ENDCHAR
STARTCHAR yen
ENCODING 165
SWIDTH 500 0
DWIDTH 9 0
BBX 9 13 0 0
BITMAP
FB80
7100
7300
3A00
3A00
1C00
7F00
1C00
7F00
1C00
1C00
1C00
7F00
ENDCHAR
STARTCHAR brokenbar
ENCODING 166
SWIDTH 220 0
DWIDTH 4 0
BBX 2 16 1 -3
BITMAP
C0
C0
C0
C0
C0
C0
00
00
00
00
C0
C0
C0
C0
C0
C0
ENDCHAR
STARTCHAR section
ENCODING 167
SWIDTH 500 0
DWIDTH 9 0
BBX 7 16 1 -3
BITMAP
3C
66
46
60
30
78
DC
CE
E6
76
3C
1C
0C
C4
CC
78
ENDCHAR
STARTCHAR dieresis
ENCODING 168
SWIDTH 333 0
DWIDTH 6 0
BBX 6 2 0 10
BITMAP
CC
CC
ENDCHAR
STARTCHAR copyright
ENCODING 169
SWIDTH 747 0
DWIDTH 15 0
BBX 13 13 1 0
BITMAP
0F80
38E0
6030
4FD0
DCD8
9848
9808
9808
DCD8
4F90
6030
38E0
0F80
ENDCHAR
STARTCHAR ordfeminine
ENCODING 170
SWIDTH 300 0
DWIDTH 6 0
BBX 6 8 0 5
BITMAP
70
D8
38
D8
D8
EC
00
FC
ENDCHAR
STARTCHAR guillemotleft
ENCODING 171
SWIDTH 500 0
DWIDTH 11 0
BBX 9 7 1 1
BITMAP
1980
3300
6600
CC00
6600
3300
1980
ENDCHAR
STARTCHAR logicalnot
ENCODING 172
SWIDTH 570 0
DWIDTH 11 0
BBX 9 6 1 1
BITMAP
FF80
FF80
0180
0180
0180
0180
ENDCHAR
STARTCHAR hyphen
ENCODING 173
SWIDTH 333 0
DWIDTH 6 0
BBX 5 3 0 4
BITMAP
F8
F8
F8
ENDCHAR
STARTCHAR registered
ENCODING 174
SWIDTH 747 0
DWIDTH 15 0
BBX 13 13 1 0
BITMAP
0F80
38E0
6030
5F90
CCD8
8CC8
8F88
8D88
CCD8
5EF0
6030
38E0
0F80
ENDCHAR
STARTCHAR macron
ENCODING 175
SWIDTH 333 0
DWIDTH 6 0
BBX 6 1 0 11
BITMAP
FC
ENDCHAR
STARTCHAR degree
ENCODING 176
SWIDTH 400 0
DWIDTH 7 0
BBX 6 5 0 8
BITMAP
78
CC
CC
CC
78
ENDCHAR
STARTCHAR plusminus
ENCODING 177
SWIDTH 570 0
DWIDTH 11 0
BBX 8 11 1 0
BITMAP
18
18
18
FF
FF
18
18
18
00
FF
FF
ENDCHAR
STARTCHAR twosuperior
ENCODING 178
SWIDTH 300 0
DWIDTH 5 0
BBX 5 8 0 5
BITMAP
70
98
18
30
20
40
F8
F0
ENDCHAR
STARTCHAR threesuperior
ENCODING 179
SWIDTH 300 0
DWIDTH 5 0
BBX 5 8 0 5
BITMAP
70
98
18
70
38
18
98
70
ENDCHAR
STARTCHAR acute
ENCODING 180
SWIDTH 333 0
DWIDTH 6 0
BBX 5 3 0 10
BITMAP
38
70
C0
ENDCHAR
STARTCHAR mu
ENCODING 181
SWIDTH 556 0
DWIDTH 11 0
BBX 10 13 0 -4
BITMAP
F780
7380
7380
7380
7380
7380
7380
7F80
7DC0
6000
E000
F000
6000
ENDCHAR
STARTCHAR paragraph
ENCODING 182
SWIDTH 540 0
DWIDTH 10 0
BBX 9 17 0 -4
BITMAP
3F80
7F80
FB00
FB00
FB00
FB00
7B00
3B00
1B00
1B00
1B00
1B00
1B00
1B00
1B00
1B00
1B00
ENDCHAR
STARTCHAR periodcentered
ENCODING 183
SWIDTH 250 0
DWIDTH 5 0
BBX 3 3 1 4
BITMAP
E0
E0
E0
ENDCHAR
STARTCHAR cedilla
ENCODING 184
SWIDTH 333 0
DWIDTH 6 0
BBX 5 4 1 -4
BITMAP
20
18
98
70
ENDCHAR
STARTCHAR onesuperior
ENCODING 185
SWIDTH 300 0
DWIDTH 5 0
BBX 6 8 0 5
BITMAP
30
F0
30
30
30
30
30
FC
ENDCHAR
STARTCHAR ordmasculine
ENCODING 186
SWIDTH 330 0
DWIDTH 6 0
BBX 6 8 0 5
BITMAP
78
CC
CC
CC
CC
78
00
FC
ENDCHAR
STARTCHAR guillemotright
ENCODING 187
SWIDTH 500 0
DWIDTH 11 0
BBX 9 7 1 1
BITMAP
CC00
6600
3300
1980
3300
6600
CC00
ENDCHAR
STARTCHAR onequarter
ENCODING 188
SWIDTH 750 0
DWIDTH 13 0
BBX 13 13 0 0
BITMAP
3060
F0C0
30C0
3180
3180
3310
3330
FE70
06B0
0DB0
0DF8
1830
1830
ENDCHAR
STARTCHAR onehalf
ENCODING 189
SWIDTH 750 0
DWIDTH 13 0
BBX 13 13 0 0
BITMAP
3060
F0C0
30C0
3180
3180
3370
3398
FE18
0630
0C20
0C40
18F8
18F0
ENDCHAR
STARTCHAR threequarters
ENCODING 190
SWIDTH 750 0
DWIDTH 13 0
BBX 13 13 0 0
BITMAP
7060
98C0
18C0
7180
3980
1B10
9B30
7670
06B0
0DB0
0DF8
1830
1830
ENDCHAR
STARTCHAR questiondown
ENCODING 191
SWIDTH 500 0
DWIDTH 9 0
BBX 7 13 1 -4
BITMAP
38
38
38
00
10
10
30
60
E4
EE
EE
E6
7C
ENDCHAR
STARTCHAR Agrave
ENCODING 192
SWIDTH 722 0
DWIDTH 14 0
BBX 14 17 0 0
BITMAP
0E00
0700
0180
0000
0300
0380
0780
05C0
0DC0
08C0
18E0
1060
1FF0
3070
2038
6038
F8FC
ENDCHAR
STARTCHAR Aacute
ENCODING 193
SWIDTH 722 0
DWIDTH 14 0
BBX 14 17 0 0
BITMAP
0380
0700
0C00
0000
0300
0380
0780
05C0
0DC0
08C0
18E0
1060
1FF0
3070
2038
6038
F8FC
ENDCHAR
STARTCHAR Acircumflex
ENCODING 194
SWIDTH 722 0
DWIDTH 14 0
BBX 14 17 0 0
BITMAP
0300
0780
0CC0
0000
0300
0380
0780
05C0
0DC0
08C0
18E0
1060
1FF0
3070
2038
6038
F8FC
ENDCHAR
STARTCHAR Atilde
ENCODING 195
SWIDTH 722 0
DWIDTH 14 0
BBX 14 17 0 0
BITMAP
0640
0FC0
0980
0000
0300
0380
0780
05C0
0DC0
08C0
18E0
1060
1FF0
3070
2038
6038
F8FC
ENDCHAR
STARTCHAR Adieresis
ENCODING 196
SWIDTH 722 0
DWIDTH 14 0
BBX 14 16 0 0
BITMAP
0CC0
0CC0
0000
0300
0380
0780
05C0
0DC0
08C0
18E0
1060
1FF0
3070
2038
6038
F8FC
ENDCHAR
STARTCHAR Aring
ENCODING 197
SWIDTH 722 0
DWIDTH 14 0
BBX 14 17 0 0
BITMAP
0700
0D80
0D80
0700
0300
0380
0780
05C0
0DC0
08C0
18E0
1060
1FF0
3070
2038
6038
F8FC
ENDCHAR
STARTCHAR AE
ENCODING 198
SWIDTH 1000 0
DWIDTH 19 0
BBX 17 13 0 0
BITMAP
07FF80
03E180
02E080
06E000
04E000
0CE200
08FE00
1FE200
10E000
30E000
20E080
60E180
F9FF80
ENDCHAR
STARTCHAR Ccedilla
ENCODING 199
SWIDTH 722 0
DWIDTH 14 0
BBX 12 17 1 -4
BITMAP
0F90
38F0
7070
7030
E000
E000
E000
E000
E000
7000
7030
3CE0
0F80
0400
0300
1300
0E00
ENDCHAR
STARTCHAR Egrave
ENCODING 200
SWIDTH 667 0
DWIDTH 13 0
BBX 10 17 2 0
BITMAP
3800
1C00
0600
0000
FFC0
70C0
7040
7000
7000
7100
7F00
7100
7000
7000
7040
70C0
FFC0
ENDCHAR
STARTCHAR Eacute
ENCODING 201
SWIDTH 667 0
DWIDTH 13 0
BBX 10 17 2 0
BITMAP
0E00
1C00
3000
0000
FFC0
70C0
7040
7000
7000
7100
7F00
7100
7000
7000
7040
70C0
FFC0
ENDCHAR
STARTCHAR Ecircumflex
ENCODING 202
SWIDTH 667 0
DWIDTH 13 0
BBX 10 17 2 0
BITMAP
0C00
1E00
3300
0000
FFC0
70C0
7040
7000
7000
7100
7F00
7100
7000
7000
7040
70C0
FFC0
ENDCHAR
STARTCHAR Edieresis
ENCODING 203
SWIDTH 667 0
DWIDTH 13 0
BBX 10 16 2 0
BITMAP
3300
3300
0000
FFC0
70C0
7040
7000
7000
7100
7F00
7100
7000
7000
7040
70C0
FFC0
ENDCHAR
STARTCHAR Igrave
ENCODING 204
SWIDTH 389 0
DWIDTH 7 0
BBX 5 17 1 0
BITMAP
E0
70
18
00
F8
70
70
70
70
70
70
70
70
70
70
70
F8
ENDCHAR
STARTCHAR Iacute
ENCODING 205
SWIDTH 389 0
DWIDTH 7 0
BBX 5 17 1 0
BITMAP
38
70
C0
00
F8
70
70
70
70
70
70
70
70
70
70
70
F8
ENDCHAR
STARTCHAR Icircumflex
ENCODING 206
SWIDTH 389 0
DWIDTH 7 0
BBX 6 17 1 0
BITMAP
30
78
CC
00
F8
70
70
70
70
70
70
70
70
70
70
70
F8
ENDCHAR
STARTCHAR Idieresis
ENCODING 207
SWIDTH 389 0
DWIDTH 7 0
BBX 6 16 1 0
BITMAP
CC
CC
00
F8
70
70
70
70
70
70
70
70
70
70
70
F8
ENDCHAR
STARTCHAR Eth
ENCODING 208
SWIDTH 722 0
DWIDTH 14 0
BBX 13 13 0 0
BITMAP
7F80
38E0
3870
3830
3838
3838
FE38
3838
3838
3830
3870
38E0
7F80
ENDCHAR
STARTCHAR Ntilde
ENCODING 209
SWIDTH 722 0
DWIDTH 14 0
BBX 12 17 1 0
BITMAP
0C80
1F80
1300
0000
F070
7820
7820
7C20
5E20
4E20
4F20
47A0
43A0
43E0
41E0
40E0
E0E0
ENDCHAR
STARTCHAR Ograve
ENCODING 210
SWIDTH 778 0
DWIDTH 15 0
BBX 13 17 1 0
BITMAP
0E00
0700
0180
0000
0F80
38E0
7070
7070
E038
E038
E038
E038
E038
7070
7070
38E0
0F80
ENDCHAR
STARTCHAR Oacute
ENCODING 211
SWIDTH 778 0
DWIDTH 15 0
BBX 13 17 1 0
BITMAP
0380
0700
0C00
0000
0F80
38E0
7070
7070
E038
E038
E038
E038
E038
7070
7070
38E0
0F80
ENDCHAR
STARTCHAR Ocircumflex
ENCODING 212
SWIDTH 778 0
DWIDTH 15 0
BBX 13 17 1 0
BITMAP
0600
0F00
1980
0000
0F80
38E0
7070
7070
E038
E038
E038
E038
E038
7070
7070
38E0
0F80
ENDCHAR
STARTCHAR Otilde
ENCODING 213
SWIDTH 778 0
DWIDTH 15 0
BBX 13 17 1 0
BITMAP
0C80
1F80
1300
0000
0F80
38E0
7070
7070
E038
E038
E038
E038
E038
7070
7070
38E0
0F80
ENDCHAR
STARTCHAR Odieresis
ENCODING 214
SWIDTH 778 0
DWIDTH 15 0
BBX 13 16 1 0
BITMAP
1980
1980
0000
0F80
38E0
7070
7070
E038
E038
E038
E038
E038
7070
7070
38E0
0F80
ENDCHAR
STARTCHAR multiply
ENCODING 215
SWIDTH 570 0
DWIDTH 11 0
BBX 9 8 1 1
BITMAP
C180
6300
3600
1C00
1C00
3600
6300
C180
ENDCHAR
STARTCHAR Oslash
ENCODING 216
SWIDTH 778 0
DWIDTH 15 0
BBX 13 15 1 -1
BITMAP
0060
0FC0
38E0
70B0
71B0
E138
E338
E238
E638
E438
6C70
6870
38E0
1F80
3000
ENDCHAR
STARTCHAR Ugrave
ENCODING 217
SWIDTH 722 0
DWIDTH 14 0
BBX 12 17 1 0
BITMAP
1C00
0E00
0300
0000
F8F0
7020
7020
7020
7020
7020
7020
7020
7020
7020
7060
38C0
1F80
ENDCHAR
STARTCHAR Uacute
ENCODING 218
SWIDTH 722 0
DWIDTH 14 0
BBX 12 17 1 0
BITMAP
01C0
0380
0600
0000
F8F0
7020
7020
7020
7020
7020
7020
7020
7020
7020
7060
38C0
1F80
ENDCHAR
STARTCHAR Ucircumflex
ENCODING 219
SWIDTH 722 0
DWIDTH 14 0
BBX 12 17 1 0
BITMAP
0600
0F00
1980
0000
F8F0
7020
7020
7020
7020
7020
7020
7020
7020
7020
7060
38C0
1F80
ENDCHAR
STARTCHAR Udieresis
ENCODING 220
SWIDTH 722 0
DWIDTH 14 0
BBX 12 16 1 0
BITMAP
1980
1980
0000
F8F0
7020
7020
7020
7020
7020
7020
7020
7020
7020
7060
38C0
1F80
ENDCHAR
STARTCHAR Yacute
ENCODING 221
SWIDTH 722 0
DWIDTH 14 0
BBX 13 17 1 0
BITMAP
00E0
01C0
0300
0000
FC78
7830
3860
3C40
1EC0
0E80
0F80
0700
0700
0700
0700
0700
1FC0
ENDCHAR
STARTCHAR Thorn
ENCODING 222
SWIDTH 611 0
DWIDTH 11 0
BBX 10 13 1 0
BITMAP
F800
7000
7000
7F00
7380
71C0
71C0
71C0
7380
7F00
7000
7000
F800
ENDCHAR
STARTCHAR germandbls
ENCODING 223
SWIDTH 556 0
DWIDTH 10 0
BBX 9 13 0 0
BITMAP
1E00
3B00
7380
7380
7380
7700
7200
7300
7380
7380
7380
7380
F700
ENDCHAR
STARTCHAR agrave
ENCODING 224
SWIDTH 500 0
DWIDTH 9 0
BBX 8 13 0 0
BITMAP
70
38
0C
00
7C
CE
CE
1E
6E
CE
CE
FE
77
ENDCHAR
STARTCHAR aacute
ENCODING 225
SWIDTH 500 0
DWIDTH 9 0
BBX 8 13 0 0
BITMAP
0E
1C
30
00
7C
CE
CE
1E
6E
CE
CE
FE
77
ENDCHAR
STARTCHAR acircumflex
ENCODING 226
SWIDTH 500 0
DWIDTH 9 0
BBX 8 13 0 0
BITMAP
18
3C
66
00
7C
CE
CE
1E
6E
CE
CE
FE
77
ENDCHAR
STARTCHAR atilde
ENCODING 227
SWIDTH 500 0
DWIDTH 9 0
BBX 8 13 0 0
BITMAP
32
7E
4C
00
7C
CE
CE
1E
6E
CE
CE
FE
77
ENDCHAR
STARTCHAR adieresis
ENCODING 228
SWIDTH 500 0
DWIDTH 9 0
BBX 8 12 0 0
BITMAP
66
66
00
7C
CE
CE
1E
6E
CE
CE
FE
77
ENDCHAR
STARTCHAR aring
ENCODING 229
SWIDTH 500 0
DWIDTH 9 0
BBX 8 13 0 0
BITMAP
38
6C
6C
38
7C
CE
CE
1E
6E
CE
CE
FE
77
ENDCHAR
STARTCHAR ae
ENCODING 230
SWIDTH 722 0
DWIDTH 13 0
BBX 12 9 0 0
BITMAP
7DE0
E7B0
C730
0FF0
7F00
E700
C700
EFB0
79E0
ENDCHAR
STARTCHAR ccedilla
ENCODING 231
SWIDTH 444 0
DWIDTH 8 0
BBX 7 13 0 -4
BITMAP
3E
76
E6
E0
E0
E0
E0
76
3C
10
0C
4C
38
ENDCHAR
STARTCHAR egrave
ENCODING 232
SWIDTH 444 0
DWIDTH 8 0
BBX 7 13 0 0
BITMAP
70
38
0C
00
3C
76
E6
FE
E0
E0
E0
76
3C
ENDCHAR
STARTCHAR eacute
ENCODING 233
SWIDTH 444 0
DWIDTH 8 0
BBX 8 13 0 0
BITMAP
07
0E
18
00
3C
76
E6
FE
E0
E0
E0
76
3C
ENDCHAR
STARTCHAR ecircumflex
ENCODING 234
SWIDTH 444 0
DWIDTH 8 0
BBX 7 13 0 0
BITMAP
18
3C
66
00
3C
76
E6
FE
E0
E0
E0
76
3C
ENDCHAR
STARTCHAR edieresis
ENCODING 235
SWIDTH 444 0
DWIDTH 8 0
BBX 7 12 0 0
BITMAP
66
66
00
3C
76
E6
FE
E0
E0
E0
76
3C
ENDCHAR
STARTCHAR igrave
ENCODING 236
SWIDTH 278 0
DWIDTH 5 0
BBX 5 13 0 0
BITMAP
E0
70
18
00
F0
70
70
70
70
70
70
70
F8
ENDCHAR
STARTCHAR iacute
ENCODING 237
SWIDTH 278 0
DWIDTH 5 0
BBX 5 13 0 0
BITMAP
38
70
C0
00
F0
70
70
70
70
70
70
70
F8
ENDCHAR
STARTCHAR icircumflex
ENCODING 238
SWIDTH 278 0
DWIDTH 5 0
BBX 6 13 0 0
BITMAP
30
78
CC
00
F0
70
70
70
70
70
70
70
F8
ENDCHAR
STARTCHAR idieresis
ENCODING 239
SWIDTH 278 0
DWIDTH 5 0
BBX 6 12 0 0
BITMAP
CC
CC
00
F0
70
70
70
70
70
70
70
F8
ENDCHAR
STARTCHAR eth
ENCODING 240
SWIDTH 500 0
DWIDTH 9 0
BBX 8 13 0 0
BITMAP
60
36
38
4C
3E
66
E7
E7
E7
E7
E7
66
3C
ENDCHAR
STARTCHAR ntilde
ENCODING 241
SWIDTH 556 0
DWIDTH 11 0
BBX 10 13 0 0
BITMAP
1900
3F00
2600
0000
E700
7F80
7380
7380
7380
7380
7380
7380
FBC0
ENDCHAR
STARTCHAR ograve
ENCODING 242
SWIDTH 500 0
DWIDTH 9 0
BBX 8 13 0 0
BITMAP
70
38
0C
00
3C
66
E7
E7
E7
E7
E7
66
3C
ENDCHAR
STARTCHAR oacute
ENCODING 243
SWIDTH 500 0
DWIDTH 9 0
BBX 8 13 0 0
BITMAP
07
0E
18
00
3C
66
E7
E7
E7
E7
E7
66
3C
ENDCHAR
STARTCHAR ocircumflex
ENCODING 244
SWIDTH 500 0
DWIDTH 9 0
BBX 8 13 0 0
BITMAP
18
3C
66
00
3C
66
E7
E7
E7
E7
E7
66
3C
ENDCHAR
STARTCHAR otilde
ENCODING 245
SWIDTH 500 0
DWIDTH 9 0
BBX 8 13 0 0
BITMAP
32
7E
4C
00
3C
66
E7
E7
E7
E7
E7
66
3C
ENDCHAR
STARTCHAR odieresis
ENCODING 246
SWIDTH 500 0
DWIDTH 9 0
BBX 8 12 0 0
BITMAP
66
66
00
3C
66
E7
E7
E7
E7
E7
66
3C
ENDCHAR
STARTCHAR divide
ENCODING 247
SWIDTH 570 0
DWIDTH 11 0
BBX 8 8 1 1
BITMAP
18
18
00
FF
FF
00
18
18
ENDCHAR
STARTCHAR oslash
ENCODING 248
SWIDTH 500 0
DWIDTH 9 0
BBX 10 11 -1 -1
BITMAP
0040
1E80
3300
7380
7380
7780
7B80
7180
3300
5E00
8000
ENDCHAR
STARTCHAR ugrave
ENCODING 249
SWIDTH 556 0
DWIDTH 11 0
BBX 10 13 0 0
BITMAP
3800
1C00
0600
0000
F780
7380
7380
7380
7380
7380
7380
7F80
3DC0
ENDCHAR
STARTCHAR uacute
ENCODING 250
SWIDTH 556 0
DWIDTH 11 0
BBX 10 13 0 0
BITMAP
0E00
1C00
3000
0000
F780
7380
7380
7380
7380
7380
7380
7F80
3DC0
ENDCHAR
STARTCHAR ucircumflex
ENCODING 251
SWIDTH 556 0
DWIDTH 11 0
BBX 10 13 0 0
BITMAP
0C00
1E00
3300
0000
F780
7380
7380
7380
7380
7380
7380
7F80
3DC0
ENDCHAR
STARTCHAR udieresis
ENCODING 252
SWIDTH 556 0
DWIDTH 11 0
BBX 10 12 0 0
BITMAP
3300
3300
0000
F780
7380
7380
7380
7380
7380
7380
7F80
3DC0
ENDCHAR
STARTCHAR yacute
ENCODING 253
SWIDTH 500 0
DWIDTH 9 0
BBX 10 17 -1 -4
BITMAP
0380
0700
0C00
0000
FBC0
7180
7900
3B00
3A00
1E00
1E00
0C00
0C00
0C00
0800
D800
F000
ENDCHAR
STARTCHAR thorn
ENCODING 254
SWIDTH 556 0
DWIDTH 10 0
BBX 9 17 0 -4
BITMAP
F000
7000
7000
7000
7600
7F00
7380
7380
7380
7380
7380
7B00
7600
7000
7000
7000
F800
ENDCHAR
STARTCHAR ydieresis
ENCODING 255
SWIDTH 500 0
DWIDTH 9 0
BBX 10 16 -1 -4
BITMAP
3300
3300
0000
FBC0
7180
7900
3B00
3A00
1E00
1E00
0C00
0C00
0C00
0800
D800
F000
ENDCHAR
STARTCHAR Lslash
ENCODING -1
SWIDTH 667 0
DWIDTH 12 0
BBX 11 13 0 0
BITMAP
7C00
3800
3800
3E00
3C00
3800
7800
F800
3800
3800
3820
3860
7FE0
ENDCHAR
STARTCHAR OE
ENCODING -1
SWIDTH 1000 0
DWIDTH 19 0
BBX 16 13 1 0
BITMAP
0FFF
39C3
71C1
71C0
E1C0
E1C4
E1FC
E1C4
E1C0
71C0
71C1
39C3
0FFF
ENDCHAR
STARTCHAR Scaron
ENCODING -1
SWIDTH 556 0
DWIDTH 11 0
BBX 9 17 1 0
BITMAP
6600
3C00
1800
0000
1E80
6380
E180
E000
F800
7C00
3F00
0F80
0780
0380
C380
E700
BC00
ENDCHAR
STARTCHAR Ydieresis
ENCODING -1
SWIDTH 722 0
DWIDTH 14 0
BBX 13 16 1 0
BITMAP
1980
1980
0000
FC78
7830
3860
3C40
1EC0
0E80
0F80
0700
0700
0700
0700
0700
1FC0
ENDCHAR
STARTCHAR Zcaron
ENCODING -1
SWIDTH 667 0
DWIDTH 13 0
BBX 10 17 2 0
BITMAP
3300
1E00
0C00
0000
FFC0
C3C0
8380
0780
0F00
0E00
1E00
3C00
3800
7800
F040
E0C0
FFC0
ENDCHAR
STARTCHAR breve
ENCODING -1
SWIDTH 333 0
DWIDTH 6 0
BBX 5 3 0 10
BITMAP
88
F8
70
ENDCHAR
STARTCHAR bullet
ENCODING -1
SWIDTH 350 0
DWIDTH 7 0
BBX 5 5 1 3
BITMAP
70
F8
F8
F8
70
ENDCHAR
STARTCHAR caron
ENCODING -1
SWIDTH 333 0
DWIDTH 6 0
BBX 6 3 0 10
BITMAP
CC
78
30
ENDCHAR
STARTCHAR circumflex
ENCODING -1
SWIDTH 333 0
DWIDTH 6 0
BBX 6 3 0 10
BITMAP
30
78
CC
ENDCHAR
STARTCHAR dagger
ENCODING -1
SWIDTH 500 0
DWIDTH 9 0
BBX 9 16 0 -3
BITMAP
0800
1C00
1C00
0800
6B00
FF80
6B00
0800
1C00
1C00
1C00
0800
0800
0800
0800
0800
ENDCHAR
STARTCHAR daggerdbl
ENCODING -1
SWIDTH 500 0
DWIDTH 11 0
BBX 11 16 0 -3
BITMAP
0400
0E00
0E00
0400
64C0
FFE0
64C0
0E00
0E00
0E00
64C0
FFE0
64C0
0E00
0E00
0400
ENDCHAR
STARTCHAR dotaccent
ENCODING -1
SWIDTH 333 0
DWIDTH 6 0
BBX 2 2 2 10
BITMAP
C0
C0
ENDCHAR
STARTCHAR dotlessi
ENCODING -1
SWIDTH 278 0
DWIDTH 5 0
BBX 5 9 0 0
BITMAP
F0
70
70
70
70
70
70
70
F8
ENDCHAR
STARTCHAR ellipsis
ENCODING -1
SWIDTH 1000 0
DWIDTH 18 0
BBX 15 3 2 0
BITMAP
E38E
E38E
E38E
ENDCHAR
STARTCHAR emdash
ENCODING -1
SWIDTH 1000 0
DWIDTH 19 0
BBX 19 2 0 4
BITMAP
FFFFE0
FFFFE0
ENDCHAR
STARTCHAR endash
ENCODING -1
SWIDTH 500 0
DWIDTH 9 0
BBX 9 2 0 4
BITMAP
FF80
FF80
ENDCHAR
STARTCHAR fi
ENCODING -1
SWIDTH 556 0
DWIDTH 10 0
BBX 10 13 0 0
BITMAP
0F00
3F80
7380
7000
FF80
7380
7380
7380
7380
7380
7380
7380
FFC0
ENDCHAR
STARTCHAR fl
ENCODING -1
SWIDTH 556 0
DWIDTH 10 0
BBX 10 13 0 0
BITMAP
0F00
3F80
7380
7380
FF80
7380
7380
7380
7380
7380
7380
7380
FFC0
ENDCHAR
STARTCHAR florin
ENCODING -1
SWIDTH 500 0
DWIDTH 9 0
BBX 9 17 -1 -4
BITMAP
0780
0E80
1C00
1C00
1C00
7F80
1C00
1C00
1C00
1C00
1C00
1C00
1C00
1800
D800
D800
7000
ENDCHAR
STARTCHAR fraction
ENCODING -1
SWIDTH 167 0
DWIDTH 6 0
BBX 8 13 -1 0
BITMAP
03
03
06
06
0C
0C
18
18
30
30
60
60
C0
ENDCHAR
STARTCHAR grave
ENCODING -1
SWIDTH 333 0
DWIDTH 6 0
BBX 5 3 0 10
BITMAP
E0
70
18
ENDCHAR
STARTCHAR guilsinglleft
ENCODING -1
SWIDTH 333 0
DWIDTH 7 0
BBX 5 7 1 1
BITMAP
18
30
60
C0
60
30
18
ENDCHAR
STARTCHAR guilsinglright
ENCODING -1
SWIDTH 333 0
DWIDTH 7 0
BBX 5 7 1 1
BITMAP
C0
60
30
18
30
60
C0
ENDCHAR
STARTCHAR hungarumlaut
ENCODING -1
SWIDTH 333 0
DWIDTH 6 0
BBX 8 4 -1 10
BITMAP
33
66
66
CC
ENDCHAR
STARTCHAR lslash
ENCODING -1
SWIDTH 278 0
DWIDTH 6 0
BBX 7 13 -1 0
BITMAP
78
38
38
3E
3C
38
38
78
F8
38
38
38
7C
ENDCHAR
STARTCHAR oe
ENCODING -1
SWIDTH 722 0
DWIDTH 13 0
BBX 12 9 0 0
BITMAP
38E0
77B0
E730
E7F0
E700
E700
E700
77B0
39E0
ENDCHAR
STARTCHAR ogonek
ENCODING -1
SWIDTH 333 0
DWIDTH 6 0
BBX 4 4 2 -4
BITMAP
40
80
F0
60
ENDCHAR
STARTCHAR perthousand
ENCODING -1
SWIDTH 1000 0
DWIDTH 20 0
BBX 19 13 0 0
BITMAP
383000
6FE000
C4C000
C48000
E98000
7B0000
060000
0CE1C0
0DB360
1B1620
331620
63A740
61E3C0
ENDCHAR
STARTCHAR quotedblbase
ENCODING -1
SWIDTH 500 0
DWIDTH 9 0
BBX 8 6 0 -3
BITMAP
77
77
77
33
66
CC
ENDCHAR
STARTCHAR quotedblleft
ENCODING -1
SWIDTH 500 0
DWIDTH 9 0
BBX 8 6 1 7
BITMAP
33
66
CC
EE
EE
EE
ENDCHAR
STARTCHAR quotedblright
ENCODING -1
SWIDTH 500 0
DWIDTH 9 0
BBX 8 6 0 7
BITMAP
77
77
77
33
66
CC
ENDCHAR
STARTCHAR quotesinglbase
ENCODING -1
SWIDTH 333 0
DWIDTH 6 0
BBX 4 6 1 -3
BITMAP
70
70
70
30
60
C0
ENDCHAR
STARTCHAR quotesingle
ENCODING -1
SWIDTH 278 0
DWIDTH 5 0
BBX 2 6 1 7
BITMAP
C0
C0
C0
C0
80
80
ENDCHAR
STARTCHAR ring
ENCODING -1
SWIDTH 333 0
DWIDTH 6 0
BBX 5 4 1 9
BITMAP
70
D8
D8
70
ENDCHAR
STARTCHAR scaron
ENCODING -1
SWIDTH 389 0
DWIDTH 7 0
BBX 6 13 0 0
BITMAP
CC
78
30
00
7C
CC
E4
F0
78
3C
9C
CC
F8
ENDCHAR
STARTCHAR tilde
ENCODING -1
SWIDTH 333 0
DWIDTH 6 0
BBX 6 3 0 10
BITMAP
64
FC
98
ENDCHAR
STARTCHAR trademark
ENCODING -1
SWIDTH 1000 0
DWIDTH 19 0
BBX 17 7 1 5
BITMAP
FEC180
926300
106300
105500
105D00
104900
38C980
ENDCHAR
STARTCHAR zcaron
ENCODING -1
SWIDTH 444 0
DWIDTH 8 0
BBX 7 13 0 0
BITMAP
CC
78
30
00
FE
CE
8E
1C
38
70
72
E6
FE
ENDCHAR
ENDFONT
