STARTFONT 2.1
FONT -Adobe-Times-Medium-I-Normal--34-240-100-100-P-168-ISO8859-1
SIZE 24 100 100
FONTBOUNDINGBOX 38 37 -6 -7
COMMENT $XConsortium: timI24.bdf,v 1.7 95/01/26 17:59:15 gildea Exp $
COMMENT 
COMMENT +
COMMENT  Copyright 1984-1989, 1994 Adobe Systems Incorporated.
COMMENT  Copyright 1988, 1994 Digital Equipment Corporation.
COMMENT
COMMENT  Adobe is a trademark of Adobe Systems Incorporated which may be
COMMENT  registered in certain jurisdictions.
COMMENT  Permission to use these trademarks is hereby granted only in
COMMENT  association with the images described in this file.
COMMENT
COMMENT  Permission to use, copy, modify, distribute and sell this software
COMMENT  and its documentation for any purpose and without fee is hereby
COMMENT  granted, provided that the above copyright notices appear in all
COMMENT  copies and that both those copyright notices and this permission
COMMENT  notice appear in supporting documentation, and that the names of
COMMENT  Adobe Systems and Digital Equipment Corporation not be used in
COMMENT  advertising or publicity pertaining to distribution of the software
COMMENT  without specific, written prior permission.  Adobe Systems and
COMMENT  Digital Equipment Corporation make no representations about the
COMMENT  suitability of this software for any purpose.  It is provided "as
COMMENT  is" without express or implied warranty.
COMMENT -
STARTPROPERTIES 28
FOUNDRY "Adobe"
FAMILY_NAME "Times"
WEIGHT_NAME "Medium"
SLANT "I"
SETWIDTH_NAME "Normal"
ADD_STYLE_NAME ""
PIXEL_SIZE 34
POINT_SIZE 240
RESOLUTION_X 100
RESOLUTION_Y 100
SPACING "P"
AVERAGE_WIDTH 168
CHARSET_REGISTRY "ISO8859"
CHARSET_ENCODING "1"
CAP_HEIGHT 23
X_HEIGHT 15
FONT_ASCENT 27
FONT_DESCENT 7
FACE_NAME "Times Italic"
COPYRIGHT "Copyright (c) 1984, 1987 Adobe Systems Incorporated. All Rights Reserved. Copyright (c) 1988, 1991 Digital Equipment Corporation. All Rights Reserved."
NOTICE "Times is a trademark of Linotype-Hell AG and/or its subsidiaries."
_DEC_DEVICE_FONTNAMES "PS=Times-Italic"
_DEC_PRODUCTINFO "DECwindows Fonts V2.2, 07-Nov-1991"
DEFAULT_CHAR 32
RELATIVE_SETWIDTH 50
RELATIVE_WEIGHT 50
CHARSET_COLLECTIONS "ASCII ISO8859-1 ADOBE-STANDARD"
FULL_NAME "Times Italic"
ENDPROPERTIES
CHARS 229
STARTCHAR space
ENCODING 32
SWIDTH 250 0
DWIDTH 8 0
BBX 1 1 0 0
BITMAP
00
ENDCHAR
STARTCHAR exclam
ENCODING 33
SWIDTH 333 0
DWIDTH 11 0
BBX 8 23 2 0
BITMAP
03
07
07
07
07
0E
0E
0E
0C
0C
18
18
18
10
30
30
20
00
00
00
E0
E0
E0
ENDCHAR
STARTCHAR quotedbl
ENCODING 34
SWIDTH 420 0
DWIDTH 14 0
BBX 10 8 4 15
BITMAP
2080
71C0
71C0
E380
E380
C300
C300
8200
ENDCHAR
STARTCHAR numbersign
ENCODING 35
SWIDTH 500 0
DWIDTH 17 0
BBX 17 23 1 0
BITMAP
018600
018600
010600
030C00
030C00
030C00
020800
3FFF80
3FFF80
061800
0C3000
0C3000
0C3000
186000
FFFE00
FFFE00
186000
30C000
30C000
30C000
608000
618000
618000
ENDCHAR
STARTCHAR dollar
ENCODING 36
SWIDTH 500 0
DWIDTH 16 0
BBX 15 28 1 -3
BITMAP
0020
0020
03F0
0E7C
0C4E
1846
1844
18C4
1C80
0E80
0F80
0780
03C0
01E0
01F0
0178
0338
023C
821C
821C
861C
C418
C438
74F0
1FC0
0800
0800
0800
ENDCHAR
STARTCHAR percent
ENCODING 37
SWIDTH 833 0
DWIDTH 27 0
BBX 24 24 2 -1
BITMAP
07C0E0
1C63C0
383FC0
703D80
602180
E06300
E06300
C0C600
C0C600
E18C00
638800
3E183E
0030E3
0031C1
006381
006301
00C703
00C703
018606
018606
03070C
02031C
0601F0
040000
ENDCHAR
STARTCHAR ampersand
ENCODING 38
SWIDTH 778 0
DWIDTH 26 0
BBX 21 23 3 0
BITMAP
003E00
006700
00C300
00C300
018300
018600
018E00
019C00
01F000
01E000
01C000
06E3F8
1CE0E0
3860C0
707180
707100
E03B00
E03E00
E01C00
E01E00
F07F10
7FE7E0
1F03C0
ENDCHAR
STARTCHAR quoteright
ENCODING 39
SWIDTH 333 0
DWIDTH 11 0
BBX 5 8 1 15
BITMAP
38
38
38
18
10
30
60
C0
ENDCHAR
STARTCHAR parenleft
ENCODING 40
SWIDTH 333 0
DWIDTH 11 0
BBX 10 29 2 -6
BITMAP
00C0
0180
0300
0600
0C00
0C00
1800
3800
3000
7000
7000
6000
E000
E000
E000
E000
C000
C000
C000
C000
C000
C000
C000
4000
4000
6000
2000
2000
1000
ENDCHAR
STARTCHAR parenright
ENCODING 41
SWIDTH 333 0
DWIDTH 11 0
BBX 10 29 -1 -6
BITMAP
0200
0100
0100
0180
0080
0080
00C0
00C0
00C0
00C0
00C0
00C0
00C0
01C0
01C0
01C0
01C0
0180
0380
0380
0300
0700
0600
0C00
0C00
1800
3000
6000
C000
ENDCHAR
STARTCHAR asterisk
ENCODING 42
SWIDTH 500 0
DWIDTH 17 0
BBX 12 13 2 10
BITMAP
0600
0600
C630
E670
76E0
1F80
0F00
1F80
76E0
E670
C630
0600
0600
ENDCHAR
STARTCHAR plus
ENCODING 43
SWIDTH 675 0
DWIDTH 23 0
BBX 16 16 3 0
BITMAP
0180
0180
0180
0180
0180
0180
0180
FFFF
FFFF
0180
0180
0180
0180
0180
0180
0180
ENDCHAR
STARTCHAR comma
ENCODING 44
SWIDTH 250 0
DWIDTH 8 0
BBX 5 8 -1 -4
BITMAP
38
38
38
18
10
30
60
C0
ENDCHAR
STARTCHAR minus
ENCODING 45
SWIDTH 675 0
DWIDTH 22 0
BBX 16 2 2 7
BITMAP
FFFF
FFFF
ENDCHAR
STARTCHAR period
ENCODING 46
SWIDTH 250 0
DWIDTH 8 0
BBX 3 3 1 0
BITMAP
E0
E0
E0
ENDCHAR
STARTCHAR slash
ENCODING 47
SWIDTH 278 0
DWIDTH 9 0
BBX 10 24 -1 -1
BITMAP
00C0
0180
0180
0180
0300
0300
0300
0600
0600
0600
0C00
0C00
0C00
1800
1800
1800
1800
3000
3000
3000
6000
6000
6000
C000
ENDCHAR
STARTCHAR zero
ENCODING 48
SWIDTH 500 0
DWIDTH 16 0
BBX 16 23 0 0
BITMAP
0078
01DC
030E
0606
0C07
1C07
1807
3807
3007
7007
7007
700E
E00E
E00E
E01C
E01C
E018
E038
E030
6060
70E0
3B80
1F00
ENDCHAR
STARTCHAR one
ENCODING 49
SWIDTH 500 0
DWIDTH 16 0
BBX 12 23 1 0
BITMAP
0030
01F0
0070
0070
0060
00E0
00E0
00E0
01C0
01C0
01C0
0180
0380
0380
0380
0700
0700
0700
0600
0E00
0E00
1E00
FFC0
ENDCHAR
STARTCHAR two
ENCODING 50
SWIDTH 500 0
DWIDTH 16 0
BBX 16 23 -1 0
BITMAP
00F0
03FC
07FE
0C1E
180F
1007
0007
0007
000F
000E
001E
003C
0038
0070
00E0
01C0
0380
0600
0C02
1806
300C
7FFC
FFF8
ENDCHAR
STARTCHAR three
ENCODING 51
SWIDTH 500 0
DWIDTH 16 0
BBX 15 23 0 0
BITMAP
00F8
03FC
041E
080E
000E
000E
000C
001C
0078
03E0
0FC0
00E0
0070
0078
0038
0038
0038
0030
C070
E060
F0C0
7F80
1E00
ENDCHAR
STARTCHAR four
ENCODING 52
SWIDTH 500 0
DWIDTH 16 0
BBX 17 23 -1 0
BITMAP
000180
000380
000700
000F00
001F00
003600
006E00
00CE00
018E00
030C00
061C00
0C1C00
181C00
303800
7FFF00
FFFE00
FFFE00
003000
007000
007000
006000
00E000
00E000
ENDCHAR
STARTCHAR five
ENCODING 53
SWIDTH 500 0
DWIDTH 16 0
BBX 16 23 0 0
BITMAP
07FF
07FE
07FC
0C00
0C00
1800
1800
1F00
3FE0
3FF0
01F0
0078
003C
001C
001C
001C
001C
0018
C018
E030
F060
7FC0
1E00
ENDCHAR
STARTCHAR six
ENCODING 54
SWIDTH 500 0
DWIDTH 16 0
BBX 14 23 1 0
BITMAP
000C
0030
00E0
01C0
0380
0700
0E00
1C00
3BE0
3F78
7C38
701C
701C
E01C
E01C
E01C
E01C
E038
E038
6070
70E0
3FC0
0F00
ENDCHAR
STARTCHAR seven
ENCODING 55
SWIDTH 500 0
DWIDTH 16 0
BBX 15 23 3 0
BITMAP
3FFE
7FFC
7FF8
8018
0030
0030
0060
00E0
00C0
0180
0180
0300
0700
0600
0E00
0C00
1800
3800
3000
7000
6000
C000
C000
ENDCHAR
STARTCHAR eight
ENCODING 56
SWIDTH 500 0
DWIDTH 16 0
BBX 15 23 0 0
BITMAP
03F0
0F1C
0E0E
1C06
1C06
1C06
1E06
0F0C
0F98
07E0
03C0
0FE0
3CF0
7078
7038
E03C
E01C
E01C
E01C
E038
7038
78F0
1FC0
ENDCHAR
STARTCHAR nine
ENCODING 57
SWIDTH 500 0
DWIDTH 16 0
BBX 14 23 1 0
BITMAP
03C0
0FF0
1C38
3818
701C
701C
E01C
E01C
E01C
E01C
E038
E038
70F8
7BF0
1F70
00E0
01C0
0380
0700
0E00
1C00
7000
C000
ENDCHAR
STARTCHAR colon
ENCODING 58
SWIDTH 333 0
DWIDTH 11 0
BBX 6 15 3 0
BITMAP
1C
1C
1C
00
00
00
00
00
00
00
00
00
E0
E0
E0
ENDCHAR
STARTCHAR semicolon
ENCODING 59
SWIDTH 333 0
DWIDTH 11 0
BBX 8 20 1 -5
BITMAP
07
07
07
00
00
00
00
00
00
00
00
00
38
38
38
18
10
30
60
C0
ENDCHAR
STARTCHAR less
ENCODING 60
SWIDTH 675 0
DWIDTH 23 0
BBX 17 17 3 0
BITMAP
000180
000780
001E00
007800
01E000
07C000
1F0000
7C0000
F00000
7C0000
1F0000
07C000
01E000
007800
001E00
000780
000180
ENDCHAR
STARTCHAR equal
ENCODING 61
SWIDTH 675 0
DWIDTH 23 0
BBX 17 9 3 4
BITMAP
FFFF80
FFFF80
000000
000000
000000
000000
000000
FFFF80
FFFF80
ENDCHAR
STARTCHAR greater
ENCODING 62
SWIDTH 675 0
DWIDTH 23 0
BBX 17 17 1 0
BITMAP
C00000
F00000
3C0000
0F0000
03C000
01F000
007C00
001F00
000780
001F00
007C00
01F000
03C000
0F0000
3C0000
F00000
C00000
ENDCHAR
STARTCHAR question
ENCODING 63
SWIDTH 500 0
DWIDTH 16 0
BBX 11 23 4 0
BITMAP
0F80
31C0
60E0
70E0
2060
00E0
00C0
01C0
0380
0700
0E00
0C00
1800
1800
3000
3000
2000
0000
0000
0000
E000
E000
E000
ENDCHAR
STARTCHAR at
ENCODING 64
SWIDTH 920 0
DWIDTH 31 0
BBX 26 27 2 -5
BITMAP
001FE000
007DFC00
01E01E00
03800700
07000380
0C000180
1C0001C0
380F60C0
3019E0C0
7030E0C0
7060E0C0
E0C0E0C0
E0C0C0C0
E180C0C0
E181C180
C381C180
E3818300
E3838700
63C78600
61FD9C00
71F9F800
3870E000
38000000
1C000000
0E000000
07C03000
00FFC000
ENDCHAR
STARTCHAR A
ENCODING 65
SWIDTH 611 0
DWIDTH 20 0
BBX 20 23 -2 0
BITMAP
000200
000600
000600
000E00
001F00
001700
003700
002700
006700
004700
00C780
018380
010380
030380
03FF80
060380
0C03C0
0C03C0
1801C0
1801C0
3001C0
7003E0
FC0FF0
ENDCHAR
STARTCHAR B
ENCODING 66
SWIDTH 611 0
DWIDTH 20 0
BBX 19 23 0 0
BITMAP
07FF00
01C3C0
01C1C0
01C0E0
03C0E0
0380E0
0380E0
0380E0
0781C0
070380
070F00
0FFC00
0F1F00
0E0780
0E0380
1E03C0
1E03C0
1C03C0
1C0380
3C0780
3C0F00
7C3C00
FFF000
ENDCHAR
STARTCHAR C
ENCODING 67
SWIDTH 667 0
DWIDTH 22 0
BBX 21 23 2 0
BITMAP
003F88
00FFF8
03C070
070030
0E0030
1C0020
3C0020
380000
700000
700000
F00000
E00000
E00000
E00000
E00000
E00000
E00000
F00040
700180
780300
3C0E00
1FFC00
07F000
ENDCHAR
STARTCHAR D
ENCODING 68
SWIDTH 722 0
DWIDTH 24 0
BBX 25 23 -1 0
BITMAP
03FFC000
00E0F800
00E03E00
00E00E00
01E00F00
01E00700
01C00780
01C00780
03C00380
03800780
03800380
07800780
07800780
07000700
07000700
0F000E00
0E001E00
0E001C00
1E003800
1C00F000
1C03C000
3FFF0000
FFF80000
ENDCHAR
STARTCHAR E
ENCODING 69
SWIDTH 611 0
DWIDTH 20 0
BBX 22 23 -1 0
BITMAP
03FFFC
00F01C
00E00C
00E008
01E008
01C000
01C000
03C040
03C0C0
038080
038180
07FF80
078380
070100
070100
0F0100
0E0000
0E0000
0E0020
1E0060
1E0060
3C01C0
FFFFC0
ENDCHAR
STARTCHAR F
ENCODING 70
SWIDTH 611 0
DWIDTH 20 0
BBX 22 23 0 0
BITMAP
03FFFC
00F01C
00E00C
00E008
01E008
01C000
01C000
03C040
03C0C0
038080
038180
07FF80
078380
070100
070100
0F0100
0E0000
0E0000
0E0000
1E0000
1C0000
3E0000
FF8000
ENDCHAR
STARTCHAR G
ENCODING 71
SWIDTH 722 0
DWIDTH 24 0
BBX 22 23 2 0
BITMAP
003F88
00FFF8
03C070
070030
0E0030
1C0020
3C0020
380000
700000
700000
F00000
E00000
E00FFC
E001F0
E000E0
E001E0
E001C0
F001C0
7003C0
780380
3C0780
1E0F80
07FC00
ENDCHAR
STARTCHAR H
ENCODING 72
SWIDTH 722 0
DWIDTH 24 0
BBX 26 23 0 0
BITMAP
03FC3FC0
00E00E00
00E00E00
01E01E00
01C01C00
01C01C00
03C03C00
03803800
03803800
03803800
07807800
07FFF000
07007000
0F00F000
0F00F000
0E00E000
0E00E000
0E00E000
1E01E000
1C01C000
1C01C000
3C03C000
FF0FF000
ENDCHAR
STARTCHAR I
ENCODING 73
SWIDTH 333 0
DWIDTH 11 0
BBX 13 23 -1 0
BITMAP
07F8
01E0
01C0
01C0
03C0
0380
0380
0780
0780
0700
0700
0F00
0F00
0E00
0E00
1E00
1C00
1C00
1C00
3C00
3800
7800
FE00
ENDCHAR
STARTCHAR J
ENCODING 74
SWIDTH 444 0
DWIDTH 15 0
BBX 18 23 -1 0
BITMAP
007FC0
001F00
001E00
001E00
001C00
001C00
003C00
003C00
003800
003800
007800
007000
007000
00F000
00F000
00E000
00E000
01E000
61C000
F1C000
F38000
7B8000
3E0000
ENDCHAR
STARTCHAR K
ENCODING 75
SWIDTH 667 0
DWIDTH 22 0
BBX 23 23 0 0
BITMAP
07F9FE
01E078
01C060
01C0C0
03C180
038300
038600
078C00
079800
077000
07E000
0FF000
0F7800
0E3800
0E3C00
1E1C00
1C1E00
1C0F00
1C0780
3C0780
3C03C0
3803E0
FF07F8
ENDCHAR
STARTCHAR L
ENCODING 76
SWIDTH 556 0
DWIDTH 18 0
BBX 19 23 -1 0
BITMAP
07F800
01E000
01C000
01C000
03C000
038000
038000
078000
078000
070000
070000
0F0000
0F0000
0E0000
0E0000
1E0000
1C0000
1C0020
1C0060
3C00C0
3C01C0
7FFF80
FFFF80
ENDCHAR
STARTCHAR M
ENCODING 77
SWIDTH 833 0
DWIDTH 28 0
BBX 30 23 0 0
BITMAP
07E001FC
01E001F0
01E003E0
01E003E0
036007C0
03700DC0
037009C0
03701BC0
06703380
06706380
06706780
0C70C780
0C70C700
0C718700
0C730F00
18330F00
18360E00
183C0E00
183C1E00
30381C00
30301C00
30303E00
FE20FF80
ENDCHAR
STARTCHAR N
ENCODING 78
SWIDTH 667 0
DWIDTH 22 0
BBX 25 23 -1 0
BITMAP
07C03F80
01E00E00
01E00C00
01E00C00
01700C00
01700800
03780800
03381800
02381800
021C1000
061C1000
061E3000
040E3000
040E2000
0C072000
0C076000
08076000
0803E000
1803C000
1801C000
1801C000
3801C000
FE00C000
ENDCHAR
STARTCHAR O
ENCODING 79
SWIDTH 722 0
DWIDTH 24 0
BBX 19 23 3 0
BITMAP
007E00
01C780
0301C0
0701C0
0E00E0
1E00E0
1C00E0
3800E0
7800E0
7801E0
7001E0
F001E0
F001C0
F003C0
E003C0
E00380
E00700
E00F00
E00E00
701C00
703800
3CE000
0F8000
ENDCHAR
STARTCHAR P
ENCODING 80
SWIDTH 611 0
DWIDTH 20 0
BBX 21 23 0 0
BITMAP
03FF80
00F1E0
00E070
00E070
01E038
01C038
01C038
03C038
03C070
038070
0381E0
078780
07FE00
070000
070000
0F0000
0E0000
0E0000
0E0000
1E0000
1C0000
3E0000
FF8000
ENDCHAR
STARTCHAR Q
ENCODING 81
SWIDTH 722 0
DWIDTH 24 0
BBX 20 29 2 -6
BITMAP
003F00
00E3C0
0180E0
038060
070070
0F0070
0E0070
1C0070
3C0070
3C00F0
3800F0
7800F0
7800E0
7801E0
7001E0
7001C0
700380
700780
700700
380E00
381C00
1E7000
07C000
060000
0C0000
1BC020
3FF060
79FFC0
C03F00
ENDCHAR
STARTCHAR R
ENCODING 82
SWIDTH 611 0
DWIDTH 20 0
BBX 20 23 -1 0
BITMAP
03FF80
00F3E0
00E0E0
00E070
01E070
01C070
01C070
03C070
03C0E0
0380E0
0383C0
07FF00
07FC00
071C00
071C00
0F0E00
0E0E00
0E0700
0E0700
1E0780
1C0380
3E03C0
FF83F0
ENDCHAR
STARTCHAR S
ENCODING 83
SWIDTH 500 0
DWIDTH 17 0
BBX 16 23 2 0
BITMAP
03F1
071F
0E0E
0C06
1C06
1C04
1C04
1E00
0F00
0F80
07C0
03E0
01E0
00F0
0078
0078
8038
8038
8038
C070
C070
F1E0
BF80
ENDCHAR
STARTCHAR T
ENCODING 84
SWIDTH 556 0
DWIDTH 18 0
BBX 18 23 3 0
BITMAP
FFFFC0
E1E1C0
C1E0C0
81E0C0
81C080
01C000
03C000
03C000
038000
038000
078000
078000
070000
070000
0F0000
0F0000
0E0000
0E0000
1E0000
1E0000
1E0000
3E0000
FF8000
ENDCHAR
STARTCHAR U
ENCODING 85
SWIDTH 722 0
DWIDTH 24 0
BBX 23 23 3 0
BITMAP
7FC0FE
1F0038
0E0018
0E0010
1E0030
1C0030
1C0020
3C0020
380060
380040
380040
7800C0
7000C0
700080
F00180
F00180
E00100
E00300
E00300
700600
781C00
3FF800
0FE000
ENDCHAR
STARTCHAR V
ENCODING 86
SWIDTH 611 0
DWIDTH 20 0
BBX 21 23 2 0
BITMAP
FF01F8
7C0060
380040
3800C0
380180
380180
1C0300
1C0200
1C0600
1C0C00
1E0C00
0E1800
0E1000
0E3000
0E6000
0E6000
0EC000
0F8000
078000
070000
060000
060000
040000
ENDCHAR
STARTCHAR W
ENCODING 87
SWIDTH 833 0
DWIDTH 28 0
BBX 31 23 1 0
BITMAP
FF0FE0FE
3C038038
1C038030
1C038060
1C038060
1C0380C0
1C0780C0
1C058180
1C0D8180
1C09C300
0E19C200
0E19C600
0E31C400
0E31CC00
0E61C800
0E41D800
0EC0F000
0780F000
0700E000
0700E000
0600C000
0600C000
04008000
ENDCHAR
STARTCHAR X
ENCODING 88
SWIDTH 611 0
DWIDTH 20 0
BBX 23 23 -1 0
BITMAP
1FF0FE
03E038
03C030
01C060
01E0C0
01E180
00E380
00F300
007600
007C00
007800
003800
003C00
007C00
00DE00
019E00
030E00
070F00
060700
0C0700
180780
3807C0
FE1FF0
ENDCHAR
STARTCHAR Y
ENCODING 89
SWIDTH 556 0
DWIDTH 19 0
BBX 20 23 1 0
BITMAP
7F87F0
1E01C0
1E0300
1E0300
0E0600
0E0C00
0F1800
0F1800
073000
076000
07E000
03C000
03C000
038000
038000
078000
070000
070000
070000
0E0000
0E0000
1E0000
FFC000
ENDCHAR
STARTCHAR Z
ENCODING 90
SWIDTH 556 0
DWIDTH 19 0
BBX 20 23 0 0
BITMAP
07FFF0
0FFFF0
0C01E0
0803C0
080780
000780
000F00
001E00
003C00
003C00
007800
00F000
01E000
01E000
03C000
078000
0F0000
0F0000
1E0040
3C0040
7800C0
FFFFC0
FFFF80
ENDCHAR
STARTCHAR bracketleft
ENCODING 91
SWIDTH 389 0
DWIDTH 13 0
BBX 12 29 2 -6
BITMAP
03F0
0300
0300
0700
0700
0700
0600
0600
0E00
0E00
0C00
0C00
1C00
1C00
1C00
1800
3800
3800
3800
3000
7000
7000
7000
6000
6000
E000
E000
E000
FC00
ENDCHAR
STARTCHAR backslash
ENCODING 92
SWIDTH 278 0
DWIDTH 9 0
BBX 9 23 0 0
BITMAP
C000
C000
4000
6000
6000
2000
3000
3000
1000
1800
1800
0800
0C00
0C00
0400
0600
0600
0200
0300
0300
0100
0180
0180
ENDCHAR
STARTCHAR bracketright
ENCODING 93
SWIDTH 389 0
DWIDTH 13 0
BBX 12 29 -1 -6
BITMAP
03F0
0030
0070
0070
0070
0060
0060
00E0
00E0
00E0
00C0
01C0
01C0
01C0
0180
0380
0380
0380
0300
0300
0700
0700
0600
0600
0E00
0E00
0E00
1C00
FC00
ENDCHAR
STARTCHAR asciicircum
ENCODING 94
SWIDTH 422 0
DWIDTH 14 0
BBX 15 16 -1 7
BITMAP
0380
0380
07C0
06C0
0EE0
0C60
1C70
1830
3838
3018
3018
701C
600C
E00E
C006
C006
ENDCHAR
STARTCHAR underscore
ENCODING 95
SWIDTH 500 0
DWIDTH 16 0
BBX 16 2 0 -5
BITMAP
FFFF
FFFF
ENDCHAR
STARTCHAR quoteleft
ENCODING 96
SWIDTH 333 0
DWIDTH 11 0
BBX 5 8 5 15
BITMAP
18
30
60
40
C0
E0
E0
E0
ENDCHAR
STARTCHAR a
ENCODING 97
SWIDTH 500 0
DWIDTH 16 0
BBX 15 15 1 0
BITMAP
01EC
03BC
0E1C
1C1C
181C
3818
7018
7038
E038
E030
E070
E0F2
61B4
733C
1E18
ENDCHAR
STARTCHAR b
ENCODING 98
SWIDTH 500 0
DWIDTH 16 0
BBX 15 23 1 0
BITMAP
0300
1F00
0700
0600
0600
0E00
0E00
0C00
1C78
19FC
1F1E
1E0E
3C0E
380E
380E
300C
701C
7018
6038
E070
E0E0
F380
7F00
ENDCHAR
STARTCHAR c
ENCODING 99
SWIDTH 444 0
DWIDTH 15 0
BBX 13 15 2 0
BITMAP
01E0
0630
0C38
1838
3010
3000
7000
6000
E000
E000
E000
E020
E0C0
7380
3E00
ENDCHAR
STARTCHAR d
ENCODING 100
SWIDTH 500 0
DWIDTH 16 0
BBX 16 23 1 0
BITMAP
0003
001F
0007
0007
0006
0006
0006
000E
01EC
033C
0E1C
1C1C
181C
3818
7018
7038
E038
E030
E070
E0F2
61B4
733C
1E18
ENDCHAR
STARTCHAR e
ENCODING 101
SWIDTH 444 0
DWIDTH 15 0
BBX 13 15 2 0
BITMAP
01E0
0670
0C38
1838
3070
30E0
71C0
7700
FC00
E000
E000
E020
E0C0
7380
3E00
ENDCHAR
STARTCHAR f
ENCODING 102
SWIDTH 278 0
DWIDTH 9 0
BBX 19 30 -4 -7
BITMAP
0003C0
0006E0
000CE0
001CC0
001800
003800
003000
003000
03FF00
007000
006000
006000
00E000
00E000
00E000
00C000
01C000
01C000
01C000
018000
018000
038000
038000
030000
030000
070000
660000
EE0000
EC0000
780000
ENDCHAR
STARTCHAR g
ENCODING 103
SWIDTH 500 0
DWIDTH 16 0
BBX 16 22 0 -7
BITMAP
01F0
073F
0E1F
0C1C
1C1C
1C1C
1C38
0C38
0E70
07C0
0C00
1800
1F00
0FC0
3FE0
61F0
C070
C030
C030
6020
78E0
1F80
ENDCHAR
STARTCHAR h
ENCODING 104
SWIDTH 500 0
DWIDTH 16 0
BBX 15 23 1 0
BITMAP
0300
1F00
0700
0700
0700
0E00
0E00
0E00
0E78
1CFC
1D9C
1A1C
3C1C
381C
381C
3838
7038
7038
7038
7072
E074
E07C
E038
ENDCHAR
STARTCHAR i
ENCODING 105
SWIDTH 278 0
DWIDTH 9 0
BBX 7 23 2 0
BITMAP
0E
0E
0E
00
00
00
00
00
0C
7C
1C
18
38
38
30
70
70
70
60
E4
E8
F8
70
ENDCHAR
STARTCHAR j
ENCODING 106
SWIDTH 278 0
DWIDTH 9 0
BBX 14 30 -4 -7
BITMAP
001C
001C
001C
0000
0000
0000
0000
0000
0038
00F8
0030
0030
0030
0070
0070
0060
0060
00E0
00E0
00C0
00C0
01C0
01C0
01C0
0180
0380
6300
E700
EE00
7800
ENDCHAR
STARTCHAR k
ENCODING 107
SWIDTH 444 0
DWIDTH 15 0
BBX 15 23 1 0
BITMAP
0300
1F00
0700
0600
0E00
0E00
0C00
0C00
1C7E
1C18
1830
3860
38C0
3980
3B00
7F00
7F00
7380
73C0
61C4
E1E8
E0F8
E070
ENDCHAR
STARTCHAR l
ENCODING 108
SWIDTH 278 0
DWIDTH 9 0
BBX 8 23 2 0
BITMAP
03
1F
07
06
0E
0E
0C
0C
1C
1C
18
38
38
38
30
70
70
60
60
E4
E8
F8
70
ENDCHAR
STARTCHAR m
ENCODING 109
SWIDTH 722 0
DWIDTH 24 0
BBX 23 15 1 0
BITMAP
0C7838
7CFCFC
1D9D9C
1A1E1C
3C1C1C
381838
383838
383838
703838
703038
707070
707072
E07074
E0E07C
E0E038
ENDCHAR
STARTCHAR n
ENCODING 110
SWIDTH 500 0
DWIDTH 16 0
BBX 15 15 1 0
BITMAP
0C78
7CFC
1D1C
1A1C
3C1C
381C
3838
3838
7038
7038
7070
6072
E074
E07C
E038
ENDCHAR
STARTCHAR o
ENCODING 111
SWIDTH 500 0
DWIDTH 17 0
BBX 15 15 1 0
BITMAP
01F0
039C
0E0C
1C0E
180E
380E
700E
701C
E01C
E038
E030
E070
60E0
7380
1F00
ENDCHAR
STARTCHAR p
ENCODING 112
SWIDTH 500 0
DWIDTH 17 0
BBX 19 22 -2 -7
BITMAP
018780
0F9FC0
03B1E0
03E0E0
03C0E0
0380E0
0380E0
0300C0
0701C0
070180
060380
0E0700
0E0E00
0F3800
0FF000
1C0000
1C0000
180000
180000
380000
380000
FE0000
ENDCHAR
STARTCHAR q
ENCODING 113
SWIDTH 500 0
DWIDTH 17 0
BBX 14 22 2 -7
BITMAP
01EC
073C
0E1C
1C1C
381C
3018
7018
6038
E038
E030
E070
E0F0
71E0
7EE0
1CE0
00E0
00E0
00C0
00C0
01C0
01C0
07F0
ENDCHAR
STARTCHAR r
ENCODING 114
SWIDTH 389 0
DWIDTH 13 0
BBX 12 15 2 0
BITMAP
0C60
7CF0
19F0
1B30
1E00
3C00
3800
3800
3000
7000
7000
7000
6000
E000
E000
ENDCHAR
STARTCHAR s
ENCODING 115
SWIDTH 389 0
DWIDTH 13 0
BBX 12 15 1 0
BITMAP
07D0
0E70
1C30
1C10
1C10
1E00
0E00
0700
0780
0380
81C0
81C0
C1C0
E380
BF00
ENDCHAR
STARTCHAR t
ENCODING 116
SWIDTH 278 0
DWIDTH 9 0
BBX 8 19 2 0
BITMAP
04
04
0C
1C
7F
1C
18
38
38
38
30
70
70
60
60
E4
E8
F8
70
ENDCHAR
STARTCHAR u
ENCODING 117
SWIDTH 500 0
DWIDTH 17 0
BBX 15 15 1 0
BITMAP
1C1C
FC1C
1C1C
381C
3838
3838
3838
3838
7038
7070
7070
70F0
71B2
7F3C
3C18
ENDCHAR
STARTCHAR v
ENCODING 118
SWIDTH 444 0
DWIDTH 15 0
BBX 14 15 0 0
BITMAP
1C38
FC3C
3C1C
0C0C
0E0C
0E18
0E18
0630
0670
0660
06E0
07C0
0780
0700
0600
ENDCHAR
STARTCHAR w
ENCODING 119
SWIDTH 667 0
DWIDTH 22 0
BBX 21 15 0 0
BITMAP
180C70
FC1C78
3C1C38
1C3C18
1C3C38
0C6C30
0CCC30
0CCC60
0D8CE0
0D0CC0
0F0D80
0E0F80
0C0F00
0C0E00
080C00
ENDCHAR
STARTCHAR x
ENCODING 120
SWIDTH 444 0
DWIDTH 15 0
BBX 16 15 -1 0
BITMAP
0607
3E0F
0F18
0730
0360
03E0
01C0
01C0
03C0
03E0
06E0
0CF2
1874
F07C
E038
ENDCHAR
STARTCHAR y
ENCODING 121
SWIDTH 444 0
DWIDTH 15 0
BBX 16 22 -1 -7
BITMAP
0707
3F07
0F03
0303
0383
0386
0386
018C
019C
0198
01B8
01F0
01E0
01E0
01C0
0180
0180
0300
0600
6E00
FC00
7000
ENDCHAR
STARTCHAR z
ENCODING 122
SWIDTH 389 0
DWIDTH 13 0
BBX 14 15 -1 0
BITMAP
0FFC
1FFC
1838
3070
00E0
00C0
0180
0300
0600
0E00
1C00
3830
7060
FFE0
FFC0
ENDCHAR
STARTCHAR braceleft
ENCODING 123
SWIDTH 400 0
DWIDTH 13 0
BBX 11 29 2 -6
BITMAP
01E0
03E0
0300
0600
0600
0600
0600
0C00
0C00
0C00
0C00
1800
3800
F000
C000
6000
3000
3000
3000
3000
3000
6000
6000
6000
6000
6000
6000
3000
3C00
ENDCHAR
STARTCHAR bar
ENCODING 124
SWIDTH 275 0
DWIDTH 9 0
BBX 9 29 0 -6
BITMAP
0180
0180
0100
0100
0300
0200
0200
0600
0600
0400
0400
0C00
0800
0800
1800
1800
1000
1000
3000
2000
2000
6000
6000
4000
4000
C000
8000
8000
8000
ENDCHAR
STARTCHAR braceright
ENCODING 125
SWIDTH 400 0
DWIDTH 13 0
BBX 11 29 -1 -6
BITMAP
0780
0180
00C0
00C0
00C0
00C0
00C0
00C0
0180
0180
0180
0180
0180
00C0
0060
01E0
0380
0300
0600
0600
0600
0600
0C00
0C00
0C00
0C00
1800
F800
F000
ENDCHAR
STARTCHAR asciitilde
ENCODING 126
SWIDTH 541 0
DWIDTH 18 0
BBX 16 4 1 6
BITMAP
1E03
7F87
E1FE
C0F8
ENDCHAR
STARTCHAR space
ENCODING 160
SWIDTH 250 0
DWIDTH 8 0
BBX 1 1 0 0
BITMAP
00
ENDCHAR
STARTCHAR exclamdown
ENCODING 161
SWIDTH 389 0
DWIDTH 13 0
BBX 8 22 2 -7
BITMAP
07
07
07
00
00
00
0C
0C
08
18
18
10
30
30
70
70
60
E0
E0
E0
C0
C0
ENDCHAR
STARTCHAR cent
ENCODING 162
SWIDTH 500 0
DWIDTH 17 0
BBX 13 23 2 -4
BITMAP
0010
0010
0020
0020
01E0
03F0
0E78
1CF8
1890
3880
7180
7100
E300
E300
E200
E620
E4C0
7F80
3E00
0C00
0800
1800
1000
ENDCHAR
STARTCHAR sterling
ENCODING 163
SWIDTH 500 0
DWIDTH 17 0
BBX 17 23 0 0
BITMAP
001F00
003380
007380
00E180
00E000
00C000
01C000
01C000
01C000
038000
3FF800
038000
038000
030000
030000
070000
070000
060000
760000
FF0600
CFFC00
DBF800
71F000
ENDCHAR
STARTCHAR currency
ENCODING 164
SWIDTH 500 0
DWIDTH 17 0
BBX 15 15 1 4
BITMAP
600C
F7DE
FFFE
7FFC
3C78
783C
701C
701C
701C
783C
3C78
7FFC
FFFE
F7DE
600C
ENDCHAR
STARTCHAR yen
ENCODING 165
SWIDTH 500 0
DWIDTH 17 0
BBX 21 23 0 0
BITMAP
3FC7F8
0E01C0
0E0180
070300
070300
070600
078C00
038800
039800
03F000
01E000
01C000
3FFC00
038000
038000
3FFC00
030000
070000
070000
0E0000
0E0000
1F0000
FFC000
ENDCHAR
STARTCHAR brokenbar
ENCODING 166
SWIDTH 275 0
DWIDTH 9 0
BBX 9 29 1 -6
BITMAP
0080
0180
0100
0100
0100
0300
0200
0200
0600
0600
0400
0400
0000
0000
0000
0000
0000
1000
1000
3000
3000
2000
2000
6000
4000
4000
C000
C000
8000
ENDCHAR
STARTCHAR section
ENCODING 167
SWIDTH 500 0
DWIDTH 17 0
BBX 13 28 2 -4
BITMAP
01F0
03B8
0638
0E10
0C00
0E00
0600
0700
0380
1F80
3BC0
70E0
60E0
6070
7030
3830
3870
1EE0
0FC0
0E00
0700
0300
0380
0180
4380
E300
EE00
7C00
ENDCHAR
STARTCHAR dieresis
ENCODING 168
SWIDTH 333 0
DWIDTH 11 0
BBX 9 3 4 18
BITMAP
E380
E380
E380
ENDCHAR
STARTCHAR copyright
ENCODING 169
SWIDTH 760 0
DWIDTH 25 0
BBX 22 24 2 -1
BITMAP
00FE00
03FF80
0F01C0
1C00E0
380070
300030
70FF38
61C718
E3831C
C3010C
C7000C
C7000C
C7000C
C7000C
C7000C
E7811C
638318
71EE38
30FC30
380070
1C00E0
0F01C0
03FF80
00FE00
ENDCHAR
STARTCHAR ordfeminine
ENCODING 170
SWIDTH 276 0
DWIDTH 9 0
BBX 10 13 0 10
BITMAP
0640
0FC0
1980
3180
3180
6180
6300
6740
7D80
3900
0000
0000
FF00
ENDCHAR
STARTCHAR guillemotleft
ENCODING 171
SWIDTH 500 0
DWIDTH 16 0
BBX 14 12 2 2
BITMAP
0204
060C
0C18
1830
3870
70E0
E1C0
E1C0
70E0
3060
1830
0810
ENDCHAR
STARTCHAR logicalnot
ENCODING 172
SWIDTH 675 0
DWIDTH 22 0
BBX 17 9 3 4
BITMAP
FFFF80
FFFF80
000180
000180
000180
000180
000180
000180
000180
ENDCHAR
STARTCHAR hyphen
ENCODING 173
SWIDTH 333 0
DWIDTH 11 0
BBX 7 2 2 6
BITMAP
FE
FE
ENDCHAR
STARTCHAR registered
ENCODING 174
SWIDTH 760 0
DWIDTH 25 0
BBX 22 24 2 -1
BITMAP
01FE00
07FF80
0F03C0
1C00E0
380070
300030
77FC38
618E18
E1821C
C1860C
C1860C
C18C0C
C1F80C
C19C0C
C18C0C
E18E1C
618618
77E3B8
300030
380070
1C00E0
0F03C0
07FF80
01FE00
ENDCHAR
STARTCHAR macron
ENCODING 175
SWIDTH 333 0
DWIDTH 11 0
BBX 9 2 4 18
BITMAP
7F80
FF00
ENDCHAR
STARTCHAR degree
ENCODING 176
SWIDTH 400 0
DWIDTH 13 0
BBX 9 8 2 15
BITMAP
3E00
6300
C180
C180
C180
C180
6300
3E00
ENDCHAR
STARTCHAR plusminus
ENCODING 177
SWIDTH 675 0
DWIDTH 23 0
BBX 16 21 3 0
BITMAP
0180
0180
0180
0180
0180
0180
0180
FFFF
FFFF
0180
0180
0180
0180
0180
0180
0180
0000
0000
0000
FFFF
FFFF
ENDCHAR
STARTCHAR twosuperior
ENCODING 178
SWIDTH 300 0
DWIDTH 10 0
BBX 9 14 1 9
BITMAP
1E00
3F00
6380
4180
0180
0180
0300
0300
0600
0C00
1800
3080
7F80
FF00
ENDCHAR
STARTCHAR threesuperior
ENCODING 179
SWIDTH 300 0
DWIDTH 10 0
BBX 10 14 0 9
BITMAP
0F80
18C0
10C0
00C0
0180
0700
1E00
0300
0180
0180
0180
C300
E700
7E00
ENDCHAR
STARTCHAR acute
ENCODING 180
SWIDTH 333 0
DWIDTH 11 0
BBX 6 6 7 17
BITMAP
0C
1C
38
70
C0
80
ENDCHAR
STARTCHAR mu
ENCODING 181
SWIDTH 500 0
DWIDTH 16 0
BBX 18 21 -1 -6
BITMAP
070700
3F0700
0F0700
0E0700
0E0E00
0E0E00
0E0E00
0E0E00
1C0C00
1C1C00
1C1C00
1C3E40
1CEE80
1FCF80
3F0700
200000
600000
600000
E00000
E00000
C00000
ENDCHAR
STARTCHAR paragraph
ENCODING 182
SWIDTH 523 0
DWIDTH 17 0
BBX 14 29 3 -6
BITMAP
03FC
0F98
1F98
3F10
7F30
7F30
FF30
FE20
FE60
FE60
FC40
FC40
7CC0
3CC0
0880
1980
1980
1980
1100
3300
3300
2200
6200
6600
6600
4400
CC00
CC00
8C00
ENDCHAR
STARTCHAR periodcentered
ENCODING 183
SWIDTH 250 0
DWIDTH 8 0
BBX 4 4 2 6
BITMAP
F0
F0
F0
F0
ENDCHAR
STARTCHAR cedilla
ENCODING 184
SWIDTH 333 0
DWIDTH 11 0
BBX 7 8 1 -7
BITMAP
08
18
30
7C
0E
06
8E
7C
ENDCHAR
STARTCHAR onesuperior
ENCODING 185
SWIDTH 300 0
DWIDTH 10 0
BBX 8 15 1 9
BITMAP
01
0F
06
06
06
06
0C
0C
0C
18
18
18
30
30
FC
ENDCHAR
STARTCHAR ordmasculine
ENCODING 186
SWIDTH 310 0
DWIDTH 10 0
BBX 10 13 1 10
BITMAP
0F80
1D80
30C0
60C0
60C0
C180
C180
C300
6E00
7C00
0000
0000
FF00
ENDCHAR
STARTCHAR guillemotright
ENCODING 187
SWIDTH 500 0
DWIDTH 16 0
BBX 14 12 1 1
BITMAP
2040
3060
1830
1C38
0E1C
0E1C
1C38
3870
3060
60C0
C180
8100
ENDCHAR
STARTCHAR onequarter
ENCODING 188
SWIDTH 750 0
DWIDTH 25 0
BBX 23 24 1 0
BITMAP
010000
0F0030
060030
060060
0600C0
0600C0
0C0180
0C0300
0C0300
180600
180C06
180C0E
30181E
303036
FC3066
0060C6
00C18C
00C30C
0187FE
0307FE
030018
060018
0C0030
0C0030
ENDCHAR
STARTCHAR onehalf
ENCODING 189
SWIDTH 750 0
DWIDTH 25 0
BBX 22 24 0 0
BITMAP
010000
0F0020
060060
0600C0
0600C0
060180
0C0300
0C0300
0C0600
180C00
1818F0
1819F8
30331C
30620C
FC600C
00C00C
018018
018018
030030
060060
0600C0
0C0184
1803FC
1807F8
ENDCHAR
STARTCHAR threequarters
ENCODING 190
SWIDTH 750 0
DWIDTH 25 0
BBX 23 23 0 0
BITMAP
0F8018
18C030
10C030
00C060
0180C0
0700C0
1E0180
030300
018300
018606
018C0E
C30C1E
E71836
7E3066
0070C6
00618C
00C30C
0187FE
0187FE
030018
060018
060030
0C0030
ENDCHAR
STARTCHAR questiondown
ENCODING 191
SWIDTH 500 0
DWIDTH 16 0
BBX 11 22 2 -7
BITMAP
00E0
00E0
00E0
0000
0000
0080
0180
0180
0300
0300
0600
0E00
1C00
3800
7000
6000
E000
C080
E1C0
E0C0
7180
3E00
ENDCHAR
STARTCHAR Agrave
ENCODING 192
SWIDTH 611 0
DWIDTH 20 0
BBX 20 30 -2 0
BITMAP
003000
003800
001C00
000E00
000700
000300
000000
000200
000600
000600
000E00
001F00
001700
003700
002700
006700
004700
00C780
018380
010380
030380
03FF80
060380
0C03C0
0C03C0
1801C0
1801C0
3001C0
7003E0
FC0FF0
ENDCHAR
STARTCHAR Aacute
ENCODING 193
SWIDTH 611 0
DWIDTH 20 0
BBX 20 30 -2 0
BITMAP
000060
0000E0
0001C0
000380
000700
000600
000000
000200
000600
000600
000E00
001F00
001700
003700
002700
006700
004700
00C780
018380
010380
030380
03FF80
060380
0C03C0
0C03C0
1801C0
1801C0
3001C0
7003E0
FC0FF0
ENDCHAR
STARTCHAR Acircumflex
ENCODING 194
SWIDTH 611 0
DWIDTH 20 0
BBX 20 30 -2 0
BITMAP
000380
000780
000DC0
0018C0
0030E0
006060
000000
000200
000600
000600
000E00
001F00
001700
003700
002700
006700
004700
00C780
018380
010380
030380
03FF80
060380
0C03C0
0C03C0
1801C0
1801C0
3001C0
7003E0
FC0FF0
ENDCHAR
STARTCHAR Atilde
ENCODING 195
SWIDTH 611 0
DWIDTH 20 0
BBX 20 27 -2 0
BITMAP
000E60
003FC0
006700
000000
000200
000600
000600
000E00
001F00
001700
003700
002700
006700
004700
00C780
018380
010380
030380
03FF80
060380
0C03C0
0C03C0
1801C0
1801C0
3001C0
7003E0
FC0FF0
ENDCHAR
STARTCHAR Adieresis
ENCODING 196
SWIDTH 611 0
DWIDTH 20 0
BBX 20 27 -2 0
BITMAP
0071C0
0071C0
0071C0
000000
000200
000600
000600
000E00
001F00
001700
003700
002700
006700
004700
00C780
018380
010380
030380
03FF80
060380
0C03C0
0C03C0
1801C0
1801C0
3001C0
7003E0
FC0FF0
ENDCHAR
STARTCHAR Aring
ENCODING 197
SWIDTH 611 0
DWIDTH 20 0
BBX 20 30 -2 0
BITMAP
000F00
001980
001080
001080
001980
000F00
000000
000200
000600
000600
000E00
001F00
001700
003700
002700
006700
004700
00C780
018380
010380
030380
03FF80
060380
0C03C0
0C03C0
1801C0
1801C0
3001C0
7003E0
FC0FF0
ENDCHAR
STARTCHAR AE
ENCODING 198
SWIDTH 889 0
DWIDTH 29 0
BBX 32 23 -2 0
BITMAP
000FFFFF
0001FC07
0001B803
00033802
00037802
00067000
000C7000
000CF010
0018F030
0030E020
0030E060
0061FFE0
00C1E0E0
0181C040
01FFC040
0303C040
06038000
0E038004
0C038008
18078018
38078030
780F80F0
FE1FFFE0
ENDCHAR
STARTCHAR Ccedilla
ENCODING 199
SWIDTH 667 0
DWIDTH 22 0
BBX 22 30 1 -7
BITMAP
003FC4
00FFFC
03C03C
070018
0E0018
1C0018
3C0010
380000
700000
700000
F00000
E00000
E00000
E00000
E00000
E00000
E00000
F00040
700180
780300
3C0E00
1FFC00
07F000
030000
060000
0F8000
01C000
00C000
11C000
0F8000
ENDCHAR
STARTCHAR Egrave
ENCODING 200
SWIDTH 611 0
DWIDTH 20 0
BBX 21 30 0 0
BITMAP
006000
007000
003800
001C00
000E00
000600
000000
07FFF8
01E038
01C018
01C010
03C010
038000
038000
078080
078180
070100
070300
0FFF00
0F0700
0E0200
0E0200
1E0200
1C0000
1C0000
1C0040
3C00C0
3C00C0
780380
FFFF80
ENDCHAR
STARTCHAR Eacute
ENCODING 201
SWIDTH 611 0
DWIDTH 20 0
BBX 21 30 0 0
BITMAP
000030
000070
0000E0
0001C0
000380
000600
000000
07FFF8
01E038
01C018
01C010
03C010
038000
038000
078080
078180
070100
070300
0FFF00
0F0700
0E0200
0E0200
1E0200
1C0000
1C0000
1C0040
3C00C0
3C00C0
780380
FFFF80
ENDCHAR
STARTCHAR Ecircumflex
ENCODING 202
SWIDTH 611 0
DWIDTH 20 0
BBX 21 30 0 0
BITMAP
000380
000780
000DC0
0018C0
0030E0
006060
000000
07FFF8
01E038
01C018
01C010
03C010
038000
038000
078080
078180
070100
070300
0FFF00
0F0700
0E0200
0E0200
1E0200
1C0000
1C0000
1C0040
3C00C0
3C00C0
780380
FFFF80
ENDCHAR
STARTCHAR Edieresis
ENCODING 203
SWIDTH 611 0
DWIDTH 20 0
BBX 21 28 0 0
BITMAP
0038E0
0038E0
0038E0
000000
000000
07FFF8
01E038
01C018
01C010
03C010
038000
038000
078080
078180
070100
070300
0FFF00
0F0700
0E0200
0E0200
1E0200
1C0000
1C0000
1C0040
3C00C0
3C00C0
780380
FFFF80
ENDCHAR
STARTCHAR Igrave
ENCODING 204
SWIDTH 333 0
DWIDTH 11 0
BBX 13 30 0 0
BITMAP
0600
0700
0380
01C0
00E0
0060
0000
07F8
01E0
01C0
01C0
03C0
0380
0380
0780
0780
0700
0700
0F00
0F00
0E00
0E00
1E00
1C00
1C00
1C00
3800
3800
7800
FE00
ENDCHAR
STARTCHAR Iacute
ENCODING 205
SWIDTH 333 0
DWIDTH 11 0
BBX 15 30 0 0
BITMAP
0006
000E
001C
0038
0070
00E0
0000
07F8
01E0
01C0
01C0
03C0
0380
0380
0780
0780
0700
0700
0F00
0F00
0E00
0E00
1E00
1C00
1C00
1C00
3800
3800
7800
FE00
ENDCHAR
STARTCHAR Icircumflex
ENCODING 206
SWIDTH 333 0
DWIDTH 11 0
BBX 14 30 0 0
BITMAP
0070
00F0
01B8
0318
061C
0C0C
0000
07F8
01E0
01C0
01C0
03C0
0380
0380
0780
0780
0700
0700
0F00
0F00
0E00
0E00
1E00
1C00
1C00
1C00
3800
3800
7800
FE00
ENDCHAR
STARTCHAR Idieresis
ENCODING 207
SWIDTH 333 0
DWIDTH 11 0
BBX 15 28 0 0
BITMAP
038E
038E
038E
0000
0000
07F8
01E0
01C0
01C0
03C0
0380
0380
0780
0780
0700
0700
0F00
0F00
0E00
0E00
1E00
1C00
1C00
1C00
3800
3800
7800
FE00
ENDCHAR
STARTCHAR Eth
ENCODING 208
SWIDTH 722 0
DWIDTH 23 0
BBX 24 23 0 0
BITMAP
07FF80
01FFE0
01C0F8
01C03C
03C01E
03C00E
03800F
038007
078007
070007
070007
3FF807
3FF007
0E000E
0E000E
1E001C
1C003C
1C0078
3C00F0
3803E0
380F80
7FFE00
FFF000
ENDCHAR
STARTCHAR Ntilde
ENCODING 209
SWIDTH 667 0
DWIDTH 22 0
BBX 25 28 -2 0
BITMAP
00039800
000FF000
0019C000
00000000
00000000
07C03F80
01E00E00
01E00C00
01E00C00
01700C00
01700800
03780800
03381800
02381800
021C1000
061C1000
061E3000
040E3000
040E2000
0C072000
0C076000
08076000
0803E000
1803C000
1801C000
1801C000
3801C000
FE00C000
ENDCHAR
STARTCHAR Ograve
ENCODING 210
SWIDTH 722 0
DWIDTH 24 0
BBX 19 30 3 0
BITMAP
00C000
00E000
007000
003800
001C00
000C00
000000
007E00
01C780
0301C0
0701C0
0E00E0
1E00E0
1C00E0
3800E0
7800E0
7801E0
7001E0
F001E0
F001C0
F003C0
E003C0
E00380
E00700
E00F00
E00E00
701C00
703800
3CE000
0F8000
ENDCHAR
STARTCHAR Oacute
ENCODING 211
SWIDTH 722 0
DWIDTH 24 0
BBX 19 30 3 0
BITMAP
0000C0
0001C0
000380
000700
000E00
000C00
000000
007E00
01C780
0301C0
0701C0
0E00E0
1E00E0
1C00E0
3800E0
7800E0
7801E0
7001E0
F001E0
F001C0
F003C0
E003C0
E00380
E00700
E00F00
E00E00
701C00
703800
3CE000
0F8000
ENDCHAR
STARTCHAR Ocircumflex
ENCODING 212
SWIDTH 722 0
DWIDTH 24 0
BBX 19 30 3 0
BITMAP
000E00
001E00
003700
006300
00C380
018180
000000
007E00
01C780
0301C0
0701C0
0E00E0
1E00E0
1C00E0
3800E0
7800E0
7801E0
7001E0
F001E0
F001C0
F003C0
E003C0
E00380
E00700
E00F00
E00E00
701C00
703800
3CE000
0F8000
ENDCHAR
STARTCHAR Otilde
ENCODING 213
SWIDTH 722 0
DWIDTH 24 0
BBX 19 28 3 0
BITMAP
001CC0
007F80
00CE00
000000
000000
007E00
01C780
0301C0
0701C0
0E00E0
1E00E0
1C00E0
3800E0
7800E0
7801E0
7001E0
F001E0
F001C0
F003C0
E003C0
E00380
E00700
E00F00
E00E00
701C00
703800
3CE000
0F8000
ENDCHAR
STARTCHAR Odieresis
ENCODING 214
SWIDTH 722 0
DWIDTH 24 0
BBX 19 28 3 0
BITMAP
0071C0
0071C0
0071C0
000000
000000
007E00
01C780
0301C0
0701C0
0E00E0
1E00E0
1C00E0
3800E0
7800E0
7801E0
7001E0
F001E0
F001C0
F003C0
E003C0
E00380
E00700
E00F00
E00E00
701C00
703800
3CE000
0F8000
ENDCHAR
STARTCHAR multiply
ENCODING 215
SWIDTH 675 0
DWIDTH 22 0
BBX 17 17 3 0
BITMAP
400100
E00380
700700
380E00
1C1C00
0E3800
077000
03E000
01C000
03E000
077000
0E3800
1C1C00
380E00
700700
E00380
400100
ENDCHAR
STARTCHAR Oslash
ENCODING 216
SWIDTH 722 0
DWIDTH 23 0
BBX 20 28 2 -3
BITMAP
000020
000060
003F40
00E3C0
0181E0
0381E0
070370
0F0670
0E0470
1C0C70
3C1870
3C10F0
3830F0
7860F0
7840E0
78C1E0
7181E0
7101C0
730380
720780
760700
3C0E00
381C00
3E7000
27C000
600000
C00000
800000
ENDCHAR
STARTCHAR Ugrave
ENCODING 217
SWIDTH 722 0
DWIDTH 24 0
BBX 23 30 3 0
BITMAP
006000
007000
003800
001C00
000E00
000600
000000
7FC0FE
1F0038
0E0018
0E0010
1E0030
1C0030
1C0020
3C0020
380060
380040
380040
7800C0
7000C0
700080
F00180
F00180
E00100
E00300
E00300
700600
781C00
3FF800
0FE000
ENDCHAR
STARTCHAR Uacute
ENCODING 218
SWIDTH 722 0
DWIDTH 24 0
BBX 23 30 3 0
BITMAP
0000C0
0001C0
000380
000700
000E00
000C00
000000
7FC0FE
1F0038
0E0018
0E0010
1E0030
1C0030
1C0020
3C0020
380060
380040
380040
7800C0
7000C0
700080
F00180
F00180
E00100
E00300
E00300
700600
781C00
3FF800
0FE000
ENDCHAR
STARTCHAR Ucircumflex
ENCODING 219
SWIDTH 722 0
DWIDTH 24 0
BBX 23 30 3 0
BITMAP
000700
000F00
001B80
003180
0061C0
00C0C0
000000
7FC0FE
1F0038
0E0018
0E0010
1E0030
1C0030
1C0020
3C0020
380060
380040
380040
7800C0
7000C0
700080
F00180
F00180
E00100
E00300
E00300
700600
781C00
3FF800
0FE000
ENDCHAR
STARTCHAR Udieresis
ENCODING 220
SWIDTH 722 0
DWIDTH 24 0
BBX 23 28 3 0
BITMAP
00E380
00E380
00E380
000000
000000
7FC0FE
1F0038
0E0018
0E0010
1E0030
1C0030
1C0020
3C0020
380060
380040
380040
7800C0
7000C0
700080
F00180
F00180
E00100
E00300
E00300
700600
781C00
3FF800
0FE000
ENDCHAR
STARTCHAR Yacute
ENCODING 221
SWIDTH 556 0
DWIDTH 19 0
BBX 20 30 2 0
BITMAP
000300
000700
000E00
001C00
003800
003000
000000
7F87F0
1E01C0
1E0300
1E0300
0E0600
0E0C00
0F1800
0F1800
073000
076000
07E000
03C000
03C000
038000
038000
078000
070000
070000
070000
0E0000
0E0000
1E0000
FFC000
ENDCHAR
STARTCHAR Thorn
ENCODING 222
SWIDTH 611 0
DWIDTH 20 0
BBX 19 23 0 0
BITMAP
03FC00
01F000
00E000
00E000
01E000
01C000
01FF00
03C3C0
03C1E0
0381E0
0380E0
0781E0
0701E0
0701C0
0F03C0
0F0F80
0FFE00
0E0000
1E0000
1C0000
1C0000
3C0000
FF0000
ENDCHAR
STARTCHAR germandbls
ENCODING 223
SWIDTH 500 0
DWIDTH 16 0
BBX 22 30 -5 -7
BITMAP
0003F0
000738
000E18
001C1C
00181C
00381C
00381C
003038
003030
0070E0
0063C0
0061E0
00E070
00E030
00E038
00C038
01C070
01C070
01C070
018C60
019CE0
039DC0
038F00
030000
030000
070000
660000
EE0000
EC0000
780000
ENDCHAR
STARTCHAR agrave
ENCODING 224
SWIDTH 500 0
DWIDTH 16 0
BBX 15 23 0 0
BITMAP
0180
01C0
00E0
0070
0018
0008
0000
0000
01EC
03BC
0E1C
1C1C
181C
3818
7018
7038
E038
E030
E070
E0F2
61B4
733C
1E18
ENDCHAR
STARTCHAR aacute
ENCODING 225
SWIDTH 500 0
DWIDTH 16 0
BBX 15 23 0 0
BITMAP
000C
001C
0038
0070
00C0
0080
0000
0000
01EC
03BC
0E1C
1C1C
181C
3818
7018
7038
E038
E030
E070
E0F2
61B4
733C
1E18
ENDCHAR
STARTCHAR acircumflex
ENCODING 226
SWIDTH 500 0
DWIDTH 16 0
BBX 15 23 0 0
BITMAP
0070
00F0
01B8
0318
061C
0C0C
0000
0000
01EC
03BC
0E1C
1C1C
181C
3818
7018
7038
E038
E030
E070
E0F2
61B4
733C
1E18
ENDCHAR
STARTCHAR atilde
ENCODING 227
SWIDTH 500 0
DWIDTH 16 0
BBX 16 21 0 0
BITMAP
0073
01FE
0338
0000
0000
0000
01EC
03BC
0E1C
1C1C
181C
3818
7018
7038
E038
E030
E070
E0F2
61B4
733C
1E18
ENDCHAR
STARTCHAR adieresis
ENCODING 228
SWIDTH 500 0
DWIDTH 16 0
BBX 15 21 0 0
BITMAP
071C
071C
071C
0000
0000
0000
01EC
03BC
0E1C
1C1C
181C
3818
7018
7038
E038
E030
E070
E0F2
61B4
733C
1E18
ENDCHAR
STARTCHAR aring
ENCODING 229
SWIDTH 500 0
DWIDTH 16 0
BBX 15 23 0 0
BITMAP
00F0
0198
0108
0108
0198
00F0
0000
0000
01EC
03BC
0E1C
1C1C
181C
3818
7018
7038
E038
E030
E070
E0F2
61B4
733C
1E18
ENDCHAR
STARTCHAR ae
ENCODING 230
SWIDTH 667 0
DWIDTH 22 0
BBX 21 15 1 0
BITMAP
01EDE0
03FF70
0E3C38
1C3838
183070
3830E0
7031C0
707700
E07C00
E06000
E0E000
E0E020
61E0C0
737380
1E3E00
ENDCHAR
STARTCHAR ccedilla
ENCODING 231
SWIDTH 444 0
DWIDTH 15 0
BBX 13 22 2 -7
BITMAP
01E0
0630
0C38
1838
3010
3000
7000
6000
E000
E000
E000
E020
E0C0
7380
3E00
0C00
1800
3E00
0700
0300
4700
3C00
ENDCHAR
STARTCHAR egrave
ENCODING 232
SWIDTH 444 0
DWIDTH 15 0
BBX 13 23 1 0
BITMAP
0300
0380
01C0
00E0
0030
0010
0000
0000
01E0
07F0
0E38
1C38
3870
30E0
71C0
7700
FC00
E000
E000
E020
E0C0
7380
3E00
ENDCHAR
STARTCHAR eacute
ENCODING 233
SWIDTH 444 0
DWIDTH 15 0
BBX 13 23 1 0
BITMAP
0018
0038
0070
00E0
0180
0100
0000
0000
01E0
07F0
0E38
1C38
3870
30E0
71C0
7700
FC00
E000
E000
E020
E0C0
7380
3E00
ENDCHAR
STARTCHAR ecircumflex
ENCODING 234
SWIDTH 444 0
DWIDTH 15 0
BBX 13 23 1 0
BITMAP
00E0
01E0
0370
0630
0C38
1818
0000
0000
01E0
07F0
0E38
1C38
3870
30E0
71C0
7700
FC00
E000
E000
E020
E0C0
7380
3E00
ENDCHAR
STARTCHAR edieresis
ENCODING 235
SWIDTH 444 0
DWIDTH 15 0
BBX 15 21 1 0
BITMAP
038E
038E
038E
0000
0000
0000
01E0
07F0
0E38
1C38
3870
30E0
71C0
7700
FC00
E000
E000
E020
E0C0
7380
3E00
ENDCHAR
STARTCHAR igrave
ENCODING 236
SWIDTH 278 0
DWIDTH 9 0
BBX 8 23 1 0
BITMAP
30
38
1C
0E
03
01
00
00
0C
7C
1C
18
38
38
30
70
70
70
60
E4
E8
F8
70
ENDCHAR
STARTCHAR iacute
ENCODING 237
SWIDTH 278 0
DWIDTH 9 0
BBX 9 23 1 0
BITMAP
0180
0380
0700
0E00
1800
1000
0000
0000
0C00
7C00
1C00
1800
3800
3800
3000
7000
7000
7000
6000
E400
E800
F800
7000
ENDCHAR
STARTCHAR icircumflex
ENCODING 238
SWIDTH 278 0
DWIDTH 9 0
BBX 11 23 1 0
BITMAP
0380
0780
0DC0
18C0
30E0
6060
0000
0000
0C00
7C00
1C00
1800
3800
3800
3000
7000
7000
7000
6000
E400
E800
F800
7000
ENDCHAR
STARTCHAR idieresis
ENCODING 239
SWIDTH 278 0
DWIDTH 9 0
BBX 10 21 1 0
BITMAP
39C0
39C0
39C0
0000
0000
0000
0C00
7C00
1C00
1800
3800
3800
3000
7000
7000
7000
6000
E400
E800
F800
7000
ENDCHAR
STARTCHAR eth
ENCODING 240
SWIDTH 500 0
DWIDTH 16 0
BBX 15 23 1 0
BITMAP
0400
0F00
038E
01FE
1FF0
1F70
0C38
0038
01FC
039C
0E0C
1C0E
180E
380E
700E
701C
E01C
E038
E030
E070
60E0
7380
1F00
ENDCHAR
STARTCHAR ntilde
ENCODING 241
SWIDTH 500 0
DWIDTH 16 0
BBX 15 21 1 0
BITMAP
01CC
07F8
0CE0
0000
0000
0000
0C78
7CFC
1D9C
1B1C
3E1C
3C1C
3C1C
3838
7838
7038
7038
7072
E074
E07C
E038
ENDCHAR
STARTCHAR ograve
ENCODING 242
SWIDTH 500 0
DWIDTH 17 0
BBX 15 23 1 0
BITMAP
0180
01C0
00E0
0070
0018
0008
0000
0000
01F0
039C
0E0C
1C0E
180E
380E
700E
701C
E01C
E038
E030
E070
60E0
7380
1F00
ENDCHAR
STARTCHAR oacute
ENCODING 243
SWIDTH 500 0
DWIDTH 17 0
BBX 15 23 1 0
BITMAP
000C
001C
0038
0070
00C0
0080
0000
0000
01F0
039C
0E0C
1C0E
180E
380E
700E
701C
E01C
E038
E030
E070
60E0
7380
1F00
ENDCHAR
STARTCHAR ocircumflex
ENCODING 244
SWIDTH 500 0
DWIDTH 17 0
BBX 15 23 1 0
BITMAP
0038
0078
00DC
018C
030E
0606
0000
0000
01F0
039C
0E0C
1C0E
180E
380E
700E
701C
E01C
E038
E030
E070
60E0
7380
1F00
ENDCHAR
STARTCHAR otilde
ENCODING 245
SWIDTH 500 0
DWIDTH 17 0
BBX 16 21 1 0
BITMAP
0073
01FE
0338
0000
0000
0000
01F0
039C
0E0C
1C0E
180E
380E
700E
701C
E01C
E038
E030
E070
60E0
7380
1F00
ENDCHAR
STARTCHAR odieresis
ENCODING 246
SWIDTH 500 0
DWIDTH 17 0
BBX 16 21 1 0
BITMAP
01C7
01C7
01C7
0000
0000
0000
01F0
039C
0E0C
1C0E
180E
380E
700E
701C
E01C
E038
E030
E070
60E0
7380
1F00
ENDCHAR
STARTCHAR divide
ENCODING 247
SWIDTH 675 0
DWIDTH 22 0
BBX 17 14 3 1
BITMAP
01C000
01C000
01C000
000000
000000
000000
FFFF80
FFFF80
000000
000000
000000
01C000
01C000
01C000
ENDCHAR
STARTCHAR oslash
ENCODING 248
SWIDTH 500 0
DWIDTH 17 0
BBX 15 23 1 -4
BITMAP
0008
0008
0018
0010
01F0
03BC
0E6C
1CCE
18CE
398E
718E
731C
E31C
E638
E630
EC70
6CE0
7B80
1F00
1000
3000
2000
2000
ENDCHAR
STARTCHAR ugrave
ENCODING 249
SWIDTH 500 0
DWIDTH 17 0
BBX 15 23 1 0
BITMAP
0300
0380
01C0
00E0
0030
0010
0000
0000
1C1C
FC1C
1C1C
381C
3838
3838
3838
3838
7030
7070
7070
70F0
71B2
7F3C
3C18
ENDCHAR
STARTCHAR uacute
ENCODING 250
SWIDTH 500 0
DWIDTH 17 0
BBX 15 23 1 0
BITMAP
0030
0070
00E0
01C0
0300
0200
0000
0000
1C1C
FC1C
1C1C
381C
3838
3838
3838
3838
7030
7070
7070
70F0
71B2
7F3C
3C18
ENDCHAR
STARTCHAR ucircumflex
ENCODING 251
SWIDTH 500 0
DWIDTH 17 0
BBX 15 23 1 0
BITMAP
00E0
01E0
0370
0630
0C38
1818
0000
0000
1C1C
FC1C
1C1C
381C
3838
3838
3838
3838
7030
7070
7070
70F0
71B2
7F3C
3C18
ENDCHAR
STARTCHAR udieresis
ENCODING 252
SWIDTH 500 0
DWIDTH 17 0
BBX 15 21 1 0
BITMAP
071C
071C
071C
0000
0000
0000
1C1C
FC1C
1C1C
381C
3838
3838
3838
3838
7030
7070
7070
70F0
71B2
7F3C
3C18
ENDCHAR
STARTCHAR yacute
ENCODING 253
SWIDTH 444 0
DWIDTH 15 0
BBX 16 30 -1 -7
BITMAP
000C
001C
0038
0070
00C0
0080
0000
0000
0707
3F07
0F03
0303
0383
0386
0386
018C
019C
0198
01B8
01F0
01E0
01E0
01C0
0180
0180
0300
0600
6E00
FC00
7000
ENDCHAR
STARTCHAR thorn
ENCODING 254
SWIDTH 500 0
DWIDTH 17 0
BBX 19 30 -3 -7
BITMAP
003000
01F000
007000
006000
006000
00E000
00E000
00C000
01C780
01DFC0
01F1E0
01E0E0
03C0E0
0380E0
0380E0
0300C0
0701C0
070180
060380
0E0700
0E0E00
0F3800
0FF000
1C0000
1C0000
180000
180000
380000
380000
FE0000
ENDCHAR
STARTCHAR ydieresis
ENCODING 255
SWIDTH 444 0
DWIDTH 15 0
BBX 16 28 -1 -7
BITMAP
01C7
01C7
01C7
0000
0000
0000
0707
3F07
0F03
0303
0383
0386
0386
018C
019C
0198
01B8
01F0
01E0
01E0
01C0
0180
0180
0300
0600
6E00
FC00
7000
ENDCHAR
STARTCHAR Lslash
ENCODING -1
SWIDTH 556 0
DWIDTH 18 0
BBX 19 23 -1 0
BITMAP
07F800
01E000
01C000
01C000
03C000
038000
038000
079800
07B000
07E000
07C000
0F0000
3F0000
7E0000
4E0000
1E0000
1C0000
1C0020
1C0060
3C00C0
3C01C0
7FFF80
FFFF80
ENDCHAR
STARTCHAR OE
ENCODING -1
SWIDTH 944 0
DWIDTH 31 0
BBX 30 23 1 0
BITMAP
007F7FFC
01FFFFFC
03C3E00C
0701E00C
0E01E008
1E01C000
1C01C000
3803C040
7803C0C0
78038080
70038180
F007FF80
F0078380
F0070100
E0070100
E00F0100
E00E0000
E00E0010
E00E0020
701E0060
703E00C0
3CFFFFC0
0FCFFF80
ENDCHAR
STARTCHAR Scaron
ENCODING -1
SWIDTH 500 0
DWIDTH 16 0
BBX 17 26 0 0
BITMAP
018180
01C300
00C600
00EC00
007800
007000
000000
01F980
038F00
070700
0E0300
0E0200
0F0200
078000
07E000
03E000
00F800
003800
803C00
801C00
C01C00
C01C00
E03800
F07800
FFF000
BFC000
ENDCHAR
STARTCHAR Ydieresis
ENCODING -1
SWIDTH 556 0
DWIDTH 19 0
BBX 19 25 -1 0
BITMAP
01C700
01C700
01C700
000000
000000
000000
7F8FE0
1E0180
1E0300
1E0600
070C00
071800
07B000
03E000
03C000
038000
078000
070000
070000
0F0000
0F0000
0E0000
0E0000
1F0000
FFC000
ENDCHAR
STARTCHAR Zcaron
ENCODING -1
SWIDTH 556 0
DWIDTH 18 0
BBX 21 26 -2 0
BITMAP
003030
003860
0018C0
001D80
000F00
000E00
000000
03FFF8
0780F0
0601E0
0C03C0
080780
100F00
001E00
003C00
007800
00F000
01E000
03C000
078000
0F0020
1E0040
3C00C0
780180
FFFF80
FFFF00
ENDCHAR
STARTCHAR breve
ENCODING -1
SWIDTH 333 0
DWIDTH 11 0
BBX 8 4 3 17
BITMAP
81
C3
7E
3C
ENDCHAR
STARTCHAR bullet
ENCODING -1
SWIDTH 350 0
DWIDTH 12 0
BBX 8 8 2 6
BITMAP
3C
7E
FF
FF
FF
FF
7E
3C
ENDCHAR
STARTCHAR caron
ENCODING -1
SWIDTH 333 0
DWIDTH 11 0
BBX 10 6 5 16
BITMAP
C0C0
E180
6300
7600
3C00
3800
ENDCHAR
STARTCHAR circumflex
ENCODING -1
SWIDTH 333 0
DWIDTH 11 0
BBX 10 6 2 17
BITMAP
0700
0F00
1B80
3180
61C0
C0C0
ENDCHAR
STARTCHAR dagger
ENCODING -1
SWIDTH 500 0
DWIDTH 16 0
BBX 13 26 3 -2
BITMAP
0300
0700
0700
0700
0300
0200
E238
FFF8
E638
0600
0600
0600
0600
0600
0600
0600
0C00
0C00
0C00
0C00
0C00
1800
1800
1800
1000
1000
ENDCHAR
STARTCHAR daggerdbl
ENCODING -1
SWIDTH 500 0
DWIDTH 16 0
BBX 16 27 0 -3
BITMAP
00E0
00E0
00E0
00E0
0060
0040
1C47
1FFF
1C87
0080
0180
0180
0380
0380
0380
0300
0300
0200
E238
FFF8
E238
0200
0600
0700
0700
0700
0700
ENDCHAR
STARTCHAR dotaccent
ENCODING -1
SWIDTH 333 0
DWIDTH 11 0
BBX 4 4 4 17
BITMAP
60
F0
F0
60
ENDCHAR
STARTCHAR dotlessi
ENCODING -1
SWIDTH 278 0
DWIDTH 9 0
BBX 6 15 2 0
BITMAP
0C
7C
1C
18
38
38
30
70
70
70
60
E4
E8
F8
70
ENDCHAR
STARTCHAR ellipsis
ENCODING -1
SWIDTH 889 0
DWIDTH 27 0
BBX 21 3 4 0
BITMAP
E07038
E07038
E07038
ENDCHAR
STARTCHAR emdash
ENCODING -1
SWIDTH 889 0
DWIDTH 28 0
BBX 28 2 0 6
BITMAP
FFFFFFF0
FFFFFFF0
ENDCHAR
STARTCHAR endash
ENCODING -1
SWIDTH 500 0
DWIDTH 16 0
BBX 16 2 0 6
BITMAP
FFFF
FFFF
ENDCHAR
STARTCHAR fi
ENCODING -1
SWIDTH 500 0
DWIDTH 16 0
BBX 20 30 -4 -7
BITMAP
0003C0
0006E0
000CE0
001CC0
001800
003800
003000
003000
03FFF0
007070
006070
006060
00E0E0
00E0E0
00E0C0
00C1C0
01C1C0
01C1C0
01C180
018390
0183A0
0383E0
0381C0
030000
030000
070000
660000
EE0000
EC0000
780000
ENDCHAR
STARTCHAR fl
ENCODING -1
SWIDTH 500 0
DWIDTH 16 0
BBX 22 30 -5 -7
BITMAP
0003FC
00067C
000C3C
001818
001838
003838
003030
003030
03FFF0
006070
006060
0060E0
00E0E0
00E0C0
00E0C0
00C1C0
01C1C0
01C180
01C180
018390
0183A0
0383E0
0381C0
030000
030000
070000
660000
EE0000
EC0000
780000
ENDCHAR
STARTCHAR florin
ENCODING -1
SWIDTH 500 0
DWIDTH 17 0
BBX 19 30 -2 -7
BITMAP
0007C0
000EE0
001CE0
001840
003800
003800
003000
007000
03FF00
007000
007000
00E000
00E000
00E000
00E000
01E000
01C000
01C000
01C000
01C000
038000
038000
038000
038000
070000
070000
670000
EE0000
EC0000
780000
ENDCHAR
STARTCHAR fraction
ENCODING -1
SWIDTH 167 0
DWIDTH 6 0
BBX 16 23 -6 0
BITMAP
0001
0003
0006
0006
000C
0018
0018
0030
0060
0060
00C0
0180
0180
0300
0600
0E00
0C00
1800
3000
3000
6000
C000
C000
ENDCHAR
STARTCHAR grave
ENCODING -1
SWIDTH 333 0
DWIDTH 11 0
BBX 6 6 5 17
BITMAP
C0
E0
70
38
0C
04
ENDCHAR
STARTCHAR guilsinglleft
ENCODING -1
SWIDTH 333 0
DWIDTH 11 0
BBX 7 12 2 2
BITMAP
02
06
0C
18
38
70
E0
E0
70
30
18
08
ENDCHAR
STARTCHAR guilsinglright
ENCODING -1
SWIDTH 333 0
DWIDTH 11 0
BBX 7 12 2 2
BITMAP
20
30
18
1C
0E
0E
1C
38
30
60
C0
80
ENDCHAR
STARTCHAR hungarumlaut
ENCODING -1
SWIDTH 333 0
DWIDTH 11 0
BBX 10 8 2 17
BITMAP
18C0
39C0
3180
7380
6300
6300
C600
C600
ENDCHAR
STARTCHAR lslash
ENCODING -1
SWIDTH 278 0
DWIDTH 9 0
BBX 9 23 1 0
BITMAP
0700
1F00
0700
0600
0E00
0E00
0C00
0D80
1F80
1E00
1800
F800
F800
3800
3000
7000
7000
6000
6000
E400
E800
F800
7000
ENDCHAR
STARTCHAR oe
ENCODING -1
SWIDTH 667 0
DWIDTH 22 0
BBX 20 15 1 0
BITMAP
01F1E0
03BBB0
0E1E30
1C1C30
181C60
3818C0
703F80
703E00
E03000
E07000
E07000
E07060
60F0E0
73BF80
1F1E00
ENDCHAR
STARTCHAR ogonek
ENCODING -1
SWIDTH 333 0
DWIDTH 11 0
BBX 7 8 -1 -5
BITMAP
10
20
60
C0
C0
E2
7C
38
ENDCHAR
STARTCHAR perthousand
ENCODING -1
SWIDTH 1000 0
DWIDTH 33 0
BBX 32 24 0 -1
BITMAP
0F01C000
39C78000
71FF0000
60BB0000
E0820000
E0860000
C18C0000
C1080000
C3180000
6E300000
3C200000
00600000
0041E01E
00C73073
018E30E3
010C10C1
031C11C1
021C11C1
06183183
0C182182
08186186
180DC0DC
30078078
30000000
ENDCHAR
STARTCHAR quotedblbase
ENCODING -1
SWIDTH 556 0
DWIDTH 19 0
BBX 12 8 1 -5
BITMAP
3870
3870
3870
1830
1020
3060
60C0
C180
ENDCHAR
STARTCHAR quotedblleft
ENCODING -1
SWIDTH 556 0
DWIDTH 19 0
BBX 12 8 5 15
BITMAP
1830
3060
60C0
4080
C180
E1C0
E1C0
E1C0
ENDCHAR
STARTCHAR quotedblright
ENCODING -1
SWIDTH 556 0
DWIDTH 19 0
BBX 12 8 1 15
BITMAP
3870
3870
3870
1830
1020
3060
60C0
C180
ENDCHAR
STARTCHAR quotesinglbase
ENCODING -1
SWIDTH 333 0
DWIDTH 11 0
BBX 5 8 2 -5
BITMAP
38
38
38
18
10
30
60
C0
ENDCHAR
STARTCHAR quotesingle
ENCODING -1
SWIDTH 214 0
DWIDTH 7 0
BBX 4 8 4 15
BITMAP
20
70
70
E0
E0
C0
C0
80
ENDCHAR
STARTCHAR ring
ENCODING -1
SWIDTH 333 0
DWIDTH 11 0
BBX 6 6 8 17
BITMAP
78
CC
84
84
CC
78
ENDCHAR
STARTCHAR scaron
ENCODING -1
SWIDTH 389 0
DWIDTH 13 0
BBX 14 22 1 0
BITMAP
0C0C
0E18
0630
0760
03C0
0380
0000
07D0
0E70
1C30
1C10
1C10
1E00
0E00
0700
0780
0380
81C0
81C0
C1C0
E380
BF00
ENDCHAR
STARTCHAR tilde
ENCODING -1
SWIDTH 333 0
DWIDTH 11 0
BBX 10 3 3 18
BITMAP
1CC0
7F80
CE00
ENDCHAR
STARTCHAR trademark
ENCODING -1
SWIDTH 980 0
DWIDTH 33 0
BBX 31 14 1 9
BITMAP
FFF3803E
C631C038
8611E078
06016058
060130D8
06013098
06013998
06011998
06011D18
06010F18
06010F18
06010618
06010618
1F83C67E
ENDCHAR
STARTCHAR zcaron
ENCODING -1
SWIDTH 389 0
DWIDTH 13 0
BBX 14 22 1 0
BITMAP
0C0C
0E18
0630
0760
03C0
0380
0000
7FE0
FFE0
80E0
01C0
0180
0300
0600
0E00
1C00
1800
3000
7000
E020
FFE0
FFC0
ENDCHAR
ENDFONT
