/* XPM */
static char * puffin_32_xpm[] = {
"32 32 202 2",
"  	c None",
". 	c #292929",
"+ 	c #010101",
"@ 	c #000000",
"# 	c #515151",
"$ 	c #454233",
"% 	c #474B51",
"& 	c #BBBBBB",
"* 	c #F1F1F1",
"= 	c #E0E0E0",
"- 	c #999999",
"; 	c #993E0F",
"> 	c #3E5041",
", 	c #FFFFFF",
"' 	c #ACACAC",
") 	c #EFEFEF",
"! 	c #8B8B8B",
"~ 	c #151515",
"{ 	c #202020",
"] 	c #FF9268",
"^ 	c #601001",
"/ 	c #96ACAF",
"( 	c #B8B8B8",
"_ 	c #6B6B6B",
": 	c #D2D2D2",
"< 	c #DCDCDC",
"[ 	c #636363",
"} 	c #F55B15",
"| 	c #977711",
"1 	c #12314B",
"2 	c #F4F4F4",
"3 	c #FBFBFB",
"4 	c #E3E3E3",
"5 	c #080808",
"6 	c #0E0E0E",
"7 	c #DF715C",
"8 	c #D42C1B",
"9 	c #FFBC26",
"0 	c #1E3504",
"a 	c #454A76",
"b 	c #FDFCFB",
"c 	c #E1E1E1",
"d 	c #121212",
"e 	c #282828",
"f 	c #DC6145",
"g 	c #D44C40",
"h 	c #F1714A",
"i 	c #F4C427",
"j 	c #2A2C03",
"k 	c #44454E",
"l 	c #ADADAD",
"m 	c #E0DFDF",
"n 	c #9C9C9C",
"o 	c #050505",
"p 	c #1E1E1E",
"q 	c #17171A",
"r 	c #131313",
"s 	c #131315",
"t 	c #090909",
"u 	c #6B6C6B",
"v 	c #D0D1D3",
"w 	c #3E3F3F",
"x 	c #D7D9DA",
"y 	c #E8EAEC",
"z 	c #E9ECED",
"A 	c #ABADAD",
"B 	c #4B4B4C",
"C 	c #E0E2E3",
"D 	c #FBFDFD",
"E 	c #FEFFFF",
"F 	c #848586",
"G 	c #D8DADA",
"H 	c #DADBDC",
"I 	c #ECEDEC",
"J 	c #EDF2FF",
"K 	c #03042F",
"L 	c #DADBDD",
"M 	c #DCDFE3",
"N 	c #EEECD6",
"O 	c #6B6A38",
"P 	c #D7DBE5",
"Q 	c #D8DBE3",
"R 	c #FDE332",
"S 	c #FFF22F",
"T 	c #DFD328",
"U 	c #71680E",
"V 	c #D9DBDB",
"W 	c #D9DBDF",
"X 	c #D3DAF7",
"Y 	c #F3DF5C",
"Z 	c #FFE82D",
"` 	c #FEFC31",
" .	c #FEFD32",
"..	c #B8AC1E",
"+.	c #241F01",
"@.	c #545456",
"#.	c #DFE1E1",
"$.	c #D5D7D8",
"%.	c #DADBDB",
"&.	c #D6DBEB",
"*.	c #FBE23C",
"=.	c #FFE22B",
"-.	c #FFE62C",
";.	c #F9DF2A",
">.	c #C3AD1F",
",.	c #B5A51D",
"'.	c #9B9118",
").	c #625D0B",
"!.	c #050500",
"~.	c #DADBD8",
"{.	c #D4DAF5",
"].	c #D7DBE7",
"^.	c #FAE23D",
"/.	c #FFE42C",
"(.	c #FFE02B",
"_.	c #FFEF2E",
":.	c #EAD729",
"<.	c #9C8F17",
"[.	c #4A3F06",
"}.	c #D2DAFC",
"|.	c #DDDCCE",
"1.	c #FFE32C",
"2.	c #FFE32B",
"3.	c #FFF32F",
"4.	c #FFEB2D",
"5.	c #F2D428",
"6.	c #FFE746",
"7.	c #FFE95B",
"8.	c #DFE0E1",
"9.	c #DADBDA",
"0.	c #CFD9FE",
"a.	c #F0DF72",
"b.	c #FFE72D",
"c.	c #FFE12B",
"d.	c #FFE434",
"e.	c #FFE95D",
"f.	c #DCDEDE",
"g.	c #D7DADA",
"h.	c #D4DAF6",
"i.	c #E0DDBE",
"j.	c #FFDD2A",
"k.	c #FFEC71",
"l.	c #DADCDD",
"m.	c #D9DBDC",
"n.	c #D3DBFC",
"o.	c #F2DF6A",
"p.	c #FFE52C",
"q.	c #FFE84B",
"r.	c #D7D9D7",
"s.	c #D5D8E9",
"t.	c #D5DEF2",
"u.	c #F7E853",
"v.	c #FFE22C",
"w.	c #FFE74B",
"x.	c #D5DBD9",
"y.	c #D5E2F7",
"z.	c #D9D4DA",
"A.	c #E8E599",
"B.	c #F3F884",
"C.	c #F8E649",
"D.	c #FEDF2C",
"E.	c #FFDE2A",
"F.	c #FFE84F",
"G.	c #DC9382",
"H.	c #D85F53",
"I.	c #DBD6F4",
"J.	c #D58895",
"K.	c #DAC2C7",
"L.	c #DBE7E0",
"M.	c #DFDCBD",
"N.	c #E3DCA9",
"O.	c #E7DC94",
"P.	c #EADD82",
"Q.	c #EEDF7E",
"R.	c #FDE759",
"S.	c #FFE748",
"T.	c #DA4B28",
"U.	c #E58B79",
"V.	c #DE421A",
"W.	c #E69383",
"X.	c #D9512F",
"Y.	c #E0755E",
"Z.	c #D74822",
"`.	c #E3816E",
" +	c #D23A0F",
".+	c #D95638",
"++	c #D85333",
"@+	c #CC2303",
"#+	c #E38673",
"$+	c #DF7159",
"%+	c #D64925",
"&+	c #D43F16",
"*+	c #D33B10",
"=+	c #D13407",
"-+	c #E07963",
";+	c #E28674",
">+	c #DB6045",
",+	c #D03206",
"'+	c #D9593D",
")+	c #DC664C",
"!+	c #E8998A",
"~+	c #E07A65",
"              . + @ @ #                                         ",
"        $ % & * = - + @ @                                       ",
"      ; > , = ' , , ) ! ~ {                                     ",
"    ] ^ / , ( _ : < , , , [                                     ",
"    } | 1 , , , , 2 3 , 4 5 6                                   ",
"  7 8 9 0 a b , , , , c d @ e                                   ",
"  f g h i j k l = m n o @ @ p                                   ",
"              q @ @ @ @ @ @ r                                   ",
"              s @ @ @ @ @ @ t                                   ",
"            u @ @ @ @ @ @ @ @                                   ",
"            v w @ @ @ @ @ @ @ {                                 ",
"          x y z A B @ @ @ @ @ @ @                               ",
"          x x C D E F @ @ @ @ @ @ @                             ",
"          G H H x I J K @ @ @ @ @ @ @                           ",
"          G H H L M N O @ @ @ @ @ @ @ @                         ",
"          x H H P Q R S T U @ @ @ @ @ @ @                       ",
"          V G H W X Y Z `  ...+.@ @ @ @ @ @.                    ",
"          #.$.H %.&.Q *.=.-. .;.>.,.'.).!.@                     ",
"            x G H ~.{.].^./.(._. . . . .:.<.[.                  ",
"              $.H H ~.}.|.1./.2.2.2.=./.3. .4.5.6.7.            ",
"              8.$.V H 9.0.a./.2.2.2.2.2.2.=.b.b.(.(.c.d.e.      ",
"                f.g.G %.h.i./.2.2.2.2.2.2.2.2.2.2.2.2.(.j.j.k.  ",
"                    l.x m.n.o.p.2.2.2.2.2.2.2.2.2.=.1.q.        ",
"                        r.s.t.u././././.2.2.2.2.2.=.v.w.        ",
"                          x.y.z.A.B.C.D.2././././.c.(.(.E.E.F.  ",
"                            G.H.I.J.K.L.M.N.O.P.Q.R.      S.    ",
"                            T.  U.V.                            ",
"                        W.X.Y.  Z.                              ",
"                      `. +.+++@+#+                              ",
"              $+%+&+*+=+-+  ;+                                  ",
"              >+,+'+)+!+                                        ",
"                ~+                                              "};
