/* XPM */
static char * puffin_48_xpm[] = {
"48 48 280 2",
"  	c None",
". 	c #222222",
"+ 	c #030303",
"@ 	c #000000",
"# 	c #151515",
"$ 	c #404040",
"% 	c #1B1B1B",
"& 	c #1A1A1A",
"* 	c #4D4D4D",
"= 	c #6C6C6C",
"- 	c #6D6D6D",
"; 	c #373737",
"> 	c #424242",
", 	c #4A4829",
"' 	c #010104",
") 	c #949494",
"! 	c #F0F0F0",
"~ 	c #FFFFFF",
"{ 	c #FDFDFD",
"] 	c #B9B9B9",
"^ 	c #303030",
"/ 	c #242424",
"( 	c #BE7B26",
"_ 	c #010801",
": 	c #CBCBCC",
"< 	c #C4C4C4",
"[ 	c #F3F3F3",
"} 	c #F6F6F6",
"| 	c #A0A0A0",
"1 	c #2C2C2C",
"2 	c #3B3B3B",
"3 	c #E66737",
"4 	c #947010",
"5 	c #4B5059",
"6 	c #F8F8F8",
"7 	c #7D7D7D",
"8 	c #E0E0E0",
"9 	c #B8B8B8",
"0 	c #393939",
"a 	c #DC6553",
"b 	c #ED7F2D",
"c 	c #847410",
"d 	c #494C59",
"e 	c #9C9C9C",
"f 	c #B1B1B1",
"g 	c #D6D6D6",
"h 	c #CFCFCF",
"i 	c #CCCCCC",
"j 	c #F1F1F1",
"k 	c #616161",
"l 	c #292929",
"m 	c #D54831",
"n 	c #F19233",
"o 	c #978B16",
"p 	c #010315",
"q 	c #EAEAEA",
"r 	c #828282",
"s 	c #060606",
"t 	c #DF715A",
"u 	c #D74F36",
"v 	c #E77B35",
"w 	c #DAC424",
"x 	c #727375",
"y 	c #AAAAAA",
"z 	c #D95A3D",
"A 	c #D9583A",
"B 	c #D8533E",
"C 	c #FCC32B",
"D 	c #989017",
"E 	c #777778",
"F 	c #050505",
"G 	c #D8502F",
"H 	c #D95637",
"I 	c #D9543B",
"J 	c #DD6132",
"K 	c #FDD128",
"L 	c #7B7110",
"M 	c #2D2D2F",
"N 	c #ADADAD",
"O 	c #818181",
"P 	c #010101",
"Q 	c #E2806C",
"R 	c #E89064",
"S 	c #FFE547",
"T 	c #3C3C3C",
"U 	c #2D2D2D",
"V 	c #5D5D5D",
"W 	c #767676",
"X 	c #5B5B5B",
"Y 	c #131313",
"Z 	c #545454",
"` 	c #B8B9BA",
" .	c #E2E4E4",
"..	c #DEDFE0",
"+.	c #636464",
"@.	c #414141",
"#.	c #DADBDC",
"$.	c #DBDDDE",
"%.	c #DADCDD",
"&.	c #929393",
"*.	c #303131",
"=.	c #282828",
"-.	c #D9DBDB",
";.	c #E4E6E7",
">.	c #A7A8A8",
",.	c #474848",
"'.	c #090909",
").	c #DDDFDF",
"!.	c #E3E4E5",
"~.	c #E1E3E4",
"{.	c #909192",
"].	c #E8EAEB",
"^.	c #6B6C6D",
"/.	c #ACAEAF",
"(.	c #DFE1EB",
"_.	c #B0B2B9",
":.	c #DADBDD",
"<.	c #D9DBDF",
"[.	c #ECE091",
"}.	c #ECD640",
"|.	c #C3AC1E",
"1.	c #171301",
"2.	c #101010",
"3.	c #DADBDE",
"4.	c #F8E146",
"5.	c #FFE52C",
"6.	c #FFEB2D",
"7.	c #FFEE2E",
"8.	c #ECD127",
"9.	c #76680E",
"0.	c #4F4F4F",
"a.	c #DFE0E1",
"b.	c #D7DBE6",
"c.	c #EDDF83",
"d.	c #FFE42C",
"e.	c #FFE32B",
"f.	c #FFE82D",
"g.	c #FFED2E",
"h.	c #BDA71D",
"i.	c #211D01",
"j.	c #DCDBD0",
"k.	c #FBE239",
"l.	c #ECD428",
"m.	c #847310",
"n.	c #2B2502",
"o.	c #120E01",
"p.	c #020100",
"q.	c #DCDEDF",
"r.	c #D8DBE3",
"s.	c #E1DDB9",
"t.	c #FDE234",
"u.	c #FFE72C",
"v.	c #FFEC2E",
"w.	c #F9DE2A",
"x.	c #F2D628",
"y.	c #EDD227",
"z.	c #DDC324",
"A.	c #B6A11C",
"B.	c #72630D",
"C.	c #1D1801",
"D.	c #57585B",
"E.	c #DFDCC3",
"F.	c #FCE237",
"G.	c #FFE62C",
"H.	c #FFE92D",
"I.	c #F2D729",
"J.	c #AE9B1A",
"K.	c #5D5109",
"L.	c #080400",
"M.	c #646675",
"N.	c #DFE1E2",
"O.	c #D7DBE7",
"P.	c #E1DDB7",
"Q.	c #FFE32D",
"R.	c #FFEA2D",
"S.	c #F1D528",
"T.	c #BEA81E",
"U.	c #E6D45D",
"V.	c #D7DBE8",
"W.	c #EBDF8A",
"X.	c #FFE22B",
"Y.	c #FFE431",
"Z.	c #FFE744",
"`.	c #DADBD8",
" +	c #FBE23B",
".+	c #FFE32C",
"++	c #FFE63C",
"@+	c #EEDF79",
"#+	c #FFE42E",
"$+	c #FFE854",
"%+	c #E1DDBA",
"&+	c #FFE02B",
"*+	c #FFE432",
"=+	c #D8DBE4",
"-+	c #EEDF7A",
";+	c #FFE42D",
">+	c #FFE42F",
",+	c #FFE63B",
"'+	c #FFE95B",
")+	c #DADBDB",
"!+	c #F8E148",
"~+	c #DFDCC4",
"{+	c #FFE741",
"]+	c #D9DBDC",
"^+	c #DADCDC",
"/+	c #D7E2EB",
"(+	c #DDE2D2",
"_+	c #F0DF6F",
":+	c #FAE23D",
"<+	c #FEE32D",
"[+	c #FFE84D",
"}+	c #D8DBDC",
"|+	c #DBDBDC",
"1+	c #DEACA3",
"2+	c #DCB0AD",
"3+	c #D9D9E3",
"4+	c #DBE1E0",
"5+	c #E0DDC5",
"6+	c #E4DEAC",
"7+	c #E9DE8F",
"8+	c #EFDF74",
"9+	c #F4E059",
"0+	c #F8E144",
"a+	c #FCE234",
"b+	c #E3B3AB",
"c+	c #D84721",
"d+	c #DC5C3F",
"e+	c #E3D6D4",
"f+	c #DE9B91",
"g+	c #DA6857",
"h+	c #DFB4B5",
"i+	c #D8E1ED",
"j+	c #DBDBD2",
"k+	c #DEDCC5",
"l+	c #E1DCB8",
"m+	c #E4DCAA",
"n+	c #E6DEA5",
"o+	c #EEE499",
"p+	c #DD644B",
"q+	c #D95537",
"r+	c #D74925",
"s+	c #DF684E",
"t+	c #DEE0E3",
"u+	c #DCDEE4",
"v+	c #DCDFE6",
"w+	c #E58B79",
"x+	c #E0745D",
"y+	c #E07A65",
"z+	c #DE6E56",
"A+	c #D95738",
"B+	c #DC664C",
"C+	c #D64D2A",
"D+	c #DD6C53",
"E+	c #D95536",
"F+	c #E0755E",
"G+	c #DC694F",
"H+	c #D85131",
"I+	c #D85031",
"J+	c #D95638",
"K+	c #E27F6C",
"L+	c #D85434",
"M+	c #DA5B3E",
"N+	c #DA5E42",
"O+	c #DA5C3F",
"P+	c #DB6044",
"Q+	c #DF7660",
"R+	c #D85233",
"S+	c #DA5B3F",
"T+	c #DE6F57",
"U+	c #DA5F43",
"V+	c #D85333",
"W+	c #D9593C",
"X+	c #D95839",
"Y+	c #E17F6A",
"Z+	c #DA5C40",
"`+	c #D95B3E",
" @	c #E48B7A",
".@	c #D74E2D",
"+@	c #DB6247",
"@@	c #E38875",
"                      . + @ @ # $                                                               ",
"                % & * = - ; @ @ @ @ >                                                           ",
"            , ' ) ! ~ ~ ~ { ] ^ @ @ @ /                                                         ",
"          ( _ : ~ ~ < [ ~ ~ ~ } | 1 @ @ 2                                                       ",
"        3 4 5 ~ ~ 6 % 7 8 ! ~ ~ ~ } 9 7 0                                                       ",
"      a b c d ~ ~ ~ e f g h i j ~ ~ ~ ~ k l                                                     ",
"      m n o p q ~ ~ ~ ~ ~ ~ { { ~ ~ ~ r @ s                                                     ",
"    t u v w @ x ~ ~ ~ ~ ~ ~ ~ ~ ~ ~ y @ @ @                                                     ",
"    z A B C D @ E 6 ~ ~ ~ ~ ~ ~ ~ ] F @ @ @                                                     ",
"    G H I J K L @ M N [ ~ ~ ~ q O P @ @ @ @                                                     ",
"    Q       R S     T U V W X Y @ @ @ @ @ @                                                     ",
"                      # @ @ @ @ @ @ @ @ @ @                                                     ",
"                    - @ @ @ @ @ @ @ @ @ @ @                                                     ",
"                    @ @ @ @ @ @ @ @ @ @ @ @ Z                                                   ",
"                  ` @ @ @ @ @ @ @ @ @ @ @ @ #                                                   ",
"                 ...+.@ @ @ @ @ @ @ @ @ @ @ @ @.                                                ",
"                #.$.%.&.*.@ @ @ @ @ @ @ @ @ @ @ =.                                              ",
"                -.#.$.;.#.>.,.@ @ @ @ @ @ @ @ @ @ '.                                            ",
"              ).-.#.#.#.$.!.~.{.P @ @ @ @ @ @ @ @ @ @                                           ",
"              %.#.#.#.#.#.#.$.].^.@ @ @ @ @ @ @ @ @ @ @                                         ",
"              #.#.#.#.#.#.#.#. ./.@ @ @ @ @ @ @ @ @ @ @ @                                       ",
"              #.#.#.#.#.#.#.#.(._.@ @ @ @ @ @ @ @ @ @ @ @ P                                     ",
"              #.#.#.#.#.#.:.<.[.}.|.c 1.@ @ @ @ @ @ @ @ @ @ 2.                                  ",
"              $.#.#.#.#.#.:.3.4.5.6.7.8.9.@ @ @ @ @ @ @ @ @ @ 0.                                ",
"              a.-.#.#.#.#.#.b.c.d.e.e.f.g.h.i.@ @ @ @ @ @ @ @ @                                 ",
"                -.#.#.#.#.#.<.j.k.e.e.e.d.g.l.m.n.1.o.p.@ @ @ @ ^                               ",
"                q.-.#.#.#.#.#.r.s.t.e.e.e.e.u.v.w.x.y.z.A.B.C.@ @ D.                            ",
"                  -.#.#.#.#.#.#.b.E.F.e.e.e.e.e.5.G.u.H.g.v.I.J.K.L.M.                          ",
"                  N.-.#.#.#.#.#.#.O.P.Q.e.e.e.e.e.e.e.e.e.e.G.v.R.S.T.U.                        ",
"                    $.-.#.#.#.#.#.#.V.W.e.e.e.e.e.e.e.e.e.e.e.e.e.u.6.d.X.Y.Z.                  ",
"                      #.#.#.#.#.#.#.<.`. +e.e.e.e.e.e.e.e.e.e.e.e.e.e.e.e.e.X.X..+++            ",
"                        %.#.#.#.#.#.#.O.@+d.e.e.e.e.e.e.e.e.e.e.e.e.e.e.e.e.e.e.e.X.X.#+$+      ",
"                          %.-.#.#.#.#.r.%+e.e.e.e.e.e.e.e.e.e.e.e.e.e.e.e.e.e.e.e.e.e.X.&+*+    ",
"                            ..#.-.#.#.#.=+-+d.e.e.e.e.e.e.e.e.e.e.e.e.e.e.e.e.e..+;+>+,+'+      ",
"                                q.-.#.#.<.)+!+e.e.e.e.e.e.e.e.e.e.e.e.e.e.e.e.e.Z.              ",
"                                    #.#.#.r.~+F.d.e.e.e.e.e.e.e.e.e.e.e.e.e.e.e.e.>+{+          ",
"                                      ]+)+^+/+(+_+:+<+e.d.d.d.e.e.e.e.e.e.e.e.e.e.e.X.X.e.[+    ",
"                                        }+|+1+2+3+4+5+6+7+8+9+0+a+Q.e.e.e.e.e.e.d..+e.X.X..+    ",
"                                          b+c+d+e+f+g+h+i+b.r.-.j+k+l+m+n+o+                    ",
"                                          p+q+    r+s+          t+u+v+                          ",
"                                        w+G     x+z                                             ",
"                                    y+z+A+y+y+B+C+                                              ",
"                                    D+E+F+G+H+I+J+                                              ",
"                        K+L+M+N+O+A G P+Q+R+S+T+                                                ",
"                      U+V+W+X+A+q+J+Y+                                                          ",
"                      P+X+J+L+Z+`+ @                                                            ",
"                        .@+@                                                                    ",
"                        @@                                                                      "};
