/* XPM */
static char* metanet = {
"71 55 8 2",
"__ c #000000",
"_` c #f5deb3",
"_a c #006400",
"_b c #ff0000",
"_c c #0000ff",
"_d c #228b22",
"_e c #ffa500",
"_f c #ee82ee",
"_`_`_`_`_`_`_`_`_`_`_`_`_`_`_`_`_`_`_`_`_`_`_`_`_`_`_`_`_`_`_`_`_`_`_`_`_`_`_`_`_`_`_`_`_`_`_`_`_`_`_`_`_`_`_`_`_`_`_`_`_`_`_`_`_`_`_`_`_`_`_`", 
"_`_`_`_`_`_`_`_`_`_`_`_`_`_`_`_`_`_`_`_`_`_`_`_`_`_`_`_`_`_`_`_`_`_`_`_`_`_`_`_`_`_`_`_`_`_`_`_`_`_`_`_`_`_`_`_`_`_`_`_`_`_`_`_`_`_`_`_`_`_`_`", 
"_`_`_`_`_`_`_`_`_f_f_`_`_`_`_`_`_`_`_`_`_`_`_`_`_`_`_`_`_`_`_`_`_`_`_`_`_`_`_`_`_`_`_`_`_`_`_`_`_`_`_`_`_`_`_`_`_`_`_`_`_`_d_d_d_d_d_`_`_`_`_`", 
"_`_`_`_`_`_`_f_f_f_f_f_`_`_`_`_`_`_`_`_`_`_`_`_`_`_`_`_`_`_`_`_`_`_`_`_`_`_`_`_`_`_`_`_`_`_`_`_`_`_`_`_`_`_`_`_`_`_`_`_`_`_d_d_d_d_d_`_`_`_`_`", 
"_`_`_`_`_`_f_f_f_f_f_f_f_`_`_`_`_`_`_`_`_`_`_`_`_`_`_`_`_`_`_`_`_`_`_`_`_`_`_`_`_`_`_`_`_`_`_`_`_`_`_`_`_`_`_`_`_`_`_`_`_`_d_d_`_d_d_`_`_`_`_`", 
"_`_`_`_`_`_f_f_`_`_`_f_f_c_c_c_`_`_`_`_`_`_`_`_`_`_`_`_`_`_`_`_`_`_`_`_`_`_`_`_`_`_`_`_`_`_`_`_`_`_`_`_`_`_`_`_`_`_`_`_`_`_d_d_`_d_d_`_`_`_`_`", 
"_`_`_`_`_`_f_f_`_`_`_f_f_c_c_c_c_c_c_c_c_`_`_`_`_`_`_`_`_`_`_`_`_`_`_`_`_`_`_`_`_`_`_`_`_`_`_`_`_`_`_`_`_`_`_`_`_`_`_`_`_`_d_d_`_d_d_`_`_`_`_`", 
"_`_`_`_`_`_f_f_f_`_f_f_f_c_c_c_c_c_c_c_c_c_c_c_c_c_`_`_`_`_`_`_`_`_`_`_`_`_`_c_`_`_`_`_`_`_`_`_`_`_`_`_`_`_`_`_`_d_d_d_d_d_d_d_`_d_d_d_d_d_d_d", 
"_`_`_`_`_`_`_f_f_f_f_f_f_c_c_c_c_c_c_c_c_c_c_c_c_c_c_c_c_c_c_`_`_`_`_`_`_c_c_`_`_`_`_`_`_`_`_`_`_`_`_`_`_`_`_`_`_`_d_d_d_d_d_d_`_d_d_d_d_d_d_`", 
"_`_`_`_`_`_`_`_f_f_f_f_c_c_c_c_c_c_c_c_c_c_c_c_c_c_c_c_c_c_c_c_c_c_c_c_c_c_c_`_`_`_`_`_`_`_`_`_`_`_`_`_`_`_`_`_`_`_`_d_d_d_d_d_`_d_d_d_d_d_`_`", 
"_`_`_`_`_`_`_`_f_f_f_`_c_c_c_c_c_c_`_`_`_c_c_c_c_c_c_c_c_c_c_c_c_c_c_c_c_c_c_c_c_`_`_`_`_`_`_`_`_`_`_`_`_`_`_`_`_`_`_d_d_d_d_d_`_d_d_d_d_`_`_`", 
"_`_`_`_`_`_`_`_f_f_f_`_`_c_c_c_c_c_c_c_`_`_`_`_`_`_c_c_c_c_c_c_c_c_c_c_c_c_c_c_c_c_c_c_c_c_c_`_`_`_`_`_`_`_`_`_`_`_`_`_d_d_d_d_`_d_d_d_`_`_`_`", 
"_`_`_`_`_`_`_`_f_f_f_`_`_`_`_c_c_c_c_c_c_`_`_`_`_`_`_`_`_`_`_`_c_c_c_c_c_c_c_c_c_c_c_c_c_c_c_c_c_c_c_c_`_`_`_`_`_`_`_`_`_d_d_d_d_d_d_d_`_`_`_`", 
"_`_`_`_`_`_`_`_f_f_f_`_`_`_`_`_c_c_c_c_c_c_`_`_`_`_`_`_`_`_`_`_`_`_`_`_c_c_c_c_c_c_c_c_c_c_c_c_c_c_c_c_c_c_c_c_c_`_`_`_`_`_d_d_d_d_d_`_`_`_`_`", 
"_`_`_`_`_`_`_`_f_f_f_`_`_`_`_`_`_c_c_c_c_c_c_c_`_`_`_`_`_`_`_`_`_`_`_`_c_c_`_`_`_c_c_c_c_c_c_c_c_c_c_c_c_c_c_c_c_c_c_c_c_c_d_d_d_d_d_`_`_`_`_`", 
"_`_`_`_`_`_`_`_f_f_f_`_`_`_`_`_`_`_`_c_c_c_c_c_c_`_`_`_c_`_`_`_`_`_`_`_`_c_`_`_`_`_`_`_`_`_`_c_c_c_c_c_c_c_c_c_c_c_c_c_c_d_d_d_d_d_d_d_`_`_`_`", 
"_`_`_`_`_`_`_`_f_f_f_`_`_`_`_`_`_`_`_`_c_c_c_c_c_c_`_c_c_`_`_`_`_`_`_`_`_`_`_`_`_`_`_`_`_`_`_`_`_`_`_`_c_c_c_c_c_c_c_c_c_d_d_`_`_`_d_d_`_`_`_`", 
"_`_`_`_`_`_`_`_f_f_f_`_`_`_`_`_`_`_`_`_`_c_c_c_c_c_c_c_c_`_`_`_`_`_`_`_`_`_`_`_`_`_`_`_`_`_`_`_`_`_`_`_`_`_`_`_`_c_c_c_c_d_d_`_`_`_d_d_`_`_`_`", 
"_`_`_`_`_`_`_`_f_f_f_`_`_`_`_`_`_`_`_`_`_`_`_c_c_c_c_c_c_`_`_`_`_`_`_`_`_`_`_`_`_`_`_`_`_`_`_`_`_`_`_`_`_`_`_`_`_`_`_`_c_d_d_d_d_d_d_d_`_`_`_`", 
"_`_`_`_`_f_f_f_f_f_f_f_f_f_`_`_`_`_`_`_`_`_`_`_c_c_c_c_c_c_`_`_`_`_`_`_`_`_`_`_`_`_`_`_`_`_`_`_`_`_`_`_`_`_`_`_`_`_`_c_c_c_d_d_d_d_d_`_`_`_`_`", 
"_`_`_`_`_`_f_f_f_f_f_f_f_`_`_`_`_`_`_`_`_`_`_`_`_c_c_c_c_c_c_c_`_`_`_`_`_`_`_`_`_`_`_`_`_`_`_`_`_`_`_`_`_`_`_`_`_c_c_c_c_c_c_d_d_d_`_`_`_`_`_`", 
"_`_`_`_`_`_`_f_f_f_f_f_`_`_`_`_`_`_`_`_`_`_`_`_c_c_c_c_c_c_c_c_c_`_`_`_`_`_`_`_`_`_`_`_`_`_`_`_`_`_`_`_`_`_`_`_c_c_c_c_c_c_`_b_b_b_`_`_`_`_`_`", 
"_`_`_`_`_`_`_`_f_f_f_`_`_`_`_`_`_`_`_`_`_`_`_c_`_`_`_`_c_c_c_c_c_c_`_`_`_`_`_`_`_`_`_`_`_`_`_`_`_`_`_c_c_`_`_c_c_c_c_c_c_`_`_b_b_b_`_`_`_`_`_`", 
"_`_`_`_`_`_`_`_f_f_f_`_`_`_`_`_`_`_`_`_`_`_`_`_`_`_`_`_`_c_c_c_c_c_c_c_`_`_`_`_`_`_`_`_`_`_`_`_`_`_`_`_c_c_c_c_c_c_c_c_`_`_`_b_b_b_`_`_`_`_`_`", 
"_`_`_`_`_`_`_`_f_f_f_`_`_`_`_`_`_`_`_`_`_`_`_`_`_`_`_`_`_`_`_c_c_c_c_c_c_`_`_`_`_`_`_`_`_`_`_`_`_`_`_`_c_c_c_c_c_c_c_`_`_`_`_b_b_b_`_`_`_`_`_`", 
"_`_`_`_`_`_`_`_f_f_f_`_`_`_`_`_`_`_`_`_`_`_`_`_`_`_`_`_`_`_`_`_c_c_c_c_c_c_`_`_`_`_`_`_`_`_`_`_`_`_`_c_c_c_c_c_c_`_`_`_`_`_`_b_b_b_`_`_`_`_`_`", 
"_`_`_`_`_`_`_`_f_f_f_`_`_`_`_`_`_`_`_`_`_`_`_`_`_`_`_`_`_`_`_`_`_c_c_c_c_c_c_c_`_`_`_`_`_`_`_`_`_`_c_c_c_c_c_c_c_`_`_`_`_`_`_b_b_b_`_`_`_`_`_`", 
"_`_`_`_`_`_`_`_f_f_f_`_`_`_`_`_`_`_`_`_`_`_`_`_`_`_`_`_`_`_`_`_`_`_`_c_c_c_c_c_c_`_`_`_`_`_`_`_`_c_c_c_c_c_c_c_c_`_`_`_`_`_`_b_b_b_`_`_`_`_`_`", 
"_`_`_`_`_`_`_`_f_f_f_`_`_`_`_`_`_`_`_`_`_`_`_`_`_`_`_`_`_`_`_`_`_`_`_`_c_c_c_c_c_c_`_`_`_`_`_`_c_c_c_c_c_c_`_c_c_`_`_`_`_`_`_b_b_b_`_`_`_`_`_`", 
"_`_`_`_`_`_`_`_f_f_f_`_`_`_`_`_`_`_`_`_`_`_`_`_`_`_`_`_`_`_`_`_`_`_`_`_`_c_c_c_c_c_c_c_e_e_e_c_c_c_c_c_c_`_`_`_`_`_`_`_`_`_`_b_b_b_`_`_`_`_`_`", 
"_`_`_`_`_`_`_`_f_f_f_`_`_`_`_`_`_`_`_`_`_`_`_`_`_`_`_`_`_`_`_`_`_`_`_`_`_`_`_c_c_c_c_e_e_e_e_e_c_c_c_`_`_`_`_`_`_`_`_`_`_`_`_b_b_b_`_`_`_`_`_`", 
"_`_`_`_`_`_`_`_f_f_f_`_`_`_`_`_`_`_`_`_`_`_`_`_`_`_`_`_b_`_`_`_`_`_`_`_`_`_`_`_c_b_e_e_e_e_e_e_e_c_`_`_`_`_`_`_`_`_`_`_b_b_b_b_b_b_b_b_b_`_`_`", 
"_`_`_`_`_`_`_`_f_f_f_`_`_`_`_`_`_`_`_`_`_`_`_`_`_`_`_b_b_`_`_b_b_b_b_b_b_b_b_b_b_b_e_e_`_`_`_e_e_`_`_`_`_`_`_`_`_`_`_`_`_b_b_b_b_b_b_b_`_`_`_`", 
"_`_`_`_`_`_`___________`_`_`_`_`_`_`_`_`_b_b_b_b_b_b_b_b_b_b_b_b_b_b_b_b_b_b_b_b_b_e_e_`_`_`_e_e_`_`_`_`_`_`_`_`_`_`_`_`_`_b_b_b_b_b_`_`_`_`_`", 
"_`_`_`_`_`_`_____________b_b_b_b_b_b_b_b_b_b_b_b_b_b_b_b_b_b_b_b_b_b_b_b_b_b_b_b_b_e_e_e_`_e_e_e_`_`_`_`_`_`_`_`_`_`_`_`_`_`_b_b_b_`_`_`_`_`_`", 
"_`_`_`_`_`_____`_`_`_____b_b_b_b_b_b_b_b_b_b_b_b_b_b_b_b_b_b_b_b_b_b_b_b_b_b_b_b_a_e_e_e_e_e_e_`_`_`_`_`_`_`_`_`_`_`_`_`_`_`_b_b_b_`_`_`_`_`_`", 
"_`_`_`_`_`_____`_`_`_____b_b_b_b_b_b_b_b_b_b_b_b_b_b_b_b_b_`_`_`_`_`_`_`_a_a_a_a_a_a_a_e_e_e_`_`_`_`_`_`_`_`_`_`_`_`_`_`_`_`_b_b_b_`_`_`_`_`_`", 
"_`_`_`_`_`_______`_`_____b_b_b_b_b_b_b_`_`_`_`_`_`_`_b_b_`_`_`_`_`_`_a_a_a_a_a_a_a_`_`_`_`_`_`_`_`_`_`_`_`_`_`_`_`_`_`_`_`_`_b_b_b_`_`_`_`_`_`", 
"_`_`_`_`_`_`_____________`_`_`_`_`_`_`_`_`_`_`_`_`_`_`_b_a_`_`_`_`_a_a_a_a_a_a_a_`_`_`_`_`_`_`_`_`_`_`_`_`_`_`_`_`_`_`_`_`_`_b_b_b_`_`_`_`_`_`", 
"_`_`_`_`_`_`___________`_`_`_`_`_`_`_`_`_`_`_`_`_`_`_`_`_a_a_a_a_a_a_a_a_a_a_`_`_`_`_`_`_`_`_`_`_`_`_`_`_`_`_`_`_`_`_`_`_`_`_b_b_b_`_`_`_`_`_`", 
"_`_`_`_`_`_`_____`_____`_`_`_`_`_`_`_`_`_`_`_`_`_`_`_`_`_`_a_a_a_a_a_a_a_a_`_`_`_`_`_`_`_`_`_`_`_`_`_`_`_`_`_`_`_`_`_`_`_`_`_b_b_b_`_`_`_`_`_`", 
"_`_`_`_`_`_`_____`_____`_`_`_`_`_`_`_`_`_`_`_`_`_`_`_`_`_a_a_a_a_a_a_a_`_`_`_`_`_`_`_`_`_`_`_`_`_`_`_`_`_`_`_`_`_`_`_`_`_`_`_b_b_b_`_`_`_`_`_`", 
"_`_`_`_`_`_`_____`_____`_`_`_`_`_`_`_`_`_`_`_`_`_`_`_`_a_a_a_a_a_a_a_`_`_`_`_`_`_`_`_`_`_`_`_`_`_`_`_`_`_`_`_`_`_`_`_`_`_`_`_b_b_b_`_`_`_`_`_`", 
"_`_`_`_`_`_`_____`_____`_`_`_`_`_`_`_`_`_`_`_`_`_`_a_a_a_a_a_a_a_a_`_`_`_`_`_`_`_`_`_`_`_`_`_`_`_`_`_`_`_`_`_`_`_`_`_`_`_`_`_b_b_b_`_`_`_`_`_`", 
"_`_`_____________`_______________`_`_`_`_`_`_`_`_a_a_a_a_a_a_a_a_a_`_`_`_`_`_`_`_`_`_`_`_`_`_`_`_`_`_`_`_`_`_`_`_`_`_`_`_`_`_b_b_b_`_`_`_`_`_`", 
"_`_`_`___________`_____________`_`_`_`_`_`_`_a_a_a_a_a_a_a_`_`_`_a_`_`_`_`_`_`_c_`_`_`_`_`_`_`_`_`_`_`_`_`_`_`_`_`_`_`_`_`_`_b_b_b_`_`_`_`_`_`", 
"_`_`_`_`_________`___________`_`_`_e_e_e_e_a_a_a_a_a_a_a_`_`_`_`_a_`_`_`_`_`_`_c_c_`_`_`_`_`_`_`_`_`_`_`_`_`_`_`_`_`_`_`_`_`_e_e_e_`_`_`_`_`_`", 
"_`_`_`_`_`_______`_________`_`_`_e_e_e_e_e_e_a_a_a_a_`_`_`_`_`_`_`_`_`_`_`_`_`_c_c_c_`_`_`_`_`_`_`_`_`_`_`_`_`_`_`_`_`_`_`_e_e_e_e_e_`_`_`_`_`", 
"_`_`_`_`_`_`_____________`_`_`_`_e_e_`_`_e_e_c_c_c_c_c_c_c_c_c_c_c_c_c_c_c_c_c_c_c_c_c_c_c_c_c_c_c_c_c_c_c_c_c_c_c_c_c_c_e_e_e_`_e_e_e_`_`_`_`", 
"_`_`_`_`_`_`___________`_`_`_`_e_e_e_`_`_e_e_e_c_c_c_c_c_c_c_c_c_c_c_c_c_c_c_c_c_c_c_c_c_c_c_c_c_c_c_c_c_c_c_c_c_c_c_c_c_e_e_`_`_`_e_e_`_`_`_`", 
"_`_`_`_`_`_`_`_______`_`_`_`_`_e_e_e_`_`_e_e_e_c_c_c_c_c_c_c_c_c_c_c_c_c_c_c_c_c_c_c_c_c_c_c_c_c_c_c_c_c_c_c_c_c_c_c_c_c_e_e_`_`_`_e_e_`_`_`_`", 
"_`_`_`_`_`_`_`_`___`_`_`_`_`_`_`_e_e_e_e_e_e_c_c_c_c_c_c_c_c_c_c_c_c_c_c_c_c_c_c_c_c_c_c_c_c_c_c_c_c_c_c_c_c_c_c_c_c_c_c_e_e_e_e_e_e_e_`_`_`_`", 
"_`_`_`_`_`_`_`_`_`_`_`_`_`_`_`_`_e_e_e_e_e_e_`_`_`_`_`_`_`_`_`_`_`_`_`_`_`_`_`_c_c_c_`_`_`_`_`_`_`_`_`_`_`_`_`_`_`_`_`_`_`_e_e_e_e_e_`_`_`_`_`", 
"_`_`_`_`_`_`_`_`_`_`_`_`_`_`_`_`_`_`_e_e_`_`_`_`_`_`_`_`_`_`_`_`_`_`_`_`_`_`_`_c_c_`_`_`_`_`_`_`_`_`_`_`_`_`_`_`_`_`_`_`_`_`_e_e_e_`_`_`_`_`_`", 
"_`_`_`_`_`_`_`_`_`_`_`_`_`_`_`_`_`_`_`_`_`_`_`_`_`_`_`_`_`_`_`_`_`_`_`_`_`_`_`_c_`_`_`_`_`_`_`_`_`_`_`_`_`_`_`_`_`_`_`_`_`_`_`_`_`_`_`_`_`_`_`", 
} ;
