/* XPM */
static char* scilab = {
"71 55 256 2",
"__ c #7d847c",
"_` c #c1bfb7",
"_a c #c6bccc",
"_b c #c4bcd2",
"_c c #c4bcd2",
"_d c #c7bccb",
"_e c #c3bbcc",
"_f c #c6bccc",
"_g c #c6bccc",
"_h c #c3bbcc",
"_i c #c5bcca",
"_j c #c2bcca",
"_k c #bbbccb",
"_l c #b7b5c5",
"_m c #bbbccb",
"_n c #a8a39b",
"_o c #b3aeb9",
"_p c #a8a6b5",
"_q c #a4a4ab",
"_r c #a59bb3",
"_s c #a39bab",
"_t c #a39bab",
"_u c #908da9",
"_v c #9a94a3",
"_w c #938c96",
"_x c #96939a",
"_y c #8a8893",
"_z c #938686",
"_{ c #878489",
"_| c #8b8382",
"_} c #7e8387",
"_~ c #86788e",
"`_ c #847983",
"`` c #797aa2",
"`a c #6d6b90",
"`b c #797883",
"`c c #676689",
"`d c #626283",
"`e c #5d6285",
"`f c #625983",
"`g c #514e82",
"`h c #575483",
"`i c #5a5983",
"`j c #555a82",
"`k c #c4b04e",
"`l c #a1935c",
"`m c #938678",
"`n c #878378",
"`o c #878378",
"`p c #dcc204",
"`q c #fde800",
"`r c #fde300",
"`s c #ecd302",
"`t c #fad701",
"`u c #f4cd01",
"`v c #e7c501",
"`w c #c8ac21",
"`x c #e2bc01",
"`y c #c5aa17",
"`z c #d9b500",
"`{ c #d9b301",
"`| c #d9b500",
"`} c #d2b401",
"`~ c #d5b500",
"a_ c #d5b100",
"a` c #d1b100",
"aa c #c5b400",
"ab c #ceb100",
"ac c #d1ae00",
"ad c #d1ae00",
"ae c #c4a501",
"af c #d1ae00",
"ag c #a9932b",
"ah c #bca202",
"ai c #ae9519",
"aj c #b39701",
"ak c #bca202",
"al c #ac9201",
"am c #a58801",
"an c #a58801",
"ao c #9b8516",
"ap c #9c8300",
"aq c #9c8300",
"ar c #857455",
"as c #827273",
"at c #8b7a7a",
"au c #8b7a7a",
"av c #837a7a",
"aw c #83737a",
"ax c #827a74",
"ay c #827273",
"az c #89762e",
"a{ c #907917",
"a| c #947d00",
"a} c #947d00",
"a~ c #897401",
"b_ c #826c01",
"b` c #5d625d",
"ba c #6d7277",
"bb c #757578",
"bc c #7a727a",
"bd c #7a7273",
"be c #746677",
"bf c #726a7a",
"bg c #676578",
"bh c #6a6a72",
"bi c #6a6272",
"bj c #78736b",
"bk c #736768",
"bl c #6b6a6a",
"bm c #6a626b",
"bn c #62626a",
"bo c #6a6363",
"bp c #5e6266",
"bq c #5d637b",
"br c #5e6266",
"bs c #6a5568",
"bt c #645977",
"bu c #635769",
"bv c #625962",
"bw c #625262",
"bx c #535274",
"by c #5a5a7b",
"bz c #5a5a7b",
"b{ c #59527a",
"b| c #59527a",
"b} c #5a5a7b",
"b~ c #59527a",
"c_ c #535274",
"c` c #515171",
"ca c #495279",
"cb c #4d5272",
"cc c #544877",
"cd c #524a7b",
"ce c #514979",
"cf c #514a73",
"cg c #474573",
"ch c #4d4a79",
"ci c #4b4a73",
"cj c #494971",
"ck c #454a72",
"cl c #4a4672",
"cm c #595961",
"cn c #51516c",
"co c #595961",
"cp c #595961",
"cq c #5a5262",
"cr c #4a5268",
"cs c #4d516d",
"ct c #534a65",
"cu c #514a6c",
"cv c #49436a",
"cw c #494969",
"cx c #49496d",
"cy c #494969",
"cz c #454a6b",
"c{ c #49436a",
"c| c #42426a",
"c} c #494965",
"c~ c #454a65",
"d_ c #424263",
"d` c #766855",
"da c #67625c",
"db c #6a5a4e",
"dc c #61595c",
"dd c #61595c",
"de c #4f5154",
"df c #555558",
"dg c #5a595b",
"dh c #59525a",
"di c #534655",
"dj c #474355",
"dk c #514945",
"dl c #514241",
"dm c #494549",
"dn c #494241",
"do c #494241",
"dp c #454241",
"dq c #3c4a6e",
"dr c #3c4a6e",
"ds c #3d4169",
"dt c #424263",
"du c #3d415a",
"dv c #483e70",
"dw c #433d66",
"dx c #4e3a4b",
"dy c #443957",
"dz c #463748",
"d{ c #423942",
"d| c #412e44",
"d} c #412e44",
"d~ c #3c3b64",
"e_ c #3b3858",
"e` c #3b3545",
"ea c #3b3545",
"eb c #392b42",
"ec c #695630",
"ed c #55492a",
"ee c #514241",
"ef c #474236",
"eg c #49423c",
"eh c #49423c",
"ei c #746300",
"ej c #796500",
"ek c #796500",
"el c #746300",
"em c #6b5b00",
"en c #6b5b00",
"eo c #6b5b00",
"ep c #5d5100",
"eq c #544916",
"er c #5d5100",
"es c #544700",
"et c #5b4c00",
"eu c #4c4100",
"ev c #3d4137",
"ew c #3b323b",
"ex c #473839",
"ey c #413935",
"ez c #3b323b",
"e{ c #413935",
"e| c #4c3b0d",
"e} c #463b01",
"e~ c #1e200c",
"f_ c #303232",
"f` c #3b323b",
"fa c #3b323b",
"fb c #3d3935",
"fc c #342939",
"fd c #30282e",
"fe c #292733",
"ff c #292733",
"fg c #30282e",
"fh c #30282e",
"fi c #271e29",
"fj c #26292c",
"fk c #26292c",
"fl c #271e29",
"fm c #271e29",
"fn c #272419",
"fo c #3c3401",
"fp c #332b01",
"fq c #292500",
"fr c #2b2400",
"fs c #231d15",
"ft c #221c01",
"fu c #18180b",
"fv c #191501",
"fw c #191501",
"fx c #191301",
"fy c #191501",
"fz c #181400",
"f{ c #131401",
"f| c #151500",
"f} c #161400",
"f~ c #161200",
"bddkeh_j_e_d_i_i_i_d_d_i_i_i_d_d_d_i_i_i_d_d_i_i_i_d_d_d_i_i_i_d_d_i_i_i_d_d_d_i_i_d_d_d_i_i_i_d_d_d_i_i_d_d_d_i_i_i_d_d_d_i_i_d_d_d_i_i_i_d_h", 
"bddodpbc_e_e_e_e_e_e_e_e_e_e_e_e_e_e_e_e_e_e_e_e_e_e_e_e_e_e_e_e_e_e_e_e_e_e_e_e_e_e_e_e_e_e_e_e_e_e_e_e_e_e_e_e_e_e_e_e_e_e_e_e_e_e_e_e_e_e_j", 
"bddododo_e_i_g_g_g_g_g_g_d_e_e_e_e_d_g_d_e_e_d_g_g_g_e_e_g_g_g_g_d_d_d_g_g_d_d_e_d_d_g_g_g_d_d_e_g_e_g_d_e_e_g_e_g_e_e_g_g_g_g_g_e_g_e_e_e_g_j", 
"bjefegeh_m_d_e_g_g_g_g_g_d_e_e_e_e_d_g_d_e_e_d_g_g_g_e_e_g_g_g_g_d_d_d_g_g_d_d_e_d_d_g_g_g_d_d_e_g_e_g_d_e_e_g_e_g_e_e_g_g_g_g_g_e_g_e_e_e_d_e", 
"bdegexefbc_j_e_d_g_g_g_e_g_e_g_g_g_d_g_d_e_e_d_g_e_d_d_g_g_e_g_g_d_d_d_g_g_d_d_g_d_e_g_g_e_g_d_g_g_e_g_d_e_g_g_e_g_e_e_g_g_e_e_d_d_g_g_d_d_g_e", 
"bjegefdpd{_f_e_e_g_g_g_e_g_e_g_g_g_d_g_d_e_e_d_g_e_d_d_g_g_e_g_g_d_d_d_g_g_d_d_g_d_e_g_g_e_g_d_g_g_e_g_d_e_g_g_d_g_e_e_g_g_e_e_d_d_g_g_d_g_e_e", 
"bjefefdoeg_e_i_i_d_g_g_g_d_e_e_e_e_d_g_d_e_e_d_g_g_g_e_e_g_g_g_g_d_d_d_g_g_d_d_e_d_d_g_g_g_d_d_e_g_e_g_e_d_d_e_d_d_e_e_g_g_g_g_g_e_d_e_d_d_d_e", 
"asefdodnef_x_e_e_d_g_g_g_d_e_e_e_e_d_g_d_e_e_d_g_g_g_e_e_g_g_g_g_d_d_d_g_g_d_d_e_d_d_g_g_g_d_d_e_g_e_g_e_e_d_e_d_d_e_e_g_g_d_d_g_d_e_e_e_d_e_e", 
"bdeee{efdpey_c_e_e_e_g_e_g_e_g_g_g_d_g_d_e_e_d_g_e_d_d_g_g_e_g_g_d_d_d_g_g_d_d_g_d_e_g_g_e_g_d_g_g_e_g_d_d_d_i_e_j_j_e_d_e_d_d_g_g_d_i_j_d_f_j", 
"bjdod{ehehfa_e_b_d_d_g_e_g_e_g_d_d_d_e_e_d_e_d_g_d_d_d_g_g_e_g_g_d_d_d_g_g_d_d_g_d_e_g_g_e_g_d_g_g_e_g_d_e_i_e_d_x_z_i_d_d_e_e_g_g_d_e_k_b_cbb", 
"bjdndoexdoe{`__e_i_e_g_d_d_e_e_d_e_d_g_g_d_d_d_g_d_g_e_e_g_g_g_g_d_d_d_g_g_d_d_e_d_d_g_g_g_d_d_e_g_e_g_e_e_f_mba_y_z_e_e_d_g_d_g_g_g_e_kbcbabn", 
"bddldlexefe{f`_k_e_e_e_e_d_e_d_d_d_e_g_e_d_e_d_d_d_g_d_e_d_d_g_g_d_d_d_g_g_d_d_e_d_d_g_g_g_d_d_e_g_e_g_i_e_mboavaxax_c_e_g_e_g_e_e_m_wbabmbnbn", 
"bjefdoefeyfbev_e_e_d_d_g_g_e_d_d_e_i_i_d_i_e_i_i_j_g_e_d_d_d_g_g_d_g_e_g_g_d_d_g_d_e_g_g_e_g_d_g_g_e_g_d_jbbbpbmbj`n_d_j_i_i_e_m_s`bbablbnbndd", 
"ayexehegdoe{ef_a_i_d_g_g_d_e_e_j_k_m_k_c_m_c_m_k_k_j_d_e_e_d_g_e_d_e_g_g_g_d_d_e_d_d_g_g_g_d_d_e_g_d_e_d_ecpbvbobjax_`_j_j_k_k`b_}bbbbblbnb`cp", 
"__efefdkdoevevbv_d_d_g_g_g_e_i_m_}`___`o_|_{_z___{_m_a_g_d_d_g_d_d_e_g_g_g_d_d_e_d_d_g_e_e_e_d_e_g_e_g_i_dcpbpbpbeasav_k_l_{bcbcbkbebsbrbuddcp", 
"axefefefdoefe{ey_e_i_i_j_i_i_f`b_{_{_{`_`o`n_y_z_x_z_e_j_i_d_g_d_e_e_g_g_g_d_d_g_d_e_g_d_d_g_e_e_e_d_i_i_kdfddbpbkbjav_y_}bcbbbhbnbhbibnddcpcp", 
"bjeeegegdneffbfb_l_k_m_e_j_e_l_|ax_|_{_|`__z_z_|_|_z_{_c_e_d_e_d_e_e_g_g_g_d_d_g_d_d_d_e_e_g_d_i_i_e_i_g_mb`dgdabeasat_{_~bbbhbhbhbhbnbubvcpdf", 
"__dkeedodpefeze{_q_q_p_o_e_k_vav_}_zau_|_|_{_|au_{_|_z_x_d_i_d_e_e_e_g_g_g_d_d_e_d_d_e_d_g_g_g_i_c_i_j_m_kdbdbbobjbkbjawbfbbbrbhbmbmbrcocpcpdf", 
"axdkdld{dodoe{fbey_t_q_q_q_obc`_au_|au_|_|_z_|av`_avav_y_p_i_d_e_e_e_g_g_g_d_d_e_d_d_g_i_j_i_j_j_l_s_v_u_wdedgbmbjbkbk__bbbhbhbmbpbnbpcpcpcpdh", 
"awdldkdodod{e{e{f`_q_q_q_p_pbcav_|`o_|_z_|au_|auauauav_{_{_d_i_i_e_e_g_g_g_d_d_g_d_d_g_a_c_o_q_q_t_v_v_vbrdfdcboblbkbjbcbbbhbnbnbnbrb`cpcpdfde", 
"aydldndldododoezf`_v_s_q_savbdavaw_|_|_zauau`o_|_zasax_|_y_m_j_g_e_e_g_g_g_d_d_g_d_g_m_p_p_q_s_v_v_v_x_xb`dfdcbmbkbkbdaxbhblbnbrbnbvddcpcpcpdh", 
"bddldlexdpdodpeyfbdi_n_s_qbcavavaxaxau`oax`o_{`naxasaxax_}_k_m_f_j_g_g_g_g_d_d_e_i_f_k_p_p_t_t_v_v_v_x_xdbdfb`dabobjbjbjbhbhbnbnbrddbvcpbrcodf", 
"bjdpdndldpdoege{ewe{_s_n_sbbavavavauau_|_|at`masaxavbdax_~_o_m_m_k_e_i_j_d_j_e_d_m_a_l_p_q_v_w_v_x_x_y_wdgb`dcbpbobsbhd`bhbgbnbnbvddcpcpcodgcr", 
"bdexdodldpdoexd{e{fb_s_s_xbbavavayavavbc_|_zat`mavaxayat`o_x_l_k_m_m_l_m_j_m_i_g_j_e_l_q_tagag`m`l_w_y_ybvcpdddabvd`bod`bhbmbnbnbpbvcpcpbvcpde", 
"bjexexdldpdodod|fae{eg_sbhbcbcbfayayayavawauax`oauavbjay`_`b_o_m_m_m_m_m_a_m_k_i_m_k_pagaqaqaqaqaqak`tbbdfdgdgdcbmbsbkbsbobmbpbrcobvcmcpcocpde", 
"bjegexeydpdoehehfaewfb_sbabhbfbfbcawbdaybcavaubbauawbdasbc_{_l_m_`a}a}a}a}aqaj`w_c_kfoejaqaqaqa|`u`t`|d`bvdfdbbvdcbodadabobnbmbnddbvcpcpbvdhde", 
"bdegegd{dodododofbfbfbdmbgbfbfbgbfbcaybdbjawbcavaybcaxeleoeob_a|al`pa}a}a}`x`u`t_c_lf_fzf|f{f}f}esal`|azcpdhdfdcd`d`asbjbjbnbmbpddcocpcodgdcf_", 
"bbdndndldldpdpegd{d{fbf`bhbhbebebeawawawayavawasbeayfnftfoeueueuae`}`ua}`u`u`{`~_m_k_q`bfyfzfzf}fweo`~`ydfdhdhbvdabkbkbsbobmbmbncocpcpcpcodefj", 
"bcehegdldldpdodnd{eye`e`bffoa~ajalaibebbbdbeawbtbebef_fzf}f}fzfxeka_a_fxe}a~`|a`_a_l_q_{f{f~f}f~fzek`~`{d`dedectdcbubmbmbubmbmbndfcpcpbwdhfhfe", 
"beexdodldldoegegb_aqaqaqalalaj`sfof|b_`rbebebebebtbebefyfzfzf{f|ftaqekf}fwerab`}ag_n_t_sfxf|f}fzf}ekak`{`t`r`xbvbwb~bwbsbsbubncpcpcpcpddf`fhfk", 
"beexdpdlexdoeheperepelelae`u`t`r`r`ragahbfbebebebibibibibibfbfbdfzf}f|f}f{eoa`a`a}a}apae`r`r`qf~f|elah`~`z`|`~`|cqbwbsbwbwbwbubucocpcpdefdfjfn", 
"bed{dodldpdzeueueue}eranafaca`a_anabadadbhbebebibibibtbna}apalaja~fof{f|fzeoakaceiem`z`v`|ada``zfxeja~`~`|f|af`{dcbwctcqdhcmbtbnbnbucof`fdfkfk", 
"bed|egdldoe{frfqfoe}euakadabfrf}fzfyeoadbfaoajaibtbsbmapa}a}a}a}a|`u`rf|f{eoak`~eset`{`|fqftaj`{fzeja~`~fxf~fo`|`ybwbwcqcqdhcpbhbicodjfcfkfnfi", 
"bed}dzdndlfxfzf~fyfqamaqadeuf|f}f}f~ftabekekejaqaqal`r`r`qa}a}am`u`ua_f~f~eob_`~f}fxeja_f~eneo`}fxelel`zfzfzemab`{bwbwcqcqcqcqbtbncmfcfefkfifm", 
"beeaeyehdof{fzfzf}f}ela|adfdfzf}fzfzfqenelererel`|`x`vada``rfp`va_a_`~f~f}eseo`~f~fyep`~am`tem`~fzekej`|fxf{elah`zbwbubububububvbrf`f`fhfkfkfi", 
"bfebezdzdzfzfzfzf}f}erajad`tfxf}fzf}fpe}amepeteraea`eufxaea_`|e}fraqa_fzfzesem`{fzf~fwfr`u`uam`{f~elel`|f~f}b_a}`|ctbwbwcqcndhbtdyebf`fhfkfkfm", 
"bfebeaexe`fcfzfzfzf~euela`af`raibge~f~fzfqeueuakaeacfzesesa_abfwenena_fzf}fqem`}a~b_a~`v`{fteoa_f{ekel`~esfoalan`lbg`c`d`cbf`cbqe`fafcfjfkfkfs", 
"beebezfad|d|f~fxfzf|frfqada`ab`p`qalftfqfqfpfqala`ftf{fzfqadftfzenepadf}fzfqeo`~etesaha`ajfxela`ejelel`|eoenae`~`dbtb~`dbtbtdzeyevfdfefkfkfkfm", 
"beebd|d}d|d}fafxfzf|f}ftaeadaba_a`ad`qaafzfzeka~a_fnbyf~f}f|f~f}enen`~f~fzf}ei`}fpfpala`emfxel`~`|emel`{`r`r`xag`c`dbt`a`f`fd{d{d{f`fhfkfkfmfk", 
"beebd}d}e`d}d}d|fdfyfzf}f{alababada`a_a``rfzeoa~a`frfrfrfrfqf{fvesen`~fyfzfzeoa`f{fpek`}ah`v`xa_aberel`~`{`{`zbxc`b~`dbtbqbxdye`fafcfhfefkfmfk", 
"beewd}d}e`dzd}d}dzd}d}fyf~fxfyeradadada`adfoepeja_esfrfrfre}aqf|fpen`{f{f~f|em`{e}frepa_`~`xep`}`~c`fnf{fyfncscbbxbtb}cbcucscnebf`f_fhfefkfefm", 
"bfd|dydxdxdja~ajajecdydzdif{f~f~f{fta`ad`}`xeteka_`xeteretaqanf}fqen`{ajfofxela_`z`qfr`|a_`}ftfzbycecdb{`d`dbx`cbx`dcnc`cmcucndjf_fcfhfkfkfefi", 
"bfd}djdzdjdxf~fxfxf}ajaf`sd}f{fzfzf}fzadadadetesa_abaka~ejafabfxfzeoa_`p`q`r`v`{`}a~fsf{fjcubyceb}cccucicncnb~cscsbtbfcndjebfafefcfefhfefefefm", 
"bhd}djdzdjdif~fzfzf}f{es`sd|fxf~fzfzfrfqa`abfwe}aba_`v`r`r`zejb_`rafa_`~`~emf|fvcicfcvcfb{czc_cjc_csc_b{bxcucnc`bzb}czdjc~dzfcfefefhfhfefdfkfe", 
"bgd}djdzdjdifxfxfzfzf{esabeoemesesfpfxenada_f}fta|a`a_abada_f{eserf|fve_c~c_cscecuclcvczc|c{dwcscfclcbc_czcycncscbbx`hcncndjfcfgfcfdfdfhfhflfe", 
"bfdzdmdjdxeaf~fzfzfzf}esab`paja}eieoaeal`}ftf~f{fxa|a`aba`cbb~dicgczc{cnczcfckcic~c{csc{c~cnc{cxc`c~c~c`b|bxbzb}b}b~bzc``dcnfcfefefefhflfefkfe", 
"bfdzdjdzd}ewfuf}fzfzf|eta``x`qahaj`tada``}b{`fclf}f{f|f~dz`ib}bzcfdwdtcvdud~`fb{c}dwcic`c_dvdsd~ckcucuc}c}c{c}cwc~cycycbcyc_djfcfefcfhfhfhfhfm", 
"bed}ewewewd}fsfyfzfzf{etaja`a``q`q`uadabcfcecjcxb{ckc{cvd~`jc_`jcgcfc{dsdscicycwdwc`ckcvcwcbcvdsd~dwcxczcfc`cscjclcbcscfby`cc_crebfcfcfhfdfdfl", 
"bef`fad}eafafgfzfzfzf~esana~amadabaff|by`c`icfcjcd`f`hcnc`cu`fbycccucjc{c{dwcycxc~cjc{cxcycgczchc{czdjcucjb|c`ceb|c_`f`dcscxcwd_dte_ebfffdfhfd", 
"bed}eafaebdycu`gf{fyfzeseichcdchckc`cfcu`icucuc``e`cclc{c|cecgce`jclc{dscfcyc|d_d~dtc|cydwckc|dvcfb{c_`dchc`b{byczc}czcfcxcxczd_dtc}c}djebfcfh", 
"bfewd|e`chcccecd`gcke_eu`hcecdcjczc|ciceczcgdt`jcxcwc~e_cz`jb{b{`i`jcgc{cxczcxcvdtdwcxc{cic_cndsdwdscjb{cscccbb~b|cbcecxdtccbyctcsd_cvcvcuebfa", 
"bhdy`f`jchc|`hccdqcjc|`hckcbczdsc|clcjclcwc`cxcfcj`fcjc|b|cebq`i`j`jcecjcvc{c|cfcuckcjclc{b|cyczc|d_dtc|c{cubyb{chb|b|cuczc{d_c`cnc_cscrcuctcz", 
"```j`gce`j`hb|chce`gch`h`jbycidsdtc_c{czc}c|cfczcl`jc`clcjcfcu`i`fb}bycecgcwc{c{cgcjccdwcecvc{cjcyceckc|d_dwcidscbclb}c`cjcbc`cyc~c`czc~e_e_dt", 
"```acachchcfcfcic|ce`e`j`achclckczcfcfcjczciczckcd`d`hdwdwc`chb{`fb{b{bxb{cgcjdsc|c|cecs`i`hc|dt`ic{cnc}b{`icfc{d~c}c{cccjcecicicsbybyb}c`ctc}", 
"```g`g`h`j`gcccece`e`a`c`i`jczckbyczce`jcfc{b~clckb{c{cld_ckcwce`hcccdcjb{cccncvdsc|c{ckcc`icld_dwc|cycecwby`f`fb{csdtduczclcfcscebycxcsc`ducy", 
} ;
